<?xml version="1.0" encoding="UTF-8"?>
<svg width="24px" height="24px" viewBox="0 0 24 24" version="1.1" xmlns="http://www.w3.org/2000/svg" xmlns:xlink="http://www.w3.org/1999/xlink">
    <!-- Generator: Sketch 50 (54983) - http://www.bohemiancoding.com/sketch -->
    <title>icon/content/archive_24px_two_tone</title>
    <desc>Created with Sketch.</desc>
    <defs>
        <path d="M0,11 L14,11 L14,0 L0,0 L0,11 Z M5.55,5 L5.55,2 L8.46,2 L8.46,5 L11,5 L7,9 L3,5 L5.55,5 Z" id="path-1"></path>
        <polygon id="path-3" points="8 3 5.45 3 5.45 0 2.55 0 2.55 3 0 3 4 7"></polygon>
        <path d="M17.54,2.23 L16.15,0.55 C15.88,0.21 15.47,0 15,0 L3,0 C2.53,0 2.12,0.21 1.84,0.55 L0.46,2.23 C0.17,2.57 0,3.02 0,3.5 L0,16 C0,17.1 0.9,18 2,18 L16,18 C17.1,18 18,17.1 18,16 L18,3.5 C18,3.02 17.83,2.57 17.54,2.23 Z M3.24,2 L14.76,2 L15.57,2.97 L2.44,2.97 L3.24,2 Z M16,16 L2,16 L2,5 L16,5 L16,16 Z" id="path-5"></path>
    </defs>
    <g id="icon/content/archive_24px" stroke="none" stroke-width="1" fill="none" fill-rule="evenodd">
        <g id="↳-Light-Color" transform="translate(5.000000, 8.000000)">
            <mask id="mask-2" fill="white">
                <use xlink:href="#path-1"></use>
            </mask>
            <g id="Mask" opacity="0.3" fill-rule="nonzero"></g>
            <g id="✱-/-Color-/-Icons-/-Black-/-Disabled" mask="url(#mask-2)" fill="#000000" fill-opacity="0.38">
                <rect id="Rectangle" x="0" y="0" width="101" height="101"></rect>
            </g>
        </g>
        <g id="↳-Dark-Color" transform="translate(8.000000, 10.000000)">
            <mask id="mask-4" fill="white">
                <use xlink:href="#path-3"></use>
            </mask>
            <g id="Mask" fill-rule="nonzero"></g>
            <g id="✱-/-Color-/-Icons-/-Black-/-Inactive" mask="url(#mask-4)" fill="#000000" fill-opacity="0.54">
                <rect id="Rectangle" x="0" y="0" width="101" height="101"></rect>
            </g>
        </g>
        <g id="↳-Dark-Color" transform="translate(3.000000, 3.000000)">
            <mask id="mask-6" fill="white">
                <use xlink:href="#path-5"></use>
            </mask>
            <g id="Mask" fill-rule="nonzero"></g>
            <g id="✱-/-Color-/-Icons-/-Black-/-Inactive" mask="url(#mask-6)" fill="#000000" fill-opacity="0.54">
                <rect id="Rectangle" x="0" y="0" width="101" height="101"></rect>
            </g>
        </g>
    </g>
</svg>