<?xml version="1.0" encoding="UTF-8"?>
<svg width="24px" height="24px" viewBox="0 0 24 24" version="1.1" xmlns="http://www.w3.org/2000/svg" xmlns:xlink="http://www.w3.org/1999/xlink">
    <!-- Generator: Sketch 50 (54983) - http://www.bohemiancoding.com/sketch -->
    <title>icon/content/backspace_24px_two_tone</title>
    <desc>Created with Sketch.</desc>
    <defs>
        <path d="M5.06,0 L0.4,7 L5.07,14 L20,14 L20,0 L5.06,0 C5.07,0 5.07,0 5.06,0 Z M7,3.41 L8.41,2 L12,5.59 L15.59,2 L17,3.41 L13.41,7 L17,10.59 L15.59,12 L12,8.41 L8.41,12 L7,10.59 L10.59,7 L7,3.41 Z" id="path-1"></path>
        <path d="M22,0 L7,0 C6.31,0 5.77,0.35 5.41,0.88 L0,9 L5.41,17.11 C5.77,17.64 6.31,18 7,18 L22,18 C23.1,18 24,17.1 24,16 L24,2 C24,0.9 23.1,0 22,0 Z M22,16 L7.07,16 L2.4,9 L7.06,2 C7.06,2 7.06,2 7.06,2 L22,2 L22,16 Z" id="path-3"></path>
        <polygon id="path-5" points="1.41 10 5 6.41 8.59 10 10 8.59 6.41 5 10 1.41 8.59 0 5 3.59 1.41 0 0 1.41 3.59 5 0 8.59"></polygon>
    </defs>
    <g id="icon/content/backspace_24px" stroke="none" stroke-width="1" fill="none" fill-rule="evenodd">
        <g id="↳-Light-Color" transform="translate(2.000000, 5.000000)">
            <mask id="mask-2" fill="white">
                <use xlink:href="#path-1"></use>
            </mask>
            <g id="Mask" opacity="0.3" fill-rule="nonzero"></g>
            <g id="✱-/-Color-/-Icons-/-Black-/-Disabled" mask="url(#mask-2)" fill="#000000" fill-opacity="0.38">
                <rect id="Rectangle" x="0" y="0" width="101" height="101"></rect>
            </g>
        </g>
        <g id="↳-Dark-Color" transform="translate(0.000000, 3.000000)">
            <mask id="mask-4" fill="white">
                <use xlink:href="#path-3"></use>
            </mask>
            <g id="Mask" fill-rule="nonzero"></g>
            <g id="✱-/-Color-/-Icons-/-Black-/-Inactive" mask="url(#mask-4)" fill="#000000" fill-opacity="0.54">
                <rect id="Rectangle" x="0" y="0" width="101" height="101"></rect>
            </g>
        </g>
        <g id="↳-Dark-Color" transform="translate(9.000000, 7.000000)">
            <mask id="mask-6" fill="white">
                <use xlink:href="#path-5"></use>
            </mask>
            <g id="Mask" fill-rule="nonzero"></g>
            <g id="✱-/-Color-/-Icons-/-Black-/-Inactive" mask="url(#mask-6)" fill="#000000" fill-opacity="0.54">
                <rect id="Rectangle" x="0" y="0" width="101" height="101"></rect>
            </g>
        </g>
    </g>
</svg>