<?xml version="1.0" encoding="UTF-8"?>
<svg width="24px" height="24px" viewBox="0 0 24 24" version="1.1" xmlns="http://www.w3.org/2000/svg" xmlns:xlink="http://www.w3.org/1999/xlink">
    <!-- Generator: Sketch 50 (54983) - http://www.bohemiancoding.com/sketch -->
    <title>icon/content/cut_24px_two_tone</title>
    <desc>Created with Sketch.</desc>
    <defs>
        <polygon id="path-1" points="6 0 0 6 2 8 9 1 9 0"></polygon>
        <path d="M8,4 C8,1.79 6.21,0 4,0 C1.79,0 0,1.79 0,4 C0,6.21 1.79,8 4,8 C4.59,8 5.14,7.87 5.64,7.64 L8,10 L5.64,12.36 C5.14,12.13 4.59,12 4,12 C1.79,12 0,13.79 0,16 C0,18.21 1.79,20 4,20 C6.21,20 8,18.21 8,16 C8,15.41 7.87,14.86 7.64,14.36 L10,12 L17,19 L20,19 L20,18 L7.64,5.64 C7.87,5.14 8,4.59 8,4 Z M4,6 C2.9,6 2,5.11 2,4 C2,2.89 2.9,2 4,2 C5.1,2 6,2.89 6,4 C6,5.11 5.1,6 4,6 Z M4,18 C2.9,18 2,17.11 2,16 C2,14.89 2.9,14 4,14 C5.1,14 6,14.89 6,16 C6,17.11 5.1,18 4,18 Z M10,9.5 C10.28,9.5 10.5,9.72 10.5,10 C10.5,10.28 10.28,10.5 10,10.5 C9.72,10.5 9.5,10.28 9.5,10 C9.5,9.72 9.72,9.5 10,9.5 Z" id="path-3"></path>
    </defs>
    <g id="icon/content/cut_24px" stroke="none" stroke-width="1" fill="none" fill-rule="evenodd">
        <g id="↳-Dark-Color" transform="translate(13.000000, 3.000000)">
            <mask id="mask-2" fill="white">
                <use xlink:href="#path-1"></use>
            </mask>
            <g id="Mask" fill-rule="nonzero"></g>
            <g id="✱-/-Color-/-Icons-/-Black-/-Inactive" mask="url(#mask-2)" fill="#000000" fill-opacity="0.54">
                <rect id="Rectangle" x="0" y="0" width="101" height="101"></rect>
            </g>
        </g>
        <g id="↳-Dark-Color" transform="translate(2.000000, 2.000000)">
            <mask id="mask-4" fill="white">
                <use xlink:href="#path-3"></use>
            </mask>
            <g id="Mask" fill-rule="nonzero"></g>
            <g id="✱-/-Color-/-Icons-/-Black-/-Inactive" mask="url(#mask-4)" fill="#000000" fill-opacity="0.54">
                <rect id="Rectangle" x="0" y="0" width="101" height="101"></rect>
            </g>
        </g>
    </g>
</svg>