<?xml version="1.0" encoding="UTF-8"?>
<svg width="24px" height="24px" viewBox="0 0 24 24" version="1.1" xmlns="http://www.w3.org/2000/svg" xmlns:xlink="http://www.w3.org/1999/xlink">
    <!-- Generator: Sketch 50 (54983) - http://www.bohemiancoding.com/sketch -->
    <title>icon/content/how_to_vote_24px_two_tone</title>
    <desc>Created with Sketch.</desc>
    <defs>
        <rect id="path-1" x="0" y="0" width="14" height="1"></rect>
        <path d="M15,0 L14.32,0 L12.32,2 L14.23,2 L16,4 L2,4 L3.78,2 L5.83,2 L3.83,0 L3,0 L0,3 L0,7 C0,8.1 0.89,9 1.99,9 L16,9 C17.1,9 18,8.11 18,7 L18,3 L15,0 Z M16,7 L2,7 L2,6 L16,6 L16,7 Z" id="path-3"></path>
        <rect id="path-5" x="2.24647852" y="1.15875807" width="5.00995195" height="6.99993287"></rect>
        <path d="M13.11,6.25 L8.16,1.3 C7.78,0.9 7.15,0.9 6.76,1.29 L0.39,7.66 C8.19344592e-14,8.05 8.19344592e-14,8.68 0.39,9.07 L5.34,14.02 C5.73,14.41 6.36,14.41 6.75,14.02 L13.11,7.66 C13.5,7.27 13.5,6.64 13.11,6.25 Z M6.05,11.9 L2.51,8.36 L7.46,3.41 L11,6.95 L6.05,11.9 Z" id="path-7"></path>
    </defs>
    <g id="icon/content/how_to_vote_24px" stroke="none" stroke-width="1" fill="none" fill-rule="evenodd">
        <g id="↳-Light-Color" transform="translate(5.000000, 19.000000)">
            <mask id="mask-2" fill="white">
                <use xlink:href="#path-1"></use>
            </mask>
            <g id="Mask" opacity="0.3" fill-rule="nonzero"></g>
            <g id="✱-/-Color-/-Icons-/-Black-/-Disabled" mask="url(#mask-2)" fill="#000000" fill-opacity="0.38">
                <rect id="Rectangle" x="0" y="0" width="101" height="101"></rect>
            </g>
        </g>
        <g id="↳-Dark-Color" transform="translate(3.000000, 13.000000)">
            <mask id="mask-4" fill="white">
                <use xlink:href="#path-3"></use>
            </mask>
            <g id="Mask" fill-rule="nonzero"></g>
            <g id="✱-/-Color-/-Icons-/-Black-/-Inactive" mask="url(#mask-4)" fill="#000000" fill-opacity="0.54">
                <rect id="Rectangle" x="0" y="0" width="101" height="101"></rect>
            </g>
        </g>
        <g id="↳-Light-Color" transform="translate(8.000000, 4.000000)">
            <mask id="mask-6" fill="white">
                <use xlink:href="#path-5"></use>
            </mask>
            <g id="Mask" opacity="0.3" fill-rule="nonzero" transform="translate(4.751455, 4.658725) rotate(-135.000000) translate(-4.751455, -4.658725) "></g>
            <g id="✱-/-Color-/-Icons-/-Black-/-Disabled" mask="url(#mask-6)" fill="#000000" fill-opacity="0.38">
                <rect id="Rectangle" x="0" y="0" width="101" height="101"></rect>
            </g>
        </g>
        <g id="↳-Dark-Color" transform="translate(6.000000, 1.000000)">
            <mask id="mask-8" fill="white">
                <use xlink:href="#path-7"></use>
            </mask>
            <g id="Mask" fill-rule="nonzero"></g>
            <g id="✱-/-Color-/-Icons-/-Black-/-Inactive" mask="url(#mask-8)" fill="#000000" fill-opacity="0.54">
                <rect id="Rectangle" x="0" y="0" width="101" height="101"></rect>
            </g>
        </g>
    </g>
</svg>