<?xml version="1.0" encoding="UTF-8"?>
<svg width="24px" height="24px" viewBox="0 0 24 24" version="1.1" xmlns="http://www.w3.org/2000/svg" xmlns:xlink="http://www.w3.org/1999/xlink">
    <!-- Generator: Sketch 50 (54983) - http://www.bohemiancoding.com/sketch -->
    <title>icon/content/link_24px_two_tone</title>
    <desc>Created with Sketch.</desc>
    <defs>
        <path d="M4,0 L0,0 L0,2 L4,2 C5.65,2 7,3.35 7,5 C7,6.65 5.65,8 4,8 L0,8 L0,10 L4,10 C6.76,10 9,7.76 9,5 C9,2.24 6.76,0 4,0 Z" id="path-1"></path>
        <path d="M9,8 L5,8 C3.35,8 2,6.65 2,5 C2,3.35 3.35,2 5,2 L9,2 L9,0 L5,0 C2.24,0 0,2.24 0,5 C0,7.76 2.24,10 5,10 L9,10 L9,8 Z" id="path-3"></path>
        <rect id="path-5" x="0" y="0" width="8" height="2"></rect>
    </defs>
    <g id="icon/content/link_24px" stroke="none" stroke-width="1" fill="none" fill-rule="evenodd">
        <g id="↳-Dark-Color" transform="translate(13.000000, 7.000000)">
            <mask id="mask-2" fill="white">
                <use xlink:href="#path-1"></use>
            </mask>
            <g id="Mask" fill-rule="nonzero"></g>
            <g id="✱-/-Color-/-Icons-/-Black-/-Inactive" mask="url(#mask-2)" fill="#000000" fill-opacity="0.54">
                <rect id="Rectangle" x="0" y="0" width="101" height="101"></rect>
            </g>
        </g>
        <g id="↳-Dark-Color" transform="translate(2.000000, 7.000000)">
            <mask id="mask-4" fill="white">
                <use xlink:href="#path-3"></use>
            </mask>
            <g id="Mask" fill-rule="nonzero"></g>
            <g id="✱-/-Color-/-Icons-/-Black-/-Inactive" mask="url(#mask-4)" fill="#000000" fill-opacity="0.54">
                <rect id="Rectangle" x="0" y="0" width="101" height="101"></rect>
            </g>
        </g>
        <g id="↳-Dark-Color" transform="translate(8.000000, 11.000000)">
            <mask id="mask-6" fill="white">
                <use xlink:href="#path-5"></use>
            </mask>
            <g id="Mask" fill-rule="nonzero"></g>
            <g id="✱-/-Color-/-Icons-/-Black-/-Inactive" mask="url(#mask-6)" fill="#000000" fill-opacity="0.54">
                <g transform="translate(-6.000000, -4.000000)" id="Rectangle">
                    <rect x="0" y="0" width="101" height="101"></rect>
                </g>
            </g>
        </g>
    </g>
</svg>