<?xml version="1.0" encoding="UTF-8"?>
<svg width="24px" height="24px" viewBox="0 0 24 24" version="1.1" xmlns="http://www.w3.org/2000/svg" xmlns:xlink="http://www.w3.org/1999/xlink">
    <!-- Generator: Sketch 50 (54983) - http://www.bohemiancoding.com/sketch -->
    <title>icon/content/link_off_24px_two_tone</title>
    <desc>Created with Sketch.</desc>
    <defs>
        <polygon id="path-1" points="0.39 0 2 1.61 2 0"></polygon>
        <path d="M4,0 L0,0 L0,1.9 L4,1.9 C5.71,1.9 7.1,3.29 7.1,5 C7.1,6.27 6.33,7.37 5.23,7.84 L6.63,9.24 C8.05,8.36 9,6.79 9,5 C9,2.24 6.76,0 4,0 Z" id="path-3"></path>
        <path d="M0,2.27 L3.11,5.38 C1.29,6.12 0,7.91 0,10 C0,12.76 2.24,15 5,15 L9,15 L9,13.1 L5,13.1 C3.29,13.1 1.9,11.71 1.9,10 C1.9,8.41 3.11,7.1 4.66,6.93 L6.73,9 L6,9 L6,11 L8.73,11 L11,13.27 L11,15 L12.73,15 L16.74,19.01 L18.15,17.6 L1.41,0.86 L0,2.27 Z" id="path-5"></path>
    </defs>
    <g id="icon/content/link_off_24px" stroke="none" stroke-width="1" fill="none" fill-rule="evenodd">
        <g id="↳-Dark-Color" transform="translate(14.000000, 11.000000)">
            <mask id="mask-2" fill="white">
                <use xlink:href="#path-1"></use>
            </mask>
            <g id="Mask" fill-rule="nonzero"></g>
            <g id="✱-/-Color-/-Icons-/-Black-/-Inactive" mask="url(#mask-2)" fill="#000000" fill-opacity="0.54">
                <rect id="Rectangle" x="0" y="0" width="101" height="101"></rect>
            </g>
        </g>
        <g id="↳-Dark-Color" transform="translate(13.000000, 7.000000)">
            <mask id="mask-4" fill="white">
                <use xlink:href="#path-3"></use>
            </mask>
            <g id="Mask" fill-rule="nonzero"></g>
            <g id="✱-/-Color-/-Icons-/-Black-/-Inactive" mask="url(#mask-4)" fill="#000000" fill-opacity="0.54">
                <rect id="Rectangle" x="0" y="0" width="101" height="101"></rect>
            </g>
        </g>
        <g id="↳-Dark-Color" transform="translate(2.000000, 2.000000)">
            <mask id="mask-6" fill="white">
                <use xlink:href="#path-5"></use>
            </mask>
            <g id="Mask" fill-rule="nonzero"></g>
            <g id="✱-/-Color-/-Icons-/-Black-/-Inactive" mask="url(#mask-6)" fill="#000000" fill-opacity="0.54">
                <rect id="Rectangle" x="0" y="0" width="101" height="101"></rect>
            </g>
        </g>
    </g>
</svg>