<?xml version="1.0" encoding="UTF-8"?>
<svg width="24px" height="24px" viewBox="0 0 24 24" version="1.1" xmlns="http://www.w3.org/2000/svg" xmlns:xlink="http://www.w3.org/1999/xlink">
    <!-- Generator: Sketch 50 (54983) - http://www.bohemiancoding.com/sketch -->
    <title>icon/content/next_week_24px_two_tone</title>
    <desc>Created with Sketch.</desc>
    <defs>
        <path d="M0,11 L16,11 L16,0 L0,0 L0,11 Z M6,2.5 L7,1.5 L11,5.5 L7,9.5 L6,8.5 L9,5.5 L6,2.5 Z" id="path-1"></path>
        <polygon id="path-3" points="1 8.5 5 4.5 1 0.5 0 1.5 3 4.5 0 7.5"></polygon>
        <path d="M18,4 L14,4 L14,2 C14,1.45 13.78,0.95 13.41,0.59 C13.05,0.22 12.55,0 12,0 L8,0 C6.9,0 6,0.9 6,2 L6,4 L2,4 C0.9,4 0,4.9 0,6 L0,17 C0,18.1 0.9,19 2,19 L18,19 C19.1,19 20,18.1 20,17 L20,6 C20,4.9 19.1,4 18,4 Z M8,2 L12,2 L12,4 L8,4 L8,2 Z M18,17 L2,17 L2,6 L18,6 L18,17 Z" id="path-5"></path>
    </defs>
    <g id="icon/content/next_week_24px" stroke="none" stroke-width="1" fill="none" fill-rule="evenodd">
        <g id="↳-Light-Color" transform="translate(4.000000, 9.000000)">
            <mask id="mask-2" fill="white">
                <use xlink:href="#path-1"></use>
            </mask>
            <g id="Mask" opacity="0.3" fill-rule="nonzero"></g>
            <g id="✱-/-Color-/-Icons-/-Black-/-Disabled" mask="url(#mask-2)" fill="#000000" fill-opacity="0.38">
                <rect id="Rectangle" x="0" y="0" width="101" height="101"></rect>
            </g>
        </g>
        <g id="↳-Dark-Color" transform="translate(10.000000, 10.000000)">
            <mask id="mask-4" fill="white">
                <use xlink:href="#path-3"></use>
            </mask>
            <g id="Mask" fill-rule="nonzero"></g>
            <g id="✱-/-Color-/-Icons-/-Black-/-Inactive" mask="url(#mask-4)" fill="#000000" fill-opacity="0.54">
                <rect id="Rectangle" x="0" y="0" width="101" height="101"></rect>
            </g>
        </g>
        <g id="↳-Dark-Color" transform="translate(2.000000, 3.000000)">
            <mask id="mask-6" fill="white">
                <use xlink:href="#path-5"></use>
            </mask>
            <g id="Mask" fill-rule="nonzero"></g>
            <g id="✱-/-Color-/-Icons-/-Black-/-Inactive" mask="url(#mask-6)" fill="#000000" fill-opacity="0.54">
                <rect id="Rectangle" x="0" y="0" width="101" height="101"></rect>
            </g>
        </g>
    </g>
</svg>