<?xml version="1.0" encoding="UTF-8"?>
<svg width="24px" height="24px" viewBox="0 0 24 24" version="1.1" xmlns="http://www.w3.org/2000/svg" xmlns:xlink="http://www.w3.org/1999/xlink">
    <!-- Generator: Sketch 50 (54983) - http://www.bohemiancoding.com/sketch -->
    <title>icon/content/report_24px_two_tone</title>
    <desc>Created with Sketch.</desc>
    <defs>
        <path d="M4.1,0 L0,4.1 L0,9.9 L4.1,14 L9.9,14 L14,9.9 L14,4.1 L9.9,0 L4.1,0 Z M7,12 C6.45,12 6,11.55 6,11 C6,10.45 6.45,10 7,10 C7.55,10 8,10.45 8,11 C8,11.55 7.55,12 7,12 Z M8,9 L6,9 L6,2 L8,2 L8,9 Z" id="path-1"></path>
        <path d="M12.73,0 L5.27,0 L0,5.27 L0,12.73 L5.27,18 L12.73,18 L18,12.73 L18,5.27 L12.73,0 Z M16,11.9 L11.9,16 L6.1,16 L2,11.9 L2,6.1 L6.1,2 L11.9,2 L16,6.1 L16,11.9 Z" id="path-3"></path>
        <circle id="path-5" cx="1" cy="1" r="1"></circle>
        <rect id="path-7" x="0" y="0" width="2" height="7"></rect>
    </defs>
    <g id="icon/content/report_24px" stroke="none" stroke-width="1" fill="none" fill-rule="evenodd">
        <g id="↳-Light-Color" transform="translate(5.000000, 5.000000)">
            <mask id="mask-2" fill="white">
                <use xlink:href="#path-1"></use>
            </mask>
            <g id="Mask" opacity="0.3" fill-rule="nonzero"></g>
            <g id="✱-/-Color-/-Icons-/-Black-/-Disabled" mask="url(#mask-2)" fill="#000000" fill-opacity="0.38">
                <rect id="Rectangle" x="0" y="0" width="101" height="101"></rect>
            </g>
        </g>
        <g id="↳-Dark-Color" transform="translate(3.000000, 3.000000)">
            <mask id="mask-4" fill="white">
                <use xlink:href="#path-3"></use>
            </mask>
            <g id="Mask" fill-rule="nonzero"></g>
            <g id="✱-/-Color-/-Icons-/-Black-/-Inactive" mask="url(#mask-4)" fill="#000000" fill-opacity="0.54">
                <rect id="Rectangle" x="0" y="0" width="101" height="101"></rect>
            </g>
        </g>
        <g id="↳-Dark-Color" transform="translate(11.000000, 15.000000)">
            <mask id="mask-6" fill="white">
                <use xlink:href="#path-5"></use>
            </mask>
            <g id="Mask" fill-rule="nonzero"></g>
            <g id="✱-/-Color-/-Icons-/-Black-/-Inactive" mask="url(#mask-6)" fill="#000000" fill-opacity="0.54">
                <rect id="Rectangle" x="0" y="0" width="101" height="101"></rect>
            </g>
        </g>
        <g id="↳-Dark-Color" transform="translate(11.000000, 7.000000)">
            <mask id="mask-8" fill="white">
                <use xlink:href="#path-7"></use>
            </mask>
            <g id="Mask" fill-rule="nonzero"></g>
            <g id="✱-/-Color-/-Icons-/-Black-/-Inactive" mask="url(#mask-8)" fill="#000000" fill-opacity="0.54">
                <rect id="Rectangle" x="0" y="0" width="101" height="101"></rect>
            </g>
        </g>
    </g>
</svg>