<?xml version="1.0" encoding="UTF-8"?>
<svg width="24px" height="24px" viewBox="0 0 24 24" version="1.1" xmlns="http://www.w3.org/2000/svg" xmlns:xlink="http://www.w3.org/1999/xlink">
    <!-- Generator: Sketch 50 (54983) - http://www.bohemiancoding.com/sketch -->
    <title>icon/content/waves_24px_two_tone</title>
    <desc>Created with Sketch.</desc>
    <defs>
        <path d="M15,13.99 C13.65,13.99 12.8,14.41 12.05,14.79 C11.4,15.12 10.87,15.39 10,15.39 C9.1,15.39 8.6,15.14 7.95,14.79 C7.2,14.41 6.38,13.99 5,13.99 C3.62,13.99 2.8,14.41 2.05,14.79 C1.4,15.12 0.88,15.39 -8.8817842e-16,15.39 L-8.8817842e-16,17.34 C1.35,17.34 2.2,16.92 2.95,16.54 C3.6,16.21 4.12,15.94 5,15.94 C5.88,15.94 6.4,16.19 7.05,16.54 C7.8,16.92 8.62,17.34 10,17.34 C11.38,17.34 12.2,16.92 12.95,16.54 C13.6,16.21 14.13,15.94 15,15.94 C15.9,15.94 16.4,16.19 17.05,16.54 C17.8,16.92 18.63,17.34 20,17.34 L20,15.39 C19.1,15.39 18.6,15.14 17.95,14.79 C17.2,14.41 16.35,13.99 15,13.99 Z M15,9.54 C13.65,9.54 12.8,9.97 12.05,10.34 C11.4,10.66 10.87,10.94 10,10.94 C9.1,10.94 8.6,10.69 7.95,10.34 C7.2,9.96 6.38,9.54 5,9.54 C3.62,9.54 2.8,9.97 2.05,10.34 C1.4,10.66 0.88,10.94 -8.8817842e-16,10.94 L-8.8817842e-16,12.89 C1.35,12.89 2.2,12.46 2.95,12.09 C3.6,11.74 4.1,11.49 5,11.49 C5.9,11.49 6.4,11.74 7.05,12.09 C7.8,12.47 8.62,12.89 10,12.89 C11.38,12.89 12.2,12.46 12.95,12.09 C13.6,11.74 14.1,11.49 15,11.49 C15.9,11.49 16.4,11.74 17.05,12.09 C17.8,12.47 18.63,12.89 20,12.89 L20,10.94 C19.1,10.94 18.6,10.69 17.95,10.34 C17.2,9.96 16.35,9.54 15,9.54 Z M17.95,1.46 C17.2,1.08 16.37,0.66 15,0.66 C13.63,0.66 12.8,1.08 12.05,1.46 C11.4,1.78 10.87,2.06 10,2.06 C9.1,2.06 8.6,1.81 7.95,1.46 C7.2,1.09 6.38,0.66 5,0.66 C3.62,0.66 2.8,1.08 2.05,1.46 C1.4,1.79 0.88,2.06 -8.8817842e-16,2.06 L-8.8817842e-16,3.99 C1.35,3.99 2.2,3.56 2.95,3.19 C3.6,2.86 4.12,2.59 5,2.59 C5.88,2.59 6.4,2.84 7.05,3.19 C7.8,3.57 8.62,3.99 10,3.99 C11.38,3.99 12.2,3.56 12.95,3.19 C13.6,2.87 14.13,2.59 15,2.59 C15.9,2.59 16.4,2.84 17.05,3.19 C17.8,3.57 18.63,3.99 20,3.99 L20,2.04 C19.1,2.04 18.6,1.79 17.95,1.46 Z M15,5.09 C13.65,5.09 12.8,5.52 12.05,5.89 C11.4,6.24 10.9,6.49 10,6.49 C9.1,6.49 8.6,6.24 7.95,5.89 C7.2,5.51 6.38,5.09 5,5.09 C3.62,5.09 2.8,5.52 2.05,5.89 C1.4,6.24 0.9,6.49 -8.8817842e-16,6.49 L-8.8817842e-16,8.44 C1.35,8.44 2.2,8.01 2.95,7.64 C3.6,7.32 4.13,7.04 5,7.04 C5.87,7.04 6.4,7.29 7.05,7.64 C7.8,8.02 8.62,8.44 10,8.44 C11.38,8.44 12.2,8.01 12.95,7.64 C13.6,7.32 14.13,7.04 15,7.04 C15.9,7.04 16.4,7.29 17.05,7.64 C17.8,8.02 18.63,8.44 20,8.44 L20,6.49 C19.1,6.49 18.6,6.24 17.95,5.89 C17.2,5.51 16.35,5.09 15,5.09 Z" id="path-1"></path>
    </defs>
    <g id="icon/content/waves_24px" stroke="none" stroke-width="1" fill="none" fill-rule="evenodd">
        <g id="↳-Dark-Color" transform="translate(2.000000, 3.000000)">
            <mask id="mask-2" fill="white">
                <use xlink:href="#path-1"></use>
            </mask>
            <g id="Mask" fill-rule="nonzero"></g>
            <g id="✱-/-Color-/-Icons-/-Black-/-Inactive" mask="url(#mask-2)" fill="#000000" fill-opacity="0.54">
                <rect id="Rectangle" x="0" y="0" width="101" height="101"></rect>
            </g>
        </g>
    </g>
</svg>