<?xml version="1.0" encoding="UTF-8"?>
<svg width="24px" height="24px" viewBox="0 0 24 24" version="1.1" xmlns="http://www.w3.org/2000/svg" xmlns:xlink="http://www.w3.org/1999/xlink">
    <!-- Generator: Sketch 50 (54983) - http://www.bohemiancoding.com/sketch -->
    <title>icon/maps/360_24px_two_tone</title>
    <desc>Created with Sketch.</desc>
    <defs>
        <path d="M7,9.77 L7,13 L11,9 L7,5 L7,7.73 C3.85,7.17 2,5.83 2,5 C2,3.94 5.04,2 10,2 C14.96,2 18,3.94 18,5 C18,5.73 16.54,6.89 14,7.53 L14,9.58 C17.53,8.81 20,7.05 20,5 C20,2.24 15.52,-1.77635684e-15 10,-1.77635684e-15 C4.48,-1.77635684e-15 0,2.24 0,5 C0,7.24 2.94,9.13 7,9.77 Z" id="path-1"></path>
    </defs>
    <g id="icon/maps/360_24px" stroke="none" stroke-width="1" fill="none" fill-rule="evenodd">
        <g id="↳-Dark-Color" transform="translate(2.000000, 7.000000)">
            <mask id="mask-2" fill="white">
                <use xlink:href="#path-1"></use>
            </mask>
            <g id="Mask" fill-rule="nonzero"></g>
            <g id="✱-/-Color-/-Icons-/-Black-/-Inactive" mask="url(#mask-2)" fill="#000000" fill-opacity="0.54">
                <rect id="Rectangle" x="0" y="0" width="101" height="101"></rect>
            </g>
        </g>
    </g>
</svg>