<?xml version="1.0" encoding="UTF-8"?>
<svg width="24px" height="24px" viewBox="0 0 24 24" version="1.1" xmlns="http://www.w3.org/2000/svg" xmlns:xlink="http://www.w3.org/1999/xlink">
    <!-- Generator: Sketch 50 (54983) - http://www.bohemiancoding.com/sketch -->
    <title>icon/maps/atm_24px_two_tone</title>
    <desc>Created with Sketch.</desc>
    <defs>
        <path d="M1.5,4.5 L3.5,4.5 L3.5,6 L5,6 L5,1 C5,0.45 4.55,0 4,0 L1,0 C0.45,0 0,0.45 0,1 L0,6 L1.5,6 L1.5,4.5 Z M1.5,1.5 L3.5,1.5 L3.5,3 L1.5,3 L1.5,1.5 Z" id="path-1"></path>
        <path d="M2,1.5 L3,1.5 L3,5 L4.5,5 L4.5,1.49 L5.5,1.49 L5.5,6 L7,6 L7,1 C7,0.45 6.55,0 6,0 L1.5,0 C0.95,0 0.5,0.45 0.5,1 L0.5,6 L2,6 L2,1.5 Z" id="path-3"></path>
        <polygon id="path-5" points="2.25 6 3.75 6 3.75 1.5 6 1.5 6 0 0 0 0 1.5 2.25 1.5"></polygon>
    </defs>
    <g id="icon/maps/atm_24px" stroke="none" stroke-width="1" fill="none" fill-rule="evenodd">
        <g id="↳-Dark-Color" transform="translate(2.000000, 9.000000)">
            <mask id="mask-2" fill="white">
                <use xlink:href="#path-1"></use>
            </mask>
            <g id="Mask" fill-rule="nonzero"></g>
            <g id="✱-/-Color-/-Icons-/-Black-/-Inactive" mask="url(#mask-2)" fill="#000000" fill-opacity="0.54">
                <rect id="Rectangle" x="0" y="0" width="101" height="101"></rect>
            </g>
        </g>
        <g id="↳-Dark-Color" transform="translate(15.000000, 9.000000)">
            <mask id="mask-4" fill="white">
                <use xlink:href="#path-3"></use>
            </mask>
            <g id="Mask" fill-rule="nonzero"></g>
            <g id="✱-/-Color-/-Icons-/-Black-/-Inactive" mask="url(#mask-4)" fill="#000000" fill-opacity="0.54">
                <rect id="Rectangle" x="0" y="0" width="101" height="101"></rect>
            </g>
        </g>
        <g id="↳-Dark-Color" transform="translate(8.000000, 9.000000)">
            <mask id="mask-6" fill="white">
                <use xlink:href="#path-5"></use>
            </mask>
            <g id="Mask" fill-rule="nonzero"></g>
            <g id="✱-/-Color-/-Icons-/-Black-/-Inactive" mask="url(#mask-6)" fill="#000000" fill-opacity="0.54">
                <rect id="Rectangle" x="0" y="0" width="101" height="101"></rect>
            </g>
        </g>
    </g>
</svg>