<?xml version="1.0" encoding="UTF-8"?>
<svg width="24px" height="24px" viewBox="0 0 24 24" version="1.1" xmlns="http://www.w3.org/2000/svg" xmlns:xlink="http://www.w3.org/1999/xlink">
    <!-- Generator: Sketch 50 (54983) - http://www.bohemiancoding.com/sketch -->
    <title>icon/maps/beenhere_24px_two_tone</title>
    <desc>Created with Sketch.</desc>
    <defs>
        <path d="M14,0 L0,0 L0,12.93 L7,17.59 L14,12.92 L14,0 Z M5,13 L1,9 L2.41,7.59 L4.99,10.17 L11.58,3.58 L13,5 L5,13 Z" id="path-1"></path>
        <path d="M16,0 L2,0 C0.9,0 0.01,0.9 0.01,2 L0,14.93 C0,15.62 0.35,16.23 0.88,16.59 L9,22 L17.11,16.59 C17.64,16.23 17.99,15.62 17.99,14.93 L18,2 C18,0.9 17.1,0 16,0 Z M9,19.6 L2,14.94 L2,2 L16,2 L16,14.93 L9,19.6 Z" id="path-3"></path>
        <polygon id="path-5" points="3.99 7.18 1.41 4.59 0 6 4 10 12 2 10.58 0.58"></polygon>
    </defs>
    <g id="icon/maps/beenhere_24px" stroke="none" stroke-width="1" fill="none" fill-rule="evenodd">
        <g id="↳-Light-Color" transform="translate(5.000000, 3.000000)">
            <mask id="mask-2" fill="white">
                <use xlink:href="#path-1"></use>
            </mask>
            <g id="Mask" opacity="0.3" fill-rule="nonzero"></g>
            <g id="✱-/-Color-/-Icons-/-Black-/-Disabled" mask="url(#mask-2)" fill="#000000" fill-opacity="0.38">
                <rect id="Rectangle" x="0" y="0" width="101" height="101"></rect>
            </g>
        </g>
        <g id="↳-Dark-Color" transform="translate(3.000000, 1.000000)">
            <mask id="mask-4" fill="white">
                <use xlink:href="#path-3"></use>
            </mask>
            <g id="Mask" fill-rule="nonzero"></g>
            <g id="✱-/-Color-/-Icons-/-Black-/-Inactive" mask="url(#mask-4)" fill="#000000" fill-opacity="0.54">
                <rect id="Rectangle" x="0" y="0" width="101" height="101"></rect>
            </g>
        </g>
        <g id="↳-Dark-Color" transform="translate(6.000000, 6.000000)">
            <mask id="mask-6" fill="white">
                <use xlink:href="#path-5"></use>
            </mask>
            <g id="Mask" fill-rule="nonzero"></g>
            <g id="✱-/-Color-/-Icons-/-Black-/-Inactive" mask="url(#mask-6)" fill="#000000" fill-opacity="0.54">
                <rect id="Rectangle" x="0" y="0" width="101" height="101"></rect>
            </g>
        </g>
    </g>
</svg>