<?xml version="1.0" encoding="UTF-8"?>
<svg width="24px" height="24px" viewBox="0 0 24 24" version="1.1" xmlns="http://www.w3.org/2000/svg" xmlns:xlink="http://www.w3.org/1999/xlink">
    <!-- Generator: Sketch 50 (54983) - http://www.bohemiancoding.com/sketch -->
    <title>icon/maps/directions_run_24px_two_tone</title>
    <desc>Created with Sketch.</desc>
    <defs>
        <path d="M0.49,2.48 C0.49,3.58 1.39,4.48 2.49,4.48 C3.59,4.48 4.49,3.58 4.49,2.48 C4.49,1.38 3.59,0.48 2.49,0.48 C1.39,0.48 0.49,1.38 0.49,2.48 Z" id="path-1"></path>
        <path d="M8.89,9.98 L10.99,11.98 L10.99,17.98 L12.99,17.98 L12.99,10.48 L10.89,8.48 L11.49,5.48 C12.79,6.98 14.79,7.98 16.99,7.98 L16.99,5.98 C15.09,5.98 13.49,4.98 12.69,3.58 L11.69,1.98 C11.29,1.38 10.69,0.98 9.99,0.98 C9.69,0.98 9.49,1.08 9.19,1.08 L3.99,3.28 L3.99,7.98 L5.99,7.98 L5.99,4.58 L7.79,3.88 L6.19,11.98 L1.29,10.98 L0.89,12.98 L7.89,14.38 L8.89,9.98 Z" id="path-3"></path>
    </defs>
    <g id="icon/maps/directions_run_24px" stroke="none" stroke-width="1" fill="none" fill-rule="evenodd">
        <g id="↳-Dark-Color" transform="translate(11.000000, 1.000000)">
            <mask id="mask-2" fill="white">
                <use xlink:href="#path-1"></use>
            </mask>
            <g id="Mask" fill-rule="nonzero"></g>
            <g id="✱-/-Color-/-Icons-/-Black-/-Inactive" mask="url(#mask-2)" fill="#000000" fill-opacity="0.54">
                <rect id="Rectangle" x="0" y="0" width="101" height="101"></rect>
            </g>
        </g>
        <g id="↳-Dark-Color" transform="translate(2.000000, 5.000000)">
            <mask id="mask-4" fill="white">
                <use xlink:href="#path-3"></use>
            </mask>
            <g id="Mask" fill-rule="nonzero"></g>
            <g id="✱-/-Color-/-Icons-/-Black-/-Inactive" mask="url(#mask-4)" fill="#000000" fill-opacity="0.54">
                <rect id="Rectangle" x="0" y="0" width="101" height="101"></rect>
            </g>
        </g>
    </g>
</svg>