<?xml version="1.0" encoding="UTF-8"?>
<svg width="24px" height="24px" viewBox="0 0 24 24" version="1.1" xmlns="http://www.w3.org/2000/svg" xmlns:xlink="http://www.w3.org/1999/xlink">
    <!-- Generator: Sketch 50 (54983) - http://www.bohemiancoding.com/sketch -->
    <title>icon/maps/directions_walk_24px_two_tone</title>
    <desc>Created with Sketch.</desc>
    <defs>
        <path d="M7.5,4.5 C8.6,4.5 9.5,3.6 9.5,2.5 C9.5,1.4 8.6,0.5 7.5,0.5 C6.4,0.5 5.5,1.4 5.5,2.5 C5.5,3.6 6.4,4.5 7.5,4.5 Z M3.8,7.9 L1,22 L3.1,22 L4.9,14 L7,16 L7,22 L9,22 L9,14.5 L6.9,12.5 L7.5,9.5 C8.8,11 10.8,12 13,12 L13,10 C11.1,10 9.5,9 8.7,7.6 L7.7,6 C7.14,5.11 6.02,4.75 5.05,5.16 L0,7.3 L0,12 L2,12 L2,8.6 L3.8,7.9 Z" id="path-1"></path>
    </defs>
    <g id="icon/maps/directions_walk_24px" stroke="none" stroke-width="1" fill="none" fill-rule="evenodd">
        <g id="↳-Dark-Color" transform="translate(6.000000, 1.000000)">
            <mask id="mask-2" fill="white">
                <use xlink:href="#path-1"></use>
            </mask>
            <g id="Mask" fill-rule="nonzero"></g>
            <g id="✱-/-Color-/-Icons-/-Black-/-Inactive" mask="url(#mask-2)" fill="#000000" fill-opacity="0.54">
                <rect id="Rectangle" x="0" y="0" width="101" height="101"></rect>
            </g>
        </g>
    </g>
</svg>