<?xml version="1.0" encoding="UTF-8"?>
<svg width="24px" height="24px" viewBox="0 0 24 24" version="1.1" xmlns="http://www.w3.org/2000/svg" xmlns:xlink="http://www.w3.org/1999/xlink">
    <!-- Generator: Sketch 50 (54983) - http://www.bohemiancoding.com/sketch -->
    <title>icon/maps/directions_boat_24px_two_tone</title>
    <desc>Created with Sketch.</desc>
    <defs>
        <path d="M2.49,5.68 L4,3.96 L5.51,5.68 C5.85,6.08 6.79,7 8,7 C9.21,7 10.15,6.08 10.49,5.68 L12,3.96 L13.51,5.68 C13.71,5.91 14.11,6.32 14.65,6.62 L15.77,2.65 L13.38,1.87 L8,0.11 L2.62,1.88 L0.22,2.67 L1.35,6.63 C1.9,6.32 2.29,5.91 2.49,5.68 Z" id="path-1"></path>
        <rect id="path-3" x="0" y="0" width="2" height="1"></rect>
        <path d="M2.95,18 L3,18 C4.6,18 6.02,17.12 7,16 C7.98,17.12 9.4,18 11,18 C12.6,18 14.02,17.12 15,16 C15.98,17.12 17.4,18 19,18 L19.05,18 L20.94,11.32 C21.02,11.06 21,10.78 20.88,10.54 C20.76,10.3 20.54,10.12 20.28,10.04 L19,9.62 L19,5 C19,3.9 18.1,3 17,3 L14,3 L14,0 L8,0 L8,3 L5,3 C3.9,3 3,3.9 3,5 L3,9.62 L1.71,10.04 C1.45,10.12 1.23,10.3 1.11,10.54 C0.99,10.78 0.96,11.06 1.05,11.32 L2.95,18 Z M10,2 L12,2 L12,3 L10,3 L10,2 Z M5,5 L17,5 L17,8.97 L11,7 L5,8.97 L5,5 Z M5.62,10.87 L11,9.11 L16.38,10.88 L18.77,11.66 L17.65,15.63 C17.11,15.33 16.71,14.92 16.51,14.69 L15,12.96 L13.49,14.68 C13.15,15.08 12.21,16 11,16 C9.79,16 8.85,15.08 8.51,14.68 L7,12.96 L5.49,14.68 C5.29,14.91 4.89,15.31 4.35,15.61 L3.22,11.65 L5.62,10.87 Z" id="path-5"></path>
        <path d="M6,3.01 C7.26,3.65 8.63,3.98 10,3.98 C11.37,3.98 12.74,3.66 14,3.01 C15.26,3.66 16.62,4 18,4 L20,4 L20,2 L18,2 C16.61,2 15.22,1.53 14,0.68 C12.78,1.53 11.39,1.96 10,1.96 C8.61,1.96 7.22,1.53 6,0.68 C4.78,1.53 3.39,2 2,2 L0,2 L0,4 L2,4 C3.38,4 4.74,3.65 6,3.01 Z" id="path-7"></path>
    </defs>
    <g id="icon/maps/directions_boat_24px" stroke="none" stroke-width="1" fill="none" fill-rule="evenodd">
        <g id="↳-Light-Color" transform="translate(4.000000, 10.000000)">
            <mask id="mask-2" fill="white">
                <use xlink:href="#path-1"></use>
            </mask>
            <g id="Mask" opacity="0.3" fill-rule="nonzero"></g>
            <g id="✱-/-Color-/-Icons-/-Black-/-Disabled" mask="url(#mask-2)" fill="#000000" fill-opacity="0.38">
                <rect id="Rectangle" x="0" y="0" width="101" height="101"></rect>
            </g>
        </g>
        <g id="↳-Light-Color" transform="translate(11.000000, 3.000000)">
            <mask id="mask-4" fill="white">
                <use xlink:href="#path-3"></use>
            </mask>
            <g id="Mask" opacity="0.3" fill-rule="nonzero"></g>
            <g id="✱-/-Color-/-Icons-/-Black-/-Disabled" mask="url(#mask-4)" fill="#000000" fill-opacity="0.38">
                <rect id="Rectangle" x="0" y="0" width="101" height="101"></rect>
            </g>
        </g>
        <g id="↳-Dark-Color" transform="translate(1.000000, 1.000000)">
            <mask id="mask-6" fill="white">
                <use xlink:href="#path-5"></use>
            </mask>
            <g id="Mask" fill-rule="nonzero"></g>
            <g id="✱-/-Color-/-Icons-/-Black-/-Inactive" mask="url(#mask-6)" fill="#000000" fill-opacity="0.54">
                <rect id="Rectangle" x="0" y="0" width="101" height="101"></rect>
            </g>
        </g>
        <g id="↳-Dark-Color" transform="translate(2.000000, 19.000000)">
            <mask id="mask-8" fill="white">
                <use xlink:href="#path-7"></use>
            </mask>
            <g id="Mask" fill-rule="nonzero"></g>
            <g id="✱-/-Color-/-Icons-/-Black-/-Inactive" mask="url(#mask-8)" fill="#000000" fill-opacity="0.54">
                <rect id="Rectangle" x="0" y="0" width="101" height="101"></rect>
            </g>
        </g>
    </g>
</svg>