<?xml version="1.0" encoding="UTF-8"?>
<svg width="24px" height="24px" viewBox="0 0 24 24" version="1.1" xmlns="http://www.w3.org/2000/svg" xmlns:xlink="http://www.w3.org/1999/xlink">
    <!-- Generator: Sketch 50 (54983) - http://www.bohemiancoding.com/sketch -->
    <title>icon/maps/directions_bike_24px_two_tone</title>
    <desc>Created with Sketch.</desc>
    <defs>
        <path d="M2.5,4.5 C3.6,4.5 4.5,3.6 4.5,2.5 C4.5,1.4 3.6,0.5 2.5,0.5 C1.4,0.5 0.5,1.4 0.5,2.5 C0.5,3.6 1.4,4.5 2.5,4.5 Z" id="path-1"></path>
        <path d="M5,10 C7.8,10 10,7.8 10,5 C10,2.2 7.8,0 5,0 C2.2,0 0,2.2 0,5 C0,7.8 2.2,10 5,10 Z M5,1.5 C6.9,1.5 8.5,3.1 8.5,5 C8.5,6.9 6.9,8.5 5,8.5 C3.1,8.5 1.5,6.9 1.5,5 C1.5,3.1 3.1,1.5 5,1.5 Z" id="path-3"></path>
        <path d="M0.8,6.2 L4,9 L4,14 L6,14 L6,7.8 L3.8,5.5 L6.2,3.1 L7,3.9 C8.3,5.2 10,6 12.1,6 L12.1,4 C10.6,4 9.4,3.4 8.5,2.5 L6.6,0.6 C6.1,0.2 5.6,0 5,0 C4.4,0 3.9,0.2 3.6,0.6 L0.8,3.4 C0.4,3.8 0.2,4.3 0.2,4.8 C0.2,5.4 0.4,5.9 0.8,6.2 Z" id="path-5"></path>
        <path d="M5,0 C2.2,0 0,2.2 0,5 C0,7.8 2.2,10 5,10 C7.8,10 10,7.8 10,5 C10,2.2 7.8,0 5,0 Z M5,8.5 C3.1,8.5 1.5,6.9 1.5,5 C1.5,3.1 3.1,1.5 5,1.5 C6.9,1.5 8.5,3.1 8.5,5 C8.5,6.9 6.9,8.5 5,8.5 Z" id="path-7"></path>
    </defs>
    <g id="icon/maps/directions_bike_24px" stroke="none" stroke-width="1" fill="none" fill-rule="evenodd">
        <g id="↳-Dark-Color" transform="translate(13.000000, 1.000000)">
            <mask id="mask-2" fill="white">
                <use xlink:href="#path-1"></use>
            </mask>
            <g id="Mask" fill-rule="nonzero"></g>
            <g id="✱-/-Color-/-Icons-/-Black-/-Inactive" mask="url(#mask-2)" fill="#000000" fill-opacity="0.54">
                <rect id="Rectangle" x="0" y="0" width="101" height="101"></rect>
            </g>
        </g>
        <g id="↳-Dark-Color" transform="translate(0.000000, 12.000000)">
            <mask id="mask-4" fill="white">
                <use xlink:href="#path-3"></use>
            </mask>
            <g id="Mask" fill-rule="nonzero"></g>
            <g id="✱-/-Color-/-Icons-/-Black-/-Inactive" mask="url(#mask-4)" fill="#000000" fill-opacity="0.54">
                <rect id="Rectangle" x="0" y="0" width="101" height="101"></rect>
            </g>
        </g>
        <g id="↳-Dark-Color" transform="translate(7.000000, 5.000000)">
            <mask id="mask-6" fill="white">
                <use xlink:href="#path-5"></use>
            </mask>
            <g id="Mask" fill-rule="nonzero"></g>
            <g id="✱-/-Color-/-Icons-/-Black-/-Inactive" mask="url(#mask-6)" fill="#000000" fill-opacity="0.54">
                <rect id="Rectangle" x="0" y="0" width="101" height="101"></rect>
            </g>
        </g>
        <g id="↳-Dark-Color" transform="translate(14.000000, 12.000000)">
            <mask id="mask-8" fill="white">
                <use xlink:href="#path-7"></use>
            </mask>
            <g id="Mask" fill-rule="nonzero"></g>
            <g id="✱-/-Color-/-Icons-/-Black-/-Inactive" mask="url(#mask-8)" fill="#000000" fill-opacity="0.54">
                <rect id="Rectangle" x="0" y="0" width="101" height="101"></rect>
            </g>
        </g>
    </g>
</svg>