<?xml version="1.0" encoding="UTF-8"?>
<svg width="24px" height="24px" viewBox="0 0 24 24" version="1.1" xmlns="http://www.w3.org/2000/svg" xmlns:xlink="http://www.w3.org/1999/xlink">
    <!-- Generator: Sketch 50 (54983) - http://www.bohemiancoding.com/sketch -->
    <title>icon/maps/directions_24px_two_tone</title>
    <desc>Created with Sketch.</desc>
    <defs>
        <path d="M0.01,9 L9.01,18 L18,9 L9,0 L0.01,9 Z M11,4.5 L14.5,8 L11,11.5 L11,9 L7,9 L7,12 L5,12 L5,8 C5,7.45 5.45,7 6,7 L11,7 L11,4.5 Z" id="path-1"></path>
        <path d="M12.42,0.58 C11.67,-0.17 10.35,-0.18 9.59,0.58 L0.59,9.58 C-0.19,10.36 -0.19,11.62 0.59,12.4 L9.59,21.4 C9.98,21.79 10.49,21.98 11,21.98 C11.51,21.98 12.02,21.79 12.41,21.4 L21.4,12.41 C22.18,11.65 22.19,10.38 21.42,9.59 L12.42,0.58 Z M11.01,19.99 L2.01,10.99 L11.01,1.99 L20.01,10.99 L11.01,19.99 Z" id="path-3"></path>
        <path d="M0,4 L0,8 L2,8 L2,5 L6,5 L6,7.5 L9.5,4 L6,0.5 L6,3 L1,3 C0.45,3 0,3.45 0,4 Z" id="path-5"></path>
    </defs>
    <g id="icon/maps/directions_24px" stroke="none" stroke-width="1" fill="none" fill-rule="evenodd">
        <g id="↳-Light-Color" transform="translate(3.000000, 3.000000)">
            <mask id="mask-2" fill="white">
                <use xlink:href="#path-1"></use>
            </mask>
            <g id="Mask" opacity="0.3" fill-rule="nonzero"></g>
            <g id="✱-/-Color-/-Icons-/-Black-/-Disabled" mask="url(#mask-2)" fill="#000000" fill-opacity="0.38">
                <rect id="Rectangle" x="0" y="0" width="101" height="101"></rect>
            </g>
        </g>
        <g id="↳-Dark-Color" transform="translate(1.000000, 1.000000)">
            <mask id="mask-4" fill="white">
                <use xlink:href="#path-3"></use>
            </mask>
            <g id="Mask" fill-rule="nonzero"></g>
            <g id="✱-/-Color-/-Icons-/-Black-/-Inactive" mask="url(#mask-4)" fill="#000000" fill-opacity="0.54">
                <rect id="Rectangle" x="0" y="0" width="101" height="101"></rect>
            </g>
        </g>
        <g id="↳-Dark-Color" transform="translate(8.000000, 7.000000)">
            <mask id="mask-6" fill="white">
                <use xlink:href="#path-5"></use>
            </mask>
            <g id="Mask" fill-rule="nonzero"></g>
            <g id="✱-/-Color-/-Icons-/-Black-/-Inactive" mask="url(#mask-6)" fill="#000000" fill-opacity="0.54">
                <rect id="Rectangle" x="0" y="0" width="101" height="101"></rect>
            </g>
        </g>
    </g>
</svg>