<?xml version="1.0" encoding="UTF-8"?>
<svg width="24px" height="24px" viewBox="0 0 24 24" version="1.1" xmlns="http://www.w3.org/2000/svg" xmlns:xlink="http://www.w3.org/1999/xlink">
    <!-- Generator: Sketch 50 (54983) - http://www.bohemiancoding.com/sketch -->
    <title>icon/maps/directions_railway_24px_two_tone</title>
    <desc>Created with Sketch.</desc>
    <defs>
        <path d="M0,3.5 C0,4.33 0.67,5 1.5,5 L10.5,5 C11.33,5 12,4.33 12,3.5 L12,0 L0,0 L0,3.5 Z M6,0.5 C7.1,0.5 8,1.4 8,2.5 C8,3.6 7.1,4.5 6,4.5 C4.9,4.5 4,3.6 4,2.5 C4,1.4 4.9,0.5 6,0.5 Z" id="path-1"></path>
        <path d="M6,0 C0,0 0,1.2 0,2 L12,2 C12,1.2 12,0 6,0 Z" id="path-3"></path>
        <path d="M16,14.5 L16,4 C16,0.5 12.42,0 8,0 C3.58,0 0,0.5 0,4 L0,14.5 C0,16.43 1.57,18 3.5,18 L2,19.5 L2,20 L14,20 L14,19.5 L12.5,18 C14.43,18 16,16.43 16,14.5 Z M14,14.5 C14,15.33 13.33,16 12.5,16 L3.5,16 C2.67,16 2,15.33 2,14.5 L2,11 L14,11 L14,14.5 Z M14,9 L2,9 L2,6 L14,6 L14,9 Z M2,4 C2,3.2 2,2 8,2 C14,2 14,3.2 14,4 L2,4 Z" id="path-5"></path>
        <path d="M2,4.5 C3.1,4.5 4,3.6 4,2.5 C4,1.4 3.1,0.5 2,0.5 C0.9,0.5 0,1.4 0,2.5 C0,3.6 0.9,4.5 2,4.5 Z" id="path-7"></path>
    </defs>
    <g id="icon/maps/directions_railway_24px" stroke="none" stroke-width="1" fill="none" fill-rule="evenodd">
        <g id="↳-Light-Color" transform="translate(6.000000, 12.000000)">
            <mask id="mask-2" fill="white">
                <use xlink:href="#path-1"></use>
            </mask>
            <g id="Mask" opacity="0.3" fill-rule="nonzero"></g>
            <g id="✱-/-Color-/-Icons-/-Black-/-Disabled" mask="url(#mask-2)" fill="#000000" fill-opacity="0.38">
                <rect id="Rectangle" x="0" y="0" width="101" height="101"></rect>
            </g>
        </g>
        <g id="↳-Light-Color" transform="translate(6.000000, 3.000000)">
            <mask id="mask-4" fill="white">
                <use xlink:href="#path-3"></use>
            </mask>
            <g id="Mask" opacity="0.3" fill-rule="nonzero"></g>
            <g id="✱-/-Color-/-Icons-/-Black-/-Disabled" mask="url(#mask-4)" fill="#000000" fill-opacity="0.38">
                <rect id="Rectangle" x="0" y="0" width="101" height="101"></rect>
            </g>
        </g>
        <g id="↳-Dark-Color" transform="translate(4.000000, 1.000000)">
            <mask id="mask-6" fill="white">
                <use xlink:href="#path-5"></use>
            </mask>
            <g id="Mask" fill-rule="nonzero"></g>
            <g id="✱-/-Color-/-Icons-/-Black-/-Inactive" mask="url(#mask-6)" fill="#000000" fill-opacity="0.54">
                <rect id="Rectangle" x="0" y="0" width="101" height="101"></rect>
            </g>
        </g>
        <g id="↳-Dark-Color" transform="translate(10.000000, 12.000000)">
            <mask id="mask-8" fill="white">
                <use xlink:href="#path-7"></use>
            </mask>
            <g id="Mask" fill-rule="nonzero"></g>
            <g id="✱-/-Color-/-Icons-/-Black-/-Inactive" mask="url(#mask-8)" fill="#000000" fill-opacity="0.54">
                <rect id="Rectangle" x="0" y="0" width="101" height="101"></rect>
            </g>
        </g>
    </g>
</svg>