<?xml version="1.0" encoding="UTF-8"?>
<svg width="24px" height="24px" viewBox="0 0 24 24" version="1.1" xmlns="http://www.w3.org/2000/svg" xmlns:xlink="http://www.w3.org/1999/xlink">
    <!-- Generator: Sketch 50 (54983) - http://www.bohemiancoding.com/sketch -->
    <title>icon/maps/fastfood_24px_two_tone</title>
    <desc>Created with Sketch.</desc>
    <defs>
        <path d="M0,0.98 C0,1.54 0.45,1.99 1.01,1.99 L14,1.99 C14.56,1.99 15.01,1.54 15.01,0.98 L15.01,0 L0,0 L0,0.98 Z" id="path-1"></path>
        <path d="M5.5,0.99 C4.08,0.99 1.73,1.45 0.62,3 L10.39,3 C9.27,1.45 6.92,0.99 5.5,0.99 Z" id="path-3"></path>
        <path d="M7.5,0.99 C3.75,0.99 0,3 0,7 L15,7 C15,3 11.25,0.99 7.5,0.99 Z M2.62,5 C3.73,3.45 6.09,2.99 7.5,2.99 C8.91,2.99 11.27,3.45 12.38,5 L2.62,5 Z" id="path-5"></path>
        <rect id="path-7" x="0" y="0" width="15" height="2"></rect>
        <path d="M7,4 L7,0 L5,0 L5,4 L0,4 L0.23,6 L9.79,6 L8.39,20 L7,20 L7,22 L8.72,22 C9.56,22 10.25,21.35 10.35,20.53 L12,4 L7,4 Z" id="path-9"></path>
    </defs>
    <g id="icon/maps/fastfood_24px" stroke="none" stroke-width="1" fill="none" fill-rule="evenodd">
        <g id="↳-Dark-Color" transform="translate(1.000000, 21.000000)">
            <mask id="mask-2" fill="white">
                <use xlink:href="#path-1"></use>
            </mask>
            <g id="Mask" fill-rule="nonzero"></g>
            <g id="✱-/-Color-/-Icons-/-Black-/-Inactive" mask="url(#mask-2)" fill="#000000" fill-opacity="0.54">
                <rect id="Rectangle" x="0" y="0" width="101" height="101"></rect>
            </g>
        </g>
        <g id="↳-Light-Color" transform="translate(3.000000, 10.000000)">
            <mask id="mask-4" fill="white">
                <use xlink:href="#path-3"></use>
            </mask>
            <g id="Mask" opacity="0.3" fill-rule="nonzero"></g>
            <g id="✱-/-Color-/-Icons-/-Black-/-Disabled" mask="url(#mask-4)" fill="#000000" fill-opacity="0.38">
                <rect id="Rectangle" x="0" y="0" width="101" height="101"></rect>
            </g>
        </g>
        <g id="↳-Dark-Color" transform="translate(1.000000, 8.000000)">
            <mask id="mask-6" fill="white">
                <use xlink:href="#path-5"></use>
            </mask>
            <g id="Mask" fill-rule="nonzero"></g>
            <g id="✱-/-Color-/-Icons-/-Black-/-Inactive" mask="url(#mask-6)" fill="#000000" fill-opacity="0.54">
                <rect id="Rectangle" x="0" y="0" width="101" height="101"></rect>
            </g>
        </g>
        <g id="↳-Dark-Color" transform="translate(1.000000, 17.000000)">
            <mask id="mask-8" fill="white">
                <use xlink:href="#path-7"></use>
            </mask>
            <g id="Mask" fill-rule="nonzero"></g>
            <g id="✱-/-Color-/-Icons-/-Black-/-Inactive" mask="url(#mask-8)" fill="#000000" fill-opacity="0.54">
                <g transform="translate(0.000000, -9.000000)" id="Rectangle">
                    <rect x="0" y="0" width="101" height="101"></rect>
                </g>
            </g>
        </g>
        <g id="↳-Dark-Color" transform="translate(11.000000, 1.000000)">
            <mask id="mask-10" fill="white">
                <use xlink:href="#path-9"></use>
            </mask>
            <g id="Mask" fill-rule="nonzero"></g>
            <g id="✱-/-Color-/-Icons-/-Black-/-Inactive" mask="url(#mask-10)" fill="#000000" fill-opacity="0.54">
                <g transform="translate(-10.000000, 0.000000)" id="Rectangle">
                    <rect x="0" y="0" width="101" height="101"></rect>
                </g>
            </g>
        </g>
    </g>
</svg>