<?xml version="1.0" encoding="UTF-8"?>
<svg width="24px" height="24px" viewBox="0 0 24 24" version="1.1" xmlns="http://www.w3.org/2000/svg" xmlns:xlink="http://www.w3.org/1999/xlink">
    <!-- Generator: Sketch 50 (54983) - http://www.bohemiancoding.com/sketch -->
    <title>icon/maps/local_movies_24px_two_tone</title>
    <desc>Created with Sketch.</desc>
    <defs>
        <rect id="path-1" x="0" y="0" width="4" height="14"></rect>
        <path d="M16,18 L16,0 L14,0 L14,2 L12,2 L12,0 L4,0 L4,2 L2,2 L2,0 L0,0 L0,18 L2,18 L2,16 L4,16 L4,18 L12,18 L12,16 L14,16 L14,18 L16,18 Z M4,14 L2,14 L2,12 L4,12 L4,14 Z M4,10 L2,10 L2,8 L4,8 L4,10 Z M4,6 L2,6 L2,4 L4,4 L4,6 Z M10,16 L6,16 L6,2 L10,2 L10,16 Z M12,4 L14,4 L14,6 L12,6 L12,4 Z M12,8 L14,8 L14,10 L12,10 L12,8 Z M12,14 L12,12 L14,12 L14,14 L12,14 Z" id="path-3"></path>
    </defs>
    <g id="icon/maps/local_movies_24px" stroke="none" stroke-width="1" fill="none" fill-rule="evenodd">
        <g id="↳-Light-Color" transform="translate(10.000000, 5.000000)">
            <mask id="mask-2" fill="white">
                <use xlink:href="#path-1"></use>
            </mask>
            <g id="Mask" opacity="0.3" fill-rule="nonzero"></g>
            <g id="✱-/-Color-/-Icons-/-Black-/-Disabled" mask="url(#mask-2)" fill="#000000" fill-opacity="0.38">
                <rect id="Rectangle" x="0" y="0" width="101" height="101"></rect>
            </g>
        </g>
        <g id="↳-Dark-Color" transform="translate(4.000000, 3.000000)">
            <mask id="mask-4" fill="white">
                <use xlink:href="#path-3"></use>
            </mask>
            <g id="Mask" fill-rule="nonzero"></g>
            <g id="✱-/-Color-/-Icons-/-Black-/-Inactive" mask="url(#mask-4)" fill="#000000" fill-opacity="0.54">
                <rect id="Rectangle" x="0" y="0" width="101" height="101"></rect>
            </g>
        </g>
    </g>
</svg>