<?xml version="1.0" encoding="UTF-8"?>
<svg width="24px" height="24px" viewBox="0 0 24 24" version="1.1" xmlns="http://www.w3.org/2000/svg" xmlns:xlink="http://www.w3.org/1999/xlink">
    <!-- Generator: Sketch 50 (54983) - http://www.bohemiancoding.com/sketch -->
    <title>icon/maps/local_florist_24px_two_tone</title>
    <desc>Created with Sketch.</desc>
    <defs>
        <path d="M2,3 C2.62,3 3.12,2.51 3.14,1.9 L3.03,0.81 C2.71,0.93 2.36,1 2,1 C1.64,1 1.3,0.93 0.98,0.81 L0.86,1.9 C0.88,2.51 1.38,3 2,3 Z" id="path-1"></path>
        <path d="M1.17,3.1 L2.05,3.52 C2.17,2.79 2.56,2.15 3.11,1.69 L2.3,1.13 C2.12,1 1.89,0.93 1.66,0.93 C1.03,0.93 0.52,1.44 0.52,2.07 C0.51,2.51 0.77,2.9 1.17,3.1 Z" id="path-3"></path>
        <path d="M2.83,0.9 L1.95,0.48 C1.83,1.21 1.44,1.85 0.89,2.31 L1.7,2.88 C1.88,3.01 2.11,3.08 2.34,3.08 C2.97,3.08 3.48,2.57 3.48,1.94 C3.49,1.49 3.23,1.1 2.83,0.9 Z" id="path-5"></path>
        <path d="M1.95,3.52 L2.83,3.1 C3.23,2.91 3.49,2.51 3.49,2.07 C3.49,1.44 2.98,0.93 2.35,0.93 C2.11,0.93 1.89,1 1.7,1.13 L0.89,1.68 C1.44,2.14 1.83,2.78 1.95,3.52 Z" id="path-7"></path>
        <path d="M2,2 C2.36,2 2.71,2.07 3.03,2.19 L3.14,1.1 C3.12,0.49 2.62,0 2,0 C1.38,0 0.88,0.49 0.86,1.1 L0.98,2.19 C1.3,2.07 1.64,2 2,2 Z" id="path-9"></path>
        <path d="M1.66,3.07 C1.9,3.07 2.12,3 2.31,2.87 L3.12,2.32 C2.56,1.86 2.17,1.22 2.05,0.48 L1.17,0.9 C0.77,1.1 0.51,1.49 0.51,1.93 C0.51,2.56 1.03,3.07 1.66,3.07 Z" id="path-11"></path>
        <path d="M4.56,0.44 C2.66,1.15 1.14,2.66 0.44,4.56 C2.34,3.85 3.85,2.34 4.56,0.44 Z" id="path-13"></path>
        <path d="M0.44,0.44 C1.15,2.34 2.66,3.86 4.56,4.56 C3.85,2.66 2.34,1.15 0.44,0.44 Z" id="path-15"></path>
        <path d="M3.66,12.07 C3.81,12.07 3.95,12.06 4.09,12.04 C4.56,13.19 5.69,14 7,14 C8.31,14 9.44,13.19 9.91,12.04 C10.05,12.06 10.2,12.07 10.34,12.07 C12.07,12.07 13.48,10.66 13.48,8.93 C13.48,8.22 13.23,7.54 12.81,7 C13.24,6.46 13.48,5.78 13.48,5.07 C13.48,3.34 12.07,1.93 10.34,1.93 C10.19,1.93 10.05,1.94 9.91,1.96 C9.44,0.81 8.31,0 7,0 C5.69,0 4.56,0.81 4.09,1.96 C3.95,1.94 3.8,1.93 3.66,1.93 C1.93,1.93 0.52,3.34 0.52,5.07 C0.52,5.78 0.77,6.46 1.19,7 C0.76,7.54 0.51,8.22 0.51,8.93 C0.51,10.66 1.92,12.07 3.66,12.07 Z M10.34,10.07 C10.1,10.07 9.88,10 9.7,9.87 L8.89,9.3 C9.44,8.85 9.83,8.21 9.95,7.47 L10.83,7.89 C11.23,8.08 11.49,8.48 11.49,8.92 C11.49,9.56 10.97,10.07 10.34,10.07 Z M9.69,4.13 C9.89,4 10.11,3.93 10.34,3.93 C10.97,3.93 11.48,4.44 11.48,5.07 C11.48,5.51 11.23,5.9 10.82,6.1 L9.94,6.52 C9.82,5.78 9.43,5.14 8.87,4.69 L9.69,4.13 Z M7,2 C7.62,2 8.12,2.49 8.14,3.1 L8.03,4.19 C7.71,4.07 7.36,4 7,4 C6.64,4 6.3,4.07 5.98,4.19 L5.86,3.1 C5.88,2.49 6.38,2 7,2 Z M8,7 C8,7.55 7.55,8 7,8 C6.45,8 6,7.55 6,7 C6,6.45 6.45,6 7,6 C7.55,6 8,6.45 8,7 Z M5.98,9.81 C6.3,9.93 6.64,10 7,10 C7.36,10 7.71,9.93 8.03,9.81 L8.14,10.9 C8.12,11.51 7.62,12 7,12 C6.38,12 5.88,11.51 5.86,10.9 L5.98,9.81 Z M3.66,3.93 C3.9,3.93 4.12,4 4.3,4.13 L5.11,4.69 C4.56,5.14 4.17,5.78 4.05,6.52 L3.17,6.1 C2.77,5.9 2.51,5.51 2.51,5.07 C2.51,4.44 3.03,3.93 3.66,3.93 Z M3.17,7.9 L4.05,7.48 C4.17,8.22 4.56,8.86 5.12,9.31 L4.31,9.86 C4.11,9.99 3.89,10.06 3.66,10.06 C3.03,10.06 2.52,9.55 2.52,8.92 C2.51,8.49 2.77,8.1 3.17,7.9 Z" id="path-17"></path>
        <path d="M0,9 C4.97,9 9,4.97 9,0 C4.03,0 0,4.03 0,9 Z M6.56,2.44 C5.85,4.34 4.34,5.86 2.44,6.56 C3.15,4.66 4.66,3.15 6.56,2.44 Z" id="path-19"></path>
        <path d="M0,0 C0,4.97 4.03,9 9,9 C9,4.03 4.97,0 0,0 Z M2.44,2.44 C4.34,3.15 5.86,4.66 6.56,6.56 C4.66,5.85 3.15,4.34 2.44,2.44 Z" id="path-21"></path>
    </defs>
    <g id="icon/maps/local_florist_24px" stroke="none" stroke-width="1" fill="none" fill-rule="evenodd">
        <g id="↳-Light-Color" transform="translate(10.000000, 10.000000)">
            <mask id="mask-2" fill="white">
                <use xlink:href="#path-1"></use>
            </mask>
            <g id="Mask" opacity="0.3" fill-rule="nonzero"></g>
            <g id="✱-/-Color-/-Icons-/-Black-/-Disabled" mask="url(#mask-2)" fill="#000000" fill-opacity="0.38">
                <rect id="Rectangle" x="0" y="0" width="101" height="101"></rect>
            </g>
        </g>
        <g id="↳-Light-Color" transform="translate(7.000000, 4.000000)">
            <mask id="mask-4" fill="white">
                <use xlink:href="#path-3"></use>
            </mask>
            <g id="Mask" opacity="0.3" fill-rule="nonzero"></g>
            <g id="✱-/-Color-/-Icons-/-Black-/-Disabled" mask="url(#mask-4)" fill="#000000" fill-opacity="0.38">
                <rect id="Rectangle" x="0" y="0" width="101" height="101"></rect>
            </g>
        </g>
        <g id="↳-Light-Color" transform="translate(13.000000, 8.000000)">
            <mask id="mask-6" fill="white">
                <use xlink:href="#path-5"></use>
            </mask>
            <g id="Mask" opacity="0.3" fill-rule="nonzero"></g>
            <g id="✱-/-Color-/-Icons-/-Black-/-Disabled" mask="url(#mask-6)" fill="#000000" fill-opacity="0.38">
                <rect id="Rectangle" x="0" y="0" width="101" height="101"></rect>
            </g>
        </g>
        <g id="↳-Light-Color" transform="translate(13.000000, 4.000000)">
            <mask id="mask-8" fill="white">
                <use xlink:href="#path-7"></use>
            </mask>
            <g id="Mask" opacity="0.3" fill-rule="nonzero"></g>
            <g id="✱-/-Color-/-Icons-/-Black-/-Disabled" mask="url(#mask-8)" fill="#000000" fill-opacity="0.38">
                <rect id="Rectangle" x="0" y="0" width="101" height="101"></rect>
            </g>
        </g>
        <g id="↳-Light-Color" transform="translate(10.000000, 3.000000)">
            <mask id="mask-10" fill="white">
                <use xlink:href="#path-9"></use>
            </mask>
            <g id="Mask" opacity="0.3" fill-rule="nonzero"></g>
            <g id="✱-/-Color-/-Icons-/-Black-/-Disabled" mask="url(#mask-10)" fill="#000000" fill-opacity="0.38">
                <rect id="Rectangle" x="0" y="0" width="101" height="101"></rect>
            </g>
        </g>
        <g id="↳-Light-Color" transform="translate(7.000000, 8.000000)">
            <mask id="mask-12" fill="white">
                <use xlink:href="#path-11"></use>
            </mask>
            <g id="Mask" opacity="0.3" fill-rule="nonzero"></g>
            <g id="✱-/-Color-/-Icons-/-Black-/-Disabled" mask="url(#mask-12)" fill="#000000" fill-opacity="0.38">
                <rect id="Rectangle" x="0" y="0" width="101" height="101"></rect>
            </g>
        </g>
        <g id="↳-Light-Color" transform="translate(14.000000, 15.000000)">
            <mask id="mask-14" fill="white">
                <use xlink:href="#path-13"></use>
            </mask>
            <g id="Mask" opacity="0.3" fill-rule="nonzero"></g>
            <g id="✱-/-Color-/-Icons-/-Black-/-Disabled" mask="url(#mask-14)" fill="#000000" fill-opacity="0.38">
                <rect id="Rectangle" x="0" y="0" width="101" height="101"></rect>
            </g>
        </g>
        <g id="↳-Light-Color" transform="translate(5.000000, 15.000000)">
            <mask id="mask-16" fill="white">
                <use xlink:href="#path-15"></use>
            </mask>
            <g id="Mask" opacity="0.3" fill-rule="nonzero"></g>
            <g id="✱-/-Color-/-Icons-/-Black-/-Disabled" mask="url(#mask-16)" fill="#000000" fill-opacity="0.38">
                <rect id="Rectangle" x="0" y="0" width="101" height="101"></rect>
            </g>
        </g>
        <g id="↳-Dark-Color" transform="translate(5.000000, 1.000000)">
            <mask id="mask-18" fill="white">
                <use xlink:href="#path-17"></use>
            </mask>
            <g id="Mask" fill-rule="nonzero"></g>
            <g id="✱-/-Color-/-Icons-/-Black-/-Inactive" mask="url(#mask-18)" fill="#000000" fill-opacity="0.54">
                <rect id="Rectangle" x="0" y="0" width="101" height="101"></rect>
            </g>
        </g>
        <g id="↳-Dark-Color" transform="translate(12.000000, 13.000000)">
            <mask id="mask-20" fill="white">
                <use xlink:href="#path-19"></use>
            </mask>
            <g id="Mask" fill-rule="nonzero"></g>
            <g id="✱-/-Color-/-Icons-/-Black-/-Inactive" mask="url(#mask-20)" fill="#000000" fill-opacity="0.54">
                <rect id="Rectangle" x="0" y="0" width="101" height="101"></rect>
            </g>
        </g>
        <g id="↳-Dark-Color" transform="translate(3.000000, 13.000000)">
            <mask id="mask-22" fill="white">
                <use xlink:href="#path-21"></use>
            </mask>
            <g id="Mask" fill-rule="nonzero"></g>
            <g id="✱-/-Color-/-Icons-/-Black-/-Inactive" mask="url(#mask-22)" fill="#000000" fill-opacity="0.54">
                <rect id="Rectangle" x="0" y="0" width="101" height="101"></rect>
            </g>
        </g>
    </g>
</svg>