<?xml version="1.0" encoding="UTF-8"?>
<svg width="24px" height="24px" viewBox="0 0 24 24" version="1.1" xmlns="http://www.w3.org/2000/svg" xmlns:xlink="http://www.w3.org/1999/xlink">
    <!-- Generator: Sketch 50 (54983) - http://www.bohemiancoding.com/sketch -->
    <title>icon/maps/local_convenience_store_24px_two_tone</title>
    <desc>Created with Sketch.</desc>
    <defs>
        <path d="M10,8 L12,8 L12,10 L12,12 L16,12 L16,3 L15,3 L13,3 L13,1 L13,0 L3,0 L3,1 L3,3 L1,3 L0,3 L0,12 L4,12 L4,10 L4,8 L6,8 L10,8 Z M9,1 L10,1 L10,3 L11,3 L11,1 L12,1 L12,6 L11,6 L11,4 L9,4 L9,1 Z M4,3 L6,3 L6,2 L4,2 L4,1 L7,1 L7,4 L5,4 L5,5 L7,5 L7,6 L4,6 L4,3 Z" id="path-1"></path>
        <path d="M8,12 L12,12 L12,16 L20,16 L20,3 L17,3 L17,0 L3,0 L3,3 L0,3 L0,16 L8,16 L8,12 Z M6,12 L6,14 L2,14 L2,5 L3,5 L5,5 L5,3 L5,2 L15,2 L15,3 L15,5 L17,5 L18,5 L18,14 L14,14 L14,12 L14,10 L12,10 L8,10 L6,10 L6,12 Z" id="path-3"></path>
        <polygon id="path-5" points="3 4 1 4 1 3 3 3 3 0 0 0 0 1 2 1 2 2 0 2 0 5 3 5"></polygon>
        <polygon id="path-7" points="2 5 3 5 3 0 2 0 2 2 1 2 1 0 0 0 0 3 2 3"></polygon>
    </defs>
    <g id="icon/maps/local_convenience_store_24px" stroke="none" stroke-width="1" fill="none" fill-rule="evenodd">
        <g id="↳-Light-Color" transform="translate(4.000000, 6.000000)">
            <mask id="mask-2" fill="white">
                <use xlink:href="#path-1"></use>
            </mask>
            <g id="Mask" opacity="0.3" fill-rule="nonzero"></g>
            <g id="✱-/-Color-/-Icons-/-Black-/-Disabled" mask="url(#mask-2)" fill="#000000" fill-opacity="0.38">
                <rect id="Rectangle" x="0" y="0" width="101" height="101"></rect>
            </g>
        </g>
        <g id="↳-Dark-Color" transform="translate(2.000000, 4.000000)">
            <mask id="mask-4" fill="white">
                <use xlink:href="#path-3"></use>
            </mask>
            <g id="Mask" fill-rule="nonzero"></g>
            <g id="✱-/-Color-/-Icons-/-Black-/-Inactive" mask="url(#mask-4)" fill="#000000" fill-opacity="0.54">
                <rect id="Rectangle" x="0" y="0" width="101" height="101"></rect>
            </g>
        </g>
        <g id="↳-Dark-Color" transform="translate(8.000000, 7.000000)">
            <mask id="mask-6" fill="white">
                <use xlink:href="#path-5"></use>
            </mask>
            <g id="Mask" fill-rule="nonzero"></g>
            <g id="✱-/-Color-/-Icons-/-Black-/-Inactive" mask="url(#mask-6)" fill="#000000" fill-opacity="0.54">
                <rect id="Rectangle" x="0" y="0" width="101" height="101"></rect>
            </g>
        </g>
        <g id="↳-Dark-Color" transform="translate(13.000000, 7.000000)">
            <mask id="mask-8" fill="white">
                <use xlink:href="#path-7"></use>
            </mask>
            <g id="Mask" fill-rule="nonzero"></g>
            <g id="✱-/-Color-/-Icons-/-Black-/-Inactive" mask="url(#mask-8)" fill="#000000" fill-opacity="0.54">
                <rect id="Rectangle" x="0" y="0" width="101" height="101"></rect>
            </g>
        </g>
    </g>
</svg>