<?xml version="1.0" encoding="UTF-8"?>
<svg width="24px" height="24px" viewBox="0 0 24 24" version="1.1" xmlns="http://www.w3.org/2000/svg" xmlns:xlink="http://www.w3.org/1999/xlink">
    <!-- Generator: Sketch 50 (54983) - http://www.bohemiancoding.com/sketch -->
    <title>icon/maps/local_car_wash_24px_two_tone</title>
    <desc>Created with Sketch.</desc>
    <defs>
        <path d="M0.12,0 L0,0.34 L0,5 L1,5 L13,5 L14,5 L14,0.34 L13.88,0 L0.12,0 Z M2.5,4 C1.67,4 1,3.33 1,2.5 C1,1.67 1.67,1 2.5,1 C3.33,1 4,1.67 4,2.5 C4,3.33 3.33,4 2.5,4 Z M11.5,4 C10.67,4 10,3.33 10,2.5 C10,1.67 10.67,1 11.5,1 C12.33,1 13,1.67 13,2.5 C13,3.33 12.33,4 11.5,4 Z" id="path-1"></path>
        <path d="M0.5,3.5 C0.5,4.33 1.17,5 2,5 C2.83,5 3.5,4.33 3.5,3.5 C3.5,2.5 2,0.8 2,0.8 C2,0.8 0.5,2.5 0.5,3.5 Z" id="path-3"></path>
        <path d="M3.5,3.5 C3.5,2.5 2,0.8 2,0.8 C2,0.8 0.5,2.5 0.5,3.5 C0.5,4.33 1.17,5 2,5 C2.83,5 3.5,4.33 3.5,3.5 Z" id="path-5"></path>
        <path d="M3.5,3.5 C3.5,2.5 2,0.8 2,0.8 C2,0.8 0.5,2.5 0.5,3.5 C0.5,4.33 1.17,5 2,5 C2.83,5 3.5,4.33 3.5,3.5 Z" id="path-7"></path>
        <path d="M18,7 L15.92,1.01 C15.72,0.42 15.16,0 14.5,0 L3.5,0 C2.84,0 2.29,0.42 2.08,1.01 L0,7 L0,15 C0,15.55 0.45,16 1,16 L2,16 C2.55,16 3,15.55 3,15 L3,14 L15,14 L15,15 C15,15.55 15.45,16 16,16 L17,16 C17.55,16 18,15.55 18,15 L18,7 Z M3.85,2 L14.14,2 L15.18,5 L2.81,5 L3.85,2 Z M16,12 L15,12 L3,12 L2,12 L2,7.34 L2.12,7 L15.89,7 L16,7.34 L16,12 Z" id="path-9"></path>
        <circle id="path-11" cx="1.5" cy="1.5" r="1.5"></circle>
        <circle id="path-13" cx="1.5" cy="1.5" r="1.5"></circle>
    </defs>
    <g id="icon/maps/local_car_wash_24px" stroke="none" stroke-width="1" fill="none" fill-rule="evenodd">
        <g id="↳-Light-Color" transform="translate(5.000000, 14.000000)">
            <mask id="mask-2" fill="white">
                <use xlink:href="#path-1"></use>
            </mask>
            <g id="Mask" opacity="0.3" fill-rule="nonzero"></g>
            <g id="✱-/-Color-/-Icons-/-Black-/-Disabled" mask="url(#mask-2)" fill="#000000" fill-opacity="0.38">
                <rect id="Rectangle" x="0" y="0" width="101" height="101"></rect>
            </g>
        </g>
        <g id="↳-Dark-Color" transform="translate(15.000000, 0.000000)">
            <mask id="mask-4" fill="white">
                <use xlink:href="#path-3"></use>
            </mask>
            <g id="Mask" fill-rule="nonzero"></g>
            <g id="✱-/-Color-/-Icons-/-Black-/-Inactive" mask="url(#mask-4)" fill="#000000" fill-opacity="0.54">
                <rect id="Rectangle" x="0" y="0" width="101" height="101"></rect>
            </g>
        </g>
        <g id="↳-Dark-Color" transform="translate(10.000000, 0.000000)">
            <mask id="mask-6" fill="white">
                <use xlink:href="#path-5"></use>
            </mask>
            <g id="Mask" fill-rule="nonzero"></g>
            <g id="✱-/-Color-/-Icons-/-Black-/-Inactive" mask="url(#mask-6)" fill="#000000" fill-opacity="0.54">
                <rect id="Rectangle" x="0" y="0" width="101" height="101"></rect>
            </g>
        </g>
        <g id="↳-Dark-Color" transform="translate(5.000000, 0.000000)">
            <mask id="mask-8" fill="white">
                <use xlink:href="#path-7"></use>
            </mask>
            <g id="Mask" fill-rule="nonzero"></g>
            <g id="✱-/-Color-/-Icons-/-Black-/-Inactive" mask="url(#mask-8)" fill="#000000" fill-opacity="0.54">
                <rect id="Rectangle" x="0" y="0" width="101" height="101"></rect>
            </g>
        </g>
        <g id="↳-Dark-Color" transform="translate(3.000000, 7.000000)">
            <mask id="mask-10" fill="white">
                <use xlink:href="#path-9"></use>
            </mask>
            <g id="Mask" fill-rule="nonzero"></g>
            <g id="✱-/-Color-/-Icons-/-Black-/-Inactive" mask="url(#mask-10)" fill="#000000" fill-opacity="0.54">
                <rect id="Rectangle" x="0" y="0" width="101" height="101"></rect>
            </g>
        </g>
        <g id="↳-Dark-Color" transform="translate(6.000000, 15.000000)">
            <mask id="mask-12" fill="white">
                <use xlink:href="#path-11"></use>
            </mask>
            <g id="Mask" fill-rule="nonzero"></g>
            <g id="✱-/-Color-/-Icons-/-Black-/-Inactive" mask="url(#mask-12)" fill="#000000" fill-opacity="0.54">
                <rect id="Rectangle" x="0" y="0" width="101" height="101"></rect>
            </g>
        </g>
        <g id="↳-Dark-Color" transform="translate(15.000000, 15.000000)">
            <mask id="mask-14" fill="white">
                <use xlink:href="#path-13"></use>
            </mask>
            <g id="Mask" fill-rule="nonzero"></g>
            <g id="✱-/-Color-/-Icons-/-Black-/-Inactive" mask="url(#mask-14)" fill="#000000" fill-opacity="0.54">
                <rect id="Rectangle" x="0" y="0" width="101" height="101"></rect>
            </g>
        </g>
    </g>
</svg>