<?xml version="1.0" encoding="UTF-8"?>
<svg width="24px" height="24px" viewBox="0 0 24 24" version="1.1" xmlns="http://www.w3.org/2000/svg" xmlns:xlink="http://www.w3.org/1999/xlink">
    <!-- Generator: Sketch 50 (54983) - http://www.bohemiancoding.com/sketch -->
    <title>icon/maps/local_mall_24px_two_tone</title>
    <desc>Created with Sketch.</desc>
    <defs>
        <path d="M0,0 L0,12 L14,12 L14,0 L0,0 Z M7,6 C4.24,6 2,3.76 2,1 L4,1 C4,2.66 5.34,4 7,4 C8.66,4 10,2.66 10,1 L12,1 C12,3.76 9.76,6 7,6 Z" id="path-1"></path>
        <path d="M14,5 C14,2.24 11.76,0 9,0 C6.24,0 4,2.24 4,5 L2,5 C0.9,5 0,5.9 0,7 L0,19 C0,20.1 0.9,21 2,21 L16,21 C17.1,21 18,20.1 18,19 L18,7 C18,5.9 17.1,5 16,5 L14,5 Z M9,2 C10.66,2 12,3.34 12,5 L6,5 C6,3.34 7.34,2 9,2 Z M16,19 L2,19 L2,7 L16,7 L16,19 Z" id="path-3"></path>
        <path d="M5,3 C3.34,3 2,1.66 2,0 L0,0 C0,2.76 2.24,5 5,5 C7.76,5 10,2.76 10,0 L8,0 C8,1.66 6.66,3 5,3 Z" id="path-5"></path>
    </defs>
    <g id="icon/maps/local_mall_24px" stroke="none" stroke-width="1" fill="none" fill-rule="evenodd">
        <g id="↳-Light-Color" transform="translate(5.000000, 8.000000)">
            <mask id="mask-2" fill="white">
                <use xlink:href="#path-1"></use>
            </mask>
            <g id="Mask" opacity="0.3" fill-rule="nonzero"></g>
            <g id="✱-/-Color-/-Icons-/-Black-/-Disabled" mask="url(#mask-2)" fill="#000000" fill-opacity="0.38">
                <rect id="Rectangle" x="0" y="0" width="101" height="101"></rect>
            </g>
        </g>
        <g id="↳-Dark-Color" transform="translate(3.000000, 1.000000)">
            <mask id="mask-4" fill="white">
                <use xlink:href="#path-3"></use>
            </mask>
            <g id="Mask" fill-rule="nonzero"></g>
            <g id="✱-/-Color-/-Icons-/-Black-/-Inactive" mask="url(#mask-4)" fill="#000000" fill-opacity="0.54">
                <rect id="Rectangle" x="0" y="0" width="101" height="101"></rect>
            </g>
        </g>
        <g id="↳-Dark-Color" transform="translate(7.000000, 9.000000)">
            <mask id="mask-6" fill="white">
                <use xlink:href="#path-5"></use>
            </mask>
            <g id="Mask" fill-rule="nonzero"></g>
            <g id="✱-/-Color-/-Icons-/-Black-/-Inactive" mask="url(#mask-6)" fill="#000000" fill-opacity="0.54">
                <rect id="Rectangle" x="0" y="0" width="101" height="101"></rect>
            </g>
        </g>
    </g>
</svg>