<?xml version="1.0" encoding="UTF-8"?>
<svg width="24px" height="24px" viewBox="0 0 24 24" version="1.1" xmlns="http://www.w3.org/2000/svg" xmlns:xlink="http://www.w3.org/1999/xlink">
    <!-- Generator: Sketch 50 (54983) - http://www.bohemiancoding.com/sketch -->
    <title>icon/maps/local_taxi_24px_two_tone</title>
    <desc>Created with Sketch.</desc>
    <defs>
        <path d="M0.12,0 L0,0.34 L0,5 L1,5 L13,5 L14,5 L14,0.34 L13.88,0 L0.12,0 Z M2.5,4 C1.67,4 1,3.33 1,2.5 C1,1.67 1.67,1 2.5,1 C3.33,1 4,1.67 4,2.5 C4,3.33 3.33,4 2.5,4 Z M11.5,4 C10.67,4 10,3.33 10,2.5 C10,1.67 10.67,1 11.5,1 C12.33,1 13,1.67 13,2.5 C13,3.33 12.33,4 11.5,4 Z" id="path-1"></path>
        <path d="M14.5,2 L12,2 L12,0 L6,0 L6,2 L3.5,2 C2.84,2 2.29,2.42 2.08,3.01 L0,9 L0,17 C0,17.55 0.45,18 1,18 L2,18 C2.55,18 3,17.55 3,17 L3,16 L15,16 L15,17 C15,17.55 15.45,18 16,18 L17,18 C17.55,18 18,17.55 18,17 L18,9 L15.92,3.01 C15.72,2.42 15.16,2 14.5,2 Z M3.85,4 L14.14,4 L15.18,7 L2.81,7 L3.85,4 Z M16,14 L15,14 L3,14 L2,14 L2,9.34 L2.12,9 L15.89,9 L16,9.34 L16,14 Z" id="path-3"></path>
        <circle id="path-5" cx="1.5" cy="1.5" r="1.5"></circle>
        <circle id="path-7" cx="1.5" cy="1.5" r="1.5"></circle>
    </defs>
    <g id="icon/maps/local_taxi_24px" stroke="none" stroke-width="1" fill="none" fill-rule="evenodd">
        <g id="↳-Light-Color" transform="translate(5.000000, 12.000000)">
            <mask id="mask-2" fill="white">
                <use xlink:href="#path-1"></use>
            </mask>
            <g id="Mask" opacity="0.3" fill-rule="nonzero"></g>
            <g id="✱-/-Color-/-Icons-/-Black-/-Disabled" mask="url(#mask-2)" fill="#000000" fill-opacity="0.38">
                <rect id="Rectangle" x="0" y="0" width="101" height="101"></rect>
            </g>
        </g>
        <g id="↳-Dark-Color" transform="translate(3.000000, 3.000000)">
            <mask id="mask-4" fill="white">
                <use xlink:href="#path-3"></use>
            </mask>
            <g id="Mask" fill-rule="nonzero"></g>
            <g id="✱-/-Color-/-Icons-/-Black-/-Inactive" mask="url(#mask-4)" fill="#000000" fill-opacity="0.54">
                <rect id="Rectangle" x="0" y="0" width="101" height="101"></rect>
            </g>
        </g>
        <g id="↳-Dark-Color" transform="translate(6.000000, 13.000000)">
            <mask id="mask-6" fill="white">
                <use xlink:href="#path-5"></use>
            </mask>
            <g id="Mask" fill-rule="nonzero"></g>
            <g id="✱-/-Color-/-Icons-/-Black-/-Inactive" mask="url(#mask-6)" fill="#000000" fill-opacity="0.54">
                <rect id="Rectangle" x="0" y="0" width="101" height="101"></rect>
            </g>
        </g>
        <g id="↳-Dark-Color" transform="translate(15.000000, 13.000000)">
            <mask id="mask-8" fill="white">
                <use xlink:href="#path-7"></use>
            </mask>
            <g id="Mask" fill-rule="nonzero"></g>
            <g id="✱-/-Color-/-Icons-/-Black-/-Inactive" mask="url(#mask-8)" fill="#000000" fill-opacity="0.54">
                <rect id="Rectangle" x="0" y="0" width="101" height="101"></rect>
            </g>
        </g>
    </g>
</svg>