<?xml version="1.0" encoding="UTF-8"?>
<svg width="24px" height="24px" viewBox="0 0 24 24" version="1.1" xmlns="http://www.w3.org/2000/svg" xmlns:xlink="http://www.w3.org/1999/xlink">
    <!-- Generator: Sketch 50 (54983) - http://www.bohemiancoding.com/sketch -->
    <title>icon/maps/local_shipping_24px_two_tone</title>
    <desc>Created with Sketch.</desc>
    <defs>
        <path d="M0,9 L0.78,9 C1.33,8.39 2.12,8 3,8 C3.88,8 4.67,8.39 5.22,9 L12,9 L12,0 L0,0 L0,9 Z" id="path-1"></path>
        <path d="M16,4 L16,0 L2,0 C0.9,0 0,0.9 0,2 L0,13 L2,13 C2,14.66 3.34,16 5,16 C6.66,16 8,14.66 8,13 L14,13 C14,14.66 15.34,16 17,16 C18.66,16 20,14.66 20,13 L22,13 L22,8 L19,4 L16,4 Z M5,14 C4.45,14 4,13.55 4,13 C4,12.45 4.45,12 5,12 C5.55,12 6,12.45 6,13 C6,13.55 5.55,14 5,14 Z M14,11 L7.22,11 C6.67,10.39 5.89,10 5,10 C4.11,10 3.33,10.39 2.78,11 L2,11 L2,2 L14,2 L14,11 Z M17,14 C16.45,14 16,13.55 16,13 C16,12.45 16.45,12 17,12 C17.55,12 18,12.45 18,13 C18,13.55 17.55,14 17,14 Z M16,8 L16,5.5 L18.5,5.5 L20.46,8 L16,8 Z" id="path-3"></path>
    </defs>
    <g id="icon/maps/local_shipping_24px" stroke="none" stroke-width="1" fill="none" fill-rule="evenodd">
        <g id="↳-Light-Color" transform="translate(3.000000, 6.000000)">
            <mask id="mask-2" fill="white">
                <use xlink:href="#path-1"></use>
            </mask>
            <g id="Mask" opacity="0.3" fill-rule="nonzero"></g>
            <g id="✱-/-Color-/-Icons-/-Black-/-Disabled" mask="url(#mask-2)" fill="#000000" fill-opacity="0.38">
                <rect id="Rectangle" x="0" y="0" width="101" height="101"></rect>
            </g>
        </g>
        <g id="↳-Dark-Color" transform="translate(1.000000, 4.000000)">
            <mask id="mask-4" fill="white">
                <use xlink:href="#path-3"></use>
            </mask>
            <g id="Mask" fill-rule="nonzero"></g>
            <g id="✱-/-Color-/-Icons-/-Black-/-Inactive" mask="url(#mask-4)" fill="#000000" fill-opacity="0.54">
                <rect id="Rectangle" x="0" y="0" width="101" height="101"></rect>
            </g>
        </g>
    </g>
</svg>