<?xml version="1.0" encoding="UTF-8"?>
<svg width="24px" height="24px" viewBox="0 0 24 24" version="1.1" xmlns="http://www.w3.org/2000/svg" xmlns:xlink="http://www.w3.org/1999/xlink">
    <!-- Generator: Sketch 50 (54983) - http://www.bohemiancoding.com/sketch -->
    <title>icon/maps/local_pizza_24px_two_tone</title>
    <desc>Created with Sketch.</desc>
    <defs>
        <path d="M0.51,2.36 L7,13.92 L13.49,2.37 C11.68,0.85 9.38,0 7,0 C4.62,0 2.32,0.85 0.51,2.36 Z M4,4.5 C3.17,4.5 2.5,3.83 2.5,3 C2.5,2.17 3.17,1.5 4,1.5 C4.83,1.5 5.5,2.17 5.5,3 C5.5,3.83 4.82,4.5 4,4.5 Z M8.5,9 C8.5,9.83 7.82,10.5 7,10.5 C6.17,10.5 5.5,9.83 5.5,9 C5.5,8.17 6.17,7.5 7,7.5 C7.83,7.5 8.5,8.17 8.5,9 Z" id="path-1"></path>
        <path d="M9,0 C5.43,0 2.23,1.54 0.01,4 L9,20 L17.99,4 C15.78,1.55 12.57,0 9,0 Z M9,15.92 L2.51,4.36 C4.32,2.85 6.62,2 9,2 C11.38,2 13.68,2.85 15.49,4.36 L9,15.92 Z" id="path-3"></path>
        <path d="M2,0.5 C1.17,0.5 0.5,1.17 0.5,2 C0.5,2.83 1.17,3.5 2,3.5 C2.83,3.5 3.5,2.83 3.5,2 C3.5,1.17 2.82,0.5 2,0.5 Z" id="path-5"></path>
        <path d="M0.5,2 C0.5,2.83 1.17,3.5 2,3.5 C2.82,3.5 3.5,2.83 3.5,2 C3.5,1.17 2.82,0.5 2,0.5 C1.18,0.5 0.5,1.17 0.5,2 Z" id="path-7"></path>
    </defs>
    <g id="icon/maps/local_pizza_24px" stroke="none" stroke-width="1" fill="none" fill-rule="evenodd">
        <g id="↳-Light-Color" transform="translate(5.000000, 4.000000)">
            <mask id="mask-2" fill="white">
                <use xlink:href="#path-1"></use>
            </mask>
            <g id="Mask" opacity="0.3" fill-rule="nonzero"></g>
            <g id="✱-/-Color-/-Icons-/-Black-/-Disabled" mask="url(#mask-2)" fill="#000000" fill-opacity="0.38">
                <rect id="Rectangle" x="0" y="0" width="101" height="101"></rect>
            </g>
        </g>
        <g id="↳-Dark-Color" transform="translate(3.000000, 2.000000)">
            <mask id="mask-4" fill="white">
                <use xlink:href="#path-3"></use>
            </mask>
            <g id="Mask" fill-rule="nonzero"></g>
            <g id="✱-/-Color-/-Icons-/-Black-/-Inactive" mask="url(#mask-4)" fill="#000000" fill-opacity="0.54">
                <rect id="Rectangle" x="0" y="0" width="101" height="101"></rect>
            </g>
        </g>
        <g id="↳-Dark-Color" transform="translate(7.000000, 5.000000)">
            <mask id="mask-6" fill="white">
                <use xlink:href="#path-5"></use>
            </mask>
            <g id="Mask" fill-rule="nonzero"></g>
            <g id="✱-/-Color-/-Icons-/-Black-/-Inactive" mask="url(#mask-6)" fill="#000000" fill-opacity="0.54">
                <rect id="Rectangle" x="0" y="0" width="101" height="101"></rect>
            </g>
        </g>
        <g id="↳-Dark-Color" transform="translate(10.000000, 11.000000)">
            <mask id="mask-8" fill="white">
                <use xlink:href="#path-7"></use>
            </mask>
            <g id="Mask" fill-rule="nonzero"></g>
            <g id="✱-/-Color-/-Icons-/-Black-/-Inactive" mask="url(#mask-8)" fill="#000000" fill-opacity="0.54">
                <rect id="Rectangle" x="0" y="0" width="101" height="101"></rect>
            </g>
        </g>
    </g>
</svg>