<?xml version="1.0" encoding="UTF-8"?>
<svg width="24px" height="24px" viewBox="0 0 24 24" version="1.1" xmlns="http://www.w3.org/2000/svg" xmlns:xlink="http://www.w3.org/1999/xlink">
    <!-- Generator: Sketch 50 (54983) - http://www.bohemiancoding.com/sketch -->
    <title>icon/maps/local_library_24px_two_tone</title>
    <desc>Created with Sketch.</desc>
    <defs>
        <path d="M14,7.13 L14,0.18 C11.9,0.56 9.95,1.53 8.36,3.01 L7,4.28 L5.64,3.01 C4.05,1.53 2.1,0.56 0,0.18 L0,7.13 C2.53,7.47 4.94,8.43 7,9.96 C9.07,8.44 11.47,7.47 14,7.13 Z" id="path-1"></path>
        <circle id="path-3" cx="2" cy="2" r="2"></circle>
        <path d="M8,4 C8,1.79 6.21,0 4,0 C1.79,0 0,1.79 0,4 C0,6.21 1.79,8 4,8 C6.21,8 8,6.21 8,4 Z M2,4 C2,2.9 2.9,2 4,2 C5.1,2 6,2.9 6,4 C6,5.1 5.1,6 4,6 C2.9,6 2,5.1 2,4 Z" id="path-5"></path>
        <path d="M0,11 C3.48,11 6.64,12.35 9,14.55 C11.36,12.36 14.52,11 18,11 L18,0 C14.52,0 11.36,1.35 9,3.55 C6.64,1.35 3.48,0 0,0 L0,11 Z M2,2.18 C4.1,2.56 6.05,3.53 7.64,5.01 L9,6.28 L10.36,5.01 C11.95,3.53 13.9,2.56 16,2.18 L16,9.13 C13.47,9.47 11.07,10.43 9,11.95 C6.94,10.43 4.53,9.46 2,9.12 L2,2.18 Z" id="path-7"></path>
    </defs>
    <g id="icon/maps/local_library_24px" stroke="none" stroke-width="1" fill="none" fill-rule="evenodd">
        <g id="↳-Light-Color" transform="translate(5.000000, 10.000000)">
            <mask id="mask-2" fill="white">
                <use xlink:href="#path-1"></use>
            </mask>
            <g id="Mask" opacity="0.3" fill-rule="nonzero"></g>
            <g id="✱-/-Color-/-Icons-/-Black-/-Disabled" mask="url(#mask-2)" fill="#000000" fill-opacity="0.38">
                <rect id="Rectangle" x="0" y="0" width="101" height="101"></rect>
            </g>
        </g>
        <g id="↳-Light-Color" transform="translate(10.000000, 3.000000)">
            <mask id="mask-4" fill="white">
                <use xlink:href="#path-3"></use>
            </mask>
            <g id="Mask" opacity="0.3" fill-rule="nonzero"></g>
            <g id="✱-/-Color-/-Icons-/-Black-/-Disabled" mask="url(#mask-4)" fill="#000000" fill-opacity="0.38">
                <rect id="Rectangle" x="0" y="0" width="101" height="101"></rect>
            </g>
        </g>
        <g id="↳-Dark-Color" transform="translate(8.000000, 1.000000)">
            <mask id="mask-6" fill="white">
                <use xlink:href="#path-5"></use>
            </mask>
            <g id="Mask" fill-rule="nonzero"></g>
            <g id="✱-/-Color-/-Icons-/-Black-/-Inactive" mask="url(#mask-6)" fill="#000000" fill-opacity="0.54">
                <rect id="Rectangle" x="0" y="0" width="101" height="101"></rect>
            </g>
        </g>
        <g id="↳-Dark-Color" transform="translate(3.000000, 8.000000)">
            <mask id="mask-8" fill="white">
                <use xlink:href="#path-7"></use>
            </mask>
            <g id="Mask" fill-rule="nonzero"></g>
            <g id="✱-/-Color-/-Icons-/-Black-/-Inactive" mask="url(#mask-8)" fill="#000000" fill-opacity="0.54">
                <rect id="Rectangle" x="0" y="0" width="101" height="101"></rect>
            </g>
        </g>
    </g>
</svg>