<?xml version="1.0" encoding="UTF-8"?>
<svg width="24px" height="24px" viewBox="0 0 24 24" version="1.1" xmlns="http://www.w3.org/2000/svg" xmlns:xlink="http://www.w3.org/1999/xlink">
    <!-- Generator: Sketch 50 (54983) - http://www.bohemiancoding.com/sketch -->
    <title>icon/maps/local_see_24px_two_tone</title>
    <desc>Created with Sketch.</desc>
    <defs>
        <path d="M16,2 L12.83,2 L11.95,2 L11.36,1.35 L10.12,0 L5.88,0 L4.65,1.35 L4.05,2 L3.17,2 L0,2 L0,14 L16,14 L16,2 Z M8,13 C5.24,13 3,10.76 3,8 C3,5.24 5.24,3 8,3 C10.76,3 13,5.24 13,8 C13,10.76 10.76,13 8,13 Z" id="path-1"></path>
        <path d="M2,18 L18,18 C19.1,18 20,17.1 20,16 L20,4 C20,2.9 19.1,2 18,2 L14.83,2 L13,0 L7,0 L5.17,2 L2,2 C0.9,2 0,2.9 0,4 L0,16 C0,17.1 0.9,18 2,18 Z M2,4 L5.17,4 L6.05,4 L6.64,3.35 L7.88,2 L12.12,2 L13.36,3.35 L13.95,4 L14.83,4 L18,4 L18,16 L2,16 L2,4 Z" id="path-3"></path>
        <path d="M5,0 C2.24,0 0,2.24 0,5 C0,7.76 2.24,10 5,10 C7.76,10 10,7.76 10,5 C10,2.24 7.76,0 5,0 Z M5,8.2 C3.23,8.2 1.8,6.77 1.8,5 C1.8,3.23 3.23,1.8 5,1.8 C6.77,1.8 8.2,3.23 8.2,5 C8.2,6.77 6.77,8.2 5,8.2 Z" id="path-5"></path>
    </defs>
    <g id="icon/maps/local_see_24px" stroke="none" stroke-width="1" fill="none" fill-rule="evenodd">
        <g id="↳-Light-Color" transform="translate(4.000000, 4.000000)">
            <mask id="mask-2" fill="white">
                <use xlink:href="#path-1"></use>
            </mask>
            <g id="Mask" opacity="0.3" fill-rule="nonzero"></g>
            <g id="✱-/-Color-/-Icons-/-Black-/-Disabled" mask="url(#mask-2)" fill="#000000" fill-opacity="0.38">
                <rect id="Rectangle" x="0" y="0" width="101" height="101"></rect>
            </g>
        </g>
        <g id="↳-Dark-Color" transform="translate(2.000000, 2.000000)">
            <mask id="mask-4" fill="white">
                <use xlink:href="#path-3"></use>
            </mask>
            <g id="Mask" fill-rule="nonzero"></g>
            <g id="✱-/-Color-/-Icons-/-Black-/-Inactive" mask="url(#mask-4)" fill="#000000" fill-opacity="0.54">
                <rect id="Rectangle" x="0" y="0" width="101" height="101"></rect>
            </g>
        </g>
        <g id="↳-Dark-Color" transform="translate(7.000000, 7.000000)">
            <mask id="mask-6" fill="white">
                <use xlink:href="#path-5"></use>
            </mask>
            <g id="Mask" fill-rule="nonzero"></g>
            <g id="✱-/-Color-/-Icons-/-Black-/-Inactive" mask="url(#mask-6)" fill="#000000" fill-opacity="0.54">
                <rect id="Rectangle" x="0" y="0" width="101" height="101"></rect>
            </g>
        </g>
    </g>
</svg>