<?xml version="1.0" encoding="UTF-8"?>
<svg width="24px" height="24px" viewBox="0 0 24 24" version="1.1" xmlns="http://www.w3.org/2000/svg" xmlns:xlink="http://www.w3.org/1999/xlink">
    <!-- Generator: Sketch 50 (54983) - http://www.bohemiancoding.com/sketch -->
    <title>icon/maps/local_dining_24px_two_tone</title>
    <desc>Created with Sketch.</desc>
    <defs>
        <path d="M2.11,18.28 L9,11.41 L15.88,18.29 L17.29,16.88 L10.41,10 L11.88,8.53 C13.41,9.24 15.56,8.74 17.15,7.15 C19.06,5.24 19.43,2.5 17.96,1.03 C16.5,-0.43 13.76,-0.07 11.84,1.84 C10.25,3.43 9.75,5.58 10.46,7.11 L0.7,16.87 L2.11,18.28 Z" id="path-1"></path>
        <path d="M1.91,6.16 L6.1,10.34 L8.93,7.51 L1.91,0.5 C0.35,2.06 0.35,4.59 1.91,6.16 Z" id="path-3"></path>
    </defs>
    <g id="icon/maps/local_dining_24px" stroke="none" stroke-width="1" fill="none" fill-rule="evenodd">
        <g id="↳-Dark-Color" transform="translate(3.000000, 3.000000)">
            <mask id="mask-2" fill="white">
                <use xlink:href="#path-1"></use>
            </mask>
            <g id="Mask" fill-rule="nonzero"></g>
            <g id="✱-/-Color-/-Icons-/-Black-/-Inactive" mask="url(#mask-2)" fill="#000000" fill-opacity="0.54">
                <rect id="Rectangle" x="0" y="0" width="101" height="101"></rect>
            </g>
        </g>
        <g id="↳-Dark-Color" transform="translate(2.000000, 3.000000)">
            <mask id="mask-4" fill="white">
                <use xlink:href="#path-3"></use>
            </mask>
            <g id="Mask" fill-rule="nonzero"></g>
            <g id="✱-/-Color-/-Icons-/-Black-/-Inactive" mask="url(#mask-4)" fill="#000000" fill-opacity="0.54">
                <rect id="Rectangle" x="0" y="0" width="101" height="101"></rect>
            </g>
        </g>
    </g>
</svg>