<?xml version="1.0" encoding="UTF-8"?>
<svg width="24px" height="24px" viewBox="0 0 24 24" version="1.1" xmlns="http://www.w3.org/2000/svg" xmlns:xlink="http://www.w3.org/1999/xlink">
    <!-- Generator: Sketch 50 (54983) - http://www.bohemiancoding.com/sketch -->
    <title>icon/maps/local_drink_24px_two_tone</title>
    <desc>Created with Sketch.</desc>
    <defs>
        <path d="M2,10.01 L12,10 L13.1,0 L0.89,0 L2,10.01 Z M7,0.6 C7,0.6 10,4 10,6 C10,7.66 8.66,9 7,9 C5.34,9 4,7.66 4,6 C4,4 7,0.6 7,0.6 Z" id="path-1"></path>
        <path d="M2.01,18.23 C2.13,19.23 2.97,20 4,20 L14,20 C15.03,20 15.87,19.23 15.99,18.23 L18,0 L0,0 L2.01,18.23 Z M14,18 L4,18.01 L2.89,8 L15.1,8 L14,18 Z M15.76,2 L15.33,6 L2.67,6 L2.23,2 L15.76,2 Z" id="path-3"></path>
        <path d="M3,9 C4.66,9 6,7.66 6,6 C6,4 3,0.6 3,0.6 C3,0.6 0,4 0,6 C0,7.66 1.34,9 3,9 Z M3,3.91 C3.59,4.82 4,5.64 4,6 C4,6.55 3.55,7 3,7 C2.45,7 2,6.55 2,6 C2,5.63 2.41,4.81 3,3.91 Z" id="path-5"></path>
    </defs>
    <g id="icon/maps/local_drink_24px" stroke="none" stroke-width="1" fill="none" fill-rule="evenodd">
        <g id="↳-Light-Color" transform="translate(5.000000, 10.000000)">
            <mask id="mask-2" fill="white">
                <use xlink:href="#path-1"></use>
            </mask>
            <g id="Mask" opacity="0.3" fill-rule="nonzero"></g>
            <g id="✱-/-Color-/-Icons-/-Black-/-Disabled" mask="url(#mask-2)" fill="#000000" fill-opacity="0.38">
                <rect id="Rectangle" x="0" y="0" width="101" height="101"></rect>
            </g>
        </g>
        <g id="↳-Dark-Color" transform="translate(3.000000, 2.000000)">
            <mask id="mask-4" fill="white">
                <use xlink:href="#path-3"></use>
            </mask>
            <g id="Mask" fill-rule="nonzero"></g>
            <g id="✱-/-Color-/-Icons-/-Black-/-Inactive" mask="url(#mask-4)" fill="#000000" fill-opacity="0.54">
                <rect id="Rectangle" x="0" y="0" width="101" height="101"></rect>
            </g>
        </g>
        <g id="↳-Dark-Color" transform="translate(9.000000, 10.000000)">
            <mask id="mask-6" fill="white">
                <use xlink:href="#path-5"></use>
            </mask>
            <g id="Mask" fill-rule="nonzero"></g>
            <g id="✱-/-Color-/-Icons-/-Black-/-Inactive" mask="url(#mask-6)" fill="#000000" fill-opacity="0.54">
                <rect id="Rectangle" x="0" y="0" width="101" height="101"></rect>
            </g>
        </g>
    </g>
</svg>