<?xml version="1.0" encoding="UTF-8"?>
<svg width="24px" height="24px" viewBox="0 0 24 24" version="1.1" xmlns="http://www.w3.org/2000/svg" xmlns:xlink="http://www.w3.org/1999/xlink">
    <!-- Generator: Sketch 50 (54983) - http://www.bohemiancoding.com/sketch -->
    <title>icon/maps/local_cafe_24px_two_tone</title>
    <desc>Created with Sketch.</desc>
    <defs>
        <path d="M2,10 L8,10 C9.1,10 10,9.1 10,8 L10,0 L0,0 L0,8 C0,9.1 0.9,10 2,10 Z" id="path-1"></path>
        <rect id="path-3" x="0" y="0" width="18" height="2"></rect>
        <path d="M0,10 C0,12.21 1.79,14 4,14 L10,14 C12.21,14 14,12.21 14,10 L14,7 L16,7 C17.11,7 18,6.11 18,5 L18,2 C18,0.89 17.11,0 16,0 L0,0 L0,10 Z M14,2 L16,2 L16,5 L14,5 L14,2 Z M2,2 L12,2 L12,10 C12,11.1 11.1,12 10,12 L4,12 C2.9,12 2,11.1 2,10 L2,2 Z" id="path-5"></path>
    </defs>
    <g id="icon/maps/local_cafe_24px" stroke="none" stroke-width="1" fill="none" fill-rule="evenodd">
        <g id="↳-Light-Color" transform="translate(6.000000, 5.000000)">
            <mask id="mask-2" fill="white">
                <use xlink:href="#path-1"></use>
            </mask>
            <g id="Mask" opacity="0.3" fill-rule="nonzero"></g>
            <g id="✱-/-Color-/-Icons-/-Black-/-Disabled" mask="url(#mask-2)" fill="#000000" fill-opacity="0.38">
                <rect id="Rectangle" x="0" y="0" width="101" height="101"></rect>
            </g>
        </g>
        <g id="↳-Dark-Color" transform="translate(2.000000, 19.000000)">
            <mask id="mask-4" fill="white">
                <use xlink:href="#path-3"></use>
            </mask>
            <g id="Mask" fill-rule="nonzero"></g>
            <g id="✱-/-Color-/-Icons-/-Black-/-Inactive" mask="url(#mask-4)" fill="#000000" fill-opacity="0.54">
                <rect id="Rectangle" x="0" y="0" width="101" height="101"></rect>
            </g>
        </g>
        <g id="↳-Dark-Color" transform="translate(4.000000, 3.000000)">
            <mask id="mask-6" fill="white">
                <use xlink:href="#path-5"></use>
            </mask>
            <g id="Mask" fill-rule="nonzero"></g>
            <g id="✱-/-Color-/-Icons-/-Black-/-Inactive" mask="url(#mask-6)" fill="#000000" fill-opacity="0.54">
                <rect id="Rectangle" x="0" y="0" width="101" height="101"></rect>
            </g>
        </g>
    </g>
</svg>