<?xml version="1.0" encoding="UTF-8"?>
<svg width="24px" height="24px" viewBox="0 0 24 24" version="1.1" xmlns="http://www.w3.org/2000/svg" xmlns:xlink="http://www.w3.org/1999/xlink">
    <!-- Generator: Sketch 50 (54983) - http://www.bohemiancoding.com/sketch -->
    <title>icon/maps/local_laundry_service_24px_two_tone</title>
    <desc>Created with Sketch.</desc>
    <defs>
        <path d="M0.99,0 L1,16 L13,16 L13,0 L0.99,0 C1,0 0.99,0 0.99,0 Z M6,1 C6.55,1 7,1.45 7,2 C7,2.55 6.55,3 6,3 C5.45,3 5,2.55 5,2 C5,1.45 5.45,1 6,1 Z M3,1 C3.55,1 4,1.45 4,2 C4,2.55 3.55,3 3,3 C2.45,3 2,2.55 2,2 C2,1.45 2.45,1 3,1 Z M7,5 C9.76,5 12,7.24 12,10 C12,12.76 9.76,15 7,15 C4.24,15 2,12.76 2,10 C2,7.24 4.24,5 7,5 Z" id="path-1"></path>
        <path d="M14,0.01 L2,0 C0.89,0 0,0.89 0,2 L0,18 C0,19.11 0.89,20 2,20 L14,20 C15.11,20 16,19.11 16,18 L16,2 C16,0.89 15.11,0.01 14,0.01 Z M14,18 L2,18 L1.99,2 C1.99,2 1.99,2 2,2 L14,2 L14,18 Z" id="path-3"></path>
        <circle id="path-5" cx="1" cy="1" r="1"></circle>
        <circle id="path-7" cx="1" cy="1" r="1"></circle>
        <path d="M5,10 C7.76,10 10,7.76 10,5 C10,2.24 7.76,0 5,0 C2.24,0 0,2.24 0,5 C0,7.76 2.24,10 5,10 Z M7.36,2.64 C8.66,3.94 8.66,6.06 7.36,7.36 C6.06,8.66 3.94,8.66 2.64,7.36 L7.36,2.64 Z" id="path-9"></path>
    </defs>
    <g id="icon/maps/local_laundry_service_24px" stroke="none" stroke-width="1" fill="none" fill-rule="evenodd">
        <g id="↳-Light-Color" transform="translate(5.000000, 4.000000)">
            <mask id="mask-2" fill="white">
                <use xlink:href="#path-1"></use>
            </mask>
            <g id="Mask" opacity="0.3" fill-rule="nonzero"></g>
            <g id="✱-/-Color-/-Icons-/-Black-/-Disabled" mask="url(#mask-2)" fill="#000000" fill-opacity="0.38">
                <rect id="Rectangle" x="0" y="0" width="101" height="101"></rect>
            </g>
        </g>
        <g id="↳-Dark-Color" transform="translate(4.000000, 2.000000)">
            <mask id="mask-4" fill="white">
                <use xlink:href="#path-3"></use>
            </mask>
            <g id="Mask" fill-rule="nonzero"></g>
            <g id="✱-/-Color-/-Icons-/-Black-/-Inactive" mask="url(#mask-4)" fill="#000000" fill-opacity="0.54">
                <rect id="Rectangle" x="0" y="0" width="101" height="101"></rect>
            </g>
        </g>
        <g id="↳-Dark-Color" transform="translate(7.000000, 5.000000)">
            <mask id="mask-6" fill="white">
                <use xlink:href="#path-5"></use>
            </mask>
            <g id="Mask" fill-rule="nonzero"></g>
            <g id="✱-/-Color-/-Icons-/-Black-/-Inactive" mask="url(#mask-6)" fill="#000000" fill-opacity="0.54">
                <rect id="Rectangle" x="0" y="0" width="101" height="101"></rect>
            </g>
        </g>
        <g id="↳-Dark-Color" transform="translate(10.000000, 5.000000)">
            <mask id="mask-8" fill="white">
                <use xlink:href="#path-7"></use>
            </mask>
            <g id="Mask" fill-rule="nonzero"></g>
            <g id="✱-/-Color-/-Icons-/-Black-/-Inactive" mask="url(#mask-8)" fill="#000000" fill-opacity="0.54">
                <rect id="Rectangle" x="0" y="0" width="101" height="101"></rect>
            </g>
        </g>
        <g id="↳-Dark-Color" transform="translate(7.000000, 9.000000)">
            <mask id="mask-10" fill="white">
                <use xlink:href="#path-9"></use>
            </mask>
            <g id="Mask" fill-rule="nonzero"></g>
            <g id="✱-/-Color-/-Icons-/-Black-/-Inactive" mask="url(#mask-10)" fill="#000000" fill-opacity="0.54">
                <rect id="Rectangle" x="0" y="0" width="101" height="101"></rect>
            </g>
        </g>
    </g>
</svg>