<?xml version="1.0" encoding="UTF-8"?>
<svg width="24px" height="24px" viewBox="0 0 24 24" version="1.1" xmlns="http://www.w3.org/2000/svg" xmlns:xlink="http://www.w3.org/1999/xlink">
    <!-- Generator: Sketch 50 (54983) - http://www.bohemiancoding.com/sketch -->
    <title>icon/maps/map_24px_two_tone</title>
    <desc>Created with Sketch.</desc>
    <defs>
        <polygon id="path-1" points="0 13.31 3 12.15 3 0.45 0 1.46"></polygon>
        <polygon id="path-3" points="0 13.55 3 12.54 3 0.69 0 1.86"></polygon>
        <path d="M17.5,0 L17.34,0.03 L12,2.1 L6,0 L0.36,1.9 C0.15,1.97 0,2.15 0,2.38 L0,17.5 C0,17.78 0.22,18 0.5,18 L0.66,17.97 L6,15.9 L12,18 L17.64,16.1 C17.85,16.03 18,15.85 18,15.62 L18,0.5 C18,0.22 17.78,0 17.5,0 Z M5,14.15 L2,15.31 L2,3.46 L5,2.45 L5,14.15 Z M11,15.53 L7,14.13 L7,2.47 L11,3.87 L11,15.53 Z M16,14.54 L13,15.55 L13,3.86 L16,2.7 L16,14.54 Z" id="path-5"></path>
    </defs>
    <g id="icon/maps/map_24px" stroke="none" stroke-width="1" fill="none" fill-rule="evenodd">
        <g id="↳-Light-Color" transform="translate(5.000000, 5.000000)">
            <mask id="mask-2" fill="white">
                <use xlink:href="#path-1"></use>
            </mask>
            <g id="Mask" opacity="0.3" fill-rule="nonzero"></g>
            <g id="✱-/-Color-/-Icons-/-Black-/-Disabled" mask="url(#mask-2)" fill="#000000" fill-opacity="0.38">
                <rect id="Rectangle" x="0" y="0" width="101" height="101"></rect>
            </g>
        </g>
        <g id="↳-Light-Color" transform="translate(16.000000, 5.000000)">
            <mask id="mask-4" fill="white">
                <use xlink:href="#path-3"></use>
            </mask>
            <g id="Mask" opacity="0.3" fill-rule="nonzero"></g>
            <g id="✱-/-Color-/-Icons-/-Black-/-Disabled" mask="url(#mask-4)" fill="#000000" fill-opacity="0.38">
                <rect id="Rectangle" x="0" y="0" width="101" height="101"></rect>
            </g>
        </g>
        <g id="↳-Dark-Color" transform="translate(3.000000, 3.000000)">
            <mask id="mask-6" fill="white">
                <use xlink:href="#path-5"></use>
            </mask>
            <g id="Mask" fill-rule="nonzero"></g>
            <g id="✱-/-Color-/-Icons-/-Black-/-Inactive" mask="url(#mask-6)" fill="#000000" fill-opacity="0.54">
                <rect id="Rectangle" x="0" y="0" width="101" height="101"></rect>
            </g>
        </g>
    </g>
</svg>