<?xml version="1.0" encoding="UTF-8"?>
<svg width="24px" height="24px" viewBox="0 0 24 24" version="1.1" xmlns="http://www.w3.org/2000/svg" xmlns:xlink="http://www.w3.org/1999/xlink">
    <!-- Generator: Sketch 50 (54983) - http://www.bohemiancoding.com/sketch -->
    <title>icon/maps/person_pin_circle_24px_two_tone</title>
    <desc>Created with Sketch.</desc>
    <defs>
        <path d="M0,6 C0,9.54 3.82,14.86 6,17.47 C7.75,15.36 12,9.84 12,6 C12,2.69 9.31,0 6,0 C2.69,0 0,2.69 0,6 Z M9,8.5 L9,8.62 C8.27,9.46 7.2,10 6,10 C4.8,10 3.73,9.46 3,8.62 L3,8.5 C3,7.5 5,7 6,7 C7,7 9,7.5 9,8.5 Z M7.5,4.5 C7.5,5.33 6.83,6 6,6 C5.17,6 4.5,5.33 4.5,4.5 C4.5,3.67 5.17,3 6,3 C6.83,3 7.5,3.67 7.5,4.5 Z" id="path-1"></path>
        <path d="M0,8 C0,13.57 6.96,21.34 7.26,21.67 L8,22.49 L8.74,21.67 C9.04,21.34 16,13.57 16,8 C16,3.59 12.41,0 8,0 C3.59,0 0,3.59 0,8 Z M14,8 C14,11.83 9.75,17.36 8,19.47 C5.82,16.86 2,11.54 2,8 C2,4.69 4.69,2 8,2 C11.31,2 14,4.69 14,8 Z" id="path-3"></path>
        <path d="M0.5,1.5 C0.5,2.33 1.17,3 2,3 C2.83,3 3.5,2.33 3.5,1.5 C3.5,0.67 2.83,0 2,0 C1.17,0 0.5,0.67 0.5,1.5 Z" id="path-5"></path>
        <path d="M0,1.5 L0,1.62 C0.73,2.46 1.8,3 3,3 C4.2,3 5.27,2.46 6,1.62 L6,1.5 C6,0.5 4,0 3,0 C2,0 0,0.5 0,1.5 Z" id="path-7"></path>
    </defs>
    <g id="icon/maps/person_pin_circle_24px" stroke="none" stroke-width="1" fill="none" fill-rule="evenodd">
        <g id="↳-Light-Color" transform="translate(6.000000, 3.000000)">
            <mask id="mask-2" fill="white">
                <use xlink:href="#path-1"></use>
            </mask>
            <g id="Mask" opacity="0.3" fill-rule="nonzero"></g>
            <g id="✱-/-Color-/-Icons-/-Black-/-Disabled" mask="url(#mask-2)" fill="#000000" fill-opacity="0.38">
                <rect id="Rectangle" x="0" y="0" width="101" height="101"></rect>
            </g>
        </g>
        <g id="↳-Dark-Color" transform="translate(4.000000, 1.000000)">
            <mask id="mask-4" fill="white">
                <use xlink:href="#path-3"></use>
            </mask>
            <g id="Mask" fill-rule="nonzero"></g>
            <g id="✱-/-Color-/-Icons-/-Black-/-Inactive" mask="url(#mask-4)" fill="#000000" fill-opacity="0.54">
                <rect id="Rectangle" x="0" y="0" width="101" height="101"></rect>
            </g>
        </g>
        <g id="↳-Dark-Color" transform="translate(10.000000, 6.000000)">
            <mask id="mask-6" fill="white">
                <use xlink:href="#path-5"></use>
            </mask>
            <g id="Mask" fill-rule="nonzero"></g>
            <g id="✱-/-Color-/-Icons-/-Black-/-Inactive" mask="url(#mask-6)" fill="#000000" fill-opacity="0.54">
                <rect id="Rectangle" x="0" y="0" width="101" height="101"></rect>
            </g>
        </g>
        <g id="↳-Dark-Color" transform="translate(9.000000, 10.000000)">
            <mask id="mask-8" fill="white">
                <use xlink:href="#path-7"></use>
            </mask>
            <g id="Mask" fill-rule="nonzero"></g>
            <g id="✱-/-Color-/-Icons-/-Black-/-Inactive" mask="url(#mask-8)" fill="#000000" fill-opacity="0.54">
                <rect id="Rectangle" x="0" y="0" width="101" height="101"></rect>
            </g>
        </g>
    </g>
</svg>