<?xml version="1.0" encoding="UTF-8"?>
<svg width="24px" height="24px" viewBox="0 0 24 24" version="1.1" xmlns="http://www.w3.org/2000/svg" xmlns:xlink="http://www.w3.org/1999/xlink">
    <!-- Generator: Sketch 50 (54983) - http://www.bohemiancoding.com/sketch -->
    <title>icon/maps/person_pin_24px_two_tone</title>
    <desc>Created with Sketch.</desc>
    <defs>
        <path d="M4.83,14 L5.42,14.59 L7,16.17 L8.59,14.58 L9.17,14 L10,14 L14,14 L14,0 L0,0 L0,14 L4,14 L4.83,14 Z M7,1 C8.65,1 10,2.35 10,4 C10,5.65 8.65,7 7,7 C5.35,7 4,5.65 4,4 C4,2.35 5.35,1 7,1 Z M1,11.58 C1,9.08 4.97,8 7,8 C9.03,8 13,9.08 13,11.58 L13,13 L1,13 L1,11.58 Z" id="path-1"></path>
        <path d="M6,18 L9,21 L12,18 L16,18 C17.1,18 18,17.1 18,16 L18,2 C18,0.9 17.1,0 16,0 L2,0 C0.89,0 0,0.9 0,2 L0,16 C0,17.1 0.89,18 2,18 L6,18 Z M2,2 L16,2 L16,16 L12,16 L11.17,16 L10.58,16.59 L9,18.17 L7.41,16.58 L6.83,16 L6,16 L2,16 L2,2 Z" id="path-3"></path>
        <path d="M3,6 C4.65,6 6,4.65 6,3 C6,1.35 4.65,0 3,0 C1.35,0 0,1.35 0,3 C0,4.65 1.35,6 3,6 Z M3,2 C3.55,2 4,2.45 4,3 C4,3.55 3.55,4 3,4 C2.45,4 2,3.55 2,3 C2,2.45 2.45,2 3,2 Z" id="path-5"></path>
        <path d="M12,3.58 C12,1.08 8.03,0 6,0 C3.97,0 0,1.08 0,3.58 L0,5 L12,5 L12,3.58 Z M2.48,3 C3.22,2.49 4.71,2 6,2 C7.29,2 8.78,2.49 9.52,3 L2.48,3 Z" id="path-7"></path>
    </defs>
    <g id="icon/maps/person_pin_24px" stroke="none" stroke-width="1" fill="none" fill-rule="evenodd">
        <g id="↳-Light-Color" transform="translate(5.000000, 4.000000)">
            <mask id="mask-2" fill="white">
                <use xlink:href="#path-1"></use>
            </mask>
            <g id="Mask" opacity="0.3" fill-rule="nonzero"></g>
            <g id="✱-/-Color-/-Icons-/-Black-/-Disabled" mask="url(#mask-2)" fill="#000000" fill-opacity="0.38">
                <rect id="Rectangle" x="0" y="0" width="101" height="101"></rect>
            </g>
        </g>
        <g id="↳-Dark-Color" transform="translate(3.000000, 2.000000)">
            <mask id="mask-4" fill="white">
                <use xlink:href="#path-3"></use>
            </mask>
            <g id="Mask" fill-rule="nonzero"></g>
            <g id="✱-/-Color-/-Icons-/-Black-/-Inactive" mask="url(#mask-4)" fill="#000000" fill-opacity="0.54">
                <rect id="Rectangle" x="0" y="0" width="101" height="101"></rect>
            </g>
        </g>
        <g id="↳-Dark-Color" transform="translate(9.000000, 5.000000)">
            <mask id="mask-6" fill="white">
                <use xlink:href="#path-5"></use>
            </mask>
            <g id="Mask" fill-rule="nonzero"></g>
            <g id="✱-/-Color-/-Icons-/-Black-/-Inactive" mask="url(#mask-6)" fill="#000000" fill-opacity="0.54">
                <rect id="Rectangle" x="0" y="0" width="101" height="101"></rect>
            </g>
        </g>
        <g id="↳-Dark-Color" transform="translate(6.000000, 12.000000)">
            <mask id="mask-8" fill="white">
                <use xlink:href="#path-7"></use>
            </mask>
            <g id="Mask" fill-rule="nonzero"></g>
            <g id="✱-/-Color-/-Icons-/-Black-/-Inactive" mask="url(#mask-8)" fill="#000000" fill-opacity="0.54">
                <rect id="Rectangle" x="0" y="0" width="101" height="101"></rect>
            </g>
        </g>
    </g>
</svg>