<?xml version="1.0" encoding="UTF-8"?>
<svg width="24px" height="24px" viewBox="0 0 24 24" version="1.1" xmlns="http://www.w3.org/2000/svg" xmlns:xlink="http://www.w3.org/1999/xlink">
    <!-- Generator: Sketch 50 (54983) - http://www.bohemiancoding.com/sketch -->
    <title>icon/maps/streetview_24px_two_tone</title>
    <desc>Created with Sketch.</desc>
    <defs>
        <path d="M0.56,2.33 C0.22,2.6 0,3.03 0,3.5 L0,9 L7,9 C8.1,9 9,8.1 9,7 L9,1.02 C8.06,0.69 7.05,0.5 6,0.5 C3.97,0.5 2.07,1.2 0.56,2.33 Z" id="path-1"></path>
        <circle id="path-3" cx="5" cy="5" r="5"></circle>
        <path d="M8.5,3 C8.5,1.92 8.77,0.9 9.24,0 L2,0 C0.9,0 0,0.9 0,2 L0,16 C0,16.55 0.23,17.05 0.59,17.41 L10.41,7.59 C9.23,6.42 8.5,4.8 8.5,3 Z" id="path-5"></path>
    </defs>
    <g id="icon/maps/streetview_24px" stroke="none" stroke-width="1" fill="none" fill-rule="evenodd">
        <g id="↳-Dark-Color" transform="translate(12.000000, 12.000000)">
            <mask id="mask-2" fill="white">
                <use xlink:href="#path-1"></use>
            </mask>
            <g id="Mask" fill-rule="nonzero"></g>
            <g id="✱-/-Color-/-Icons-/-Black-/-Inactive" mask="url(#mask-2)" fill="#000000" fill-opacity="0.54">
                <rect id="Rectangle" x="0" y="0" width="101" height="101"></rect>
            </g>
        </g>
        <g id="↳-Dark-Color" transform="translate(13.000000, 1.000000)">
            <mask id="mask-4" fill="white">
                <use xlink:href="#path-3"></use>
            </mask>
            <g id="Mask" fill-rule="nonzero"></g>
            <g id="✱-/-Color-/-Icons-/-Black-/-Inactive" mask="url(#mask-4)" fill="#000000" fill-opacity="0.54">
                <rect id="Rectangle" x="0" y="0" width="101" height="101"></rect>
            </g>
        </g>
        <g id="↳-Dark-Color" transform="translate(3.000000, 3.000000)">
            <mask id="mask-6" fill="white">
                <use xlink:href="#path-5"></use>
            </mask>
            <g id="Mask" fill-rule="nonzero"></g>
            <g id="✱-/-Color-/-Icons-/-Black-/-Inactive" mask="url(#mask-6)" fill="#000000" fill-opacity="0.54">
                <rect id="Rectangle" x="0" y="0" width="101" height="101"></rect>
            </g>
        </g>
    </g>
</svg>