<?xml version="1.0" encoding="UTF-8"?>
<svg width="24px" height="24px" viewBox="0 0 24 24" version="1.1" xmlns="http://www.w3.org/2000/svg" xmlns:xlink="http://www.w3.org/1999/xlink">
    <!-- Generator: Sketch 50 (54983) - http://www.bohemiancoding.com/sketch -->
    <title>icon/maps/subway_24px_two_tone</title>
    <desc>Created with Sketch.</desc>
    <defs>
        <polygon id="path-1" points="1.67 0.5 0.17 2 5.83 2 4.33 0.5"></polygon>
        <path d="M13.07,0.66 C11.59,0.08 9.68,0 8,0 C6.32,0 4.41,0.08 2.93,0.66 C1.01,1.41 0,2.86 0,4.86 L0,16 L3.5,16 L3.5,15.62 L4.65,14.46 C3.16,14.29 2,13.04 2,11.5 L2,5 C2,2.37 5,2 8,2 C11,2 14,2.37 14,5 L14,11.5 C14,13.04 12.84,14.29 11.35,14.46 L12.5,15.62 L12.5,16 L16,16 L16,4.86 C16,2.86 14.99,1.41 13.07,0.66 Z" id="path-3"></path>
        <path d="M15.8,0.8 C14,0.09 11.86,0 10,0 C8.14,0 6,0.09 4.2,0.8 C1.53,1.84 0,4.05 0,6.86 L0,20 L20,20 L20,6.86 C20,4.05 18.47,1.84 15.8,0.8 Z M7.17,18 L8.67,16.5 L11.33,16.5 L12.83,18 L7.17,18 Z M5.01,12 L5.01,7 L15.01,7 L15.01,12 L5.01,12 Z M14.5,14 C14.5,14.55 14.05,15 13.5,15 C12.95,15 12.5,14.55 12.5,14 C12.5,13.45 12.95,13 13.5,13 C14.05,13 14.5,13.45 14.5,14 Z M6.5,13 C7.05,13 7.5,13.45 7.5,14 C7.5,14.55 7.05,15 6.5,15 C5.95,15 5.5,14.55 5.5,14 C5.5,13.45 5.95,13 6.5,13 Z M18,18 L14.5,18 L14.5,17.62 L13.35,16.46 C14.84,16.29 16,15.04 16,13.5 L16,7 C16,4.37 13,4 10,4 C7,4 4,4.37 4,7 L4,13.5 C4,15.04 5.16,16.29 6.65,16.46 L5.5,17.62 L5.5,18 L2,18 L2,6.86 C2,4.86 3.01,3.41 4.93,2.66 C6.41,2.08 8.32,2 10,2 C11.68,2 13.59,2.08 15.07,2.66 C16.99,3.41 18,4.86 18,6.86 L18,18 Z" id="path-5"></path>
    </defs>
    <g id="icon/maps/subway_24px" stroke="none" stroke-width="1" fill="none" fill-rule="evenodd">
        <g id="↳-Light-Color" transform="translate(9.000000, 18.000000)">
            <mask id="mask-2" fill="white">
                <use xlink:href="#path-1"></use>
            </mask>
            <g id="Mask" opacity="0.3" fill-rule="nonzero"></g>
            <g id="✱-/-Color-/-Icons-/-Black-/-Disabled" mask="url(#mask-2)" fill="#000000" fill-opacity="0.38">
                <rect id="Rectangle" x="0" y="0" width="101" height="101"></rect>
            </g>
        </g>
        <g id="↳-Light-Color" transform="translate(4.000000, 4.000000)">
            <mask id="mask-4" fill="white">
                <use xlink:href="#path-3"></use>
            </mask>
            <g id="Mask" opacity="0.3" fill-rule="nonzero"></g>
            <g id="✱-/-Color-/-Icons-/-Black-/-Disabled" mask="url(#mask-4)" fill="#000000" fill-opacity="0.38">
                <rect id="Rectangle" x="0" y="0" width="101" height="101"></rect>
            </g>
        </g>
        <g id="↳-Dark-Color" transform="translate(2.000000, 2.000000)">
            <mask id="mask-6" fill="white">
                <use xlink:href="#path-5"></use>
            </mask>
            <g id="Mask" fill-rule="nonzero"></g>
            <g id="✱-/-Color-/-Icons-/-Black-/-Inactive" mask="url(#mask-6)" fill="#000000" fill-opacity="0.54">
                <rect id="Rectangle" x="0" y="0" width="101" height="101"></rect>
            </g>
        </g>
    </g>
</svg>