<?xml version="1.0" encoding="UTF-8"?>
<svg width="24px" height="24px" viewBox="0 0 24 24" version="1.1" xmlns="http://www.w3.org/2000/svg" xmlns:xlink="http://www.w3.org/1999/xlink">
    <!-- Generator: Sketch 50 (54983) - http://www.bohemiancoding.com/sketch -->
    <title>icon/maps/train_24px_two_tone</title>
    <desc>Created with Sketch.</desc>
    <defs>
        <path d="M6,0 C2.49,0 1.04,0.48 0.43,1 L11.56,1 C10.96,0.48 9.51,0 6,0 Z" id="path-1"></path>
        <path d="M0,3.5 C0,4.33 0.67,5 1.5,5 L10.5,5 C11.33,5 12,4.33 12,3.5 L12,0 L0,0 L0,3.5 Z M9.5,1 C10.33,1 11,1.67 11,2.5 C11,3.33 10.33,4 9.5,4 C8.67,4 8,3.33 8,2.5 C8,1.67 8.67,1 9.5,1 Z M2.5,1 C3.33,1 4,1.67 4,2.5 C4,3.33 3.33,4 2.5,4 C1.67,4 1,3.33 1,2.5 C1,1.67 1.67,1 2.5,1 Z" id="path-3"></path>
        <circle id="path-5" cx="1.5" cy="1.5" r="1.5"></circle>
        <circle id="path-7" cx="1.5" cy="1.5" r="1.5"></circle>
        <path d="M8,0 C4,0 0,0.5 0,4 L0,13.5 C0,15.43 1.57,17 3.5,17 L2,18.5 L2,19 L4,19 L6,17 L10,17 L12,19 L14,19 L14,18.5 L12.5,17 C14.43,17 16,15.43 16,13.5 L16,4 C16,0.5 12,0 8,0 Z M8,2 C11.51,2 12.96,2.48 13.57,3 L2.43,3 C3.04,2.48 4.49,2 8,2 Z M2,5 L7,5 L7,8 L2,8 L2,5 Z M14,13.5 C14,14.33 13.33,15 12.5,15 L3.5,15 C2.67,15 2,14.33 2,13.5 L2,10 L14,10 L14,13.5 Z M14,8 L9,8 L9,5 L14,5 L14,8 Z" id="path-9"></path>
    </defs>
    <g id="icon/maps/train_24px" stroke="none" stroke-width="1" fill="none" fill-rule="evenodd">
        <g id="↳-Light-Color" transform="translate(6.000000, 4.000000)">
            <mask id="mask-2" fill="white">
                <use xlink:href="#path-1"></use>
            </mask>
            <g id="Mask" opacity="0.3" fill-rule="nonzero"></g>
            <g id="✱-/-Color-/-Icons-/-Black-/-Disabled" mask="url(#mask-2)" fill="#000000" fill-opacity="0.38">
                <rect id="Rectangle" x="0" y="0" width="101" height="101"></rect>
            </g>
        </g>
        <g id="↳-Light-Color" transform="translate(6.000000, 12.000000)">
            <mask id="mask-4" fill="white">
                <use xlink:href="#path-3"></use>
            </mask>
            <g id="Mask" opacity="0.3" fill-rule="nonzero"></g>
            <g id="✱-/-Color-/-Icons-/-Black-/-Disabled" mask="url(#mask-4)" fill="#000000" fill-opacity="0.38">
                <rect id="Rectangle" x="0" y="0" width="101" height="101"></rect>
            </g>
        </g>
        <g id="↳-Dark-Color" transform="translate(7.000000, 13.000000)">
            <mask id="mask-6" fill="white">
                <use xlink:href="#path-5"></use>
            </mask>
            <g id="Mask" fill-rule="nonzero"></g>
            <g id="✱-/-Color-/-Icons-/-Black-/-Inactive" mask="url(#mask-6)" fill="#000000" fill-opacity="0.54">
                <rect id="Rectangle" x="0" y="0" width="101" height="101"></rect>
            </g>
        </g>
        <g id="↳-Dark-Color" transform="translate(14.000000, 13.000000)">
            <mask id="mask-8" fill="white">
                <use xlink:href="#path-7"></use>
            </mask>
            <g id="Mask" fill-rule="nonzero"></g>
            <g id="✱-/-Color-/-Icons-/-Black-/-Inactive" mask="url(#mask-8)" fill="#000000" fill-opacity="0.54">
                <rect id="Rectangle" x="0" y="0" width="101" height="101"></rect>
            </g>
        </g>
        <g id="↳-Dark-Color" transform="translate(4.000000, 2.000000)">
            <mask id="mask-10" fill="white">
                <use xlink:href="#path-9"></use>
            </mask>
            <g id="Mask" fill-rule="nonzero"></g>
            <g id="✱-/-Color-/-Icons-/-Black-/-Inactive" mask="url(#mask-10)" fill="#000000" fill-opacity="0.54">
                <rect id="Rectangle" x="0" y="0" width="101" height="101"></rect>
            </g>
        </g>
    </g>
</svg>