<?xml version="1.0" encoding="UTF-8"?>
<svg width="24px" height="24px" viewBox="0 0 24 24" version="1.1" xmlns="http://www.w3.org/2000/svg" xmlns:xlink="http://www.w3.org/1999/xlink">
    <!-- Generator: Sketch 50 (54983) - http://www.bohemiancoding.com/sketch -->
    <title>icon/maps/tram_24px_two_tone</title>
    <desc>Created with Sketch.</desc>
    <defs>
        <path d="M5.97,0 L4.03,0 C1.28,0.08 0.41,0.58 0.13,1 L9.87,1 C9.59,0.58 8.72,0.08 5.97,0 Z" id="path-1"></path>
        <path d="M0,0 L0,1 C0,1.45 0.3,1.84 0.74,1.95 L3.85,1.95 C3.63,1.69 3.5,1.36 3.5,1 C3.5,0.61 3.65,0.27 3.89,0 L0,0 Z" id="path-3"></path>
        <path d="M0.5,1 C0.5,1.36 0.37,1.69 0.15,1.95 L3.26,1.95 C3.7,1.84 4,1.45 4,1 L4,0 L0.11,0 C0.35,0.27 0.5,0.61 0.5,1 Z" id="path-5"></path>
        <path d="M8,3 L8.75,1.5 L12,1.5 L12,0 L2,0 L2,1.5 L6.75,1.5 L6,3 C2.87,3.09 0,3.73 0,6.5 L0,15 C0,16.5 1.11,17.73 2.55,17.95 L1,19.5 L1,20 L3,20 L5,18 L9,18 L11,20 L13,20 L13,19.5 L11.45,17.95 L11.44,17.95 L11.45,17.95 C12.89,17.73 14,16.5 14,15 L14,6.5 C14,3.73 11.13,3.09 8,3 Z M6.03,5 L7.97,5 C10.72,5.08 11.59,5.58 11.87,6 L2.13,6 C2.41,5.58 3.28,5.08 6.03,5 Z M5.85,15.95 L2.74,15.95 C2.3,15.84 2,15.45 2,15 L2,14 L5.89,14 C5.65,14.27 5.5,14.61 5.5,15 C5.5,15.36 5.63,15.69 5.85,15.95 Z M12,15 C12,15.45 11.7,15.84 11.26,15.95 L8.15,15.95 C8.37,15.69 8.5,15.36 8.5,15 C8.5,14.61 8.35,14.27 8.11,14 L12,14 L12,15 Z M12,12 L2,12 L2,8 L12,8 L12,12 Z" id="path-7"></path>
    </defs>
    <g id="icon/maps/tram_24px" stroke="none" stroke-width="1" fill="none" fill-rule="evenodd">
        <g id="↳-Light-Color" transform="translate(7.000000, 7.000000)">
            <mask id="mask-2" fill="white">
                <use xlink:href="#path-1"></use>
            </mask>
            <g id="Mask" opacity="0.3" fill-rule="nonzero"></g>
            <g id="✱-/-Color-/-Icons-/-Black-/-Disabled" mask="url(#mask-2)" fill="#000000" fill-opacity="0.38">
                <rect id="Rectangle" x="0" y="0" width="101" height="101"></rect>
            </g>
        </g>
        <g id="↳-Light-Color" transform="translate(7.000000, 16.000000)">
            <mask id="mask-4" fill="white">
                <use xlink:href="#path-3"></use>
            </mask>
            <g id="Mask" opacity="0.3" fill-rule="nonzero"></g>
            <g id="✱-/-Color-/-Icons-/-Black-/-Disabled" mask="url(#mask-4)" fill="#000000" fill-opacity="0.38">
                <rect id="Rectangle" x="0" y="0" width="101" height="101"></rect>
            </g>
        </g>
        <g id="↳-Light-Color" transform="translate(13.000000, 16.000000)">
            <mask id="mask-6" fill="white">
                <use xlink:href="#path-5"></use>
            </mask>
            <g id="Mask" opacity="0.3" fill-rule="nonzero"></g>
            <g id="✱-/-Color-/-Icons-/-Black-/-Disabled" mask="url(#mask-6)" fill="#000000" fill-opacity="0.38">
                <rect id="Rectangle" x="0" y="0" width="101" height="101"></rect>
            </g>
        </g>
        <g id="↳-Dark-Color" transform="translate(5.000000, 2.000000)">
            <mask id="mask-8" fill="white">
                <use xlink:href="#path-7"></use>
            </mask>
            <g id="Mask" fill-rule="nonzero"></g>
            <g id="✱-/-Color-/-Icons-/-Black-/-Inactive" mask="url(#mask-8)" fill="#000000" fill-opacity="0.54">
                <rect id="Rectangle" x="0" y="0" width="101" height="101"></rect>
            </g>
        </g>
    </g>
</svg>