<?xml version="1.0" encoding="UTF-8"?>
<svg width="24px" height="24px" viewBox="0 0 24 24" version="1.1" xmlns="http://www.w3.org/2000/svg" xmlns:xlink="http://www.w3.org/1999/xlink">
    <!-- Generator: Sketch 50 (54983) - http://www.bohemiancoding.com/sketch -->
    <title>icon/maps/transfer_within_a_station_24px_two_tone</title>
    <desc>Created with Sketch.</desc>
    <defs>
        <polygon id="path-1" points="2.49 0.75 0 3.25 2.49 5.75 2.49 4 8 4 8 2.5 2.49 2.5"></polygon>
        <polygon id="path-3" points="5.51 1.75 0 1.75 0 3.25 5.51 3.25 5.51 5 8 2.5 5.51 0"></polygon>
        <path d="M0.5,2.5 C0.5,3.6 1.4,4.5 2.5,4.5 C3.6,4.5 4.5,3.6 4.5,2.5 C4.5,1.4 3.6,0.5 2.5,0.5 C1.4,0.5 0.5,1.4 0.5,2.5 Z" id="path-5"></path>
        <path d="M7.55,4.4 C8.85,6 10.8,7 13,7 L13,5 C11.15,5 9.55,4 8.65,2.55 L7.7,0.95 C7.35,0.35 6.7,0 6,0 C5.75,0 5.5,0.05 5.25,0.15 L0,2.3 L0,7 L2,7 L2,3.65 L3.75,2.9 L1,17 L3.1,17 L4.85,9 L7,11 L7,17 L9,17 L9,9.45 L6.95,7.4 L7.55,4.4 Z" id="path-7"></path>
    </defs>
    <g id="icon/maps/transfer_within_a_station_24px" stroke="none" stroke-width="1" fill="none" fill-rule="evenodd">
        <g id="↳-Dark-Color" transform="translate(14.000000, 13.000000)">
            <mask id="mask-2" fill="white">
                <use xlink:href="#path-1"></use>
            </mask>
            <g id="Mask" fill-rule="nonzero"></g>
            <g id="✱-/-Color-/-Icons-/-Black-/-Inactive" mask="url(#mask-2)" fill="#000000" fill-opacity="0.54">
                <rect id="Rectangle" x="0" y="0" width="101" height="101"></rect>
            </g>
        </g>
        <g id="↳-Dark-Color" transform="translate(14.000000, 18.000000)">
            <mask id="mask-4" fill="white">
                <use xlink:href="#path-3"></use>
            </mask>
            <g id="Mask" fill-rule="nonzero"></g>
            <g id="✱-/-Color-/-Icons-/-Black-/-Inactive" mask="url(#mask-4)" fill="#000000" fill-opacity="0.54">
                <rect id="Rectangle" x="0" y="0" width="101" height="101"></rect>
            </g>
        </g>
        <g id="↳-Dark-Color" transform="translate(7.000000, 1.000000)">
            <mask id="mask-6" fill="white">
                <use xlink:href="#path-5"></use>
            </mask>
            <g id="Mask" fill-rule="nonzero"></g>
            <g id="✱-/-Color-/-Icons-/-Black-/-Inactive" mask="url(#mask-6)" fill="#000000" fill-opacity="0.54">
                <rect id="Rectangle" x="0" y="0" width="101" height="101"></rect>
            </g>
        </g>
        <g id="↳-Dark-Color" transform="translate(2.000000, 6.000000)">
            <mask id="mask-8" fill="white">
                <use xlink:href="#path-7"></use>
            </mask>
            <g id="Mask" fill-rule="nonzero"></g>
            <g id="✱-/-Color-/-Icons-/-Black-/-Inactive" mask="url(#mask-8)" fill="#000000" fill-opacity="0.54">
                <rect id="Rectangle" x="0" y="0" width="101" height="101"></rect>
            </g>
        </g>
    </g>
</svg>