<?xml version="1.0" encoding="UTF-8"?>
<svg width="24px" height="24px" viewBox="0 0 24 24" version="1.1" xmlns="http://www.w3.org/2000/svg" xmlns:xlink="http://www.w3.org/1999/xlink">
    <!-- Generator: Sketch 50 (54983) - http://www.bohemiancoding.com/sketch -->
    <title>icon/hardware/device_hub_24px_rounded</title>
    <desc>Created with Sketch.</desc>
    <defs>
        <path d="M17,16.0010916 L13,12.0010916 L13,8.82109156 C14.35,8.33109156 15.26,6.93109156 14.93,5.36109156 C14.68,4.18109156 13.7,3.24109156 12.51,3.04109156 C10.63,2.73109156 9,4.17109156 9,6.00109156 C9,7.30109156 9.84,8.40109156 11,8.82109156 L11,12.0010916 L7,16.0010916 L4,16.0010916 C3.45,16.0010916 3,16.4510916 3,17.0010916 L3,20.0010916 C3,20.5510916 3.45,21.0010916 4,21.0010916 L7,21.0010916 C7.55,21.0010916 8,20.5510916 8,20.0010916 L8,17.9510916 L12,13.7510916 L16,17.9510916 L16,20.0010916 C16,20.5510916 16.45,21.0010916 17,21.0010916 L20,21.0010916 C20.55,21.0010916 21,20.5510916 21,20.0010916 L21,17.0010916 C21,16.4510916 20.55,16.0010916 20,16.0010916 L17,16.0010916 Z" id="path-1"></path>
    </defs>
    <g id="icon/hardware/device_hub_24px" stroke="none" stroke-width="1" fill="none" fill-rule="evenodd">
        <mask id="mask-2" fill="white">
            <use xlink:href="#path-1"></use>
        </mask>
        <g fill-rule="nonzero"></g>
        <g id="✱-/-Color-/-Icons-/-Black-/-Inactive" mask="url(#mask-2)" fill="#000000" fill-opacity="0.54">
            <rect id="Rectangle" x="0" y="0" width="24" height="24"></rect>
        </g>
    </g>
</svg>