<?xml version="1.0" encoding="UTF-8"?>
<svg width="24px" height="24px" viewBox="0 0 24 24" version="1.1" xmlns="http://www.w3.org/2000/svg" xmlns:xlink="http://www.w3.org/1999/xlink">
    <!-- Generator: Sketch 50 (54983) - http://www.bohemiancoding.com/sketch -->
    <title>icon/hardware/dock_24px_rounded</title>
    <desc>Created with Sketch.</desc>
    <defs>
        <path d="M9,23 L15,23 C15.55,23 16,22.55 16,22 C16,21.45 15.55,21 15,21 L9,21 C8.45,21 8,21.45 8,22 C8,22.55 8.45,23 9,23 Z M16,1.01 L8,1 C6.9,1 6,1.9 6,3 L6,17 C6,18.1 6.9,19 8,19 L16,19 C17.1,19 18,18.1 18,17 L18,3 C18,1.9 17.1,1.01 16,1.01 Z M16,15 L8,15 L8,5 L16,5 L16,15 Z" id="path-1"></path>
    </defs>
    <g id="icon/hardware/dock_24px" stroke="none" stroke-width="1" fill="none" fill-rule="evenodd">
        <mask id="mask-2" fill="white">
            <use xlink:href="#path-1"></use>
        </mask>
        <g fill-rule="nonzero"></g>
        <g id="✱-/-Color-/-Icons-/-Black-/-Inactive" mask="url(#mask-2)" fill="#000000" fill-opacity="0.54">
            <rect id="Rectangle" x="0" y="0" width="24" height="24"></rect>
        </g>
    </g>
</svg>