<?xml version="1.0" encoding="UTF-8"?>
<svg width="24px" height="24px" viewBox="0 0 24 24" version="1.1" xmlns="http://www.w3.org/2000/svg" xmlns:xlink="http://www.w3.org/1999/xlink">
    <!-- Generator: Sketch 50 (54983) - http://www.bohemiancoding.com/sketch -->
    <title>icon/hardware/keyboard_backspace_24px_rounded</title>
    <desc>Created with Sketch.</desc>
    <defs>
        <path d="M19.79125,10.9949928 L6.62125,10.9949928 L9.50125,8.1149928 C9.89125,7.7249928 9.89125,7.0949928 9.50125,6.7049928 C9.31441847,6.51774013 9.06076764,6.4125072 8.79625,6.4125072 C8.53173236,6.4125072 8.27808153,6.51774013 8.09125,6.7049928 L3.50125,11.2949928 C3.11125,11.6849928 3.11125,12.3149928 3.50125,12.7049928 L8.09125,17.2949928 C8.48125,17.6849928 9.11125,17.6849928 9.50125,17.2949928 C9.89125,16.9049928 9.89125,16.2749928 9.50125,15.8849928 L6.62125,12.9949928 L19.79125,12.9949928 C20.34125,12.9949928 20.79125,12.5449928 20.79125,11.9949928 C20.79125,11.4449928 20.34125,10.9949928 19.79125,10.9949928 Z" id="path-1"></path>
    </defs>
    <g id="icon/hardware/keyboard_backspace_24px" stroke="none" stroke-width="1" fill="none" fill-rule="evenodd">
        <mask id="mask-2" fill="white">
            <use xlink:href="#path-1"></use>
        </mask>
        <g fill-rule="nonzero"></g>
        <g id="✱-/-Color-/-Icons-/-Black-/-Inactive" mask="url(#mask-2)" fill="#000000" fill-opacity="0.54">
            <rect id="Rectangle" x="0" y="0" width="24" height="24"></rect>
        </g>
    </g>
</svg>