<?xml version="1.0" encoding="UTF-8"?>
<svg width="24px" height="24px" viewBox="0 0 24 24" version="1.1" xmlns="http://www.w3.org/2000/svg" xmlns:xlink="http://www.w3.org/1999/xlink">
    <!-- Generator: Sketch 50 (54983) - http://www.bohemiancoding.com/sketch -->
    <title>icon/hardware/keyboard_hide_24px_rounded</title>
    <desc>Created with Sketch.</desc>
    <defs>
        <path d="M20,2.10375 L4,2.10375 C2.9,2.10375 2.01,3.00375 2.01,4.10375 L2,14.10375 C2,15.20375 2.9,16.10375 4,16.10375 L20,16.10375 C21.1,16.10375 22,15.20375 22,14.10375 L22,4.10375 C22,3.00375 21.1,2.10375 20,2.10375 Z M11,5.10375 L13,5.10375 L13,7.10375 L11,7.10375 L11,5.10375 Z M11,8.10375 L13,8.10375 L13,10.10375 L11,10.10375 L11,8.10375 Z M8,5.10375 L10,5.10375 L10,7.10375 L8,7.10375 L8,5.10375 Z M8,8.10375 L10,8.10375 L10,10.10375 L8,10.10375 L8,8.10375 Z M7,10.10375 L5,10.10375 L5,8.10375 L7,8.10375 L7,10.10375 Z M7,7.10375 L5,7.10375 L5,5.10375 L7,5.10375 L7,7.10375 Z M15,14.10375 L9,14.10375 C8.45,14.10375 8,13.65375 8,13.10375 C8,12.55375 8.45,12.10375 9,12.10375 L15,12.10375 C15.55,12.10375 16,12.55375 16,13.10375 C16,13.65375 15.55,14.10375 15,14.10375 Z M16,10.10375 L14,10.10375 L14,8.10375 L16,8.10375 L16,10.10375 Z M16,7.10375 L14,7.10375 L14,5.10375 L16,5.10375 L16,7.10375 Z M19,10.10375 L17,10.10375 L17,8.10375 L19,8.10375 L19,10.10375 Z M19,7.10375 L17,7.10375 L17,5.10375 L19,5.10375 L19,7.10375 Z M12.35,21.75375 L15.14,18.96375 C15.45,18.65375 15.23,18.11375 14.79,18.11375 L9.21,18.11375 C8.76,18.11375 8.54,18.65375 8.86,18.96375 L11.65,21.75375 C11.84,21.94375 12.16,21.94375 12.35,21.75375 Z" id="path-1"></path>
    </defs>
    <g id="icon/hardware/keyboard_hide_24px" stroke="none" stroke-width="1" fill="none" fill-rule="evenodd">
        <mask id="mask-2" fill="white">
            <use xlink:href="#path-1"></use>
        </mask>
        <g fill-rule="nonzero"></g>
        <g id="✱-/-Color-/-Icons-/-Black-/-Inactive" mask="url(#mask-2)" fill="#000000" fill-opacity="0.54">
            <rect id="Rectangle" x="0" y="0" width="24" height="24"></rect>
        </g>
    </g>
</svg>