<?xml version="1.0" encoding="UTF-8"?>
<svg width="24px" height="24px" viewBox="0 0 24 24" version="1.1" xmlns="http://www.w3.org/2000/svg" xmlns:xlink="http://www.w3.org/1999/xlink">
    <!-- Generator: Sketch 50 (54983) - http://www.bohemiancoding.com/sketch -->
    <title>icon/hardware/keyboard_voice_24px_rounded</title>
    <desc>Created with Sketch.</desc>
    <defs>
        <path d="M12,14.5 C13.66,14.5 14.99,13.16 14.99,11.5 L15,5.5 C15,3.84 13.66,2.5 12,2.5 C10.34,2.5 9,3.84 9,5.5 L9,11.5 C9,13.16 10.34,14.5 12,14.5 Z M18.08,11.5 C17.66,11.5 17.31,11.8 17.25,12.21 C16.88,14.82 14.53,16.6 12,16.6 C9.47,16.6 7.12,14.83 6.75,12.21 C6.69,11.8 6.33,11.5 5.92,11.5 C5.4,11.5 5,11.96 5.07,12.47 C5.53,15.44 8.03,17.77 11,18.22 L11,20.5 C11,21.05 11.45,21.5 12,21.5 C12.55,21.5 13,21.05 13,20.5 L13,18.22 C15.96,17.79 18.47,15.44 18.93,12.47 C19,11.96 18.6,11.5 18.08,11.5 Z" id="path-1"></path>
    </defs>
    <g id="icon/hardware/keyboard_voice_24px" stroke="none" stroke-width="1" fill="none" fill-rule="evenodd">
        <mask id="mask-2" fill="white">
            <use xlink:href="#path-1"></use>
        </mask>
        <g fill-rule="nonzero"></g>
        <g id="✱-/-Color-/-Icons-/-Black-/-Inactive" mask="url(#mask-2)" fill="#000000" fill-opacity="0.54">
            <rect id="Rectangle" x="0" y="0" width="24" height="24"></rect>
        </g>
    </g>
</svg>