<?xml version="1.0" encoding="UTF-8"?>
<svg width="24px" height="24px" viewBox="0 0 24 24" version="1.1" xmlns="http://www.w3.org/2000/svg" xmlns:xlink="http://www.w3.org/1999/xlink">
    <!-- Generator: Sketch 50 (54983) - http://www.bohemiancoding.com/sketch -->
    <title>icon/hardware/memory_24px_rounded</title>
    <desc>Created with Sketch.</desc>
    <defs>
        <path d="M14,9 L10,9 C9.45,9 9,9.45 9,10 L9,14 C9,14.55 9.45,15 10,15 L14,15 C14.55,15 15,14.55 15,14 L15,10 C15,9.45 14.55,9 14,9 Z M13,13 L11,13 L11,11 L13,11 L13,13 Z M21,10 C21,9.45 20.55,9 20,9 L19,9 L19,7 C19,5.9 18.1,5 17,5 L15,5 L15,4 C15,3.45 14.55,3 14,3 C13.45,3 13,3.45 13,4 L13,5 L11,5 L11,4 C11,3.45 10.55,3 10,3 C9.45,3 9,3.45 9,4 L9,5 L7,5 C5.9,5 5,5.9 5,7 L5,9 L4,9 C3.45,9 3,9.45 3,10 C3,10.55 3.45,11 4,11 L5,11 L5,13 L4,13 C3.45,13 3,13.45 3,14 C3,14.55 3.45,15 4,15 L5,15 L5,17 C5,18.1 5.9,19 7,19 L9,19 L9,20 C9,20.55 9.45,21 10,21 C10.55,21 11,20.55 11,20 L11,19 L13,19 L13,20 C13,20.55 13.45,21 14,21 C14.55,21 15,20.55 15,20 L15,19 L17,19 C18.1,19 19,18.1 19,17 L19,15 L20,15 C20.55,15 21,14.55 21,14 C21,13.45 20.55,13 20,13 L19,13 L19,11 L20,11 C20.55,11 21,10.55 21,10 Z M16,17 L8,17 C7.45,17 7,16.55 7,16 L7,8 C7,7.45 7.45,7 8,7 L16,7 C16.55,7 17,7.45 17,8 L17,16 C17,16.55 16.55,17 16,17 Z" id="path-1"></path>
    </defs>
    <g id="icon/hardware/memory_24px" stroke="none" stroke-width="1" fill="none" fill-rule="evenodd">
        <mask id="mask-2" fill="white">
            <use xlink:href="#path-1"></use>
        </mask>
        <g fill-rule="nonzero"></g>
        <g id="✱-/-Color-/-Icons-/-Black-/-Inactive" mask="url(#mask-2)" fill="#000000" fill-opacity="0.54">
            <rect id="Rectangle" x="0" y="0" width="24" height="24"></rect>
        </g>
    </g>
</svg>