<?xml version="1.0" encoding="UTF-8"?>
<svg width="24px" height="24px" viewBox="0 0 24 24" version="1.1" xmlns="http://www.w3.org/2000/svg" xmlns:xlink="http://www.w3.org/1999/xlink">
    <!-- Generator: Sketch 50 (54983) - http://www.bohemiancoding.com/sketch -->
    <title>icon/hardware/phonelink_off_24px_rounded</title>
    <desc>Created with Sketch.</desc>
    <defs>
        <path d="M24,19.0749928 L24,9.0749928 C24,8.5249928 23.55,8.0749928 23,8.0749928 L17,8.0749928 C16.45,8.0749928 16,8.5249928 16,9.0749928 L16,12.6849928 L18,14.6849928 L18,10.0749928 L22,10.0749928 L22,17.0749928 L20.39,17.0749928 L23.32,20.0049928 C23.71,19.8749928 24,19.5149928 24,19.0749928 Z M21,6.0749928 C21.55,6.0749928 22,5.6249928 22,5.0749928 C22,4.5249928 21.55,4.0749928 21,4.0749928 L7.39,4.0749928 L9.39,6.0749928 L21,6.0749928 Z M1.36,2.2849928 C0.97,2.6749928 0.97,3.3049928 1.36,3.6949928 L2.47,4.8049928 C2.18,5.1549928 2,5.5949928 2,6.0749928 L2,17.0749928 L1.5,17.0749928 C0.67,17.0749928 0,17.7449928 0,18.5749928 C0,19.4049928 0.67,20.0749928 1.5,20.0749928 L17.73,20.0749928 L19.37,21.7149928 C19.76,22.1049928 20.39,22.1049928 20.78,21.7149928 C21.17,21.3249928 21.17,20.6949928 20.78,20.3049928 L2.77,2.2849928 C2.58316847,2.09774013 2.32951764,1.9925072 2.065,1.9925072 C1.80048236,1.9925072 1.54683153,2.09774013 1.36,2.2849928 Z M4,17.0749928 L4,6.3449928 L14.73,17.0749928 L4,17.0749928 Z" id="path-1"></path>
    </defs>
    <g id="icon/hardware/phonelink_off_24px" stroke="none" stroke-width="1" fill="none" fill-rule="evenodd">
        <mask id="mask-2" fill="white">
            <use xlink:href="#path-1"></use>
        </mask>
        <g fill-rule="nonzero"></g>
        <g id="✱-/-Color-/-Icons-/-Black-/-Inactive" mask="url(#mask-2)" fill="#000000" fill-opacity="0.54">
            <rect id="Rectangle" x="0" y="0" width="24" height="24"></rect>
        </g>
    </g>
</svg>