<?xml version="1.0" encoding="UTF-8"?>
<svg width="24px" height="24px" viewBox="0 0 24 24" version="1.1" xmlns="http://www.w3.org/2000/svg" xmlns:xlink="http://www.w3.org/1999/xlink">
    <!-- Generator: Sketch 50 (54983) - http://www.bohemiancoding.com/sketch -->
    <title>icon/hardware/security_24px_rounded</title>
    <desc>Created with Sketch.</desc>
    <defs>
        <path d="M11.19,1.26625 L4.19,4.37625 C3.47,4.69625 3,5.41625 3,6.20625 L3,10.90625 C3,16.45625 6.84,21.64625 12,22.90625 C17.16,21.64625 21,16.45625 21,10.90625 L21,6.20625 C21,5.41625 20.53,4.69625 19.81,4.37625 L12.81,1.26625 C12.3,1.03625 11.7,1.03625 11.19,1.26625 Z M12,11.89625 L19,11.89625 C18.47,16.01625 15.72,19.68625 12,20.83625 L12,11.90625 L5,11.90625 L5,6.20625 L12,3.09625 L12,11.89625 Z" id="path-1"></path>
    </defs>
    <g id="icon/hardware/security_24px" stroke="none" stroke-width="1" fill="none" fill-rule="evenodd">
        <mask id="mask-2" fill="white">
            <use xlink:href="#path-1"></use>
        </mask>
        <g fill-rule="nonzero"></g>
        <g id="✱-/-Color-/-Icons-/-Black-/-Inactive" mask="url(#mask-2)" fill="#000000" fill-opacity="0.54">
            <rect id="Rectangle" x="0" y="0" width="24" height="24"></rect>
        </g>
    </g>
</svg>