<?xml version="1.0" encoding="UTF-8"?>
<svg width="24px" height="24px" viewBox="0 0 24 24" version="1.1" xmlns="http://www.w3.org/2000/svg" xmlns:xlink="http://www.w3.org/1999/xlink">
    <!-- Generator: Sketch 50 (54983) - http://www.bohemiancoding.com/sketch -->
    <title>icon/hardware/toys_24px_rounded</title>
    <desc>Created with Sketch.</desc>
    <defs>
        <path d="M12,12 C12,9 14.5,6.5 17.5,6.5 C20.07,6.5 22.27,8.33 22.85,10.74 C23,11.38 22.53,12 21.88,12 L12,12 Z M12,12 C12,15 9.5,17.5 6.5,17.5 C3.93,17.5 1.73,15.67 1.15,13.26 C1,12.62 1.47,12 2.12,12 L12,12 Z M12,12 C9,12 6.5,9.5 6.5,6.5 C6.5,3.93 8.33,1.73 10.74,1.15 C11.38,1 12,1.47 12,2.12 L12,12 Z M12,12 C15,12 17.5,14.5 17.5,17.5 C17.5,20.07 15.67,22.27 13.26,22.85 C12.62,23 12,22.53 12,21.88 L12,12 Z" id="path-1"></path>
    </defs>
    <g id="icon/hardware/toys_24px" stroke="none" stroke-width="1" fill="none" fill-rule="evenodd">
        <mask id="mask-2" fill="white">
            <use xlink:href="#path-1"></use>
        </mask>
        <g fill-rule="nonzero"></g>
        <g id="✱-/-Color-/-Icons-/-Black-/-Inactive" mask="url(#mask-2)" fill="#000000" fill-opacity="0.54">
            <rect id="Rectangle" x="0" y="0" width="24" height="24"></rect>
        </g>
    </g>
</svg>