<?xml version="1.0" encoding="UTF-8"?>
<svg width="24px" height="24px" viewBox="0 0 24 24" version="1.1" xmlns="http://www.w3.org/2000/svg" xmlns:xlink="http://www.w3.org/1999/xlink">
    <!-- Generator: Sketch 50 (54983) - http://www.bohemiancoding.com/sketch -->
    <title>icon/hardware/watch_24px_rounded</title>
    <desc>Created with Sketch.</desc>
    <defs>
        <path d="M20,12 C20,9.46 18.81,7.19 16.96,5.73 L16.28,1.67 C16.12,0.71 15.28,0 14.31,0 L9.7,0 C8.72,0 7.88,0.71 7.72,1.67 L7.05,5.73 C5.19,7.19 4,9.45 4,12 C4,14.55 5.19,16.81 7.05,18.27 L7.72,22.33 C7.88,23.29 8.72,24 9.7,24 L14.31,24 C15.29,24 16.12,23.29 16.28,22.33 L16.96,18.27 C18.81,16.81 20,14.54 20,12 Z M6,12 C6,8.69 8.69,6 12,6 C15.31,6 18,8.69 18,12 C18,15.31 15.31,18 12,18 C8.69,18 6,15.31 6,12 Z" id="path-1"></path>
    </defs>
    <g id="icon/hardware/watch_24px" stroke="none" stroke-width="1" fill="none" fill-rule="evenodd">
        <mask id="mask-2" fill="white">
            <use xlink:href="#path-1"></use>
        </mask>
        <g fill-rule="nonzero"></g>
        <g id="✱-/-Color-/-Icons-/-Black-/-Inactive" mask="url(#mask-2)" fill="#000000" fill-opacity="0.54">
            <rect id="Rectangle" x="0" y="0" width="24" height="24"></rect>
        </g>
    </g>
</svg>