<?xml version="1.0" encoding="UTF-8"?>
<svg width="24px" height="24px" viewBox="0 0 24 24" version="1.1" xmlns="http://www.w3.org/2000/svg" xmlns:xlink="http://www.w3.org/1999/xlink">
    <!-- Generator: Sketch 50 (54983) - http://www.bohemiancoding.com/sketch -->
    <title>icon/file/attachment_24px_two_tone</title>
    <desc>Created with Sketch.</desc>
    <defs>
        <path d="M17.5,10 L6,10 C3.79,10 2,8.21 2,6 C2,3.79 3.79,2 6,2 L18.5,2 C19.88,2 21,3.12 21,4.5 C21,5.88 19.88,7 18.5,7 L8,7 C7.45,7 7,6.55 7,6 C7,5.45 7.45,5 8,5 L17.5,5 L17.5,3.5 L8,3.5 C6.62,3.5 5.5,4.62 5.5,6 C5.5,7.38 6.62,8.5 8,8.5 L18.5,8.5 C20.71,8.5 22.5,6.71 22.5,4.5 C22.5,2.29 20.71,0.5 18.5,0.5 L6,0.5 C2.96,0.5 0.5,2.96 0.5,6 C0.5,9.04 2.96,11.5 6,11.5 L17.5,11.5 L17.5,10 Z" id="path-1"></path>
    </defs>
    <g id="icon/file/attachment_24px" stroke="none" stroke-width="1" fill="none" fill-rule="evenodd">
        <g id="↳-Dark-Color" transform="translate(1.000000, 6.000000)">
            <mask id="mask-2" fill="white">
                <use xlink:href="#path-1"></use>
            </mask>
            <g id="Mask" fill-rule="nonzero"></g>
            <g id="✱-/-Color-/-Icons-/-Black-/-Inactive" mask="url(#mask-2)" fill="#000000" fill-opacity="0.54">
                <rect id="Rectangle" x="0" y="0" width="101" height="101"></rect>
            </g>
        </g>
    </g>
</svg>