<?xml version="1.0" encoding="UTF-8"?>
<svg width="24px" height="24px" viewBox="0 0 24 24" version="1.1" xmlns="http://www.w3.org/2000/svg" xmlns:xlink="http://www.w3.org/1999/xlink">
    <!-- Generator: Sketch 50 (54983) - http://www.bohemiancoding.com/sketch -->
    <title>icon/file/cloud_off_24px_two_tone</title>
    <desc>Created with Sketch.</desc>
    <defs>
        <path d="M13,9 C13,7.34 11.66,6 10,6 L8.5,6 L8.5,5.5 C8.5,2.46 6.04,0 3,0 C2.23,0 1.51,0.17 0.84,0.46 L11.79,11.4 C12.52,10.85 13,9.99 13,9 Z" id="path-1"></path>
        <path d="M0,4 C0,6.21 1.79,8 4,8 L13.73,8 L5.73,0 L4,0 C1.79,0 0,1.79 0,4 Z" id="path-3"></path>
        <path d="M11.35,6.04 C10.67,2.59 7.64,0 4,0 C2.67,0 1.43,0.36 0.35,0.97 L1.84,2.46 C2.51,2.17 3.23,2 4,2 C7.04,2 9.5,4.46 9.5,7.5 L9.5,8 L11,8 C12.66,8 14,9.34 14,11 C14,11.99 13.52,12.85 12.79,13.4 L14.2,14.81 C15.29,13.89 16,12.54 16,11 C16,8.36 13.95,6.22 11.35,6.04 Z" id="path-5"></path>
        <path d="M3,2.27 L5.77,5.04 L5.35,5.04 C2.34,5.36 0,7.91 0,11 C0,14.31 2.69,17 6,17 L17.73,17 L19.73,19 L21.14,17.59 L4.41,0.86 L3,2.27 Z M7.73,7 L15.73,15 L6,15 C3.79,15 2,13.21 2,11 C2,8.79 3.79,7 6,7 L7.73,7 Z" id="path-7"></path>
    </defs>
    <g id="icon/file/cloud_off_24px" stroke="none" stroke-width="1" fill="none" fill-rule="evenodd">
        <g id="↳-Light-Color" transform="translate(9.000000, 6.000000)">
            <mask id="mask-2" fill="white">
                <use xlink:href="#path-1"></use>
            </mask>
            <g id="Mask" opacity="0.3" fill-rule="nonzero"></g>
            <g id="✱-/-Color-/-Icons-/-Black-/-Disabled" mask="url(#mask-2)" fill="#000000" fill-opacity="0.38">
                <rect id="Rectangle" x="0" y="0" width="101" height="101"></rect>
            </g>
        </g>
        <g id="↳-Light-Color" transform="translate(2.000000, 10.000000)">
            <mask id="mask-4" fill="white">
                <use xlink:href="#path-3"></use>
            </mask>
            <g id="Mask" opacity="0.3" fill-rule="nonzero"></g>
            <g id="✱-/-Color-/-Icons-/-Black-/-Disabled" mask="url(#mask-4)" fill="#000000" fill-opacity="0.38">
                <rect id="Rectangle" x="0" y="0" width="101" height="101"></rect>
            </g>
        </g>
        <g id="↳-Dark-Color" transform="translate(8.000000, 4.000000)">
            <mask id="mask-6" fill="white">
                <use xlink:href="#path-5"></use>
            </mask>
            <g id="Mask" fill-rule="nonzero"></g>
            <g id="✱-/-Color-/-Icons-/-Black-/-Inactive" mask="url(#mask-6)" fill="#000000" fill-opacity="0.54">
                <rect id="Rectangle" x="0" y="0" width="101" height="101"></rect>
            </g>
        </g>
        <g id="↳-Dark-Color" transform="translate(0.000000, 3.000000)">
            <mask id="mask-8" fill="white">
                <use xlink:href="#path-7"></use>
            </mask>
            <g id="Mask" fill-rule="nonzero"></g>
            <g id="✱-/-Color-/-Icons-/-Black-/-Inactive" mask="url(#mask-8)" fill="#000000" fill-opacity="0.54">
                <rect id="Rectangle" x="0" y="0" width="101" height="101"></rect>
            </g>
        </g>
    </g>
</svg>