<?xml version="1.0" encoding="UTF-8"?>
<svg width="24px" height="24px" viewBox="0 0 24 24" version="1.1" xmlns="http://www.w3.org/2000/svg" xmlns:xlink="http://www.w3.org/1999/xlink">
    <!-- Generator: Sketch 50 (54983) - http://www.bohemiancoding.com/sketch -->
    <title>icon/file/cloud_circle_24px_two_tone</title>
    <desc>Created with Sketch.</desc>
    <defs>
        <path d="M8,0 C3.59,0 0,3.59 0,8 C0,12.41 3.59,16 8,16 C12.41,16 16,12.41 16,8 C16,3.59 12.41,0 8,0 Z M12.08,12 L4.5,12 C2.57,12 1,10.43 1,8.5 C1,6.7 2.36,5.21 4.12,5.02 C4.85,3.62 6.31,2.66 8,2.66 C10.12,2.66 11.89,4.17 12.29,6.18 C13.81,6.28 15,7.53 15,9.07 C15,10.69 13.69,12 12.08,12 Z" id="path-1"></path>
        <path d="M10,0 C4.48,0 0,4.48 0,10 C0,15.52 4.48,20 10,20 C15.52,20 20,15.52 20,10 C20,4.48 15.52,0 10,0 Z M10,18 C5.59,18 2,14.41 2,10 C2,5.59 5.59,2 10,2 C14.41,2 18,5.59 18,10 C18,14.41 14.41,18 10,18 Z" id="path-3"></path>
        <path d="M11.29,4.19 C10.89,2.18 9.13,0.67 7,0.67 C5.31,0.67 3.85,1.63 3.12,3.03 C1.36,3.21 0,4.7 0,6.5 C0,8.43 1.57,10 3.5,10 L11.08,10 C12.69,10 14,8.69 14,7.08 C14,5.54 12.8,4.29 11.29,4.19 Z M11,8 L3.5,8 C2.67,8 2,7.33 2,6.5 C2,5.67 2.67,5 3.5,5 L4.4,5 L4.89,3.95 C5.3,3.16 6.11,2.67 7,2.67 C8.13,2.67 9.11,3.47 9.33,4.58 L9.61,6 L11,6 C11.55,6 12,6.45 12,7 C12,7.55 11.55,8 11,8 Z" id="path-5"></path>
    </defs>
    <g id="icon/file/cloud_circle_24px" stroke="none" stroke-width="1" fill="none" fill-rule="evenodd">
        <g id="↳-Light-Color" transform="translate(4.000000, 4.000000)">
            <mask id="mask-2" fill="white">
                <use xlink:href="#path-1"></use>
            </mask>
            <g id="Mask" opacity="0.3" fill-rule="nonzero"></g>
            <g id="✱-/-Color-/-Icons-/-Black-/-Disabled" mask="url(#mask-2)" fill="#000000" fill-opacity="0.38">
                <rect id="Rectangle" x="0" y="0" width="101" height="101"></rect>
            </g>
        </g>
        <g id="↳-Dark-Color" transform="translate(2.000000, 2.000000)">
            <mask id="mask-4" fill="white">
                <use xlink:href="#path-3"></use>
            </mask>
            <g id="Mask" fill-rule="nonzero"></g>
            <g id="✱-/-Color-/-Icons-/-Black-/-Inactive" mask="url(#mask-4)" fill="#000000" fill-opacity="0.54">
                <rect id="Rectangle" x="0" y="0" width="101" height="101"></rect>
            </g>
        </g>
        <g id="↳-Dark-Color" transform="translate(5.000000, 6.000000)">
            <mask id="mask-6" fill="white">
                <use xlink:href="#path-5"></use>
            </mask>
            <g id="Mask" fill-rule="nonzero"></g>
            <g id="✱-/-Color-/-Icons-/-Black-/-Inactive" mask="url(#mask-6)" fill="#000000" fill-opacity="0.54">
                <rect id="Rectangle" x="0" y="0" width="101" height="101"></rect>
            </g>
        </g>
    </g>
</svg>