<?xml version="1.0" encoding="UTF-8"?>
<svg width="24px" height="24px" viewBox="0 0 24 24" version="1.1" xmlns="http://www.w3.org/2000/svg" xmlns:xlink="http://www.w3.org/1999/xlink">
    <!-- Generator: Sketch 50 (54983) - http://www.bohemiancoding.com/sketch -->
    <title>icon/file/folder_open_24px_two_tone</title>
    <desc>Created with Sketch.</desc>
    <defs>
        <rect id="path-1" x="0" y="0" width="16" height="10"></rect>
        <path d="M18,2 L10,2 L8,0 L2,0 C0.9,0 0.01,0.9 0.01,2 L0,14 C0,15.1 0.9,16 2,16 L18,16 C19.1,16 20,15.1 20,14 L20,4 C20,2.9 19.1,2 18,2 Z M18,14 L2,14 L2,4 L18,4 L18,14 Z" id="path-3"></path>
    </defs>
    <g id="icon/file/folder_open_24px" stroke="none" stroke-width="1" fill="none" fill-rule="evenodd">
        <g id="↳-Light-Color" transform="translate(4.000000, 8.000000)">
            <mask id="mask-2" fill="white">
                <use xlink:href="#path-1"></use>
            </mask>
            <g id="Mask" opacity="0.3" fill-rule="nonzero"></g>
            <g id="✱-/-Color-/-Icons-/-Black-/-Disabled" mask="url(#mask-2)" fill="#000000" fill-opacity="0.38">
                <rect id="Rectangle" x="0" y="0" width="101" height="101"></rect>
            </g>
        </g>
        <g id="↳-Dark-Color" transform="translate(2.000000, 4.000000)">
            <mask id="mask-4" fill="white">
                <use xlink:href="#path-3"></use>
            </mask>
            <g id="Mask" fill-rule="nonzero"></g>
            <g id="✱-/-Color-/-Icons-/-Black-/-Inactive" mask="url(#mask-4)" fill="#000000" fill-opacity="0.54">
                <rect id="Rectangle" x="0" y="0" width="101" height="101"></rect>
            </g>
        </g>
    </g>
</svg>