<?xml version="1.0" encoding="UTF-8"?>
<svg width="24px" height="24px" viewBox="0 0 24 24" version="1.1" xmlns="http://www.w3.org/2000/svg" xmlns:xlink="http://www.w3.org/1999/xlink">
    <!-- Generator: Sketch 50 (54983) - http://www.bohemiancoding.com/sketch -->
    <title>icon/device/access_alarms_24px</title>
    <desc>Created with Sketch.</desc>
    <defs>
        <path d="M22,5.7 L17.4,1.8 L16.1,3.3 L20.7,7.2 L22,5.7 Z M7.9,3.4 L6.6,1.9 L2,5.7 L3.3,7.2 L7.9,3.4 Z M12.5,8 L11,8 L11,14 L15.7,16.9 L16.5,15.7 L12.5,13.3 L12.5,8 Z M12,4 C7,4 3,8 3,13 C3,18 7,22 12,22 C17,22 21,18 21,13 C21,8 17,4 12,4 Z M12,20 C8.1,20 5,16.9 5,13 C5,9.1 8.1,6 12,6 C15.9,6 19,9.1 19,13 C19,16.9 15.9,20 12,20 Z" id="path-1"></path>
    </defs>
    <g id="icon/device/access_alarms_24px" stroke="none" stroke-width="1" fill="none" fill-rule="evenodd">
        <mask id="mask-2" fill="white">
            <use xlink:href="#path-1"></use>
        </mask>
        <g fill-rule="nonzero"></g>
        <g id="✱-/-Color-/-Icons-/-Black-/-Inactive" mask="url(#mask-2)" fill="#000000" fill-opacity="0.54">
            <rect id="Rectangle" x="0" y="0" width="24" height="24"></rect>
        </g>
    </g>
</svg>