<?xml version="1.0" encoding="UTF-8"?>
<svg width="24px" height="24px" viewBox="0 0 24 24" version="1.1" xmlns="http://www.w3.org/2000/svg" xmlns:xlink="http://www.w3.org/1999/xlink">
    <!-- Generator: Sketch 50 (54983) - http://www.bohemiancoding.com/sketch -->
    <title>icon/device/add_to_home_screen_24px</title>
    <desc>Created with Sketch.</desc>
    <defs>
        <path d="M18,1.01 L8,1 C6.9,1 6,1.9 6,3 L6,6 L8,6 L8,5 L18,5 L18,19 L8,19 L8,18 L6,18 L6,21 C6,22.1 6.9,23 8,23 L18,23 C19.1,23 20,22.1 20,21 L20,3 C20,1.9 19.1,1.01 18,1.01 Z M10,15 L12,15 L12,8 L5,8 L5,10 L8.59,10 L3,15.59 L4.41,17 L10,11.41 L10,15 Z" id="path-1"></path>
    </defs>
    <g id="icon/device/add_to_home_screen_24px" stroke="none" stroke-width="1" fill="none" fill-rule="evenodd">
        <mask id="mask-2" fill="white">
            <use xlink:href="#path-1"></use>
        </mask>
        <g fill-rule="nonzero"></g>
        <g id="✱-/-Color-/-Icons-/-Black-/-Inactive" mask="url(#mask-2)" fill="#000000" fill-opacity="0.54">
            <rect id="Rectangle" x="0" y="0" width="24" height="24"></rect>
        </g>
    </g>
</svg>