<?xml version="1.0" encoding="UTF-8"?>
<svg width="24px" height="24px" viewBox="0 0 24 24" version="1.1" xmlns="http://www.w3.org/2000/svg" xmlns:xlink="http://www.w3.org/1999/xlink">
    <!-- Generator: Sketch 50 (54983) - http://www.bohemiancoding.com/sketch -->
    <title>icon/device/gps_not_fixed_24px</title>
    <desc>Created with Sketch.</desc>
    <defs>
        <path d="M20.94,11 C20.48,6.83 17.17,3.52 13,3.06 L13,1 L11,1 L11,3.06 C6.83,3.52 3.52,6.83 3.06,11 L1,11 L1,13 L3.06,13 C3.52,17.17 6.83,20.48 11,20.94 L11,23 L13,23 L13,20.94 C17.17,20.48 20.48,17.17 20.94,13 L23,13 L23,11 L20.94,11 Z M12,19 C8.13,19 5,15.87 5,12 C5,8.13 8.13,5 12,5 C15.87,5 19,8.13 19,12 C19,15.87 15.87,19 12,19 Z" id="path-1"></path>
    </defs>
    <g id="icon/device/gps_not_fixed_24px" stroke="none" stroke-width="1" fill="none" fill-rule="evenodd">
        <mask id="mask-2" fill="white">
            <use xlink:href="#path-1"></use>
        </mask>
        <g fill-rule="nonzero"></g>
        <g id="✱-/-Color-/-Icons-/-Black-/-Inactive" mask="url(#mask-2)" fill="#000000" fill-opacity="0.54">
            <rect id="Rectangle" x="0" y="0" width="24" height="24"></rect>
        </g>
    </g>
</svg>