<?xml version="1.0" encoding="UTF-8"?>
<svg width="24px" height="24px" viewBox="0 0 24 24" version="1.1" xmlns="http://www.w3.org/2000/svg" xmlns:xlink="http://www.w3.org/1999/xlink">
    <!-- Generator: Sketch 50 (54983) - http://www.bohemiancoding.com/sketch -->
    <title>icon/device/location_disabled_24px</title>
    <desc>Created with Sketch.</desc>
    <defs>
        <path d="M23,13 L23,11 L20.94,11 C20.48,6.83 17.17,3.52 13,3.06 L13,1 L11,1 L11,3.06 C10.02,3.17 9.09,3.44 8.23,3.84 L9.76,5.37 C10.46,5.13 11.22,5 12,5 C15.87,5 19,8.13 19,12 C19,12.79 18.87,13.54 18.63,14.24 L20.16,15.77 C20.56,14.91 20.83,13.98 20.94,13 L23,13 Z M4.41,2.86 L3,4.27 L5.04,6.31 C3.97,7.62 3.26,9.23 3.06,11 L1,11 L1,13 L3.06,13 C3.52,17.17 6.83,20.48 11,20.94 L11,23 L13,23 L13,20.94 C14.77,20.74 16.38,20.03 17.69,18.96 L19.73,21 L21.14,19.59 L4.41,2.86 Z M12,19 C8.13,19 5,15.87 5,12 C5,10.39 5.55,8.91 6.46,7.73 L16.27,17.54 C15.09,18.45 13.61,19 12,19 Z" id="path-1"></path>
    </defs>
    <g id="icon/device/location_disabled_24px" stroke="none" stroke-width="1" fill="none" fill-rule="evenodd">
        <mask id="mask-2" fill="white">
            <use xlink:href="#path-1"></use>
        </mask>
        <g fill-rule="nonzero"></g>
        <g id="✱-/-Color-/-Icons-/-Black-/-Inactive" mask="url(#mask-2)" fill="#000000" fill-opacity="0.54">
            <rect id="Rectangle" x="0" y="0" width="24" height="24"></rect>
        </g>
    </g>
</svg>