<?xml version="1.0" encoding="UTF-8"?>
<svg width="24px" height="24px" viewBox="0 0 24 24" version="1.1" xmlns="http://www.w3.org/2000/svg" xmlns:xlink="http://www.w3.org/1999/xlink">
    <!-- Generator: Sketch 50 (54983) - http://www.bohemiancoding.com/sketch -->
    <title>icon/device/mobile_friendly_24px</title>
    <desc>Created with Sketch.</desc>
    <defs>
        <path d="M19,1 L9,1 C7.9,1 7,1.9 7,3 L7,6 L9,6 L9,4 L19,4 L19,20 L9,20 L9,18 L7,18 L7,21 C7,22.1 7.9,23 9,23 L19,23 C20.1,23 21,22.1 21,21 L21,3 C21,1.9 20.1,1 19,1 Z M7.01,13.47 L4.46,10.92 L3.19,12.19 L7,16 L14.19,8.81 L12.92,7.54 L7.01,13.47 Z" id="path-1"></path>
    </defs>
    <g id="icon/device/mobile_friendly_24px" stroke="none" stroke-width="1" fill="none" fill-rule="evenodd">
        <mask id="mask-2" fill="white">
            <use xlink:href="#path-1"></use>
        </mask>
        <g fill-rule="nonzero"></g>
        <g id="✱-/-Color-/-Icons-/-Black-/-Inactive" mask="url(#mask-2)" fill="#000000" fill-opacity="0.54">
            <rect id="Rectangle" x="0" y="0" width="24" height="24"></rect>
        </g>
    </g>
</svg>