<?xml version="1.0" encoding="UTF-8"?>
<svg width="24px" height="24px" viewBox="0 0 24 24" version="1.1" xmlns="http://www.w3.org/2000/svg" xmlns:xlink="http://www.w3.org/1999/xlink">
    <!-- Generator: Sketch 50 (54983) - http://www.bohemiancoding.com/sketch -->
    <title>icon/device/screen_lock_landscape_24px</title>
    <desc>Created with Sketch.</desc>
    <defs>
        <path d="M21,5 L3,5 C1.9,5 1,5.9 1,7 L1,17 C1,18.1 1.9,19 3,19 L21,19 C22.1,19 23,18.1 23,17 L23,7 C23,5.9 22.1,5 21,5 Z M19,17 L5,17 L5,7 L19,7 L19,17 Z M10,16 L14,16 C14.55,16 15,15.55 15,15 L15,12 C15,11.45 14.55,11 14,11 L14,10 C14,8.89 13.1,8 12,8 C10.89,8 10,8.9 10,10 L10,11 C9.45,11 9,11.45 9,12 L9,15 C9,15.55 9.45,16 10,16 Z M10.8,10 C10.8,9.34 11.34,8.8 12,8.8 C12.66,8.8 13.2,9.34 13.2,10 L13.2,11 L10.8,11 L10.8,10 Z" id="path-1"></path>
    </defs>
    <g id="icon/device/screen_lock_landscape_24px" stroke="none" stroke-width="1" fill="none" fill-rule="evenodd">
        <mask id="mask-2" fill="white">
            <use xlink:href="#path-1"></use>
        </mask>
        <g fill-rule="nonzero"></g>
        <g id="✱-/-Color-/-Icons-/-Black-/-Inactive" mask="url(#mask-2)" fill="#000000" fill-opacity="0.54">
            <rect id="Rectangle" x="0" y="0" width="24" height="24"></rect>
        </g>
    </g>
</svg>