<?xml version="1.0" encoding="UTF-8"?>
<svg width="24px" height="24px" viewBox="0 0 24 24" version="1.1" xmlns="http://www.w3.org/2000/svg" xmlns:xlink="http://www.w3.org/1999/xlink">
    <!-- Generator: Sketch 50 (54983) - http://www.bohemiancoding.com/sketch -->
    <title>icon/device/signal_wifi_statusbar_not_connected_26x24px</title>
    <desc>Created with Sketch.</desc>
    <defs>
        <path d="M14.7692308,13.4375 C14.7692308,10.7925 16.8369231,8.64583333 19.3846154,8.64583333 C20.1692308,8.64583333 20.8984615,8.86625 21.5446154,9.23041667 L23.6123077,6.55666667 C23.1692308,6.21166667 18.7015385,2.41666667 12,2.41666667 C5.29846154,2.41666667 0.830769231,6.21166667 0.387692308,6.55666667 L12,21.5833333 L15.8953846,16.5425 C15.2030769,15.70875 14.7692308,14.6258333 14.7692308,13.4375 Z M19.3846154,10.0833333 C17.6030769,10.0833333 16.1538462,11.5879167 16.1538462,13.4375 L17.7692308,13.4375 C17.7692308,12.5079167 18.4892308,11.7604167 19.3846154,11.7604167 C20.28,11.7604167 21,12.5079167 21,13.4375 C21,13.8975 20.8153846,14.3191667 20.5292308,14.6258333 L19.5230769,15.68 C18.9415385,16.28375 18.5815385,17.1270833 18.5815385,18.0470833 L18.5815385,18.46875 L20.1969231,18.46875 C20.1969231,17.2133333 20.5569231,16.7054167 21.1476923,16.1016667 L21.8676923,15.335 C22.3292308,14.8558333 22.6246154,14.185 22.6246154,13.4470833 C22.6153846,11.5879167 21.1661538,10.0833333 19.3846154,10.0833333 Z M18.5076923,21.5354167 L20.2615385,21.5354167 L20.2615385,19.7145833 L18.5076923,19.7145833 L18.5076923,21.5354167 Z" id="path-1"></path>
    </defs>
    <g id="icon/device/signal_wifi_statusbar_not_connected_26x24px" stroke="none" stroke-width="1" fill="none" fill-rule="evenodd">
        <mask id="mask-2" fill="white">
            <use xlink:href="#path-1"></use>
        </mask>
        <g fill-rule="nonzero"></g>
        <g id="✱-/-Color-/-Icons-/-Black-/-Inactive" mask="url(#mask-2)" fill="#000000" fill-opacity="0.54">
            <rect id="Rectangle" x="0" y="0" width="24" height="24"></rect>
        </g>
    </g>
</svg>