<?xml version="1.0" encoding="UTF-8"?>
<svg width="24px" height="24px" viewBox="0 0 24 24" version="1.1" xmlns="http://www.w3.org/2000/svg" xmlns:xlink="http://www.w3.org/1999/xlink">
    <!-- Generator: Sketch 50 (54983) - http://www.bohemiancoding.com/sketch -->
    <title>icon/device/wifi_tethering_24px</title>
    <desc>Created with Sketch.</desc>
    <defs>
        <path d="M12,11 C10.9,11 10,11.9 10,13 C10,14.1 10.9,15 12,15 C13.1,15 14,14.1 14,13 C14,11.9 13.1,11 12,11 Z M18,13 C18,9.69 15.31,7 12,7 C8.69,7 6,9.69 6,13 C6,15.22 7.21,17.15 9,18.19 L10,16.45 C8.81,15.75 8,14.48 8,13 C8,10.79 9.79,9 12,9 C14.21,9 16,10.79 16,13 C16,14.48 15.19,15.75 14,16.45 L15,18.19 C16.79,17.15 18,15.22 18,13 Z M12,3 C6.48,3 2,7.48 2,13 C2,16.7 4.01,19.92 6.99,21.65 L7.99,19.92 C5.61,18.53 4,15.96 4,13 C4,8.58 7.58,5 12,5 C16.42,5 20,8.58 20,13 C20,15.96 18.39,18.53 16,19.92 L17,21.65 C19.99,19.92 22,16.7 22,13 C22,7.48 17.52,3 12,3 Z" id="path-1"></path>
    </defs>
    <g id="icon/device/wifi_tethering_24px" stroke="none" stroke-width="1" fill="none" fill-rule="evenodd">
        <mask id="mask-2" fill="white">
            <use xlink:href="#path-1"></use>
        </mask>
        <g fill-rule="nonzero"></g>
        <g id="✱-/-Color-/-Icons-/-Black-/-Inactive" mask="url(#mask-2)" fill="#000000" fill-opacity="0.54">
            <rect id="Rectangle" x="0" y="0" width="24" height="24"></rect>
        </g>
    </g>
</svg>