<?xml version="1.0" encoding="UTF-8"?>
<svg width="24px" height="24px" viewBox="0 0 24 24" version="1.1" xmlns="http://www.w3.org/2000/svg" xmlns:xlink="http://www.w3.org/1999/xlink">
    <!-- Generator: Sketch 50 (54983) - http://www.bohemiancoding.com/sketch -->
    <title>icon/device/access_alarms_24px_sharp</title>
    <desc>Created with Sketch.</desc>
    <defs>
        <path d="M22,5.8 L17.4,1.9 L16.1,3.4 L20.7,7.3 L22,5.8 Z M7.9,3.5 L6.6,2 L2,5.8 L3.3,7.3 L7.9,3.5 Z M12.5,8.1 L11,8.1 L11,14.1 L15.7,17 L16.5,15.8 L12.5,13.4 L12.5,8.1 Z M12,4.1 C7,4.1 3,8.1 3,13.1 C3,18.1 7,22.1 12,22.1 C17,22.1 21,18.1 21,13.1 C21,8.1 17,4.1 12,4.1 Z M12,20.1 C8.1,20.1 5,17 5,13.1 C5,9.2 8.1,6.1 12,6.1 C15.9,6.1 19,9.2 19,13.1 C19,17 15.9,20.1 12,20.1 Z" id="path-1"></path>
    </defs>
    <g id="icon/device/access_alarms_24px" stroke="none" stroke-width="1" fill="none" fill-rule="evenodd">
        <mask id="mask-2" fill="white">
            <use xlink:href="#path-1"></use>
        </mask>
        <g fill-rule="nonzero"></g>
        <g id="✱-/-Color-/-Icons-/-Black-/-Inactive" mask="url(#mask-2)" fill="#000000" fill-opacity="0.54">
            <rect id="Rectangle" x="0" y="0" width="24" height="24"></rect>
        </g>
    </g>
</svg>