<?xml version="1.0" encoding="UTF-8"?>
<svg width="24px" height="24px" viewBox="0 0 24 24" version="1.1" xmlns="http://www.w3.org/2000/svg" xmlns:xlink="http://www.w3.org/1999/xlink">
    <!-- Generator: Sketch 50 (54983) - http://www.bohemiancoding.com/sketch -->
    <title>icon/device/airplanemode_inactive_24px_sharp</title>
    <desc>Created with Sketch.</desc>
    <defs>
        <path d="M21.5,16 L21.5,14 L13.5,9 L13.5,3.5 C13.5,2.67 12.83,2 12,2 C11.17,2 10.5,2.67 10.5,3.5 L10.5,6.61 L19.15,15.26 L21.5,16 Z M19.23,21 L20.64,19.59 L4.91,3.86 L3.5,5.27 L8.49,10.26 L2.5,14 L2.5,16 L10.5,13.5 L10.5,19 L8.5,20.5 L8.5,22 L12,21 L15.5,22 L15.5,20.5 L13.5,19 L13.5,15.27 L19.23,21 Z" id="path-1"></path>
    </defs>
    <g id="icon/device/airplanemode_inactive_24px" stroke="none" stroke-width="1" fill="none" fill-rule="evenodd">
        <mask id="mask-2" fill="white">
            <use xlink:href="#path-1"></use>
        </mask>
        <g fill-rule="nonzero"></g>
        <g id="✱-/-Color-/-Icons-/-Black-/-Inactive" mask="url(#mask-2)" fill="#000000" fill-opacity="0.54">
            <rect id="Rectangle" x="0" y="0" width="24" height="24"></rect>
        </g>
    </g>
</svg>