<?xml version="1.0" encoding="UTF-8"?>
<svg width="24px" height="24px" viewBox="0 0 24 24" version="1.1" xmlns="http://www.w3.org/2000/svg" xmlns:xlink="http://www.w3.org/1999/xlink">
    <!-- Generator: Sketch 50 (54983) - http://www.bohemiancoding.com/sketch -->
    <title>icon/device/battery_unknown_24px_sharp</title>
    <desc>Created with Sketch.</desc>
    <defs>
        <path d="M15.67,4 L14,4 L14,2 L10,2 L10,4 L8.33,4 C7.6,4 7,4.6 7,5.33 L7,20.66 C7,21.4 7.6,22 8.33,22 L15.66,22 C16.4,22 17,21.4 17,20.67 L17,5.33 C17,4.6 16.4,4 15.67,4 Z M13,18 L11,18 L11,16 L13,16 L13,18 Z M14.3,12.69 C14.3,12.69 13.92,13.11 13.63,13.4 C13.15,13.88 12.8,14.55 12.8,15 L11.2,15 C11.2,14.17 11.66,13.48 12.13,13 L13.06,12.06 C13.33,11.79 13.5,11.41 13.5,11 C13.5,10.17 12.83,9.5 12,9.5 C11.17,9.5 10.5,10.17 10.5,11 L9,11 C9,9.34 10.34,8 12,8 C13.66,8 15,9.34 15,11 C15,11.66 14.73,12.26 14.3,12.69 Z" id="path-1"></path>
    </defs>
    <g id="icon/device/battery_unknown_24px" stroke="none" stroke-width="1" fill="none" fill-rule="evenodd">
        <mask id="mask-2" fill="white">
            <use xlink:href="#path-1"></use>
        </mask>
        <g fill-rule="nonzero"></g>
        <g id="✱-/-Color-/-Icons-/-Black-/-Inactive" mask="url(#mask-2)" fill="#000000" fill-opacity="0.54">
            <rect id="Rectangle" x="0" y="0" width="24" height="24"></rect>
        </g>
    </g>
</svg>