<?xml version="1.0" encoding="UTF-8"?>
<svg width="24px" height="24px" viewBox="0 0 24 24" version="1.1" xmlns="http://www.w3.org/2000/svg" xmlns:xlink="http://www.w3.org/1999/xlink">
    <!-- Generator: Sketch 50 (54983) - http://www.bohemiancoding.com/sketch -->
    <title>icon/device/dvr_24px_sharp</title>
    <desc>Created with Sketch.</desc>
    <defs>
        <path d="M23,3 L1,3 L1,19 L8,19 L8,21 L16,21 L16,19 L23,19 L23,3 Z M21,17 L3,17 L3,5 L21,5 L21,17 Z M19,8 L8,8 L8,10 L19,10 L19,8 Z M19,12 L8,12 L8,14 L19,14 L19,12 Z M7,8 L5,8 L5,10 L7,10 L7,8 Z M7,12 L5,12 L5,14 L7,14 L7,12 Z" id="path-1"></path>
    </defs>
    <g id="icon/device/dvr_24px" stroke="none" stroke-width="1" fill="none" fill-rule="evenodd">
        <mask id="mask-2" fill="white">
            <use xlink:href="#path-1"></use>
        </mask>
        <g fill-rule="nonzero"></g>
        <g id="✱-/-Color-/-Icons-/-Black-/-Inactive" mask="url(#mask-2)" fill="#000000" fill-opacity="0.54">
            <rect id="Rectangle" x="0" y="0" width="24" height="24"></rect>
        </g>
    </g>
</svg>