<?xml version="1.0" encoding="UTF-8"?>
<svg width="24px" height="24px" viewBox="0 0 24 24" version="1.1" xmlns="http://www.w3.org/2000/svg" xmlns:xlink="http://www.w3.org/1999/xlink">
    <!-- Generator: Sketch 50 (54983) - http://www.bohemiancoding.com/sketch -->
    <title>icon/device/screen_lock_landscape_24px_sharp</title>
    <desc>Created with Sketch.</desc>
    <defs>
        <path d="M23,5 L1,5 L1,19 L23,19 L23,5 Z M19,17 L5,17 L5,7 L19,7 L19,17 Z M9,16 L15,16 L15,11 L14,11 L14,10.1 C14,9.1 13.31,8.18 12.32,8.02 C11.07,7.83 10,8.79 10,10 L10,11 L9,11 L9,16 Z M10.8,10 C10.8,9.34 11.34,8.8 12,8.8 C12.66,8.8 13.2,9.34 13.2,10 L13.2,11 L10.8,11 L10.8,10 Z" id="path-1"></path>
    </defs>
    <g id="icon/device/screen_lock_landscape_24px" stroke="none" stroke-width="1" fill="none" fill-rule="evenodd">
        <mask id="mask-2" fill="white">
            <use xlink:href="#path-1"></use>
        </mask>
        <g fill-rule="nonzero"></g>
        <g id="✱-/-Color-/-Icons-/-Black-/-Inactive" mask="url(#mask-2)" fill="#000000" fill-opacity="0.54">
            <rect id="Rectangle" x="0" y="0" width="24" height="24"></rect>
        </g>
    </g>
</svg>