<?xml version="1.0" encoding="UTF-8"?>
<svg width="24px" height="24px" viewBox="0 0 24 24" version="1.1" xmlns="http://www.w3.org/2000/svg" xmlns:xlink="http://www.w3.org/1999/xlink">
    <!-- Generator: Sketch 50 (54983) - http://www.bohemiancoding.com/sketch -->
    <title>icon/device/wifi_lock_24px_sharp</title>
    <desc>Created with Sketch.</desc>
    <defs>
        <path d="M23,14.64 C23,13.33 22.06,12.14 20.76,12.01 C19.26,11.86 18,13.03 18,14.5 L18,16 L17,16 L17,22 L24,22 L24,16 L23,16 L23,14.64 Z M22,16 L19,16 L19,14.5 C19,13.67 19.67,13 20.5,13 C21.33,13 22,13.67 22,14.5 L22,16 Z M21.31,9.58 L24,6 C20.66,3.49 16.5,2 12,2 C7.5,2 3.34,3.49 0,6 L12,22 L15.5,17.33 L15.5,14.5 C15.5,11.74 17.74,9.5 20.5,9.5 C20.78,9.5 21.05,9.54 21.31,9.58 Z" id="path-1"></path>
    </defs>
    <g id="icon/device/wifi_lock_24px" stroke="none" stroke-width="1" fill="none" fill-rule="evenodd">
        <mask id="mask-2" fill="white">
            <use xlink:href="#path-1"></use>
        </mask>
        <g fill-rule="nonzero"></g>
        <g id="✱-/-Color-/-Icons-/-Black-/-Inactive" mask="url(#mask-2)" fill="#000000" fill-opacity="0.54">
            <rect id="Rectangle" x="0" y="0" width="24" height="24"></rect>
        </g>
    </g>
</svg>