<?xml version="1.0" encoding="UTF-8"?>
<svg width="24px" height="24px" viewBox="0 0 24 24" version="1.1" xmlns="http://www.w3.org/2000/svg" xmlns:xlink="http://www.w3.org/1999/xlink">
    <!-- Generator: Sketch 50 (54983) - http://www.bohemiancoding.com/sketch -->
    <title>icon/hardware/headset_mic_24px</title>
    <desc>Created with Sketch.</desc>
    <defs>
        <path d="M12,1 C7.03,1 3,5.03 3,10 L3,17 C3,18.66 4.34,20 6,20 L9,20 L9,12 L5,12 L5,10 C5,6.13 8.13,3 12,3 C15.87,3 19,6.13 19,10 L19,12 L15,12 L15,20 L19,20 L19,21 L12,21 L12,23 L18,23 C19.66,23 21,21.66 21,20 L21,10 C21,5.03 16.97,1 12,1 Z" id="path-1"></path>
    </defs>
    <g id="icon/hardware/headset_mic_24px" stroke="none" stroke-width="1" fill="none" fill-rule="evenodd">
        <mask id="mask-2" fill="white">
            <use xlink:href="#path-1"></use>
        </mask>
        <g fill-rule="nonzero"></g>
        <g id="✱-/-Color-/-Icons-/-Black-/-Inactive" mask="url(#mask-2)" fill="#000000" fill-opacity="0.54">
            <rect id="Rectangle" x="0" y="0" width="24" height="24"></rect>
        </g>
    </g>
</svg>