<?xml version="1.0" encoding="UTF-8"?>
<svg width="24px" height="24px" viewBox="0 0 24 24" version="1.1" xmlns="http://www.w3.org/2000/svg" xmlns:xlink="http://www.w3.org/1999/xlink">
    <!-- Generator: Sketch 50 (54983) - http://www.bohemiancoding.com/sketch -->
    <title>icon/hardware/laptop_mac_24px</title>
    <desc>Created with Sketch.</desc>
    <defs>
        <path d="M20,18 C21.1,18 21.99,17.1 21.99,16 L22,5 C22,3.9 21.1,3 20,3 L4,3 C2.9,3 2,3.9 2,5 L2,16 C2,17.1 2.9,18 4,18 L0,18 C0,19.1 0.9,20 2,20 L22,20 C23.1,20 24,19.1 24,18 L20,18 Z M4,5 L20,5 L20,16 L4,16 L4,5 Z M12,19 C11.45,19 11,18.55 11,18 C11,17.45 11.45,17 12,17 C12.55,17 13,17.45 13,18 C13,18.55 12.55,19 12,19 Z" id="path-1"></path>
    </defs>
    <g id="icon/hardware/laptop_mac_24px" stroke="none" stroke-width="1" fill="none" fill-rule="evenodd">
        <mask id="mask-2" fill="white">
            <use xlink:href="#path-1"></use>
        </mask>
        <g fill-rule="nonzero"></g>
        <g id="✱-/-Color-/-Icons-/-Black-/-Inactive" mask="url(#mask-2)" fill="#000000" fill-opacity="0.54">
            <rect id="Rectangle" x="0" y="0" width="24" height="24"></rect>
        </g>
    </g>
</svg>