<?xml version="1.0" encoding="UTF-8"?>
<svg width="24px" height="24px" viewBox="0 0 24 24" version="1.1" xmlns="http://www.w3.org/2000/svg" xmlns:xlink="http://www.w3.org/1999/xlink">
    <!-- Generator: Sketch 50 (54983) - http://www.bohemiancoding.com/sketch -->
    <title>icon/hardware/laptop_windows_24px</title>
    <desc>Created with Sketch.</desc>
    <defs>
        <path d="M20,18 L20,17 C21.1,17 21.99,16.1 21.99,15 L22,5 C22,3.9 21.1,3 20,3 L4,3 C2.9,3 2,3.9 2,5 L2,15 C2,16.1 2.9,17 4,17 L4,18 L0,18 L0,20 L24,20 L24,18 L20,18 Z M4,5 L20,5 L20,15 L4,15 L4,5 Z" id="path-1"></path>
    </defs>
    <g id="icon/hardware/laptop_windows_24px" stroke="none" stroke-width="1" fill="none" fill-rule="evenodd">
        <mask id="mask-2" fill="white">
            <use xlink:href="#path-1"></use>
        </mask>
        <g fill-rule="nonzero"></g>
        <g id="✱-/-Color-/-Icons-/-Black-/-Inactive" mask="url(#mask-2)" fill="#000000" fill-opacity="0.54">
            <rect id="Rectangle" x="0" y="0" width="24" height="24"></rect>
        </g>
    </g>
</svg>