<?xml version="1.0" encoding="UTF-8"?>
<svg width="24px" height="24px" viewBox="0 0 24 24" version="1.1" xmlns="http://www.w3.org/2000/svg" xmlns:xlink="http://www.w3.org/1999/xlink">
    <!-- Generator: Sketch 50 (54983) - http://www.bohemiancoding.com/sketch -->
    <title>icon/hardware/phonelink_24px</title>
    <desc>Created with Sketch.</desc>
    <defs>
        <path d="M4,6 L22,6 L22,4 L4,4 C2.9,4 2,4.9 2,6 L2,17 L0,17 L0,20 L14,20 L14,17 L4,17 L4,6 Z M23,8 L17,8 C16.45,8 16,8.45 16,9 L16,19 C16,19.55 16.45,20 17,20 L23,20 C23.55,20 24,19.55 24,19 L24,9 C24,8.45 23.55,8 23,8 Z M22,17 L18,17 L18,10 L22,10 L22,17 Z" id="path-1"></path>
    </defs>
    <g id="icon/hardware/phonelink_24px" stroke="none" stroke-width="1" fill="none" fill-rule="evenodd">
        <mask id="mask-2" fill="white">
            <use xlink:href="#path-1"></use>
        </mask>
        <g fill-rule="nonzero"></g>
        <g id="✱-/-Color-/-Icons-/-Black-/-Inactive" mask="url(#mask-2)" fill="#000000" fill-opacity="0.54">
            <rect id="Rectangle" x="0" y="0" width="24" height="24"></rect>
        </g>
    </g>
</svg>