<?xml version="1.0" encoding="UTF-8"?>
<svg width="24px" height="24px" viewBox="0 0 24 24" version="1.1" xmlns="http://www.w3.org/2000/svg" xmlns:xlink="http://www.w3.org/1999/xlink">
    <!-- Generator: Sketch 50 (54983) - http://www.bohemiancoding.com/sketch -->
    <title>icon/hardware/phone_iphone_24px</title>
    <desc>Created with Sketch.</desc>
    <defs>
        <path d="M15.5,1 L7.5,1 C6.12,1 5,2.12 5,3.5 L5,20.5 C5,21.88 6.12,23 7.5,23 L15.5,23 C16.88,23 18,21.88 18,20.5 L18,3.5 C18,2.12 16.88,1 15.5,1 Z M11.5,22 C10.67,22 10,21.33 10,20.5 C10,19.67 10.67,19 11.5,19 C12.33,19 13,19.67 13,20.5 C13,21.33 12.33,22 11.5,22 Z M16,18 L7,18 L7,4 L16,4 L16,18 Z" id="path-1"></path>
    </defs>
    <g id="icon/hardware/phone_iphone_24px" stroke="none" stroke-width="1" fill="none" fill-rule="evenodd">
        <mask id="mask-2" fill="white">
            <use xlink:href="#path-1"></use>
        </mask>
        <g fill-rule="nonzero"></g>
        <g id="✱-/-Color-/-Icons-/-Black-/-Inactive" mask="url(#mask-2)" fill="#000000" fill-opacity="0.54">
            <rect id="Rectangle" x="0" y="0" width="24" height="24"></rect>
        </g>
    </g>
</svg>