<?xml version="1.0" encoding="UTF-8"?>
<svg width="24px" height="24px" viewBox="0 0 24 24" version="1.1" xmlns="http://www.w3.org/2000/svg" xmlns:xlink="http://www.w3.org/1999/xlink">
    <!-- Generator: Sketch 50 (54983) - http://www.bohemiancoding.com/sketch -->
    <title>icon/hardware/phone_android_24px</title>
    <desc>Created with Sketch.</desc>
    <defs>
        <path d="M16,1 L8,1 C6.34,1 5,2.34 5,4 L5,20 C5,21.66 6.34,23 8,23 L16,23 C17.66,23 19,21.66 19,20 L19,4 C19,2.34 17.66,1 16,1 Z M14,21 L10,21 L10,20 L14,20 L14,21 Z M17,18 L7,18 L7,4 L17,4 L17,18 Z" id="path-1"></path>
    </defs>
    <g id="icon/hardware/phone_android_24px" stroke="none" stroke-width="1" fill="none" fill-rule="evenodd">
        <mask id="mask-2" fill="white">
            <use xlink:href="#path-1"></use>
        </mask>
        <g fill-rule="nonzero"></g>
        <g id="✱-/-Color-/-Icons-/-Black-/-Inactive" mask="url(#mask-2)" fill="#000000" fill-opacity="0.54">
            <rect id="Rectangle" x="0" y="0" width="24" height="24"></rect>
        </g>
    </g>
</svg>