<?xml version="1.0" encoding="UTF-8"?>
<svg width="24px" height="24px" viewBox="0 0 24 24" version="1.1" xmlns="http://www.w3.org/2000/svg" xmlns:xlink="http://www.w3.org/1999/xlink">
    <!-- Generator: Sketch 50 (54983) - http://www.bohemiancoding.com/sketch -->
    <title>icon/hardware/scanner_24px</title>
    <desc>Created with Sketch.</desc>
    <defs>
        <path d="M19.8,10.7 L4.2,5 L3.5,6.9 L17.6,12 L5,12 C3.9,12 3,12.9 3,14 L3,18 C3,19.1 3.9,20 5,20 L19,20 C20.1,20 21,19.1 21,18 L21,12.5 C21,11.7 20.5,10.9 19.8,10.7 Z M7,17 L5,17 L5,15 L7,15 L7,17 Z M19,17 L9,17 L9,15 L19,15 L19,17 Z" id="path-1"></path>
    </defs>
    <g id="icon/hardware/scanner_24px" stroke="none" stroke-width="1" fill="none" fill-rule="evenodd">
        <mask id="mask-2" fill="white">
            <use xlink:href="#path-1"></use>
        </mask>
        <g fill-rule="nonzero"></g>
        <g id="✱-/-Color-/-Icons-/-Black-/-Inactive" mask="url(#mask-2)" fill="#000000" fill-opacity="0.54">
            <rect id="Rectangle" x="0" y="0" width="24" height="24"></rect>
        </g>
    </g>
</svg>