<?xml version="1.0" encoding="UTF-8"?>
<svg width="24px" height="24px" viewBox="0 0 24 24" version="1.1" xmlns="http://www.w3.org/2000/svg" xmlns:xlink="http://www.w3.org/1999/xlink">
    <!-- Generator: Sketch 50 (54983) - http://www.bohemiancoding.com/sketch -->
    <title>icon/hardware/speaker_group_24px</title>
    <desc>Created with Sketch.</desc>
    <defs>
        <path d="M18.2,1 L9.8,1 C8.81,1 8,1.81 8,2.8 L8,17.2 C8,18.19 8.81,18.99 9.8,18.99 L18.2,19 C19.19,19 20,18.19 20,17.2 L20,2.8 C20,1.81 19.19,1 18.2,1 Z M14,3 C15.1,3 16,3.89 16,5 C16,6.11 15.1,7 14,7 C12.9,7 12,6.11 12,5 C12,3.89 12.9,3 14,3 Z M14,16.5 C11.79,16.5 10,14.71 10,12.5 C10,10.29 11.79,8.5 14,8.5 C16.21,8.5 18,10.29 18,12.5 C18,14.71 16.21,16.5 14,16.5 Z M14,15 C15.3807119,15 16.5,13.8807119 16.5,12.5 C16.5,11.1192881 15.3807119,10 14,10 C12.6192881,10 11.5,11.1192881 11.5,12.5 C11.5,13.8807119 12.6192881,15 14,15 Z M6,5 L4,5 L4,21 C4,22.1 4.89,23 6,23 L16,23 L16,21 L6,21 L6,5 Z" id="path-1"></path>
    </defs>
    <g id="icon/hardware/speaker_group_24px" stroke="none" stroke-width="1" fill="none" fill-rule="evenodd">
        <mask id="mask-2" fill="white">
            <use xlink:href="#path-1"></use>
        </mask>
        <g fill-rule="nonzero"></g>
        <g id="✱-/-Color-/-Icons-/-Black-/-Inactive" mask="url(#mask-2)" fill="#000000" fill-opacity="0.54">
            <rect id="Rectangle" x="0" y="0" width="24" height="24"></rect>
        </g>
    </g>
</svg>