<?xml version="1.0" encoding="UTF-8"?>
<svg width="24px" height="24px" viewBox="0 0 24 24" version="1.1" xmlns="http://www.w3.org/2000/svg" xmlns:xlink="http://www.w3.org/1999/xlink">
    <!-- Generator: Sketch 50 (54983) - http://www.bohemiancoding.com/sketch -->
    <title>icon/hardware/tablet_android_24px</title>
    <desc>Created with Sketch.</desc>
    <defs>
        <path d="M18,0 L6,0 C4.34,0 3,1.34 3,3 L3,21 C3,22.66 4.34,24 6,24 L18,24 C19.66,24 21,22.66 21,21 L21,3 C21,1.34 19.66,0 18,0 Z M14,22 L10,22 L10,21 L14,21 L14,22 Z M19.25,19 L4.75,19 L4.75,3 L19.25,3 L19.25,19 Z" id="path-1"></path>
    </defs>
    <g id="icon/hardware/tablet_android_24px" stroke="none" stroke-width="1" fill="none" fill-rule="evenodd">
        <mask id="mask-2" fill="white">
            <use xlink:href="#path-1"></use>
        </mask>
        <g fill-rule="nonzero"></g>
        <g id="✱-/-Color-/-Icons-/-Black-/-Inactive" mask="url(#mask-2)" fill="#000000" fill-opacity="0.54">
            <rect id="Rectangle" x="0" y="0" width="24" height="24"></rect>
        </g>
    </g>
</svg>