<?xml version="1.0" encoding="UTF-8"?>
<svg width="24px" height="24px" viewBox="0 0 24 24" version="1.1" xmlns="http://www.w3.org/2000/svg" xmlns:xlink="http://www.w3.org/1999/xlink">
    <!-- Generator: Sketch 50 (54983) - http://www.bohemiancoding.com/sketch -->
    <title>icon/navigation/fullscreen_exit_24px_two_tone</title>
    <desc>Created with Sketch.</desc>
    <defs>
        <path d="M0,11 L3,11 L3,14 L5,14 L5,9 L0,9 L0,11 Z M3,3 L0,3 L0,5 L5,5 L5,0 L3,0 L3,3 Z M9,14 L11,14 L11,11 L14,11 L14,9 L9,9 L9,14 Z M11,3 L11,0 L9,0 L9,5 L14,5 L14,3 L11,3 Z" id="path-1"></path>
    </defs>
    <g id="icon/navigation/fullscreen_exit_24px" stroke="none" stroke-width="1" fill="none" fill-rule="evenodd">
        <g id="↳-Dark-Color" transform="translate(5.000000, 5.000000)">
            <mask id="mask-2" fill="white">
                <use xlink:href="#path-1"></use>
            </mask>
            <g id="Mask" fill-rule="nonzero"></g>
            <g id="✱-/-Color-/-Icons-/-Black-/-Inactive" mask="url(#mask-2)" fill="#000000" fill-opacity="0.54">
                <rect id="Rectangle" x="0" y="0" width="101" height="101"></rect>
            </g>
        </g>
    </g>
</svg>