<?xml version="1.0" encoding="UTF-8"?>
<svg width="24px" height="24px" viewBox="0 0 24 24" version="1.1" xmlns="http://www.w3.org/2000/svg" xmlns:xlink="http://www.w3.org/1999/xlink">
    <!-- Generator: Sketch 50 (54983) - http://www.bohemiancoding.com/sketch -->
    <title>icon/navigation/fullscreen_24px_two_tone</title>
    <desc>Created with Sketch.</desc>
    <defs>
        <path d="M2,9 L0,9 L0,14 L5,14 L5,12 L2,12 L2,9 Z M0,5 L2,5 L2,2 L5,2 L5,0 L0,0 L0,5 Z M12,12 L9,12 L9,14 L14,14 L14,9 L12,9 L12,12 Z M9,0 L9,2 L12,2 L12,5 L14,5 L14,0 L9,0 Z" id="path-1"></path>
    </defs>
    <g id="icon/navigation/fullscreen_24px" stroke="none" stroke-width="1" fill="none" fill-rule="evenodd">
        <g id="↳-Dark-Color" transform="translate(5.000000, 5.000000)">
            <mask id="mask-2" fill="white">
                <use xlink:href="#path-1"></use>
            </mask>
            <g id="Mask" fill-rule="nonzero"></g>
            <g id="✱-/-Color-/-Icons-/-Black-/-Inactive" mask="url(#mask-2)" fill="#000000" fill-opacity="0.54">
                <rect id="Rectangle" x="0" y="0" width="101" height="101"></rect>
            </g>
        </g>
    </g>
</svg>