<?xml version="1.0" encoding="UTF-8"?>
<svg width="24px" height="24px" viewBox="0 0 24 24" version="1.1" xmlns="http://www.w3.org/2000/svg" xmlns:xlink="http://www.w3.org/1999/xlink">
    <!-- Generator: Sketch 50 (54983) - http://www.bohemiancoding.com/sketch -->
    <title>icon/navigation/more_vert_24px_two_tone</title>
    <desc>Created with Sketch.</desc>
    <defs>
        <path d="M2,4 C3.1,4 4,3.1 4,2 C4,0.9 3.1,0 2,0 C0.9,0 0,0.9 0,2 C0,3.1 0.9,4 2,4 Z M2,6 C0.9,6 0,6.9 0,8 C0,9.1 0.9,10 2,10 C3.1,10 4,9.1 4,8 C4,6.9 3.1,6 2,6 Z M2,12 C0.9,12 0,12.9 0,14 C0,15.1 0.9,16 2,16 C3.1,16 4,15.1 4,14 C4,12.9 3.1,12 2,12 Z" id="path-1"></path>
    </defs>
    <g id="icon/navigation/more_vert_24px" stroke="none" stroke-width="1" fill="none" fill-rule="evenodd">
        <g id="↳-Dark-Color" transform="translate(10.000000, 4.000000)">
            <mask id="mask-2" fill="white">
                <use xlink:href="#path-1"></use>
            </mask>
            <g id="Mask" fill-rule="nonzero"></g>
            <g id="✱-/-Color-/-Icons-/-Black-/-Inactive" mask="url(#mask-2)" fill="#000000" fill-opacity="0.54">
                <rect id="Rectangle" x="0" y="0" width="101" height="101"></rect>
            </g>
        </g>
    </g>
</svg>