<?xml version="1.0" encoding="UTF-8"?>
<svg width="24px" height="24px" viewBox="0 0 24 24" version="1.1" xmlns="http://www.w3.org/2000/svg" xmlns:xlink="http://www.w3.org/1999/xlink">
    <!-- Generator: Sketch 50 (54983) - http://www.bohemiancoding.com/sketch -->
    <title>icon/communication/alternate_email_24px_rounded</title>
    <desc>Created with Sketch.</desc>
    <defs>
        <path d="M12.7178368,2.0278368 C6.6278368,1.5978368 1.5978368,6.6278368 2.0278368,12.7178368 C2.3878368,18.0078368 7.0078368,21.9978368 12.3078368,21.9978368 L15.9978368,21.9978368 C16.5478368,21.9978368 16.9978368,21.5478368 16.9978368,20.9978368 C16.9978368,20.4478368 16.5478368,19.9978368 15.9978368,19.9978368 L12.3278368,19.9978368 C8.5978368,19.9978368 5.1778368,17.5778368 4.2478368,13.9678368 C2.7578368,8.1678368 8.1578368,2.7578368 13.9578368,4.2578368 C17.5778368,5.1778368 19.9978368,8.5978368 19.9978368,12.3278368 L19.9978368,13.4278368 C19.9978368,14.2178368 19.2878368,14.9978368 18.4978368,14.9978368 C17.7078368,14.9978368 16.9978368,14.2178368 16.9978368,13.4278368 L16.9978368,12.1778368 C16.9978368,9.6678368 15.2178368,7.4078368 12.7378368,7.0578368 C9.3378368,6.5678368 6.4678368,9.5078368 7.0778368,12.9278368 C7.4178368,14.8378368 8.9078368,16.4178368 10.7978368,16.8678368 C12.6378368,17.2978368 14.3878368,16.7078368 15.5378368,15.5378368 C16.4278368,16.7578368 18.2078368,17.3978368 19.8378368,16.7478368 C21.1778368,16.2178368 21.9978368,14.8478368 21.9978368,13.4078368 L21.9978368,12.3178368 C21.9978368,7.0078368 18.0078368,2.3878368 12.7178368,2.0278368 Z M11.9978368,14.9978368 C10.3378368,14.9978368 8.9978368,13.6578368 8.9978368,11.9978368 C8.9978368,10.3378368 10.3378368,8.9978368 11.9978368,8.9978368 C13.6578368,8.9978368 14.9978368,10.3378368 14.9978368,11.9978368 C14.9978368,13.6578368 13.6578368,14.9978368 11.9978368,14.9978368 Z" id="path-1"></path>
    </defs>
    <g id="icon/communication/alternate_email_24px" stroke="none" stroke-width="1" fill="none" fill-rule="evenodd">
        <mask id="mask-2" fill="white">
            <use xlink:href="#path-1"></use>
        </mask>
        <g fill-rule="nonzero"></g>
        <g id="✱-/-Color-/-Icons-/-Black-/-Inactive" mask="url(#mask-2)" fill="#000000" fill-opacity="0.54">
            <rect id="Rectangle" x="0" y="0" width="24" height="24"></rect>
        </g>
    </g>
</svg>