<?xml version="1.0" encoding="UTF-8"?>
<svg width="24px" height="24px" viewBox="0 0 24 24" version="1.1" xmlns="http://www.w3.org/2000/svg" xmlns:xlink="http://www.w3.org/1999/xlink">
    <!-- Generator: Sketch 50 (54983) - http://www.bohemiancoding.com/sketch -->
    <title>icon/communication/cancel_presentation_24px_rounded</title>
    <desc>Created with Sketch.</desc>
    <defs>
        <path d="M21,3 L3,3 C1.9,3 1,3.9 1,5 L1,19 C1,20.1 1.9,21 3,21 L21,21 C22.1,21 23,20.1 23,19 L23,5 C23,3.9 22.1,3 21,3 Z M21,18 C21,18.55 20.55,19 20,19 L4,19 C3.45,19 3,18.55 3,18 L3,6 C3,5.45 3.45,5 4,5 L20,5 C20.55,5 21,5.45 21,6 L21,18 Z M15.29,8.7 C15.1031685,8.51274733 14.8495176,8.40751439 14.585,8.40751439 C14.3204824,8.40751439 14.0668315,8.51274733 13.88,8.7 L12,10.59 L10.11,8.7 C9.92316847,8.51274733 9.66951764,8.40751439 9.405,8.40751439 C9.14048236,8.40751439 8.88683153,8.51274733 8.7,8.7 C8.31,9.09 8.31,9.72 8.7,10.11 L10.59,12 L8.7,13.89 C8.31,14.28 8.31,14.91 8.7,15.3 C9.09,15.69 9.72,15.69 10.11,15.3 L12,13.41 L13.89,15.3 C14.28,15.69 14.91,15.69 15.3,15.3 C15.69,14.91 15.69,14.28 15.3,13.89 L13.41,12 L15.3,10.11 C15.68,9.73 15.68,9.09 15.29,8.7 Z" id="path-1"></path>
    </defs>
    <g id="icon/communication/cancel_presentation_24px" stroke="none" stroke-width="1" fill="none" fill-rule="evenodd">
        <mask id="mask-2" fill="white">
            <use xlink:href="#path-1"></use>
        </mask>
        <g fill-rule="nonzero"></g>
        <g id="✱-/-Color-/-Icons-/-Black-/-Inactive" mask="url(#mask-2)" fill="#000000" fill-opacity="0.54">
            <rect id="Rectangle" x="0" y="0" width="24" height="24"></rect>
        </g>
    </g>
</svg>