<?xml version="1.0" encoding="UTF-8"?>
<svg width="24px" height="24px" viewBox="0 0 24 24" version="1.1" xmlns="http://www.w3.org/2000/svg" xmlns:xlink="http://www.w3.org/1999/xlink">
    <!-- Generator: Sketch 50 (54983) - http://www.bohemiancoding.com/sketch -->
    <title>icon/communication/cell_wifi_24px_rounded</title>
    <desc>Created with Sketch.</desc>
    <defs>
        <path d="M7.23957219,21.5012995 L18.8295722,21.5012995 C19.9295722,21.5012995 20.8295722,20.6012995 20.8295722,19.5012995 L20.8295722,7.8912995 C20.8295722,7.0012995 19.7495722,6.5512995 19.1195722,7.1812995 L6.52957219,19.7912995 C5.89957219,20.4212995 6.34957219,21.5012995 7.23957219,21.5012995 Z M6.53957219,19.7912995 C5.90957219,20.4212995 6.34957219,21.5012995 7.23957219,21.5012995 L16.8295722,21.5012995 L16.8295722,9.4812995 L6.53957219,19.7912995 Z M7.89957219,10.5712995 L9.82957219,12.5012995 L11.7595722,10.5712995 C10.6895722,9.5112995 8.96957219,9.5112995 7.89957219,10.5712995 Z M7.19957219,8.8012995 C8.76957219,7.6812995 10.8995722,7.6812995 12.4695722,8.8012995 C12.8295722,9.0612995 13.3195722,9.0212995 13.6295722,8.7012995 C14.0195722,8.3112995 13.9795722,7.6412995 13.5295722,7.3212995 C11.3295722,5.7512995 8.33957219,5.7512995 6.12957219,7.3212995 C5.67957219,7.6412995 5.62957219,8.3112995 6.02957219,8.7012995 C6.34957219,9.0212995 6.83957219,9.0612995 7.19957219,8.8012995 Z M15.0395722,6.1912995 C15.3795722,6.4712995 15.8695722,6.4712995 16.1795722,6.1612995 L16.2995722,6.0412995 C16.6495722,5.6912995 16.6095722,5.1212995 16.2195722,4.8012995 C12.5495722,1.7512995 7.19957219,1.7312995 3.51957219,4.7412995 C3.08957219,5.0912995 3.04957219,5.7312995 3.43957219,6.1112995 C3.75957219,6.4412995 4.27957219,6.4812995 4.62957219,6.1912995 C7.63957219,3.7112995 12.0295722,3.7112995 15.0395722,6.1912995 Z" id="path-1"></path>
    </defs>
    <g id="icon/communication/cell_wifi_24px" stroke="none" stroke-width="1" fill="none" fill-rule="evenodd">
        <mask id="mask-2" fill="white">
            <use xlink:href="#path-1"></use>
        </mask>
        <g fill-rule="nonzero"></g>
        <g id="✱-/-Color-/-Icons-/-Black-/-Inactive" mask="url(#mask-2)" fill="#000000" fill-opacity="0.54">
            <rect id="Rectangle" x="0" y="0" width="24" height="24"></rect>
        </g>
    </g>
</svg>