<?xml version="1.0" encoding="UTF-8"?>
<svg width="24px" height="24px" viewBox="0 0 24 24" version="1.1" xmlns="http://www.w3.org/2000/svg" xmlns:xlink="http://www.w3.org/1999/xlink">
    <!-- Generator: Sketch 50 (54983) - http://www.bohemiancoding.com/sketch -->
    <title>icon/communication/chat_24px_rounded</title>
    <desc>Created with Sketch.</desc>
    <defs>
        <path d="M20,2 L4,2 C2.9,2 2.01,2.9 2.01,4 L2,22 L6,18 L20,18 C21.1,18 22,17.1 22,16 L22,4 C22,2.9 21.1,2 20,2 Z M7,9 L17,9 C17.55,9 18,9.45 18,10 C18,10.55 17.55,11 17,11 L7,11 C6.45,11 6,10.55 6,10 C6,9.45 6.45,9 7,9 Z M13,14 L7,14 C6.45,14 6,13.55 6,13 C6,12.45 6.45,12 7,12 L13,12 C13.55,12 14,12.45 14,13 C14,13.55 13.55,14 13,14 Z M17,8 L7,8 C6.45,8 6,7.55 6,7 C6,6.45 6.45,6 7,6 L17,6 C17.55,6 18,6.45 18,7 C18,7.55 17.55,8 17,8 Z" id="path-1"></path>
    </defs>
    <g id="icon/communication/chat_24px" stroke="none" stroke-width="1" fill="none" fill-rule="evenodd">
        <mask id="mask-2" fill="white">
            <use xlink:href="#path-1"></use>
        </mask>
        <g fill-rule="nonzero"></g>
        <g id="✱-/-Color-/-Icons-/-Black-/-Inactive" mask="url(#mask-2)" fill="#000000" fill-opacity="0.54">
            <rect id="Rectangle" x="0" y="0" width="24" height="24"></rect>
        </g>
    </g>
</svg>