<?xml version="1.0" encoding="UTF-8"?>
<svg width="24px" height="24px" viewBox="0 0 24 24" version="1.1" xmlns="http://www.w3.org/2000/svg" xmlns:xlink="http://www.w3.org/1999/xlink">
    <!-- Generator: Sketch 50 (54983) - http://www.bohemiancoding.com/sketch -->
    <title>icon/communication/contact_phone_24px_rounded</title>
    <desc>Created with Sketch.</desc>
    <defs>
        <path d="M22,3 L2,3 C0.9,3 0,3.9 0,5 L0,19 C0,20.1 0.9,21 2,21 L22,21 C23.1,21 23.99,20.1 23.99,19 L24,5 C24,3.9 23.1,3 22,3 Z M8,6 C9.66,6 11,7.34 11,9 C11,10.66 9.66,12 8,12 C6.34,12 5,10.66 5,9 C5,7.34 6.34,6 8,6 Z M14,18 L2,18 L2,17 C2,15 6,13.9 8,13.9 C10,13.9 14,15 14,17 L14,18 Z M17.85,14 L19.24,14 C19.4,14 19.54,14.07 19.64,14.2 L20.74,15.65 C20.89,15.85 20.87,16.13 20.69,16.3 L19.33,17.66 C19.15,17.84 18.85,17.86 18.66,17.7 C17.5156242,16.7273143 16.6870381,15.4356948 16.28,13.99 C16.1,13.36 16,12.69 16,12 C16,11.31 16.1,10.64 16.28,10 C16.69,8.53 17.53,7.25 18.66,6.29 C18.86,6.12 19.15,6.15 19.33,6.33 L20.69,7.69 C20.87,7.87 20.89,8.15 20.74,8.34 L19.64,9.79 C19.55,9.92 19.4,9.99 19.24,9.99 L17.85,9.99 C17.63,10.62 17.5,11.29 17.5,11.99 C17.5,12.69 17.63,13.37 17.85,14 Z" id="path-1"></path>
    </defs>
    <g id="icon/communication/contact_phone_24px" stroke="none" stroke-width="1" fill="none" fill-rule="evenodd">
        <mask id="mask-2" fill="white">
            <use xlink:href="#path-1"></use>
        </mask>
        <g fill-rule="nonzero"></g>
        <g id="✱-/-Color-/-Icons-/-Black-/-Inactive" mask="url(#mask-2)" fill="#000000" fill-opacity="0.54">
            <rect id="Rectangle" x="0" y="0" width="24" height="24"></rect>
        </g>
    </g>
</svg>