<?xml version="1.0" encoding="UTF-8"?>
<svg width="24px" height="24px" viewBox="0 0 24 24" version="1.1" xmlns="http://www.w3.org/2000/svg" xmlns:xlink="http://www.w3.org/1999/xlink">
    <!-- Generator: Sketch 50 (54983) - http://www.bohemiancoding.com/sketch -->
    <title>icon/communication/contact_mail_24px_rounded</title>
    <desc>Created with Sketch.</desc>
    <defs>
        <path d="M21,8 L21,7 L18,9 L15,7 L15,8 L17.72,9.82 C17.89,9.93 18.11,9.93 18.27,9.82 L21,8 Z M22,3 L2,3 C0.9,3 0,3.9 0,5 L0,19 C0,20.1 0.9,21 2,21 L22,21 C23.1,21 23.99,20.1 23.99,19 L24,5 C24,3.9 23.1,3 22,3 Z M8,6 C9.66,6 11,7.34 11,9 C11,10.66 9.66,12 8,12 C6.34,12 5,10.66 5,9 C5,7.34 6.34,6 8,6 Z M14,18 L2,18 L2,17 C2,15 6,13.9 8,13.9 C10,13.9 14,15 14,17 L14,18 Z M21.5,12 L14.5,12 C14.22,12 14,11.78 14,11.5 L14,6.5 C14,6.22 14.22,6 14.5,6 L21.5,6 C21.78,6 22,6.22 22,6.5 L22,11.5 C22,11.78 21.78,12 21.5,12 Z" id="path-1"></path>
    </defs>
    <g id="icon/communication/contact_mail_24px" stroke="none" stroke-width="1" fill="none" fill-rule="evenodd">
        <mask id="mask-2" fill="white">
            <use xlink:href="#path-1"></use>
        </mask>
        <g fill-rule="nonzero"></g>
        <g id="✱-/-Color-/-Icons-/-Black-/-Inactive" mask="url(#mask-2)" fill="#000000" fill-opacity="0.54">
            <rect id="Rectangle" x="0" y="0" width="24" height="24"></rect>
        </g>
    </g>
</svg>