<?xml version="1.0" encoding="UTF-8"?>
<svg width="24px" height="24px" viewBox="0 0 24 24" version="1.1" xmlns="http://www.w3.org/2000/svg" xmlns:xlink="http://www.w3.org/1999/xlink">
    <!-- Generator: Sketch 50 (54983) - http://www.bohemiancoding.com/sketch -->
    <title>icon/communication/desktop_access_disabled_24px_rounded</title>
    <desc>Created with Sketch.</desc>
    <defs>
        <path d="M0.80625,1.3549928 C0.41625,1.7449928 0.41625,2.3749928 0.80625,2.7649928 L1.49625,3.4449928 L1.49625,15.3549928 C1.49625,16.4549928 2.39625,17.3549928 3.49625,17.3549928 L10.49625,17.3549928 L10.49625,19.3549928 L9.49625,19.3549928 C8.94625,19.3549928 8.49625,19.8049928 8.49625,20.3549928 C8.49625,20.9049928 8.94625,21.3549928 9.49625,21.3549928 L15.49625,21.3549928 C16.04625,21.3549928 16.49625,20.9049928 16.49625,20.3549928 C16.49625,19.8049928 16.04625,19.3549928 15.49625,19.3549928 L14.49625,19.3549928 L14.49625,17.3549928 L15.39625,17.3549928 L20.68625,22.6449928 C21.07625,23.0349928 21.70625,23.0349928 22.09625,22.6449928 C22.48625,22.2549928 22.48625,21.6249928 22.09625,21.2349928 L2.21625,1.3549928 C2.02941847,1.16774013 1.77576764,1.0625072 1.51125,1.0625072 C1.24673236,1.0625072 0.993081526,1.16774013 0.80625,1.3549928 Z M3.48625,14.3549928 L3.48625,5.4449928 L13.39625,15.3549928 L4.48625,15.3549928 C3.93625,15.3549928 3.48625,14.9049928 3.48625,14.3549928 Z M5.04625,1.3549928 L7.04625,3.3549928 L20.49625,3.3549928 C21.04625,3.3549928 21.49625,3.8049928 21.49625,4.3549928 L21.49625,14.3549928 C21.49625,14.9049928 21.04625,15.3549928 20.49625,15.3549928 L19.04625,15.3549928 L21.04625,17.3549928 L21.48625,17.3549928 C22.58625,17.3549928 23.48625,16.4549928 23.48625,15.3549928 L23.48625,3.3549928 C23.48625,2.2549928 22.58625,1.3549928 21.48625,1.3549928 L5.04625,1.3549928 Z" id="path-1"></path>
    </defs>
    <g id="icon/communication/desktop_access_disabled_24px" stroke="none" stroke-width="1" fill="none" fill-rule="evenodd">
        <mask id="mask-2" fill="white">
            <use xlink:href="#path-1"></use>
        </mask>
        <g fill-rule="nonzero"></g>
        <g id="✱-/-Color-/-Icons-/-Black-/-Inactive" mask="url(#mask-2)" fill="#000000" fill-opacity="0.54">
            <rect id="Rectangle" x="0" y="0" width="24" height="24"></rect>
        </g>
    </g>
</svg>