<?xml version="1.0" encoding="UTF-8"?>
<svg width="24px" height="24px" viewBox="0 0 24 24" version="1.1" xmlns="http://www.w3.org/2000/svg" xmlns:xlink="http://www.w3.org/1999/xlink">
    <!-- Generator: Sketch 50 (54983) - http://www.bohemiancoding.com/sketch -->
    <title>icon/communication/dialer_sip_24px_rounded</title>
    <desc>Created with Sketch.</desc>
    <defs>
        <path d="M16.4918367,8.01316326 C16.7718367,8.01316326 16.9918367,7.79316326 16.9918367,7.51316326 L16.9918367,3.51316326 C16.9918367,3.23316326 16.7718367,3.01316326 16.4918367,3.01316326 C16.2118367,3.01316326 15.9918367,3.23316326 15.9918367,3.51316326 L15.9918367,7.51316326 C15.9918367,7.79316326 16.2118367,8.01316326 16.4918367,8.01316326 Z M12.4918367,7.01316326 C12.2118367,7.01316326 11.9918367,7.23316326 11.9918367,7.51316326 C11.9918367,7.79316326 12.2118367,8.01316326 12.4918367,8.01316326 L14.4418367,8.01316326 C14.7418367,8.01316326 14.9918367,7.76316326 14.9918367,7.46316326 L14.9918367,5.56316326 C14.9918367,5.26316326 14.7418367,5.01316326 14.4418367,5.01316326 L12.9918367,5.01316326 L12.9918367,4.01316326 L14.4918367,4.01316326 C14.7718367,4.01316326 14.9918367,3.79316326 14.9918367,3.51316326 C14.9918367,3.23316326 14.7718367,3.01316326 14.4918367,3.01316326 L12.5418367,3.01316326 C12.2418367,3.01316326 11.9918367,3.26316326 11.9918367,3.56316326 L11.9918367,5.45316326 C11.9918367,5.76316326 12.2418367,6.01316326 12.5418367,6.01316326 L13.9918367,6.01316326 L13.9918367,7.01316326 L12.4918367,7.01316326 Z M20.4418367,3.01316326 L18.5518367,3.01316326 C18.2418367,3.01316326 17.9918367,3.26316326 17.9918367,3.56316326 L17.9918367,7.51316326 C17.9918367,7.79316326 18.2118367,8.01316326 18.4918367,8.01316326 C18.7718367,8.01316326 18.9918367,7.79316326 18.9918367,7.51316326 L18.9918367,6.01316326 L20.4418367,6.01316326 C20.7418367,6.01316326 20.9918367,5.76316326 20.9918367,5.46316326 L20.9918367,3.56316326 C20.9918367,3.26316326 20.7418367,3.01316326 20.4418367,3.01316326 Z M19.9918367,5.01316326 L18.9918367,5.01316326 L18.9918367,4.01316326 L19.9918367,4.01316326 L19.9918367,5.01316326 Z M19.2018367,15.2831633 L16.6618367,14.9931633 C16.0518367,14.9231633 15.4518367,15.1331633 15.0218367,15.5631633 L13.1818367,17.4031633 C10.3518367,15.9631633 8.03183674,13.6531633 6.59183674,10.8131633 L8.44183674,8.96316326 C8.87183674,8.53316326 9.08183674,7.92316326 9.01183674,7.32316326 L8.72183674,4.80316326 C8.61183674,3.79316326 7.75183674,3.02316326 6.74183674,3.02316326 L5.01183674,3.02316326 C3.88183674,3.02316326 2.94183674,3.96316326 3.01183674,5.09316326 C3.54183674,13.6331633 10.3718367,20.4531633 18.9018367,20.9831633 C20.0318367,21.0531633 20.9718367,20.1131633 20.9718367,18.9831633 L20.9718367,17.2531633 C20.9818367,16.2531633 20.2118367,15.3931633 19.2018367,15.2831633 Z" id="path-1"></path>
    </defs>
    <g id="icon/communication/dialer_sip_24px" stroke="none" stroke-width="1" fill="none" fill-rule="evenodd">
        <mask id="mask-2" fill="white">
            <use xlink:href="#path-1"></use>
        </mask>
        <g fill-rule="nonzero"></g>
        <g id="✱-/-Color-/-Icons-/-Black-/-Inactive" mask="url(#mask-2)" fill="#000000" fill-opacity="0.54">
            <rect id="Rectangle" x="0" y="0" width="24" height="24"></rect>
        </g>
    </g>
</svg>