<?xml version="1.0" encoding="UTF-8"?>
<svg width="24px" height="24px" viewBox="0 0 24 24" version="1.1" xmlns="http://www.w3.org/2000/svg" xmlns:xlink="http://www.w3.org/1999/xlink">
    <!-- Generator: Sketch 50 (54983) - http://www.bohemiancoding.com/sketch -->
    <title>icon/communication/domain_disabled_24px_rounded</title>
    <desc>Created with Sketch.</desc>
    <defs>
        <path d="M1.50125,1.5499928 C1.11125,1.9399928 1.11125,2.5699928 1.50125,2.9599928 L2.79125,4.2599928 L2.79125,18.1599928 C2.79125,19.2599928 3.69125,20.1599928 4.79125,20.1599928 L18.69125,20.1599928 L20.98125,22.4499928 C21.37125,22.8399928 22.00125,22.8399928 22.39125,22.4499928 C22.78125,22.0599928 22.78125,21.4299928 22.39125,21.0399928 L2.91125,1.5499928 C2.72441847,1.36274013 2.47076764,1.2575072 2.20625,1.2575072 C1.94173236,1.2575072 1.68808153,1.36274013 1.50125,1.5499928 Z M6.79125,18.1599928 L4.79125,18.1599928 L4.79125,16.1599928 L6.79125,16.1599928 L6.79125,18.1599928 Z M6.79125,14.1599928 L4.79125,14.1599928 L4.79125,12.1599928 L6.79125,12.1599928 L6.79125,14.1599928 Z M4.79125,10.1599928 L4.79125,8.1599928 L6.79125,8.1599928 L6.79125,10.1599928 L4.79125,10.1599928 Z M10.79125,18.1599928 L8.79125,18.1599928 L8.79125,16.1599928 L10.79125,16.1599928 L10.79125,18.1599928 Z M8.79125,14.1599928 L8.79125,12.1599928 L10.79125,12.1599928 L10.79125,14.1599928 L8.79125,14.1599928 Z M12.79125,18.1599928 L12.79125,16.1599928 L14.69125,16.1599928 L16.69125,18.1599928 L12.79125,18.1599928 Z M8.79125,4.1599928 L10.79125,4.1599928 L10.79125,6.1599928 L10.34125,6.1599928 L12.79125,8.6099928 L12.79125,8.1599928 L19.79125,8.1599928 C20.34125,8.1599928 20.79125,8.6099928 20.79125,9.1599928 L20.79125,16.6099928 L22.79125,18.6099928 L22.79125,8.1599928 C22.79125,7.0599928 21.89125,6.1599928 20.79125,6.1599928 L12.79125,6.1599928 L12.79125,4.1599928 C12.79125,3.0599928 11.89125,2.1599928 10.79125,2.1599928 L6.34125,2.1599928 L8.79125,4.6099928 L8.79125,4.1599928 Z M16.79125,10.1599928 L18.79125,10.1599928 L18.79125,12.1599928 L16.79125,12.1599928 L16.79125,10.1599928 Z" id="path-1"></path>
    </defs>
    <g id="icon/communication/domain_disabled_24px" stroke="none" stroke-width="1" fill="none" fill-rule="evenodd">
        <mask id="mask-2" fill="white">
            <use xlink:href="#path-1"></use>
        </mask>
        <g fill-rule="nonzero"></g>
        <g id="✱-/-Color-/-Icons-/-Black-/-Inactive" mask="url(#mask-2)" fill="#000000" fill-opacity="0.54">
            <rect id="Rectangle" x="0" y="0" width="24" height="24"></rect>
        </g>
    </g>
</svg>