<?xml version="1.0" encoding="UTF-8"?>
<svg width="24px" height="24px" viewBox="0 0 24 24" version="1.1" xmlns="http://www.w3.org/2000/svg" xmlns:xlink="http://www.w3.org/1999/xlink">
    <!-- Generator: Sketch 50 (54983) - http://www.bohemiancoding.com/sketch -->
    <title>icon/communication/import_export_24px_rounded</title>
    <desc>Created with Sketch.</desc>
    <defs>
        <path d="M8.6460699,3.355 L5.8560699,6.145 C5.5360699,6.455 5.7560699,6.995 6.2060699,6.995 L7.9960699,6.995 L7.9960699,13.005 C7.9960699,13.555 8.4460699,14.005 8.9960699,14.005 C9.5460699,14.005 9.9960699,13.555 9.9960699,13.005 L9.9960699,6.995 L11.7860699,6.995 C12.2360699,6.995 12.4560699,6.455 12.1360699,6.145 L9.3460699,3.355 C9.1560699,3.165 8.8360699,3.165 8.6460699,3.355 Z M15.9960699,17.015 L15.9960699,11.005 C15.9960699,10.455 15.5460699,10.005 14.9960699,10.005 C14.4460699,10.005 13.9960699,10.455 13.9960699,11.005 L13.9960699,17.015 L12.2060699,17.015 C11.7560699,17.015 11.5360699,17.555 11.8560699,17.865 L14.6460699,20.645 C14.8460699,20.835 15.1560699,20.835 15.3560699,20.645 L18.1460699,17.865 C18.4660699,17.555 18.2360699,17.015 17.7960699,17.015 L15.9960699,17.015 Z" id="path-1"></path>
    </defs>
    <g id="icon/communication/import_export_24px" stroke="none" stroke-width="1" fill="none" fill-rule="evenodd">
        <mask id="mask-2" fill="white">
            <use xlink:href="#path-1"></use>
        </mask>
        <g fill-rule="nonzero"></g>
        <g id="✱-/-Color-/-Icons-/-Black-/-Inactive" mask="url(#mask-2)" fill="#000000" fill-opacity="0.54">
            <rect id="Rectangle" x="0" y="0" width="24" height="24"></rect>
        </g>
    </g>
</svg>