<?xml version="1.0" encoding="UTF-8"?>
<svg width="24px" height="24px" viewBox="0 0 24 24" version="1.1" xmlns="http://www.w3.org/2000/svg" xmlns:xlink="http://www.w3.org/1999/xlink">
    <!-- Generator: Sketch 50 (54983) - http://www.bohemiancoding.com/sketch -->
    <title>icon/communication/mobile_screen_share_24px_rounded</title>
    <desc>Created with Sketch.</desc>
    <defs>
        <path d="M16.995,1 L6.995,1 C5.895,1 5.005,1.9 5.005,3 L5.005,21 C5.005,22.1 5.895,23 6.995,23 L16.995,23 C18.095,23 18.995,22.1 18.995,21 L18.995,3 C18.995,1.9 18.095,1 16.995,1 Z M16.995,19 L6.995,19 L6.995,5 L16.995,5 L16.995,19 Z M12.795,13.22 L12.795,14.97 L15.605,12.35 C15.815,12.15 15.815,11.82 15.605,11.62 L12.795,9 L12.795,10.7 C9.685,11.13 8.445,13.26 7.995,15.4 C9.105,13.9 10.575,13.22 12.795,13.22 Z" id="path-1"></path>
    </defs>
    <g id="icon/communication/mobile_screen_share_24px" stroke="none" stroke-width="1" fill="none" fill-rule="evenodd">
        <mask id="mask-2" fill="white">
            <use xlink:href="#path-1"></use>
        </mask>
        <g fill-rule="nonzero"></g>
        <g id="✱-/-Color-/-Icons-/-Black-/-Inactive" mask="url(#mask-2)" fill="#000000" fill-opacity="0.54">
            <rect id="Rectangle" x="0" y="0" width="24" height="24"></rect>
        </g>
    </g>
</svg>