<?xml version="1.0" encoding="UTF-8"?>
<svg width="24px" height="24px" viewBox="0 0 24 24" version="1.1" xmlns="http://www.w3.org/2000/svg" xmlns:xlink="http://www.w3.org/1999/xlink">
    <!-- Generator: Sketch 50 (54983) - http://www.bohemiancoding.com/sketch -->
    <title>icon/communication/person_add_disabled_24px_rounded</title>
    <desc>Created with Sketch.</desc>
    <defs>
        <path d="M14.77125,11.0949928 C14.94125,11.1149928 15.11125,11.1449928 15.29125,11.1449928 C17.50125,11.1449928 19.29125,9.3549928 19.29125,7.1449928 C19.29125,4.9349928 17.50125,3.1449928 15.29125,3.1449928 C13.08125,3.1449928 11.29125,4.9349928 11.29125,7.1449928 C11.29125,7.3249928 11.32125,7.4949928 11.34125,7.6649928 L14.77125,11.0949928 Z M16.98125,13.3049928 L22.72125,19.0449928 C23.05125,18.8749928 23.29125,18.5449928 23.29125,18.1449928 L23.29125,17.1449928 C23.29125,15.0049928 19.73125,13.6449928 16.98125,13.3049928 Z M2.41125,1.5649928 C2.22441847,1.37774013 1.97076764,1.2725072 1.70625,1.2725072 C1.44173236,1.2725072 1.18808153,1.37774013 1.00125,1.5649928 C0.61125,1.9549928 0.61125,2.5849928 1.00125,2.9749928 L4.29125,6.2649928 L4.29125,9.1449928 L2.29125,9.1449928 C1.74125,9.1449928 1.29125,9.5949928 1.29125,10.1449928 C1.29125,10.6949928 1.74125,11.1449928 2.29125,11.1449928 L4.29125,11.1449928 L4.29125,13.1449928 C4.29125,13.6949928 4.74125,14.1449928 5.29125,14.1449928 C5.84125,14.1449928 6.29125,13.6949928 6.29125,13.1449928 L6.29125,11.1449928 L9.17125,11.1449928 L11.68125,13.6549928 C9.48125,14.2549928 7.29125,15.4449928 7.29125,17.1449928 L7.29125,18.1449928 C7.29125,18.6949928 7.74125,19.1449928 8.29125,19.1449928 L17.17125,19.1449928 L20.46125,22.4349928 C20.85125,22.8249928 21.48125,22.8249928 21.87125,22.4349928 C22.26125,22.0449928 22.26125,21.4149928 21.87125,21.0249928 L2.41125,1.5649928 Z M6.29125,9.1449928 L6.29125,8.2649928 L7.17125,9.1449928 L6.29125,9.1449928 Z" id="path-1"></path>
    </defs>
    <g id="icon/communication/person_add_disabled_24px" stroke="none" stroke-width="1" fill="none" fill-rule="evenodd">
        <mask id="mask-2" fill="white">
            <use xlink:href="#path-1"></use>
        </mask>
        <g fill-rule="nonzero"></g>
        <g id="✱-/-Color-/-Icons-/-Black-/-Inactive" mask="url(#mask-2)" fill="#000000" fill-opacity="0.54">
            <rect id="Rectangle" x="0" y="0" width="24" height="24"></rect>
        </g>
    </g>
</svg>