<?xml version="1.0" encoding="UTF-8"?>
<svg width="24px" height="24px" viewBox="0 0 24 24" version="1.1" xmlns="http://www.w3.org/2000/svg" xmlns:xlink="http://www.w3.org/1999/xlink">
    <!-- Generator: Sketch 50 (54983) - http://www.bohemiancoding.com/sketch -->
    <title>icon/communication/phonelink_ring_24px_rounded</title>
    <desc>Created with Sketch.</desc>
    <defs>
        <path d="M14.0143737,1 L4.01437369,1 C2.91437369,1 2.01437369,1.9 2.01437369,3 L2.01437369,21 C2.01437369,22.1 2.91437369,23 4.01437369,23 L14.0143737,23 C15.1143737,23 16.0143737,22.1 16.0143737,21 L16.0143737,3 C16.0143737,1.9 15.1143737,1 14.0143737,1 Z M14.0143737,20 L4.01437369,20 L4.01437369,4 L14.0143737,4 L14.0143737,20 Z M20.6443737,8.26 C20.3843737,7.94 19.9043737,7.9 19.6043737,8.2 L19.5743737,8.23 C19.3243737,8.48 19.3143737,8.88 19.5243737,9.16 C20.7843737,10.8 20.7743737,13.03 19.5043737,14.73 C19.2943737,15.01 19.3143737,15.4 19.5543737,15.65 L19.6043737,15.7 C19.8943737,15.99 20.3643737,15.96 20.6343737,15.65 C22.4343737,13.52 22.4343737,10.46 20.6443737,8.26 Z M17.4343737,10.37 L17.3743737,10.43 C17.1743737,10.63 17.1143737,10.93 17.2243737,11.19 C17.4343737,11.68 17.4343737,12.22 17.2243737,12.71 C17.1143737,12.97 17.1743737,13.27 17.3743737,13.47 L17.4543737,13.55 C17.7743737,13.87 18.3243737,13.8 18.5443737,13.4 C19.0343737,12.51 19.0343737,11.46 18.5343737,10.54 C18.4339575,10.3438566 18.2455491,10.2077847 18.0277809,10.1741296 C17.8100128,10.1404746 17.589317,10.2133213 17.4343737,10.37 Z" id="path-1"></path>
    </defs>
    <g id="icon/communication/phonelink_ring_24px" stroke="none" stroke-width="1" fill="none" fill-rule="evenodd">
        <mask id="mask-2" fill="white">
            <use xlink:href="#path-1"></use>
        </mask>
        <g fill-rule="nonzero"></g>
        <g id="✱-/-Color-/-Icons-/-Black-/-Inactive" mask="url(#mask-2)" fill="#000000" fill-opacity="0.54">
            <rect id="Rectangle" x="0" y="0" width="24" height="24"></rect>
        </g>
    </g>
</svg>