<?xml version="1.0" encoding="UTF-8"?>
<svg width="24px" height="24px" viewBox="0 0 24 24" version="1.1" xmlns="http://www.w3.org/2000/svg" xmlns:xlink="http://www.w3.org/1999/xlink">
    <!-- Generator: Sketch 50 (54983) - http://www.bohemiancoding.com/sketch -->
    <title>icon/communication/phonelink_erase_24px_rounded</title>
    <desc>Created with Sketch.</desc>
    <defs>
        <path d="M12.355,7.7 C12.075,7.42 11.635,7.42 11.355,7.7 L7.855,11.2 L4.355,7.7 C4.075,7.42 3.635,7.42 3.355,7.7 C3.075,7.98 3.075,8.42 3.355,8.7 L6.855,12.2 L3.355,15.7 C3.075,15.98 3.075,16.42 3.355,16.7 C3.635,16.98 4.075,16.98 4.355,16.7 L7.855,13.2 L11.355,16.7 C11.635,16.98 12.075,16.98 12.355,16.7 C12.635,16.42 12.635,15.98 12.355,15.7 L8.855,12.2 L12.355,8.7 C12.635,8.42 12.635,7.98 12.355,7.7 Z M18.855,1 L8.855,1 C7.755,1 6.855,1.9 6.855,3 L6.855,5 C6.855,5.55 7.305,6 7.855,6 C8.405,6 8.855,5.55 8.855,5 L8.855,4 L18.855,4 L18.855,20 L8.855,20 L8.855,19 C8.855,18.45 8.405,18 7.855,18 C7.305,18 6.855,18.45 6.855,19 L6.855,21 C6.855,22.1 7.755,23 8.855,23 L18.855,23 C19.955,23 20.855,22.1 20.855,21 L20.855,3 C20.855,1.9 19.955,1 18.855,1 Z" id="path-1"></path>
    </defs>
    <g id="icon/communication/phonelink_erase_24px" stroke="none" stroke-width="1" fill="none" fill-rule="evenodd">
        <mask id="mask-2" fill="white">
            <use xlink:href="#path-1"></use>
        </mask>
        <g fill-rule="nonzero"></g>
        <g id="✱-/-Color-/-Icons-/-Black-/-Inactive" mask="url(#mask-2)" fill="#000000" fill-opacity="0.54">
            <rect id="Rectangle" x="0" y="0" width="24" height="24"></rect>
        </g>
    </g>
</svg>