<?xml version="1.0" encoding="UTF-8"?>
<svg width="24px" height="24px" viewBox="0 0 24 24" version="1.1" xmlns="http://www.w3.org/2000/svg" xmlns:xlink="http://www.w3.org/1999/xlink">
    <!-- Generator: Sketch 50 (54983) - http://www.bohemiancoding.com/sketch -->
    <title>icon/communication/portable_wifi_off_24px_rounded</title>
    <desc>Created with Sketch.</desc>
    <defs>
        <path d="M2.71,3.52875 C2.32,3.91875 2.32,4.54875 2.71,4.93875 L4.1,6.32875 C2.79,8.02875 2,10.14875 2,12.45875 C2,15.75875 3.6,18.67875 6.06,20.49875 C6.54,20.84875 7.22,20.70875 7.52,20.18875 C7.77,19.75875 7.66,19.19875 7.26,18.89875 C5.29,17.43875 4,15.10875 4,12.45875 C4,10.69875 4.57,9.07875 5.53,7.76875 L6.96,9.20875 C6.36,10.13875 6,11.25875 6,12.45875 C6,14.25875 6.8,15.86875 8.06,16.96875 C8.52,17.36875 9.25,17.21875 9.56,16.68875 L9.57,16.67875 C9.81,16.25875 9.7,15.73875 9.34,15.41875 C8.52,14.68875 8,13.63875 8,12.45875 C8,11.80875 8.17,11.20875 8.44,10.66875 L10.02,12.24875 L10,12.45875 C10,13.55875 10.9,14.45875 12,14.45875 L12.21,14.43875 L19.02,21.24875 C19.41,21.63875 20.04,21.63875 20.43,21.24875 C20.82,20.85875 20.82,20.22875 20.43,19.83875 L4.13,3.52875 C3.74,3.13875 3.1,3.13875 2.71,3.52875 Z M17.71,14.27875 C17.89,13.70875 18,13.08875 18,12.45875 C18,9.14875 15.31,6.45875 12,6.45875 C11.37,6.45875 10.75,6.56875 10.18,6.74875 L11.9,8.46875 C11.93,8.46875 11.96,8.45875 12,8.45875 C14.21,8.45875 16,10.24875 16,12.45875 C16,12.49875 15.99,12.52875 15.99,12.56875 L17.71,14.27875 Z M12,4.45875 C16.42,4.45875 20,8.03875 20,12.45875 C20,13.65875 19.71,14.77875 19.23,15.80875 L20.72,17.29875 C21.53,15.85875 22,14.21875 22,12.45875 C22,6.93875 17.52,2.45875 12,2.45875 C10.24,2.45875 8.6,2.93875 7.16,3.73875 L8.64,5.21875 C9.66,4.73875 10.8,4.45875 12,4.45875 Z" id="path-1"></path>
    </defs>
    <g id="icon/communication/portable_wifi_off_24px" stroke="none" stroke-width="1" fill="none" fill-rule="evenodd">
        <mask id="mask-2" fill="white">
            <use xlink:href="#path-1"></use>
        </mask>
        <g fill-rule="nonzero"></g>
        <g id="✱-/-Color-/-Icons-/-Black-/-Inactive" mask="url(#mask-2)" fill="#000000" fill-opacity="0.54">
            <rect id="Rectangle" x="0" y="0" width="24" height="24"></rect>
        </g>
    </g>
</svg>