<?xml version="1.0" encoding="UTF-8"?>
<svg width="24px" height="24px" viewBox="0 0 24 24" version="1.1" xmlns="http://www.w3.org/2000/svg" xmlns:xlink="http://www.w3.org/1999/xlink">
    <!-- Generator: Sketch 50 (54983) - http://www.bohemiancoding.com/sketch -->
    <title>icon/communication/present_to_all_24px_rounded</title>
    <desc>Created with Sketch.</desc>
    <defs>
        <path d="M21,3 L3,3 C1.89,3 1,3.89 1,5 L1,19 C1,20.11 1.89,21 3,21 L21,21 C22.11,21 23,20.11 23,19 L23,5 C23,3.89 22.11,3 21,3 Z M20,19.02 L4,19.02 C3.45,19.02 3,18.57 3,18.02 L3,5.98 C3,5.43 3.45,4.98 4,4.98 L20,4.98 C20.55,4.98 21,5.43 21,5.98 L21,18.02 C21,18.57 20.55,19.02 20,19.02 Z M10,12 L8,12 L11.65,8.35 C11.85,8.15 12.16,8.15 12.36,8.35 L16,12 L14,12 L14,16 L10,16 L10,12 Z" id="path-1"></path>
    </defs>
    <g id="icon/communication/present_to_all_24px" stroke="none" stroke-width="1" fill="none" fill-rule="evenodd">
        <mask id="mask-2" fill="white">
            <use xlink:href="#path-1"></use>
        </mask>
        <g fill-rule="nonzero"></g>
        <g id="✱-/-Color-/-Icons-/-Black-/-Inactive" mask="url(#mask-2)" fill="#000000" fill-opacity="0.54">
            <rect id="Rectangle" x="0" y="0" width="24" height="24"></rect>
        </g>
    </g>
</svg>