<?xml version="1.0" encoding="UTF-8"?>
<svg width="24px" height="24px" viewBox="0 0 24 24" version="1.1" xmlns="http://www.w3.org/2000/svg" xmlns:xlink="http://www.w3.org/1999/xlink">
    <!-- Generator: Sketch 50 (54983) - http://www.bohemiancoding.com/sketch -->
    <title>icon/communication/print_disabled_24px_rounded</title>
    <desc>Created with Sketch.</desc>
    <defs>
        <path d="M2.91125,1.5349928 C2.72441847,1.34774013 2.47076764,1.2425072 2.20625,1.2425072 C1.94173236,1.2425072 1.68808153,1.34774013 1.50125,1.5349928 C1.11125,1.9249928 1.11125,2.5549928 1.50125,2.9449928 L5.77125,7.2149928 C4.12125,7.2249928 2.79125,8.5649928 2.79125,10.2149928 L2.79125,14.2149928 C2.79125,15.3149928 3.69125,16.2149928 4.79125,16.2149928 L6.79125,16.2149928 L6.79125,18.2149928 C6.79125,19.3149928 7.69125,20.2149928 8.79125,20.2149928 L16.79125,20.2149928 C17.34125,20.2149928 17.83125,19.9949928 18.19125,19.6349928 L21.02125,22.4649928 C21.41125,22.8549928 22.04125,22.8549928 22.43125,22.4649928 C22.82125,22.0749928 22.82125,21.4449928 22.43125,21.0549928 L2.91125,1.5349928 Z M15.79125,18.2149928 L9.79125,18.2149928 C9.24125,18.2149928 8.79125,17.7649928 8.79125,17.2149928 L8.79125,13.2149928 L11.77125,13.2149928 L16.49125,17.9349928 C16.30125,18.1049928 16.06125,18.2149928 15.79125,18.2149928 Z M19.79125,7.2149928 L11.42125,7.2149928 L20.42125,16.2149928 L20.79125,16.2149928 C21.89125,16.2149928 22.79125,15.3149928 22.79125,14.2149928 L22.79125,10.2149928 C22.79125,8.5549928 21.45125,7.2149928 19.79125,7.2149928 Z M19.79125,11.2149928 C19.24125,11.2149928 18.79125,10.7649928 18.79125,10.2149928 C18.79125,9.6649928 19.24125,9.2149928 19.79125,9.2149928 C20.34125,9.2149928 20.79125,9.6649928 20.79125,10.2149928 C20.79125,10.7649928 20.34125,11.2149928 19.79125,11.2149928 Z M17.79125,6.2149928 C18.34125,6.2149928 18.79125,5.7649928 18.79125,5.2149928 L18.79125,3.2149928 C18.79125,2.6649928 18.34125,2.2149928 17.79125,2.2149928 L7.79125,2.2149928 C7.42125,2.2149928 7.11125,2.4249928 6.94125,2.7249928 L10.42125,6.2149928 L17.79125,6.2149928 Z" id="path-1"></path>
    </defs>
    <g id="icon/communication/print_disabled_24px" stroke="none" stroke-width="1" fill="none" fill-rule="evenodd">
        <mask id="mask-2" fill="white">
            <use xlink:href="#path-1"></use>
        </mask>
        <g fill-rule="nonzero"></g>
        <g id="✱-/-Color-/-Icons-/-Black-/-Inactive" mask="url(#mask-2)" fill="#000000" fill-opacity="0.54">
            <rect id="Rectangle" x="0" y="0" width="24" height="24"></rect>
        </g>
    </g>
</svg>