<?xml version="1.0" encoding="UTF-8"?>
<svg width="24px" height="24px" viewBox="0 0 24 24" version="1.1" xmlns="http://www.w3.org/2000/svg" xmlns:xlink="http://www.w3.org/1999/xlink">
    <!-- Generator: Sketch 50 (54983) - http://www.bohemiancoding.com/sketch -->
    <title>icon/communication/ring_volume_24px_rounded</title>
    <desc>Created with Sketch.</desc>
    <defs>
        <path d="M11.9293431,7.54284463 L11.9593431,7.54284463 C12.5093431,7.54284463 12.9493431,7.10284463 12.9493431,6.56284463 L12.9493431,3.52284463 C12.9493431,2.98284463 12.5093431,2.54284463 11.9693431,2.54284463 L11.9393431,2.54284463 C11.3893431,2.54284463 10.9493431,2.98284463 10.9493431,3.52284463 L10.9493431,6.55284463 C10.9493431,7.10284463 11.3893431,7.54284463 11.9293431,7.54284463 Z M16.8493431,9.65284463 C17.2393431,10.0428446 17.8593431,10.0428446 18.2493431,9.65284463 C18.8693431,9.02284463 19.7693431,8.11284463 20.3993431,7.48284463 C20.7893431,7.10284463 20.7893431,6.47284463 20.3993431,6.09284463 C20.0193431,5.71284463 19.3893431,5.71284463 19.0093431,6.09284463 L16.8393431,8.24284463 C16.4493431,8.62284463 16.4493431,9.25284463 16.8393431,9.63284463 L16.8493431,9.65284463 Z M5.65934311,9.64284463 C6.03934311,10.0328446 6.66934311,10.0328446 7.05934311,9.64284463 C7.43934311,9.26284463 7.43934311,8.63284463 7.05934311,8.25284463 L4.90934311,6.08284463 C4.52934311,5.69284463 3.89934311,5.69284463 3.51934311,6.08284463 L3.49934311,6.09284463 C3.10934311,6.48284463 3.10934311,7.10284463 3.49934311,7.48284463 C4.12934311,8.10284463 5.03934311,9.01284463 5.65934311,9.64284463 Z M23.2393431,16.7728446 C16.8293431,11.1128446 7.16934311,11.1128446 0.759343114,16.7728446 C-0.0906568857,17.5228446 -0.0906568857,18.8528446 0.709343114,19.6528446 L1.92934311,20.8728446 C2.64934311,21.5928446 3.78934311,21.6528446 4.58934311,21.0228446 L6.58934311,19.4328446 C7.06934311,19.0528446 7.34934311,18.4728446 7.34934311,17.8628446 L7.34934311,15.2628446 C10.3693431,14.2828446 13.6393431,14.2728446 16.6693431,15.2628446 L16.6693431,17.8728446 C16.6693431,18.4828446 16.9493431,19.0628446 17.4293431,19.4428446 L19.4193431,21.0228446 C20.2193431,21.6528446 21.3593431,21.5928446 22.0793431,20.8728446 L23.2993431,19.6528446 C24.0893431,18.8528446 24.0893431,17.5228446 23.2393431,16.7728446 Z" id="path-1"></path>
    </defs>
    <g id="icon/communication/ring_volume_24px" stroke="none" stroke-width="1" fill="none" fill-rule="evenodd">
        <mask id="mask-2" fill="white">
            <use xlink:href="#path-1"></use>
        </mask>
        <g fill-rule="nonzero"></g>
        <g id="✱-/-Color-/-Icons-/-Black-/-Inactive" mask="url(#mask-2)" fill="#000000" fill-opacity="0.54">
            <rect id="Rectangle" x="0" y="0" width="24" height="24"></rect>
        </g>
    </g>
</svg>