<?xml version="1.0" encoding="UTF-8"?>
<svg width="24px" height="24px" viewBox="0 0 24 24" version="1.1" xmlns="http://www.w3.org/2000/svg" xmlns:xlink="http://www.w3.org/1999/xlink">
    <!-- Generator: Sketch 50 (54983) - http://www.bohemiancoding.com/sketch -->
    <title>icon/communication/rss_feed_24px_rounded</title>
    <desc>Created with Sketch.</desc>
    <defs>
        <path d="M6.43671112,15.3840613 C5.23273036,15.3840613 4.25671112,16.3600805 4.25671112,17.5640613 C4.25671112,18.768042 5.23273036,19.7440613 6.43671112,19.7440613 C7.64069187,19.7440613 8.61671112,18.768042 8.61671112,17.5640613 C8.61671112,16.3600805 7.64069187,15.3840613 6.43671112,15.3840613 Z M5.84671112,9.97406128 C5.00671112,9.83406128 4.25671112,10.5240613 4.25671112,11.3740613 C4.25671112,12.0840613 4.78671112,12.6540613 5.48671112,12.7740613 C8.40671112,13.2840613 10.7067111,15.5940613 11.2267111,18.5140613 C11.3467111,19.2140613 11.9167111,19.7440613 12.6267111,19.7440613 C13.4767111,19.7440613 14.1667111,18.9940613 14.0367111,18.1540613 C13.3567111,13.9540613 10.0467111,10.6440613 5.84671112,9.97406128 Z M5.81671112,4.26406128 C4.98671112,4.17406128 4.25671112,4.84406128 4.25671112,5.67406128 C4.25671112,6.40406128 4.80671112,7.00406128 5.52671112,7.07406128 C11.5367111,7.67406128 16.3167111,12.4540613 16.9167111,18.4640613 C16.9867111,19.1940613 17.5867111,19.7440613 18.3167111,19.7440613 C19.1567111,19.7440613 19.8167111,19.0140613 19.7367111,18.1840613 C19.0067111,10.8440613 13.1667111,4.99406128 5.81671112,4.26406128 Z" id="path-1"></path>
    </defs>
    <g id="icon/communication/rss_feed_24px" stroke="none" stroke-width="1" fill="none" fill-rule="evenodd">
        <mask id="mask-2" fill="white">
            <use xlink:href="#path-1"></use>
        </mask>
        <g fill-rule="nonzero"></g>
        <g id="✱-/-Color-/-Icons-/-Black-/-Inactive" mask="url(#mask-2)" fill="#000000" fill-opacity="0.54">
            <rect id="Rectangle" x="0" y="0" width="24" height="24"></rect>
        </g>
    </g>
</svg>