<?xml version="1.0" encoding="UTF-8"?>
<svg width="24px" height="24px" viewBox="0 0 24 24" version="1.1" xmlns="http://www.w3.org/2000/svg" xmlns:xlink="http://www.w3.org/1999/xlink">
    <!-- Generator: Sketch 50 (54983) - http://www.bohemiancoding.com/sketch -->
    <title>icon/communication/speaker_phone_24px_rounded</title>
    <desc>Created with Sketch.</desc>
    <defs>
        <path d="M7.75699715,8.335 L7.77699715,8.355 C8.12699715,8.705 8.66699715,8.735 9.07699715,8.445 C9.90699715,7.875 10.9169971,7.525 11.9969971,7.525 C13.0769971,7.525 14.0869971,7.875 14.9169971,8.455 C15.3169971,8.745 15.8669971,8.715 16.2169971,8.365 L16.2369971,8.345 C16.6569971,7.925 16.6269971,7.205 16.1469971,6.855 C14.9769971,6.005 13.5469971,5.505 11.9969971,5.505 C10.4469971,5.505 9.01699715,6.005 7.85699715,6.845 C7.36699715,7.195 7.33699715,7.915 7.75699715,8.335 Z M11.9969971,1.505 C9.37699715,1.505 6.96699715,2.435 5.07699715,3.975 C4.61699715,4.345 4.56699715,5.035 4.99699715,5.465 C5.35699715,5.825 5.92699715,5.855 6.31699715,5.535 C7.85699715,4.265 9.84699715,3.505 11.9969971,3.505 C14.1469971,3.505 16.1369971,4.265 17.6869971,5.535 C18.0769971,5.855 18.6469971,5.825 19.0069971,5.465 C19.4269971,5.045 19.3869971,4.355 18.9269971,3.975 C17.0269971,2.435 14.6169971,1.505 11.9969971,1.505 Z M14.8569971,10.515 L9.13699715,10.505 C8.50699715,10.505 7.99699715,11.015 7.99699715,11.645 L7.99699715,21.355 C7.99699715,21.985 8.50699715,22.495 9.13699715,22.495 L14.8469971,22.495 C15.4769971,22.495 15.9869971,21.985 15.9869971,21.355 L15.9869971,11.645 C15.9969971,11.015 15.4869971,10.515 14.8569971,10.515 Z M14.9969971,20.505 L8.99699715,20.505 L8.99699715,12.505 L14.9969971,12.505 L14.9969971,20.505 Z" id="path-1"></path>
    </defs>
    <g id="icon/communication/speaker_phone_24px" stroke="none" stroke-width="1" fill="none" fill-rule="evenodd">
        <mask id="mask-2" fill="white">
            <use xlink:href="#path-1"></use>
        </mask>
        <g fill-rule="nonzero"></g>
        <g id="✱-/-Color-/-Icons-/-Black-/-Inactive" mask="url(#mask-2)" fill="#000000" fill-opacity="0.54">
            <rect id="Rectangle" x="0" y="0" width="24" height="24"></rect>
        </g>
    </g>
</svg>