<?xml version="1.0" encoding="UTF-8"?>
<svg width="24px" height="24px" viewBox="0 0 24 24" version="1.1" xmlns="http://www.w3.org/2000/svg" xmlns:xlink="http://www.w3.org/1999/xlink">
    <!-- Generator: Sketch 50 (54983) - http://www.bohemiancoding.com/sketch -->
    <title>icon/communication/stop_screen_share_24px_rounded</title>
    <desc>Created with Sketch.</desc>
    <defs>
        <path d="M23,17.86 L21.8,17.86 L23.59,19.65 C23.83,19.47 24,19.19 24,18.86 C24,18.31 23.55,17.86 23,17.86 Z M3.23,2.14 C2.84,1.75 2.2,1.75 1.81,2.14 C1.42,2.53 1.42,3.16 1.81,3.55 L2.65,4.41 C2.65,4.41 1.99,4.98 1.99,5.88 C2,6.78 2,15.86 2,15.86 L2.01,15.87 C2.01,16.96 2.89,17.85 3.98,17.86 L1,17.86 C0.45,17.86 0,18.31 0,18.86 C0,19.41 0.45,19.86 1,19.86 L18.13,19.86 L20.13,21.86 C20.52,22.25 21.15,22.25 21.54,21.86 C21.93,21.47 21.93,20.84 21.54,20.45 L3.23,2.14 Z M7,14.86 C7.31,13.38 7.94,11.93 9.08,10.81 L10.67,12.4 C9.13,12.78 7.96,13.57 7,14.86 Z M13,8.99 L13,8.01 C13,7.57 13.52,7.35 13.84,7.64 L15,8.73 L16.61,10.23 C16.82,10.43 16.82,10.76 16.61,10.96 L15.72,11.79 L21.3,17.37 C21.73,17 22,16.47 22,15.86 L22,5.86 C22,4.77 21.11,3.88 20.02,3.88 L7.8,3.88 L12.94,9.01 C12.96,9 12.98,8.99 13,8.99 Z" id="path-1"></path>
    </defs>
    <g id="icon/communication/stop_screen_share_24px" stroke="none" stroke-width="1" fill="none" fill-rule="evenodd">
        <mask id="mask-2" fill="white">
            <use xlink:href="#path-1"></use>
        </mask>
        <g fill-rule="nonzero"></g>
        <g id="✱-/-Color-/-Icons-/-Black-/-Inactive" mask="url(#mask-2)" fill="#000000" fill-opacity="0.54">
            <rect id="Rectangle" x="0" y="0" width="24" height="24"></rect>
        </g>
    </g>
</svg>