<?xml version="1.0" encoding="UTF-8"?>
<svg width="24px" height="24px" viewBox="0 0 24 24" version="1.1" xmlns="http://www.w3.org/2000/svg" xmlns:xlink="http://www.w3.org/1999/xlink">
    <!-- Generator: Sketch 50 (54983) - http://www.bohemiancoding.com/sketch -->
    <title>icon/communication/vpn_key_24px_rounded</title>
    <desc>Created with Sketch.</desc>
    <defs>
        <path d="M12.6491154,10.0010371 C11.6991154,7.31103707 8.8991154,5.50103707 5.7691154,6.12103707 C3.4791154,6.58103707 1.6191154,8.41103707 1.1391154,10.7010371 C0.3191154,14.5710371 3.2591154,18.0010371 6.9991154,18.0010371 C9.6091154,18.0010371 11.8291154,16.3310371 12.6491154,14.0010371 L16.9991154,14.0010371 L16.9991154,16.0010371 C16.9991154,17.1010371 17.8991154,18.0010371 18.9991154,18.0010371 C20.0991154,18.0010371 20.9991154,17.1010371 20.9991154,16.0010371 L20.9991154,14.0010371 C22.0991154,14.0010371 22.9991154,13.1010371 22.9991154,12.0010371 C22.9991154,10.9010371 22.0991154,10.0010371 20.9991154,10.0010371 L12.6491154,10.0010371 Z M6.9991154,14.0010371 C5.8991154,14.0010371 4.9991154,13.1010371 4.9991154,12.0010371 C4.9991154,10.9010371 5.8991154,10.0010371 6.9991154,10.0010371 C8.0991154,10.0010371 8.9991154,10.9010371 8.9991154,12.0010371 C8.9991154,13.1010371 8.0991154,14.0010371 6.9991154,14.0010371 Z" id="path-1"></path>
    </defs>
    <g id="icon/communication/vpn_key_24px" stroke="none" stroke-width="1" fill="none" fill-rule="evenodd">
        <mask id="mask-2" fill="white">
            <use xlink:href="#path-1"></use>
        </mask>
        <g fill-rule="nonzero"></g>
        <g id="✱-/-Color-/-Icons-/-Black-/-Inactive" mask="url(#mask-2)" fill="#000000" fill-opacity="0.54">
            <rect id="Rectangle" x="0" y="0" width="24" height="24"></rect>
        </g>
    </g>
</svg>