<?xml version="1.0" encoding="UTF-8"?>
<svg width="24px" height="24px" viewBox="0 0 24 24" version="1.1" xmlns="http://www.w3.org/2000/svg" xmlns:xlink="http://www.w3.org/1999/xlink">
    <!-- Generator: Sketch 50 (54983) - http://www.bohemiancoding.com/sketch -->
    <title>icon/alert/notification_important_24px</title>
    <desc>Created with Sketch.</desc>
    <defs>
        <path d="M12,23 C13.1,23 13.99,22.11 13.99,21.01 L10.01,21.01 C10.01,22.11 10.9,23 12,23 Z M19,17 L19,11 C19,7.65 16.64,4.85 13.5,4.17 L13.5,3 C13.5,2.17 12.83,1.5 12,1.5 C11.17,1.5 10.5,2.17 10.5,3 L10.5,4.17 C7.36,4.85 5,7.65 5,11 L5,17 L3,19 L3,20 L21,20 L21,19 L19,17 Z M13,16 L11,16 L11,14 L13,14 L13,16 Z M13,12 L11,12 L11,8 L13,8 L13,12 Z" id="path-1"></path>
    </defs>
    <g id="icon/alert/notification_important_24px" stroke="none" stroke-width="1" fill="none" fill-rule="evenodd">
        <mask id="mask-2" fill="white">
            <use xlink:href="#path-1"></use>
        </mask>
        <g fill-rule="nonzero"></g>
        <g id="✱-/-Color-/-Icons-/-Black-/-Inactive" mask="url(#mask-2)" fill="#000000" fill-opacity="0.54">
            <rect id="Rectangle" x="0" y="0" width="24" height="24"></rect>
        </g>
    </g>
</svg>