<?xml version="1.0" encoding="UTF-8"?>
<svg width="24px" height="24px" viewBox="0 0 24 24" version="1.1" xmlns="http://www.w3.org/2000/svg" xmlns:xlink="http://www.w3.org/1999/xlink">
    <!-- Generator: Sketch 50 (54983) - http://www.bohemiancoding.com/sketch -->
    <title>icon/image/add_photo_alternate_24px</title>
    <desc>Created with Sketch.</desc>
    <defs>
        <path d="M19,7 L19,9.99 C19,9.99 17.01,10 17,9.99 L17,7 L14,7 C14,7 14.01,5.01 14,5 L17,5 L17,2 L19,2 L19,5 L22,5 L22,7 L19,7 Z M16,11 L16,8 L13,8 L13,5 L5,5 C3.9,5 3,5.9 3,7 L3,19 C3,20.1 3.9,21 5,21 L17,21 C18.1,21 19,20.1 19,19 L19,11 L16,11 Z M5,19 L8,15 L10,18 L13,14 L17,19 L5,19 Z" id="path-1"></path>
    </defs>
    <g id="icon/image/add_photo_alternate_24px" stroke="none" stroke-width="1" fill="none" fill-rule="evenodd">
        <mask id="mask-2" fill="white">
            <use xlink:href="#path-1"></use>
        </mask>
        <g fill-rule="nonzero"></g>
        <g id="✱-/-Color-/-Icons-/-Black-/-Inactive" mask="url(#mask-2)" fill="#000000" fill-opacity="0.54">
            <rect id="Rectangle" x="0" y="0" width="24" height="24"></rect>
        </g>
    </g>
</svg>