<?xml version="1.0" encoding="UTF-8"?>
<svg width="24px" height="24px" viewBox="0 0 24 24" version="1.1" xmlns="http://www.w3.org/2000/svg" xmlns:xlink="http://www.w3.org/1999/xlink">
    <!-- Generator: Sketch 50 (54983) - http://www.bohemiancoding.com/sketch -->
    <title>icon/image/add_a_photo_24px</title>
    <desc>Created with Sketch.</desc>
    <defs>
        <path d="M3,4 L3,1 L5,1 L5,4 L8,4 L8,6 L5,6 L5,9 L3,9 L3,6 L0,6 L0,4 L3,4 Z M6,10 L6,7 L9,7 L9,4 L16,4 L17.83,6 L21,6 C22.1,6 23,6.9 23,8 L23,20 C23,21.1 22.1,22 21,22 L5,22 C3.9,22 3,21.1 3,20 L3,10 L6,10 Z M13,19 C15.76,19 18,16.76 18,14 C18,11.24 15.76,9 13,9 C10.24,9 8,11.24 8,14 C8,16.76 10.24,19 13,19 Z M10,14 C10,15.66 11.34,17 13,17 C14.66,17 16,15.66 16,14 C16,12.34 14.66,11 13,11 C11.34,11 10,12.34 10,14 Z" id="path-1"></path>
    </defs>
    <g id="icon/image/add_a_photo_24px" stroke="none" stroke-width="1" fill="none" fill-rule="evenodd">
        <mask id="mask-2" fill="white">
            <use xlink:href="#path-1"></use>
        </mask>
        <g fill-rule="nonzero"></g>
        <g id="✱-/-Color-/-Icons-/-Black-/-Inactive" mask="url(#mask-2)" fill="#000000" fill-opacity="0.54">
            <rect id="Rectangle" x="0" y="0" width="24" height="24"></rect>
        </g>
    </g>
</svg>