<?xml version="1.0" encoding="UTF-8"?>
<svg width="24px" height="24px" viewBox="0 0 24 24" version="1.1" xmlns="http://www.w3.org/2000/svg" xmlns:xlink="http://www.w3.org/1999/xlink">
    <!-- Generator: Sketch 50 (54983) - http://www.bohemiancoding.com/sketch -->
    <title>icon/image/brightness_4_24px</title>
    <desc>Created with Sketch.</desc>
    <defs>
        <path d="M20,8.69 L20,4 L15.31,4 L12,0.69 L8.69,4 L4,4 L4,8.69 L0.69,12 L4,15.31 L4,20 L8.69,20 L12,23.31 L15.31,20 L20,20 L20,15.31 L23.31,12 L20,8.69 Z M12,18 C11.11,18 10.26,17.8 9.5,17.45 C11.56,16.5 13,14.42 13,12 C13,9.58 11.56,7.5 9.5,6.55 C10.26,6.2 11.11,6 12,6 C15.31,6 18,8.69 18,12 C18,15.31 15.31,18 12,18 Z" id="path-1"></path>
    </defs>
    <g id="icon/image/brightness_4_24px" stroke="none" stroke-width="1" fill="none" fill-rule="evenodd">
        <mask id="mask-2" fill="white">
            <use xlink:href="#path-1"></use>
        </mask>
        <g fill-rule="nonzero"></g>
        <g id="✱-/-Color-/-Icons-/-Black-/-Inactive" mask="url(#mask-2)" fill="#000000" fill-opacity="0.54">
            <rect id="Rectangle" x="0" y="0" width="24" height="24"></rect>
        </g>
    </g>
</svg>