<?xml version="1.0" encoding="UTF-8"?>
<svg width="24px" height="24px" viewBox="0 0 24 24" version="1.1" xmlns="http://www.w3.org/2000/svg" xmlns:xlink="http://www.w3.org/1999/xlink">
    <!-- Generator: Sketch 50 (54983) - http://www.bohemiancoding.com/sketch -->
    <title>icon/image/broken_image_24px</title>
    <desc>Created with Sketch.</desc>
    <defs>
        <path d="M21,5 L21,11.59 L18,8.58 L14,12.59 L10,8.59 L6,12.59 L3,9.58 L3,5 C3,3.9 3.9,3 5,3 L19,3 C20.1,3 21,3.9 21,5 Z M18,11.42 L21,14.43 L21,19 C21,20.1 20.1,21 19,21 L5,21 C3.9,21 3,20.1 3,19 L3,12.42 L6,15.41 L10,11.41 L14,15.41 L18,11.42 Z" id="path-1"></path>
    </defs>
    <g id="icon/image/broken_image_24px" stroke="none" stroke-width="1" fill="none" fill-rule="evenodd">
        <mask id="mask-2" fill="white">
            <use xlink:href="#path-1"></use>
        </mask>
        <g fill-rule="nonzero"></g>
        <g id="✱-/-Color-/-Icons-/-Black-/-Inactive" mask="url(#mask-2)" fill="#000000" fill-opacity="0.54">
            <rect id="Rectangle" x="0" y="0" width="24" height="24"></rect>
        </g>
    </g>
</svg>