<?xml version="1.0" encoding="UTF-8"?>
<svg width="24px" height="24px" viewBox="0 0 24 24" version="1.1" xmlns="http://www.w3.org/2000/svg" xmlns:xlink="http://www.w3.org/1999/xlink">
    <!-- Generator: Sketch 50 (54983) - http://www.bohemiancoding.com/sketch -->
    <title>icon/image/brush_24px</title>
    <desc>Created with Sketch.</desc>
    <defs>
        <path d="M7,14 C5.34,14 4,15.34 4,17 C4,18.31 2.84,19 2,19 C2.92,20.22 4.49,21 6,21 C8.21,21 10,19.21 10,17 C10,15.34 8.66,14 7,14 Z M20.71,4.63 L19.37,3.29 C18.98,2.9 18.35,2.9 17.96,3.29 L9,12.25 L11.75,15 L20.71,6.04 C21.1,5.65 21.1,5.02 20.71,4.63 Z" id="path-1"></path>
    </defs>
    <g id="icon/image/brush_24px" stroke="none" stroke-width="1" fill="none" fill-rule="evenodd">
        <mask id="mask-2" fill="white">
            <use xlink:href="#path-1"></use>
        </mask>
        <g fill-rule="nonzero"></g>
        <g id="✱-/-Color-/-Icons-/-Black-/-Inactive" mask="url(#mask-2)" fill="#000000" fill-opacity="0.54">
            <rect id="Rectangle" x="0" y="0" width="24" height="24"></rect>
        </g>
    </g>
</svg>