<?xml version="1.0" encoding="UTF-8"?>
<svg width="24px" height="24px" viewBox="0 0 24 24" version="1.1" xmlns="http://www.w3.org/2000/svg" xmlns:xlink="http://www.w3.org/1999/xlink">
    <!-- Generator: Sketch 50 (54983) - http://www.bohemiancoding.com/sketch -->
    <title>icon/image/camera_roll_24px</title>
    <desc>Created with Sketch.</desc>
    <defs>
        <path d="M14,5 C14,3.9 13.1,3 12,3 L11,3 L11,2 C11,1.45 10.55,1 10,1 L6,1 C5.45,1 5,1.45 5,2 L5,3 L4,3 C2.9,3 2,3.9 2,5 L2,20 C2,21.1 2.9,22 4,22 L12,22 C13.1,22 14,21.1 14,20 L22,20 L22,5 L14,5 Z M12,18 L10,18 L10,16 L12,16 L12,18 Z M12,9 L10,9 L10,7 L12,7 L12,9 Z M16,18 L14,18 L14,16 L16,16 L16,18 Z M16,9 L14,9 L14,7 L16,7 L16,9 Z M20,18 L18,18 L18,16 L20,16 L20,18 Z M20,9 L18,9 L18,7 L20,7 L20,9 Z" id="path-1"></path>
    </defs>
    <g id="icon/image/camera_roll_24px" stroke="none" stroke-width="1" fill="none" fill-rule="evenodd">
        <mask id="mask-2" fill="white">
            <use xlink:href="#path-1"></use>
        </mask>
        <g fill-rule="nonzero"></g>
        <g id="✱-/-Color-/-Icons-/-Black-/-Inactive" mask="url(#mask-2)" fill="#000000" fill-opacity="0.54">
            <rect id="Rectangle" x="0" y="0" width="24" height="24"></rect>
        </g>
    </g>
</svg>