<?xml version="1.0" encoding="UTF-8"?>
<svg width="24px" height="24px" viewBox="0 0 24 24" version="1.1" xmlns="http://www.w3.org/2000/svg" xmlns:xlink="http://www.w3.org/1999/xlink">
    <!-- Generator: Sketch 50 (54983) - http://www.bohemiancoding.com/sketch -->
    <title>icon/image/camera_rear_24px</title>
    <desc>Created with Sketch.</desc>
    <defs>
        <path d="M10,20 L5,20 L5,22 L10,22 L10,24 L13,21 L10,18 L10,20 Z M14,20 L14,22 L19,22 L19,20 L14,20 Z M17,0 L7,0 C5.9,0 5,0.9 5,2 L5,16 C5,17.1 5.9,18 7,18 L17,18 C18.1,18 19,17.1 19,16 L19,2 C19,0.9 18.1,0 17,0 Z M12,6 C10.89,6 10,5.1 10,4 C10,2.9 10.89,2 11.99,2 C13.09,2 13.99,2.9 13.99,4 C14,5.1 13.1,6 12,6 Z" id="path-1"></path>
    </defs>
    <g id="icon/image/camera_rear_24px" stroke="none" stroke-width="1" fill="none" fill-rule="evenodd">
        <mask id="mask-2" fill="white">
            <use xlink:href="#path-1"></use>
        </mask>
        <g fill-rule="nonzero"></g>
        <g id="✱-/-Color-/-Icons-/-Black-/-Inactive" mask="url(#mask-2)" fill="#000000" fill-opacity="0.54">
            <rect id="Rectangle" x="0" y="0" width="24" height="24"></rect>
        </g>
    </g>
</svg>