<?xml version="1.0" encoding="UTF-8"?>
<svg width="24px" height="24px" viewBox="0 0 24 24" version="1.1" xmlns="http://www.w3.org/2000/svg" xmlns:xlink="http://www.w3.org/1999/xlink">
    <!-- Generator: Sketch 50 (54983) - http://www.bohemiancoding.com/sketch -->
    <title>icon/image/exposure_24px</title>
    <desc>Created with Sketch.</desc>
    <defs>
        <path d="M19,3 L5,3 C3.9,3 3,3.9 3,5 L3,19 C3,20.1 3.9,21 5,21 L19,21 C20.1,21 21,20.1 21,19 L21,5 C21,3.9 20.1,3 19,3 Z M6,7 L11,7 L11,8.5 L6,8.5 L6,7 Z M19,19 L5,19 L19,5 L19,19 Z M14.5,16 L14.5,18 L16,18 L16,16 L18,16 L18,14.5 L16,14.5 L16,12.5 L14.5,12.5 L14.5,14.5 L12.5,14.5 L12.5,16 L14.5,16 Z" id="path-1"></path>
    </defs>
    <g id="icon/image/exposure_24px" stroke="none" stroke-width="1" fill="none" fill-rule="evenodd">
        <mask id="mask-2" fill="white">
            <use xlink:href="#path-1"></use>
        </mask>
        <g fill-rule="nonzero"></g>
        <g id="✱-/-Color-/-Icons-/-Black-/-Inactive" mask="url(#mask-2)" fill="#000000" fill-opacity="0.54">
            <rect id="Rectangle" x="0" y="0" width="24" height="24"></rect>
        </g>
    </g>
</svg>