<?xml version="1.0" encoding="UTF-8"?>
<svg width="24px" height="24px" viewBox="0 0 24 24" version="1.1" xmlns="http://www.w3.org/2000/svg" xmlns:xlink="http://www.w3.org/1999/xlink">
    <!-- Generator: Sketch 50 (54983) - http://www.bohemiancoding.com/sketch -->
    <title>icon/image/filter_frames_24px</title>
    <desc>Created with Sketch.</desc>
    <defs>
        <path d="M20,4 L16,4 L12,0 L8,4 L4,4 C2.9,4 2,4.9 2,6 L2,20 C2,21.1 2.9,22 4,22 L20,22 C21.1,22 22,21.1 22,20 L22,6 C22,4.9 21.1,4 20,4 Z M20,20 L4,20 L4,6 L8.52,6 L12.04,2.5 L15.52,6 L20,6 L20,20 Z M18,8 L6,8 L6,18 L18,18 L18,8 Z" id="path-1"></path>
    </defs>
    <g id="icon/image/filter_frames_24px" stroke="none" stroke-width="1" fill="none" fill-rule="evenodd">
        <mask id="mask-2" fill="white">
            <use xlink:href="#path-1"></use>
        </mask>
        <g fill-rule="nonzero"></g>
        <g id="✱-/-Color-/-Icons-/-Black-/-Inactive" mask="url(#mask-2)" fill="#000000" fill-opacity="0.54">
            <rect id="Rectangle" x="0" y="0" width="24" height="24"></rect>
        </g>
    </g>
</svg>