<?xml version="1.0" encoding="UTF-8"?>
<svg width="24px" height="24px" viewBox="0 0 24 24" version="1.1" xmlns="http://www.w3.org/2000/svg" xmlns:xlink="http://www.w3.org/1999/xlink">
    <!-- Generator: Sketch 50 (54983) - http://www.bohemiancoding.com/sketch -->
    <title>icon/image/looks_4_24px</title>
    <desc>Created with Sketch.</desc>
    <defs>
        <path d="M18.2784,3 L4.8384,3 C3.7824,3 2.9184,3.9 2.9184,5 L2.9184,19 C2.9184,20.1 3.7824,21 4.8384,21 L18.2784,21 C19.3344,21 20.1984,20.1 20.1984,19 L20.1984,5 C20.1984,3.9 19.3344,3 18.2784,3 Z M14.4384,17 L12.5184,17 L12.5184,13 L8.6784,13 L8.6784,7 L10.5984,7 L10.5984,11 L12.5184,11 L12.5184,7 L14.4384,7 L14.4384,17 Z" id="path-1"></path>
    </defs>
    <g id="icon/image/looks_4_24px" stroke="none" stroke-width="1" fill="none" fill-rule="evenodd">
        <mask id="mask-2" fill="white">
            <use xlink:href="#path-1"></use>
        </mask>
        <g fill-rule="nonzero"></g>
        <g id="✱-/-Color-/-Icons-/-Black-/-Inactive" mask="url(#mask-2)" fill="#000000" fill-opacity="0.54">
            <rect id="Rectangle" x="0" y="0" width="24" height="24"></rect>
        </g>
    </g>
</svg>