<?xml version="1.0" encoding="UTF-8"?>
<svg width="24px" height="24px" viewBox="0 0 24 24" version="1.1" xmlns="http://www.w3.org/2000/svg" xmlns:xlink="http://www.w3.org/1999/xlink">
    <!-- Generator: Sketch 50 (54983) - http://www.bohemiancoding.com/sketch -->
    <title>icon/image/looks_24px</title>
    <desc>Created with Sketch.</desc>
    <defs>
        <path d="M12,10 C8.14,10 5,13.14 5,17 L7,17 C7,14.24 9.24,12 12,12 C14.76,12 17,14.24 17,17 L19,17 C19,13.14 15.86,10 12,10 Z M12,6 C5.93,6 1,10.93 1,17 L3,17 C3,12.04 7.04,8 12,8 C16.96,8 21,12.04 21,17 L23,17 C23,10.93 18.07,6 12,6 Z" id="path-1"></path>
    </defs>
    <g id="icon/image/looks_24px" stroke="none" stroke-width="1" fill="none" fill-rule="evenodd">
        <mask id="mask-2" fill="white">
            <use xlink:href="#path-1"></use>
        </mask>
        <g fill-rule="nonzero"></g>
        <g id="✱-/-Color-/-Icons-/-Black-/-Inactive" mask="url(#mask-2)" fill="#000000" fill-opacity="0.54">
            <rect id="Rectangle" x="0" y="0" width="24" height="24"></rect>
        </g>
    </g>
</svg>