<?xml version="1.0" encoding="UTF-8"?>
<svg width="24px" height="24px" viewBox="0 0 24 24" version="1.1" xmlns="http://www.w3.org/2000/svg" xmlns:xlink="http://www.w3.org/1999/xlink">
    <!-- Generator: Sketch 50 (54983) - http://www.bohemiancoding.com/sketch -->
    <title>icon/image/looks_3_24px</title>
    <desc>Created with Sketch.</desc>
    <defs>
        <path d="M19.01,3 L5.01,3 C3.91,3 3.01,3.9 3.01,5 L3.01,19 C3.01,20.1 3.91,21 5.01,21 L19.01,21 C20.11,21 21,20.1 21,19 L21,5 C21,3.9 20.11,3 19.01,3 Z M15.01,10.5 C15.01,11.33 14.34,12 13.51,12 C14.34,12 15.01,12.67 15.01,13.5 L15.01,15 C15.01,16.11 14.11,17 13.01,17 L9,17 L9,15 L13,15 L13,13 L11,13 L11,11 L13,11 L13,9 L9,9 L9,7 L13.01,7 C14.11,7 15.01,7.89 15.01,9 L15.01,10.5 Z" id="path-1"></path>
    </defs>
    <g id="icon/image/looks_3_24px" stroke="none" stroke-width="1" fill="none" fill-rule="evenodd">
        <mask id="mask-2" fill="white">
            <use xlink:href="#path-1"></use>
        </mask>
        <g fill-rule="nonzero"></g>
        <g id="✱-/-Color-/-Icons-/-Black-/-Inactive" mask="url(#mask-2)" fill="#000000" fill-opacity="0.54">
            <rect id="Rectangle" x="0" y="0" width="24" height="24"></rect>
        </g>
    </g>
</svg>