<?xml version="1.0" encoding="UTF-8"?>
<svg width="24px" height="24px" viewBox="0 0 24 24" version="1.1" xmlns="http://www.w3.org/2000/svg" xmlns:xlink="http://www.w3.org/1999/xlink">
    <!-- Generator: Sketch 50 (54983) - http://www.bohemiancoding.com/sketch -->
    <title>icon/image/nature_people_24px</title>
    <desc>Created with Sketch.</desc>
    <defs>
        <path d="M22.17,9.17 C22.17,5.3 19.04,2.17 15.17,2.17 C11.3,2.17 8.17,5.3 8.17,9.17 C8.17,12.64 10.69,15.51 14,16.06 L14,20 L6,20 L6,17 L7,17 L7,13 C7,12.45 6.55,12 6,12 L3,12 C2.45,12 2,12.45 2,13 L2,17 L3,17 L3,22 L19,22 L19,20 L16,20 L16,16.12 C19.47,15.71 22.17,12.76 22.17,9.17 Z M4.5,11 C5.33,11 6,10.33 6,9.5 C6,8.67 5.33,8 4.5,8 C3.67,8 3,8.67 3,9.5 C3,10.33 3.67,11 4.5,11 Z" id="path-1"></path>
    </defs>
    <g id="icon/image/nature_people_24px" stroke="none" stroke-width="1" fill="none" fill-rule="evenodd">
        <mask id="mask-2" fill="white">
            <use xlink:href="#path-1"></use>
        </mask>
        <g fill-rule="nonzero"></g>
        <g id="✱-/-Color-/-Icons-/-Black-/-Inactive" mask="url(#mask-2)" fill="#000000" fill-opacity="0.54">
            <rect id="Rectangle" x="0" y="0" width="24" height="24"></rect>
        </g>
    </g>
</svg>