<?xml version="1.0" encoding="UTF-8"?>
<svg width="24px" height="24px" viewBox="0 0 24 24" version="1.1" xmlns="http://www.w3.org/2000/svg" xmlns:xlink="http://www.w3.org/1999/xlink">
    <!-- Generator: Sketch 50 (54983) - http://www.bohemiancoding.com/sketch -->
    <title>icon/image/rotate_right_24px</title>
    <desc>Created with Sketch.</desc>
    <defs>
        <path d="M15.55,5.55 L11,1 L11,4.07 C7.06,4.56 4,7.92 4,12 C4,16.08 7.05,19.44 11,19.93 L11,17.91 C8.16,17.43 6,14.97 6,12 C6,9.03 8.16,6.57 11,6.09 L11,10 L15.55,5.55 Z M19.93,11 C19.76,9.61 19.21,8.27 18.31,7.11 L16.89,8.53 C17.43,9.28 17.77,10.13 17.91,11 L19.93,11 Z M13,17.9 L13,19.92 C14.39,19.75 15.74,19.21 16.9,18.31 L15.46,16.87 C14.71,17.41 13.87,17.76 13,17.9 Z M16.89,15.48 L18.31,16.89 C19.21,15.73 19.76,14.39 19.93,13 L17.91,13 C17.77,13.87 17.43,14.72 16.89,15.48 Z" id="path-1"></path>
    </defs>
    <g id="icon/image/rotate_right_24px" stroke="none" stroke-width="1" fill="none" fill-rule="evenodd">
        <mask id="mask-2" fill="white">
            <use xlink:href="#path-1"></use>
        </mask>
        <g fill-rule="nonzero"></g>
        <g id="✱-/-Color-/-Icons-/-Black-/-Inactive" mask="url(#mask-2)" fill="#000000" fill-opacity="0.54">
            <rect id="Rectangle" x="0" y="0" width="24" height="24"></rect>
        </g>
    </g>
</svg>