<?xml version="1.0" encoding="UTF-8"?>
<svg width="24px" height="24px" viewBox="0 0 24 24" version="1.1" xmlns="http://www.w3.org/2000/svg" xmlns:xlink="http://www.w3.org/1999/xlink">
    <!-- Generator: Sketch 50 (54983) - http://www.bohemiancoding.com/sketch -->
    <title>icon/image/rotate_left_24px</title>
    <desc>Created with Sketch.</desc>
    <defs>
        <path d="M7.11,8.53 L5.7,7.11 C4.8,8.27 4.24,9.61 4.07,11 L6.09,11 C6.23,10.13 6.58,9.28 7.11,8.53 Z M6.09,13 L4.07,13 C4.24,14.39 4.79,15.73 5.69,16.89 L7.1,15.47 C6.58,14.72 6.23,13.88 6.09,13 Z M7.1,18.32 C8.26,19.22 9.61,19.76 11,19.93 L11,17.9 C10.13,17.75 9.29,17.41 8.54,16.87 L7.1,18.32 Z M13,4.07 L13,1 L8.45,5.55 L13,10 L13,6.09 C15.84,6.57 18,9.03 18,12 C18,14.97 15.84,17.43 13,17.91 L13,19.93 C16.95,19.44 20,16.08 20,12 C20,7.92 16.95,4.56 13,4.07 Z" id="path-1"></path>
    </defs>
    <g id="icon/image/rotate_left_24px" stroke="none" stroke-width="1" fill="none" fill-rule="evenodd">
        <mask id="mask-2" fill="white">
            <use xlink:href="#path-1"></use>
        </mask>
        <g fill-rule="nonzero"></g>
        <g id="✱-/-Color-/-Icons-/-Black-/-Inactive" mask="url(#mask-2)" fill="#000000" fill-opacity="0.54">
            <rect id="Rectangle" x="0" y="0" width="24" height="24"></rect>
        </g>
    </g>
</svg>