<?xml version="1.0" encoding="UTF-8"?>
<svg width="24px" height="24px" viewBox="0 0 24 24" version="1.1" xmlns="http://www.w3.org/2000/svg" xmlns:xlink="http://www.w3.org/1999/xlink">
    <!-- Generator: Sketch 50 (54983) - http://www.bohemiancoding.com/sketch -->
    <title>icon/image/rotate_90_degrees_ccw_24px</title>
    <desc>Created with Sketch.</desc>
    <defs>
        <path d="M7.34,6.41 L0.86,12.9 L7.35,19.38 L13.84,12.9 L7.34,6.41 Z M3.69,12.9 L7.35,9.24 L11,12.9 L7.34,16.56 L3.69,12.9 Z M19.36,6.64 C17.61,4.88 15.3,4 13,4 L13,0.76 L8.76,5 L13,9.24 L13,6 C14.79,6 16.58,6.68 17.95,8.05 C20.68,10.78 20.68,15.22 17.95,17.95 C16.58,19.32 14.79,20 13,20 C12.03,20 11.06,19.79 10.16,19.39 L8.67,20.88 C10.02,21.62 11.51,22 13,22 C15.3,22 17.61,21.12 19.36,19.36 C22.88,15.85 22.88,10.15 19.36,6.64 Z" id="path-1"></path>
    </defs>
    <g id="icon/image/rotate_90_degrees_ccw_24px" stroke="none" stroke-width="1" fill="none" fill-rule="evenodd">
        <mask id="mask-2" fill="white">
            <use xlink:href="#path-1"></use>
        </mask>
        <g fill-rule="nonzero"></g>
        <g id="✱-/-Color-/-Icons-/-Black-/-Inactive" mask="url(#mask-2)" fill="#000000" fill-opacity="0.54">
            <rect id="Rectangle" x="0" y="0" width="24" height="24"></rect>
        </g>
    </g>
</svg>