<?xml version="1.0" encoding="UTF-8"?>
<svg width="24px" height="24px" viewBox="0 0 24 24" version="1.1" xmlns="http://www.w3.org/2000/svg" xmlns:xlink="http://www.w3.org/1999/xlink">
    <!-- Generator: Sketch 50 (54983) - http://www.bohemiancoding.com/sketch -->
    <title>icon/image/shutter_speed_24px</title>
    <desc>Created with Sketch.</desc>
    <defs>
        <path d="M15,1 L9,1 L9,3 L15,3 L15,1 Z M19.03,7.39 L20.45,5.97 C20.02,5.46 19.55,4.98 19.04,4.56 L17.62,5.98 C16.07,4.74 14.12,4 12,4 C7.03,4 3,8.03 3,13 C3,17.97 7.02,22 12,22 C16.98,22 21,17.97 21,13 C21,10.88 20.26,8.93 19.03,7.39 Z M12,20 C8.13,20 5,16.87 5,13 C5,9.13 8.13,6 12,6 C15.87,6 19,9.13 19,13 C19,16.87 15.87,20 12,20 Z M11.68,15 L6.35,15 C6.92,16.62 8.17,17.92 9.76,18.56 L9.65,18.5 L11.68,15 Z M17.65,11 C17.08,9.4 15.87,8.11 14.31,7.46 L12.26,11 L17.65,11 Z M10.61,18.83 C11.06,18.94 11.52,19 12,19 C13.34,19 14.57,18.55 15.57,17.81 L13.46,13.91 L10.61,18.83 Z M7.55,8.99 C6.59,10.05 6,11.46 6,13 C6,13.34 6.04,13.67 6.09,14 L10.81,14 L7.55,8.99 Z M16.34,17.13 C17.37,16.06 18,14.6 18,13 C18,12.66 17.96,12.33 17.91,12 L13.57,12 L16.34,17.13 Z M13.33,7.15 C12.9,7.06 12.46,7 12,7 C10.6,7 9.31,7.49 8.29,8.29 L10.61,11.85 L13.33,7.15 Z" id="path-1"></path>
    </defs>
    <g id="icon/image/shutter_speed_24px" stroke="none" stroke-width="1" fill="none" fill-rule="evenodd">
        <mask id="mask-2" fill="white">
            <use xlink:href="#path-1"></use>
        </mask>
        <g fill-rule="nonzero"></g>
        <g id="✱-/-Color-/-Icons-/-Black-/-Inactive" mask="url(#mask-2)" fill="#000000" fill-opacity="0.54">
            <rect id="Rectangle" x="0" y="0" width="24" height="24"></rect>
        </g>
    </g>
</svg>