<?xml version="1.0" encoding="UTF-8"?>
<svg width="24px" height="24px" viewBox="0 0 24 24" version="1.1" xmlns="http://www.w3.org/2000/svg" xmlns:xlink="http://www.w3.org/1999/xlink">
    <!-- Generator: Sketch 50 (54983) - http://www.bohemiancoding.com/sketch -->
    <title>icon/image/style_24px</title>
    <desc>Created with Sketch.</desc>
    <defs>
        <path d="M2.53,19.65 L3.87,20.21 L3.87,11.18 L1.44,17.04 C1.03,18.06 1.52,19.23 2.53,19.65 Z M22.03,15.95 L17.07,3.98 C16.76,3.23 16.03,2.77 15.26,2.75 C15,2.75 14.73,2.79 14.47,2.9 L7.1,5.95 C6.35,6.26 5.89,6.98 5.87,7.75 C5.86,8.02 5.91,8.29 6.02,8.55 L10.98,20.52 C11.29,21.28 12.03,21.74 12.81,21.75 C13.07,21.75 13.33,21.7 13.58,21.6 L20.94,18.55 C21.96,18.13 22.45,16.96 22.03,15.95 Z M7.88,8.75 C7.33,8.75 6.88,8.3 6.88,7.75 C6.88,7.2 7.33,6.75 7.88,6.75 C8.43,6.75 8.88,7.2 8.88,7.75 C8.88,8.3 8.43,8.75 7.88,8.75 Z M5.88,19.75 C5.88,20.85 6.78,21.75 7.88,21.75 L9.33,21.75 L5.88,13.41 L5.88,19.75 Z" id="path-1"></path>
    </defs>
    <g id="icon/image/style_24px" stroke="none" stroke-width="1" fill="none" fill-rule="evenodd">
        <mask id="mask-2" fill="white">
            <use xlink:href="#path-1"></use>
        </mask>
        <g fill-rule="nonzero"></g>
        <g id="✱-/-Color-/-Icons-/-Black-/-Inactive" mask="url(#mask-2)" fill="#000000" fill-opacity="0.54">
            <rect id="Rectangle" x="0" y="0" width="24" height="24"></rect>
        </g>
    </g>
</svg>