<?xml version="1.0" encoding="UTF-8"?>
<svg width="24px" height="24px" viewBox="0 0 24 24" version="1.1" xmlns="http://www.w3.org/2000/svg" xmlns:xlink="http://www.w3.org/1999/xlink">
    <!-- Generator: Sketch 50 (54983) - http://www.bohemiancoding.com/sketch -->
    <title>icon/image/switch_video_24px</title>
    <desc>Created with Sketch.</desc>
    <defs>
        <path d="M18,9.5 L18,6 C18,5.45 17.55,5 17,5 L3,5 C2.45,5 2,5.45 2,6 L2,18 C2,18.55 2.45,19 3,19 L17,19 C17.55,19 18,18.55 18,18 L18,14.5 L22,18.5 L22,5.5 L18,9.5 Z M13,15.5 L13,13 L7,13 L7,15.5 L3.5,12 L7,8.5 L7,11 L13,11 L13,8.5 L16.5,12 L13,15.5 Z" id="path-1"></path>
    </defs>
    <g id="icon/image/switch_video_24px" stroke="none" stroke-width="1" fill="none" fill-rule="evenodd">
        <mask id="mask-2" fill="white">
            <use xlink:href="#path-1"></use>
        </mask>
        <g fill-rule="nonzero"></g>
        <g id="✱-/-Color-/-Icons-/-Black-/-Inactive" mask="url(#mask-2)" fill="#000000" fill-opacity="0.54">
            <rect id="Rectangle" x="0" y="0" width="24" height="24"></rect>
        </g>
    </g>
</svg>