<?xml version="1.0" encoding="UTF-8"?>
<svg width="24px" height="24px" viewBox="0 0 24 24" version="1.1" xmlns="http://www.w3.org/2000/svg" xmlns:xlink="http://www.w3.org/1999/xlink">
    <!-- Generator: Sketch 50 (54983) - http://www.bohemiancoding.com/sketch -->
    <title>icon/image/tag_faces_24px</title>
    <desc>Created with Sketch.</desc>
    <defs>
        <path d="M12.01,2 C6.49,2 2.02,6.48 2.02,12 C2.02,17.52 6.49,22 12.01,22 C17.54,22 22.02,17.52 22.02,12 C22.02,6.48 17.54,2 12.01,2 Z M12.02,20 C7.6,20 4.02,16.42 4.02,12 C4.02,7.58 7.6,4 12.02,4 C16.44,4 20.02,7.58 20.02,12 C20.02,16.42 16.44,20 12.02,20 Z M15.52,11 C16.35,11 17.02,10.33 17.02,9.5 C17.02,8.67 16.35,8 15.52,8 C14.69,8 14.02,8.67 14.02,9.5 C14.02,10.33 14.69,11 15.52,11 Z M8.52,11 C9.35,11 10.02,10.33 10.02,9.5 C10.02,8.67 9.35,8 8.52,8 C7.69,8 7.02,8.67 7.02,9.5 C7.02,10.33 7.69,11 8.52,11 Z M12.02,17.5 C14.35,17.5 16.33,16.04 17.13,14 L6.91,14 C7.71,16.04 9.69,17.5 12.02,17.5 Z" id="path-1"></path>
    </defs>
    <g id="icon/image/tag_faces_24px" stroke="none" stroke-width="1" fill="none" fill-rule="evenodd">
        <mask id="mask-2" fill="white">
            <use xlink:href="#path-1"></use>
        </mask>
        <g fill-rule="nonzero"></g>
        <g id="✱-/-Color-/-Icons-/-Black-/-Inactive" mask="url(#mask-2)" fill="#000000" fill-opacity="0.54">
            <rect id="Rectangle" x="0" y="0" width="24" height="24"></rect>
        </g>
    </g>
</svg>