<?xml version="1.0" encoding="UTF-8"?>
<svg width="24px" height="24px" viewBox="0 0 24 24" version="1.1" xmlns="http://www.w3.org/2000/svg" xmlns:xlink="http://www.w3.org/1999/xlink">
    <!-- Generator: Sketch 50 (54983) - http://www.bohemiancoding.com/sketch -->
    <title>icon/image/timer_10_24px</title>
    <desc>Created with Sketch.</desc>
    <defs>
        <path d="M0.913846154,7.89833333 L0.913846154,9.50833333 L3.68307692,8.55 L3.68307692,17.75 L5.52923077,17.75 L5.52923077,6.25 L5.29846154,6.25 L0.913846154,7.89833333 Z M22.8646154,14.27125 C22.7353846,14.0029167 22.5415385,13.7633333 22.2830769,13.5620833 C22.0246154,13.3608333 21.72,13.1883333 21.3507692,13.0541667 C20.9815385,12.92 20.5661538,12.7954167 20.1046154,12.69 C19.7815385,12.6229167 19.5138462,12.54625 19.3015385,12.4695833 C19.0892308,12.3929167 18.9230769,12.31625 18.7938462,12.23 C18.6646154,12.14375 18.5815385,12.0479167 18.5353846,11.9425 C18.4892308,11.8370833 18.4615385,11.7125 18.4615385,11.56875 C18.4615385,11.4345833 18.4892308,11.3004167 18.5446154,11.1758333 C18.6,11.05125 18.6830769,10.93625 18.7938462,10.85 C18.9046154,10.7541667 19.0430769,10.6775 19.2092308,10.62 C19.3753846,10.5625 19.5784615,10.53375 19.8,10.53375 C20.0307692,10.53375 20.2338462,10.5720833 20.4092308,10.6391667 C20.5846154,10.70625 20.7323077,10.8020833 20.8523077,10.9170833 C20.9723077,11.0320833 21.0553846,11.16625 21.12,11.3195833 C21.1753846,11.4729167 21.2123077,11.62625 21.2123077,11.7891667 L23.0123077,11.7891667 C23.0123077,11.4154167 22.9384615,11.0704167 22.7907692,10.7445833 C22.6430769,10.41875 22.4307692,10.1408333 22.1538462,9.90125 C21.8769231,9.66166667 21.5446154,9.47958333 21.1476923,9.33583333 C20.7507692,9.19208333 20.2984615,9.125 19.8,9.125 C19.3292308,9.125 18.8953846,9.19208333 18.5169231,9.32625 C18.1384615,9.46041667 17.8061538,9.6425 17.5384615,9.8725 C17.2707692,10.1025 17.0676923,10.3708333 16.92,10.6775 C16.7723077,10.9841667 16.7076923,11.3004167 16.7076923,11.6454167 C16.7076923,11.9904167 16.7815385,12.3066667 16.92,12.5654167 C17.0584615,12.83375 17.2523077,13.06375 17.5107692,13.265 C17.76,13.46625 18.0646154,13.6291667 18.4153846,13.7729167 C18.7661538,13.9070833 19.1630769,14.0220833 19.5876923,14.1179167 C19.9476923,14.1945833 20.2430769,14.2808333 20.4646154,14.3670833 C20.6861538,14.4533333 20.8615385,14.5491667 20.9907692,14.645 C21.1107692,14.7408333 21.1938462,14.8558333 21.24,14.9708333 C21.2861538,15.0858333 21.3046154,15.2104167 21.3046154,15.3445833 C21.3046154,15.65125 21.1846154,15.8908333 20.9353846,16.0825 C20.6861538,16.2741667 20.3261538,16.3604167 19.8553846,16.3604167 C19.6523077,16.3604167 19.4584615,16.34125 19.2646154,16.28375 C19.0707692,16.2358333 18.8953846,16.1591667 18.7476923,16.05375 C18.5907692,15.9483333 18.4707692,15.8045833 18.3692308,15.6320833 C18.2676923,15.4595833 18.2123077,15.2391667 18.2030769,14.99 L16.4584615,14.99 C16.4584615,15.335 16.5323077,15.6704167 16.68,15.99625 C16.8276923,16.3220833 17.04,16.6191667 17.3261538,16.8875 C17.6123077,17.14625 17.9630769,17.3570833 18.3876923,17.52 C18.8123077,17.6829167 19.2923077,17.7595833 19.8461538,17.7595833 C20.3353846,17.7595833 20.7784615,17.7020833 21.1753846,17.5775 C21.5723077,17.4529167 21.9138462,17.2804167 22.2,17.06 C22.4861538,16.8395833 22.6984615,16.57125 22.8553846,16.2645833 C23.0123077,15.9579167 23.0861538,15.6225 23.0861538,15.24875 C23.0676923,14.8654167 23.0030769,14.5395833 22.8646154,14.27125 Z M13.6707692,7.25625 C13.3569231,6.87291667 12.9784615,6.58541667 12.5353846,6.41291667 C12.1015385,6.24041667 11.6030769,6.15416667 11.0676923,6.15416667 C10.5323077,6.15416667 10.0430769,6.24041667 9.6,6.41291667 C9.15692308,6.58541667 8.77846154,6.86333333 8.46461538,7.25625 C8.15076923,7.64916667 7.91076923,8.1475 7.73538462,8.78 C7.56923077,9.40291667 7.47692308,10.1695833 7.47692308,11.0704167 L7.47692308,12.9104167 C7.47692308,13.81125 7.56,14.5779167 7.73538462,15.2008333 C7.91076923,15.8333333 8.15076923,16.34125 8.47384615,16.7341667 C8.78769231,17.1270833 9.16615385,17.4145833 9.60923077,17.5870833 C10.0523077,17.7595833 10.5415385,17.8554167 11.0769231,17.8554167 C11.6215385,17.8554167 12.1107692,17.7691667 12.5446154,17.5870833 C12.9876923,17.4145833 13.3569231,17.1270833 13.6707692,16.7341667 C13.9846154,16.34125 14.2246154,15.8333333 14.3907692,15.2008333 C14.5569231,14.5779167 14.6492308,13.81125 14.6492308,12.9104167 L14.6492308,11.0704167 C14.6492308,10.1695833 14.5661538,9.40291667 14.3907692,8.78 C14.2246154,8.1475 13.9846154,7.63958333 13.6707692,7.25625 Z M12.8215385,13.1691667 C12.8215385,13.7441667 12.7846154,14.2329167 12.7107692,14.6354167 C12.6369231,15.0379167 12.5261538,15.36375 12.3784615,15.6129167 C12.2307692,15.8620833 12.0461538,16.0441667 11.8338462,16.1591667 C11.6215385,16.2741667 11.3630769,16.3316667 11.0769231,16.3316667 C10.8,16.3316667 10.5415385,16.2741667 10.32,16.1591667 C10.0984615,16.0441667 9.91384615,15.8620833 9.76615385,15.6129167 C9.61846154,15.36375 9.49846154,15.0379167 9.41538462,14.6354167 C9.33230769,14.2329167 9.29538462,13.7441667 9.29538462,13.1691667 L9.29538462,10.7733333 C9.29538462,10.1983333 9.33230769,9.70958333 9.41538462,9.31666667 C9.49846154,8.92375 9.60923077,8.6075 9.76615385,8.35833333 C9.91384615,8.11875 10.0984615,7.94625 10.32,7.83125 C10.5415385,7.72583333 10.7907692,7.66833333 11.0676923,7.66833333 C11.3538462,7.66833333 11.6030769,7.72583333 11.8153846,7.83125 C12.0369231,7.93666667 12.2215385,8.10916667 12.3692308,8.35833333 C12.5169231,8.59791667 12.6369231,8.91416667 12.7107692,9.30708333 C12.7846154,9.7 12.8307692,10.18875 12.8307692,10.76375 L12.8307692,13.1691667 L12.8215385,13.1691667 Z" id="path-1"></path>
    </defs>
    <g id="icon/image/timer_10_24px" stroke="none" stroke-width="1" fill="none" fill-rule="evenodd">
        <mask id="mask-2" fill="white">
            <use xlink:href="#path-1"></use>
        </mask>
        <g fill-rule="nonzero"></g>
        <g id="✱-/-Color-/-Icons-/-Black-/-Inactive" mask="url(#mask-2)" fill="#000000" fill-opacity="0.54">
            <rect id="Rectangle" x="0" y="0" width="24" height="24"></rect>
        </g>
    </g>
</svg>