<?xml version="1.0" encoding="UTF-8"?>
<svg width="24px" height="24px" viewBox="0 0 24 24" version="1.1" xmlns="http://www.w3.org/2000/svg" xmlns:xlink="http://www.w3.org/1999/xlink">
    <!-- Generator: Sketch 50 (54983) - http://www.bohemiancoding.com/sketch -->
    <title>icon/image/wb_auto_24px</title>
    <desc>Created with Sketch.</desc>
    <defs>
        <path d="M6.85,12.65 L9.15,12.65 L8,9 L6.85,12.65 Z M22,7 L20.8,13.29 L19.3,7 L17.7,7 L16.21,13.29 L15,7 L14.24,7 C12.77,5.17 10.53,4 8,4 C3.58,4 0,7.58 0,12 C0,16.42 3.58,20 8,20 C11.13,20 13.84,18.19 15.15,15.57 L15.25,16 L17,16 L18.5,9.9 L20,16 L21.75,16 L23.8,7 L22,7 Z M10.3,16 L9.6,14 L6.4,14 L5.7,16 L3.8,16 L7,7 L9,7 L12.2,16 L10.3,16 Z" id="path-1"></path>
    </defs>
    <g id="icon/image/wb_auto_24px" stroke="none" stroke-width="1" fill="none" fill-rule="evenodd">
        <mask id="mask-2" fill="white">
            <use xlink:href="#path-1"></use>
        </mask>
        <g fill-rule="nonzero"></g>
        <g id="✱-/-Color-/-Icons-/-Black-/-Inactive" mask="url(#mask-2)" fill="#000000" fill-opacity="0.54">
            <rect id="Rectangle" x="0" y="0" width="24" height="24"></rect>
        </g>
    </g>
</svg>