<?xml version="1.0" encoding="UTF-8"?>
<svg width="24px" height="24px" viewBox="0 0 24 24" version="1.1" xmlns="http://www.w3.org/2000/svg" xmlns:xlink="http://www.w3.org/1999/xlink">
    <!-- Generator: Sketch 50 (54983) - http://www.bohemiancoding.com/sketch -->
    <title>icon/device/bluetooth_disabled_24px_rounded</title>
    <desc>Created with Sketch.</desc>
    <defs>
        <path d="M19.2943689,17.8862328 L6.11436891,4.69623277 C5.92753739,4.5089801 5.67388655,4.40374717 5.40936891,4.40374717 C5.14485127,4.40374717 4.89120044,4.5089801 4.70436891,4.69623277 C4.31436891,5.08623277 4.31436891,5.71623277 4.70436891,6.10623277 L10.5943689,11.9962328 L5.70436891,16.8862328 C5.31436891,17.2762328 5.31436891,17.9062328 5.70436891,18.2962328 C6.09436891,18.6862328 6.72436891,18.6862328 7.11436891,18.2962328 L11.0043689,14.4062328 L11.0043689,20.5862328 C11.0043689,21.4762328 12.0843689,21.9262328 12.7143689,21.2962328 L16.3043689,17.7062328 L17.8943689,19.2962328 C18.2843689,19.6862328 18.9143689,19.6862328 19.3043689,19.2962328 C19.6843689,18.9062328 19.6843689,18.2662328 19.2943689,17.8862328 Z M13.0043689,18.1662328 L13.0043689,14.4062328 L14.8843689,16.2862328 L13.0043689,18.1662328 Z M13.0043689,5.82623277 L14.8843689,7.70623277 L13.4143689,9.17623277 L14.8243689,10.5862328 L17.0043689,8.41623277 C17.3943689,8.02623277 17.3943689,7.39623277 17.0043689,6.99623277 L12.7143689,2.70623277 C12.0843689,2.07623277 11.0043689,2.51623277 11.0043689,3.40623277 L11.0043689,6.76623277 L13.0043689,8.76623277 L13.0043689,5.82623277 Z" id="path-1"></path>
    </defs>
    <g id="icon/device/bluetooth_disabled_24px" stroke="none" stroke-width="1" fill="none" fill-rule="evenodd">
        <mask id="mask-2" fill="white">
            <use xlink:href="#path-1"></use>
        </mask>
        <g fill-rule="nonzero"></g>
        <g id="✱-/-Color-/-Icons-/-Black-/-Inactive" mask="url(#mask-2)" fill="#000000" fill-opacity="0.54">
            <rect id="Rectangle" x="0" y="0" width="24" height="24"></rect>
        </g>
    </g>
</svg>