<?xml version="1.0" encoding="UTF-8"?>
<svg width="24px" height="24px" viewBox="0 0 24 24" version="1.1" xmlns="http://www.w3.org/2000/svg" xmlns:xlink="http://www.w3.org/1999/xlink">
    <!-- Generator: Sketch 50 (54983) - http://www.bohemiancoding.com/sketch -->
    <title>icon/device/bluetooth_searching_24px_rounded</title>
    <desc>Created with Sketch.</desc>
    <defs>
        <path d="M15.77125,10.2762328 L14.39125,11.6562328 C14.19125,11.8562328 14.19125,12.1662328 14.39125,12.3662328 L15.77125,13.7462328 C16.05125,14.0262328 16.52125,13.8962328 16.62125,13.5162328 C16.73125,13.0162328 16.79125,12.5162328 16.79125,11.9962328 C16.79125,11.4862328 16.73125,10.9862328 16.61125,10.5162328 C16.52125,10.1362328 16.05125,9.99623277 15.77125,10.2762328 Z M19.89125,7.77623277 C19.64125,7.22623277 18.91125,7.10623277 18.49125,7.53623277 C18.23125,7.79623277 18.18125,8.17623277 18.32125,8.51623277 C18.78125,9.58623277 19.04125,10.7562328 19.04125,11.9862328 C19.04125,13.2262328 18.78125,14.4062328 18.31125,15.4762328 C18.17125,15.7962328 18.22125,16.1662328 18.47125,16.4162328 C18.88125,16.8262328 19.57125,16.7062328 19.82125,16.1862328 C20.45125,14.8862328 20.80125,13.4262328 20.80125,11.8862328 C20.79125,10.4362328 20.47125,9.03623277 19.89125,7.77623277 Z M11.20125,11.9962328 L14.79125,8.41623277 C15.18125,8.02623277 15.18125,7.39623277 14.79125,6.99623277 L10.50125,2.70623277 C9.87125,2.07623277 8.79125,2.51623277 8.79125,3.40623277 L8.79125,9.58623277 L4.90125,5.69623277 C4.71441847,5.5089801 4.46076764,5.40374717 4.19625,5.40374717 C3.93173236,5.40374717 3.67808153,5.5089801 3.49125,5.69623277 C3.10125,6.08623277 3.10125,6.71623277 3.49125,7.10623277 L8.38125,11.9962328 L3.49125,16.8862328 C3.10125,17.2762328 3.10125,17.9062328 3.49125,18.2962328 C3.88125,18.6862328 4.51125,18.6862328 4.90125,18.2962328 L8.79125,14.4062328 L8.79125,20.5862328 C8.79125,21.4762328 9.87125,21.9262328 10.50125,21.2962328 L14.79125,16.9962328 C15.18125,16.6062328 15.18125,15.9762328 14.79125,15.5762328 L11.20125,11.9962328 Z M10.79125,5.82623277 L12.67125,7.70623277 L10.79125,9.58623277 L10.79125,5.82623277 Z M10.79125,18.1662328 L10.79125,14.4062328 L12.67125,16.2862328 L10.79125,18.1662328 Z" id="path-1"></path>
    </defs>
    <g id="icon/device/bluetooth_searching_24px" stroke="none" stroke-width="1" fill="none" fill-rule="evenodd">
        <mask id="mask-2" fill="white">
            <use xlink:href="#path-1"></use>
        </mask>
        <g fill-rule="nonzero"></g>
        <g id="✱-/-Color-/-Icons-/-Black-/-Inactive" mask="url(#mask-2)" fill="#000000" fill-opacity="0.54">
            <rect id="Rectangle" x="0" y="0" width="24" height="24"></rect>
        </g>
    </g>
</svg>