<?xml version="1.0" encoding="UTF-8"?>
<svg width="24px" height="24px" viewBox="0 0 24 24" version="1.1" xmlns="http://www.w3.org/2000/svg" xmlns:xlink="http://www.w3.org/1999/xlink">
    <!-- Generator: Sketch 50 (54983) - http://www.bohemiancoding.com/sketch -->
    <title>icon/device/bluetooth_connected_24px_rounded</title>
    <desc>Created with Sketch.</desc>
    <defs>
        <path d="M6,12.9962328 C6.55,12.4462328 6.55,11.5562328 6,11.0062328 L6,10.9962328 C5.45,10.4462328 4.55,10.4462328 4,10.9962328 C3.45,11.5462328 3.45,12.4462328 4,12.9962328 C4.55,13.5462328 5.45,13.5462328 6,12.9962328 Z M20,10.9962328 C19.44,10.4362328 18.55,10.4362328 18,10.9862328 L18,10.9962328 C17.45,11.5462328 17.45,12.4362328 18,12.9862328 L18,12.9962328 C18.55,13.5462328 19.44,13.5462328 19.99,12.9962328 L20,12.9962328 C20.55,12.4462328 20.55,11.5462328 20,10.9962328 Z M17,6.99623277 L12.71,2.70623277 C12.08,2.07623277 11,2.51623277 11,3.40623277 L11,9.58623277 L7.11,5.69623277 C6.92316847,5.5089801 6.66951764,5.40374717 6.405,5.40374717 C6.14048236,5.40374717 5.88683153,5.5089801 5.7,5.69623277 C5.31,6.08623277 5.31,6.71623277 5.7,7.10623277 L10.59,11.9962328 L5.7,16.8862328 C5.31,17.2762328 5.31,17.9062328 5.7,18.2962328 C6.09,18.6862328 6.72,18.6862328 7.11,18.2962328 L11,14.4062328 L11,20.5862328 C11,21.4762328 12.08,21.9262328 12.71,21.2962328 L17,16.9962328 C17.39,16.6062328 17.39,15.9762328 17,15.5762328 L13.41,11.9962328 L17,8.41623277 C17.39,8.02623277 17.39,7.38623277 17,6.99623277 Z M14.88,16.2862328 L13,18.1662328 L13,14.4062328 L14.88,16.2862328 Z M13,9.58623277 L13,5.82623277 L14.88,7.70623277 L13,9.58623277 Z" id="path-1"></path>
    </defs>
    <g id="icon/device/bluetooth_connected_24px" stroke="none" stroke-width="1" fill="none" fill-rule="evenodd">
        <mask id="mask-2" fill="white">
            <use xlink:href="#path-1"></use>
        </mask>
        <g fill-rule="nonzero"></g>
        <g id="✱-/-Color-/-Icons-/-Black-/-Inactive" mask="url(#mask-2)" fill="#000000" fill-opacity="0.54">
            <rect id="Rectangle" x="0" y="0" width="24" height="24"></rect>
        </g>
    </g>
</svg>