<?xml version="1.0" encoding="UTF-8"?>
<svg width="24px" height="24px" viewBox="0 0 24 24" version="1.1" xmlns="http://www.w3.org/2000/svg" xmlns:xlink="http://www.w3.org/1999/xlink">
    <!-- Generator: Sketch 50 (54983) - http://www.bohemiancoding.com/sketch -->
    <title>icon/device/brightness_medium_24px_rounded</title>
    <desc>Created with Sketch.</desc>
    <defs>
        <path d="M20,15.31 L21.9,13.41 C22.68,12.63 22.68,11.36 21.9,10.58 L20,8.69 L20,6 C20,4.9 19.1,4 18,4 L15.31,4 L13.41,2.1 C12.63,1.32 11.36,1.32 10.58,2.1 L8.69,4 L6,4 C4.9,4 4,4.9 4,6 L4,8.69 L2.1,10.59 C1.32,11.37 1.32,12.64 2.1,13.42 L4,15.32 L4,18 C4,19.1 4.9,20 6,20 L8.69,20 L10.59,21.9 C11.37,22.68 12.64,22.68 13.42,21.9 L15.32,20 L18,20 C19.1,20 20,19.1 20,18 L20,15.31 Z M12,16.9 L12,7.1 C12,6.49 12.55,5.99 13.15,6.11 C15.91,6.65 18,9.08 18,12 C18,14.92 15.91,17.35 13.15,17.89 C12.55,18.01 12,17.51 12,16.9 Z" id="path-1"></path>
    </defs>
    <g id="icon/device/brightness_medium_24px" stroke="none" stroke-width="1" fill="none" fill-rule="evenodd">
        <mask id="mask-2" fill="white">
            <use xlink:href="#path-1"></use>
        </mask>
        <g fill-rule="nonzero"></g>
        <g id="✱-/-Color-/-Icons-/-Black-/-Inactive" mask="url(#mask-2)" fill="#000000" fill-opacity="0.54">
            <rect id="Rectangle" x="0" y="0" width="24" height="24"></rect>
        </g>
    </g>
</svg>