<?xml version="1.0" encoding="UTF-8"?>
<svg width="24px" height="24px" viewBox="0 0 24 24" version="1.1" xmlns="http://www.w3.org/2000/svg" xmlns:xlink="http://www.w3.org/1999/xlink">
    <!-- Generator: Sketch 50 (54983) - http://www.bohemiancoding.com/sketch -->
    <title>icon/device/data_usage_24px_rounded</title>
    <desc>Created with Sketch.</desc>
    <defs>
        <path d="M13.0011775,3.69058186 L13.0011775,3.71058186 C13.0011775,4.38058186 13.4511775,4.94058186 14.0811775,5.14058186 C16.9311775,6.03058186 19.0011775,8.68058186 19.0011775,11.8205819 C19.0011775,12.3405819 18.9411775,12.8305819 18.8311775,13.3105819 C18.6911775,13.9505819 18.9511775,14.6105819 19.5211775,14.9505819 L19.5311775,14.9605819 C20.3911775,15.4605819 21.5111775,15.0105819 21.7411775,14.0505819 C21.9111775,13.3305819 22.0011775,12.5805819 22.0011775,11.8205819 C22.0011775,7.32058186 19.0211775,3.50058186 14.9211775,2.25058186 C13.9711775,1.96058186 13.0011775,2.69058186 13.0011775,3.69058186 Z M10.9411775,18.7405819 C7.95117751,18.3105819 5.52117751,15.8805819 5.08117751,12.9005819 C4.54117751,9.30058186 6.74117751,6.13058186 9.91117751,5.14058186 C10.5511775,4.95058186 11.0011775,4.38058186 11.0011775,3.71058186 L11.0011775,3.69058186 C11.0011775,2.69058186 10.0311775,1.96058186 9.07117751,2.25058186 C4.56117751,3.63058186 1.41117751,8.11058186 2.09117751,13.2105819 C2.68117751,17.5905819 6.22117751,21.1305819 10.6011775,21.7205819 C13.7411775,22.1405819 16.6411775,21.1105819 18.7311775,19.1905819 C19.4711775,18.5105819 19.3411775,17.3005819 18.4711775,16.8005819 C17.8911775,16.4605819 17.1711775,16.5705819 16.6711775,17.0205819 C15.2011775,18.3605819 13.1611775,19.0705819 10.9411775,18.7405819 Z" id="path-1"></path>
    </defs>
    <g id="icon/device/data_usage_24px" stroke="none" stroke-width="1" fill="none" fill-rule="evenodd">
        <mask id="mask-2" fill="white">
            <use xlink:href="#path-1"></use>
        </mask>
        <g fill-rule="nonzero"></g>
        <g id="✱-/-Color-/-Icons-/-Black-/-Inactive" mask="url(#mask-2)" fill="#000000" fill-opacity="0.54">
            <rect id="Rectangle" x="0" y="0" width="24" height="24"></rect>
        </g>
    </g>
</svg>