<?xml version="1.0" encoding="UTF-8"?>
<svg width="24px" height="24px" viewBox="0 0 24 24" version="1.1" xmlns="http://www.w3.org/2000/svg" xmlns:xlink="http://www.w3.org/1999/xlink">
    <!-- Generator: Sketch 50 (54983) - http://www.bohemiancoding.com/sketch -->
    <title>icon/device/developer_mode_24px_rounded</title>
    <desc>Created with Sketch.</desc>
    <defs>
        <path d="M7.005,5 L17.005,5 L17.005,6 C17.005,6.55 17.455,7 18.005,7 C18.555,7 19.005,6.55 19.005,6 L19.005,3 C19.005,1.9 18.105,1.01 17.005,1.01 L7.005,1 C5.905,1 5.005,1.9 5.005,3 L5.005,6 C5.005,6.55 5.455,7 6.005,7 C6.555,7 7.005,6.55 7.005,6 L7.005,5 Z M16.125,15.88 L19.295,12.71 C19.685,12.32 19.685,11.69 19.295,11.3 L16.125,8.13 C15.735,7.74 15.095,7.74 14.705,8.13 C14.315,8.52 14.315,9.15 14.705,9.54 L17.175,12 L14.705,14.47 C14.315,14.86 14.315,15.49 14.705,15.88 C15.095,16.27 15.735,16.27 16.125,15.88 Z M9.295,14.46 L6.835,12 L9.295,9.54 C9.685,9.15 9.685,8.52 9.295,8.13 C8.905,7.74 8.265,7.74 7.875,8.13 L4.705,11.3 C4.315,11.69 4.315,12.32 4.705,12.71 L7.875,15.88 C8.265,16.27 8.905,16.27 9.295,15.88 C9.695,15.49 9.685,14.85 9.295,14.46 Z M17.005,19 L7.005,19 L7.005,18 C7.005,17.45 6.555,17 6.005,17 C5.455,17 5.005,17.45 5.005,18 L5.005,21 C5.005,22.1 5.905,23 7.005,23 L17.005,23 C18.105,23 19.005,22.1 19.005,21 L19.005,18 C19.005,17.45 18.555,17 18.005,17 C17.455,17 17.005,17.45 17.005,18 L17.005,19 Z" id="path-1"></path>
    </defs>
    <g id="icon/device/developer_mode_24px" stroke="none" stroke-width="1" fill="none" fill-rule="evenodd">
        <mask id="mask-2" fill="white">
            <use xlink:href="#path-1"></use>
        </mask>
        <g fill-rule="nonzero"></g>
        <g id="✱-/-Color-/-Icons-/-Black-/-Inactive" mask="url(#mask-2)" fill="#000000" fill-opacity="0.54">
            <rect id="Rectangle" x="0" y="0" width="24" height="24"></rect>
        </g>
    </g>
</svg>