<?xml version="1.0" encoding="UTF-8"?>
<svg width="24px" height="24px" viewBox="0 0 24 24" version="1.1" xmlns="http://www.w3.org/2000/svg" xmlns:xlink="http://www.w3.org/1999/xlink">
    <!-- Generator: Sketch 50 (54983) - http://www.bohemiancoding.com/sketch -->
    <title>icon/device/dvr_24px_rounded</title>
    <desc>Created with Sketch.</desc>
    <defs>
        <path d="M21,3 L3,3 C1.9,3 1,3.9 1,5 L1,17 C1,18.1 1.9,19 3,19 L8,19 L8,20 C8,20.55 8.45,21 9,21 L15,21 C15.55,21 16,20.55 16,20 L16,19 L21,19 C22.1,19 23,18.1 23,17 L23,5 C23,3.9 22.1,3 21,3 Z M20,17 L4,17 C3.45,17 3,16.55 3,16 L3,6 C3,5.45 3.45,5 4,5 L20,5 C20.55,5 21,5.45 21,6 L21,16 C21,16.55 20.55,17 20,17 Z M18,8 L9,8 C8.45,8 8,8.45 8,9 C8,9.55 8.45,10 9,10 L18,10 C18.55,10 19,9.55 19,9 C19,8.45 18.55,8 18,8 Z M18,12 L9,12 C8.45,12 8,12.45 8,13 C8,13.55 8.45,14 9,14 L18,14 C18.55,14 19,13.55 19,13 C19,12.45 18.55,12 18,12 Z M7,8 L5,8 L5,10 L7,10 L7,8 Z M7,12 L5,12 L5,14 L7,14 L7,12 Z" id="path-1"></path>
    </defs>
    <g id="icon/device/dvr_24px" stroke="none" stroke-width="1" fill="none" fill-rule="evenodd">
        <mask id="mask-2" fill="white">
            <use xlink:href="#path-1"></use>
        </mask>
        <g fill-rule="nonzero"></g>
        <g id="✱-/-Color-/-Icons-/-Black-/-Inactive" mask="url(#mask-2)" fill="#000000" fill-opacity="0.54">
            <rect id="Rectangle" x="0" y="0" width="24" height="24"></rect>
        </g>
    </g>
</svg>