<?xml version="1.0" encoding="UTF-8"?>
<svg width="24px" height="24px" viewBox="0 0 24 24" version="1.1" xmlns="http://www.w3.org/2000/svg" xmlns:xlink="http://www.w3.org/1999/xlink">
    <!-- Generator: Sketch 50 (54983) - http://www.bohemiancoding.com/sketch -->
    <title>icon/device/mobile_off_24px_rounded</title>
    <desc>Created with Sketch.</desc>
    <defs>
        <path d="M17.195,16.44 L3.805,3.05 C3.61816847,2.86274733 3.36451764,2.75751439 3.1,2.75751439 C2.83548236,2.75751439 2.58183153,2.86274733 2.395,3.05 C2.005,3.44 2.005,4.07 2.395,4.46 L5.195,7.27 L5.195,21 C5.195,22.1 6.095,23 7.195,23 L17.195,23 C18.215,23 19.045,22.23 19.175,21.25 L20.195,22.27 C20.585,22.66 21.215,22.66 21.605,22.27 C21.995,21.88 21.995,21.25 21.605,20.86 L19.195,18.44 L17.195,16.44 Z M7.195,19 L7.195,9.27 L16.925,19 L7.195,19 Z M17.195,5 L17.195,13.61 L19.195,15.61 L19.195,3 C19.195,1.9 18.295,1 17.195,1 L7.195,1 C6.485,1 5.865,1.37 5.515,1.93 L8.585,5 L17.195,5 Z" id="path-1"></path>
    </defs>
    <g id="icon/device/mobile_off_24px" stroke="none" stroke-width="1" fill="none" fill-rule="evenodd">
        <mask id="mask-2" fill="white">
            <use xlink:href="#path-1"></use>
        </mask>
        <g fill-rule="nonzero"></g>
        <g id="✱-/-Color-/-Icons-/-Black-/-Inactive" mask="url(#mask-2)" fill="#000000" fill-opacity="0.54">
            <rect id="Rectangle" x="0" y="0" width="24" height="24"></rect>
        </g>
    </g>
</svg>