<?xml version="1.0" encoding="UTF-8"?>
<svg width="24px" height="24px" viewBox="0 0 24 24" version="1.1" xmlns="http://www.w3.org/2000/svg" xmlns:xlink="http://www.w3.org/1999/xlink">
    <!-- Generator: Sketch 50 (54983) - http://www.bohemiancoding.com/sketch -->
    <title>icon/device/screen_lock_portrait_24px_rounded</title>
    <desc>Created with Sketch.</desc>
    <defs>
        <path d="M10,16 L14,16 C14.55,16 15,15.55 15,15 L15,12 C15,11.45 14.55,11 14,11 L14,10 C14,8.89 13.1,8 12,8 C10.89,8 10,8.9 10,10 L10,11 C9.45,11 9,11.45 9,12 L9,15 C9,15.55 9.45,16 10,16 Z M10.8,10 C10.8,9.34 11.34,8.8 12,8.8 C12.66,8.8 13.2,9.34 13.2,10 L13.2,11 L10.8,11 L10.8,10 Z M17,1 L7,1 C5.9,1 5,1.9 5,3 L5,21 C5,22.1 5.9,23 7,23 L17,23 C18.1,23 19,22.1 19,21 L19,3 C19,1.9 18.1,1 17,1 Z M17,19 L7,19 L7,5 L17,5 L17,19 Z" id="path-1"></path>
    </defs>
    <g id="icon/device/screen_lock_portrait_24px" stroke="none" stroke-width="1" fill="none" fill-rule="evenodd">
        <mask id="mask-2" fill="white">
            <use xlink:href="#path-1"></use>
        </mask>
        <g fill-rule="nonzero"></g>
        <g id="✱-/-Color-/-Icons-/-Black-/-Inactive" mask="url(#mask-2)" fill="#000000" fill-opacity="0.54">
            <rect id="Rectangle" x="0" y="0" width="24" height="24"></rect>
        </g>
    </g>
</svg>