<?xml version="1.0" encoding="UTF-8"?>
<svg width="24px" height="24px" viewBox="0 0 24 24" version="1.1" xmlns="http://www.w3.org/2000/svg" xmlns:xlink="http://www.w3.org/1999/xlink">
    <!-- Generator: Sketch 50 (54983) - http://www.bohemiancoding.com/sketch -->
    <title>icon/device/screen_rotation_24px_rounded</title>
    <desc>Created with Sketch.</desc>
    <defs>
        <path d="M10.23,1.74124343 C9.64,1.15131494 8.69,1.15131494 8.11,1.74124343 L1.75,8.10047265 C1.16,8.69040115 1.16,9.64028601 1.75,10.2202157 L13.77,22.238759 C14.36,22.8286875 15.31,22.8286875 15.89,22.238759 L22.25,15.8795298 C22.84,15.2896013 22.84,14.3397164 22.25,13.7597867 L10.23,1.74124343 Z M14.12,20.4689735 L3.52,9.87025814 C3.33274733,9.68344926 3.22751439,9.42982916 3.22751439,9.16534358 C3.22751439,8.900858 3.33274733,8.6472379 3.52,8.46042902 L8.47,3.51102892 C8.86,3.12107619 9.49,3.12107619 9.88,3.51102892 L20.49,14.1197431 C20.88,14.5096958 20.88,15.1396195 20.49,15.5295722 L15.54,20.4789723 C15.15,20.8589262 14.51,20.8589262 14.12,20.4689735 Z M17.61,1.39128585 C16.04,0.56138644 14.06,-0.0385408444 11.81,0.011453096 C11.63,0.011453096 11.55,0.231426434 11.67,0.361410679 L15.15,3.84098893 L16.48,2.51115012 C19.57,3.97097317 21.82,6.8806205 22.37,10.3701975 C22.43,10.7801479 22.81,11.0601139 23.23,10.9901224 C23.64,10.9301297 23.92,10.5401769 23.85,10.1302266 C23.25,6.33068716 20.89,3.13107498 17.61,1.39128585 Z M8.85,20.1490123 L7.52,21.4788511 C4.43,20.019028 2.18,17.1093807 1.63,13.6198037 C1.57,13.2098534 1.19,12.9298873 0.77,12.9998788 C0.36,13.0598715 0.08,13.4498243 0.15,13.8597746 C0.75,17.6693128 3.11,20.868925 6.39,22.6087141 C7.96,23.4386136 9.94,24.0385408 12.19,23.9885469 C12.37,23.9885469 12.45,23.7685736 12.33,23.6385893 L8.85,20.1490123 Z" id="path-1"></path>
    </defs>
    <g id="icon/device/screen_rotation_24px" stroke="none" stroke-width="1" fill="none" fill-rule="evenodd">
        <mask id="mask-2" fill="white">
            <use xlink:href="#path-1"></use>
        </mask>
        <g fill-rule="nonzero"></g>
        <g id="✱-/-Color-/-Icons-/-Black-/-Inactive" mask="url(#mask-2)" fill="#000000" fill-opacity="0.54">
            <rect id="Rectangle" x="0" y="0" width="24" height="24"></rect>
        </g>
    </g>
</svg>