<?xml version="1.0" encoding="UTF-8"?>
<svg width="24px" height="24px" viewBox="0 0 24 24" version="1.1" xmlns="http://www.w3.org/2000/svg" xmlns:xlink="http://www.w3.org/1999/xlink">
    <!-- Generator: Sketch 50 (54983) - http://www.bohemiancoding.com/sketch -->
    <title>icon/device/screen_lock_rotation_24px_rounded</title>
    <desc>Created with Sketch.</desc>
    <defs>
        <path d="M22.8591155,13.2735455 L20.9991155,11.4035455 C20.812284,11.2162928 20.5586332,11.1110599 20.2941155,11.1110599 C20.0295979,11.1110599 19.7759471,11.2162928 19.5891155,11.4035455 C19.1991155,11.7935455 19.1991155,12.4235455 19.5891155,12.8135455 L21.0991155,14.3335455 L15.4391155,19.9935455 L4.11911554,8.67354552 L9.77911554,3.01354552 L11.1791155,4.41354552 C11.5691155,4.80354552 12.1991155,4.80354552 12.5891155,4.41354552 C12.9791155,4.02354552 12.9791155,3.39354552 12.5891155,3.00354552 L10.8391155,1.25354552 C10.2491155,0.663545516 9.29911554,0.663545516 8.71911554,1.25354552 L2.35911554,7.61354552 C1.76911554,8.20354552 1.76911554,9.15354552 2.35911554,9.73354552 L14.3791155,21.7535455 C14.9691155,22.3435455 15.9191155,22.3435455 16.4991155,21.7535455 L22.8591155,15.3935455 C23.4491155,14.8035455 23.4491155,13.8535455 22.8591155,13.2735455 Z M15.6091155,9.50354552 L20.6091155,9.50354552 C21.1591155,9.50354552 21.6091155,9.05354552 21.6091155,8.50354552 L21.6091155,4.50354552 C21.6091155,3.95354552 21.1591155,3.50354552 20.6091155,3.50354552 L20.6091155,3.00354552 C20.6091155,1.62354552 19.4891155,0.503545516 18.1091155,0.503545516 C16.7291155,0.503545516 15.6091155,1.62354552 15.6091155,3.00354552 L15.6091155,3.50354552 C15.0591155,3.50354552 14.6091155,3.95354552 14.6091155,4.50354552 L14.6091155,8.50354552 C14.6091155,9.05354552 15.0591155,9.50354552 15.6091155,9.50354552 Z M16.4091155,3.00354552 C16.4091155,2.06354552 17.1691155,1.30354552 18.1091155,1.30354552 C19.0491155,1.30354552 19.8091155,2.06354552 19.8091155,3.00354552 L19.8091155,3.50354552 L16.4091155,3.50354552 L16.4091155,3.00354552 Z M9.40911554,19.6535455 L8.07911554,20.9835455 C4.98911554,19.5235455 2.73911554,16.6135455 2.18911554,13.1235455 C2.12911554,12.7135455 1.74911554,12.4335455 1.32911554,12.5035455 C0.919115538,12.5635455 0.639115538,12.9535455 0.709115538,13.3635455 C1.30911554,17.1735455 3.66911554,20.3735455 6.94911554,22.1135455 C8.51911554,22.9435455 10.4991155,23.5435455 12.7491155,23.4935455 C12.9291155,23.4935455 13.0091155,23.2735455 12.8891155,23.1435455 L9.40911554,19.6535455 Z" id="path-1"></path>
    </defs>
    <g id="icon/device/screen_lock_rotation_24px" stroke="none" stroke-width="1" fill="none" fill-rule="evenodd">
        <mask id="mask-2" fill="white">
            <use xlink:href="#path-1"></use>
        </mask>
        <g fill-rule="nonzero"></g>
        <g id="✱-/-Color-/-Icons-/-Black-/-Inactive" mask="url(#mask-2)" fill="#000000" fill-opacity="0.54">
            <rect id="Rectangle" x="0" y="0" width="24" height="24"></rect>
        </g>
    </g>
</svg>