<?xml version="1.0" encoding="UTF-8"?>
<svg width="24px" height="24px" viewBox="0 0 24 24" version="1.1" xmlns="http://www.w3.org/2000/svg" xmlns:xlink="http://www.w3.org/1999/xlink">
    <!-- Generator: Sketch 50 (54983) - http://www.bohemiancoding.com/sketch -->
    <title>icon/device/sd_storage_24px_rounded</title>
    <desc>Created with Sketch.</desc>
    <defs>
        <path d="M18,2 L10.83,2 C10.3,2 9.79,2.21 9.41,2.59 L4.6,7.42 C4.23,7.79 4,8.3 4,8.82 L4,20 C4,21.1 4.9,22 6,22 L18,22 C19.1,22 20,21.1 20,20 L20,4 C20,2.9 19.1,2 18,2 Z M11,8 C10.45,8 10,7.55 10,7 L10,5 C10,4.45 10.45,4 11,4 C11.55,4 12,4.45 12,5 L12,7 C12,7.55 11.55,8 11,8 Z M14,8 C13.45,8 13,7.55 13,7 L13,5 C13,4.45 13.45,4 14,4 C14.55,4 15,4.45 15,5 L15,7 C15,7.55 14.55,8 14,8 Z M17,8 C16.45,8 16,7.55 16,7 L16,5 C16,4.45 16.45,4 17,4 C17.55,4 18,4.45 18,5 L18,7 C18,7.55 17.55,8 17,8 Z" id="path-1"></path>
    </defs>
    <g id="icon/device/sd_storage_24px" stroke="none" stroke-width="1" fill="none" fill-rule="evenodd">
        <mask id="mask-2" fill="white">
            <use xlink:href="#path-1"></use>
        </mask>
        <g fill-rule="nonzero"></g>
        <g id="✱-/-Color-/-Icons-/-Black-/-Inactive" mask="url(#mask-2)" fill="#000000" fill-opacity="0.54">
            <rect id="Rectangle" x="0" y="0" width="24" height="24"></rect>
        </g>
    </g>
</svg>