<?xml version="1.0" encoding="UTF-8"?>
<svg width="24px" height="24px" viewBox="0 0 24 24" version="1.1" xmlns="http://www.w3.org/2000/svg" xmlns:xlink="http://www.w3.org/1999/xlink">
    <!-- Generator: Sketch 50 (54983) - http://www.bohemiancoding.com/sketch -->
    <title>icon/device/signal_wifi_off_24px_rounded</title>
    <desc>Created with Sketch.</desc>
    <defs>
        <path d="M23.64,7.9862428 C23.19,7.6462428 18.71,3.9862428 12,3.9862428 C10.68,3.9862428 9.45,4.1262428 8.31,4.3662428 L18.43,14.4862428 L23.64,7.9862428 Z M4.12,2.9962428 C3.93316847,2.80899013 3.67951764,2.7037572 3.415,2.7037572 C3.15048236,2.7037572 2.89683153,2.80899013 2.71,2.9962428 C2.32,3.3862428 2.32,4.0162428 2.71,4.4062428 L4.06,5.7562428 C1.91,6.7462428 0.59,7.8062428 0.36,7.9862428 L10.44,20.5462428 C11.24,21.5462428 12.76,21.5462428 13.56,20.5462428 L15.91,17.6162428 L18.52,20.2262428 C18.91,20.6162428 19.54,20.6162428 19.93,20.2262428 C20.32,19.8362428 20.32,19.2062428 19.93,18.8162428 L4.12,2.9962428 Z" id="path-1"></path>
    </defs>
    <g id="icon/device/signal_wifi_off_24px" stroke="none" stroke-width="1" fill="none" fill-rule="evenodd">
        <mask id="mask-2" fill="white">
            <use xlink:href="#path-1"></use>
        </mask>
        <g fill-rule="nonzero"></g>
        <g id="✱-/-Color-/-Icons-/-Black-/-Inactive" mask="url(#mask-2)" fill="#000000" fill-opacity="0.54">
            <rect id="Rectangle" x="0" y="0" width="24" height="24"></rect>
        </g>
    </g>
</svg>