<?xml version="1.0" encoding="UTF-8"?>
<svg width="24px" height="24px" viewBox="0 0 24 24" version="1.1" xmlns="http://www.w3.org/2000/svg" xmlns:xlink="http://www.w3.org/1999/xlink">
    <!-- Generator: Sketch 50 (54983) - http://www.bohemiancoding.com/sketch -->
    <title>icon/device/signal_wifi_statusbar_not_connected_26x24px_rounded</title>
    <desc>Created with Sketch.</desc>
    <defs>
        <path d="M14.7692308,13.4614583 C14.7692308,10.8164583 16.8369231,8.66979167 19.3846154,8.66979167 C20.1692308,8.66979167 20.8984615,8.89020833 21.5446154,9.254375 L23.6123077,6.580625 C23.1692308,6.235625 18.7015385,2.440625 12,2.440625 C5.29846154,2.440625 0.830769231,6.235625 0.387692308,6.580625 L10.56,19.748125 C11.2984615,20.7064583 12.7015385,20.7064583 13.44,19.748125 L15.8953846,16.5664583 C15.2030769,15.7327083 14.7692308,14.6497917 14.7692308,13.4614583 Z M18.5076923,19.7385417 L20.2615385,19.7385417 L20.2615385,21.559375 L18.5076923,21.559375 L18.5076923,19.7385417 Z M19.3846154,10.1072917 C17.9723077,10.1072917 16.7723077,11.0464583 16.3292308,12.359375 C16.1446154,12.8960417 16.5507692,13.4614583 17.0953846,13.4614583 C17.4276923,13.4614583 17.7415385,13.250625 17.8523077,12.9247917 C18.0461538,12.330625 18.5630769,11.870625 19.1815385,11.7939583 C19.9846154,11.698125 20.76,12.244375 20.9446154,13.0589583 C21.2584615,14.3910417 19.9476923,15.1002083 19.2646154,15.9914583 C18.9507692,16.4035417 18.7384615,16.8827083 18.6369231,17.4002083 C18.6276923,17.4385417 18.6276923,17.4672917 18.6184615,17.505625 C18.5353846,18.023125 18.9230769,18.5022917 19.4307692,18.5022917 C19.8276923,18.5022917 20.1784615,18.2052083 20.2338462,17.8027083 C20.28,17.476875 20.3815385,17.160625 20.5476923,16.873125 C20.7415385,16.5472917 21.0092308,16.2789583 21.2676923,16.0010417 C21.4892308,15.7710417 21.7107692,15.5410417 21.9230769,15.3014583 C22.3661538,14.8127083 22.6153846,14.1514583 22.6153846,13.480625 C22.6153846,11.611875 21.1661538,10.1072917 19.3846154,10.1072917 Z" id="path-1"></path>
    </defs>
    <g id="icon/device/signal_wifi_statusbar_not_connected_26x24px" stroke="none" stroke-width="1" fill="none" fill-rule="evenodd">
        <mask id="mask-2" fill="white">
            <use xlink:href="#path-1"></use>
        </mask>
        <g fill-rule="nonzero"></g>
        <g id="✱-/-Color-/-Icons-/-Black-/-Inactive" mask="url(#mask-2)" fill="#000000" fill-opacity="0.54">
            <rect id="Rectangle" x="0" y="0" width="24" height="24"></rect>
        </g>
    </g>
</svg>