<?xml version="1.0" encoding="UTF-8"?>
<svg width="24px" height="24px" viewBox="0 0 24 24" version="1.1" xmlns="http://www.w3.org/2000/svg" xmlns:xlink="http://www.w3.org/1999/xlink">
    <!-- Generator: Sketch 50 (54983) - http://www.bohemiancoding.com/sketch -->
    <title>icon/device/signal_wifi_statusbar_connected_no_internet_26x24px_rounded</title>
    <desc>Created with Sketch.</desc>
    <defs>
        <path d="M18.4615385,11.0416667 C18.4615385,9.45083333 19.6984615,8.16666667 21.2307692,8.16666667 L22.3661538,8.16666667 L23.6123077,6.55666667 C23.1692308,6.21166667 18.7015385,2.41666667 12,2.41666667 C5.29846154,2.41666667 0.830769231,6.21166667 0.387692308,6.55666667 L10.56,19.7241667 C11.2984615,20.6825 12.7015385,20.6825 13.44,19.7241667 L18.4615385,13.2266667 L18.4615385,11.0416667 Z M20.3076923,11.0416667 L20.3076923,16.7916667 C20.3076923,17.31875 20.7230769,17.75 21.2307692,17.75 C21.7384615,17.75 22.1538462,17.31875 22.1538462,16.7916667 L22.1538462,11.0416667 C22.1538462,10.5145833 21.7384615,10.0833333 21.2307692,10.0833333 C20.7230769,10.0833333 20.3076923,10.5145833 20.3076923,11.0416667 Z M20.3076923,19.6666667 L22.1538462,19.6666667 L22.1538462,21.5833333 L20.3076923,21.5833333 L20.3076923,19.6666667 Z" id="path-1"></path>
    </defs>
    <g id="icon/device/signal_wifi_statusbar_connected_no_internet_26x24px" stroke="none" stroke-width="1" fill="none" fill-rule="evenodd">
        <mask id="mask-2" fill="white">
            <use xlink:href="#path-1"></use>
        </mask>
        <g fill-rule="nonzero"></g>
        <g id="✱-/-Color-/-Icons-/-Black-/-Inactive" mask="url(#mask-2)" fill="#000000" fill-opacity="0.54">
            <rect id="Rectangle" x="0" y="0" width="24" height="24"></rect>
        </g>
    </g>
</svg>