<?xml version="1.0" encoding="UTF-8"?>
<svg width="24px" height="24px" viewBox="0 0 24 24" version="1.1" xmlns="http://www.w3.org/2000/svg" xmlns:xlink="http://www.w3.org/1999/xlink">
    <!-- Generator: Sketch 50 (54983) - http://www.bohemiancoding.com/sketch -->
    <title>icon/device/signal_cellular_alt_24px_rounded</title>
    <desc>Created with Sketch.</desc>
    <defs>
        <path d="M18,4 C18.83,4 19.5,4.67 19.5,5.5 L19.5,18.5 C19.5,19.33 18.83,20 18,20 C17.17,20 16.5,19.33 16.5,18.5 L16.5,5.5 C16.5,4.67 17.17,4 18,4 Z M6,14 C6.83,14 7.5,14.67 7.5,15.5 L7.5,18.5 C7.5,19.33 6.83,20 6,20 C5.17,20 4.5,19.33 4.5,18.5 L4.5,15.5 C4.5,14.67 5.17,14 6,14 Z M12,9 C12.83,9 13.5,9.67 13.5,10.5 L13.5,18.5 C13.5,19.33 12.83,20 12,20 C11.17,20 10.5,19.33 10.5,18.5 L10.5,10.5 C10.5,9.67 11.17,9 12,9 Z" id="path-1"></path>
    </defs>
    <g id="icon/device/signal_cellular_alt_24px" stroke="none" stroke-width="1" fill="none" fill-rule="evenodd">
        <mask id="mask-2" fill="white">
            <use xlink:href="#path-1"></use>
        </mask>
        <g fill-rule="nonzero"></g>
        <g id="✱-/-Color-/-Icons-/-Black-/-Inactive" mask="url(#mask-2)" fill="#000000" fill-opacity="0.54">
            <rect id="Rectangle" x="0" y="0" width="24" height="24"></rect>
        </g>
    </g>
</svg>