<?xml version="1.0" encoding="UTF-8"?>
<svg width="24px" height="24px" viewBox="0 0 24 24" version="1.1" xmlns="http://www.w3.org/2000/svg" xmlns:xlink="http://www.w3.org/1999/xlink">
    <!-- Generator: Sketch 50 (54983) - http://www.bohemiancoding.com/sketch -->
    <title>icon/device/storage_24px_rounded</title>
    <desc>Created with Sketch.</desc>
    <defs>
        <path d="M4,20 L20,20 C21.1,20 22,19.1 22,18 C22,16.9 21.1,16 20,16 L4,16 C2.9,16 2,16.9 2,18 C2,19.1 2.9,20 4,20 Z M4,17 L6,17 L6,19 L4,19 L4,17 Z M2,6 C2,7.1 2.9,8 4,8 L20,8 C21.1,8 22,7.1 22,6 C22,4.9 21.1,4 20,4 L4,4 C2.9,4 2,4.9 2,6 Z M6,7 L4,7 L4,5 L6,5 L6,7 Z M4,14 L20,14 C21.1,14 22,13.1 22,12 C22,10.9 21.1,10 20,10 L4,10 C2.9,10 2,10.9 2,12 C2,13.1 2.9,14 4,14 Z M4,11 L6,11 L6,13 L4,13 L4,11 Z" id="path-1"></path>
    </defs>
    <g id="icon/device/storage_24px" stroke="none" stroke-width="1" fill="none" fill-rule="evenodd">
        <mask id="mask-2" fill="white">
            <use xlink:href="#path-1"></use>
        </mask>
        <g fill-rule="nonzero"></g>
        <g id="✱-/-Color-/-Icons-/-Black-/-Inactive" mask="url(#mask-2)" fill="#000000" fill-opacity="0.54">
            <rect id="Rectangle" x="0" y="0" width="24" height="24"></rect>
        </g>
    </g>
</svg>