<?xml version="1.0" encoding="UTF-8"?>
<svg width="24px" height="24px" viewBox="0 0 24 24" version="1.1" xmlns="http://www.w3.org/2000/svg" xmlns:xlink="http://www.w3.org/1999/xlink">
    <!-- Generator: Sketch 50 (54983) - http://www.bohemiancoding.com/sketch -->
    <title>icon/device/usb_24px_rounded</title>
    <desc>Created with Sketch.</desc>
    <defs>
        <path d="M18.095,7.23628322 L16.095,7.23628322 C15.545,7.23628322 15.095,7.68628322 15.095,8.23628322 L15.095,10.2362832 C15.095,10.7862832 15.545,11.2362832 16.095,11.2362832 L16.095,13.2362832 L13.095,13.2362832 L13.095,5.23628322 L14.095,5.23628322 C14.505,5.23628322 14.745,4.76628322 14.495,4.43628322 L12.495,1.76628322 C12.295,1.49628322 11.895,1.49628322 11.695,1.76628322 L9.695,4.43628322 C9.445,4.76628322 9.685,5.23628322 10.095,5.23628322 L11.095,5.23628322 L11.095,13.2362832 L8.095,13.2362832 L8.095,11.1662832 C8.925,10.7262832 9.475,9.80628322 9.235,8.73628322 C9.065,7.96628322 8.465,7.33628322 7.715,7.12628322 C6.245,6.71628322 4.895,7.82628322 4.895,9.23628322 C4.895,10.0862832 5.395,10.7962832 6.095,11.1662832 L6.095,13.2362832 C6.095,14.3362832 6.995,15.2362832 8.095,15.2362832 L11.095,15.2362832 L11.095,18.2862832 C10.235,18.7362832 9.705,19.7062832 9.965,20.7762832 C10.145,21.5262832 10.755,22.1562832 11.505,22.3562832 C12.965,22.7462832 14.305,21.6562832 14.305,20.2362832 C14.305,19.3862832 13.815,18.6562832 13.105,18.2862832 L13.105,15.2362832 L16.105,15.2362832 C17.205,15.2362832 18.105,14.3362832 18.105,13.2362832 L18.105,11.2362832 C18.655,11.2362832 19.105,10.7862832 19.105,10.2362832 L19.105,8.23628322 C19.095,7.68628322 18.645,7.23628322 18.095,7.23628322 Z" id="path-1"></path>
    </defs>
    <g id="icon/device/usb_24px" stroke="none" stroke-width="1" fill="none" fill-rule="evenodd">
        <mask id="mask-2" fill="white">
            <use xlink:href="#path-1"></use>
        </mask>
        <g fill-rule="nonzero"></g>
        <g id="✱-/-Color-/-Icons-/-Black-/-Inactive" mask="url(#mask-2)" fill="#000000" fill-opacity="0.54">
            <rect id="Rectangle" x="0" y="0" width="24" height="24"></rect>
        </g>
    </g>
</svg>