<?xml version="1.0" encoding="UTF-8"?>
<svg width="24px" height="24px" viewBox="0 0 24 24" version="1.1" xmlns="http://www.w3.org/2000/svg" xmlns:xlink="http://www.w3.org/1999/xlink">
    <!-- Generator: Sketch 50 (54983) - http://www.bohemiancoding.com/sketch -->
    <title>icon/device/widgets_24px_rounded</title>
    <desc>Created with Sketch.</desc>
    <defs>
        <path d="M12.54875,14.44625 L12.54875,20.44625 C12.54875,20.99625 12.99875,21.44625 13.54875,21.44625 L19.54875,21.44625 C20.09875,21.44625 20.54875,20.99625 20.54875,20.44625 L20.54875,14.44625 C20.54875,13.89625 20.09875,13.44625 19.54875,13.44625 L13.54875,13.44625 C12.99875,13.44625 12.54875,13.89625 12.54875,14.44625 Z M3.54875,21.44625 L9.54875,21.44625 C10.09875,21.44625 10.54875,20.99625 10.54875,20.44625 L10.54875,14.44625 C10.54875,13.89625 10.09875,13.44625 9.54875,13.44625 L3.54875,13.44625 C2.99875,13.44625 2.54875,13.89625 2.54875,14.44625 L2.54875,20.44625 C2.54875,20.99625 2.99875,21.44625 3.54875,21.44625 Z M2.54875,4.44625 L2.54875,10.44625 C2.54875,10.99625 2.99875,11.44625 3.54875,11.44625 L9.54875,11.44625 C10.09875,11.44625 10.54875,10.99625 10.54875,10.44625 L10.54875,4.44625 C10.54875,3.89625 10.09875,3.44625 9.54875,3.44625 L3.54875,3.44625 C2.99875,3.44625 2.54875,3.89625 2.54875,4.44625 Z M15.49875,2.84625 L11.24875,7.08625 C10.85875,7.47625 10.85875,8.10625 11.24875,8.49625 L15.49875,12.74625 C15.88875,13.13625 16.51875,13.13625 16.90875,12.74625 L21.15875,8.49625 C21.54875,8.10625 21.54875,7.47625 21.15875,7.08625 L16.91875,2.84625 C16.52875,2.45625 15.88875,2.45625 15.49875,2.84625 Z" id="path-1"></path>
    </defs>
    <g id="icon/device/widgets_24px" stroke="none" stroke-width="1" fill="none" fill-rule="evenodd">
        <mask id="mask-2" fill="white">
            <use xlink:href="#path-1"></use>
        </mask>
        <g fill-rule="nonzero"></g>
        <g id="✱-/-Color-/-Icons-/-Black-/-Inactive" mask="url(#mask-2)" fill="#000000" fill-opacity="0.54">
            <rect id="Rectangle" x="0" y="0" width="24" height="24"></rect>
        </g>
    </g>
</svg>