<?xml version="1.0" encoding="UTF-8"?>
<svg width="24px" height="24px" viewBox="0 0 24 24" version="1.1" xmlns="http://www.w3.org/2000/svg" xmlns:xlink="http://www.w3.org/1999/xlink">
    <!-- Generator: Sketch 50 (54983) - http://www.bohemiancoding.com/sketch -->
    <title>icon/device/wifi_tethering_24px_rounded</title>
    <desc>Created with Sketch.</desc>
    <defs>
        <path d="M11.9980739,10.8822122 C10.8980739,10.8822122 9.9980739,11.7822122 9.9980739,12.8822122 C9.9980739,13.9822122 10.8980739,14.8822122 11.9980739,14.8822122 C13.0980739,14.8822122 13.9980739,13.9822122 13.9980739,12.8822122 C13.9980739,11.7822122 13.0980739,10.8822122 11.9980739,10.8822122 Z M17.9980739,12.8822122 C17.9980739,9.32221216 14.8880739,6.48221216 11.2480739,6.93221216 C8.6280739,7.25221216 6.4680739,9.34221216 6.0680739,11.9522122 C5.7380739,14.1022122 6.5580739,16.0622122 7.9980739,17.3522122 C8.4780739,17.7822122 9.2280739,17.6822122 9.5580739,17.1222122 L9.5680739,17.1122122 C9.8080739,16.6922122 9.7080739,16.1822122 9.3480739,15.8522122 C8.3180739,14.9222122 7.7580739,13.4822122 8.1280739,11.9122122 C8.4580739,10.4922122 9.6080739,9.34221216 11.0280739,9.00221216 C13.6480739,8.37221216 15.9980739,10.3522122 15.9980739,12.8822122 C15.9980739,14.0622122 15.4780739,15.1122122 14.6680739,15.8422122 C14.3080739,16.1622122 14.1980739,16.6822122 14.4380739,17.1022122 L14.4480739,17.1122122 C14.7580739,17.6422122 15.4780739,17.8022122 15.9480739,17.3922122 C17.1980739,16.2922122 17.9980739,14.6822122 17.9980739,12.8822122 Z M10.8280739,2.95221216 C6.2080739,3.47221216 2.4780739,7.28221216 2.0480739,11.9122122 C1.6980739,15.6122122 3.3680739,18.9322122 6.0680739,20.9222122 C6.5480739,21.2722122 7.2280739,21.1222122 7.5280739,20.6122122 C7.7780739,20.1822122 7.6680739,19.6222122 7.2680739,19.3222122 C4.9880739,17.6322122 3.6180739,14.7722122 4.1080739,11.6222122 C4.6480739,8.12221216 7.5680739,5.33221216 11.0880739,4.94221216 C15.9080739,4.39221216 19.9980739,8.16221216 19.9980739,12.8822122 C19.9980739,15.5322122 18.7080739,17.8622122 16.7280739,19.3222122 C16.3280739,19.6222122 16.2180739,20.1722122 16.4680739,20.6122122 C16.7680739,21.1322122 17.4480739,21.2722122 17.9280739,20.9222122 C20.3980739,19.1022122 21.9980739,16.1822122 21.9980739,12.8822122 C21.9980739,6.97221216 16.8680739,2.26221216 10.8280739,2.95221216 Z" id="path-1"></path>
    </defs>
    <g id="icon/device/wifi_tethering_24px" stroke="none" stroke-width="1" fill="none" fill-rule="evenodd">
        <mask id="mask-2" fill="white">
            <use xlink:href="#path-1"></use>
        </mask>
        <g fill-rule="nonzero"></g>
        <g id="✱-/-Color-/-Icons-/-Black-/-Inactive" mask="url(#mask-2)" fill="#000000" fill-opacity="0.54">
            <rect id="Rectangle" x="0" y="0" width="24" height="24"></rect>
        </g>
    </g>
</svg>