<?xml version="1.0" encoding="UTF-8"?>
<svg width="24px" height="24px" viewBox="0 0 24 24" version="1.1" xmlns="http://www.w3.org/2000/svg" xmlns:xlink="http://www.w3.org/1999/xlink">
    <!-- Generator: Sketch 50 (54983) - http://www.bohemiancoding.com/sketch -->
    <title>icon/hardware/router_24px_sharp</title>
    <desc>Created with Sketch.</desc>
    <defs>
        <path d="M20.2,5.9 L21,5.1 C19.6,3.7 17.8,3 16,3 C14.2,3 12.4,3.7 11,5.1 L11.8,5.9 C13,4.8 14.5,4.2 16,4.2 C17.5,4.2 19,4.8 20.2,5.9 Z M19.3,6.7 C18.4,5.8 17.2,5.3 16,5.3 C14.8,5.3 13.6,5.8 12.7,6.7 L13.5,7.5 C14.2,6.8 15.1,6.5 16,6.5 C16.9,6.5 17.8,6.8 18.5,7.5 L19.3,6.7 Z M21,13 L17,13 L17,9 L15,9 L15,13 L3,13 L3,21 L21,21 L21,13 Z M8,18 L6,18 L6,16 L8,16 L8,18 Z M11.5,18 L9.5,18 L9.5,16 L11.5,16 L11.5,18 Z M15,18 L13,18 L13,16 L15,16 L15,18 Z" id="path-1"></path>
    </defs>
    <g id="icon/hardware/router_24px" stroke="none" stroke-width="1" fill="none" fill-rule="evenodd">
        <mask id="mask-2" fill="white">
            <use xlink:href="#path-1"></use>
        </mask>
        <g fill-rule="nonzero"></g>
        <g id="✱-/-Color-/-Icons-/-Black-/-Inactive" mask="url(#mask-2)" fill="#000000" fill-opacity="0.54">
            <rect id="Rectangle" x="0" y="0" width="24" height="24"></rect>
        </g>
    </g>
</svg>