<?xml version="1.0" encoding="UTF-8"?>
<svg width="24px" height="24px" viewBox="0 0 24 24" version="1.1" xmlns="http://www.w3.org/2000/svg" xmlns:xlink="http://www.w3.org/1999/xlink">
    <!-- Generator: Sketch 50 (54983) - http://www.bohemiancoding.com/sketch -->
    <title>icon/hardware/sim_card_24px_sharp</title>
    <desc>Created with Sketch.</desc>
    <defs>
        <path d="M19.99,2 L10,2 L4,8 L4,22 L20,22 L19.99,2 Z M9,19 L7,19 L7,17 L9,17 L9,19 Z M17,19 L15,19 L15,17 L17,17 L17,19 Z M9,15 L7,15 L7,11 L9,11 L9,15 Z M13,19 L11,19 L11,15 L13,15 L13,19 Z M13,13 L11,13 L11,11 L13,11 L13,13 Z M17,15 L15,15 L15,11 L17,11 L17,15 Z" id="path-1"></path>
    </defs>
    <g id="icon/hardware/sim_card_24px" stroke="none" stroke-width="1" fill="none" fill-rule="evenodd">
        <mask id="mask-2" fill="white">
            <use xlink:href="#path-1"></use>
        </mask>
        <g fill-rule="nonzero"></g>
        <g id="✱-/-Color-/-Icons-/-Black-/-Inactive" mask="url(#mask-2)" fill="#000000" fill-opacity="0.54">
            <rect id="Rectangle" x="0" y="0" width="24" height="24"></rect>
        </g>
    </g>
</svg>