<?xml version="1.0" encoding="UTF-8"?>
<svg width="24px" height="24px" viewBox="0 0 24 24" version="1.1" xmlns="http://www.w3.org/2000/svg" xmlns:xlink="http://www.w3.org/1999/xlink">
    <!-- Generator: Sketch 50 (54983) - http://www.bohemiancoding.com/sketch -->
    <title>icon/editor/attach_file_24px_two_tone</title>
    <desc>Created with Sketch.</desc>
    <defs>
        <path d="M5.5,22 C8.54,22 11,19.54 11,16.5 L11,5 L9.5,5 L9.5,16.5 C9.5,18.71 7.71,20.5 5.5,20.5 C3.29,20.5 1.5,18.71 1.5,16.5 L1.5,4 C1.5,2.62 2.62,1.5 4,1.5 C5.38,1.5 6.5,2.62 6.5,4 L6.5,14.5 C6.5,15.05 6.05,15.5 5.5,15.5 C4.95,15.5 4.5,15.05 4.5,14.5 L4.5,5 L3,5 L3,14.5 C3,15.88 4.12,17 5.5,17 C6.88,17 8,15.88 8,14.5 L8,4 C8,1.79 6.21,0 4,0 C1.79,0 0,1.79 0,4 L0,16.5 C0,19.54 2.46,22 5.5,22 Z" id="path-1"></path>
    </defs>
    <g id="icon/editor/attach_file_24px" stroke="none" stroke-width="1" fill="none" fill-rule="evenodd">
        <g id="↳-Dark-Color" transform="translate(7.000000, 1.000000)">
            <mask id="mask-2" fill="white">
                <use xlink:href="#path-1"></use>
            </mask>
            <g id="Mask" fill-rule="nonzero"></g>
            <g id="✱-/-Color-/-Icons-/-Black-/-Inactive" mask="url(#mask-2)" fill="#000000" fill-opacity="0.54">
                <rect id="Rectangle" x="0" y="0" width="101" height="101"></rect>
            </g>
        </g>
    </g>
</svg>