<?xml version="1.0" encoding="UTF-8"?>
<svg width="24px" height="24px" viewBox="0 0 24 24" version="1.1" xmlns="http://www.w3.org/2000/svg" xmlns:xlink="http://www.w3.org/1999/xlink">
    <!-- Generator: Sketch 50 (54983) - http://www.bohemiancoding.com/sketch -->
    <title>icon/editor/attach_money_24px_two_tone</title>
    <desc>Created with Sketch.</desc>
    <defs>
        <path d="M5.5,14.1 C3.44,14.1 2.63,13.18 2.52,12 L0.32,12 C0.44,14.19 2.08,15.42 4,15.83 L4,18 L7,18 L7,15.85 C8.95,15.48 10.5,14.35 10.5,12.3 C10.5,9.46 8.07,8.49 5.8,7.9 C3.53,7.31 2.8,6.7 2.8,5.75 C2.8,4.66 3.81,3.9 5.5,3.9 C7.28,3.9 7.94,4.75 8,6 L10.21,6 C10.14,4.28 9.09,2.7 7,2.19 L7,0 L4,0 L4,2.16 C2.06,2.58 0.5,3.84 0.5,5.77 C0.5,8.08 2.41,9.23 5.2,9.9 C7.7,10.5 8.2,11.38 8.2,12.31 C8.2,13 7.71,14.1 5.5,14.1 Z" id="path-1"></path>
    </defs>
    <g id="icon/editor/attach_money_24px" stroke="none" stroke-width="1" fill="none" fill-rule="evenodd">
        <g id="↳-Dark-Color" transform="translate(6.000000, 3.000000)">
            <mask id="mask-2" fill="white">
                <use xlink:href="#path-1"></use>
            </mask>
            <g id="Mask" fill-rule="nonzero"></g>
            <g id="✱-/-Color-/-Icons-/-Black-/-Inactive" mask="url(#mask-2)" fill="#000000" fill-opacity="0.54">
                <rect id="Rectangle" x="0" y="0" width="101" height="101"></rect>
            </g>
        </g>
    </g>
</svg>