<?xml version="1.0" encoding="UTF-8"?>
<svg width="24px" height="24px" viewBox="0 0 24 24" version="1.1" xmlns="http://www.w3.org/2000/svg" xmlns:xlink="http://www.w3.org/1999/xlink">
    <!-- Generator: Sketch 50 (54983) - http://www.bohemiancoding.com/sketch -->
    <title>icon/editor/bubble_chart_24px_two_tone</title>
    <desc>Created with Sketch.</desc>
    <defs>
        <path d="M3.5,7 C5.43,7 7,5.43 7,3.5 C7,1.57 5.43,0 3.5,0 C1.57,0 0,1.57 0,3.5 C0,5.43 1.57,7 3.5,7 Z" id="path-1"></path>
        <circle id="path-3" cx="1.01" cy="1" r="1"></circle>
        <circle id="path-5" cx="2" cy="2" r="2"></circle>
        <path d="M4,8 C6.21,8 8,6.21 8,4 C8,1.79 6.21,0 4,0 C1.79,0 0,1.79 0,4 C0,6.21 1.79,8 4,8 Z M4,2 C5.1,2 6,2.9 6,4 C6,5.1 5.1,6 4,6 C2.9,6 2,5.1 2,4 C2,2.9 2.9,2 4,2 Z" id="path-7"></path>
        <path d="M6.01,3 C6.01,1.35 4.66,0 3.01,0 C1.36,0 0.01,1.35 0.01,3 C0.01,4.65 1.36,6 3.01,6 C4.66,6 6.01,4.65 6.01,3 Z M2.01,3 C2.01,2.45 2.46,2 3.01,2 C3.56,2 4.01,2.45 4.01,3 C4.01,3.55 3.56,4 3.01,4 C2.46,4 2.01,3.55 2.01,3 Z" id="path-9"></path>
        <path d="M5.5,11 C8.53,11 11,8.53 11,5.5 C11,2.47 8.53,0 5.5,0 C2.47,0 0,2.47 0,5.5 C0,8.53 2.47,11 5.5,11 Z M5.5,2 C7.43,2 9,3.57 9,5.5 C9,7.43 7.43,9 5.5,9 C3.57,9 2,7.43 2,5.5 C2,3.57 3.57,2 5.5,2 Z" id="path-11"></path>
    </defs>
    <g id="icon/editor/bubble_chart_24px" stroke="none" stroke-width="1" fill="none" fill-rule="evenodd">
        <g id="↳-Light-Color" transform="translate(13.000000, 5.000000)">
            <mask id="mask-2" fill="white">
                <use xlink:href="#path-1"></use>
            </mask>
            <g id="Mask" opacity="0.3" fill-rule="nonzero"></g>
            <g id="✱-/-Color-/-Icons-/-Black-/-Disabled" mask="url(#mask-2)" fill="#000000" fill-opacity="0.38">
                <rect id="Rectangle" x="0" y="0" width="101" height="101"></rect>
            </g>
        </g>
        <g id="↳-Light-Color" transform="translate(14.000000, 17.000000)">
            <mask id="mask-4" fill="white">
                <use xlink:href="#path-3"></use>
            </mask>
            <g id="Mask" opacity="0.3" fill-rule="nonzero"></g>
            <g id="✱-/-Color-/-Icons-/-Black-/-Disabled" mask="url(#mask-4)" fill="#000000" fill-opacity="0.38">
                <rect id="Rectangle" x="0" y="0" width="101" height="101"></rect>
            </g>
        </g>
        <g id="↳-Light-Color" transform="translate(5.000000, 12.000000)">
            <mask id="mask-6" fill="white">
                <use xlink:href="#path-5"></use>
            </mask>
            <g id="Mask" opacity="0.3" fill-rule="nonzero"></g>
            <g id="✱-/-Color-/-Icons-/-Black-/-Disabled" mask="url(#mask-6)" fill="#000000" fill-opacity="0.38">
                <rect id="Rectangle" x="0" y="0" width="101" height="101"></rect>
            </g>
        </g>
        <g id="↳-Dark-Color" transform="translate(3.000000, 10.000000)">
            <mask id="mask-8" fill="white">
                <use xlink:href="#path-7"></use>
            </mask>
            <g id="Mask" fill-rule="nonzero"></g>
            <g id="✱-/-Color-/-Icons-/-Black-/-Inactive" mask="url(#mask-8)" fill="#000000" fill-opacity="0.54">
                <rect id="Rectangle" x="0" y="0" width="101" height="101"></rect>
            </g>
        </g>
        <g id="↳-Dark-Color" transform="translate(12.000000, 15.000000)">
            <mask id="mask-10" fill="white">
                <use xlink:href="#path-9"></use>
            </mask>
            <g id="Mask" fill-rule="nonzero"></g>
            <g id="✱-/-Color-/-Icons-/-Black-/-Inactive" mask="url(#mask-10)" fill="#000000" fill-opacity="0.54">
                <rect id="Rectangle" x="0" y="0" width="101" height="101"></rect>
            </g>
        </g>
        <g id="↳-Dark-Color" transform="translate(11.000000, 3.000000)">
            <mask id="mask-12" fill="white">
                <use xlink:href="#path-11"></use>
            </mask>
            <g id="Mask" fill-rule="nonzero"></g>
            <g id="✱-/-Color-/-Icons-/-Black-/-Inactive" mask="url(#mask-12)" fill="#000000" fill-opacity="0.54">
                <rect id="Rectangle" x="0" y="0" width="101" height="101"></rect>
            </g>
        </g>
    </g>
</svg>