<?xml version="1.0" encoding="UTF-8"?>
<svg width="24px" height="24px" viewBox="0 0 24 24" version="1.1" xmlns="http://www.w3.org/2000/svg" xmlns:xlink="http://www.w3.org/1999/xlink">
    <!-- Generator: Sketch 50 (54983) - http://www.bohemiancoding.com/sketch -->
    <title>icon/editor/format_bold_24px_two_tone</title>
    <desc>Created with Sketch.</desc>
    <defs>
        <path d="M10.25,4 C10.25,1.74 8.5,0 6.25,0 L0,0 L0,14 L7.04,14 C9.13,14 10.75,12.3 10.75,10.21 C10.75,8.69 9.89,7.39 8.6,6.79 C9.57,6.12 10.25,5.02 10.25,4 Z M3,2.5 L6,2.5 C6.83,2.5 7.5,3.17 7.5,4 C7.5,4.83 6.83,5.5 6,5.5 L3,5.5 L3,2.5 Z M6.5,11.5 L3,11.5 L3,8.5 L6.5,8.5 C7.33,8.5 8,9.17 8,10 C8,10.83 7.33,11.5 6.5,11.5 Z" id="path-1"></path>
    </defs>
    <g id="icon/editor/format_bold_24px" stroke="none" stroke-width="1" fill="none" fill-rule="evenodd">
        <g id="↳-Dark-Color" transform="translate(7.000000, 4.000000)">
            <mask id="mask-2" fill="white">
                <use xlink:href="#path-1"></use>
            </mask>
            <g id="Mask" fill-rule="nonzero"></g>
            <g id="✱-/-Color-/-Icons-/-Black-/-Inactive" mask="url(#mask-2)" fill="#000000" fill-opacity="0.54">
                <rect id="Rectangle" x="0" y="0" width="101" height="101"></rect>
            </g>
        </g>
    </g>
</svg>