<?xml version="1.0" encoding="UTF-8"?>
<svg width="24px" height="24px" viewBox="0 0 24 24" version="1.1" xmlns="http://www.w3.org/2000/svg" xmlns:xlink="http://www.w3.org/1999/xlink">
    <!-- Generator: Sketch 50 (54983) - http://www.bohemiancoding.com/sketch -->
    <title>icon/editor/linear_scale_24px_two_tone</title>
    <desc>Created with Sketch.</desc>
    <defs>
        <path d="M17.5,0.5 C16.47,0.5 15.6,1.12 15.21,2 L12.29,2 C11.9,1.12 11.03,0.5 10,0.5 C8.97,0.5 8.1,1.12 7.71,2 L4.79,2 C4.4,1.12 3.53,0.5 2.5,0.5 C1.12,0.5 0,1.62 0,3 C0,4.38 1.12,5.5 2.5,5.5 C3.53,5.5 4.4,4.88 4.79,4 L7.71,4 C8.1,4.88 8.97,5.5 10,5.5 C11.03,5.5 11.9,4.88 12.29,4 L15.21,4 C15.6,4.88 16.47,5.5 17.5,5.5 C18.88,5.5 20,4.38 20,3 C20,1.62 18.88,0.5 17.5,0.5 Z" id="path-1"></path>
    </defs>
    <g id="icon/editor/linear_scale_24px" stroke="none" stroke-width="1" fill="none" fill-rule="evenodd">
        <g id="↳-Dark-Color" transform="translate(2.000000, 9.000000)">
            <mask id="mask-2" fill="white">
                <use xlink:href="#path-1"></use>
            </mask>
            <g id="Mask" fill-rule="nonzero"></g>
            <g id="✱-/-Color-/-Icons-/-Black-/-Inactive" mask="url(#mask-2)" fill="#000000" fill-opacity="0.54">
                <rect id="Rectangle" x="0" y="0" width="101" height="101"></rect>
            </g>
        </g>
    </g>
</svg>