<?xml version="1.0" encoding="UTF-8"?>
<svg width="24px" height="24px" viewBox="0 0 24 24" version="1.1" xmlns="http://www.w3.org/2000/svg" xmlns:xlink="http://www.w3.org/1999/xlink">
    <!-- Generator: Sketch 50 (54983) - http://www.bohemiancoding.com/sketch -->
    <title>icon/editor/monetization_on_24px_two_tone</title>
    <desc>Created with Sketch.</desc>
    <defs>
        <path d="M8,0 C3.59,0 0,3.59 0,8 C0,12.41 3.59,16 8,16 C12.41,16 16,12.41 16,8 C16,3.59 12.41,0 8,0 Z M9.23,13.33 L9.23,15 L6.9,15 L6.9,13.31 C5.4,13 4.13,12.03 4.04,10.34 L5.75,10.34 C5.84,11.26 6.47,11.98 8.07,11.98 C9.78,11.98 10.17,11.12 10.17,10.59 C10.17,9.86 9.78,9.18 7.83,8.72 C5.66,8.19 4.17,7.3 4.17,5.51 C4.17,4 5.39,3.03 6.89,2.7 L6.89,1 L9.23,1 L9.23,2.71 C10.86,3.1 11.67,4.34 11.72,5.68 L10.01,5.68 C9.97,4.71 9.45,4.04 8.07,4.04 C6.76,4.04 5.97,4.63 5.97,5.47 C5.97,6.2 6.54,6.69 8.31,7.14 C10.08,7.6 11.97,8.36 11.97,10.56 C11.96,12.16 10.76,13.04 9.23,13.33 Z" id="path-1"></path>
        <path d="M10,0 C4.48,0 0,4.48 0,10 C0,15.52 4.48,20 10,20 C15.52,20 20,15.52 20,10 C20,4.48 15.52,0 10,0 Z M10,18 C5.59,18 2,14.41 2,10 C2,5.59 5.59,2 10,2 C14.41,2 18,5.59 18,10 C18,14.41 14.41,18 10,18 Z" id="path-3"></path>
        <path d="M4.31,6.14 C2.54,5.69 1.97,5.2 1.97,4.47 C1.97,3.63 2.76,3.04 4.07,3.04 C5.45,3.04 5.97,3.7 6.01,4.68 L7.72,4.68 C7.67,3.34 6.85,2.11 5.23,1.71 L5.23,0 L2.9,0 L2.9,1.69 C1.39,2.01 0.18,2.99 0.18,4.5 C0.18,6.29 1.67,7.19 3.84,7.71 C5.79,8.17 6.18,8.86 6.18,9.58 C6.18,10.11 5.79,10.97 4.08,10.97 C2.48,10.97 1.85,10.25 1.76,9.33 L0.04,9.33 C0.14,11.03 1.4,11.99 2.9,12.3 L2.9,14 L5.24,14 L5.24,12.33 C6.76,12.04 7.96,11.17 7.97,9.56 C7.96,7.36 6.07,6.6 4.31,6.14 Z" id="path-5"></path>
    </defs>
    <g id="icon/editor/monetization_on_24px" stroke="none" stroke-width="1" fill="none" fill-rule="evenodd">
        <g id="↳-Light-Color" transform="translate(4.000000, 4.000000)">
            <mask id="mask-2" fill="white">
                <use xlink:href="#path-1"></use>
            </mask>
            <g id="Mask" opacity="0.3" fill-rule="nonzero"></g>
            <g id="✱-/-Color-/-Icons-/-Black-/-Disabled" mask="url(#mask-2)" fill="#000000" fill-opacity="0.38">
                <rect id="Rectangle" x="0" y="0" width="101" height="101"></rect>
            </g>
        </g>
        <g id="↳-Dark-Color" transform="translate(2.000000, 2.000000)">
            <mask id="mask-4" fill="white">
                <use xlink:href="#path-3"></use>
            </mask>
            <g id="Mask" fill-rule="nonzero"></g>
            <g id="✱-/-Color-/-Icons-/-Black-/-Inactive" mask="url(#mask-4)" fill="#000000" fill-opacity="0.54">
                <rect id="Rectangle" x="0" y="0" width="101" height="101"></rect>
            </g>
        </g>
        <g id="↳-Dark-Color" transform="translate(8.000000, 5.000000)">
            <mask id="mask-6" fill="white">
                <use xlink:href="#path-5"></use>
            </mask>
            <g id="Mask" fill-rule="nonzero"></g>
            <g id="✱-/-Color-/-Icons-/-Black-/-Inactive" mask="url(#mask-6)" fill="#000000" fill-opacity="0.54">
                <rect id="Rectangle" x="0" y="0" width="101" height="101"></rect>
            </g>
        </g>
    </g>
</svg>