<?xml version="1.0" encoding="UTF-8"?>
<svg width="24px" height="24px" viewBox="0 0 24 24" version="1.1" xmlns="http://www.w3.org/2000/svg" xmlns:xlink="http://www.w3.org/1999/xlink">
    <!-- Generator: Sketch 50 (54983) - http://www.bohemiancoding.com/sketch -->
    <title>icon/editor/money_off_24px_two_tone</title>
    <desc>Created with Sketch.</desc>
    <defs>
        <path d="M3.5,3.9 C5.28,3.9 5.94,4.75 6,6 L8.21,6 C8.14,4.28 7.09,2.7 5,2.19 L5,0 L2,0 L2,2.16 C1.61,2.24 1.25,2.37 0.9,2.52 L2.41,4.03 C2.73,3.95 3.1,3.9 3.5,3.9 Z" id="path-1"></path>
        <path d="M1.47,0.92 L0.06,2.33 L3.5,5.77 C3.5,7.85 5.06,8.99 7.41,9.68 L10.92,13.19 C10.58,13.68 9.87,14.1 8.5,14.1 C6.44,14.1 5.63,13.18 5.52,12 L3.32,12 C3.44,14.19 5.08,15.42 7,15.83 L7,18 L10,18 L10,15.85 C10.96,15.67 11.83,15.3 12.46,14.73 L14.68,16.95 L16.09,15.54 L1.47,0.92 Z" id="path-3"></path>
    </defs>
    <g id="icon/editor/money_off_24px" stroke="none" stroke-width="1" fill="none" fill-rule="evenodd">
        <g id="↳-Dark-Color" transform="translate(9.000000, 3.000000)">
            <mask id="mask-2" fill="white">
                <use xlink:href="#path-1"></use>
            </mask>
            <g id="Mask" fill-rule="nonzero"></g>
            <g id="✱-/-Color-/-Icons-/-Black-/-Inactive" mask="url(#mask-2)" fill="#000000" fill-opacity="0.54">
                <rect id="Rectangle" x="0" y="0" width="101" height="101"></rect>
            </g>
        </g>
        <g id="↳-Dark-Color" transform="translate(4.000000, 3.000000)">
            <mask id="mask-4" fill="white">
                <use xlink:href="#path-3"></use>
            </mask>
            <g id="Mask" fill-rule="nonzero"></g>
            <g id="✱-/-Color-/-Icons-/-Black-/-Inactive" mask="url(#mask-4)" fill="#000000" fill-opacity="0.54">
                <rect id="Rectangle" x="0" y="0" width="101" height="101"></rect>
            </g>
        </g>
    </g>
</svg>