<?xml version="1.0" encoding="UTF-8"?>
<svg width="24px" height="24px" viewBox="0 0 24 24" version="1.1" xmlns="http://www.w3.org/2000/svg" xmlns:xlink="http://www.w3.org/1999/xlink">
    <!-- Generator: Sketch 50 (54983) - http://www.bohemiancoding.com/sketch -->
    <title>icon/editor/pie_chart_outline_24px_two_tone</title>
    <desc>Created with Sketch.</desc>
    <defs>
        <path d="M10,0 C4.5,0 0,4.5 0,10 C0,15.5 4.5,20 10,20 C15.5,20 20,15.5 20,10 C20,4.5 15.5,0 10,0 Z M9,17.94 C5.07,17.44 2,14.06 2,10 C2,5.94 5.07,2.56 9,2.07 L9,17.94 Z M11,17.93 L11,11 L17.93,11 C17.48,14.61 14.61,17.48 11,17.93 Z M11,9 L11,2.07 C14.61,2.52 17.48,5.4 17.93,9 L11,9 Z" id="path-1"></path>
    </defs>
    <g id="icon/editor/pie_chart_outline_24px" stroke="none" stroke-width="1" fill="none" fill-rule="evenodd">
        <g id="↳-Dark-Color" transform="translate(2.000000, 2.000000)">
            <mask id="mask-2" fill="white">
                <use xlink:href="#path-1"></use>
            </mask>
            <g id="Mask" fill-rule="nonzero"></g>
            <g id="✱-/-Color-/-Icons-/-Black-/-Inactive" mask="url(#mask-2)" fill="#000000" fill-opacity="0.54">
                <rect id="Rectangle" x="0" y="0" width="101" height="101"></rect>
            </g>
        </g>
    </g>
</svg>