<?xml version="1.0" encoding="UTF-8"?>
<svg width="24px" height="24px" viewBox="0 0 24 24" version="1.1" xmlns="http://www.w3.org/2000/svg" xmlns:xlink="http://www.w3.org/1999/xlink">
    <!-- Generator: Sketch 50 (54983) - http://www.bohemiancoding.com/sketch -->
    <title>icon/editor/strikethrough_s_24px_two_tone</title>
    <desc>Created with Sketch.</desc>
    <defs>
        <path d="M4.44,2.88 C4.63,2.73 4.87,2.61 5.16,2.52 C5.45,2.43 5.8,2.39 6.19,2.39 C6.59,2.39 6.95,2.45 7.25,2.55 C7.55,2.66 7.8,2.8 8,2.99 C8.2,3.18 8.35,3.4 8.44,3.67 C8.54,3.93 8.59,4.21 8.59,4.52 L11.6,4.52 C11.6,3.86 11.47,3.26 11.22,2.71 C10.97,2.16 10.61,1.68 10.14,1.28 C9.68,0.88 9.11,0.56 8.45,0.34 C7.78,0.11 7.05,0 6.24,0 C5.45,0 4.72,0.1 4.06,0.29 C3.41,0.49 2.84,0.77 2.36,1.12 C1.88,1.48 1.51,1.91 1.25,2.41 C0.98,2.92 0.85,3.47 0.85,4.08 C0.85,4.72 0.98,5.27 1.24,5.75 C1.28,5.83 1.34,5.92 1.39,6 L6,6 C5.36,5.78 4.97,5.55 4.59,5.3 C4.1,4.97 3.85,4.57 3.85,4.09 C3.85,3.86 3.9,3.64 4,3.43 C4.1,3.22 4.25,3.04 4.44,2.88 Z" id="path-1"></path>
        <path d="M0,2 L9.62,2 C9.8,2.07 10.02,2.14 10.17,2.2 C10.54,2.37 10.83,2.54 11.04,2.71 C11.25,2.88 11.39,3.07 11.47,3.28 C11.54,3.48 11.58,3.71 11.58,3.97 C11.58,4.2 11.53,4.42 11.44,4.63 C11.35,4.83 11.21,5.01 11.02,5.16 C10.83,5.31 10.6,5.42 10.31,5.51 C10.02,5.59 9.68,5.64 9.3,5.64 C8.87,5.64 8.47,5.6 8.12,5.51 C7.77,5.42 7.46,5.28 7.21,5.09 C6.96,4.9 6.76,4.65 6.62,4.34 C6.48,4.03 6.37,3.58 6.37,3.13 L3.4,3.13 C3.4,3.68 3.48,4.26 3.64,4.71 C3.8,5.16 4.01,5.56 4.29,5.92 C4.57,6.27 4.89,6.58 5.27,6.84 C5.64,7.1 6.05,7.32 6.49,7.49 C6.93,7.66 7.39,7.79 7.87,7.88 C8.35,7.96 8.83,8.01 9.31,8.01 C10.11,8.01 10.84,7.92 11.49,7.73 C12.14,7.54 12.7,7.28 13.16,6.94 C13.62,6.6 13.98,6.17 14.23,5.67 C14.48,5.17 14.61,4.6 14.61,3.96 C14.61,3.36 14.51,2.82 14.3,2.35 C14.25,2.24 14.19,2.12 14.13,2.02 L18,2.02 L18,2 L18,0 L0,0 L0,2 Z" id="path-3"></path>
    </defs>
    <g id="icon/editor/strikethrough_s_24px" stroke="none" stroke-width="1" fill="none" fill-rule="evenodd">
        <g id="↳-Dark-Color" transform="translate(6.000000, 3.000000)">
            <mask id="mask-2" fill="white">
                <use xlink:href="#path-1"></use>
            </mask>
            <g id="Mask" fill-rule="nonzero"></g>
            <g id="✱-/-Color-/-Icons-/-Black-/-Inactive" mask="url(#mask-2)" fill="#000000" fill-opacity="0.54">
                <rect id="Rectangle" x="0" y="0" width="101" height="101"></rect>
            </g>
        </g>
        <g id="↳-Dark-Color" transform="translate(3.000000, 10.000000)">
            <mask id="mask-4" fill="white">
                <use xlink:href="#path-3"></use>
            </mask>
            <g id="Mask" fill-rule="nonzero"></g>
            <g id="✱-/-Color-/-Icons-/-Black-/-Inactive" mask="url(#mask-4)" fill="#000000" fill-opacity="0.54">
                <rect id="Rectangle" x="0" y="0" width="101" height="101"></rect>
            </g>
        </g>
    </g>
</svg>