<?xml version="1.0" encoding="UTF-8"?>
<svg width="24px" height="24px" viewBox="0 0 24 24" version="1.1" xmlns="http://www.w3.org/2000/svg" xmlns:xlink="http://www.w3.org/1999/xlink">
    <!-- Generator: Sketch 50 (54983) - http://www.bohemiancoding.com/sketch -->
    <title>icon/notification/adb_24px_outlined</title>
    <desc>Created with Sketch.</desc>
    <defs>
        <path d="M5,15.78 C5,19.65 8.13,22.78 12,22.78 C15.87,22.78 19,19.65 19,15.78 L19,11.78 L5,11.78 L5,15.78 Z M16.12,4.15 L18.22,2.05 L17.4,1.22 L15.1,3.53 C14.16,3.06 13.12,2.78 12,2.78 C10.88,2.78 9.84,3.06 8.91,3.53 L6.6,1.22 L5.78,2.05 L7.88,4.15 C6.14,5.42 5,7.46 5,9.78 L5,10.78 L19,10.78 L19,9.78 C19,7.46 17.86,5.42 16.12,4.15 Z M9,8.78 C8.45,8.78 8,8.33 8,7.78 C8,7.23 8.45,6.78 9,6.78 C9.55,6.78 10,7.23 10,7.78 C10,8.33 9.55,8.78 9,8.78 Z M15,8.78 C14.45,8.78 14,8.33 14,7.78 C14,7.23 14.45,6.78 15,6.78 C15.55,6.78 16,7.23 16,7.78 C16,8.33 15.55,8.78 15,8.78 Z" id="path-1"></path>
    </defs>
    <g id="icon/notification/adb_24px" stroke="none" stroke-width="1" fill="none" fill-rule="evenodd">
        <mask id="mask-2" fill="white">
            <use xlink:href="#path-1"></use>
        </mask>
        <g fill-rule="nonzero"></g>
        <g id="✱-/-Color-/-Icons-/-Black-/-Inactive" mask="url(#mask-2)" fill="#000000" fill-opacity="0.54">
            <rect id="Rectangle" x="0" y="0" width="24" height="24"></rect>
        </g>
    </g>
</svg>