<?xml version="1.0" encoding="UTF-8"?>
<svg width="24px" height="24px" viewBox="0 0 24 24" version="1.1" xmlns="http://www.w3.org/2000/svg" xmlns:xlink="http://www.w3.org/1999/xlink">
    <!-- Generator: Sketch 50 (54983) - http://www.bohemiancoding.com/sketch -->
    <title>icon/notification/airline_seat_flat_24px_outlined</title>
    <desc>Created with Sketch.</desc>
    <defs>
        <path d="M5,12.5 C5.78,12.5 6.55,12.2 7.14,11.6 C8.3,10.41 8.28,8.52 7.1,7.36 C6.51,6.79 5.75,6.5 5,6.5 C4.22,6.5 3.45,6.8 2.86,7.4 C1.7,8.59 1.72,10.48 2.9,11.64 C3.49,12.21 4.25,12.5 5,12.5 Z M4.29,8.8 C4.48,8.61 4.73,8.5 5,8.5 C5.26,8.5 5.51,8.6 5.7,8.78 C6.1,9.17 6.1,9.79 5.72,10.19 C5.52,10.39 5.27,10.5 5,10.5 C4.74,10.5 4.49,10.4 4.3,10.22 C3.9,9.82 3.9,9.2 4.29,8.8 Z M18,6.5 L9,6.5 L9,12.5 L22,12.5 L22,10.5 C22,8.29 20.21,6.5 18,6.5 Z M11,10.5 L11,8.5 L18,8.5 C19.1,8.5 20,9.4 20,10.5 L11,10.5 Z M2,15.5 L8,15.5 L8,17.5 L16,17.5 L16,15.5 L22,15.5 L22,13.5 L2,13.5 L2,15.5 Z" id="path-1"></path>
    </defs>
    <g id="icon/notification/airline_seat_flat_24px" stroke="none" stroke-width="1" fill="none" fill-rule="evenodd">
        <mask id="mask-2" fill="white">
            <use xlink:href="#path-1"></use>
        </mask>
        <g fill-rule="nonzero"></g>
        <g id="✱-/-Color-/-Icons-/-Black-/-Inactive" mask="url(#mask-2)" fill="#000000" fill-opacity="0.54">
            <rect id="Rectangle" x="0" y="0" width="24" height="24"></rect>
        </g>
    </g>
</svg>