<?xml version="1.0" encoding="UTF-8"?>
<svg width="24px" height="24px" viewBox="0 0 24 24" version="1.1" xmlns="http://www.w3.org/2000/svg" xmlns:xlink="http://www.w3.org/1999/xlink">
    <!-- Generator: Sketch 50 (54983) - http://www.bohemiancoding.com/sketch -->
    <title>icon/notification/airline_seat_flat_angled_24px_outlined</title>
    <desc>Created with Sketch.</desc>
    <defs>
        <path d="M6.00078779,6.75 C6.31078779,6.75 6.70078779,6.9 6.90078779,7.31 C7.14078779,7.81 6.92078779,8.41 6.43078779,8.65 C6.29078779,8.71 6.15078779,8.75 6.00078779,8.75 C5.70078779,8.75 5.30078779,8.6 5.11078779,8.19 C4.94078779,7.85 5.01078779,7.56 5.06078779,7.41 C5.11078779,7.27 5.24078779,7.01 5.57078779,6.85 C5.71078779,6.79 5.85078779,6.75 6.00078779,6.75 Z M12.4707878,8.86 L19.1607878,11.27 C19.6807878,11.46 20.0907878,11.83 20.3107878,12.32 C20.5307878,12.8 20.5607878,13.35 20.3707878,13.85 L20.3607878,13.87 L11.7707878,10.76 L12.4707878,8.86 Z M10.0007878,15.44 L14.0007878,16.88 L14.0007878,17.25 L10.0007878,17.25 L10.0007878,15.44 Z M6.00078779,4.75 C5.56078779,4.75 5.12078779,4.85 4.70078779,5.05 C3.21078779,5.76 2.58078779,7.55 3.30078779,9.05 C3.81078779,10.12 4.88078779,10.75 6.00078779,10.75 C6.44078779,10.75 6.88078779,10.65 7.30078779,10.45 C8.79078779,9.73 9.42078779,7.94 8.71078779,6.45 C8.19078779,5.38 7.12078779,4.75 6.00078779,4.75 Z M11.2807878,6.3 L9.20078779,11.96 L21.5607878,16.43 L22.2507878,14.54 C23.0207878,12.45 21.9407878,10.15 19.8407878,9.39 L11.2807878,6.3 Z M2.19078779,10.5 L1.50078779,12.39 L8.00078779,14.73 L8.00078779,19.25 L16.0007878,19.25 L16.0007878,17.62 L20.5207878,19.25 L21.2107878,17.36 L2.19078779,10.5 Z" id="path-1"></path>
    </defs>
    <g id="icon/notification/airline_seat_flat_angled_24px" stroke="none" stroke-width="1" fill="none" fill-rule="evenodd">
        <mask id="mask-2" fill="white">
            <use xlink:href="#path-1"></use>
        </mask>
        <g fill-rule="nonzero"></g>
        <g id="✱-/-Color-/-Icons-/-Black-/-Inactive" mask="url(#mask-2)" fill="#000000" fill-opacity="0.54">
            <rect id="Rectangle" x="0" y="0" width="24" height="24"></rect>
        </g>
    </g>
</svg>