<?xml version="1.0" encoding="UTF-8"?>
<svg width="24px" height="24px" viewBox="0 0 24 24" version="1.1" xmlns="http://www.w3.org/2000/svg" xmlns:xlink="http://www.w3.org/1999/xlink">
    <!-- Generator: Sketch 50 (54983) - http://www.bohemiancoding.com/sketch -->
    <title>icon/notification/airline_seat_individual_suite_24px_outlined</title>
    <desc>Created with Sketch.</desc>
    <defs>
        <path d="M7,14 C8.66,14 10,12.66 10,11 C10,9.34 8.66,8 7,8 C5.34,8 4,9.34 4,11 C4,12.66 5.34,14 7,14 Z M7,10 C7.55,10 8,10.45 8,11 C8,11.55 7.55,12 7,12 C6.45,12 6,11.55 6,11 C6,10.45 6.45,10 7,10 Z M19,7 L11,7 L11,15 L3,15 L3,7 L1,7 L1,17 L23,17 L23,11 C23,8.79 21.21,7 19,7 Z M21,15 L13,15 L13,9 L19,9 C20.1,9 21,9.9 21,11 L21,15 Z" id="path-1"></path>
    </defs>
    <g id="icon/notification/airline_seat_individual_suite_24px" stroke="none" stroke-width="1" fill="none" fill-rule="evenodd">
        <mask id="mask-2" fill="white">
            <use xlink:href="#path-1"></use>
        </mask>
        <g fill-rule="nonzero"></g>
        <g id="✱-/-Color-/-Icons-/-Black-/-Inactive" mask="url(#mask-2)" fill="#000000" fill-opacity="0.54">
            <rect id="Rectangle" x="0" y="0" width="24" height="24"></rect>
        </g>
    </g>
</svg>