<?xml version="1.0" encoding="UTF-8"?>
<svg width="24px" height="24px" viewBox="0 0 24 24" version="1.1" xmlns="http://www.w3.org/2000/svg" xmlns:xlink="http://www.w3.org/1999/xlink">
    <!-- Generator: Sketch 50 (54983) - http://www.bohemiancoding.com/sketch -->
    <title>icon/notification/airline_seat_legroom_normal_24px_outlined</title>
    <desc>Created with Sketch.</desc>
    <defs>
        <path d="M4.5,12 L4.5,3 L2.5,3 L2.5,12 C2.5,14.76 4.74,17 7.5,17 L13.5,17 L13.5,15 L7.5,15 C5.84,15 4.5,13.66 4.5,12 Z M20,18 L18.5,18 L18.5,11 C18.5,9.9 17.6,9 16.5,9 L11.5,9 L11.5,3 L5.5,3 L5.5,11 C5.5,12.65 6.85,14 8.5,14 L15.5,14 L15.5,21 L20,21 C20.83,21 21.5,20.33 21.5,19.5 C21.5,18.67 20.83,18 20,18 Z" id="path-1"></path>
    </defs>
    <g id="icon/notification/airline_seat_legroom_normal_24px" stroke="none" stroke-width="1" fill="none" fill-rule="evenodd">
        <mask id="mask-2" fill="white">
            <use xlink:href="#path-1"></use>
        </mask>
        <g fill-rule="nonzero"></g>
        <g id="✱-/-Color-/-Icons-/-Black-/-Inactive" mask="url(#mask-2)" fill="#000000" fill-opacity="0.54">
            <rect id="Rectangle" x="0" y="0" width="24" height="24"></rect>
        </g>
    </g>
</svg>