<?xml version="1.0" encoding="UTF-8"?>
<svg width="24px" height="24px" viewBox="0 0 24 24" version="1.1" xmlns="http://www.w3.org/2000/svg" xmlns:xlink="http://www.w3.org/1999/xlink">
    <!-- Generator: Sketch 50 (54983) - http://www.bohemiancoding.com/sketch -->
    <title>icon/notification/confirmation_number_24px_outlined</title>
    <desc>Created with Sketch.</desc>
    <defs>
        <path d="M22,10 L22,6 C22,4.89 21.1,4 20,4 L4,4 C2.9,4 2.01,4.89 2.01,6 L2.01,10 C3.11,10 4,10.9 4,12 C4,13.1 3.11,14 2,14 L2,18 C2,19.1 2.9,20 4,20 L20,20 C21.1,20 22,19.1 22,18 L22,14 C20.9,14 20,13.1 20,12 C20,10.9 20.9,10 22,10 Z M20,8.54 C18.81,9.23 18,10.53 18,12 C18,13.47 18.81,14.77 20,15.46 L20,18 L4,18 L4,15.46 C5.19,14.77 6,13.47 6,12 C6,10.52 5.2,9.23 4.01,8.54 L4,6 L20,6 L20,8.54 Z M11,15 L13,15 L13,17 L11,17 L11,15 Z M11,11 L13,11 L13,13 L11,13 L11,11 Z M11,7 L13,7 L13,9 L11,9 L11,7 Z" id="path-1"></path>
    </defs>
    <g id="icon/notification/confirmation_number_24px" stroke="none" stroke-width="1" fill="none" fill-rule="evenodd">
        <mask id="mask-2" fill="white">
            <use xlink:href="#path-1"></use>
        </mask>
        <g fill-rule="nonzero"></g>
        <g id="✱-/-Color-/-Icons-/-Black-/-Inactive" mask="url(#mask-2)" fill="#000000" fill-opacity="0.54">
            <rect id="Rectangle" x="0" y="0" width="24" height="24"></rect>
        </g>
    </g>
</svg>