<?xml version="1.0" encoding="UTF-8"?>
<svg width="24px" height="24px" viewBox="0 0 24 24" version="1.1" xmlns="http://www.w3.org/2000/svg" xmlns:xlink="http://www.w3.org/1999/xlink">
    <!-- Generator: Sketch 50 (54983) - http://www.bohemiancoding.com/sketch -->
    <title>icon/notification/disc_full_24px_outlined</title>
    <desc>Created with Sketch.</desc>
    <defs>
        <path d="M20,7 L22,7 L22,12 L20,12 L20,7 Z M10,4 C5.58,4 2,7.58 2,12 C2,16.42 5.58,20 10,20 C14.42,20 18,16.42 18,12 C18,7.58 14.42,4 10,4 Z M10,18 C6.69,18 4,15.31 4,12 C4,8.69 6.69,6 10,6 C13.31,6 16,8.69 16,12 C16,15.31 13.31,18 10,18 Z M20,14 L22,14 L22,16 L20,16 L20,14 Z M10,10 C8.9,10 8,10.9 8,12 C8,13.1 8.9,14 10,14 C11.1,14 12,13.1 12,12 C12,10.9 11.1,10 10,10 Z" id="path-1"></path>
    </defs>
    <g id="icon/notification/disc_full_24px" stroke="none" stroke-width="1" fill="none" fill-rule="evenodd">
        <mask id="mask-2" fill="white">
            <use xlink:href="#path-1"></use>
        </mask>
        <g fill-rule="nonzero"></g>
        <g id="✱-/-Color-/-Icons-/-Black-/-Inactive" mask="url(#mask-2)" fill="#000000" fill-opacity="0.54">
            <rect id="Rectangle" x="0" y="0" width="24" height="24"></rect>
        </g>
    </g>
</svg>