<?xml version="1.0" encoding="UTF-8"?>
<svg width="24px" height="24px" viewBox="0 0 24 24" version="1.1" xmlns="http://www.w3.org/2000/svg" xmlns:xlink="http://www.w3.org/1999/xlink">
    <!-- Generator: Sketch 50 (54983) - http://www.bohemiancoding.com/sketch -->
    <title>icon/notification/event_busy_24px_outlined</title>
    <desc>Created with Sketch.</desc>
    <defs>
        <path d="M19,4 L18,4 L18,2 L16,2 L16,4 L8,4 L8,2 L6,2 L6,4 L5,4 C3.9,4 3,4.9 3,6 L3,20 C3,21.1 3.9,22 5,22 L19,22 C20.1,22 21,21.1 21,20 L21,6 C21,4.9 20.1,4 19,4 Z M19,20 L5,20 L5,10 L19,10 L19,20 Z M5,8 L5,6 L19,6 L19,8 L5,8 Z M8.23,17.41 L9.29,18.47 L11.73,16.03 L14.17,18.47 L15.23,17.41 L12.79,14.97 L15.23,12.53 L14.17,11.47 L11.73,13.91 L9.29,11.47 L8.23,12.53 L10.67,14.97 L8.23,17.41 Z" id="path-1"></path>
    </defs>
    <g id="icon/notification/event_busy_24px" stroke="none" stroke-width="1" fill="none" fill-rule="evenodd">
        <mask id="mask-2" fill="white">
            <use xlink:href="#path-1"></use>
        </mask>
        <g fill-rule="nonzero"></g>
        <g id="✱-/-Color-/-Icons-/-Black-/-Inactive" mask="url(#mask-2)" fill="#000000" fill-opacity="0.54">
            <rect id="Rectangle" x="0" y="0" width="24" height="24"></rect>
        </g>
    </g>
</svg>