<?xml version="1.0" encoding="UTF-8"?>
<svg width="24px" height="24px" viewBox="0 0 24 24" version="1.1" xmlns="http://www.w3.org/2000/svg" xmlns:xlink="http://www.w3.org/1999/xlink">
    <!-- Generator: Sketch 50 (54983) - http://www.bohemiancoding.com/sketch -->
    <title>icon/notification/network_locked_24px_outlined</title>
    <desc>Created with Sketch.</desc>
    <defs>
        <path d="M22,16.5 L22,16 C22,14.62 20.88,13.5 19.5,13.5 C18.12,13.5 17,14.62 17,16 L17,16.5 C16.45,16.5 16,16.95 16,17.5 L16,21.5 C16,22.05 16.45,22.5 17,22.5 L22,22.5 C22.55,22.5 23,22.05 23,21.5 L23,17.5 C23,16.95 22.55,16.5 22,16.5 Z M21,16.5 L18,16.5 L18,16 C18,15.17 18.67,14.5 19.5,14.5 C20.33,14.5 21,15.17 21,16 L21,16.5 Z M18,6.33 L18,11.76 C18.47,11.6 18.97,11.5 19.5,11.5 C19.67,11.5 19.83,11.53 20,11.55 L20,1.5 L1,20.5 L14,20.5 L14,18.5 L5.83,18.5 L18,6.33 Z" id="path-1"></path>
    </defs>
    <g id="icon/notification/network_locked_24px" stroke="none" stroke-width="1" fill="none" fill-rule="evenodd">
        <mask id="mask-2" fill="white">
            <use xlink:href="#path-1"></use>
        </mask>
        <g fill-rule="nonzero"></g>
        <g id="✱-/-Color-/-Icons-/-Black-/-Inactive" mask="url(#mask-2)" fill="#000000" fill-opacity="0.54">
            <rect id="Rectangle" x="0" y="0" width="24" height="24"></rect>
        </g>
    </g>
</svg>