<?xml version="1.0" encoding="UTF-8"?>
<svg width="24px" height="24px" viewBox="0 0 24 24" version="1.1" xmlns="http://www.w3.org/2000/svg" xmlns:xlink="http://www.w3.org/1999/xlink">
    <!-- Generator: Sketch 50 (54983) - http://www.bohemiancoding.com/sketch -->
    <title>icon/notification/phone_missed_24px_outlined</title>
    <desc>Created with Sketch.</desc>
    <defs>
        <path d="M23.7001249,16.8 C20.6513953,13.91 16.5331112,12.13 11.9950021,12.13 C7.45689296,12.13 3.33860891,13.91 0.289879217,16.8 C0.109954186,16.98 0,17.23 0,17.51 C0,17.79 0.109954186,18.04 0.289879217,18.22 L2.76884631,20.7 C2.94877135,20.88 3.19866722,20.99 3.4785506,20.99 C3.74843815,20.99 3.99833403,20.88 4.17825906,20.71 C4.96793003,19.97 5.86755519,19.35 6.83715119,18.86 C7.16701374,18.7 7.39691795,18.36 7.39691795,17.96 L7.39691795,14.86 C8.84631404,14.38 10.3956685,14.13 11.9950021,14.13 C13.5943357,14.13 15.1436901,14.38 16.5930862,14.85 L16.5930862,17.95 C16.5930862,18.34 16.8229904,18.69 17.152853,18.85 C18.1324448,19.34 19.0220741,19.97 19.8217409,20.7 C20.001666,20.88 20.2515618,20.98 20.5214494,20.98 C20.8013328,20.98 21.0512287,20.87 21.2311537,20.69 L23.7101208,18.21 C23.8900458,18.03 24,17.78 24,17.5 C24,17.22 23.88005,16.98 23.7001249,16.8 Z M5.39775094,17.36 C4.73802582,17.73 4.10828821,18.16 3.52852978,18.63 L2.45897543,17.56 C3.36859642,16.81 4.35818409,16.17 5.40774677,15.66 L5.40774677,17.36 L5.39775094,17.36 Z M20.4714702,18.62 C19.8717201,18.14 19.2519783,17.72 18.5922532,17.35 L18.5922532,15.65 C19.6418159,16.16 20.6214077,16.8 21.5410246,17.55 L20.4714702,18.62 Z M6.99708455,6.56 L11.9350271,11.5 L19.0020825,4.43 L17.5926697,3.01 L11.9350271,8.67 L8.39650146,5.13 L10.9954186,5.13 L10.9954186,3.13 L4.99791753,3.13 L4.99791753,9.13 L6.99708455,9.13 L6.99708455,6.56 Z" id="path-1"></path>
    </defs>
    <g id="icon/notification/phone_missed_24px" stroke="none" stroke-width="1" fill="none" fill-rule="evenodd">
        <mask id="mask-2" fill="white">
            <use xlink:href="#path-1"></use>
        </mask>
        <g fill-rule="nonzero"></g>
        <g id="✱-/-Color-/-Icons-/-Black-/-Inactive" mask="url(#mask-2)" fill="#000000" fill-opacity="0.54">
            <rect id="Rectangle" x="0" y="0" width="24" height="24"></rect>
        </g>
    </g>
</svg>