<?xml version="1.0" encoding="UTF-8"?>
<svg width="24px" height="24px" viewBox="0 0 24 24" version="1.1" xmlns="http://www.w3.org/2000/svg" xmlns:xlink="http://www.w3.org/1999/xlink">
    <!-- Generator: Sketch 50 (54983) - http://www.bohemiancoding.com/sketch -->
    <title>icon/notification/phone_bluetooth_speaker_24px_outlined</title>
    <desc>Created with Sketch.</desc>
    <defs>
        <path d="M20,16.5 C18.75,16.5 17.55,16.3 16.43,15.93 C16.33,15.9 16.22,15.88 16.12,15.88 C15.86,15.88 15.61,15.98 15.41,16.17 L13.21,18.37 C10.38,16.93 8.06,14.62 6.62,11.78 L8.82,9.57 C9.1,9.31 9.18,8.92 9.07,8.57 C8.7,7.45 8.5,6.25 8.5,5 C8.5,4.45 8.05,4 7.5,4 L4,4 C3.45,4 3,4.45 3,5 C3,14.39 10.61,22 20,22 C20.55,22 21,21.55 21,21 L21,17.5 C21,16.95 20.55,16.5 20,16.5 Z M5.03,6 L6.53,6 C6.6,6.88 6.75,7.75 6.98,8.58 L5.78,9.79 C5.38,8.58 5.12,7.32 5.03,6 Z M19,19.97 C17.68,19.88 16.4,19.62 15.2,19.21 L16.4,18.01 C17.25,18.25 18.12,18.4 19,18.46 L19,19.97 Z M14.71,10.5 L17,8.21 L17,12 L17.5,12 L20.35,9.15 L18.21,7 L20.36,4.85 L17.5,2 L17,2 L17,5.79 L14.71,3.5 L14,4.21 L16.79,7 L14,9.79 L14.71,10.5 Z M18,3.91 L18.94,4.85 L18,5.79 L18,3.91 Z M18,8.21 L18.94,9.15 L18,10.09 L18,8.21 Z" id="path-1"></path>
    </defs>
    <g id="icon/notification/phone_bluetooth_speaker_24px" stroke="none" stroke-width="1" fill="none" fill-rule="evenodd">
        <mask id="mask-2" fill="white">
            <use xlink:href="#path-1"></use>
        </mask>
        <g fill-rule="nonzero"></g>
        <g id="✱-/-Color-/-Icons-/-Black-/-Inactive" mask="url(#mask-2)" fill="#000000" fill-opacity="0.54">
            <rect id="Rectangle" x="0" y="0" width="24" height="24"></rect>
        </g>
    </g>
</svg>