<?xml version="1.0" encoding="UTF-8"?>
<svg width="24px" height="24px" viewBox="0 0 24 24" version="1.1" xmlns="http://www.w3.org/2000/svg" xmlns:xlink="http://www.w3.org/1999/xlink">
    <!-- Generator: Sketch 50 (54983) - http://www.bohemiancoding.com/sketch -->
    <title>icon/notification/phone_callback_24px_outlined</title>
    <desc>Created with Sketch.</desc>
    <defs>
        <path d="M20,15.725 C18.76,15.725 17.55,15.525 16.43,15.155 C16.33,15.115 16.22,15.105 16.12,15.105 C15.86,15.105 15.61,15.205 15.41,15.395 L13.21,17.595 C10.38,16.145 8.06,13.835 6.62,11.005 L8.82,8.805 C9.1,8.525 9.18,8.135 9.07,7.785 C8.7,6.665 8.5,5.465 8.5,4.215 C8.5,3.665 8.05,3.215 7.5,3.215 L4,3.215 C3.45,3.215 3,3.665 3,4.215 C3,13.605 10.61,21.215 20,21.215 C20.55,21.215 21,20.765 21,20.215 L21,16.725 C21,16.175 20.55,15.725 20,15.725 Z M5.03,5.215 L6.53,5.215 C6.6,6.105 6.75,6.975 6.99,7.805 L5.79,9.005 C5.38,7.805 5.12,6.535 5.03,5.215 Z M19,19.185 C17.68,19.095 16.41,18.835 15.2,18.435 L16.39,17.245 C17.24,17.485 18.11,17.635 18.99,17.695 L18.99,19.185 L19,19.185 Z M18,9.215 L15.41,9.215 L20.43,4.195 L19.02,2.785 L14,7.805 L14,5.215 L12,5.215 L12,11.215 L18,11.215 L18,9.215 Z" id="path-1"></path>
    </defs>
    <g id="icon/notification/phone_callback_24px" stroke="none" stroke-width="1" fill="none" fill-rule="evenodd">
        <mask id="mask-2" fill="white">
            <use xlink:href="#path-1"></use>
        </mask>
        <g fill-rule="nonzero"></g>
        <g id="✱-/-Color-/-Icons-/-Black-/-Inactive" mask="url(#mask-2)" fill="#000000" fill-opacity="0.54">
            <rect id="Rectangle" x="0" y="0" width="24" height="24"></rect>
        </g>
    </g>
</svg>