<?xml version="1.0" encoding="UTF-8"?>
<svg width="24px" height="24px" viewBox="0 0 24 24" version="1.1" xmlns="http://www.w3.org/2000/svg" xmlns:xlink="http://www.w3.org/1999/xlink">
    <!-- Generator: Sketch 50 (54983) - http://www.bohemiancoding.com/sketch -->
    <title>icon/notification/power_24px_outlined</title>
    <desc>Created with Sketch.</desc>
    <defs>
        <path d="M16,9 L16,13.66 L12.5,17.17 L12.5,19 L11.5,19 L11.5,17.17 L8,13.65 L8,9 L16,9 Z M16,3 L14,3 L14,7 L10,7 L10,3 L8,3 L8,7 L7.99,7 C6.9,6.99 6,7.89 6,8.98 L6,14.5 L9.5,18 L9.5,21 L14.5,21 L14.5,18 L18,14.49 L18,9 C18,7.9 17.1,7 16,7 L16,3 Z" id="path-1"></path>
    </defs>
    <g id="icon/notification/power_24px" stroke="none" stroke-width="1" fill="none" fill-rule="evenodd">
        <mask id="mask-2" fill="white">
            <use xlink:href="#path-1"></use>
        </mask>
        <g fill-rule="nonzero"></g>
        <g id="✱-/-Color-/-Icons-/-Black-/-Inactive" mask="url(#mask-2)" fill="#000000" fill-opacity="0.54">
            <rect id="Rectangle" x="0" y="0" width="24" height="24"></rect>
        </g>
    </g>
</svg>