<?xml version="1.0" encoding="UTF-8"?>
<svg width="24px" height="24px" viewBox="0 0 24 24" version="1.1" xmlns="http://www.w3.org/2000/svg" xmlns:xlink="http://www.w3.org/1999/xlink">
    <!-- Generator: Sketch 50 (54983) - http://www.bohemiancoding.com/sketch -->
    <title>icon/notification/tap_and_play_24px_outlined</title>
    <desc>Created with Sketch.</desc>
    <defs>
        <path d="M3.5,16 L3.5,18 C6.26,18 8.5,20.24 8.5,23 L10.5,23 C10.5,19.13 7.37,16 3.5,16 Z M3.5,20 L3.5,23 L6.5,23 C6.5,21.34 5.16,20 3.5,20 Z M3.5,12 L3.5,14 C8.47,14 12.5,18.03 12.5,23 L14.5,23 C14.5,16.92 9.58,12 3.5,12 Z M18.5,1.01 L8.5,1 C7.4,1 6.5,1.9 6.5,3 L6.5,10.37 C7.19,10.53 7.86,10.74 8.5,11.01 L8.5,5 L18.5,5 L18.5,18 L15.47,18 C15.99,19.25 16.31,20.59 16.42,22 L18.5,22 C19.6,22 20.5,21.1 20.5,20 L20.5,3 C20.5,1.9 19.6,1.01 18.5,1.01 Z" id="path-1"></path>
    </defs>
    <g id="icon/notification/tap_and_play_24px" stroke="none" stroke-width="1" fill="none" fill-rule="evenodd">
        <mask id="mask-2" fill="white">
            <use xlink:href="#path-1"></use>
        </mask>
        <g fill-rule="nonzero"></g>
        <g id="✱-/-Color-/-Icons-/-Black-/-Inactive" mask="url(#mask-2)" fill="#000000" fill-opacity="0.54">
            <rect id="Rectangle" x="0" y="0" width="24" height="24"></rect>
        </g>
    </g>
</svg>