<?xml version="1.0" encoding="UTF-8"?>
<svg width="24px" height="24px" viewBox="0 0 24 24" version="1.1" xmlns="http://www.w3.org/2000/svg" xmlns:xlink="http://www.w3.org/1999/xlink">
    <!-- Generator: Sketch 50 (54983) - http://www.bohemiancoding.com/sketch -->
    <title>icon/notification/tv_off_24px_outlined</title>
    <desc>Created with Sketch.</desc>
    <defs>
        <path d="M21,7 L21,17.88 L22.85,19.73 C22.94,19.5 23,19.26 23,19 L23,7 C23,5.89 22.11,5 21,5 L13.42,5 L16.71,1.7 L16,1 L12,5 L8,1 L7.3,1.7 L10.58,5 L8.12,5 L10.12,7 L21,7 Z M20.46,23 L21.72,21.73 L20.46,22.99 L20.46,23 Z M2.41,2.13 L2.27,2.27 L1,3.54 L2.53,5.07 C1.65,5.28 1,6.06 1,7 L1,19 C1,20.1 1.9,21 3,21 L18.46,21 L20.45,22.99 L21.71,21.73 L21.86,21.58 L2.41,2.13 Z M3,19 L3,7 L4.46,7 L16.46,19 L3,19 Z" id="path-1"></path>
    </defs>
    <g id="icon/notification/tv_off_24px" stroke="none" stroke-width="1" fill="none" fill-rule="evenodd">
        <mask id="mask-2" fill="white">
            <use xlink:href="#path-1"></use>
        </mask>
        <g fill-rule="nonzero"></g>
        <g id="✱-/-Color-/-Icons-/-Black-/-Inactive" mask="url(#mask-2)" fill="#000000" fill-opacity="0.54">
            <rect id="Rectangle" x="0" y="0" width="24" height="24"></rect>
        </g>
    </g>
</svg>