<?xml version="1.0" encoding="UTF-8"?>
<svg width="24px" height="24px" viewBox="0 0 24 24" version="1.1" xmlns="http://www.w3.org/2000/svg" xmlns:xlink="http://www.w3.org/1999/xlink">
    <!-- Generator: Sketch 50 (54983) - http://www.bohemiancoding.com/sketch -->
    <title>icon/image/add_photo_alternate_24px_sharp</title>
    <desc>Created with Sketch.</desc>
    <defs>
        <path d="M18.5,7.5 L18.5,10.49 C18.5,10.49 16.51,10.5 16.5,10.49 L16.5,7.5 L13.5,7.5 C13.5,7.5 13.51,5.51 13.5,5.5 L16.5,5.5 L16.5,2.5 L18.5,2.5 L18.5,5.5 L21.5,5.5 L21.5,7.5 L18.5,7.5 Z M15.5,11.5 L15.5,8.5 L12.5,8.5 L12.5,5.5 L2.5,5.5 L2.5,21.5 L18.5,21.5 L18.5,11.5 L15.5,11.5 Z M4.5,19.5 L7.5,15.5 L9.5,18.5 L12.5,14.5 L16.5,19.5 L4.5,19.5 Z" id="path-1"></path>
    </defs>
    <g id="icon/image/add_photo_alternate_24px" stroke="none" stroke-width="1" fill="none" fill-rule="evenodd">
        <mask id="mask-2" fill="white">
            <use xlink:href="#path-1"></use>
        </mask>
        <g fill-rule="nonzero"></g>
        <g id="✱-/-Color-/-Icons-/-Black-/-Inactive" mask="url(#mask-2)" fill="#000000" fill-opacity="0.54">
            <rect id="Rectangle" x="0" y="0" width="24" height="24"></rect>
        </g>
    </g>
</svg>