<?xml version="1.0" encoding="UTF-8"?>
<svg width="24px" height="24px" viewBox="0 0 24 24" version="1.1" xmlns="http://www.w3.org/2000/svg" xmlns:xlink="http://www.w3.org/1999/xlink">
    <!-- Generator: Sketch 50 (54983) - http://www.bohemiancoding.com/sketch -->
    <title>icon/image/filter_5_24px_sharp</title>
    <desc>Created with Sketch.</desc>
    <defs>
        <path d="M23,1 L5,1 L5,19 L23,19 L23,1 Z M21,17 L7,17 L7,3 L21,3 L21,17 Z M3,5 L1,5 L1,23 L19,23 L19,21 L3,21 L3,5 Z M17,15 L17,9 L13,9 L13,7 L17,7 L17,5 L11,5 L11,11 L15,11 L15,13 L11,13 L11,15 L17,15 Z" id="path-1"></path>
    </defs>
    <g id="icon/image/filter_5_24px" stroke="none" stroke-width="1" fill="none" fill-rule="evenodd">
        <mask id="mask-2" fill="white">
            <use xlink:href="#path-1"></use>
        </mask>
        <g fill-rule="nonzero"></g>
        <g id="✱-/-Color-/-Icons-/-Black-/-Inactive" mask="url(#mask-2)" fill="#000000" fill-opacity="0.54">
            <rect id="Rectangle" x="0" y="0" width="24" height="24"></rect>
        </g>
    </g>
</svg>