<?xml version="1.0" encoding="UTF-8"?>
<svg width="24px" height="24px" viewBox="0 0 24 24" version="1.1" xmlns="http://www.w3.org/2000/svg" xmlns:xlink="http://www.w3.org/1999/xlink">
    <!-- Generator: Sketch 50 (54983) - http://www.bohemiancoding.com/sketch -->
    <title>icon/image/filter_8_24px_sharp</title>
    <desc>Created with Sketch.</desc>
    <defs>
        <path d="M3,5 L1,5 L1,23 L19,23 L19,21 L3,21 L3,5 Z M23,1 L5,1 L5,19 L23,19 L23,1 Z M21,17 L7,17 L7,3 L21,3 L21,17 Z M13,15 L15,15 C16.1,15 17,14.11 17,13 L17,11.5 C17,10.67 16.33,10 15.5,10 C16.33,10 17,9.33 17,8.5 L17,7 C17,5.89 16.1,5 15,5 L13,5 C11.9,5 11,5.89 11,7 L11,8.5 C11,9.33 11.67,10 12.5,10 C11.67,10 11,10.67 11,11.5 L11,13 C11,14.11 11.9,15 13,15 Z M13,7 L15,7 L15,9 L13,9 L13,7 Z M13,11 L15,11 L15,13 L13,13 L13,11 Z" id="path-1"></path>
    </defs>
    <g id="icon/image/filter_8_24px" stroke="none" stroke-width="1" fill="none" fill-rule="evenodd">
        <mask id="mask-2" fill="white">
            <use xlink:href="#path-1"></use>
        </mask>
        <g fill-rule="nonzero"></g>
        <g id="✱-/-Color-/-Icons-/-Black-/-Inactive" mask="url(#mask-2)" fill="#000000" fill-opacity="0.54">
            <rect id="Rectangle" x="0" y="0" width="24" height="24"></rect>
        </g>
    </g>
</svg>