<?xml version="1.0" encoding="UTF-8"?>
<svg width="24px" height="24px" viewBox="0 0 24 24" version="1.1" xmlns="http://www.w3.org/2000/svg" xmlns:xlink="http://www.w3.org/1999/xlink">
    <!-- Generator: Sketch 50 (54983) - http://www.bohemiancoding.com/sketch -->
    <title>icon/image/filter_center_focus_24px_sharp</title>
    <desc>Created with Sketch.</desc>
    <defs>
        <path d="M5,15 L3,15 L3,21 L9,21 L9,19 L5,19 L5,15 Z M5,5 L9,5 L9,3 L3,3 L3,9 L5,9 L5,5 Z M21,3 L15,3 L15,5 L19,5 L19,9 L21,9 L21,3 Z M19,19 L15,19 L15,21 L21,21 L21,15 L19,15 L19,19 Z M12,9 C10.34,9 9,10.34 9,12 C9,13.66 10.34,15 12,15 C13.66,15 15,13.66 15,12 C15,10.34 13.66,9 12,9 Z" id="path-1"></path>
    </defs>
    <g id="icon/image/filter_center_focus_24px" stroke="none" stroke-width="1" fill="none" fill-rule="evenodd">
        <mask id="mask-2" fill="white">
            <use xlink:href="#path-1"></use>
        </mask>
        <g fill-rule="nonzero"></g>
        <g id="✱-/-Color-/-Icons-/-Black-/-Inactive" mask="url(#mask-2)" fill="#000000" fill-opacity="0.54">
            <rect id="Rectangle" x="0" y="0" width="24" height="24"></rect>
        </g>
    </g>
</svg>