<?xml version="1.0" encoding="UTF-8"?>
<svg width="24px" height="24px" viewBox="0 0 24 24" version="1.1" xmlns="http://www.w3.org/2000/svg" xmlns:xlink="http://www.w3.org/1999/xlink">
    <!-- Generator: Sketch 50 (54983) - http://www.bohemiancoding.com/sketch -->
    <title>icon/image/filter_9_plus_24px_sharp</title>
    <desc>Created with Sketch.</desc>
    <defs>
        <path d="M3,5 L1,5 L1,23 L19,23 L19,21 L3,21 L3,5 Z M14,14 L14,6 L9,6 L9,11 L12,11 L12,12 L9,12 L9,14 L14,14 Z M11,9 L11,8 L12,8 L12,9 L11,9 Z M23,1 L5,1 L5,19 L23,19 L23,1 Z M21,9 L19,9 L19,7 L17,7 L17,9 L15,9 L15,11 L17,11 L17,13 L19,13 L19,11 L21,11 L21,17 L7,17 L7,3 L21,3 L21,9 Z" id="path-1"></path>
    </defs>
    <g id="icon/image/filter_9_plus_24px" stroke="none" stroke-width="1" fill="none" fill-rule="evenodd">
        <mask id="mask-2" fill="white">
            <use xlink:href="#path-1"></use>
        </mask>
        <g fill-rule="nonzero"></g>
        <g id="✱-/-Color-/-Icons-/-Black-/-Inactive" mask="url(#mask-2)" fill="#000000" fill-opacity="0.54">
            <rect id="Rectangle" x="0" y="0" width="24" height="24"></rect>
        </g>
    </g>
</svg>