<?xml version="1.0" encoding="UTF-8"?>
<svg width="24px" height="24px" viewBox="0 0 24 24" version="1.1" xmlns="http://www.w3.org/2000/svg" xmlns:xlink="http://www.w3.org/1999/xlink">
    <!-- Generator: Sketch 50 (54983) - http://www.bohemiancoding.com/sketch -->
    <title>icon/image/gradient_24px_sharp</title>
    <desc>Created with Sketch.</desc>
    <defs>
        <path d="M11,9 L13,9 L13,11 L11,11 L11,9 Z M9,11 L11,11 L11,13 L9,13 L9,11 Z M13,11 L15,11 L15,13 L13,13 L13,11 Z M15,9 L17,9 L17,11 L15,11 L15,9 Z M7,9 L9,9 L9,11 L7,11 L7,9 Z M21,3 L3,3 L3,21 L21,21 L21,3 Z M9,18 L7,18 L7,16 L9,16 L9,18 Z M13,18 L11,18 L11,16 L13,16 L13,18 Z M17,18 L15,18 L15,16 L17,16 L17,18 Z M19,11 L17,11 L17,13 L19,13 L19,15 L17,15 L17,13 L15,13 L15,15 L13,15 L13,13 L11,13 L11,15 L9,15 L9,13 L7,13 L7,15 L5,15 L5,13 L7,13 L7,11 L5,11 L5,5 L19,5 L19,11 Z" id="path-1"></path>
    </defs>
    <g id="icon/image/gradient_24px" stroke="none" stroke-width="1" fill="none" fill-rule="evenodd">
        <mask id="mask-2" fill="white">
            <use xlink:href="#path-1"></use>
        </mask>
        <g fill-rule="nonzero"></g>
        <g id="✱-/-Color-/-Icons-/-Black-/-Inactive" mask="url(#mask-2)" fill="#000000" fill-opacity="0.54">
            <rect id="Rectangle" x="0" y="0" width="24" height="24"></rect>
        </g>
    </g>
</svg>