<?xml version="1.0" encoding="UTF-8"?>
<svg width="24px" height="24px" viewBox="0 0 24 24" version="1.1" xmlns="http://www.w3.org/2000/svg" xmlns:xlink="http://www.w3.org/1999/xlink">
    <!-- Generator: Sketch 50 (54983) - http://www.bohemiancoding.com/sketch -->
    <title>icon/image/grid_on_24px_sharp</title>
    <desc>Created with Sketch.</desc>
    <defs>
        <path d="M22,2 L2,2 L2,22 L22,22 L22,2 Z M8,20 L4,20 L4,16 L8,16 L8,20 Z M8,14 L4,14 L4,10 L8,10 L8,14 Z M8,8 L4,8 L4,4 L8,4 L8,8 Z M14,20 L10,20 L10,16 L14,16 L14,20 Z M14,14 L10,14 L10,10 L14,10 L14,14 Z M14,8 L10,8 L10,4 L14,4 L14,8 Z M20,20 L16,20 L16,16 L20,16 L20,20 Z M20,14 L16,14 L16,10 L20,10 L20,14 Z M20,8 L16,8 L16,4 L20,4 L20,8 Z" id="path-1"></path>
    </defs>
    <g id="icon/image/grid_on_24px" stroke="none" stroke-width="1" fill="none" fill-rule="evenodd">
        <mask id="mask-2" fill="white">
            <use xlink:href="#path-1"></use>
        </mask>
        <g fill-rule="nonzero"></g>
        <g id="✱-/-Color-/-Icons-/-Black-/-Inactive" mask="url(#mask-2)" fill="#000000" fill-opacity="0.54">
            <rect id="Rectangle" x="0" y="0" width="24" height="24"></rect>
        </g>
    </g>
</svg>