<?xml version="1.0" encoding="UTF-8"?>
<svg width="24px" height="24px" viewBox="0 0 24 24" version="1.1" xmlns="http://www.w3.org/2000/svg" xmlns:xlink="http://www.w3.org/1999/xlink">
    <!-- Generator: Sketch 50 (54983) - http://www.bohemiancoding.com/sketch -->
    <title>icon/image/healing_24px_sharp</title>
    <desc>Created with Sketch.</desc>
    <defs>
        <path d="M17.75,11.985 L22.43,7.305 L16.68,1.555 L12,6.235 L7.31,1.555 L1.56,7.315 L6.24,12.005 L1.56,16.685 L7.31,22.435 L11.99,17.755 L16.68,22.445 L22.44,16.685 L17.75,11.985 Z M12.01,8.975 C12.56,8.975 13.01,9.425 13.01,9.975 C13.01,10.525 12.56,10.975 12.01,10.975 C11.46,10.975 11.01,10.525 11.01,9.975 C11.01,9.425 11.46,8.975 12.01,8.975 Z M7.3,10.935 L3.67,7.315 L7.3,3.685 L10.92,7.305 L7.3,10.935 Z M10.01,12.975 C9.46,12.975 9.01,12.525 9.01,11.975 C9.01,11.425 9.46,10.975 10.01,10.975 C10.56,10.975 11.01,11.425 11.01,11.975 C11.01,12.525 10.56,12.975 10.01,12.975 Z M12.01,14.975 C11.46,14.975 11.01,14.525 11.01,13.975 C11.01,13.425 11.46,12.975 12.01,12.975 C12.56,12.975 13.01,13.425 13.01,13.975 C13.01,14.525 12.56,14.975 12.01,14.975 Z M14.01,10.975 C14.56,10.975 15.01,11.425 15.01,11.975 C15.01,12.525 14.56,12.975 14.01,12.975 C13.46,12.975 13.01,12.525 13.01,11.975 C13.01,11.425 13.46,10.975 14.01,10.975 Z M16.67,20.315 L13.04,16.695 L16.67,13.065 L20.29,16.685 L16.67,20.315 Z" id="path-1"></path>
    </defs>
    <g id="icon/image/healing_24px" stroke="none" stroke-width="1" fill="none" fill-rule="evenodd">
        <mask id="mask-2" fill="white">
            <use xlink:href="#path-1"></use>
        </mask>
        <g fill-rule="nonzero"></g>
        <g id="✱-/-Color-/-Icons-/-Black-/-Inactive" mask="url(#mask-2)" fill="#000000" fill-opacity="0.54">
            <rect id="Rectangle" x="0" y="0" width="24" height="24"></rect>
        </g>
    </g>
</svg>