<?xml version="1.0" encoding="UTF-8"?>
<svg width="24px" height="24px" viewBox="0 0 24 24" version="1.1" xmlns="http://www.w3.org/2000/svg" xmlns:xlink="http://www.w3.org/1999/xlink">
    <!-- Generator: Sketch 50 (54983) - http://www.bohemiancoding.com/sketch -->
    <title>icon/image/linked_camera_24px_sharp</title>
    <desc>Created with Sketch.</desc>
    <defs>
        <path d="M12,11 C10.9282032,11 9.93782213,11.5717967 9.40192374,12.5 C8.86602534,13.4282032 8.86602534,14.5717968 9.40192374,15.5 C9.93782213,16.4282033 10.9282032,17 12,17 C13.0717968,17 14.0621779,16.4282033 14.5980763,15.5 C15.1339747,14.5717968 15.1339747,13.4282032 14.5980763,12.5 C14.0621779,11.5717967 13.0717968,11 12,11 Z M18,8 L19.33,8 C19.33,6.16 17.84,4.67 16,4.67 L16,6 C17.11,6 18,6.89 18,8 Z M20.67,8 L22,8 C22,4.69 19.31,2 16,2 L16,3.33 C18.58,3.33 20.67,5.42 20.67,8 Z M15,7 L15,4 L9,4 L7.17,6 L2,6 L2,22 L22,22 L22,9 L17,9 C17,7.9 16.1,7 15,7 Z M12,19 C9.24,19 7,16.76 7,14 C7,11.24 9.24,9 12,9 C14.76,9 17,11.24 17,14 C17,16.76 14.76,19 12,19 Z" id="path-1"></path>
    </defs>
    <g id="icon/image/linked_camera_24px" stroke="none" stroke-width="1" fill="none" fill-rule="evenodd">
        <mask id="mask-2" fill="white">
            <use xlink:href="#path-1"></use>
        </mask>
        <g fill-rule="nonzero"></g>
        <g id="✱-/-Color-/-Icons-/-Black-/-Inactive" mask="url(#mask-2)" fill="#000000" fill-opacity="0.54">
            <rect id="Rectangle" x="0" y="0" width="24" height="24"></rect>
        </g>
    </g>
</svg>