<?xml version="1.0" encoding="UTF-8"?>
<svg width="24px" height="24px" viewBox="0 0 24 24" version="1.1" xmlns="http://www.w3.org/2000/svg" xmlns:xlink="http://www.w3.org/1999/xlink">
    <!-- Generator: Sketch 50 (54983) - http://www.bohemiancoding.com/sketch -->
    <title>icon/image/looks_24px_sharp</title>
    <desc>Created with Sketch.</desc>
    <defs>
        <path d="M12,10.5 C8.14,10.5 5,13.64 5,17.5 L7,17.5 C7,14.74 9.24,12.5 12,12.5 C14.76,12.5 17,14.74 17,17.5 L19,17.5 C19,13.64 15.86,10.5 12,10.5 Z M12,6.5 C5.93,6.5 1,11.43 1,17.5 L3,17.5 C3,12.54 7.04,8.5 12,8.5 C16.96,8.5 21,12.54 21,17.5 L23,17.5 C23,11.43 18.07,6.5 12,6.5 Z" id="path-1"></path>
    </defs>
    <g id="icon/image/looks_24px" stroke="none" stroke-width="1" fill="none" fill-rule="evenodd">
        <mask id="mask-2" fill="white">
            <use xlink:href="#path-1"></use>
        </mask>
        <g fill-rule="nonzero"></g>
        <g id="✱-/-Color-/-Icons-/-Black-/-Inactive" mask="url(#mask-2)" fill="#000000" fill-opacity="0.54">
            <rect id="Rectangle" x="0" y="0" width="24" height="24"></rect>
        </g>
    </g>
</svg>