<?xml version="1.0" encoding="UTF-8"?>
<svg width="24px" height="24px" viewBox="0 0 24 24" version="1.1" xmlns="http://www.w3.org/2000/svg" xmlns:xlink="http://www.w3.org/1999/xlink">
    <!-- Generator: Sketch 50 (54983) - http://www.bohemiancoding.com/sketch -->
    <title>icon/image/panorama_vertical_24px_sharp</title>
    <desc>Created with Sketch.</desc>
    <defs>
        <path d="M17.455,4 C16.685,6.6 16.295,9.28 16.295,12 C16.295,14.72 16.685,17.41 17.455,20 L6.545,20 C7.315,17.4 7.705,14.72 7.705,12 C7.705,9.28 7.315,6.59 6.545,4 L17.455,4 Z M20.235,2 L3.765,2 C3.765,2 4.025,2.77 4.065,2.88 C5.155,5.82 5.705,8.91 5.705,12 C5.705,15.09 5.155,18.18 4.065,21.12 C4.025,21.23 3.765,22 3.765,22 L20.235,22 C20.235,22 19.975,21.23 19.935,21.12 C18.845,18.18 18.295,15.09 18.295,12 C18.295,8.91 18.845,5.82 19.935,2.88 C19.975,2.77 20.235,2 20.235,2 Z" id="path-1"></path>
    </defs>
    <g id="icon/image/panorama_vertical_24px" stroke="none" stroke-width="1" fill="none" fill-rule="evenodd">
        <mask id="mask-2" fill="white">
            <use xlink:href="#path-1"></use>
        </mask>
        <g fill-rule="nonzero"></g>
        <g id="✱-/-Color-/-Icons-/-Black-/-Inactive" mask="url(#mask-2)" fill="#000000" fill-opacity="0.54">
            <rect id="Rectangle" x="0" y="0" width="24" height="24"></rect>
        </g>
    </g>
</svg>