<?xml version="1.0" encoding="UTF-8"?>
<svg width="24px" height="24px" viewBox="0 0 24 24" version="1.1" xmlns="http://www.w3.org/2000/svg" xmlns:xlink="http://www.w3.org/1999/xlink">
    <!-- Generator: Sketch 50 (54983) - http://www.bohemiancoding.com/sketch -->
    <title>icon/image/photo_camera_24px_sharp</title>
    <desc>Created with Sketch.</desc>
    <defs>
        <path d="M12,10 C10.3431458,10 9,11.3431458 9,13 C9,14.6568542 10.3431458,16 12,16 C13.6568542,16 15,14.6568542 15,13 C15,11.3431458 13.6568542,10 12,10 Z M9,3 L7.17,5 L2,5 L2,21 L22,21 L22,5 L16.83,5 L15,3 L9,3 Z M12,18 C9.24,18 7,15.76 7,13 C7,10.24 9.24,8 12,8 C14.76,8 17,10.24 17,13 C17,15.76 14.76,18 12,18 Z" id="path-1"></path>
    </defs>
    <g id="icon/image/photo_camera_24px" stroke="none" stroke-width="1" fill="none" fill-rule="evenodd">
        <mask id="mask-2" fill="white">
            <use xlink:href="#path-1"></use>
        </mask>
        <g fill-rule="nonzero"></g>
        <g id="✱-/-Color-/-Icons-/-Black-/-Inactive" mask="url(#mask-2)" fill="#000000" fill-opacity="0.54">
            <rect id="Rectangle" x="0" y="0" width="24" height="24"></rect>
        </g>
    </g>
</svg>