<?xml version="1.0" encoding="UTF-8"?>
<svg width="24px" height="24px" viewBox="0 0 24 24" version="1.1" xmlns="http://www.w3.org/2000/svg" xmlns:xlink="http://www.w3.org/1999/xlink">
    <!-- Generator: Sketch 50 (54983) - http://www.bohemiancoding.com/sketch -->
    <title>icon/image/rotate_90_degrees_ccw_24px_sharp</title>
    <desc>Created with Sketch.</desc>
    <defs>
        <path d="M7.91,7.03 L1.43,13.52 L7.92,20 L14.41,13.52 L7.91,7.03 Z M4.26,13.52 L7.92,9.86 L11.57,13.52 L7.91,17.18 L4.26,13.52 Z M19.93,7.26 C18.18,5.5 15.87,4.62 13.57,4.62 L13.57,1.38 L9.33,5.62 L13.57,9.86 L13.57,6.62 C15.36,6.62 17.15,7.3 18.52,8.67 C21.25,11.4 21.25,15.84 18.52,18.57 C17.15,19.94 15.36,20.62 13.57,20.62 C12.6,20.62 11.63,20.41 10.73,20.01 L9.24,21.5 C10.59,22.24 12.08,22.62 13.57,22.62 C15.87,22.62 18.18,21.74 19.93,19.98 C23.45,16.47 23.45,10.77 19.93,7.26 Z" id="path-1"></path>
    </defs>
    <g id="icon/image/rotate_90_degrees_ccw_24px" stroke="none" stroke-width="1" fill="none" fill-rule="evenodd">
        <mask id="mask-2" fill="white">
            <use xlink:href="#path-1"></use>
        </mask>
        <g fill-rule="nonzero"></g>
        <g id="✱-/-Color-/-Icons-/-Black-/-Inactive" mask="url(#mask-2)" fill="#000000" fill-opacity="0.54">
            <rect id="Rectangle" x="0" y="0" width="24" height="24"></rect>
        </g>
    </g>
</svg>