<?xml version="1.0" encoding="UTF-8"?>
<svg width="24px" height="24px" viewBox="0 0 24 24" version="1.1" xmlns="http://www.w3.org/2000/svg" xmlns:xlink="http://www.w3.org/1999/xlink">
    <!-- Generator: Sketch 50 (54983) - http://www.bohemiancoding.com/sketch -->
    <title>icon/image/shutter_speed_24px_sharp</title>
    <desc>Created with Sketch.</desc>
    <defs>
        <path d="M15,1.5 L9,1.5 L9,3.5 L15,3.5 L15,1.5 Z M19.03,7.89 L20.45,6.47 C20.02,5.96 19.55,5.48 19.04,5.06 L17.62,6.48 C16.07,5.24 14.12,4.5 12,4.5 C7.03,4.5 3,8.53 3,13.5 C3,18.47 7.02,22.5 12,22.5 C16.98,22.5 21,18.47 21,13.5 C21,11.38 20.26,9.43 19.03,7.89 Z M12,20.5 C8.13,20.5 5,17.37 5,13.5 C5,9.63 8.13,6.5 12,6.5 C15.87,6.5 19,9.63 19,13.5 C19,17.37 15.87,20.5 12,20.5 Z M11.68,15.5 L6.35,15.5 C6.92,17.12 8.17,18.42 9.76,19.06 L9.65,19 L11.68,15.5 Z M17.65,11.5 C17.08,9.9 15.87,8.61 14.31,7.96 L12.26,11.5 L17.65,11.5 Z M10.61,19.33 C11.06,19.44 11.52,19.5 12,19.5 C13.34,19.5 14.57,19.05 15.57,18.31 L13.46,14.41 L10.61,19.33 Z M7.55,9.49 C6.59,10.55 6,11.96 6,13.5 C6,13.84 6.04,14.17 6.09,14.5 L10.81,14.5 L7.55,9.49 Z M16.34,17.63 C17.37,16.56 18,15.1 18,13.5 C18,13.16 17.96,12.83 17.91,12.5 L13.57,12.5 L16.34,17.63 Z M13.33,7.65 C12.9,7.56 12.46,7.5 12,7.5 C10.6,7.5 9.31,7.99 8.29,8.79 L10.61,12.35 L13.33,7.65 Z" id="path-1"></path>
    </defs>
    <g id="icon/image/shutter_speed_24px" stroke="none" stroke-width="1" fill="none" fill-rule="evenodd">
        <mask id="mask-2" fill="white">
            <use xlink:href="#path-1"></use>
        </mask>
        <g fill-rule="nonzero"></g>
        <g id="✱-/-Color-/-Icons-/-Black-/-Inactive" mask="url(#mask-2)" fill="#000000" fill-opacity="0.54">
            <rect id="Rectangle" x="0" y="0" width="24" height="24"></rect>
        </g>
    </g>
</svg>