<?xml version="1.0" encoding="UTF-8"?>
<svg width="24px" height="24px" viewBox="0 0 24 24" version="1.1" xmlns="http://www.w3.org/2000/svg" xmlns:xlink="http://www.w3.org/1999/xlink">
    <!-- Generator: Sketch 50 (54983) - http://www.bohemiancoding.com/sketch -->
    <title>icon/image/timer_24px_sharp</title>
    <desc>Created with Sketch.</desc>
    <defs>
        <path d="M15,1.5 L9,1.5 L9,3.5 L15,3.5 L15,1.5 Z M11,14.5 L13,14.5 L13,8.5 L11,8.5 L11,14.5 Z M19.03,7.89 L20.45,6.47 C20.02,5.96 19.55,5.48 19.04,5.06 L17.62,6.48 C16.07,5.24 14.12,4.5 12,4.5 C7.03,4.5 3,8.53 3,13.5 C3,18.47 7.02,22.5 12,22.5 C16.98,22.5 21,18.47 21,13.5 C21,11.38 20.26,9.43 19.03,7.89 Z M12,20.5 C8.13,20.5 5,17.37 5,13.5 C5,9.63 8.13,6.5 12,6.5 C15.87,6.5 19,9.63 19,13.5 C19,17.37 15.87,20.5 12,20.5 Z" id="path-1"></path>
    </defs>
    <g id="icon/image/timer_24px" stroke="none" stroke-width="1" fill="none" fill-rule="evenodd">
        <mask id="mask-2" fill="white">
            <use xlink:href="#path-1"></use>
        </mask>
        <g fill-rule="nonzero"></g>
        <g id="✱-/-Color-/-Icons-/-Black-/-Inactive" mask="url(#mask-2)" fill="#000000" fill-opacity="0.54">
            <rect id="Rectangle" x="0" y="0" width="24" height="24"></rect>
        </g>
    </g>
</svg>