<?xml version="1.0" encoding="UTF-8"?>
<svg width="24px" height="24px" viewBox="0 0 24 24" version="1.1" xmlns="http://www.w3.org/2000/svg" xmlns:xlink="http://www.w3.org/1999/xlink">
    <!-- Generator: Sketch 50 (54983) - http://www.bohemiancoding.com/sketch -->
    <title>icon/places/ac_unit_24px</title>
    <desc>Created with Sketch.</desc>
    <defs>
        <polygon id="path-1" points="22 11 17.83 11 21.07 7.76 19.66 6.34 15 11 13 11 13 9 17.66 4.34 16.24 2.93 13 6.17 13 2 11 2 11 6.17 7.76 2.93 6.34 4.34 11 9 11 11 9 11 4.34 6.34 2.93 7.76 6.17 11 2 11 2 13 6.17 13 2.93 16.24 4.34 17.66 9 13 11 13 11 15 6.34 19.66 7.76 21.07 11 17.83 11 22 13 22 13 17.83 16.24 21.07 17.66 19.66 13 15 13 13 15 13 19.66 17.66 21.07 16.24 17.83 13 22 13"></polygon>
    </defs>
    <g id="icon/places/ac_unit_24px" stroke="none" stroke-width="1" fill="none" fill-rule="evenodd">
        <mask id="mask-2" fill="white">
            <use xlink:href="#path-1"></use>
        </mask>
        <g fill-rule="nonzero"></g>
        <g id="✱-/-Color-/-Icons-/-Black-/-Inactive" mask="url(#mask-2)" fill="#000000" fill-opacity="0.54">
            <rect id="Rectangle" x="0" y="0" width="24" height="24"></rect>
        </g>
    </g>
</svg>