<?xml version="1.0" encoding="UTF-8"?>
<svg width="24px" height="24px" viewBox="0 0 24 24" version="1.1" xmlns="http://www.w3.org/2000/svg" xmlns:xlink="http://www.w3.org/1999/xlink">
    <!-- Generator: Sketch 50 (54983) - http://www.bohemiancoding.com/sketch -->
    <title>icon/places/kitchen_24px</title>
    <desc>Created with Sketch.</desc>
    <defs>
        <path d="M18,2.01 L6,2 C4.9,2 4,2.89 4,4 L4,20 C4,21.1 4.9,22 6,22 L18,22 C19.1,22 20,21.1 20,20 L20,4 C20,2.89 19.1,2.01 18,2.01 Z M18,20 L6,20 L6,10.98 L18,10.98 L18,20 Z M18,9 L6,9 L6,4 L18,4 L18,9 Z M8,5 L10,5 L10,8 L8,8 L8,5 Z M8,12 L10,12 L10,17 L8,17 L8,12 Z" id="path-1"></path>
    </defs>
    <g id="icon/places/kitchen_24px" stroke="none" stroke-width="1" fill="none" fill-rule="evenodd">
        <mask id="mask-2" fill="white">
            <use xlink:href="#path-1"></use>
        </mask>
        <g fill-rule="nonzero"></g>
        <g id="✱-/-Color-/-Icons-/-Black-/-Inactive" mask="url(#mask-2)" fill="#000000" fill-opacity="0.54">
            <rect id="Rectangle" x="0" y="0" width="24" height="24"></rect>
        </g>
    </g>
</svg>