<?xml version="1.0" encoding="UTF-8"?>
<svg width="24px" height="24px" viewBox="0 0 24 24" version="1.1" xmlns="http://www.w3.org/2000/svg" xmlns:xlink="http://www.w3.org/1999/xlink">
    <!-- Generator: Sketch 50 (54983) - http://www.bohemiancoding.com/sketch -->
    <title>icon/communication/call_end_24px</title>
    <desc>Created with Sketch.</desc>
    <defs>
        <path d="M12,9 C10.4,9 8.85,9.25 7.4,9.72 L7.4,12.82 C7.4,13.21 7.17,13.56 6.84,13.72 C5.86,14.21 4.97,14.84 4.18,15.57 C4,15.75 3.75,15.85 3.48,15.85 C3.2,15.85 2.95,15.74 2.77,15.56 L0.29,13.08 C0.11,12.91 0,12.66 0,12.38 C0,12.1 0.11,11.85 0.29,11.67 C3.34,8.78 7.46,7 12,7 C16.54,7 20.66,8.78 23.71,11.67 C23.89,11.85 24,12.1 24,12.38 C24,12.66 23.89,12.91 23.71,13.09 L21.23,15.57 C21.05,15.75 20.8,15.86 20.52,15.86 C20.25,15.86 20,15.75 19.82,15.58 C19.03,14.84 18.13,14.22 17.15,13.73 C16.82,13.57 16.59,13.23 16.59,12.83 L16.59,9.73 C15.15,9.25 13.6,9 12,9 Z" id="path-1"></path>
    </defs>
    <g id="icon/communication/call_end_24px" stroke="none" stroke-width="1" fill="none" fill-rule="evenodd">
        <mask id="mask-2" fill="white">
            <use xlink:href="#path-1"></use>
        </mask>
        <g fill-rule="nonzero"></g>
        <g id="✱-/-Color-/-Icons-/-Black-/-Inactive" mask="url(#mask-2)" fill="#000000" fill-opacity="0.54">
            <rect id="Rectangle" x="0" y="0" width="24" height="24"></rect>
        </g>
    </g>
</svg>