<?xml version="1.0" encoding="UTF-8"?>
<svg width="24px" height="24px" viewBox="0 0 24 24" version="1.1" xmlns="http://www.w3.org/2000/svg" xmlns:xlink="http://www.w3.org/1999/xlink">
    <!-- Generator: Sketch 50 (54983) - http://www.bohemiancoding.com/sketch -->
    <title>icon/communication/desktop_access_disabled_24px</title>
    <desc>Created with Sketch.</desc>
    <defs>
        <path d="M1.41,1.69 L0,3.1 L0.99,4.09 L0.99,16 C0.99,17.1 1.89,18 2.99,18 L10,18 L10,20 L8,20 L8,22 L16,22 L16,20 L14,20 L14,18 L14.9,18 L20.9,24 L22.31,22.59 L1.41,1.69 Z M2.99,16 L2.99,6.09 L12.9,16 L2.99,16 Z M4.55,2 L6.55,4 L20.99,4 L20.99,16 L18.55,16 L20.55,18 L20.99,18 C22.09,18 22.99,17.1 22.99,16 L22.99,4 C22.99,2.9 22.09,2 20.99,2 L4.55,2 Z" id="path-1"></path>
    </defs>
    <g id="icon/communication/desktop_access_disabled_24px" stroke="none" stroke-width="1" fill="none" fill-rule="evenodd">
        <mask id="mask-2" fill="white">
            <use xlink:href="#path-1"></use>
        </mask>
        <g fill-rule="nonzero"></g>
        <g id="✱-/-Color-/-Icons-/-Black-/-Inactive" mask="url(#mask-2)" fill="#000000" fill-opacity="0.54">
            <rect id="Rectangle" x="0" y="0" width="24" height="24"></rect>
        </g>
    </g>
</svg>