<?xml version="1.0" encoding="UTF-8"?>
<svg width="24px" height="24px" viewBox="0 0 24 24" version="1.1" xmlns="http://www.w3.org/2000/svg" xmlns:xlink="http://www.w3.org/1999/xlink">
    <!-- Generator: Sketch 50 (54983) - http://www.bohemiancoding.com/sketch -->
    <title>icon/communication/live_help_24px</title>
    <desc>Created with Sketch.</desc>
    <defs>
        <path d="M19,2 L5,2 C3.89,2 3,2.9 3,4 L3,18 C3,19.1 3.89,20 5,20 L9,20 L12,23 L15,20 L19,20 C20.1,20 21,19.1 21,18 L21,4 C21,2.9 20.1,2 19,2 Z M13,18 L11,18 L11,16 L13,16 L13,18 Z M15.07,10.25 L14.17,11.17 C13.45,11.9 13,12.5 13,14 L11,14 L11,13.5 C11,12.4 11.45,11.4 12.17,10.67 L13.41,9.41 C13.78,9.05 14,8.55 14,8 C14,6.9 13.1,6 12,6 C10.9,6 10,6.9 10,8 L8,8 C8,5.79 9.79,4 12,4 C14.21,4 16,5.79 16,8 C16,8.88 15.64,9.68 15.07,10.25 Z" id="path-1"></path>
    </defs>
    <g id="icon/communication/live_help_24px" stroke="none" stroke-width="1" fill="none" fill-rule="evenodd">
        <mask id="mask-2" fill="white">
            <use xlink:href="#path-1"></use>
        </mask>
        <g fill-rule="nonzero"></g>
        <g id="✱-/-Color-/-Icons-/-Black-/-Inactive" mask="url(#mask-2)" fill="#000000" fill-opacity="0.54">
            <rect id="Rectangle" x="0" y="0" width="24" height="24"></rect>
        </g>
    </g>
</svg>