<?xml version="1.0" encoding="UTF-8"?>
<svg width="24px" height="24px" viewBox="0 0 24 24" version="1.1" xmlns="http://www.w3.org/2000/svg" xmlns:xlink="http://www.w3.org/1999/xlink">
    <!-- Generator: Sketch 50 (54983) - http://www.bohemiancoding.com/sketch -->
    <title>icon/communication/location_off_24px</title>
    <desc>Created with Sketch.</desc>
    <defs>
        <path d="M3.41,2.86 L2,4.27 L5.18,7.45 C5.07,7.95 5,8.47 5,9 C5,14.25 12,22 12,22 C12,22 13.67,20.15 15.38,17.65 L18.73,21 L20.14,19.59 L3.41,2.86 Z M12,2 C10.16,2 8.5,2.71 7.25,3.86 L10.44,7.05 C10.87,6.71 11.41,6.5 12,6.5 C13.38,6.5 14.5,7.62 14.5,9 C14.5,9.59 14.29,10.13 13.94,10.56 L17.49,14.11 C18.37,12.36 19,10.57 19,9 C19,5.13 15.87,2 12,2 Z" id="path-1"></path>
    </defs>
    <g id="icon/communication/location_off_24px" stroke="none" stroke-width="1" fill="none" fill-rule="evenodd">
        <mask id="mask-2" fill="white">
            <use xlink:href="#path-1"></use>
        </mask>
        <g fill-rule="nonzero"></g>
        <g id="✱-/-Color-/-Icons-/-Black-/-Inactive" mask="url(#mask-2)" fill="#000000" fill-opacity="0.54">
            <rect id="Rectangle" x="0" y="0" width="24" height="24"></rect>
        </g>
    </g>
</svg>