<?xml version="1.0" encoding="UTF-8"?>
<svg width="24px" height="24px" viewBox="0 0 24 24" version="1.1" xmlns="http://www.w3.org/2000/svg" xmlns:xlink="http://www.w3.org/1999/xlink">
    <!-- Generator: Sketch 50 (54983) - http://www.bohemiancoding.com/sketch -->
    <title>icon/communication/mobile_screen_share_24px</title>
    <desc>Created with Sketch.</desc>
    <defs>
        <path d="M17,1 L7,1 C5.9,1 5.01,1.9 5.01,3 L5.01,21 C5.01,22.1 5.9,23 7,23 L17,23 C18.1,23 19,22.1 19,21 L19,3 C19,1.9 18.1,1 17,1 Z M17,19 L7,19 L7,5 L17,5 L17,19 Z M12.8,13.24 L12.8,14.99 L16,12 L12.8,9.02 L12.8,10.72 C9.69,11.15 8.45,13.28 8,15.42 C9.11,13.92 10.58,13.24 12.8,13.24 Z" id="path-1"></path>
    </defs>
    <g id="icon/communication/mobile_screen_share_24px" stroke="none" stroke-width="1" fill="none" fill-rule="evenodd">
        <mask id="mask-2" fill="white">
            <use xlink:href="#path-1"></use>
        </mask>
        <g fill-rule="nonzero"></g>
        <g id="✱-/-Color-/-Icons-/-Black-/-Inactive" mask="url(#mask-2)" fill="#000000" fill-opacity="0.54">
            <rect id="Rectangle" x="0" y="0" width="24" height="24"></rect>
        </g>
    </g>
</svg>