<?xml version="1.0" encoding="UTF-8"?>
<svg width="24px" height="24px" viewBox="0 0 24 24" version="1.1" xmlns="http://www.w3.org/2000/svg" xmlns:xlink="http://www.w3.org/1999/xlink">
    <!-- Generator: Sketch 50 (54983) - http://www.bohemiancoding.com/sketch -->
    <title>icon/communication/phonelink_erase_24px</title>
    <desc>Created with Sketch.</desc>
    <defs>
        <path d="M13,8.2 L12,7.2 L8,11.2 L4,7.2 L3,8.2 L7,12.2 L3,16.2 L4,17.2 L8,13.2 L12,17.2 L13,16.2 L9,12.2 L13,8.2 Z M19,1 L9,1 C7.9,1 7,1.9 7,3 L7,6 L9,6 L9,4 L19,4 L19,20 L9,20 L9,18 L7,18 L7,21 C7,22.1 7.9,23 9,23 L19,23 C20.1,23 21,22.1 21,21 L21,3 C21,1.9 20.1,1 19,1 Z" id="path-1"></path>
    </defs>
    <g id="icon/communication/phonelink_erase_24px" stroke="none" stroke-width="1" fill="none" fill-rule="evenodd">
        <mask id="mask-2" fill="white">
            <use xlink:href="#path-1"></use>
        </mask>
        <g fill-rule="nonzero"></g>
        <g id="✱-/-Color-/-Icons-/-Black-/-Inactive" mask="url(#mask-2)" fill="#000000" fill-opacity="0.54">
            <rect id="Rectangle" x="0" y="0" width="24" height="24"></rect>
        </g>
    </g>
</svg>