<?xml version="1.0" encoding="UTF-8"?>
<svg width="24px" height="24px" viewBox="0 0 24 24" version="1.1" xmlns="http://www.w3.org/2000/svg" xmlns:xlink="http://www.w3.org/1999/xlink">
    <!-- Generator: Sketch 50 (54983) - http://www.bohemiancoding.com/sketch -->
    <title>icon/communication/phonelink_ring_24px</title>
    <desc>Created with Sketch.</desc>
    <defs>
        <path d="M20.1,7.7 L19.1,8.7 C20.9,10.5 20.9,13.3 19.1,15.2 L20.1,16.2 C22.6,13.9 22.6,10.1 20.1,7.7 Z M18,9.8 L17,10.8 C17.5,11.5 17.5,12.4 17,13.1 L18,14.1 C19.2,12.9 19.2,11.1 18,9.8 Z M14,1 L4,1 C2.9,1 2,1.9 2,3 L2,21 C2,22.1 2.9,23 4,23 L14,23 C15.1,23 16,22.1 16,21 L16,3 C16,1.9 15.1,1 14,1 Z M14,20 L4,20 L4,4 L14,4 L14,20 Z" id="path-1"></path>
    </defs>
    <g id="icon/communication/phonelink_ring_24px" stroke="none" stroke-width="1" fill="none" fill-rule="evenodd">
        <mask id="mask-2" fill="white">
            <use xlink:href="#path-1"></use>
        </mask>
        <g fill-rule="nonzero"></g>
        <g id="✱-/-Color-/-Icons-/-Black-/-Inactive" mask="url(#mask-2)" fill="#000000" fill-opacity="0.54">
            <rect id="Rectangle" x="0" y="0" width="24" height="24"></rect>
        </g>
    </g>
</svg>