<?xml version="1.0" encoding="UTF-8"?>
<svg width="24px" height="24px" viewBox="0 0 24 24" version="1.1" xmlns="http://www.w3.org/2000/svg" xmlns:xlink="http://www.w3.org/1999/xlink">
    <!-- Generator: Sketch 50 (54983) - http://www.bohemiancoding.com/sketch -->
    <title>icon/communication/unsubscribe_24px</title>
    <desc>Created with Sketch.</desc>
    <defs>
        <path d="M18.5,13 C16.57,13 15,14.57 15,16.5 C15,18.43 16.57,20 18.5,20 C20.43,20 22,18.43 22,16.5 C22,14.57 20.43,13 18.5,13 Z M20.5,17 L16.5,17 L16.5,16 L20.5,16 L20.5,17 Z M13.55,17 C13.53,16.83 13.5,16.67 13.5,16.5 C13.5,13.74 15.74,11.5 18.5,11.5 C19.42,11.5 20.25,11.76 20.99,12.19 L20.99,5 C20.99,3.9 20.1,3 19,3 L5,3 C3.9,3 3,3.9 3,5 L3,15 C3,16.1 3.9,17 5,17 L13.55,17 Z M12,10.5 L5,7 L5,5 L12,8.5 L19,5 L19,7 L12,10.5 Z" id="path-1"></path>
    </defs>
    <g id="icon/communication/unsubscribe_24px" stroke="none" stroke-width="1" fill="none" fill-rule="evenodd">
        <mask id="mask-2" fill="white">
            <use xlink:href="#path-1"></use>
        </mask>
        <g fill-rule="nonzero"></g>
        <g id="✱-/-Color-/-Icons-/-Black-/-Inactive" mask="url(#mask-2)" fill="#000000" fill-opacity="0.54">
            <rect id="Rectangle" x="0" y="0" width="24" height="24"></rect>
        </g>
    </g>
</svg>