<?xml version="1.0" encoding="UTF-8"?>
<svg width="24px" height="24px" viewBox="0 0 24 24" version="1.1" xmlns="http://www.w3.org/2000/svg" xmlns:xlink="http://www.w3.org/1999/xlink">
    <!-- Generator: Sketch 50 (54983) - http://www.bohemiancoding.com/sketch -->
    <title>icon/notification/airline_seat_recline_normal_24px_sharp</title>
    <desc>Created with Sketch.</desc>
    <defs>
        <path d="M7.59,5.6625 C6.81,4.8825 6.81,3.6125 7.59,2.8325 C8.37,2.0525 9.64,2.0525 10.42,2.8325 C11.2,3.6125 11.2,4.8825 10.42,5.6625 C9.63,6.4525 8.37,6.4525 7.59,5.6625 Z M6,19.2525 L6,7.2525 L4,7.2525 L4,21.2525 L15,21.2525 L15,19.2525 L6,19.2525 Z M20,20.3225 L14.93,15.2525 L11.5,15.2525 L11.5,11.5725 C12.9,12.7225 15.1,13.7325 17,13.7325 L17,11.5725 C15.34,11.5925 13.39,10.7025 12.33,9.5325 L10.93,7.9825 C10.74,7.7725 10.5,7.6025 10.24,7.4825 C9.95,7.3425 9.62,7.2525 9.28,7.2525 L9.25,7.2525 C8.01,7.2525 7,8.2625 7,9.5025 L7,18.2525 L15.07,18.2525 L18.57,21.7525 L20,20.3225 Z" id="path-1"></path>
    </defs>
    <g id="icon/notification/airline_seat_recline_normal_24px" stroke="none" stroke-width="1" fill="none" fill-rule="evenodd">
        <mask id="mask-2" fill="white">
            <use xlink:href="#path-1"></use>
        </mask>
        <g fill-rule="nonzero"></g>
        <g id="✱-/-Color-/-Icons-/-Black-/-Inactive" mask="url(#mask-2)" fill="#000000" fill-opacity="0.54">
            <rect id="Rectangle" x="0" y="0" width="24" height="24"></rect>
        </g>
    </g>
</svg>