<?xml version="1.0" encoding="UTF-8"?>
<svg width="24px" height="24px" viewBox="0 0 24 24" version="1.1" xmlns="http://www.w3.org/2000/svg" xmlns:xlink="http://www.w3.org/1999/xlink">
    <!-- Generator: Sketch 50 (54983) - http://www.bohemiancoding.com/sketch -->
    <title>icon/notification/network_locked_24px_sharp</title>
    <desc>Created with Sketch.</desc>
    <defs>
        <path d="M22,16.5 L22,16.14 C22,14.83 21.06,13.64 19.76,13.51 C18.26,13.36 17,14.53 17,16 L17,16.5 L16,16.5 L16,22.5 L23,22.5 L23,16.5 L22,16.5 Z M21,16.5 L18,16.5 L18,16 C18,15.17 18.67,14.5 19.5,14.5 C20.33,14.5 21,15.17 21,16 L21,16.5 Z M19.5,11.5 C19.65,11.5 19.8,11.51 19.96,11.52 C19.97,11.52 19.99,11.53 20,11.53 L20,1.5 L1,20.5 L14,20.5 L14,14.5 L15.26,14.5 C15.48,13.87 15.84,13.3 16.32,12.82 C17.17,11.97 18.3,11.5 19.5,11.5 Z" id="path-1"></path>
    </defs>
    <g id="icon/notification/network_locked_24px" stroke="none" stroke-width="1" fill="none" fill-rule="evenodd">
        <mask id="mask-2" fill="white">
            <use xlink:href="#path-1"></use>
        </mask>
        <g fill-rule="nonzero"></g>
        <g id="✱-/-Color-/-Icons-/-Black-/-Inactive" mask="url(#mask-2)" fill="#000000" fill-opacity="0.54">
            <rect id="Rectangle" x="0" y="0" width="24" height="24"></rect>
        </g>
    </g>
</svg>