<?xml version="1.0" encoding="UTF-8"?>
<svg width="24px" height="24px" viewBox="0 0 24 24" version="1.1" xmlns="http://www.w3.org/2000/svg" xmlns:xlink="http://www.w3.org/1999/xlink">
    <!-- Generator: Sketch 50 (54983) - http://www.bohemiancoding.com/sketch -->
    <title>icon/notification/phone_locked_24px_sharp</title>
    <desc>Created with Sketch.</desc>
    <defs>
        <path d="M13.2092188,18.37227 C10.3792188,16.93227 8.05921884,14.62227 6.61921884,11.78227 L9.14921884,9.25226998 L8.53921884,4.00226998 L3.02921884,4.00226998 C2.44921884,14.18227 10.8192188,22.55227 20.9992188,21.97227 L20.9992188,16.46227 L15.7292188,15.85227 L13.2092188,18.37227 Z M19.9992188,5.00226998 L19.9992188,4.64226998 C19.9992188,3.33226998 19.0592188,2.14226998 17.7592188,2.01226998 C16.2592188,1.86226998 14.9992188,3.03226998 14.9992188,4.50226998 L14.9992188,5.00226998 L13.9992188,5.00226998 L13.9992188,11.00227 L20.9992188,11.00227 L20.9992188,5.00226998 L19.9992188,5.00226998 Z M18.9992188,5.00226998 L15.9992188,5.00226998 L15.9992188,4.50226998 C15.9992188,3.67226998 16.6692188,3.00226998 17.4992188,3.00226998 C18.3292188,3.00226998 18.9992188,3.67226998 18.9992188,4.50226998 L18.9992188,5.00226998 Z" id="path-1"></path>
    </defs>
    <g id="icon/notification/phone_locked_24px" stroke="none" stroke-width="1" fill="none" fill-rule="evenodd">
        <mask id="mask-2" fill="white">
            <use xlink:href="#path-1"></use>
        </mask>
        <g fill-rule="nonzero"></g>
        <g id="✱-/-Color-/-Icons-/-Black-/-Inactive" mask="url(#mask-2)" fill="#000000" fill-opacity="0.54">
            <rect id="Rectangle" x="0" y="0" width="24" height="24"></rect>
        </g>
    </g>
</svg>