<?xml version="1.0" encoding="UTF-8"?>
<svg width="24px" height="24px" viewBox="0 0 24 24" version="1.1" xmlns="http://www.w3.org/2000/svg" xmlns:xlink="http://www.w3.org/1999/xlink">
    <!-- Generator: Sketch 50 (54983) - http://www.bohemiancoding.com/sketch -->
    <title>icon/notification/rv_hookup_24px_sharp</title>
    <desc>Created with Sketch.</desc>
    <defs>
        <path d="M19,17 L19,9 L6,9 L6,7 L3,10 L6,13 L6,11 L10,11 L10,14 L3,14 L3,19 L7,19 C7,20.66 8.34,22 10,22 C11.66,22 13,20.66 13,19 L21,19 L21,17 L19,17 Z M10,20 C9.45,20 9,19.55 9,19 C9,18.45 9.45,18 10,18 C10.55,18 11,18.45 11,19 C11,19.55 10.55,20 10,20 Z M17,14 L13,14 L13,11 L17,11 L17,14 Z M16,2 L16,4 L8,4 L8,6 L16,6 L16,8 L19,5 L16,2 Z" id="path-1"></path>
    </defs>
    <g id="icon/notification/rv_hookup_24px" stroke="none" stroke-width="1" fill="none" fill-rule="evenodd">
        <mask id="mask-2" fill="white">
            <use xlink:href="#path-1"></use>
        </mask>
        <g fill-rule="nonzero"></g>
        <g id="✱-/-Color-/-Icons-/-Black-/-Inactive" mask="url(#mask-2)" fill="#000000" fill-opacity="0.54">
            <rect id="Rectangle" x="0" y="0" width="24" height="24"></rect>
        </g>
    </g>
</svg>