<?xml version="1.0" encoding="UTF-8"?>
<svg width="24px" height="24px" viewBox="0 0 24 24" version="1.1" xmlns="http://www.w3.org/2000/svg" xmlns:xlink="http://www.w3.org/1999/xlink">
    <!-- Generator: Sketch 50 (54983) - http://www.bohemiancoding.com/sketch -->
    <title>icon/notification/sync_24px_sharp</title>
    <desc>Created with Sketch.</desc>
    <defs>
        <path d="M12,4 L12,1 L8,5 L12,9 L12,6 C15.31,6 18,8.69 18,12 C18,13.01 17.75,13.97 17.3,14.8 L18.76,16.26 C19.54,15.03 20,13.57 20,12 C20,7.58 16.42,4 12,4 Z M12,18 C8.69,18 6,15.31 6,12 C6,10.99 6.25,10.03 6.7,9.2 L5.24,7.74 C4.46,8.97 4,10.43 4,12 C4,16.42 7.58,20 12,20 L12,23 L16,19 L12,15 L12,18 Z" id="path-1"></path>
    </defs>
    <g id="icon/notification/sync_24px" stroke="none" stroke-width="1" fill="none" fill-rule="evenodd">
        <mask id="mask-2" fill="white">
            <use xlink:href="#path-1"></use>
        </mask>
        <g fill-rule="nonzero"></g>
        <g id="✱-/-Color-/-Icons-/-Black-/-Inactive" mask="url(#mask-2)" fill="#000000" fill-opacity="0.54">
            <rect id="Rectangle" x="0" y="0" width="24" height="24"></rect>
        </g>
    </g>
</svg>