<?xml version="1.0" encoding="UTF-8"?>
<svg width="24px" height="24px" viewBox="0 0 24 24" version="1.1" xmlns="http://www.w3.org/2000/svg" xmlns:xlink="http://www.w3.org/1999/xlink">
    <!-- Generator: Sketch 50 (54983) - http://www.bohemiancoding.com/sketch -->
    <title>icon/notification/time_to_leave_24px_sharp</title>
    <desc>Created with Sketch.</desc>
    <defs>
        <path d="M18.57,4 L5.43,4 L3,11 L3,20 L6,20 L6,18 L18,18 L18,20 L21,20 L21,11 L18.57,4 Z M6.5,15 C5.67,15 5,14.33 5,13.5 C5,12.67 5.67,12 6.5,12 C7.33,12 8,12.67 8,13.5 C8,14.33 7.33,15 6.5,15 Z M17.5,15 C16.67,15 16,14.33 16,13.5 C16,12.67 16.67,12 17.5,12 C18.33,12 19,12.67 19,13.5 C19,14.33 18.33,15 17.5,15 Z M5,10 L6.5,5.5 L17.5,5.5 L19,10 L5,10 Z" id="path-1"></path>
    </defs>
    <g id="icon/notification/time_to_leave_24px" stroke="none" stroke-width="1" fill="none" fill-rule="evenodd">
        <mask id="mask-2" fill="white">
            <use xlink:href="#path-1"></use>
        </mask>
        <g fill-rule="nonzero"></g>
        <g id="✱-/-Color-/-Icons-/-Black-/-Inactive" mask="url(#mask-2)" fill="#000000" fill-opacity="0.54">
            <rect id="Rectangle" x="0" y="0" width="24" height="24"></rect>
        </g>
    </g>
</svg>