<?xml version="1.0" encoding="UTF-8"?>
<svg width="24px" height="24px" viewBox="0 0 24 24" version="1.1" xmlns="http://www.w3.org/2000/svg" xmlns:xlink="http://www.w3.org/1999/xlink">
    <!-- Generator: Sketch 50 (54983) - http://www.bohemiancoding.com/sketch -->
    <title>icon/notification/vpn_lock_24px_sharp</title>
    <desc>Created with Sketch.</desc>
    <defs>
        <path d="M19,13.0014888 C19,15.0814888 18.2,16.9714888 16.9,18.3914888 L16.9,17.0014888 L14,17.0014888 L14,13.0014888 L7,13.0014888 L7,11.0014888 L10,11.0014888 L10,8.00148882 L14,8.00148882 L14,3.46148882 C13.05,3.16148882 12.05,3.00148882 11,3.00148882 C5.48,3.00148882 1,7.48148882 1,13.0014888 C1,18.5214888 5.48,23.0014888 11,23.0014888 C16.52,23.0014888 21,18.5214888 21,13.0014888 C21,12.6614888 20.98,12.3314888 20.95,12.0014888 L18.92,12.0014888 C18.96,12.3314888 19,12.6614888 19,13.0014888 Z M10,20.9314888 C6.05,20.4414888 3,17.0814888 3,13.0014888 C3,12.3814888 3.08,11.7914888 3.21,11.2114888 L8,16.0014888 L8,19.0014888 L10,19.0014888 L10,20.9314888 Z M22,4.00148882 L22,3.64148882 C22,2.33148882 21.06,1.14148882 19.76,1.01148882 C18.26,0.861488816 17,2.03148882 17,3.50148882 L17,4.00148882 L16,4.00148882 L16,10.0014888 L23,10.0014888 L23,4.00148882 L22,4.00148882 Z M21,4.00148882 L18,4.00148882 L18,3.50148882 C18,2.67148882 18.67,2.00148882 19.5,2.00148882 C20.33,2.00148882 21,2.67148882 21,3.50148882 L21,4.00148882 Z" id="path-1"></path>
    </defs>
    <g id="icon/notification/vpn_lock_24px" stroke="none" stroke-width="1" fill="none" fill-rule="evenodd">
        <mask id="mask-2" fill="white">
            <use xlink:href="#path-1"></use>
        </mask>
        <g fill-rule="nonzero"></g>
        <g id="✱-/-Color-/-Icons-/-Black-/-Inactive" mask="url(#mask-2)" fill="#000000" fill-opacity="0.54">
            <rect id="Rectangle" x="0" y="0" width="24" height="24"></rect>
        </g>
    </g>
</svg>