<?xml version="1.0" encoding="UTF-8"?>
<svg width="24px" height="24px" viewBox="0 0 24 24" version="1.1" xmlns="http://www.w3.org/2000/svg" xmlns:xlink="http://www.w3.org/1999/xlink">
    <!-- Generator: Sketch 50 (54983) - http://www.bohemiancoding.com/sketch -->
    <title>icon/maps/360_24px</title>
    <desc>Created with Sketch.</desc>
    <defs>
        <path d="M12,7 C6.48,7 2,9.24 2,12 C2,14.24 4.94,16.13 9,16.77 L9,20 L13,16 L9,12 L9,14.73 C5.85,14.17 4,12.83 4,12 C4,10.94 7.04,9 12,9 C16.96,9 20,10.94 20,12 C20,12.73 18.54,13.89 16,14.53 L16,16.58 C19.53,15.81 22,14.05 22,12 C22,9.24 17.52,7 12,7 Z" id="path-1"></path>
    </defs>
    <g id="icon/maps/360_24px" stroke="none" stroke-width="1" fill="none" fill-rule="evenodd">
        <mask id="mask-2" fill="white">
            <use xlink:href="#path-1"></use>
        </mask>
        <g fill-rule="nonzero"></g>
        <g id="✱-/-Color-/-Icons-/-Black-/-Inactive" mask="url(#mask-2)" fill="#000000" fill-opacity="0.54">
            <rect id="Rectangle" x="0" y="0" width="24" height="24"></rect>
        </g>
    </g>
</svg>