<?xml version="1.0" encoding="UTF-8"?>
<svg width="24px" height="24px" viewBox="0 0 24 24" version="1.1" xmlns="http://www.w3.org/2000/svg" xmlns:xlink="http://www.w3.org/1999/xlink">
    <!-- Generator: Sketch 50 (54983) - http://www.bohemiancoding.com/sketch -->
    <title>icon/maps/departure_board_24px</title>
    <desc>Created with Sketch.</desc>
    <defs>
        <path d="M16,1 C13.6,1 11.48,2.21 10.22,4.05 C10.23,4.04 10.23,4.03 10.24,4.02 C9.84,4 9.42,4 9,4 C4.58,4 1,4.5 1,8 L1,18 C1,18.88 1.39,19.67 2,20.22 L2,22 C2,22.55 2.45,23 3,23 L4,23 C4.55,23 5,22.55 5,22 L5,21 L13,21 L13,22 C13,22.55 13.45,23 14,23 L15,23 C15.55,23 16,22.55 16,22 L16,20.22 C16.61,19.67 17,18.88 17,18 L17,14.92 C20.39,14.43 23,11.53 23,8 C23,4.13 19.87,1 16,1 Z M4.5,19 C3.67,19 3,18.33 3,17.5 C3,16.67 3.67,16 4.5,16 C5.33,16 6,16.67 6,17.5 C6,18.33 5.33,19 4.5,19 Z M3,13 L3,8 L9,8 C9,9.96 9.81,11.73 11.11,13 L3,13 Z M13.5,19 C12.67,19 12,18.33 12,17.5 C12,16.67 12.67,16 13.5,16 C14.33,16 15,16.67 15,17.5 C15,18.33 14.33,19 13.5,19 Z M16,13 C13.24,13 11,10.76 11,8 C11,5.24 13.24,3 16,3 C18.76,3 21,5.24 21,8 C21,10.76 18.76,13 16,13 Z M16.5,4 L15,4 L15,9 L18.62,11.16 L19.37,9.93 L16.5,8.25 L16.5,4 Z" id="path-1"></path>
    </defs>
    <g id="icon/maps/departure_board_24px" stroke="none" stroke-width="1" fill="none" fill-rule="evenodd">
        <mask id="mask-2" fill="white">
            <use xlink:href="#path-1"></use>
        </mask>
        <g fill-rule="nonzero"></g>
        <g id="✱-/-Color-/-Icons-/-Black-/-Inactive" mask="url(#mask-2)" fill="#000000" fill-opacity="0.54">
            <rect id="Rectangle" x="0" y="0" width="24" height="24"></rect>
        </g>
    </g>
</svg>