<?xml version="1.0" encoding="UTF-8"?>
<svg width="24px" height="24px" viewBox="0 0 24 24" version="1.1" xmlns="http://www.w3.org/2000/svg" xmlns:xlink="http://www.w3.org/1999/xlink">
    <!-- Generator: Sketch 50 (54983) - http://www.bohemiancoding.com/sketch -->
    <title>icon/maps/directions_walk_24px</title>
    <desc>Created with Sketch.</desc>
    <defs>
        <path d="M13.5,5.5 C14.6,5.5 15.5,4.6 15.5,3.5 C15.5,2.4 14.6,1.5 13.5,1.5 C12.4,1.5 11.5,2.4 11.5,3.5 C11.5,4.6 12.4,5.5 13.5,5.5 Z M9.8,8.9 L7,23 L9.1,23 L10.9,15 L13,17 L13,23 L15,23 L15,15.5 L12.9,13.5 L13.5,10.5 C14.8,12 16.8,13 19,13 L19,11 C17.1,11 15.5,10 14.7,8.6 L13.7,7 C13.14,6.11 12.02,5.75 11.05,6.16 L6,8.3 L6,13 L8,13 L8,9.6 L9.8,8.9 Z" id="path-1"></path>
    </defs>
    <g id="icon/maps/directions_walk_24px" stroke="none" stroke-width="1" fill="none" fill-rule="evenodd">
        <mask id="mask-2" fill="white">
            <use xlink:href="#path-1"></use>
        </mask>
        <g fill-rule="nonzero"></g>
        <g id="✱-/-Color-/-Icons-/-Black-/-Inactive" mask="url(#mask-2)" fill="#000000" fill-opacity="0.54">
            <rect id="Rectangle" x="0" y="0" width="24" height="24"></rect>
        </g>
    </g>
</svg>