<?xml version="1.0" encoding="UTF-8"?>
<svg width="24px" height="24px" viewBox="0 0 24 24" version="1.1" xmlns="http://www.w3.org/2000/svg" xmlns:xlink="http://www.w3.org/1999/xlink">
    <!-- Generator: Sketch 50 (54983) - http://www.bohemiancoding.com/sketch -->
    <title>icon/maps/local_florist_24px</title>
    <desc>Created with Sketch.</desc>
    <defs>
        <path d="M12,22 C16.97,22 21,17.97 21,13 C16.03,13 12,17.03 12,22 Z M5.6,10.25 C5.6,11.63 6.72,12.75 8.1,12.75 C8.63,12.75 9.11,12.59 9.52,12.31 L9.5,12.5 C9.5,13.88 10.62,15 12,15 C13.38,15 14.5,13.88 14.5,12.5 L14.48,12.31 C14.88,12.59 15.37,12.75 15.9,12.75 C17.28,12.75 18.4,11.63 18.4,10.25 C18.4,9.25 17.81,8.4 16.97,8 C17.81,7.6 18.4,6.75 18.4,5.75 C18.4,4.37 17.28,3.25 15.9,3.25 C15.37,3.25 14.89,3.41 14.48,3.69 L14.5,3.5 C14.5,2.12 13.38,1 12,1 C10.62,1 9.5,2.12 9.5,3.5 L9.52,3.69 C9.12,3.41 8.63,3.25 8.1,3.25 C6.72,3.25 5.6,4.37 5.6,5.75 C5.6,6.75 6.19,7.6 7.03,8 C6.19,8.4 5.6,9.25 5.6,10.25 Z M12,5.5 C13.38,5.5 14.5,6.62 14.5,8 C14.5,9.38 13.38,10.5 12,10.5 C10.62,10.5 9.5,9.38 9.5,8 C9.5,6.62 10.62,5.5 12,5.5 Z M3,13 C3,17.97 7.03,22 12,22 C12,17.03 7.97,13 3,13 Z" id="path-1"></path>
    </defs>
    <g id="icon/maps/local_florist_24px" stroke="none" stroke-width="1" fill="none" fill-rule="evenodd">
        <mask id="mask-2" fill="white">
            <use xlink:href="#path-1"></use>
        </mask>
        <g fill-rule="nonzero"></g>
        <g id="✱-/-Color-/-Icons-/-Black-/-Inactive" mask="url(#mask-2)" fill="#000000" fill-opacity="0.54">
            <rect id="Rectangle" x="0" y="0" width="24" height="24"></rect>
        </g>
    </g>
</svg>