<?xml version="1.0" encoding="UTF-8"?>
<svg width="24px" height="24px" viewBox="0 0 24 24" version="1.1" xmlns="http://www.w3.org/2000/svg" xmlns:xlink="http://www.w3.org/1999/xlink">
    <!-- Generator: Sketch 50 (54983) - http://www.bohemiancoding.com/sketch -->
    <title>icon/maps/local_hotel_24px</title>
    <desc>Created with Sketch.</desc>
    <defs>
        <path d="M7,13 C8.66,13 10,11.66 10,10 C10,8.34 8.66,7 7,7 C5.34,7 4,8.34 4,10 C4,11.66 5.34,13 7,13 Z M19,7 L11,7 L11,14 L3,14 L3,5 L1,5 L1,20 L3,20 L3,17 L21,17 L21,20 L23,20 L23,11 C23,8.79 21.21,7 19,7 Z" id="path-1"></path>
    </defs>
    <g id="icon/maps/local_hotel_24px" stroke="none" stroke-width="1" fill="none" fill-rule="evenodd">
        <mask id="mask-2" fill="white">
            <use xlink:href="#path-1"></use>
        </mask>
        <g fill-rule="nonzero"></g>
        <g id="✱-/-Color-/-Icons-/-Black-/-Inactive" mask="url(#mask-2)" fill="#000000" fill-opacity="0.54">
            <rect id="Rectangle" x="0" y="0" width="24" height="24"></rect>
        </g>
    </g>
</svg>