<?xml version="1.0" encoding="UTF-8"?>
<svg width="24px" height="24px" viewBox="0 0 24 24" version="1.1" xmlns="http://www.w3.org/2000/svg" xmlns:xlink="http://www.w3.org/1999/xlink">
    <!-- Generator: Sketch 50 (54983) - http://www.bohemiancoding.com/sketch -->
    <title>icon/maps/local_convenience_store_24px</title>
    <desc>Created with Sketch.</desc>
    <defs>
        <path d="M19,7 L19,4 L5,4 L5,7 L2,7 L2,20 L10,20 L10,16 L14,16 L14,20 L22,20 L22,7 L19,7 Z M11,10 L9,10 L9,11 L11,11 L11,12 L8,12 L8,9 L10,9 L10,8 L8,8 L8,7 L11,7 L11,10 Z M16,12 L15,12 L15,10 L13,10 L13,7 L14,7 L14,9 L15,9 L15,7 L16,7 L16,12 Z" id="path-1"></path>
    </defs>
    <g id="icon/maps/local_convenience_store_24px" stroke="none" stroke-width="1" fill="none" fill-rule="evenodd">
        <mask id="mask-2" fill="white">
            <use xlink:href="#path-1"></use>
        </mask>
        <g fill-rule="nonzero"></g>
        <g id="✱-/-Color-/-Icons-/-Black-/-Inactive" mask="url(#mask-2)" fill="#000000" fill-opacity="0.54">
            <rect id="Rectangle" x="0" y="0" width="24" height="24"></rect>
        </g>
    </g>
</svg>