<?xml version="1.0" encoding="UTF-8"?>
<svg width="24px" height="24px" viewBox="0 0 24 24" version="1.1" xmlns="http://www.w3.org/2000/svg" xmlns:xlink="http://www.w3.org/1999/xlink">
    <!-- Generator: Sketch 50 (54983) - http://www.bohemiancoding.com/sketch -->
    <title>icon/maps/local_gas_station_24px</title>
    <desc>Created with Sketch.</desc>
    <defs>
        <path d="M19.77,7.23 L19.78,7.22 L16.06,3.5 L15,4.56 L17.11,6.67 C16.17,7.03 15.5,7.93 15.5,9 C15.5,10.38 16.62,11.5 18,11.5 C18.36,11.5 18.69,11.42 19,11.29 L19,18.5 C19,19.05 18.55,19.5 18,19.5 C17.45,19.5 17,19.05 17,18.5 L17,14 C17,12.9 16.1,12 15,12 L14,12 L14,5 C14,3.9 13.1,3 12,3 L6,3 C4.9,3 4,3.9 4,5 L4,21 L14,21 L14,13.5 L15.5,13.5 L15.5,18.5 C15.5,19.88 16.62,21 18,21 C19.38,21 20.5,19.88 20.5,18.5 L20.5,9 C20.5,8.31 20.22,7.68 19.77,7.23 Z M12,10 L6,10 L6,5 L12,5 L12,10 Z M18,10 C17.45,10 17,9.55 17,9 C17,8.45 17.45,8 18,8 C18.55,8 19,8.45 19,9 C19,9.55 18.55,10 18,10 Z" id="path-1"></path>
    </defs>
    <g id="icon/maps/local_gas_station_24px" stroke="none" stroke-width="1" fill="none" fill-rule="evenodd">
        <mask id="mask-2" fill="white">
            <use xlink:href="#path-1"></use>
        </mask>
        <g fill-rule="nonzero"></g>
        <g id="✱-/-Color-/-Icons-/-Black-/-Inactive" mask="url(#mask-2)" fill="#000000" fill-opacity="0.54">
            <rect id="Rectangle" x="0" y="0" width="24" height="24"></rect>
        </g>
    </g>
</svg>