<?xml version="1.0" encoding="UTF-8"?>
<svg width="24px" height="24px" viewBox="0 0 24 24" version="1.1" xmlns="http://www.w3.org/2000/svg" xmlns:xlink="http://www.w3.org/1999/xlink">
    <!-- Generator: Sketch 50 (54983) - http://www.bohemiancoding.com/sketch -->
    <title>icon/maps/streetview_24px</title>
    <desc>Created with Sketch.</desc>
    <defs>
        <path d="M12.56,14.33 C12.22,14.6 12,15.03 12,15.5 L12,21 L19,21 C20.1,21 21,20.1 21,19 L21,13.02 C20.06,12.69 19.05,12.5 18,12.5 C15.97,12.5 14.07,13.2 12.56,14.33 Z M18,11 C20.7614237,11 23,8.76142375 23,6 C23,3.23857625 20.7614237,1 18,1 C15.2385763,1 13,3.23857625 13,6 C13,8.76142375 15.2385763,11 18,11 Z M11.5,6 C11.5,4.92 11.77,3.9 12.24,3 L5,3 C3.9,3 3,3.9 3,5 L3,19 C3,19.55 3.23,20.05 3.59,20.41 L13.41,10.59 C12.23,9.42 11.5,7.8 11.5,6 Z" id="path-1"></path>
    </defs>
    <g id="icon/maps/streetview_24px" stroke="none" stroke-width="1" fill="none" fill-rule="evenodd">
        <mask id="mask-2" fill="white">
            <use xlink:href="#path-1"></use>
        </mask>
        <g fill-rule="nonzero"></g>
        <g id="✱-/-Color-/-Icons-/-Black-/-Inactive" mask="url(#mask-2)" fill="#000000" fill-opacity="0.54">
            <rect id="Rectangle" x="0" y="0" width="24" height="24"></rect>
        </g>
    </g>
</svg>