<?xml version="1.0" encoding="UTF-8"?>
<svg width="24px" height="24px" viewBox="0 0 24 24" version="1.1" xmlns="http://www.w3.org/2000/svg" xmlns:xlink="http://www.w3.org/1999/xlink">
    <!-- Generator: Sketch 50 (54983) - http://www.bohemiancoding.com/sketch -->
    <title>icon/editor/add_comment_24px_rounded</title>
    <desc>Created with Sketch.</desc>
    <defs>
        <path d="M22,4 C22,2.9 21.1,2 20,2 L4,2 C2.9,2 2,2.9 2,4 L2,16 C2,17.1 2.9,18 4,18 L18,18 L22,22 L22,4 Z M16,11 L13,11 L13,14 C13,14.55 12.55,15 12,15 C11.45,15 11,14.55 11,14 L11,11 L8,11 C7.45,11 7,10.55 7,10 C7,9.45 7.45,9 8,9 L11,9 L11,6 C11,5.45 11.45,5 12,5 C12.55,5 13,5.45 13,6 L13,9 L16,9 C16.55,9 17,9.45 17,10 C17,10.55 16.55,11 16,11 Z" id="path-1"></path>
    </defs>
    <g id="icon/editor/add_comment_24px" stroke="none" stroke-width="1" fill="none" fill-rule="evenodd">
        <mask id="mask-2" fill="white">
            <use xlink:href="#path-1"></use>
        </mask>
        <g fill-rule="nonzero"></g>
        <g id="✱-/-Color-/-Icons-/-Black-/-Inactive" mask="url(#mask-2)" fill="#000000" fill-opacity="0.54">
            <rect id="Rectangle" x="0" y="0" width="24" height="24"></rect>
        </g>
    </g>
</svg>