<?xml version="1.0" encoding="UTF-8"?>
<svg width="24px" height="24px" viewBox="0 0 24 24" version="1.1" xmlns="http://www.w3.org/2000/svg" xmlns:xlink="http://www.w3.org/1999/xlink">
    <!-- Generator: Sketch 50 (54983) - http://www.bohemiancoding.com/sketch -->
    <title>icon/editor/border_inner_24px_rounded</title>
    <desc>Created with Sketch.</desc>
    <defs>
        <path d="M3,21 L5,21 L5,19 L3,19 L3,21 Z M7,21 L9,21 L9,19 L7,19 L7,21 Z M5,7 L3,7 L3,9 L5,9 L5,7 Z M3,17 L5,17 L5,15 L3,15 L3,17 Z M9,3 L7,3 L7,5 L9,5 L9,3 Z M5,3 L3,3 L3,5 L5,5 L5,3 Z M17,3 L15,3 L15,5 L17,5 L17,3 Z M19,9 L21,9 L21,7 L19,7 L19,9 Z M19,3 L19,5 L21,5 L21,3 L19,3 Z M15,21 L17,21 L17,19 L15,19 L15,21 Z M12,3 C11.45,3 11,3.45 11,4 L11,11 L4,11 C3.45,11 3,11.45 3,12 C3,12.55 3.45,13 4,13 L11,13 L11,20 C11,20.55 11.45,21 12,21 C12.55,21 13,20.55 13,20 L13,13 L20,13 C20.55,13 21,12.55 21,12 C21,11.45 20.55,11 20,11 L13,11 L13,4 C13,3.45 12.55,3 12,3 Z M19,21 L21,21 L21,19 L19,19 L19,21 Z M19,17 L21,17 L21,15 L19,15 L19,17 Z" id="path-1"></path>
    </defs>
    <g id="icon/editor/border_inner_24px" stroke="none" stroke-width="1" fill="none" fill-rule="evenodd">
        <mask id="mask-2" fill="white">
            <use xlink:href="#path-1"></use>
        </mask>
        <g fill-rule="nonzero"></g>
        <g id="✱-/-Color-/-Icons-/-Black-/-Inactive" mask="url(#mask-2)" fill="#000000" fill-opacity="0.54">
            <rect id="Rectangle" x="0" y="0" width="24" height="24"></rect>
        </g>
    </g>
</svg>