<?xml version="1.0" encoding="UTF-8"?>
<svg width="24px" height="24px" viewBox="0 0 24 24" version="1.1" xmlns="http://www.w3.org/2000/svg" xmlns:xlink="http://www.w3.org/1999/xlink">
    <!-- Generator: Sketch 50 (54983) - http://www.bohemiancoding.com/sketch -->
    <title>icon/editor/border_color_24px_rounded</title>
    <desc>Created with Sketch.</desc>
    <defs>
        <path d="M17.75,7.00176046 L14,3.25214879 L4.15,13.1011288 C4.05,13.2011184 4,13.321106 4,13.4610915 L4,16.5007767 C4,16.7807477 4.22,17.0007249 4.5,17.0007249 L7.54,17.0007249 C7.67,17.0007249 7.8,16.9507301 7.89,16.8507404 L17.75,7.00176046 Z M20.71,4.04206698 C21.1,3.65210737 21.1,3.02217261 20.71,2.632213 L18.37,0.292455317 C18.1831685,0.105222035 17.9295176,1.60445305e-17 17.665,0 C17.4004824,-1.64781664e-17 17.1468315,0.105222035 16.96,0.292455317 L15,2.25225235 L18.75,6.00186401 L20.71,4.04206698 Z M2,20.0004142 L22,20.0004142 C23.1,20.0004142 24,20.900321 24,22.0002071 C24,23.1000932 23.1,24 22,24 L2,24 C0.9,24 0,23.1000932 0,22.0002071 C0,20.900321 0.9,20.0004142 2,20.0004142 Z" id="path-1"></path>
    </defs>
    <g id="icon/editor/border_color_24px" stroke="none" stroke-width="1" fill="none" fill-rule="evenodd">
        <mask id="mask-2" fill="white">
            <use xlink:href="#path-1"></use>
        </mask>
        <g fill-rule="nonzero"></g>
        <g id="✱-/-Color-/-Icons-/-Black-/-Inactive" mask="url(#mask-2)" fill="#000000" fill-opacity="0.54">
            <rect id="Rectangle" x="0" y="0" width="24" height="24"></rect>
        </g>
    </g>
</svg>