<?xml version="1.0" encoding="UTF-8"?>
<svg width="24px" height="24px" viewBox="0 0 24 24" version="1.1" xmlns="http://www.w3.org/2000/svg" xmlns:xlink="http://www.w3.org/1999/xlink">
    <!-- Generator: Sketch 50 (54983) - http://www.bohemiancoding.com/sketch -->
    <title>icon/editor/border_all_24px_rounded</title>
    <desc>Created with Sketch.</desc>
    <defs>
        <path d="M3,5 L3,19 C3,20.1 3.9,21 5,21 L19,21 C20.1,21 21,20.1 21,19 L21,5 C21,3.9 20.1,3 19,3 L5,3 C3.9,3 3,3.9 3,5 Z M11,19 L6,19 C5.45,19 5,18.55 5,18 L5,13 L10,13 C10.55,13 11,13.45 11,14 L11,19 Z M10,11 L5,11 L5,6 C5,5.45 5.45,5 6,5 L11,5 L11,10 C11,10.55 10.55,11 10,11 Z M18,19 L13,19 L13,14 C13,13.45 13.45,13 14,13 L19,13 L19,18 C19,18.55 18.55,19 18,19 Z M19,11 L14,11 C13.45,11 13,10.55 13,10 L13,5 L18,5 C18.55,5 19,5.45 19,6 L19,11 Z" id="path-1"></path>
    </defs>
    <g id="icon/editor/border_all_24px" stroke="none" stroke-width="1" fill="none" fill-rule="evenodd">
        <mask id="mask-2" fill="white">
            <use xlink:href="#path-1"></use>
        </mask>
        <g fill-rule="nonzero"></g>
        <g id="✱-/-Color-/-Icons-/-Black-/-Inactive" mask="url(#mask-2)" fill="#000000" fill-opacity="0.54">
            <rect id="Rectangle" x="0" y="0" width="24" height="24"></rect>
        </g>
    </g>
</svg>