<?xml version="1.0" encoding="UTF-8"?>
<svg width="24px" height="24px" viewBox="0 0 24 24" version="1.1" xmlns="http://www.w3.org/2000/svg" xmlns:xlink="http://www.w3.org/1999/xlink">
    <!-- Generator: Sketch 50 (54983) - http://www.bohemiancoding.com/sketch -->
    <title>icon/editor/bubble_chart_24px_rounded</title>
    <desc>Created with Sketch.</desc>
    <defs>
        <path d="M7.20000003,11.2 C6.05675013,11.2 5.00034364,11.8099165 4.42871869,12.8 C3.85709373,13.7900834 3.85709373,15.0099166 4.42871869,16 C5.00034364,16.9900835 6.05675013,17.6 7.20000003,17.6 C8.34324994,17.6 9.39965642,16.9900835 9.97128138,16 C10.5429063,15.0099166 10.5429063,13.7900834 9.97128138,12.8 C9.39965642,11.8099165 8.34324994,11.2 7.20000003,11.2 Z M14.8,16 C13.6954305,16 12.8,16.8954305 12.8,18 C12.8,19.1045695 13.6954305,20 14.8,20 C15.9045695,20 16.8,19.1045695 16.8,18 C16.8,16.8954305 15.9045695,16 14.8,16 Z M15.2,4 C12.5490332,4 10.4,6.1490332 10.4,8.8 C10.4,11.4509668 12.5490332,13.6 15.2,13.6 C17.8509668,13.6 20,11.4509668 20,8.8 C20,6.1490332 17.8509668,4 15.2,4 Z" id="path-1"></path>
    </defs>
    <g id="icon/editor/bubble_chart_24px" stroke="none" stroke-width="1" fill="none" fill-rule="evenodd">
        <mask id="mask-2" fill="white">
            <use xlink:href="#path-1"></use>
        </mask>
        <g fill-rule="nonzero"></g>
        <g id="✱-/-Color-/-Icons-/-Black-/-Inactive" mask="url(#mask-2)" fill="#000000" fill-opacity="0.54">
            <rect id="Rectangle" x="0" y="0" width="24" height="24"></rect>
        </g>
    </g>
</svg>