<?xml version="1.0" encoding="UTF-8"?>
<svg width="24px" height="24px" viewBox="0 0 24 24" version="1.1" xmlns="http://www.w3.org/2000/svg" xmlns:xlink="http://www.w3.org/1999/xlink">
    <!-- Generator: Sketch 50 (54983) - http://www.bohemiancoding.com/sketch -->
    <title>icon/editor/drag_handle_24px_rounded</title>
    <desc>Created with Sketch.</desc>
    <defs>
        <path d="M19,9 L5,9 C4.45,9 4,9.45 4,10 C4,10.55 4.45,11 5,11 L19,11 C19.55,11 20,10.55 20,10 C20,9.45 19.55,9 19,9 Z M5,15 L19,15 C19.55,15 20,14.55 20,14 C20,13.45 19.55,13 19,13 L5,13 C4.45,13 4,13.45 4,14 C4,14.55 4.45,15 5,15 Z" id="path-1"></path>
    </defs>
    <g id="icon/editor/drag_handle_24px" stroke="none" stroke-width="1" fill="none" fill-rule="evenodd">
        <mask id="mask-2" fill="white">
            <use xlink:href="#path-1"></use>
        </mask>
        <g fill-rule="nonzero"></g>
        <g id="✱-/-Color-/-Icons-/-Black-/-Inactive" mask="url(#mask-2)" fill="#000000" fill-opacity="0.54">
            <rect id="Rectangle" x="0" y="0" width="24" height="24"></rect>
        </g>
    </g>
</svg>