<?xml version="1.0" encoding="UTF-8"?>
<svg width="24px" height="24px" viewBox="0 0 24 24" version="1.1" xmlns="http://www.w3.org/2000/svg" xmlns:xlink="http://www.w3.org/1999/xlink">
    <!-- Generator: Sketch 50 (54983) - http://www.bohemiancoding.com/sketch -->
    <title>icon/editor/format_list_numbered_rtl_24px_rounded</title>
    <desc>Created with Sketch.</desc>
    <defs>
        <path d="M21,16 L19,16 C18.72,16 18.5,16.22 18.5,16.5 C18.5,16.78 18.72,17 19,17 L20.5,17 L20.5,17.5 L20,17.5 C19.72,17.5 19.5,17.72 19.5,18 C19.5,18.28 19.72,18.5 20,18.5 L20.5,18.5 L20.5,19 L19,19 C18.72,19 18.5,19.22 18.5,19.5 C18.5,19.78 18.72,20 19,20 L21,20 C21.28,20 21.5,19.78 21.5,19.5 L21.5,16.5 C21.5,16.22 21.28,16 21,16 Z M19,5 L19.5,5 L19.5,7.5 C19.5,7.78 19.72,8 20,8 C20.28,8 20.5,7.78 20.5,7.5 L20.5,4.5 C20.5,4.22 20.28,4 20,4 L19,4 C18.72,4 18.5,4.22 18.5,4.5 C18.5,4.78 18.72,5 19,5 Z M21.5,10.72 L21.5,10.5 C21.5,10.22 21.28,10 21,10 L19,10 C18.72,10 18.5,10.22 18.5,10.5 C18.5,10.78 18.72,11 19,11 L20.3,11 L18.62,12.96 C18.54,13.05 18.5,13.17 18.5,13.28 L18.5,13.5 C18.5,13.78 18.72,14 19,14 L21,14 C21.28,14 21.5,13.78 21.5,13.5 C21.5,13.22 21.28,13 21,13 L19.7,13 L21.38,11.04 C21.46,10.95 21.5,10.83 21.5,10.72 Z M15.5,5 L3.5,5 C2.95,5 2.5,5.45 2.5,6 C2.5,6.55 2.95,7 3.5,7 L15.5,7 C16.05,7 16.5,6.55 16.5,6 C16.5,5.45 16.05,5 15.5,5 Z M15.5,17 L3.5,17 C2.95,17 2.5,17.45 2.5,18 C2.5,18.55 2.95,19 3.5,19 L15.5,19 C16.05,19 16.5,18.55 16.5,18 C16.5,17.45 16.05,17 15.5,17 Z M15.5,11 L3.5,11 C2.95,11 2.5,11.45 2.5,12 C2.5,12.55 2.95,13 3.5,13 L15.5,13 C16.05,13 16.5,12.55 16.5,12 C16.5,11.45 16.05,11 15.5,11 Z" id="path-1"></path>
    </defs>
    <g id="icon/editor/format_list_numbered_rtl_24px" stroke="none" stroke-width="1" fill="none" fill-rule="evenodd">
        <mask id="mask-2" fill="white">
            <use xlink:href="#path-1"></use>
        </mask>
        <g fill-rule="nonzero"></g>
        <g id="✱-/-Color-/-Icons-/-Black-/-Inactive" mask="url(#mask-2)" fill="#000000" fill-opacity="0.54">
            <rect id="Rectangle" x="0" y="0" width="24" height="24"></rect>
        </g>
    </g>
</svg>