<?xml version="1.0" encoding="UTF-8"?>
<svg width="24px" height="24px" viewBox="0 0 24 24" version="1.1" xmlns="http://www.w3.org/2000/svg" xmlns:xlink="http://www.w3.org/1999/xlink">
    <!-- Generator: Sketch 50 (54983) - http://www.bohemiancoding.com/sketch -->
    <title>icon/editor/format_color_fill_24px_rounded</title>
    <desc>Created with Sketch.</desc>
    <defs>
        <path d="M16.56,8.7362428 L8.32,0.496242803 C8.13316847,0.308990129 7.87951764,0.203757197 7.615,0.203757197 C7.35048236,0.203757197 7.09683153,0.308990129 6.91,0.496242803 C6.52,0.886242803 6.52,1.5162428 6.91,1.9062428 L8.59,3.5862428 L3.44,8.7362428 C2.85,9.3262428 2.85,10.2762428 3.44,10.8562428 L8.94,16.3562428 C9.23,16.6462428 9.62,16.7962428 10,16.7962428 C10.38,16.7962428 10.77,16.6462428 11.06,16.3562428 L16.56,10.8562428 C17.15,10.2762428 17.15,9.3262428 16.56,8.7362428 Z M5.21,9.7962428 L10,5.0062428 L14.79,9.7962428 L5.21,9.7962428 Z M19,11.2962428 C19,11.2962428 17,13.4662428 17,14.7962428 C17,15.8962428 17.9,16.7962428 19,16.7962428 C20.1,16.7962428 21,15.8962428 21,14.7962428 C21,13.4662428 19,11.2962428 19,11.2962428 Z M2,19.7962428 L22,19.7962428 C23.1,19.7962428 24,20.6962428 24,21.7962428 C24,22.8962428 23.1,23.7962428 22,23.7962428 L2,23.7962428 C0.9,23.7962428 0,22.8962428 0,21.7962428 C0,20.6962428 0.9,19.7962428 2,19.7962428 Z" id="path-1"></path>
    </defs>
    <g id="icon/editor/format_color_fill_24px" stroke="none" stroke-width="1" fill="none" fill-rule="evenodd">
        <mask id="mask-2" fill="white">
            <use xlink:href="#path-1"></use>
        </mask>
        <g fill-rule="nonzero"></g>
        <g id="✱-/-Color-/-Icons-/-Black-/-Inactive" mask="url(#mask-2)" fill="#000000" fill-opacity="0.54">
            <rect id="Rectangle" x="0" y="0" width="24" height="24"></rect>
        </g>
    </g>
</svg>