<?xml version="1.0" encoding="UTF-8"?>
<svg width="24px" height="24px" viewBox="0 0 24 24" version="1.1" xmlns="http://www.w3.org/2000/svg" xmlns:xlink="http://www.w3.org/1999/xlink">
    <!-- Generator: Sketch 50 (54983) - http://www.bohemiancoding.com/sketch -->
    <title>icon/editor/format_textdirection_r_to_l_24px_rounded</title>
    <desc>Created with Sketch.</desc>
    <defs>
        <path d="M9.895,10.3526908 L9.895,14.3526908 C9.895,14.9026908 10.345,15.3526908 10.895,15.3526908 C11.445,15.3526908 11.895,14.9026908 11.895,14.3526908 L11.895,4.3526908 L13.895,4.3526908 L13.895,14.3526908 C13.895,14.9026908 14.345,15.3526908 14.895,15.3526908 C15.445,15.3526908 15.895,14.9026908 15.895,14.3526908 L15.895,4.3526908 L16.895,4.3526908 C17.445,4.3526908 17.895,3.9026908 17.895,3.3526908 C17.895,2.8026908 17.445,2.3526908 16.895,2.3526908 L10.065,2.3526908 C7.975,2.3526908 6.115,3.8826908 5.915,5.9626908 C5.685,8.3426908 7.555,10.3526908 9.895,10.3526908 Z M7.895,17.3526908 L7.895,15.5626908 C7.895,15.1126908 7.355,14.8926908 7.045,15.2126908 L4.255,18.0026908 C4.055,18.2026908 4.055,18.5126908 4.255,18.7126908 L7.045,21.5026908 C7.355,21.8126908 7.895,21.5926908 7.895,21.1426908 L7.895,19.3526908 L18.895,19.3526908 C19.445,19.3526908 19.895,18.9026908 19.895,18.3526908 C19.895,17.8026908 19.445,17.3526908 18.895,17.3526908 L7.895,17.3526908 Z" id="path-1"></path>
    </defs>
    <g id="icon/editor/format_textdirection_r_to_l_24px" stroke="none" stroke-width="1" fill="none" fill-rule="evenodd">
        <mask id="mask-2" fill="white">
            <use xlink:href="#path-1"></use>
        </mask>
        <g fill-rule="nonzero"></g>
        <g id="✱-/-Color-/-Icons-/-Black-/-Inactive" mask="url(#mask-2)" fill="#000000" fill-opacity="0.54">
            <rect id="Rectangle" x="0" y="0" width="24" height="24"></rect>
        </g>
    </g>
</svg>