<?xml version="1.0" encoding="UTF-8"?>
<svg width="24px" height="24px" viewBox="0 0 24 24" version="1.1" xmlns="http://www.w3.org/2000/svg" xmlns:xlink="http://www.w3.org/1999/xlink">
    <!-- Generator: Sketch 50 (54983) - http://www.bohemiancoding.com/sketch -->
    <title>icon/editor/format_list_numbered_24px_rounded</title>
    <desc>Created with Sketch.</desc>
    <defs>
        <path d="M8.5,7 L20.5,7 C21.05,7 21.5,6.55 21.5,6 C21.5,5.45 21.05,5 20.5,5 L8.5,5 C7.95,5 7.5,5.45 7.5,6 C7.5,6.55 7.95,7 8.5,7 Z M20.5,17 L8.5,17 C7.95,17 7.5,17.45 7.5,18 C7.5,18.55 7.95,19 8.5,19 L20.5,19 C21.05,19 21.5,18.55 21.5,18 C21.5,17.45 21.05,17 20.5,17 Z M20.5,11 L8.5,11 C7.95,11 7.5,11.45 7.5,12 C7.5,12.55 7.95,13 8.5,13 L20.5,13 C21.05,13 21.5,12.55 21.5,12 C21.5,11.45 21.05,11 20.5,11 Z M5,16 L3,16 C2.72,16 2.5,16.22 2.5,16.5 C2.5,16.78 2.72,17 3,17 L4.5,17 L4.5,17.5 L4,17.5 C3.72,17.5 3.5,17.72 3.5,18 C3.5,18.28 3.72,18.5 4,18.5 L4.5,18.5 L4.5,19 L3,19 C2.72,19 2.5,19.22 2.5,19.5 C2.5,19.78 2.72,20 3,20 L5,20 C5.28,20 5.5,19.78 5.5,19.5 L5.5,16.5 C5.5,16.22 5.28,16 5,16 Z M3,5 L3.5,5 L3.5,7.5 C3.5,7.78 3.72,8 4,8 C4.28,8 4.5,7.78 4.5,7.5 L4.5,4.5 C4.5,4.22 4.28,4 4,4 L3,4 C2.72,4 2.5,4.22 2.5,4.5 C2.5,4.78 2.72,5 3,5 Z M5,10 L3,10 C2.72,10 2.5,10.22 2.5,10.5 C2.5,10.78 2.72,11 3,11 L4.3,11 L2.62,12.96 C2.54,13.05 2.5,13.17 2.5,13.28 L2.5,13.5 C2.5,13.78 2.72,14 3,14 L5,14 C5.28,14 5.5,13.78 5.5,13.5 C5.5,13.22 5.28,13 5,13 L3.7,13 L5.38,11.04 C5.46,10.95 5.5,10.83 5.5,10.72 L5.5,10.5 C5.5,10.22 5.28,10 5,10 Z" id="path-1"></path>
    </defs>
    <g id="icon/editor/format_list_numbered_24px" stroke="none" stroke-width="1" fill="none" fill-rule="evenodd">
        <mask id="mask-2" fill="white">
            <use xlink:href="#path-1"></use>
        </mask>
        <g fill-rule="nonzero"></g>
        <g id="✱-/-Color-/-Icons-/-Black-/-Inactive" mask="url(#mask-2)" fill="#000000" fill-opacity="0.54">
            <rect id="Rectangle" x="0" y="0" width="24" height="24"></rect>
        </g>
    </g>
</svg>