<?xml version="1.0" encoding="UTF-8"?>
<svg width="24px" height="24px" viewBox="0 0 24 24" version="1.1" xmlns="http://www.w3.org/2000/svg" xmlns:xlink="http://www.w3.org/1999/xlink">
    <!-- Generator: Sketch 50 (54983) - http://www.bohemiancoding.com/sketch -->
    <title>icon/editor/format_align_left_24px_rounded</title>
    <desc>Created with Sketch.</desc>
    <defs>
        <path d="M14,15 L4,15 C3.45,15 3,15.45 3,16 C3,16.55 3.45,17 4,17 L14,17 C14.55,17 15,16.55 15,16 C15,15.45 14.55,15 14,15 Z M14,7 L4,7 C3.45,7 3,7.45 3,8 C3,8.55 3.45,9 4,9 L14,9 C14.55,9 15,8.55 15,8 C15,7.45 14.55,7 14,7 Z M4,13 L20,13 C20.55,13 21,12.55 21,12 C21,11.45 20.55,11 20,11 L4,11 C3.45,11 3,11.45 3,12 C3,12.55 3.45,13 4,13 Z M4,21 L20,21 C20.55,21 21,20.55 21,20 C21,19.45 20.55,19 20,19 L4,19 C3.45,19 3,19.45 3,20 C3,20.55 3.45,21 4,21 Z M3,4 C3,4.55 3.45,5 4,5 L20,5 C20.55,5 21,4.55 21,4 C21,3.45 20.55,3 20,3 L4,3 C3.45,3 3,3.45 3,4 Z" id="path-1"></path>
    </defs>
    <g id="icon/editor/format_align_left_24px" stroke="none" stroke-width="1" fill="none" fill-rule="evenodd">
        <mask id="mask-2" fill="white">
            <use xlink:href="#path-1"></use>
        </mask>
        <g fill-rule="nonzero"></g>
        <g id="✱-/-Color-/-Icons-/-Black-/-Inactive" mask="url(#mask-2)" fill="#000000" fill-opacity="0.54">
            <rect id="Rectangle" x="0" y="0" width="24" height="24"></rect>
        </g>
    </g>
</svg>