<?xml version="1.0" encoding="UTF-8"?>
<svg width="24px" height="24px" viewBox="0 0 24 24" version="1.1" xmlns="http://www.w3.org/2000/svg" xmlns:xlink="http://www.w3.org/1999/xlink">
    <!-- Generator: Sketch 50 (54983) - http://www.bohemiancoding.com/sketch -->
    <title>icon/editor/format_color_text_24px_rounded</title>
    <desc>Created with Sketch.</desc>
    <defs>
        <path d="M2,18.5 L22,18.5 C23.1,18.5 24,19.4 24,20.5 C24,21.6 23.1,22.5 22,22.5 L2,22.5 C0.9,22.5 0,21.6 0,20.5 C0,19.4 0.9,18.5 2,18.5 Z M10.63,2.43 L6.06,14.08 C5.79,14.76 6.29,15.5 7.03,15.5 C7.46,15.5 7.85,15.23 8.01,14.82 L8.87,12.5 L15.12,12.5 L15.99,14.82 C16.14,15.23 16.53,15.5 16.97,15.5 C17.7,15.5 18.21,14.76 17.94,14.08 L13.37,2.43 C13.14,1.87 12.6,1.5 12,1.5 C11.4,1.5 10.85,1.87 10.63,2.43 Z M9.62,10.5 L12,4.17 L14.38,10.5 L9.62,10.5 Z" id="path-1"></path>
    </defs>
    <g id="icon/editor/format_color_text_24px" stroke="none" stroke-width="1" fill="none" fill-rule="evenodd">
        <mask id="mask-2" fill="white">
            <use xlink:href="#path-1"></use>
        </mask>
        <g fill-rule="nonzero"></g>
        <g id="✱-/-Color-/-Icons-/-Black-/-Inactive" mask="url(#mask-2)" fill="#000000" fill-opacity="0.54">
            <rect id="Rectangle" x="0" y="0" width="24" height="24"></rect>
        </g>
    </g>
</svg>