<?xml version="1.0" encoding="UTF-8"?>
<svg width="24px" height="24px" viewBox="0 0 24 24" version="1.1" xmlns="http://www.w3.org/2000/svg" xmlns:xlink="http://www.w3.org/1999/xlink">
    <!-- Generator: Sketch 50 (54983) - http://www.bohemiancoding.com/sketch -->
    <title>icon/editor/format_line_spacing_24px_rounded</title>
    <desc>Created with Sketch.</desc>
    <defs>
        <path d="M7.1873092,7.005 C7.6373092,7.005 7.8573092,6.465 7.5373092,6.155 L5.2473092,3.855 C5.0473092,3.655 4.7373092,3.655 4.5373092,3.855 L2.2473092,6.155 C1.9373092,6.465 2.1573092,7.005 2.6073092,7.005 L3.8973092,7.005 L3.8973092,17.005 L2.6073092,17.005 C2.1573092,17.005 1.9373092,17.545 2.2573092,17.855 L4.5473092,20.145 C4.7473092,20.345 5.0573092,20.345 5.2573092,20.145 L7.5473092,17.855 C7.8573092,17.545 7.6373092,17.005 7.1873092,17.005 L5.8973092,17.005 L5.8973092,7.005 L7.1873092,7.005 Z M10.8973092,7.005 L20.8973092,7.005 C21.4473092,7.005 21.8973092,6.555 21.8973092,6.005 C21.8973092,5.455 21.4473092,5.005 20.8973092,5.005 L10.8973092,5.005 C10.3473092,5.005 9.8973092,5.455 9.8973092,6.005 C9.8973092,6.555 10.3473092,7.005 10.8973092,7.005 Z M20.8973092,17.005 L10.8973092,17.005 C10.3473092,17.005 9.8973092,17.455 9.8973092,18.005 C9.8973092,18.555 10.3473092,19.005 10.8973092,19.005 L20.8973092,19.005 C21.4473092,19.005 21.8973092,18.555 21.8973092,18.005 C21.8973092,17.455 21.4473092,17.005 20.8973092,17.005 Z M20.8973092,11.005 L10.8973092,11.005 C10.3473092,11.005 9.8973092,11.455 9.8973092,12.005 C9.8973092,12.555 10.3473092,13.005 10.8973092,13.005 L20.8973092,13.005 C21.4473092,13.005 21.8973092,12.555 21.8973092,12.005 C21.8973092,11.455 21.4473092,11.005 20.8973092,11.005 Z" id="path-1"></path>
    </defs>
    <g id="icon/editor/format_line_spacing_24px" stroke="none" stroke-width="1" fill="none" fill-rule="evenodd">
        <mask id="mask-2" fill="white">
            <use xlink:href="#path-1"></use>
        </mask>
        <g fill-rule="nonzero"></g>
        <g id="✱-/-Color-/-Icons-/-Black-/-Inactive" mask="url(#mask-2)" fill="#000000" fill-opacity="0.54">
            <rect id="Rectangle" x="0" y="0" width="24" height="24"></rect>
        </g>
    </g>
</svg>