<?xml version="1.0" encoding="UTF-8"?>
<svg width="24px" height="24px" viewBox="0 0 24 24" version="1.1" xmlns="http://www.w3.org/2000/svg" xmlns:xlink="http://www.w3.org/1999/xlink">
    <!-- Generator: Sketch 50 (54983) - http://www.bohemiancoding.com/sketch -->
    <title>icon/editor/format_textdirection_l_to_r_24px_rounded</title>
    <desc>Created with Sketch.</desc>
    <defs>
        <path d="M8.10436298,10.3542328 L8.10436298,14.3542328 C8.10436298,14.9042328 8.55436298,15.3542328 9.10436298,15.3542328 C9.65436298,15.3542328 10.104363,14.9042328 10.104363,14.3542328 L10.104363,4.35423279 L12.104363,4.35423279 L12.104363,14.3542328 C12.104363,14.9042328 12.554363,15.3542328 13.104363,15.3542328 C13.654363,15.3542328 14.104363,14.9042328 14.104363,14.3542328 L14.104363,4.35423279 L15.104363,4.35423279 C15.654363,4.35423279 16.104363,3.90423279 16.104363,3.35423279 C16.104363,2.80423279 15.654363,2.35423279 15.104363,2.35423279 L8.27436298,2.35423279 C6.18436298,2.35423279 4.32436298,3.88423279 4.12436298,5.96423279 C3.89436298,8.34423279 5.76436298,10.3542328 8.10436298,10.3542328 Z M19.754363,18.0042328 L16.964363,15.2142328 C16.644363,14.8942328 16.104363,15.1142328 16.104363,15.5642328 L16.104363,17.3542328 L5.10436298,17.3542328 C4.55436298,17.3542328 4.10436298,17.8042328 4.10436298,18.3542328 C4.10436298,18.9042328 4.55436298,19.3542328 5.10436298,19.3542328 L16.104363,19.3542328 L16.104363,21.1442328 C16.104363,21.5942328 16.644363,21.8142328 16.954363,21.4942328 L19.744363,18.7042328 C19.944363,18.5142328 19.944363,18.1942328 19.754363,18.0042328 Z" id="path-1"></path>
    </defs>
    <g id="icon/editor/format_textdirection_l_to_r_24px" stroke="none" stroke-width="1" fill="none" fill-rule="evenodd">
        <mask id="mask-2" fill="white">
            <use xlink:href="#path-1"></use>
        </mask>
        <g fill-rule="nonzero"></g>
        <g id="✱-/-Color-/-Icons-/-Black-/-Inactive" mask="url(#mask-2)" fill="#000000" fill-opacity="0.54">
            <rect id="Rectangle" x="0" y="0" width="24" height="24"></rect>
        </g>
    </g>
</svg>