<?xml version="1.0" encoding="UTF-8"?>
<svg width="24px" height="24px" viewBox="0 0 24 24" version="1.1" xmlns="http://www.w3.org/2000/svg" xmlns:xlink="http://www.w3.org/1999/xlink">
    <!-- Generator: Sketch 50 (54983) - http://www.bohemiancoding.com/sketch -->
    <title>icon/editor/functions_24px_rounded</title>
    <desc>Created with Sketch.</desc>
    <defs>
        <path d="M16.5,4 L7.56,4 C6.7,4 6,4.7 6,5.56 C6,5.84 6.12,6.11 6.32,6.3 L12.5,12 L6.32,17.7 C6.12,17.89 6,18.16 6,18.44 C6,19.3 6.7,20 7.56,20 L16.5,20 C17.33,20 18,19.33 18,18.5 C18,17.67 17.33,17 16.5,17 L11,17 L14.59,13.41 C15.37,12.63 15.37,11.36 14.59,10.58 L11,7 L16.5,7 C17.33,7 18,6.33 18,5.5 C18,4.67 17.33,4 16.5,4 Z" id="path-1"></path>
    </defs>
    <g id="icon/editor/functions_24px" stroke="none" stroke-width="1" fill="none" fill-rule="evenodd">
        <mask id="mask-2" fill="white">
            <use xlink:href="#path-1"></use>
        </mask>
        <g fill-rule="nonzero"></g>
        <g id="✱-/-Color-/-Icons-/-Black-/-Inactive" mask="url(#mask-2)" fill="#000000" fill-opacity="0.54">
            <rect id="Rectangle" x="0" y="0" width="24" height="24"></rect>
        </g>
    </g>
</svg>