<?xml version="1.0" encoding="UTF-8"?>
<svg width="24px" height="24px" viewBox="0 0 24 24" version="1.1" xmlns="http://www.w3.org/2000/svg" xmlns:xlink="http://www.w3.org/1999/xlink">
    <!-- Generator: Sketch 50 (54983) - http://www.bohemiancoding.com/sketch -->
    <title>icon/editor/highlight_24px_rounded</title>
    <desc>Created with Sketch.</desc>
    <defs>
        <path d="M6.2899928,14.29 L8.9999928,17 L8.9999928,21 C8.9999928,21.55 9.4499928,22 9.9999928,22 L13.9999928,22 C14.5499928,22 14.9999928,21.55 14.9999928,21 L14.9999928,17 L17.7099928,14.29 C17.8999928,14.1 17.9999928,13.85 17.9999928,13.58 L17.9999928,10 C17.9999928,9.45 17.5499928,9 16.9999928,9 L6.9999928,9 C6.4499928,9 5.9999928,9.45 5.9999928,10 L5.9999928,13.59 C5.9999928,13.85 6.1099928,14.11 6.2899928,14.29 Z M11.9999928,2 C12.5499928,2 12.9999928,2.45 12.9999928,3 L12.9999928,4 C12.9999928,4.55 12.5499928,5 11.9999928,5 C11.4499928,5 10.9999928,4.55 10.9999928,4 L10.9999928,3 C10.9999928,2.45 11.4499928,2 11.9999928,2 Z M4.2099928,5.17 C4.5999928,4.78 5.2299928,4.78 5.6299928,5.17 L6.3399928,5.88 C6.7299928,6.27 6.7299928,6.9 6.3399928,7.29 C5.9499928,7.68 5.3199928,7.68 4.9299928,7.29 L4.2099928,6.58 C4.02274013,6.39316847 3.9175072,6.13951764 3.9175072,5.875 C3.9175072,5.61048236 4.02274013,5.35683153 4.2099928,5.17 Z M17.6699928,5.88 L18.3799928,5.17 C18.7699928,4.78 19.3999928,4.78 19.7899928,5.17 C20.1799928,5.56 20.1799928,6.19 19.7899928,6.58 L19.0799928,7.29 C18.6899928,7.68 18.0599928,7.68 17.6699928,7.29 C17.4827401,7.10316847 17.3775072,6.84951764 17.3775072,6.585 C17.3775072,6.32048236 17.4827401,6.06683153 17.6699928,5.88 Z" id="path-1"></path>
    </defs>
    <g id="icon/editor/highlight_24px" stroke="none" stroke-width="1" fill="none" fill-rule="evenodd">
        <mask id="mask-2" fill="white">
            <use xlink:href="#path-1"></use>
        </mask>
        <g fill-rule="nonzero"></g>
        <g id="✱-/-Color-/-Icons-/-Black-/-Inactive" mask="url(#mask-2)" fill="#000000" fill-opacity="0.54">
            <rect id="Rectangle" x="0" y="0" width="24" height="24"></rect>
        </g>
    </g>
</svg>