<?xml version="1.0" encoding="UTF-8"?>
<svg width="24px" height="24px" viewBox="0 0 24 24" version="1.1" xmlns="http://www.w3.org/2000/svg" xmlns:xlink="http://www.w3.org/1999/xlink">
    <!-- Generator: Sketch 50 (54983) - http://www.bohemiancoding.com/sketch -->
    <title>icon/editor/insert_link_24px_rounded</title>
    <desc>Created with Sketch.</desc>
    <defs>
        <path d="M3.95578694,11.38 C4.23578694,9.91 5.61578694,8.9 7.11578694,8.9 L10.0457869,8.9 C10.5657869,8.9 10.9957869,8.47 10.9957869,7.95 C10.9957869,7.43 10.5657869,7 10.0457869,7 L7.21578694,7 C4.60578694,7 2.27578694,8.91 2.02578694,11.51 C1.73578694,14.49 4.07578694,17 6.99578694,17 L10.0457869,17 C10.5657869,17 10.9957869,16.57 10.9957869,16.05 C10.9957869,15.53 10.5657869,15.1 10.0457869,15.1 L6.99578694,15.1 C5.08578694,15.1 3.57578694,13.36 3.95578694,11.38 Z M8.99578694,13 L14.9957869,13 C15.5457869,13 15.9957869,12.55 15.9957869,12 C15.9957869,11.45 15.5457869,11 14.9957869,11 L8.99578694,11 C8.44578694,11 7.99578694,11.45 7.99578694,12 C7.99578694,12.55 8.44578694,13 8.99578694,13 Z M16.7757869,7 L13.9457869,7 C13.4257869,7 12.9957869,7.43 12.9957869,7.95 C12.9957869,8.47 13.4257869,8.9 13.9457869,8.9 L16.8757869,8.9 C18.3757869,8.9 19.7557869,9.91 20.0357869,11.38 C20.4157869,13.36 18.9057869,15.1 16.9957869,15.1 L13.9457869,15.1 C13.4257869,15.1 12.9957869,15.53 12.9957869,16.05 C12.9957869,16.57 13.4257869,17 13.9457869,17 L16.9957869,17 C19.9157869,17 22.2557869,14.49 21.9757869,11.51 C21.7257869,8.91 19.3857869,7 16.7757869,7 Z" id="path-1"></path>
    </defs>
    <g id="icon/editor/insert_link_24px" stroke="none" stroke-width="1" fill="none" fill-rule="evenodd">
        <mask id="mask-2" fill="white">
            <use xlink:href="#path-1"></use>
        </mask>
        <g fill-rule="nonzero"></g>
        <g id="✱-/-Color-/-Icons-/-Black-/-Inactive" mask="url(#mask-2)" fill="#000000" fill-opacity="0.54">
            <rect id="Rectangle" x="0" y="0" width="24" height="24"></rect>
        </g>
    </g>
</svg>