<?xml version="1.0" encoding="UTF-8"?>
<svg width="24px" height="24px" viewBox="0 0 24 24" version="1.1" xmlns="http://www.w3.org/2000/svg" xmlns:xlink="http://www.w3.org/1999/xlink">
    <!-- Generator: Sketch 50 (54983) - http://www.bohemiancoding.com/sketch -->
    <title>icon/editor/insert_invitation_24px_rounded</title>
    <desc>Created with Sketch.</desc>
    <defs>
        <path d="M16,13 L13,13 C12.45,13 12,13.45 12,14 L12,17 C12,17.55 12.45,18 13,18 L16,18 C16.55,18 17,17.55 17,17 L17,14 C17,13.45 16.55,13 16,13 Z M16,3 L16,4 L8,4 L8,3 C8,2.45 7.55,2 7,2 C6.45,2 6,2.45 6,3 L6,4 L5,4 C3.89,4 3.01,4.9 3.01,6 L3,20 C3,21.1 3.89,22 5,22 L19,22 C20.1,22 21,21.1 21,20 L21,6 C21,4.9 20.1,4 19,4 L18,4 L18,3 C18,2.45 17.55,2 17,2 C16.45,2 16,2.45 16,3 Z M18,20 L6,20 C5.45,20 5,19.55 5,19 L5,9 L19,9 L19,19 C19,19.55 18.55,20 18,20 Z" id="path-1"></path>
    </defs>
    <g id="icon/editor/insert_invitation_24px" stroke="none" stroke-width="1" fill="none" fill-rule="evenodd">
        <mask id="mask-2" fill="white">
            <use xlink:href="#path-1"></use>
        </mask>
        <g fill-rule="nonzero"></g>
        <g id="✱-/-Color-/-Icons-/-Black-/-Inactive" mask="url(#mask-2)" fill="#000000" fill-opacity="0.54">
            <rect id="Rectangle" x="0" y="0" width="24" height="24"></rect>
        </g>
    </g>
</svg>