<?xml version="1.0" encoding="UTF-8"?>
<svg width="24px" height="24px" viewBox="0 0 24 24" version="1.1" xmlns="http://www.w3.org/2000/svg" xmlns:xlink="http://www.w3.org/1999/xlink">
    <!-- Generator: Sketch 50 (54983) - http://www.bohemiancoding.com/sketch -->
    <title>icon/editor/multiline_chart_24px_rounded</title>
    <desc>Created with Sketch.</desc>
    <defs>
        <path d="M21.337259,6.73125 L21.277259,6.67125 C20.887259,6.28125 20.247259,6.30125 19.887259,6.71125 L17.707259,9.16125 C15.657259,6.85125 12.807259,5.45125 9.58725903,5.45125 C7.08725903,5.45125 4.75725903,6.32125 2.83725903,7.75125 C2.36725903,8.10125 2.31725903,8.79125 2.72725903,9.20125 L2.78725903,9.26125 C3.11725903,9.59125 3.64725903,9.65125 4.01725903,9.37125 C5.60725903,8.17125 7.51725903,7.45125 9.58725903,7.45125 C12.327259,7.45125 14.677259,8.71125 16.357259,10.69125 L13.477259,13.93125 L10.187259,10.64125 C10.0004275,10.4539973 9.74677667,10.3487644 9.48225903,10.3487644 C9.21774138,10.3487644 8.96409055,10.4539973 8.77725903,10.64125 L2.65725903,16.77125 C2.28725903,17.14125 2.28725903,17.75125 2.65725903,18.12125 L2.80725903,18.27125 C3.17725903,18.64125 3.78725903,18.64125 4.15725903,18.27125 L9.47725903,12.94125 L12.727259,16.19125 C13.137259,16.60125 13.797259,16.58125 14.177259,16.15125 L17.527259,12.39125 C18.147259,13.51125 18.607259,14.78125 18.847259,16.12125 C18.927259,16.59125 19.317259,16.94125 19.797259,16.94125 L19.887259,16.94125 C20.487259,16.94125 20.937259,16.39125 20.827259,15.80125 C20.507259,13.95125 19.847259,12.26125 18.937259,10.80125 L21.377259,8.05125 C21.717259,7.67125 21.697259,7.09125 21.337259,6.73125 Z" id="path-1"></path>
    </defs>
    <g id="icon/editor/multiline_chart_24px" stroke="none" stroke-width="1" fill="none" fill-rule="evenodd">
        <mask id="mask-2" fill="white">
            <use xlink:href="#path-1"></use>
        </mask>
        <g fill-rule="nonzero"></g>
        <g id="✱-/-Color-/-Icons-/-Black-/-Inactive" mask="url(#mask-2)" fill="#000000" fill-opacity="0.54">
            <rect id="Rectangle" x="0" y="0" width="24" height="24"></rect>
        </g>
    </g>
</svg>