<?xml version="1.0" encoding="UTF-8"?>
<svg width="24px" height="24px" viewBox="0 0 24 24" version="1.1" xmlns="http://www.w3.org/2000/svg" xmlns:xlink="http://www.w3.org/1999/xlink">
    <!-- Generator: Sketch 50 (54983) - http://www.bohemiancoding.com/sketch -->
    <title>icon/editor/publish_24px_rounded</title>
    <desc>Created with Sketch.</desc>
    <defs>
        <path d="M5,5 C5,5.55 5.45,6 6,6 L18,6 C18.55,6 19,5.55 19,5 C19,4.45 18.55,4 18,4 L6,4 C5.45,4 5,4.45 5,5 Z M7.41,14 L9,14 L9,19 C9,19.55 9.45,20 10,20 L14,20 C14.55,20 15,19.55 15,19 L15,14 L16.59,14 C17.48,14 17.93,12.92 17.3,12.29 L12.71,7.7 C12.5231685,7.51274733 12.2695176,7.40751439 12.005,7.40751439 C11.7404824,7.40751439 11.4868315,7.51274733 11.3,7.7 L6.71,12.29 C6.08,12.92 6.52,14 7.41,14 Z" id="path-1"></path>
    </defs>
    <g id="icon/editor/publish_24px" stroke="none" stroke-width="1" fill="none" fill-rule="evenodd">
        <mask id="mask-2" fill="white">
            <use xlink:href="#path-1"></use>
        </mask>
        <g fill-rule="nonzero"></g>
        <g id="✱-/-Color-/-Icons-/-Black-/-Inactive" mask="url(#mask-2)" fill="#000000" fill-opacity="0.54">
            <rect id="Rectangle" x="0" y="0" width="24" height="24"></rect>
        </g>
    </g>
</svg>