<?xml version="1.0" encoding="UTF-8"?>
<svg width="24px" height="24px" viewBox="0 0 24 24" version="1.1" xmlns="http://www.w3.org/2000/svg" xmlns:xlink="http://www.w3.org/1999/xlink">
    <!-- Generator: Sketch 50 (54983) - http://www.bohemiancoding.com/sketch -->
    <title>icon/editor/short_text_24px_rounded</title>
    <desc>Created with Sketch.</desc>
    <defs>
        <path d="M5,9 L19,9 C19.55,9 20,9.45 20,10 C20,10.55 19.55,11 19,11 L5,11 C4.45,11 4,10.55 4,10 C4,9.45 4.45,9 5,9 Z M5,13 L13,13 C13.55,13 14,13.45 14,14 C14,14.55 13.55,15 13,15 L5,15 C4.45,15 4,14.55 4,14 C4,13.45 4.45,13 5,13 Z" id="path-1"></path>
    </defs>
    <g id="icon/editor/short_text_24px" stroke="none" stroke-width="1" fill="none" fill-rule="evenodd">
        <mask id="mask-2" fill="white">
            <use xlink:href="#path-1"></use>
        </mask>
        <g fill-rule="nonzero"></g>
        <g id="✱-/-Color-/-Icons-/-Black-/-Inactive" mask="url(#mask-2)" fill="#000000" fill-opacity="0.54">
            <rect id="Rectangle" x="0" y="0" width="24" height="24"></rect>
        </g>
    </g>
</svg>