<?xml version="1.0" encoding="UTF-8"?>
<svg width="24px" height="24px" viewBox="0 0 24 24" version="1.1" xmlns="http://www.w3.org/2000/svg" xmlns:xlink="http://www.w3.org/1999/xlink">
    <!-- Generator: Sketch 50 (54983) - http://www.bohemiancoding.com/sketch -->
    <title>icon/editor/strikethrough_s_24px_rounded</title>
    <desc>Created with Sketch.</desc>
    <defs>
        <path d="M14.59,9.015 C14.59,8.705 14.54,8.425 14.44,8.165 C14.35,7.895 14.2,7.675 14,7.485 C13.8,7.295 13.55,7.155 13.25,7.045 C12.95,6.945 12.59,6.885 12.19,6.885 C11.8,6.885 11.45,6.925 11.16,7.015 C10.87,7.105 10.63,7.225 10.44,7.375 C10.25,7.535 10.1,7.715 10,7.925 C9.9,8.135 9.85,8.355 9.85,8.585 C9.85,9.065 10.1,9.465 10.59,9.795 C10.97,10.045 11.36,10.275 12,10.495 L7.39,10.495 C7.34,10.415 7.28,10.325 7.24,10.245 C6.98,9.765 6.85,9.215 6.85,8.575 C6.85,7.965 6.98,7.415 7.25,6.905 C7.51,6.405 7.88,5.975 8.36,5.615 C8.84,5.265 9.41,4.985 10.06,4.785 C10.72,4.595 11.45,4.495 12.24,4.495 C13.05,4.495 13.78,4.605 14.45,4.835 C15.11,5.055 15.68,5.375 16.14,5.775 C16.61,6.175 16.97,6.655 17.22,7.205 C17.47,7.755 17.6,8.355 17.6,9.015 L14.59,9.015 Z M20,11.495 L4,11.495 C3.45,11.495 3,11.945 3,12.495 C3,13.045 3.45,13.495 4,13.495 L12.62,13.495 C12.8,13.565 13.02,13.635 13.17,13.695 C13.54,13.865 13.83,14.035 14.04,14.205 C14.25,14.375 14.39,14.565 14.47,14.775 C14.54,14.975 14.58,15.205 14.58,15.465 C14.58,15.695 14.53,15.915 14.44,16.125 C14.35,16.325 14.21,16.505 14.02,16.655 C13.83,16.805 13.6,16.915 13.31,17.005 C13.02,17.085 12.68,17.135 12.3,17.135 C11.87,17.135 11.47,17.095 11.12,17.005 C10.77,16.915 10.46,16.775 10.21,16.585 C9.96,16.395 9.76,16.145 9.62,15.835 C9.48,15.525 9.37,15.075 9.37,14.625 L6.4,14.625 C6.4,15.175 6.48,15.755 6.64,16.205 C6.8,16.655 7.01,17.055 7.29,17.415 C7.57,17.765 7.89,18.075 8.27,18.335 C8.64,18.595 9.05,18.815 9.49,18.985 C9.93,19.155 10.39,19.285 10.87,19.375 C11.35,19.455 11.83,19.505 12.31,19.505 C13.11,19.505 13.84,19.415 14.49,19.225 C15.14,19.035 15.7,18.775 16.16,18.435 C16.62,18.095 16.98,17.665 17.23,17.165 C17.48,16.665 17.61,16.095 17.61,15.455 C17.61,14.855 17.51,14.315 17.3,13.845 C17.25,13.735 17.19,13.615 17.13,13.515 L20,13.515 C20.55,13.515 21,13.065 21,12.515 L21,12.495 C21,11.945 20.55,11.495 20,11.495 Z" id="path-1"></path>
    </defs>
    <g id="icon/editor/strikethrough_s_24px" stroke="none" stroke-width="1" fill="none" fill-rule="evenodd">
        <mask id="mask-2" fill="white">
            <use xlink:href="#path-1"></use>
        </mask>
        <g fill-rule="nonzero"></g>
        <g id="✱-/-Color-/-Icons-/-Black-/-Inactive" mask="url(#mask-2)" fill="#000000" fill-opacity="0.54">
            <rect id="Rectangle" x="0" y="0" width="24" height="24"></rect>
        </g>
    </g>
</svg>