<?xml version="1.0" encoding="UTF-8"?>
<svg width="24px" height="24px" viewBox="0 0 24 24" version="1.1" xmlns="http://www.w3.org/2000/svg" xmlns:xlink="http://www.w3.org/1999/xlink">
    <!-- Generator: Sketch 50 (54983) - http://www.bohemiancoding.com/sketch -->
    <title>icon/editor/text_fields_24px_rounded</title>
    <desc>Created with Sketch.</desc>
    <defs>
        <path d="M2.5,6 C2.5,6.83 3.17,7.5 4,7.5 L7.5,7.5 L7.5,18 C7.5,18.83 8.17,19.5 9,19.5 C9.83,19.5 10.5,18.83 10.5,18 L10.5,7.5 L14,7.5 C14.83,7.5 15.5,6.83 15.5,6 C15.5,5.17 14.83,4.5 14,4.5 L4,4.5 C3.17,4.5 2.5,5.17 2.5,6 Z M20,9.5 L14,9.5 C13.17,9.5 12.5,10.17 12.5,11 C12.5,11.83 13.17,12.5 14,12.5 L15.5,12.5 L15.5,18 C15.5,18.83 16.17,19.5 17,19.5 C17.83,19.5 18.5,18.83 18.5,18 L18.5,12.5 L20,12.5 C20.83,12.5 21.5,11.83 21.5,11 C21.5,10.17 20.83,9.5 20,9.5 Z" id="path-1"></path>
    </defs>
    <g id="icon/editor/text_fields_24px" stroke="none" stroke-width="1" fill="none" fill-rule="evenodd">
        <mask id="mask-2" fill="white">
            <use xlink:href="#path-1"></use>
        </mask>
        <g fill-rule="nonzero"></g>
        <g id="✱-/-Color-/-Icons-/-Black-/-Inactive" mask="url(#mask-2)" fill="#000000" fill-opacity="0.54">
            <rect id="Rectangle" x="0" y="0" width="24" height="24"></rect>
        </g>
    </g>
</svg>