<?xml version="1.0" encoding="UTF-8"?>
<svg width="24px" height="24px" viewBox="0 0 24 24" version="1.1" xmlns="http://www.w3.org/2000/svg" xmlns:xlink="http://www.w3.org/1999/xlink">
    <!-- Generator: Sketch 50 (54983) - http://www.bohemiancoding.com/sketch -->
    <title>icon/editor/vertical_align_top_24px_rounded</title>
    <desc>Created with Sketch.</desc>
    <defs>
        <path d="M9.21,11 L11,11 L11,20 C11,20.55 11.45,21 12,21 C12.55,21 13,20.55 13,20 L13,11 L14.79,11 C15.24,11 15.46,10.46 15.14,10.15 L12.35,7.36 C12.15,7.16 11.84,7.16 11.64,7.36 L8.85,10.15 C8.54,10.46 8.76,11 9.21,11 Z M4,4 C4,4.55 4.45,5 5,5 L19,5 C19.55,5 20,4.55 20,4 C20,3.45 19.55,3 19,3 L5,3 C4.45,3 4,3.45 4,4 Z" id="path-1"></path>
    </defs>
    <g id="icon/editor/vertical_align_top_24px" stroke="none" stroke-width="1" fill="none" fill-rule="evenodd">
        <mask id="mask-2" fill="white">
            <use xlink:href="#path-1"></use>
        </mask>
        <g fill-rule="nonzero"></g>
        <g id="✱-/-Color-/-Icons-/-Black-/-Inactive" mask="url(#mask-2)" fill="#000000" fill-opacity="0.54">
            <rect id="Rectangle" x="0" y="0" width="24" height="24"></rect>
        </g>
    </g>
</svg>