<?xml version="1.0" encoding="UTF-8"?>
<svg width="24px" height="24px" viewBox="0 0 24 24" version="1.1" xmlns="http://www.w3.org/2000/svg" xmlns:xlink="http://www.w3.org/1999/xlink">
    <!-- Generator: Sketch 50 (54983) - http://www.bohemiancoding.com/sketch -->
    <title>icon/editor/vertical_align_bottom_24px_rounded</title>
    <desc>Created with Sketch.</desc>
    <defs>
        <path d="M14.79,13 L13,13 L13,4 C13,3.45 12.55,3 12,3 C11.45,3 11,3.45 11,4 L11,13 L9.21,13 C8.76,13 8.54,13.54 8.86,13.85 L11.65,16.64 C11.85,16.84 12.16,16.84 12.36,16.64 L15.15,13.85 C15.46,13.54 15.24,13 14.79,13 Z M4,20 C4,20.55 4.45,21 5,21 L19,21 C19.55,21 20,20.55 20,20 C20,19.45 19.55,19 19,19 L5,19 C4.45,19 4,19.45 4,20 Z" id="path-1"></path>
    </defs>
    <g id="icon/editor/vertical_align_bottom_24px" stroke="none" stroke-width="1" fill="none" fill-rule="evenodd">
        <mask id="mask-2" fill="white">
            <use xlink:href="#path-1"></use>
        </mask>
        <g fill-rule="nonzero"></g>
        <g id="✱-/-Color-/-Icons-/-Black-/-Inactive" mask="url(#mask-2)" fill="#000000" fill-opacity="0.54">
            <rect id="Rectangle" x="0" y="0" width="24" height="24"></rect>
        </g>
    </g>
</svg>