<?xml version="1.0" encoding="UTF-8"?>
<svg width="24px" height="24px" viewBox="0 0 24 24" version="1.1" xmlns="http://www.w3.org/2000/svg" xmlns:xlink="http://www.w3.org/1999/xlink">
    <!-- Generator: Sketch 50 (54983) - http://www.bohemiancoding.com/sketch -->
    <title>icon/editor/wrap_text_24px_rounded</title>
    <desc>Created with Sketch.</desc>
    <defs>
        <path d="M4.50041527,6.35030269 L18.5004153,6.35030269 C19.0504153,6.35030269 19.5004153,5.90030269 19.5004153,5.35030269 C19.5004153,4.80030269 19.0504153,4.35030269 18.5004153,4.35030269 L4.50041527,4.35030269 C3.95041527,4.35030269 3.50041527,4.80030269 3.50041527,5.35030269 C3.50041527,5.90030269 3.95041527,6.35030269 4.50041527,6.35030269 Z M16.3304153,10.3503027 L4.50041527,10.3503027 C3.95041527,10.3503027 3.50041527,10.8003027 3.50041527,11.3503027 C3.50041527,11.9003027 3.95041527,12.3503027 4.50041527,12.3503027 L16.6304153,12.3503027 C17.6304153,12.3503027 18.5604153,13.0203027 18.7204153,14.0103027 C18.9304153,15.2603027 17.9604153,16.3503027 16.7504153,16.3503027 L14.5004153,16.3503027 L14.5004153,15.5603027 C14.5004153,15.1103027 13.9604153,14.8903027 13.6504153,15.2103027 L11.8604153,17.0003027 C11.6604153,17.2003027 11.6604153,17.5103027 11.8604153,17.7103027 L13.6504153,19.5003027 C13.9704153,19.8203027 14.5004153,19.5903027 14.5004153,19.1503027 L14.5004153,18.3503027 L16.5004153,18.3503027 C18.8404153,18.3503027 20.7104153,16.3403027 20.4804153,13.9603027 C20.2804153,11.8803027 18.4204153,10.3503027 16.3304153,10.3503027 Z M8.50041527,16.3503027 L4.50041527,16.3503027 C3.95041527,16.3503027 3.50041527,16.8003027 3.50041527,17.3503027 C3.50041527,17.9003027 3.95041527,18.3503027 4.50041527,18.3503027 L8.50041527,18.3503027 C9.05041527,18.3503027 9.50041527,17.9003027 9.50041527,17.3503027 C9.50041527,16.8003027 9.05041527,16.3503027 8.50041527,16.3503027 Z" id="path-1"></path>
    </defs>
    <g id="icon/editor/wrap_text_24px" stroke="none" stroke-width="1" fill="none" fill-rule="evenodd">
        <mask id="mask-2" fill="white">
            <use xlink:href="#path-1"></use>
        </mask>
        <g fill-rule="nonzero"></g>
        <g id="✱-/-Color-/-Icons-/-Black-/-Inactive" mask="url(#mask-2)" fill="#000000" fill-opacity="0.54">
            <rect id="Rectangle" x="0" y="0" width="24" height="24"></rect>
        </g>
    </g>
</svg>