<?xml version="1.0" encoding="UTF-8"?>
<svg width="24px" height="24px" viewBox="0 0 24 24" version="1.1" xmlns="http://www.w3.org/2000/svg" xmlns:xlink="http://www.w3.org/1999/xlink">
    <!-- Generator: Sketch 50 (54983) - http://www.bohemiancoding.com/sketch -->
    <title>icon/av/4k_24px_sharp</title>
    <desc>Created with Sketch.</desc>
    <defs>
        <path d="M21,3 L3,3 L3,21 L21,21 L21,3 Z M12,13.51 L11,13.51 L11,15 L9.5,15 L9.5,13.5 L6.5,13.5 L6.5,9 L8,9 L8,12 L9.5,12 L9.5,9 L11,9 L11,12 L12,12 L12,13.51 Z M18.2,15 L16.5,15 L14.5,12 L14.5,15 L13,15 L13,9 L14.5,9 L14.5,12 L16.5,9 L18.2,9 L16.2,12 L18.2,15 Z" id="path-1"></path>
    </defs>
    <g id="icon/av/4k_24px" stroke="none" stroke-width="1" fill="none" fill-rule="evenodd">
        <mask id="mask-2" fill="white">
            <use xlink:href="#path-1"></use>
        </mask>
        <g fill-rule="nonzero"></g>
        <g id="✱-/-Color-/-Icons-/-Black-/-Inactive" mask="url(#mask-2)" fill="#000000" fill-opacity="0.54">
            <rect id="Rectangle" x="0" y="0" width="24" height="24"></rect>
        </g>
    </g>
</svg>