<?xml version="1.0" encoding="UTF-8"?>
<svg width="24px" height="24px" viewBox="0 0 24 24" version="1.1" xmlns="http://www.w3.org/2000/svg" xmlns:xlink="http://www.w3.org/1999/xlink">
    <!-- Generator: Sketch 50 (54983) - http://www.bohemiancoding.com/sketch -->
    <title>icon/av/closed_caption_24px_sharp</title>
    <desc>Created with Sketch.</desc>
    <defs>
        <path d="M21,4 L3,4 L3,20 L21,20 L21,4 Z M11,11 L9.5,11 L9.5,10.5 L7.5,10.5 L7.5,13.5 L9.5,13.5 L9.5,13 L11,13 L11,15 L6,15 L6,9 L11,9 L11,11 Z M18,11 L16.5,11 L16.5,10.5 L14.5,10.5 L14.5,13.5 L16.5,13.5 L16.5,13 L18,13 L18,15 L13,15 L13,9 L18,9 L18,11 Z" id="path-1"></path>
    </defs>
    <g id="icon/av/closed_caption_24px" stroke="none" stroke-width="1" fill="none" fill-rule="evenodd">
        <mask id="mask-2" fill="white">
            <use xlink:href="#path-1"></use>
        </mask>
        <g fill-rule="nonzero"></g>
        <g id="✱-/-Color-/-Icons-/-Black-/-Inactive" mask="url(#mask-2)" fill="#000000" fill-opacity="0.54">
            <rect id="Rectangle" x="0" y="0" width="24" height="24"></rect>
        </g>
    </g>
</svg>