<?xml version="1.0" encoding="UTF-8"?>
<svg width="24px" height="24px" viewBox="0 0 24 24" version="1.1" xmlns="http://www.w3.org/2000/svg" xmlns:xlink="http://www.w3.org/1999/xlink">
    <!-- Generator: Sketch 50 (54983) - http://www.bohemiancoding.com/sketch -->
    <title>icon/av/fiber_smart_record_24px_sharp</title>
    <desc>Created with Sketch.</desc>
    <defs>
        <path d="M9,4 C4.581722,4 1,7.581722 1,12 C1,16.418278 4.581722,20 9,20 C13.418278,20 17,16.418278 17,12 C17,7.581722 13.418278,4 9,4 Z M17,4.26 L17,6.35 C19.33,7.17 21,9.39 21,12 C21,14.61 19.33,16.83 17,17.65 L17,19.74 C20.45,18.85 23,15.73 23,12 C23,8.27 20.45,5.15 17,4.26 Z" id="path-1"></path>
    </defs>
    <g id="icon/av/fiber_smart_record_24px" stroke="none" stroke-width="1" fill="none" fill-rule="evenodd">
        <mask id="mask-2" fill="white">
            <use xlink:href="#path-1"></use>
        </mask>
        <g fill-rule="nonzero"></g>
        <g id="✱-/-Color-/-Icons-/-Black-/-Inactive" mask="url(#mask-2)" fill="#000000" fill-opacity="0.54">
            <rect id="Rectangle" x="0" y="0" width="24" height="24"></rect>
        </g>
    </g>
</svg>