<?xml version="1.0" encoding="UTF-8"?>
<svg width="24px" height="24px" viewBox="0 0 24 24" version="1.1" xmlns="http://www.w3.org/2000/svg" xmlns:xlink="http://www.w3.org/1999/xlink">
    <!-- Generator: Sketch 50 (54983) - http://www.bohemiancoding.com/sketch -->
    <title>icon/av/fiber_pin_24px_sharp</title>
    <desc>Created with Sketch.</desc>
    <defs>
        <path d="M5.5,10.5 L7.5,10.5 L7.5,11.5 L5.5,11.5 L5.5,10.5 Z M22,4 L2,4 L2,20 L22,20 L22,4 Z M9,13 L5.5,13 L5.5,15 L4,15 L4,9 L9,9 L9,13 Z M12.5,15 L11,15 L11,9 L12.5,9 L12.5,15 Z M20,15 L18.8,15 L16.25,11.5 L16.25,15 L15,15 L15,9 L16.25,9 L18.75,12.5 L18.75,9 L20,9 L20,15 Z" id="path-1"></path>
    </defs>
    <g id="icon/av/fiber_pin_24px" stroke="none" stroke-width="1" fill="none" fill-rule="evenodd">
        <mask id="mask-2" fill="white">
            <use xlink:href="#path-1"></use>
        </mask>
        <g fill-rule="nonzero"></g>
        <g id="✱-/-Color-/-Icons-/-Black-/-Inactive" mask="url(#mask-2)" fill="#000000" fill-opacity="0.54">
            <rect id="Rectangle" x="0" y="0" width="24" height="24"></rect>
        </g>
    </g>
</svg>