<?xml version="1.0" encoding="UTF-8"?>
<svg width="24px" height="24px" viewBox="0 0 24 24" version="1.1" xmlns="http://www.w3.org/2000/svg" xmlns:xlink="http://www.w3.org/1999/xlink">
    <!-- Generator: Sketch 50 (54983) - http://www.bohemiancoding.com/sketch -->
    <title>icon/av/hearing_24px_sharp</title>
    <desc>Created with Sketch.</desc>
    <defs>
        <path d="M17,20.39 C16.71,20.39 16.44,20.33 16.24,20.24 C15.53,19.87 15.03,19.36 14.53,17.86 C14.02,16.3 13.06,15.57 12.14,14.86 C11.35,14.25 10.53,13.62 9.82,12.33 C9.29,11.37 9,10.32 9,9.39 C9,6.59 11.2,4.39 14,4.39 C16.8,4.39 19,6.59 19,9.39 L21,9.39 C21,5.46 17.93,2.39 14,2.39 C10.07,2.39 7,5.46 7,9.39 C7,10.65 7.38,12.04 8.07,13.29 C8.98,14.94 10.05,15.77 10.92,16.44 C11.73,17.06 12.31,17.51 12.63,18.49 C13.23,20.31 14,21.33 15.36,22.04 C15.87,22.27 16.43,22.39 17,22.39 C19.21,22.39 21,20.6 21,18.39 L19,18.39 C19,19.49 18.1,20.39 17,20.39 Z M7.64,3.03 L6.22,1.61 C4.23,3.6 3,6.35 3,9.39 C3,12.43 4.23,15.18 6.22,17.17 L7.63,15.76 C6.01,14.13 5,11.88 5,9.39 C5,6.9 6.01,4.65 7.64,3.03 Z M11.5,9.39 C11.5,10.77 12.62,11.89 14,11.89 C15.38,11.89 16.5,10.77 16.5,9.39 C16.5,8.01 15.38,6.89 14,6.89 C12.62,6.89 11.5,8.01 11.5,9.39 Z" id="path-1"></path>
    </defs>
    <g id="icon/av/hearing_24px" stroke="none" stroke-width="1" fill="none" fill-rule="evenodd">
        <mask id="mask-2" fill="white">
            <use xlink:href="#path-1"></use>
        </mask>
        <g fill-rule="nonzero"></g>
        <g id="✱-/-Color-/-Icons-/-Black-/-Inactive" mask="url(#mask-2)" fill="#000000" fill-opacity="0.54">
            <rect id="Rectangle" x="0" y="0" width="24" height="24"></rect>
        </g>
    </g>
</svg>