<?xml version="1.0" encoding="UTF-8"?>
<svg width="24px" height="24px" viewBox="0 0 24 24" version="1.1" xmlns="http://www.w3.org/2000/svg" xmlns:xlink="http://www.w3.org/1999/xlink">
    <!-- Generator: Sketch 50 (54983) - http://www.bohemiancoding.com/sketch -->
    <title>icon/av/library_music_24px_sharp</title>
    <desc>Created with Sketch.</desc>
    <defs>
        <path d="M22,2 L6,2 L6,18 L22,18 L22,2 Z M18,7 L15,7 L15,12.5 C15,13.88 13.88,15 12.5,15 C11.12,15 10,13.88 10,12.5 C10,11.12 11.12,10 12.5,10 C13.07,10 13.58,10.19 14,10.51 L14,5 L18,5 L18,7 Z M4,6 L2,6 L2,22 L18,22 L18,20 L4,20 L4,6 Z" id="path-1"></path>
    </defs>
    <g id="icon/av/library_music_24px" stroke="none" stroke-width="1" fill="none" fill-rule="evenodd">
        <mask id="mask-2" fill="white">
            <use xlink:href="#path-1"></use>
        </mask>
        <g fill-rule="nonzero"></g>
        <g id="✱-/-Color-/-Icons-/-Black-/-Inactive" mask="url(#mask-2)" fill="#000000" fill-opacity="0.54">
            <rect id="Rectangle" x="0" y="0" width="24" height="24"></rect>
        </g>
    </g>
</svg>