<?xml version="1.0" encoding="UTF-8"?>
<svg width="24px" height="24px" viewBox="0 0 24 24" version="1.1" xmlns="http://www.w3.org/2000/svg" xmlns:xlink="http://www.w3.org/1999/xlink">
    <!-- Generator: Sketch 50 (54983) - http://www.bohemiancoding.com/sketch -->
    <title>icon/av/new_releases_24px_sharp</title>
    <desc>Created with Sketch.</desc>
    <defs>
        <path d="M23,11.995 L20.56,9.215 L20.9,5.535 L17.29,4.715 L15.4,1.535 L12,2.995 L8.6,1.535 L6.71,4.715 L3.1,5.525 L3.44,9.205 L1,11.995 L3.44,14.775 L3.1,18.465 L6.71,19.285 L8.6,22.465 L12,20.995 L15.4,22.455 L17.29,19.275 L20.9,18.455 L20.56,14.775 L23,11.995 Z M13,16.995 L11,16.995 L11,14.995 L13,14.995 L13,16.995 Z M13,12.995 L11,12.995 L11,6.995 L13,6.995 L13,12.995 Z" id="path-1"></path>
    </defs>
    <g id="icon/av/new_releases_24px" stroke="none" stroke-width="1" fill="none" fill-rule="evenodd">
        <mask id="mask-2" fill="white">
            <use xlink:href="#path-1"></use>
        </mask>
        <g fill-rule="nonzero"></g>
        <g id="✱-/-Color-/-Icons-/-Black-/-Inactive" mask="url(#mask-2)" fill="#000000" fill-opacity="0.54">
            <rect id="Rectangle" x="0" y="0" width="24" height="24"></rect>
        </g>
    </g>
</svg>