<?xml version="1.0" encoding="UTF-8"?>
<svg width="24px" height="24px" viewBox="0 0 24 24" version="1.1" xmlns="http://www.w3.org/2000/svg" xmlns:xlink="http://www.w3.org/1999/xlink">
    <!-- Generator: Sketch 50 (54983) - http://www.bohemiancoding.com/sketch -->
    <title>icon/av/queue_music_24px_sharp</title>
    <desc>Created with Sketch.</desc>
    <defs>
        <path d="M14.5,5 L2.5,5 L2.5,7 L14.5,7 L14.5,5 Z M14.5,9 L2.5,9 L2.5,11 L14.5,11 L14.5,9 Z M2.5,15 L10.5,15 L10.5,13 L2.5,13 L2.5,15 Z M16.5,5 L16.5,13.18 C16.19,13.07 15.85,13 15.5,13 C13.84,13 12.5,14.34 12.5,16 C12.5,17.66 13.84,19 15.5,19 C17.16,19 18.5,17.66 18.5,16 L18.5,7 L21.5,7 L21.5,5 L16.5,5 Z" id="path-1"></path>
    </defs>
    <g id="icon/av/queue_music_24px" stroke="none" stroke-width="1" fill="none" fill-rule="evenodd">
        <mask id="mask-2" fill="white">
            <use xlink:href="#path-1"></use>
        </mask>
        <g fill-rule="nonzero"></g>
        <g id="✱-/-Color-/-Icons-/-Black-/-Inactive" mask="url(#mask-2)" fill="#000000" fill-opacity="0.54">
            <rect id="Rectangle" x="0" y="0" width="24" height="24"></rect>
        </g>
    </g>
</svg>