<?xml version="1.0" encoding="UTF-8"?>
<svg width="24px" height="24px" viewBox="0 0 24 24" version="1.1" xmlns="http://www.w3.org/2000/svg" xmlns:xlink="http://www.w3.org/1999/xlink">
    <!-- Generator: Sketch 50 (54983) - http://www.bohemiancoding.com/sketch -->
    <title>icon/av/queue_play_next_24px_sharp</title>
    <desc>Created with Sketch.</desc>
    <defs>
        <path d="M22.5,2.25 L0.5,2.25 L0.5,18.25 L7.5,18.25 L7.5,20.25 L15.5,20.25 L15.5,18.25 L17.5,18.25 L17.5,16.25 L2.5,16.25 L2.5,4.25 L20.5,4.25 L20.5,12.25 L22.5,12.25 L22.5,2.25 Z M12.5,9.25 L12.5,6.25 L10.5,6.25 L10.5,9.25 L7.5,9.25 L7.5,11.25 L10.5,11.25 L10.5,14.25 L12.5,14.25 L12.5,11.25 L15.5,11.25 L15.5,9.25 L12.5,9.25 Z M23.5,17.25 L19,21.75 L17.5,20.25 L20.5,17.25 L17.5,14.25 L19,12.75 L23.5,17.25 Z" id="path-1"></path>
    </defs>
    <g id="icon/av/queue_play_next_24px" stroke="none" stroke-width="1" fill="none" fill-rule="evenodd">
        <mask id="mask-2" fill="white">
            <use xlink:href="#path-1"></use>
        </mask>
        <g fill-rule="nonzero"></g>
        <g id="✱-/-Color-/-Icons-/-Black-/-Inactive" mask="url(#mask-2)" fill="#000000" fill-opacity="0.54">
            <rect id="Rectangle" x="0" y="0" width="24" height="24"></rect>
        </g>
    </g>
</svg>