<?xml version="1.0" encoding="UTF-8"?>
<svg width="24px" height="24px" viewBox="0 0 24 24" version="1.1" xmlns="http://www.w3.org/2000/svg" xmlns:xlink="http://www.w3.org/1999/xlink">
    <!-- Generator: Sketch 50 (54983) - http://www.bohemiancoding.com/sketch -->
    <title>icon/av/recent_actors_24px_sharp</title>
    <desc>Created with Sketch.</desc>
    <defs>
        <path d="M21,5 L21,19 L23,19 L23,5 L21,5 Z M17,19 L19,19 L19,5 L17,5 L17,19 Z M15,5 L1,5 L1,19 L15,19 L15,5 Z M8,7.75 C9.24,7.75 10.25,8.76 10.25,10 C10.25,11.24 9.24,12.25 8,12.25 C6.76,12.25 5.75,11.24 5.75,10 C5.75,8.76 6.76,7.75 8,7.75 Z M12.5,17 L3.5,17 L3.5,16.25 C3.5,14.75 6.5,14 8,14 C9.5,14 12.5,14.75 12.5,16.25 L12.5,17 Z" id="path-1"></path>
    </defs>
    <g id="icon/av/recent_actors_24px" stroke="none" stroke-width="1" fill="none" fill-rule="evenodd">
        <mask id="mask-2" fill="white">
            <use xlink:href="#path-1"></use>
        </mask>
        <g fill-rule="nonzero"></g>
        <g id="✱-/-Color-/-Icons-/-Black-/-Inactive" mask="url(#mask-2)" fill="#000000" fill-opacity="0.54">
            <rect id="Rectangle" x="0" y="0" width="24" height="24"></rect>
        </g>
    </g>
</svg>