<?xml version="1.0" encoding="UTF-8"?>
<svg width="24px" height="24px" viewBox="0 0 24 24" version="1.1" xmlns="http://www.w3.org/2000/svg" xmlns:xlink="http://www.w3.org/1999/xlink">
    <!-- Generator: Sketch 50 (54983) - http://www.bohemiancoding.com/sketch -->
    <title>icon/av/replay_10_24px_sharp</title>
    <desc>Created with Sketch.</desc>
    <defs>
        <path d="M12,6 L12,2 L7,7 L12,12 L12,8 C15.31,8 18,10.69 18,14 C18,17.31 15.31,20 12,20 C8.69,20 6,17.31 6,14 L4,14 C4,18.42 7.58,22 12,22 C16.42,22 20,18.42 20,14 C20,9.58 16.42,6 12,6 Z M10.9,17 L10.05,17 L10.05,13.74 L9.04,14.05 L9.04,13.36 L10.81,12.73 L10.9,12.73 L10.9,17 Z M15.18,15.24 C15.18,15.56 15.15,15.84 15.08,16.06 C15.01,16.28 14.91,16.48 14.79,16.63 C14.67,16.78 14.51,16.89 14.34,16.96 C14.17,17.03 13.97,17.06 13.75,17.06 C13.53,17.06 13.34,17.03 13.16,16.96 C12.98,16.89 12.83,16.78 12.7,16.63 C12.57,16.48 12.47,16.29 12.4,16.06 C12.33,15.83 12.29,15.56 12.29,15.24 L12.29,14.5 C12.29,14.18 12.32,13.9 12.39,13.68 C12.46,13.46 12.56,13.26 12.68,13.11 C12.8,12.96 12.96,12.85 13.13,12.78 C13.3,12.71 13.5,12.68 13.72,12.68 C13.94,12.68 14.13,12.71 14.31,12.78 C14.49,12.85 14.64,12.96 14.77,13.11 C14.9,13.26 15,13.45 15.07,13.68 C15.14,13.91 15.18,14.18 15.18,14.5 L15.18,15.24 Z M14.33,14.38 C14.33,14.19 14.32,14.03 14.29,13.9 C14.26,13.77 14.22,13.67 14.17,13.59 C14.12,13.51 14.06,13.45 13.98,13.42 C13.9,13.39 13.82,13.37 13.73,13.37 C13.64,13.37 13.55,13.39 13.48,13.42 C13.41,13.45 13.34,13.51 13.29,13.59 C13.24,13.67 13.2,13.77 13.17,13.9 C13.14,14.03 13.13,14.19 13.13,14.38 L13.13,15.35 C13.13,15.54 13.14,15.7 13.17,15.83 C13.2,15.96 13.24,16.07 13.29,16.15 C13.34,16.23 13.4,16.29 13.48,16.32 C13.56,16.35 13.64,16.37 13.73,16.37 C13.82,16.37 13.91,16.35 13.98,16.32 C14.05,16.29 14.12,16.23 14.17,16.15 C14.22,16.07 14.26,15.96 14.28,15.83 C14.3,15.7 14.32,15.54 14.32,15.35 L14.32,14.38 L14.33,14.38 Z" id="path-1"></path>
    </defs>
    <g id="icon/av/replay_10_24px" stroke="none" stroke-width="1" fill="none" fill-rule="evenodd">
        <mask id="mask-2" fill="white">
            <use xlink:href="#path-1"></use>
        </mask>
        <g fill-rule="nonzero"></g>
        <g id="✱-/-Color-/-Icons-/-Black-/-Inactive" mask="url(#mask-2)" fill="#000000" fill-opacity="0.54">
            <rect id="Rectangle" x="0" y="0" width="24" height="24"></rect>
        </g>
    </g>
</svg>