<?xml version="1.0" encoding="UTF-8"?>
<svg width="24px" height="24px" viewBox="0 0 24 24" version="1.1" xmlns="http://www.w3.org/2000/svg" xmlns:xlink="http://www.w3.org/1999/xlink">
    <!-- Generator: Sketch 50 (54983) - http://www.bohemiancoding.com/sketch -->
    <title>icon/av/surround_sound_24px_sharp</title>
    <desc>Created with Sketch.</desc>
    <defs>
        <path d="M22,4 L2,4 L2,20 L22,20 L22,4 Z M7.76,16.24 L6.35,17.65 C4.78,16.1 4,14.05 4,12 C4,9.95 4.78,7.9 6.34,6.34 L7.75,7.75 C6.59,8.93 6,10.46 6,12 C6,13.54 6.59,15.07 7.76,16.24 Z M12,16 C9.79,16 8,14.21 8,12 C8,9.79 9.79,8 12,8 C14.21,8 16,9.79 16,12 C16,14.21 14.21,16 12,16 Z M17.66,17.66 L16.25,16.25 C17.41,15.07 18,13.54 18,12 C18,10.46 17.41,8.93 16.24,7.76 L17.65,6.35 C19.22,7.9 20,9.95 20,12 C20,14.05 19.22,16.1 17.66,17.66 Z M12,10 C10.9,10 10,10.9 10,12 C10,13.1 10.9,14 12,14 C13.1,14 14,13.1 14,12 C14,10.9 13.1,10 12,10 Z" id="path-1"></path>
    </defs>
    <g id="icon/av/surround_sound_24px" stroke="none" stroke-width="1" fill="none" fill-rule="evenodd">
        <mask id="mask-2" fill="white">
            <use xlink:href="#path-1"></use>
        </mask>
        <g fill-rule="nonzero"></g>
        <g id="✱-/-Color-/-Icons-/-Black-/-Inactive" mask="url(#mask-2)" fill="#000000" fill-opacity="0.54">
            <rect id="Rectangle" x="0" y="0" width="24" height="24"></rect>
        </g>
    </g>
</svg>