<?xml version="1.0" encoding="UTF-8"?>
<svg width="24px" height="24px" viewBox="0 0 24 24" version="1.1" xmlns="http://www.w3.org/2000/svg" xmlns:xlink="http://www.w3.org/1999/xlink">
    <!-- Generator: Sketch 50 (54983) - http://www.bohemiancoding.com/sketch -->
    <title>icon/social/cake_24px_two_tone</title>
    <desc>Created with Sketch.</desc>
    <defs>
        <path d="M10.53,0.92 L9.45,1.99 C8.15,3.29 5.87,3.3 4.56,1.99 L3.49,0.92 L2.4,1.99 C1.76,2.63 0.9,2.99 0,3 L0,6 L14,6 L14,3 C13.1,2.99 12.24,2.63 11.6,1.99 L10.53,0.92 Z" id="path-1"></path>
        <path d="M13,0 L1,0 C0.45,0 0,0.45 0,1 L0,4.5 C0.51,4.49 0.99,4.29 1.34,3.93 L3.48,1.8 L5.61,3.93 C6.35,4.67 7.64,4.67 8.38,3.93 L10.52,1.8 L12.65,3.93 C13.01,4.29 13.49,4.49 14,4.5 L14,1 C14,0.45 13.55,0 13,0 Z" id="path-3"></path>
        <path d="M2,6 C3.11,6 4,5.1 4,4 C4,3.62 3.9,3.27 3.71,2.97 L2,0 L0.29,2.97 C0.1,3.27 0,3.62 0,4 C0,5.1 0.9,6 2,6 Z" id="path-5"></path>
        <path d="M15,2 L10,2 L10,0 L8,0 L8,2 L3,2 C1.34,2 0,3.34 0,5 L0,14 C0,14.55 0.45,15 1,15 L17,15 C17.55,15 18,14.55 18,14 L18,5 C18,3.34 16.66,2 15,2 Z M16,13 L2,13 L2,10 C2.9,9.99 3.76,9.63 4.4,8.99 L5.49,7.92 L6.56,8.99 C7.87,10.3 10.15,10.29 11.45,8.99 L12.53,7.92 L13.6,8.99 C14.24,9.63 15.1,9.99 16,10 L16,13 Z M16,8.5 C15.49,8.49 15.01,8.3 14.65,7.93 L12.52,5.8 L10.38,7.93 C9.64,8.67 8.35,8.67 7.61,7.93 L5.48,5.8 L3.34,7.93 C2.99,8.29 2.51,8.49 2,8.5 L2,5 C2,4.45 2.45,4 3,4 L15,4 C15.55,4 16,4.45 16,5 L16,8.5 Z" id="path-7"></path>
    </defs>
    <g id="icon/social/cake_24px" stroke="none" stroke-width="1" fill="none" fill-rule="evenodd">
        <g id="↳-Light-Color" transform="translate(5.000000, 14.000000)">
            <mask id="mask-2" fill="white">
                <use xlink:href="#path-1"></use>
            </mask>
            <g id="Mask" opacity="0.3" fill-rule="nonzero"></g>
            <g id="✱-/-Color-/-Icons-/-Black-/-Disabled" mask="url(#mask-2)" fill="#000000" fill-opacity="0.38">
                <rect id="Rectangle" x="0" y="0" width="101" height="101"></rect>
            </g>
        </g>
        <g id="↳-Light-Color" transform="translate(5.000000, 11.000000)">
            <mask id="mask-4" fill="white">
                <use xlink:href="#path-3"></use>
            </mask>
            <g id="Mask" opacity="0.3" fill-rule="nonzero"></g>
            <g id="✱-/-Color-/-Icons-/-Black-/-Disabled" mask="url(#mask-4)" fill="#000000" fill-opacity="0.38">
                <rect id="Rectangle" x="0" y="0" width="101" height="101"></rect>
            </g>
        </g>
        <g id="↳-Dark-Color" transform="translate(10.000000, 0.000000)">
            <mask id="mask-6" fill="white">
                <use xlink:href="#path-5"></use>
            </mask>
            <g id="Mask" fill-rule="nonzero"></g>
            <g id="✱-/-Color-/-Icons-/-Black-/-Inactive" mask="url(#mask-6)" fill="#000000" fill-opacity="0.54">
                <rect id="Rectangle" x="0" y="0" width="101" height="101"></rect>
            </g>
        </g>
        <g id="↳-Dark-Color" transform="translate(3.000000, 7.000000)">
            <mask id="mask-8" fill="white">
                <use xlink:href="#path-7"></use>
            </mask>
            <g id="Mask" fill-rule="nonzero"></g>
            <g id="✱-/-Color-/-Icons-/-Black-/-Inactive" mask="url(#mask-8)" fill="#000000" fill-opacity="0.54">
                <rect id="Rectangle" x="0" y="0" width="101" height="101"></rect>
            </g>
        </g>
    </g>
</svg>