<?xml version="1.0" encoding="UTF-8"?>
<svg width="24px" height="24px" viewBox="0 0 24 24" version="1.1" xmlns="http://www.w3.org/2000/svg" xmlns:xlink="http://www.w3.org/1999/xlink">
    <!-- Generator: Sketch 50 (54983) - http://www.bohemiancoding.com/sketch -->
    <title>icon/social/group_add_24px_two_tone</title>
    <desc>Created with Sketch.</desc>
    <defs>
        <polygon id="path-1" points="5 8 5 5 8 5 8 3 5 3 5 0 3 0 3 3 0 3 0 5 3 5 3 8"></polygon>
        <circle id="path-3" cx="2" cy="1.5" r="1.5"></circle>
        <path d="M0.34,2 L9.66,2 C8.82,1.42 6.79,0.75 5,0.75 C3.21,0.75 1.18,1.42 0.34,2 Z" id="path-5"></path>
        <path d="M4,7 C5.93,7 7.5,5.43 7.5,3.5 C7.5,1.57 5.93,0 4,0 C2.07,0 0.5,1.57 0.5,3.5 C0.5,5.43 2.07,7 4,7 Z M4,2 C4.83,2 5.5,2.67 5.5,3.5 C5.5,4.33 4.83,5 4,5 C3.17,5 2.5,4.33 2.5,3.5 C2.5,2.67 3.17,2 4,2 Z" id="path-7"></path>
        <path d="M7,0.75 C4.66,0.75 0,1.92 0,4.25 L0,6 L14,6 L14,4.25 C14,1.92 9.34,0.75 7,0.75 Z M2.34,4 C3.18,3.42 5.21,2.75 7,2.75 C8.79,2.75 10.82,3.42 11.66,4 L2.34,4 Z" id="path-9"></path>
        <path d="M1,7 C2.93,7 4.5,5.43 4.5,3.5 C4.5,1.57 2.93,0 1,0 C0.76,0 0.52,0.02 0.29,0.07 C1.05,1.01 1.5,2.2 1.5,3.5 C1.5,4.8 1.03,5.98 0.27,6.92 C0.51,6.97 0.75,7 1,7 Z" id="path-11"></path>
        <path d="M0.32,0.02 C1.32,0.83 2,1.89 2,3.25 L2,5 L5,5 L5,3.25 C5,1.56 2.56,0.49 0.32,0.02 Z" id="path-13"></path>
    </defs>
    <g id="icon/social/group_add_24px" stroke="none" stroke-width="1" fill="none" fill-rule="evenodd">
        <g id="↳-Dark-Color" transform="translate(0.000000, 7.000000)">
            <mask id="mask-2" fill="white">
                <use xlink:href="#path-1"></use>
            </mask>
            <g id="Mask" fill-rule="nonzero"></g>
            <g id="✱-/-Color-/-Icons-/-Black-/-Inactive" mask="url(#mask-2)" fill="#000000" fill-opacity="0.54">
                <rect id="Rectangle" x="0" y="0" width="101" height="101"></rect>
            </g>
        </g>
        <g id="↳-Light-Color" transform="translate(10.000000, 7.000000)">
            <mask id="mask-4" fill="white">
                <use xlink:href="#path-3"></use>
            </mask>
            <g id="Mask" opacity="0.3" fill-rule="nonzero"></g>
            <g id="✱-/-Color-/-Icons-/-Black-/-Disabled" mask="url(#mask-4)" fill="#000000" fill-opacity="0.38">
                <rect id="Rectangle" x="0" y="0" width="101" height="101"></rect>
            </g>
        </g>
        <g id="↳-Light-Color" transform="translate(7.000000, 15.000000)">
            <mask id="mask-6" fill="white">
                <use xlink:href="#path-5"></use>
            </mask>
            <g id="Mask" opacity="0.3" fill-rule="nonzero"></g>
            <g id="✱-/-Color-/-Icons-/-Black-/-Disabled" mask="url(#mask-6)" fill="#000000" fill-opacity="0.38">
                <rect id="Rectangle" x="0" y="0" width="101" height="101"></rect>
            </g>
        </g>
        <g id="↳-Dark-Color" transform="translate(8.000000, 5.000000)">
            <mask id="mask-8" fill="white">
                <use xlink:href="#path-7"></use>
            </mask>
            <g id="Mask" fill-rule="nonzero"></g>
            <g id="✱-/-Color-/-Icons-/-Black-/-Inactive" mask="url(#mask-8)" fill="#000000" fill-opacity="0.54">
                <rect id="Rectangle" x="0" y="0" width="101" height="101"></rect>
            </g>
        </g>
        <g id="↳-Dark-Color" transform="translate(5.000000, 13.000000)">
            <mask id="mask-10" fill="white">
                <use xlink:href="#path-9"></use>
            </mask>
            <g id="Mask" fill-rule="nonzero"></g>
            <g id="✱-/-Color-/-Icons-/-Black-/-Inactive" mask="url(#mask-10)" fill="#000000" fill-opacity="0.54">
                <rect id="Rectangle" x="0" y="0" width="101" height="101"></rect>
            </g>
        </g>
        <g id="↳-Dark-Color" transform="translate(16.000000, 5.000000)">
            <mask id="mask-12" fill="white">
                <use xlink:href="#path-11"></use>
            </mask>
            <g id="Mask" fill-rule="nonzero"></g>
            <g id="✱-/-Color-/-Icons-/-Black-/-Inactive" mask="url(#mask-12)" fill="#000000" fill-opacity="0.54">
                <rect id="Rectangle" x="0" y="0" width="101" height="101"></rect>
            </g>
        </g>
        <g id="↳-Dark-Color" transform="translate(19.000000, 14.000000)">
            <mask id="mask-14" fill="white">
                <use xlink:href="#path-13"></use>
            </mask>
            <g id="Mask" fill-rule="nonzero"></g>
            <g id="✱-/-Color-/-Icons-/-Black-/-Inactive" mask="url(#mask-14)" fill="#000000" fill-opacity="0.54">
                <rect id="Rectangle" x="0" y="0" width="101" height="101"></rect>
            </g>
        </g>
    </g>
</svg>