<?xml version="1.0" encoding="UTF-8"?>
<svg width="24px" height="24px" viewBox="0 0 24 24" version="1.1" xmlns="http://www.w3.org/2000/svg" xmlns:xlink="http://www.w3.org/1999/xlink">
    <!-- Generator: Sketch 50 (54983) - http://www.bohemiancoding.com/sketch -->
    <title>icon/social/notifications_off_24px_two_tone</title>
    <desc>Created with Sketch.</desc>
    <defs>
        <path d="M0,8 L8,8 L8,7.76 L0.34,0.1 C0.12,0.68 0,1.32 0,2 L0,8 Z" id="path-1"></path>
        <path d="M1,0.5 C0.81,0.5 0.63,0.53 0.45,0.56 L5,5.1 L5,5 C5,2.52 3.49,0.5 1,0.5 Z" id="path-3"></path>
        <path d="M2,2 C3.1,2 4,1.1 4,0 L0,0 C0,1.1 0.9,2 2,2 Z" id="path-5"></path>
        <path d="M3,4.5 C5.49,4.5 7,6.52 7,9 L7,9.1 L9,11.1 L9,9 C9,5.93 7.37,3.36 4.5,2.68 L4.5,2 C4.5,1.17 3.83,0.5 3,0.5 C2.17,0.5 1.5,1.17 1.5,2 L1.5,2.68 C1.26,2.74 1.03,2.83 0.81,2.91 L2.45,4.55 C2.63,4.53 2.81,4.5 3,4.5 Z" id="path-7"></path>
        <path d="M1.41,0.35 L0,1.76 L2.81,4.57 C2.29,5.57 2,6.74 2,8 L2,13 L0,15 L0,16 L14.24,16 L15.98,17.74 L17.39,16.33 L1.41,0.35 Z M12,14 L4,14 L4,8 C4,7.32 4.12,6.68 4.34,6.1 L12,13.76 L12,14 Z" id="path-9"></path>
    </defs>
    <g id="icon/social/notifications_off_24px" stroke="none" stroke-width="1" fill="none" fill-rule="evenodd">
        <g id="↳-Light-Color" transform="translate(8.000000, 9.000000)">
            <mask id="mask-2" fill="white">
                <use xlink:href="#path-1"></use>
            </mask>
            <g id="Mask" opacity="0.3" fill-rule="nonzero"></g>
            <g id="✱-/-Color-/-Icons-/-Black-/-Disabled" mask="url(#mask-2)" fill="#000000" fill-opacity="0.38">
                <rect id="Rectangle" x="0" y="0" width="101" height="101"></rect>
            </g>
        </g>
        <g id="↳-Light-Color" transform="translate(11.000000, 6.000000)">
            <mask id="mask-4" fill="white">
                <use xlink:href="#path-3"></use>
            </mask>
            <g id="Mask" opacity="0.3" fill-rule="nonzero"></g>
            <g id="✱-/-Color-/-Icons-/-Black-/-Disabled" mask="url(#mask-4)" fill="#000000" fill-opacity="0.38">
                <rect id="Rectangle" x="0" y="0" width="101" height="101"></rect>
            </g>
        </g>
        <g id="↳-Dark-Color" transform="translate(10.000000, 20.000000)">
            <mask id="mask-6" fill="white">
                <use xlink:href="#path-5"></use>
            </mask>
            <g id="Mask" fill-rule="nonzero"></g>
            <g id="✱-/-Color-/-Icons-/-Black-/-Inactive" mask="url(#mask-6)" fill="#000000" fill-opacity="0.54">
                <rect id="Rectangle" x="0" y="0" width="101" height="101"></rect>
            </g>
        </g>
        <g id="↳-Dark-Color" transform="translate(9.000000, 2.000000)">
            <mask id="mask-8" fill="white">
                <use xlink:href="#path-7"></use>
            </mask>
            <g id="Mask" fill-rule="nonzero"></g>
            <g id="✱-/-Color-/-Icons-/-Black-/-Inactive" mask="url(#mask-8)" fill="#000000" fill-opacity="0.54">
                <rect id="Rectangle" x="0" y="0" width="101" height="101"></rect>
            </g>
        </g>
        <g id="↳-Dark-Color" transform="translate(4.000000, 3.000000)">
            <mask id="mask-10" fill="white">
                <use xlink:href="#path-9"></use>
            </mask>
            <g id="Mask" fill-rule="nonzero"></g>
            <g id="✱-/-Color-/-Icons-/-Black-/-Inactive" mask="url(#mask-10)" fill="#000000" fill-opacity="0.54">
                <rect id="Rectangle" x="0" y="0" width="101" height="101"></rect>
            </g>
        </g>
    </g>
</svg>