<?xml version="1.0" encoding="UTF-8"?>
<svg width="24px" height="24px" viewBox="0 0 24 24" version="1.1" xmlns="http://www.w3.org/2000/svg" xmlns:xlink="http://www.w3.org/1999/xlink">
    <!-- Generator: Sketch 50 (54983) - http://www.bohemiancoding.com/sketch -->
    <title>icon/social/party_mode_24px_two_tone</title>
    <desc>Created with Sketch.</desc>
    <defs>
        <path d="M11.95,2 L11.36,1.35 L10.12,0 L5.88,0 L4.65,1.35 L4.05,2 L3.17,2 L0,2 L0,14 L16,14 L16,2 L12.83,2 L11.95,2 Z M3,8 C3,5.24 5.24,3 8,3 C9.63,3 11.06,3.79 11.98,5 L8,5 C6.34,5 5,6.34 5,8 C5,8.35 5.07,8.69 5.18,9 L3.1,9 C3.04,8.68 3,8.34 3,8 Z M13,8 C13,10.76 10.76,13 8,13 C6.37,13 4.94,12.21 4.02,11 L8,11 C9.66,11 11,9.66 11,8 C11,7.65 10.93,7.31 10.82,7 L12.9,7 C12.97,7.32 13,7.66 13,8 Z" id="path-1"></path>
        <path d="M18,2 L14.83,2 L13,0 L7,0 L5.17,2 L2,2 C0.9,2 0,2.9 0,4 L0,16 C0,17.1 0.9,18 2,18 L18,18 C19.1,18 20,17.1 20,16 L20,4 C20,2.9 19.1,2 18,2 Z M18,16 L2,16 L2,4 L5.17,4 L6.05,4 L6.64,3.35 L7.88,2 L12.12,2 L13.36,3.35 L13.95,4 L14.83,4 L18,4 L18,16 Z" id="path-3"></path>
        <path d="M2,5 C2,3.34 3.34,2 5,2 L8.98,2 C8.06,0.79 6.63,0 5,0 C2.24,0 0,2.24 0,5 C0,5.34 0.04,5.68 0.1,6 L2.18,6 C2.07,5.69 2,5.35 2,5 Z" id="path-5"></path>
        <path d="M7,1 C7,2.66 5.66,4 4,4 L0.02,4 C0.94,5.21 2.37,6 4,6 C6.76,6 9,3.76 9,1 C9,0.66 8.97,0.32 8.9,0 L6.82,0 C6.93,0.31 7,0.65 7,1 Z" id="path-7"></path>
    </defs>
    <g id="icon/social/party_mode_24px" stroke="none" stroke-width="1" fill="none" fill-rule="evenodd">
        <g id="↳-Light-Color" transform="translate(4.000000, 4.000000)">
            <mask id="mask-2" fill="white">
                <use xlink:href="#path-1"></use>
            </mask>
            <g id="Mask" opacity="0.3" fill-rule="nonzero"></g>
            <g id="✱-/-Color-/-Icons-/-Black-/-Disabled" mask="url(#mask-2)" fill="#000000" fill-opacity="0.38">
                <rect id="Rectangle" x="0" y="0" width="101" height="101"></rect>
            </g>
        </g>
        <g id="↳-Dark-Color" transform="translate(2.000000, 2.000000)">
            <mask id="mask-4" fill="white">
                <use xlink:href="#path-3"></use>
            </mask>
            <g id="Mask" fill-rule="nonzero"></g>
            <g id="✱-/-Color-/-Icons-/-Black-/-Inactive" mask="url(#mask-4)" fill="#000000" fill-opacity="0.54">
                <rect id="Rectangle" x="0" y="0" width="101" height="101"></rect>
            </g>
        </g>
        <g id="↳-Dark-Color" transform="translate(7.000000, 7.000000)">
            <mask id="mask-6" fill="white">
                <use xlink:href="#path-5"></use>
            </mask>
            <g id="Mask" fill-rule="nonzero"></g>
            <g id="✱-/-Color-/-Icons-/-Black-/-Inactive" mask="url(#mask-6)" fill="#000000" fill-opacity="0.54">
                <rect id="Rectangle" x="0" y="0" width="101" height="101"></rect>
            </g>
        </g>
        <g id="↳-Dark-Color" transform="translate(8.000000, 11.000000)">
            <mask id="mask-8" fill="white">
                <use xlink:href="#path-7"></use>
            </mask>
            <g id="Mask" fill-rule="nonzero"></g>
            <g id="✱-/-Color-/-Icons-/-Black-/-Inactive" mask="url(#mask-8)" fill="#000000" fill-opacity="0.54">
                <rect id="Rectangle" x="0" y="0" width="101" height="101"></rect>
            </g>
        </g>
    </g>
</svg>