<?xml version="1.0" encoding="UTF-8"?>
<svg width="24px" height="24px" viewBox="0 0 24 24" version="1.1" xmlns="http://www.w3.org/2000/svg" xmlns:xlink="http://www.w3.org/1999/xlink">
    <!-- Generator: Sketch 50 (54983) - http://www.bohemiancoding.com/sketch -->
    <title>icon/social/people_24px_two_tone</title>
    <desc>Created with Sketch.</desc>
    <defs>
        <circle id="path-1" cx="2" cy="1.5" r="1.5"></circle>
        <path d="M0.34,2 L9.66,2 C8.82,1.42 6.79,0.75 5,0.75 C3.21,0.75 1.18,1.42 0.34,2 Z" id="path-3"></path>
        <path d="M4,7 C5.93,7 7.5,5.43 7.5,3.5 C7.5,1.57 5.93,0 4,0 C2.07,0 0.5,1.57 0.5,3.5 C0.5,5.43 2.07,7 4,7 Z M4,2 C4.83,2 5.5,2.67 5.5,3.5 C5.5,4.33 4.83,5 4,5 C3.17,5 2.5,4.33 2.5,3.5 C2.5,2.67 3.17,2 4,2 Z" id="path-5"></path>
        <path d="M7,0.75 C4.66,0.75 0,1.92 0,4.25 L0,6 L14,6 L14,4.25 C14,1.92 9.34,0.75 7,0.75 Z M2.34,4 C3.18,3.42 5.21,2.75 7,2.75 C8.79,2.75 10.82,3.42 11.66,4 L2.34,4 Z" id="path-7"></path>
        <path d="M0.04,0.81 C1.2,1.65 2,2.77 2,4.25 L2,6 L6,6 L6,4.25 C6,2.23 2.5,1.08 0.04,0.81 Z" id="path-9"></path>
        <path d="M2,7 C3.93,7 5.5,5.43 5.5,3.5 C5.5,1.57 3.93,0 2,0 C1.46,0 0.96,0.13 0.5,0.35 C1.13,1.24 1.5,2.33 1.5,3.5 C1.5,4.67 1.13,5.76 0.5,6.65 C0.96,6.87 1.46,7 2,7 Z" id="path-11"></path>
    </defs>
    <g id="icon/social/people_24px" stroke="none" stroke-width="1" fill="none" fill-rule="evenodd">
        <g id="↳-Light-Color" transform="translate(7.000000, 7.000000)">
            <mask id="mask-2" fill="white">
                <use xlink:href="#path-1"></use>
            </mask>
            <g id="Mask" opacity="0.3" fill-rule="nonzero"></g>
            <g id="✱-/-Color-/-Icons-/-Black-/-Disabled" mask="url(#mask-2)" fill="#000000" fill-opacity="0.38">
                <rect id="Rectangle" x="0" y="0" width="101" height="101"></rect>
            </g>
        </g>
        <g id="↳-Light-Color" transform="translate(4.000000, 15.000000)">
            <mask id="mask-4" fill="white">
                <use xlink:href="#path-3"></use>
            </mask>
            <g id="Mask" opacity="0.3" fill-rule="nonzero"></g>
            <g id="✱-/-Color-/-Icons-/-Black-/-Disabled" mask="url(#mask-4)" fill="#000000" fill-opacity="0.38">
                <rect id="Rectangle" x="0" y="0" width="101" height="101"></rect>
            </g>
        </g>
        <g id="↳-Dark-Color" transform="translate(5.000000, 5.000000)">
            <mask id="mask-6" fill="white">
                <use xlink:href="#path-5"></use>
            </mask>
            <g id="Mask" fill-rule="nonzero"></g>
            <g id="✱-/-Color-/-Icons-/-Black-/-Inactive" mask="url(#mask-6)" fill="#000000" fill-opacity="0.54">
                <rect id="Rectangle" x="0" y="0" width="101" height="101"></rect>
            </g>
        </g>
        <g id="↳-Dark-Color" transform="translate(2.000000, 13.000000)">
            <mask id="mask-8" fill="white">
                <use xlink:href="#path-7"></use>
            </mask>
            <g id="Mask" fill-rule="nonzero"></g>
            <g id="✱-/-Color-/-Icons-/-Black-/-Inactive" mask="url(#mask-8)" fill="#000000" fill-opacity="0.54">
                <rect id="Rectangle" x="0" y="0" width="101" height="101"></rect>
            </g>
        </g>
        <g id="↳-Dark-Color" transform="translate(16.000000, 13.000000)">
            <mask id="mask-10" fill="white">
                <use xlink:href="#path-9"></use>
            </mask>
            <g id="Mask" fill-rule="nonzero"></g>
            <g id="✱-/-Color-/-Icons-/-Black-/-Inactive" mask="url(#mask-10)" fill="#000000" fill-opacity="0.54">
                <rect id="Rectangle" x="0" y="0" width="101" height="101"></rect>
            </g>
        </g>
        <g id="↳-Dark-Color" transform="translate(13.000000, 5.000000)">
            <mask id="mask-12" fill="white">
                <use xlink:href="#path-11"></use>
            </mask>
            <g id="Mask" fill-rule="nonzero"></g>
            <g id="✱-/-Color-/-Icons-/-Black-/-Inactive" mask="url(#mask-12)" fill="#000000" fill-opacity="0.54">
                <rect id="Rectangle" x="0" y="0" width="101" height="101"></rect>
            </g>
        </g>
    </g>
</svg>