<?xml version="1.0" encoding="UTF-8"?>
<svg width="24px" height="24px" viewBox="0 0 24 24" version="1.1" xmlns="http://www.w3.org/2000/svg" xmlns:xlink="http://www.w3.org/1999/xlink">
    <!-- Generator: Sketch 50 (54983) - http://www.bohemiancoding.com/sketch -->
    <title>icon/social/sentiment_very_dissatisfied_24px_two_tone</title>
    <desc>Created with Sketch.</desc>
    <defs>
        <path d="M8,0 C3.58,0 0,3.58 0,8 C0,12.42 3.58,16 8,16 C12.42,16 16,12.42 16,8 C16,3.58 12.42,0 8,0 Z M2.76,4.82 L3.82,3.76 L4.88,4.82 L5.94,3.76 L7,4.82 L5.94,5.88 L7,6.94 L5.94,8 L4.88,6.94 L3.82,8 L2.76,6.94 L3.82,5.88 L2.76,4.82 Z M2.89,13 C3.69,10.96 5.67,9.5 8,9.5 C10.33,9.5 12.31,10.96 13.11,13 L2.89,13 Z M13.24,6.94 L12.18,8 L11.12,6.94 L10.06,8 L9,6.94 L10.06,5.88 L9,4.82 L10.06,3.76 L11.12,4.82 L12.18,3.76 L13.24,4.82 L12.18,5.88 L13.24,6.94 Z" id="path-1"></path>
        <path d="M6,0.5 C3.67,0.5 1.69,1.96 0.89,4 L11.11,4 C10.31,1.96 8.33,0.5 6,0.5 Z" id="path-3"></path>
        <polygon id="path-5" points="1.82 5 2.88 3.94 3.94 5 5 3.94 3.94 2.88 5 1.82 3.94 0.76 2.88 1.82 1.82 0.76 0.76 1.82 1.82 2.88 0.76 3.94"></polygon>
        <path d="M9.99,0 C4.47,0 0,4.47 0,10 C0,15.53 4.47,20 9.99,20 C15.51,20 20,15.53 20,10 C20,4.47 15.52,0 9.99,0 Z M10,18 C5.58,18 2,14.42 2,10 C2,5.58 5.58,2 10,2 C14.42,2 18,5.58 18,10 C18,14.42 14.42,18 10,18 Z" id="path-7"></path>
        <polygon id="path-9" points="3.18 0.76 2.12 1.82 1.06 0.76 0 1.82 1.06 2.88 0 3.94 1.06 5 2.12 3.94 3.18 5 4.24 3.94 3.18 2.88 4.24 1.82"></polygon>
    </defs>
    <g id="icon/social/sentiment_very_dissatisfied_24px" stroke="none" stroke-width="1" fill="none" fill-rule="evenodd">
        <g id="↳-Light-Color" transform="translate(4.000000, 4.000000)">
            <mask id="mask-2" fill="white">
                <use xlink:href="#path-1"></use>
            </mask>
            <g id="Mask" opacity="0.3" fill-rule="nonzero"></g>
            <g id="✱-/-Color-/-Icons-/-Black-/-Disabled" mask="url(#mask-2)" fill="#000000" fill-opacity="0.38">
                <rect id="Rectangle" x="0" y="0" width="101" height="101"></rect>
            </g>
        </g>
        <g id="↳-Dark-Color" transform="translate(6.000000, 13.000000)">
            <mask id="mask-4" fill="white">
                <use xlink:href="#path-3"></use>
            </mask>
            <g id="Mask" fill-rule="nonzero"></g>
            <g id="✱-/-Color-/-Icons-/-Black-/-Inactive" mask="url(#mask-4)" fill="#000000" fill-opacity="0.54">
                <rect id="Rectangle" x="0" y="0" width="101" height="101"></rect>
            </g>
        </g>
        <g id="↳-Dark-Color" transform="translate(6.000000, 7.000000)">
            <mask id="mask-6" fill="white">
                <use xlink:href="#path-5"></use>
            </mask>
            <g id="Mask" fill-rule="nonzero"></g>
            <g id="✱-/-Color-/-Icons-/-Black-/-Inactive" mask="url(#mask-6)" fill="#000000" fill-opacity="0.54">
                <rect id="Rectangle" x="0" y="0" width="101" height="101"></rect>
            </g>
        </g>
        <g id="↳-Dark-Color" transform="translate(2.000000, 2.000000)">
            <mask id="mask-8" fill="white">
                <use xlink:href="#path-7"></use>
            </mask>
            <g id="Mask" fill-rule="nonzero"></g>
            <g id="✱-/-Color-/-Icons-/-Black-/-Inactive" mask="url(#mask-8)" fill="#000000" fill-opacity="0.54">
                <rect id="Rectangle" x="0" y="0" width="101" height="101"></rect>
            </g>
        </g>
        <g id="↳-Dark-Color" transform="translate(13.000000, 7.000000)">
            <mask id="mask-10" fill="white">
                <use xlink:href="#path-9"></use>
            </mask>
            <g id="Mask" fill-rule="nonzero"></g>
            <g id="✱-/-Color-/-Icons-/-Black-/-Inactive" mask="url(#mask-10)" fill="#000000" fill-opacity="0.54">
                <rect id="Rectangle" x="0" y="0" width="101" height="101"></rect>
            </g>
        </g>
    </g>
</svg>