<?xml version="1.0" encoding="UTF-8"?>
<svg width="24px" height="24px" viewBox="0 0 24 24" version="1.1" xmlns="http://www.w3.org/2000/svg" xmlns:xlink="http://www.w3.org/1999/xlink">
    <!-- Generator: Sketch 50 (54983) - http://www.bohemiancoding.com/sketch -->
    <title>icon/social/share_24px_two_tone</title>
    <desc>Created with Sketch.</desc>
    <defs>
        <circle id="path-1" cx="1" cy="1" r="1"></circle>
        <circle id="path-3" cx="1" cy="1" r="1"></circle>
        <circle id="path-5" cx="1" cy="1.02" r="1"></circle>
        <path d="M15,14.08 C14.24,14.08 13.56,14.38 13.04,14.85 L5.91,10.7 C5.96,10.47 6,10.24 6,10 C6,9.76 5.96,9.53 5.91,9.3 L12.96,5.19 C13.5,5.69 14.21,6 15,6 C16.66,6 18,4.66 18,3 C18,1.34 16.66,0 15,0 C13.34,0 12,1.34 12,3 C12,3.24 12.04,3.47 12.09,3.7 L5.04,7.81 C4.5,7.31 3.79,7 3,7 C1.34,7 0,8.34 0,10 C0,11.66 1.34,13 3,13 C3.79,13 4.5,12.69 5.04,12.19 L12.16,16.35 C12.11,16.56 12.08,16.78 12.08,17 C12.08,18.61 13.39,19.92 15,19.92 C16.61,19.92 17.92,18.61 17.92,17 C17.92,15.39 16.61,14.08 15,14.08 Z M15,2 C15.55,2 16,2.45 16,3 C16,3.55 15.55,4 15,4 C14.45,4 14,3.55 14,3 C14,2.45 14.45,2 15,2 Z M3,11 C2.45,11 2,10.55 2,10 C2,9.45 2.45,9 3,9 C3.55,9 4,9.45 4,10 C4,10.55 3.55,11 3,11 Z M15,18.02 C14.45,18.02 14,17.57 14,17.02 C14,16.47 14.45,16.02 15,16.02 C15.55,16.02 16,16.47 16,17.02 C16,17.57 15.55,18.02 15,18.02 Z" id="path-7"></path>
    </defs>
    <g id="icon/social/share_24px" stroke="none" stroke-width="1" fill="none" fill-rule="evenodd">
        <g id="↳-Light-Color" transform="translate(17.000000, 4.000000)">
            <mask id="mask-2" fill="white">
                <use xlink:href="#path-1"></use>
            </mask>
            <g id="Mask" opacity="0.3" fill-rule="nonzero"></g>
            <g id="✱-/-Color-/-Icons-/-Black-/-Disabled" mask="url(#mask-2)" fill="#000000" fill-opacity="0.38">
                <rect id="Rectangle" x="0" y="0" width="101" height="101"></rect>
            </g>
        </g>
        <g id="↳-Light-Color" transform="translate(5.000000, 11.000000)">
            <mask id="mask-4" fill="white">
                <use xlink:href="#path-3"></use>
            </mask>
            <g id="Mask" opacity="0.3" fill-rule="nonzero"></g>
            <g id="✱-/-Color-/-Icons-/-Black-/-Disabled" mask="url(#mask-4)" fill="#000000" fill-opacity="0.38">
                <rect id="Rectangle" x="0" y="0" width="101" height="101"></rect>
            </g>
        </g>
        <g id="↳-Light-Color" transform="translate(17.000000, 18.000000)">
            <mask id="mask-6" fill="white">
                <use xlink:href="#path-5"></use>
            </mask>
            <g id="Mask" opacity="0.3" fill-rule="nonzero"></g>
            <g id="✱-/-Color-/-Icons-/-Black-/-Disabled" mask="url(#mask-6)" fill="#000000" fill-opacity="0.38">
                <rect id="Rectangle" x="0" y="0" width="101" height="101"></rect>
            </g>
        </g>
        <g id="↳-Dark-Color" transform="translate(3.000000, 2.000000)">
            <mask id="mask-8" fill="white">
                <use xlink:href="#path-7"></use>
            </mask>
            <g id="Mask" fill-rule="nonzero"></g>
            <g id="✱-/-Color-/-Icons-/-Black-/-Inactive" mask="url(#mask-8)" fill="#000000" fill-opacity="0.54">
                <rect id="Rectangle" x="0" y="0" width="101" height="101"></rect>
            </g>
        </g>
    </g>
</svg>