<?xml version="1.0" encoding="UTF-8"?>
<svg width="24px" height="24px" viewBox="0 0 24 24" version="1.1" xmlns="http://www.w3.org/2000/svg" xmlns:xlink="http://www.w3.org/1999/xlink">
    <!-- Generator: Sketch 50 (54983) - http://www.bohemiancoding.com/sketch -->
    <title>icon/social/whatshot_24px_two_tone</title>
    <desc>Created with Sketch.</desc>
    <defs>
        <path d="M10.11,0.77 C9.58,3.37 7.49,5.2 4.83,5.2 C3.27,5.2 1.87,4.58 0.86,3.57 C0.3,4.96 0,6.47 0,8 C0,11.31 2.69,14 6,14 C9.31,14 12,11.31 12,8 C12,5.44 11.34,2.97 10.11,0.77 Z M5.89,11.99 C4.52,11.99 3.4,10.91 3.4,9.57 C3.4,8.32 4.21,7.44 5.57,7.16 C6.94,6.88 8.35,6.23 9.14,5.17 C9.44,6.17 9.6,7.22 9.6,8.29 C9.6,10.33 7.94,11.99 5.89,11.99 Z" id="path-1"></path>
        <path d="M2.57,2.16 C1.21,2.44 0.4,3.32 0.4,4.57 C0.4,5.91 1.51,6.99 2.89,6.99 C4.94,6.99 6.6,5.33 6.6,3.28 C6.6,2.21 6.45,1.16 6.14,0.16 C5.35,1.23 3.94,1.88 2.57,2.16 Z" id="path-3"></path>
        <path d="M9.5,0.67 C9.5,0.67 10.24,3.32 10.24,5.47 C10.24,7.53 8.89,9.2 6.83,9.2 C4.76,9.2 3.2,7.53 3.2,5.47 L3.23,5.11 C1.21,7.51 0,10.62 0,14 C0,18.42 3.58,22 8,22 C12.42,22 16,18.42 16,14 C16,8.61 13.41,3.8 9.5,0.67 Z M8,20 C4.69,20 2,17.31 2,14 C2,12.47 2.3,10.96 2.86,9.57 C3.87,10.58 5.27,11.2 6.83,11.2 C9.49,11.2 11.58,9.37 12.11,6.77 C13.34,8.97 14,11.44 14,14 C14,17.31 11.31,20 8,20 Z" id="path-5"></path>
    </defs>
    <g id="icon/social/whatshot_24px" stroke="none" stroke-width="1" fill="none" fill-rule="evenodd">
        <g id="↳-Light-Color" transform="translate(6.000000, 6.000000)">
            <mask id="mask-2" fill="white">
                <use xlink:href="#path-1"></use>
            </mask>
            <g id="Mask" opacity="0.3" fill-rule="nonzero"></g>
            <g id="✱-/-Color-/-Icons-/-Black-/-Disabled" mask="url(#mask-2)" fill="#000000" fill-opacity="0.38">
                <rect id="Rectangle" x="0" y="0" width="101" height="101"></rect>
            </g>
        </g>
        <g id="↳-Dark-Color" transform="translate(9.000000, 11.000000)">
            <mask id="mask-4" fill="white">
                <use xlink:href="#path-3"></use>
            </mask>
            <g id="Mask" fill-rule="nonzero"></g>
            <g id="✱-/-Color-/-Icons-/-Black-/-Inactive" mask="url(#mask-4)" fill="#000000" fill-opacity="0.54">
                <rect id="Rectangle" x="0" y="0" width="101" height="101"></rect>
            </g>
        </g>
        <g id="↳-Dark-Color" transform="translate(4.000000, 0.000000)">
            <mask id="mask-6" fill="white">
                <use xlink:href="#path-5"></use>
            </mask>
            <g id="Mask" fill-rule="nonzero"></g>
            <g id="✱-/-Color-/-Icons-/-Black-/-Inactive" mask="url(#mask-6)" fill="#000000" fill-opacity="0.54">
                <rect id="Rectangle" x="0" y="0" width="101" height="101"></rect>
            </g>
        </g>
    </g>
</svg>