<?xml version="1.0" encoding="UTF-8"?>
<svg width="24px" height="24px" viewBox="0 0 24 24" version="1.1" xmlns="http://www.w3.org/2000/svg" xmlns:xlink="http://www.w3.org/1999/xlink">
    <!-- Generator: Sketch 50 (54983) - http://www.bohemiancoding.com/sketch -->
    <title>icon/image/add_photo_alternate_24px_outlined</title>
    <desc>Created with Sketch.</desc>
    <defs>
        <path d="M17.5,20.5 L3.5,20.5 L3.5,6.5 L12.5,6.5 L12.5,4.5 L3.5,4.5 C2.4,4.5 1.5,5.4 1.5,6.5 L1.5,20.5 C1.5,21.6 2.4,22.5 3.5,22.5 L17.5,22.5 C18.6,22.5 19.5,21.6 19.5,20.5 L19.5,11.5 L17.5,11.5 L17.5,20.5 Z M9.71,17.33 L7.75,14.97 L5,18.5 L16,18.5 L12.46,13.79 L9.71,17.33 Z M19.5,4.5 L19.5,1.5 L17.5,1.5 L17.5,4.5 L14.5,4.5 C14.51,4.51 14.5,6.5 14.5,6.5 L17.5,6.5 L17.5,9.49 C17.51,9.5 19.5,9.49 19.5,9.49 L19.5,6.5 L22.5,6.5 L22.5,4.5 L19.5,4.5 Z" id="path-1"></path>
    </defs>
    <g id="icon/image/add_photo_alternate_24px" stroke="none" stroke-width="1" fill="none" fill-rule="evenodd">
        <mask id="mask-2" fill="white">
            <use xlink:href="#path-1"></use>
        </mask>
        <g fill-rule="nonzero"></g>
        <g id="✱-/-Color-/-Icons-/-Black-/-Inactive" mask="url(#mask-2)" fill="#000000" fill-opacity="0.54">
            <rect id="Rectangle" x="0" y="0" width="24" height="24"></rect>
        </g>
    </g>
</svg>