<?xml version="1.0" encoding="UTF-8"?>
<svg width="24px" height="24px" viewBox="0 0 24 24" version="1.1" xmlns="http://www.w3.org/2000/svg" xmlns:xlink="http://www.w3.org/1999/xlink">
    <!-- Generator: Sketch 50 (54983) - http://www.bohemiancoding.com/sketch -->
    <title>icon/image/add_a_photo_24px_outlined</title>
    <desc>Created with Sketch.</desc>
    <defs>
        <path d="M21.5,6.5 L18.33,6.5 L16.5,4.5 L10.5,4.5 L10.5,6.5 L15.62,6.5 L17.45,8.5 L21.5,8.5 L21.5,20.5 L5.5,20.5 L5.5,11.5 L3.5,11.5 L3.5,20.5 C3.5,21.6 4.4,22.5 5.5,22.5 L21.5,22.5 C22.6,22.5 23.5,21.6 23.5,20.5 L23.5,8.5 C23.5,7.4 22.6,6.5 21.5,6.5 Z M8.5,14.5 C8.5,17.26 10.74,19.5 13.5,19.5 C16.26,19.5 18.5,17.26 18.5,14.5 C18.5,11.74 16.26,9.5 13.5,9.5 C10.74,9.5 8.5,11.74 8.5,14.5 Z M13.5,11.5 C15.15,11.5 16.5,12.85 16.5,14.5 C16.5,16.15 15.15,17.5 13.5,17.5 C11.85,17.5 10.5,16.15 10.5,14.5 C10.5,12.85 11.85,11.5 13.5,11.5 Z M5.5,6.5 L8.5,6.5 L8.5,4.5 L5.5,4.5 L5.5,1.5 L3.5,1.5 L3.5,4.5 L0.5,4.5 L0.5,6.5 L3.5,6.5 L3.5,9.5 L5.5,9.5 L5.5,6.5 Z" id="path-1"></path>
    </defs>
    <g id="icon/image/add_a_photo_24px" stroke="none" stroke-width="1" fill="none" fill-rule="evenodd">
        <mask id="mask-2" fill="white">
            <use xlink:href="#path-1"></use>
        </mask>
        <g fill-rule="nonzero"></g>
        <g id="✱-/-Color-/-Icons-/-Black-/-Inactive" mask="url(#mask-2)" fill="#000000" fill-opacity="0.54">
            <rect id="Rectangle" x="0" y="0" width="24" height="24"></rect>
        </g>
    </g>
</svg>