<?xml version="1.0" encoding="UTF-8"?>
<svg width="24px" height="24px" viewBox="0 0 24 24" version="1.1" xmlns="http://www.w3.org/2000/svg" xmlns:xlink="http://www.w3.org/1999/xlink">
    <!-- Generator: Sketch 50 (54983) - http://www.bohemiancoding.com/sketch -->
    <title>icon/image/assistant_24px_outlined</title>
    <desc>Created with Sketch.</desc>
    <defs>
        <path d="M19,1.5 L5,1.5 C3.9,1.5 3,2.4 3,3.5 L3,17.5 C3,18.6 3.9,19.5 5,19.5 L9,19.5 L12,22.5 L15,19.5 L19,19.5 C20.1,19.5 21,18.6 21,17.5 L21,3.5 C21,2.4 20.1,1.5 19,1.5 Z M19,17.5 L14.17,17.5 L13.58,18.09 L12,19.67 L10.41,18.08 L9.83,17.5 L5,17.5 L5,3.5 L19,3.5 L19,17.5 Z M12,16.5 L13.88,12.38 L18,10.5 L13.88,8.62 L12,4.5 L10.12,8.62 L6,10.5 L10.12,12.38 L12,16.5 Z" id="path-1"></path>
    </defs>
    <g id="icon/image/assistant_24px" stroke="none" stroke-width="1" fill="none" fill-rule="evenodd">
        <mask id="mask-2" fill="white">
            <use xlink:href="#path-1"></use>
        </mask>
        <g fill-rule="nonzero"></g>
        <g id="✱-/-Color-/-Icons-/-Black-/-Inactive" mask="url(#mask-2)" fill="#000000" fill-opacity="0.54">
            <rect id="Rectangle" x="0" y="0" width="24" height="24"></rect>
        </g>
    </g>
</svg>