<?xml version="1.0" encoding="UTF-8"?>
<svg width="24px" height="24px" viewBox="0 0 24 24" version="1.1" xmlns="http://www.w3.org/2000/svg" xmlns:xlink="http://www.w3.org/1999/xlink">
    <!-- Generator: Sketch 50 (54983) - http://www.bohemiancoding.com/sketch -->
    <title>icon/image/blur_off_24px_outlined</title>
    <desc>Created with Sketch.</desc>
    <defs>
        <path d="M14,5 C13.4477153,5 13,5.44771525 13,6 C13,6.55228475 13.4477153,7 14,7 C14.5522847,7 15,6.55228475 15,6 C15,5.44771525 14.5522847,5 14,5 Z M13.8,11.48 L14,11.5 C14.83,11.5 15.5,10.83 15.5,10 C15.5,9.17 14.83,8.5 14,8.5 C13.17,8.5 12.5,9.17 12.5,10 L12.52,10.2 C12.61,10.87 13.13,11.39 13.8,11.48 Z M14,3.5 C14.28,3.5 14.5,3.28 14.5,3 C14.5,2.72 14.28,2.5 14,2.5 C13.72,2.5 13.5,2.72 13.5,3 C13.5,3.28 13.72,3.5 14,3.5 Z M10,3.5 C10.28,3.5 10.5,3.28 10.5,3 C10.5,2.72 10.28,2.5 10,2.5 C9.72,2.5 9.5,2.72 9.5,3 C9.5,3.28 9.72,3.5 10,3.5 Z M18,9 C17.4477153,9 17,9.44771525 17,10 C17,10.5522847 17.4477153,11 18,11 C18.5522847,11 19,10.5522847 19,10 C19,9.44771525 18.5522847,9 18,9 Z M18,5 C17.4477153,5 17,5.44771525 17,6 C17,6.55228475 17.4477153,7 18,7 C18.5522847,7 19,6.55228475 19,6 C19,5.44771525 18.5522847,5 18,5 Z M21,10.5 C21.28,10.5 21.5,10.28 21.5,10 C21.5,9.72 21.28,9.5 21,9.5 C20.72,9.5 20.5,9.72 20.5,10 C20.5,10.28 20.72,10.5 21,10.5 Z M10,5 C9.44771525,5 9,5.44771525 9,6 C9,6.55228475 9.44771525,7 10,7 C10.5522847,7 11,6.55228475 11,6 C11,5.44771525 10.5522847,5 10,5 Z M18,13 C17.4477153,13 17,13.4477153 17,14 C17,14.5522847 17.4477153,15 18,15 C18.5522847,15 19,14.5522847 19,14 C19,13.4477153 18.5522847,13 18,13 Z M6,17 C5.44771525,17 5,17.4477153 5,18 C5,18.5522847 5.44771525,19 6,19 C6.55228475,19 7,18.5522847 7,18 C7,17.4477153 6.55228475,17 6,17 Z M14,20.5 C13.72,20.5 13.5,20.72 13.5,21 C13.5,21.28 13.72,21.5 14,21.5 C14.28,21.5 14.5,21.28 14.5,21 C14.5,20.72 14.28,20.5 14,20.5 Z M21,13.5 C20.72,13.5 20.5,13.72 20.5,14 C20.5,14.28 20.72,14.5 21,14.5 C21.28,14.5 21.5,14.28 21.5,14 C21.5,13.72 21.28,13.5 21,13.5 Z M3,13.5 C2.72,13.5 2.5,13.72 2.5,14 C2.5,14.28 2.72,14.5 3,14.5 C3.28,14.5 3.5,14.28 3.5,14 C3.5,13.72 3.28,13.5 3,13.5 Z M10,17 C9.44771525,17 9,17.4477153 9,18 C9,18.5522847 9.44771525,19 10,19 C10.5522847,19 11,18.5522847 11,18 C11,17.4477153 10.5522847,17 10,17 Z M3,9.5 C2.72,9.5 2.5,9.72 2.5,10 C2.5,10.28 2.72,10.5 3,10.5 C3.28,10.5 3.5,10.28 3.5,10 C3.5,9.72 3.28,9.5 3,9.5 Z M10,20.5 C9.72,20.5 9.5,20.72 9.5,21 C9.5,21.28 9.72,21.5 10,21.5 C10.28,21.5 10.5,21.28 10.5,21 C10.5,20.72 10.28,20.5 10,20.5 Z M6,13 C5.44771525,13 5,13.4477153 5,14 C5,14.5522847 5.44771525,15 6,15 C6.55228475,15 7,14.5522847 7,14 C7,13.4477153 6.55228475,13 6,13 Z M2.5,5.27 L6,8.77 L6.28,9.05 L6,9 C5.45,9 5,9.45 5,10 C5,10.55 5.45,11 6,11 C6.55,11 7,10.55 7,10 C7,9.9 6.97,9.81 6.94,9.72 L9.75,12.53 C9.04,12.64 8.5,13.26 8.5,14 C8.5,14.83 9.17,15.5 10,15.5 C10.74,15.5 11.36,14.96 11.47,14.25 L14.28,17.06 C14.19,17.03 14.1,17 14,17 C13.45,17 13,17.45 13,18 C13,18.55 13.45,19 14,19 C14.55,19 15,18.55 15,18 C15,17.9 14.97,17.81 14.94,17.72 L18.72,21.5 L18.73,21.5 L20.14,20.09 L3.91,3.86 L2.5,5.27 Z" id="path-1"></path>
    </defs>
    <g id="icon/image/blur_off_24px" stroke="none" stroke-width="1" fill="none" fill-rule="evenodd">
        <mask id="mask-2" fill="white">
            <use xlink:href="#path-1"></use>
        </mask>
        <g fill-rule="nonzero"></g>
        <g id="✱-/-Color-/-Icons-/-Black-/-Inactive" mask="url(#mask-2)" fill="#000000" fill-opacity="0.54">
            <rect id="Rectangle" x="0" y="0" width="24" height="24"></rect>
        </g>
    </g>
</svg>