<?xml version="1.0" encoding="UTF-8"?>
<svg width="24px" height="24px" viewBox="0 0 24 24" version="1.1" xmlns="http://www.w3.org/2000/svg" xmlns:xlink="http://www.w3.org/1999/xlink">
    <!-- Generator: Sketch 50 (54983) - http://www.bohemiancoding.com/sketch -->
    <title>icon/image/brightness_4_24px_outlined</title>
    <desc>Created with Sketch.</desc>
    <defs>
        <path d="M20,8.69 L20,4 L15.31,4 L12,0.69 L8.69,4 L4,4 L4,8.69 L0.69,12 L4,15.31 L4,20 L8.69,20 L12,23.31 L15.31,20 L20,20 L20,15.31 L23.31,12 L20,8.69 Z M18,14.48 L18,18 L14.48,18 L12,20.48 L9.52,18 L6,18 L6,14.48 L3.52,12 L6,9.52 L6,6 L9.52,6 L12,3.52 L14.48,6 L18,6 L18,9.52 L20.48,12 L18,14.48 Z M12.29,7 C11.55,7 10.84,7.17 10.21,7.46 C11.93,8.25 13.13,9.99 13.13,12 C13.13,14.01 11.93,15.75 10.21,16.54 C10.84,16.83 11.55,17 12.29,17 C15.05,17 17.29,14.76 17.29,12 C17.29,9.24 15.05,7 12.29,7 Z" id="path-1"></path>
    </defs>
    <g id="icon/image/brightness_4_24px" stroke="none" stroke-width="1" fill="none" fill-rule="evenodd">
        <mask id="mask-2" fill="white">
            <use xlink:href="#path-1"></use>
        </mask>
        <g fill-rule="nonzero"></g>
        <g id="✱-/-Color-/-Icons-/-Black-/-Inactive" mask="url(#mask-2)" fill="#000000" fill-opacity="0.54">
            <rect id="Rectangle" x="0" y="0" width="24" height="24"></rect>
        </g>
    </g>
</svg>