<?xml version="1.0" encoding="UTF-8"?>
<svg width="24px" height="24px" viewBox="0 0 24 24" version="1.1" xmlns="http://www.w3.org/2000/svg" xmlns:xlink="http://www.w3.org/1999/xlink">
    <!-- Generator: Sketch 50 (54983) - http://www.bohemiancoding.com/sketch -->
    <title>icon/image/brush_24px_outlined</title>
    <desc>Created with Sketch.</desc>
    <defs>
        <path d="M7.49875,16 C8.04875,16 8.49875,16.45 8.49875,17 C8.49875,18.1 7.59875,19 6.49875,19 C6.32875,19 6.16875,18.98 5.99875,18.95 C6.30875,18.4 6.49875,17.74 6.49875,17 C6.49875,16.45 6.94875,16 7.49875,16 Z M19.16875,3 C18.90875,3 18.65875,3.1 18.45875,3.29 L9.49875,12.25 L12.24875,15 L21.20875,6.04 C21.59875,5.65 21.59875,5.02 21.20875,4.63 L19.86875,3.29 C19.66875,3.09 19.41875,3 19.16875,3 Z M7.49875,14 C5.83875,14 4.49875,15.34 4.49875,17 C4.49875,18.31 3.33875,19 2.49875,19 C3.41875,20.22 4.98875,21 6.49875,21 C8.70875,21 10.49875,19.21 10.49875,17 C10.49875,15.34 9.15875,14 7.49875,14 Z" id="path-1"></path>
    </defs>
    <g id="icon/image/brush_24px" stroke="none" stroke-width="1" fill="none" fill-rule="evenodd">
        <mask id="mask-2" fill="white">
            <use xlink:href="#path-1"></use>
        </mask>
        <g fill-rule="nonzero"></g>
        <g id="✱-/-Color-/-Icons-/-Black-/-Inactive" mask="url(#mask-2)" fill="#000000" fill-opacity="0.54">
            <rect id="Rectangle" x="0" y="0" width="24" height="24"></rect>
        </g>
    </g>
</svg>