<?xml version="1.0" encoding="UTF-8"?>
<svg width="24px" height="24px" viewBox="0 0 24 24" version="1.1" xmlns="http://www.w3.org/2000/svg" xmlns:xlink="http://www.w3.org/1999/xlink">
    <!-- Generator: Sketch 50 (54983) - http://www.bohemiancoding.com/sketch -->
    <title>icon/image/camera_24px_outlined</title>
    <desc>Created with Sketch.</desc>
    <defs>
        <path d="M14.25,2.26 L14.17,2.22 L14.16,2.24 C13.46,2.09 12.74,2 12,2 C6.48,2 2,6.48 2,12 C2,17.52 6.48,22 12,22 C17.52,22 22,17.52 22,12 C22,7.25 18.69,3.28 14.25,2.26 Z M19.41,9 L11.42,9 L14.13,4.3 C16.53,4.96 18.48,6.72 19.41,9 Z M13.1,4.08 L10.27,9 L9.12,11 L6.4,6.3 C7.84,4.88 9.82,4 12,4 C12.37,4 12.74,4.03 13.1,4.08 Z M5.7,7.09 L8.54,12 L9.69,14 L4.26,14 C4.1,13.36 4,12.69 4,12 C4,10.15 4.64,8.45 5.7,7.09 Z M4.59,15 L12.57,15 L9.86,19.7 C7.46,19.03 5.52,17.28 4.59,15 Z M10.9,19.91 L14.89,13 L17.61,17.7 C16.16,19.12 14.18,20 12,20 C11.62,20 11.26,19.96 10.9,19.91 Z M18.3,16.91 L14.3,10 L19.73,10 C19.9,10.64 20,11.31 20,12 C20,13.85 19.36,15.55 18.3,16.91 Z" id="path-1"></path>
    </defs>
    <g id="icon/image/camera_24px" stroke="none" stroke-width="1" fill="none" fill-rule="evenodd">
        <mask id="mask-2" fill="white">
            <use xlink:href="#path-1"></use>
        </mask>
        <g fill-rule="nonzero"></g>
        <g id="✱-/-Color-/-Icons-/-Black-/-Inactive" mask="url(#mask-2)" fill="#000000" fill-opacity="0.54">
            <rect id="Rectangle" x="0" y="0" width="24" height="24"></rect>
        </g>
    </g>
</svg>