<?xml version="1.0" encoding="UTF-8"?>
<svg width="24px" height="24px" viewBox="0 0 24 24" version="1.1" xmlns="http://www.w3.org/2000/svg" xmlns:xlink="http://www.w3.org/1999/xlink">
    <!-- Generator: Sketch 50 (54983) - http://www.bohemiancoding.com/sketch -->
    <title>icon/image/camera_roll_24px_outlined</title>
    <desc>Created with Sketch.</desc>
    <defs>
        <path d="M14,5.5 C14,4.4 13.1,3.5 12,3.5 L11,3.5 L11,2.5 C11,1.95 10.55,1.5 10,1.5 L6,1.5 C5.45,1.5 5,1.95 5,2.5 L5,3.5 L4,3.5 C2.9,3.5 2,4.4 2,5.5 L2,20.5 C2,21.6 2.9,22.5 4,22.5 L12,22.5 C13.1,22.5 14,21.6 14,20.5 L22,20.5 L22,5.5 L14,5.5 Z M20,18.5 L12,18.5 L12,20.5 L4,20.5 L4,5.5 L7,5.5 L7,3.5 L9,3.5 L9,5.5 L12,5.5 L12,7.5 L20,7.5 L20,18.5 Z M9,15.5 L11,15.5 L11,17.5 L9,17.5 L9,15.5 Z M9,8.5 L11,8.5 L11,10.5 L9,10.5 L9,8.5 Z M13,15.5 L15,15.5 L15,17.5 L13,17.5 L13,15.5 Z M13,8.5 L15,8.5 L15,10.5 L13,10.5 L13,8.5 Z M17,15.5 L19,15.5 L19,17.5 L17,17.5 L17,15.5 Z M17,8.5 L19,8.5 L19,10.5 L17,10.5 L17,8.5 Z" id="path-1"></path>
    </defs>
    <g id="icon/image/camera_roll_24px" stroke="none" stroke-width="1" fill="none" fill-rule="evenodd">
        <mask id="mask-2" fill="white">
            <use xlink:href="#path-1"></use>
        </mask>
        <g fill-rule="nonzero"></g>
        <g id="✱-/-Color-/-Icons-/-Black-/-Inactive" mask="url(#mask-2)" fill="#000000" fill-opacity="0.54">
            <rect id="Rectangle" x="0" y="0" width="24" height="24"></rect>
        </g>
    </g>
</svg>