<?xml version="1.0" encoding="UTF-8"?>
<svg width="24px" height="24px" viewBox="0 0 24 24" version="1.1" xmlns="http://www.w3.org/2000/svg" xmlns:xlink="http://www.w3.org/1999/xlink">
    <!-- Generator: Sketch 50 (54983) - http://www.bohemiancoding.com/sketch -->
    <title>icon/image/color_lens_24px_outlined</title>
    <desc>Created with Sketch.</desc>
    <defs>
        <path d="M12,22 C6.49,22 2,17.51 2,12 C2,6.49 6.49,2 12,2 C17.51,2 22,6.04 22,11 C22,14.31 19.31,17 16,17 L14.23,17 C13.95,17 13.73,17.22 13.73,17.5 C13.73,17.62 13.78,17.73 13.86,17.83 C14.27,18.3 14.5,18.89 14.5,19.5 C14.5,20.88 13.38,22 12,22 Z M12,4 C7.59,4 4,7.59 4,12 C4,16.41 7.59,20 12,20 C12.28,20 12.5,19.78 12.5,19.5 C12.5,19.34 12.42,19.22 12.36,19.15 C11.95,18.69 11.73,18.1 11.73,17.5 C11.73,16.12 12.85,15 14.23,15 L16,15 C18.21,15 20,13.21 20,11 C20,7.14 16.41,4 12,4 Z M6.5,10 C5.67157288,10 5,10.6715729 5,11.5 C5,12.3284271 5.67157288,13 6.5,13 C7.32842712,13 8,12.3284271 8,11.5 C8,10.6715729 7.32842712,10 6.5,10 Z M9.5,6 C8.67157288,6 8,6.67157288 8,7.5 C8,8.32842712 8.67157288,9 9.5,9 C10.3284271,9 11,8.32842712 11,7.5 C11,6.67157288 10.3284271,6 9.5,6 Z M14.5,6 C13.6715729,6 13,6.67157288 13,7.5 C13,8.32842712 13.6715729,9 14.5,9 C15.3284271,9 16,8.32842712 16,7.5 C16,6.67157288 15.3284271,6 14.5,6 Z M17.5,10 C16.6715729,10 16,10.6715729 16,11.5 C16,12.3284271 16.6715729,13 17.5,13 C18.3284271,13 19,12.3284271 19,11.5 C19,10.6715729 18.3284271,10 17.5,10 Z" id="path-1"></path>
    </defs>
    <g id="icon/image/color_lens_24px" stroke="none" stroke-width="1" fill="none" fill-rule="evenodd">
        <mask id="mask-2" fill="white">
            <use xlink:href="#path-1"></use>
        </mask>
        <g fill-rule="nonzero"></g>
        <g id="✱-/-Color-/-Icons-/-Black-/-Inactive" mask="url(#mask-2)" fill="#000000" fill-opacity="0.54">
            <rect id="Rectangle" x="0" y="0" width="24" height="24"></rect>
        </g>
    </g>
</svg>