<?xml version="1.0" encoding="UTF-8"?>
<svg width="24px" height="24px" viewBox="0 0 24 24" version="1.1" xmlns="http://www.w3.org/2000/svg" xmlns:xlink="http://www.w3.org/1999/xlink">
    <!-- Generator: Sketch 50 (54983) - http://www.bohemiancoding.com/sketch -->
    <title>icon/image/crop_rotate_24px_outlined</title>
    <desc>Created with Sketch.</desc>
    <defs>
        <path d="M7.47,21.49 C4.2,19.93 1.86,16.76 1.5,13 L0,13 C0.51,19.16 5.66,24 11.95,24 C12.18,24 12.39,23.98 12.61,23.97 L8.8,20.15 L7.47,21.49 Z M12.05,0 C11.82,0 11.61,0.02 11.39,0.04 L15.2,3.85 L16.53,2.52 C19.8,4.07 22.14,7.24 22.5,11 L24,11 C23.49,4.84 18.34,0 12.05,0 Z M16,14 L18,14 L18,8 C18,6.89 17.1,6 16,6 L10,6 L10,8 L16,8 L16,14 Z M8,16 L8,4 L6,4 L6,6 L4,6 L4,8 L6,8 L6,16 C6,17.1 6.89,18 8,18 L16,18 L16,20 L18,20 L18,18 L20,18 L20,16 L8,16 Z" id="path-1"></path>
    </defs>
    <g id="icon/image/crop_rotate_24px" stroke="none" stroke-width="1" fill="none" fill-rule="evenodd">
        <mask id="mask-2" fill="white">
            <use xlink:href="#path-1"></use>
        </mask>
        <g fill-rule="nonzero"></g>
        <g id="✱-/-Color-/-Icons-/-Black-/-Inactive" mask="url(#mask-2)" fill="#000000" fill-opacity="0.54">
            <rect id="Rectangle" x="0" y="0" width="24" height="24"></rect>
        </g>
    </g>
</svg>