<?xml version="1.0" encoding="UTF-8"?>
<svg width="24px" height="24px" viewBox="0 0 24 24" version="1.1" xmlns="http://www.w3.org/2000/svg" xmlns:xlink="http://www.w3.org/1999/xlink">
    <!-- Generator: Sketch 50 (54983) - http://www.bohemiancoding.com/sketch -->
    <title>icon/image/crop_24px_outlined</title>
    <desc>Created with Sketch.</desc>
    <defs>
        <path d="M17,15 L19,15 L19,7 C19,5.9 18.1,5 17,5 L9,5 L9,7 L17,7 L17,15 Z M7,17 L7,1 L5,1 L5,5 L1,5 L1,7 L5,7 L5,17 C5,18.1 5.9,19 7,19 L17,19 L17,23 L19,23 L19,19 L23,19 L23,17 L7,17 Z" id="path-1"></path>
    </defs>
    <g id="icon/image/crop_24px" stroke="none" stroke-width="1" fill="none" fill-rule="evenodd">
        <mask id="mask-2" fill="white">
            <use xlink:href="#path-1"></use>
        </mask>
        <g fill-rule="nonzero"></g>
        <g id="✱-/-Color-/-Icons-/-Black-/-Inactive" mask="url(#mask-2)" fill="#000000" fill-opacity="0.54">
            <rect id="Rectangle" x="0" y="0" width="24" height="24"></rect>
        </g>
    </g>
</svg>