<?xml version="1.0" encoding="UTF-8"?>
<svg width="24px" height="24px" viewBox="0 0 24 24" version="1.1" xmlns="http://www.w3.org/2000/svg" xmlns:xlink="http://www.w3.org/1999/xlink">
    <!-- Generator: Sketch 50 (54983) - http://www.bohemiancoding.com/sketch -->
    <title>icon/image/exposure_plus_2_24px_outlined</title>
    <desc>Created with Sketch.</desc>
    <defs>
        <path d="M16.05,16.79 L18.91,13.72 C19.29,13.33 19.63,12.93 19.95,12.54 C20.27,12.15 20.54,11.76 20.77,11.37 C21,10.98 21.18,10.59 21.31,10.2 C21.44,9.81 21.5,9.41 21.5,9.02 C21.5,8.49 21.41,8 21.23,7.56 C21.05,7.12 20.79,6.75 20.45,6.45 C20.11,6.14 19.68,5.91 19.19,5.74 C18.68,5.58 18.11,5.5 17.47,5.5 C16.78,5.5 16.16,5.61 15.62,5.82 C15.08,6.03 14.62,6.33 14.26,6.7 C13.89,7.07 13.61,7.5 13.42,8 C13.24,8.47 13.15,8.97 13.14,9.5 L15.28,9.5 C15.29,9.19 15.33,8.9 15.41,8.63 C15.5,8.34 15.64,8.09 15.81,7.88 C15.99,7.67 16.22,7.51 16.49,7.39 C16.76,7.27 17.09,7.21 17.45,7.21 C17.76,7.21 18.03,7.26 18.26,7.36 C18.49,7.46 18.69,7.61 18.85,7.79 C19.01,7.97 19.13,8.19 19.22,8.44 C19.3,8.69 19.35,8.96 19.35,9.25 C19.35,9.47 19.32,9.68 19.27,9.9 C19.21,10.12 19.12,10.35 18.98,10.6 C18.84,10.85 18.66,11.13 18.42,11.43 C18.19,11.73 17.9,12.08 17.54,12.46 L13.37,17.01 L13.37,18.5 L22,18.5 L22,16.79 L16.05,16.79 Z M8,7.5 L6,7.5 L6,11.5 L2,11.5 L2,13.5 L6,13.5 L6,17.5 L8,17.5 L8,13.5 L12,13.5 L12,11.5 L8,11.5 L8,7.5 Z" id="path-1"></path>
    </defs>
    <g id="icon/image/exposure_plus_2_24px" stroke="none" stroke-width="1" fill="none" fill-rule="evenodd">
        <mask id="mask-2" fill="white">
            <use xlink:href="#path-1"></use>
        </mask>
        <g fill-rule="nonzero"></g>
        <g id="✱-/-Color-/-Icons-/-Black-/-Inactive" mask="url(#mask-2)" fill="#000000" fill-opacity="0.54">
            <rect id="Rectangle" x="0" y="0" width="24" height="24"></rect>
        </g>
    </g>
</svg>