<?xml version="1.0" encoding="UTF-8"?>
<svg width="24px" height="24px" viewBox="0 0 24 24" version="1.1" xmlns="http://www.w3.org/2000/svg" xmlns:xlink="http://www.w3.org/1999/xlink">
    <!-- Generator: Sketch 50 (54983) - http://www.bohemiancoding.com/sketch -->
    <title>icon/image/filter_3_24px_outlined</title>
    <desc>Created with Sketch.</desc>
    <defs>
        <path d="M21,1 L7,1 C5.9,1 5,1.9 5,3 L5,17 C5,18.1 5.9,19 7,19 L21,19 C22.1,19 23,18.1 23,17 L23,3 C23,1.9 22.1,1 21,1 Z M21,17 L7,17 L7,3 L21,3 L21,17 Z M3,5 L1,5 L1,21 C1,22.1 1.9,23 3,23 L19,23 L19,21 L3,21 L3,5 Z M17,13 L17,11.5 C17,10.67 16.33,10 15.5,10 C16.33,10 17,9.33 17,8.5 L17,7 C17,5.89 16.1,5 15,5 L11,5 L11,7 L15,7 L15,9 L13,9 L13,11 L15,11 L15,13 L11,13 L11,15 L15,15 C16.1,15 17,14.11 17,13 Z" id="path-1"></path>
    </defs>
    <g id="icon/image/filter_3_24px" stroke="none" stroke-width="1" fill="none" fill-rule="evenodd">
        <mask id="mask-2" fill="white">
            <use xlink:href="#path-1"></use>
        </mask>
        <g fill-rule="nonzero"></g>
        <g id="✱-/-Color-/-Icons-/-Black-/-Inactive" mask="url(#mask-2)" fill="#000000" fill-opacity="0.54">
            <rect id="Rectangle" x="0" y="0" width="24" height="24"></rect>
        </g>
    </g>
</svg>