<?xml version="1.0" encoding="UTF-8"?>
<svg width="24px" height="24px" viewBox="0 0 24 24" version="1.1" xmlns="http://www.w3.org/2000/svg" xmlns:xlink="http://www.w3.org/1999/xlink">
    <!-- Generator: Sketch 50 (54983) - http://www.bohemiancoding.com/sketch -->
    <title>icon/image/grid_off_24px_outlined</title>
    <desc>Created with Sketch.</desc>
    <defs>
        <path d="M8.565,3.42857143 L8.565,4.31820075 L10.565,6.31736776 L10.565,3.42857143 L14.565,3.42857143 L14.565,7.42690546 L11.675,7.42690546 L13.675,9.42607247 L14.565,9.42607247 L14.565,10.3157018 L16.565,12.3148688 L16.565,9.42607247 L20.565,9.42607247 L20.565,13.4244065 L17.675,13.4244065 L19.675,15.4235735 L20.565,15.4235735 L20.565,16.3132028 L22.565,18.3123698 L22.565,3.42857143 C22.565,2.32902957 21.665,1.42940441 20.565,1.42940441 L5.675,1.42940441 L7.675,3.42857143 L8.565,3.42857143 Z M16.565,3.42857143 L20.565,3.42857143 L20.565,7.42690546 L16.565,7.42690546 L16.565,3.42857143 Z M1.975,0.569762599 L0.565,1.97917534 L2.565,3.97834236 L2.565,19.4219075 C2.565,20.5214494 3.465,21.4210746 4.565,21.4210746 L20.015,21.4210746 L22.025,23.4302374 L23.435,22.0208247 L1.975,0.569762599 Z M10.565,11.9750104 L12.015,13.4244065 L10.565,13.4244065 L10.565,11.9750104 Z M4.565,5.97750937 L6.015,7.42690546 L4.565,7.42690546 L4.565,5.97750937 Z M8.565,19.4219075 L4.565,19.4219075 L4.565,15.4235735 L8.565,15.4235735 L8.565,19.4219075 Z M8.565,13.4244065 L4.565,13.4244065 L4.565,9.42607247 L8.015,9.42607247 L8.565,9.9758434 L8.565,13.4244065 Z M14.565,19.4219075 L10.565,19.4219075 L10.565,15.4235735 L14.015,15.4235735 L14.565,15.9733444 L14.565,19.4219075 Z M16.565,19.4219075 L16.565,17.9725115 L18.015,19.4219075 L16.565,19.4219075 Z" id="path-1"></path>
    </defs>
    <g id="icon/image/grid_off_24px" stroke="none" stroke-width="1" fill="none" fill-rule="evenodd">
        <mask id="mask-2" fill="white">
            <use xlink:href="#path-1"></use>
        </mask>
        <g fill-rule="nonzero"></g>
        <g id="✱-/-Color-/-Icons-/-Black-/-Inactive" mask="url(#mask-2)" fill="#000000" fill-opacity="0.54">
            <rect id="Rectangle" x="0" y="0" width="24" height="24"></rect>
        </g>
    </g>
</svg>