<?xml version="1.0" encoding="UTF-8"?>
<svg width="24px" height="24px" viewBox="0 0 24 24" version="1.1" xmlns="http://www.w3.org/2000/svg" xmlns:xlink="http://www.w3.org/1999/xlink">
    <!-- Generator: Sketch 50 (54983) - http://www.bohemiancoding.com/sketch -->
    <title>icon/image/healing_24px_outlined</title>
    <desc>Created with Sketch.</desc>
    <defs>
        <path d="M17.745,11.9999928 L21.725,8.0199928 C22.115,7.6299928 22.115,6.9999928 21.725,6.6099928 L17.385,2.2699928 C17.1981685,2.08274013 16.9445176,1.9775072 16.68,1.9775072 C16.4154824,1.9775072 16.1618315,2.08274013 15.975,2.2699928 L11.995,6.2499928 L8.015,2.2699928 C7.815,2.0799928 7.565,1.9799928 7.305,1.9799928 C7.055,1.9799928 6.795,2.0799928 6.605,2.2699928 L2.265,6.6099928 C1.875,6.9999928 1.875,7.6299928 2.265,8.0199928 L6.245,11.9999928 L2.265,15.9799928 C1.875,16.3699928 1.875,16.9999928 2.265,17.3899928 L6.605,21.7299928 C6.995,22.1199928 7.625,22.1199928 8.015,21.7299928 L11.995,17.7499928 L15.975,21.7299928 C16.175,21.9299928 16.425,22.0199928 16.685,22.0199928 C16.945,22.0199928 17.195,21.9199928 17.395,21.7299928 L21.735,17.3899928 C22.125,16.9999928 22.125,16.3699928 21.735,15.9799928 L17.745,11.9999928 Z M12.015,8.9799928 C12.565,8.9799928 13.015,9.4299928 13.015,9.9799928 C13.015,10.5299928 12.565,10.9799928 12.015,10.9799928 C11.465,10.9799928 11.015,10.5299928 11.015,9.9799928 C11.015,9.4299928 11.465,8.9799928 12.015,8.9799928 Z M7.305,10.9399928 L3.675,7.3199928 L7.305,3.6899928 L10.925,7.3099928 L7.305,10.9399928 Z M10.015,12.9799928 C9.465,12.9799928 9.015,12.5299928 9.015,11.9799928 C9.015,11.4299928 9.465,10.9799928 10.015,10.9799928 C10.565,10.9799928 11.015,11.4299928 11.015,11.9799928 C11.015,12.5299928 10.565,12.9799928 10.015,12.9799928 Z M12.015,14.9799928 C11.465,14.9799928 11.015,14.5299928 11.015,13.9799928 C11.015,13.4299928 11.465,12.9799928 12.015,12.9799928 C12.565,12.9799928 13.015,13.4299928 13.015,13.9799928 C13.015,14.5299928 12.565,14.9799928 12.015,14.9799928 Z M14.015,10.9799928 C14.565,10.9799928 15.015,11.4299928 15.015,11.9799928 C15.015,12.5299928 14.565,12.9799928 14.015,12.9799928 C13.465,12.9799928 13.015,12.5299928 13.015,11.9799928 C13.015,11.4299928 13.465,10.9799928 14.015,10.9799928 Z M16.675,20.3199928 L13.045,16.6999928 L16.675,13.0699928 L20.295,16.6899928 L16.675,20.3199928 Z" id="path-1"></path>
    </defs>
    <g id="icon/image/healing_24px" stroke="none" stroke-width="1" fill="none" fill-rule="evenodd">
        <mask id="mask-2" fill="white">
            <use xlink:href="#path-1"></use>
        </mask>
        <g fill-rule="nonzero"></g>
        <g id="✱-/-Color-/-Icons-/-Black-/-Inactive" mask="url(#mask-2)" fill="#000000" fill-opacity="0.54">
            <rect id="Rectangle" x="0" y="0" width="24" height="24"></rect>
        </g>
    </g>
</svg>