<?xml version="1.0" encoding="UTF-8"?>
<svg width="24px" height="24px" viewBox="0 0 24 24" version="1.1" xmlns="http://www.w3.org/2000/svg" xmlns:xlink="http://www.w3.org/1999/xlink">
    <!-- Generator: Sketch 50 (54983) - http://www.bohemiancoding.com/sketch -->
    <title>icon/image/leak_remove_24px_outlined</title>
    <desc>Created with Sketch.</desc>
    <defs>
        <path d="M13.93,3.07 L11.93,3.07 C11.93,4.42 11.62,5.7 11.09,6.84 L12.58,8.33 C13.44,6.77 13.93,4.98 13.93,3.07 Z M20.93,12.07 L20.93,10.07 C19.02,10.07 17.23,10.56 15.66,11.42 L17.15,12.91 C18.3,12.38 19.58,12.07 20.93,12.07 Z M20.93,16.07 L20.93,14.07 C20.14,14.07 19.39,14.2 18.69,14.44 L20.37,16.12 C20.56,16.11 20.74,16.07 20.93,16.07 Z M9.93,3.07 L7.93,3.07 C7.93,3.26 7.89,3.44 7.87,3.63 L9.55,5.31 C9.8,4.61 9.93,3.85 9.93,3.07 Z M4.34,2.93 L2.93,4.34 L5.77,7.18 C4.96,7.74 3.99,8.07 2.93,8.07 L2.93,10.07 C4.54,10.07 6.02,9.52 7.2,8.61 L8.63,10.04 C7.07,11.31 5.09,12.07 2.93,12.07 L2.93,14.07 C5.65,14.07 8.13,13.08 10.04,11.45 L12.55,13.96 C10.92,15.88 9.93,18.36 9.93,21.07 L11.93,21.07 C11.93,18.91 12.69,16.93 13.96,15.37 L15.39,16.8 C14.48,17.98 13.93,19.46 13.93,21.07 L15.93,21.07 C15.93,20.01 16.26,19.04 16.82,18.23 L19.66,21.07 L21.07,19.66 L4.34,2.93 Z" id="path-1"></path>
    </defs>
    <g id="icon/image/leak_remove_24px" stroke="none" stroke-width="1" fill="none" fill-rule="evenodd">
        <mask id="mask-2" fill="white">
            <use xlink:href="#path-1"></use>
        </mask>
        <g fill-rule="nonzero"></g>
        <g id="✱-/-Color-/-Icons-/-Black-/-Inactive" mask="url(#mask-2)" fill="#000000" fill-opacity="0.54">
            <rect id="Rectangle" x="0" y="0" width="24" height="24"></rect>
        </g>
    </g>
</svg>