<?xml version="1.0" encoding="UTF-8"?>
<svg width="24px" height="24px" viewBox="0 0 24 24" version="1.1" xmlns="http://www.w3.org/2000/svg" xmlns:xlink="http://www.w3.org/1999/xlink">
    <!-- Generator: Sketch 50 (54983) - http://www.bohemiancoding.com/sketch -->
    <title>icon/image/leak_add_24px_outlined</title>
    <desc>Created with Sketch.</desc>
    <defs>
        <path d="M6,3 L3,3 L3,6 C4.66,6 6,4.66 6,3 Z M14,3 L12,3 C12,7.97 7.97,12 3,12 L3,14 C9.08,14 14,9.07 14,3 Z M10,3 L8,3 C8,5.76 5.76,8 3,8 L3,10 C6.87,10 10,6.87 10,3 Z M10,21 L12,21 C12,16.03 16.03,12 21,12 L21,10 C14.93,10 10,14.93 10,21 Z M18,21 L21,21 L21,18 C19.34,18 18,19.34 18,21 Z M14,21 L16,21 C16,18.24 18.24,16 21,16 L21,14 C17.13,14 14,17.13 14,21 Z" id="path-1"></path>
    </defs>
    <g id="icon/image/leak_add_24px" stroke="none" stroke-width="1" fill="none" fill-rule="evenodd">
        <mask id="mask-2" fill="white">
            <use xlink:href="#path-1"></use>
        </mask>
        <g fill-rule="nonzero"></g>
        <g id="✱-/-Color-/-Icons-/-Black-/-Inactive" mask="url(#mask-2)" fill="#000000" fill-opacity="0.54">
            <rect id="Rectangle" x="0" y="0" width="24" height="24"></rect>
        </g>
    </g>
</svg>