<?xml version="1.0" encoding="UTF-8"?>
<svg width="24px" height="24px" viewBox="0 0 24 24" version="1.1" xmlns="http://www.w3.org/2000/svg" xmlns:xlink="http://www.w3.org/1999/xlink">
    <!-- Generator: Sketch 50 (54983) - http://www.bohemiancoding.com/sketch -->
    <title>icon/image/music_note_24px_outlined</title>
    <desc>Created with Sketch.</desc>
    <defs>
        <path d="M12,3 L12.01,13.55 C11.42,13.21 10.74,13 10.01,13 C7.79,13 6,14.79 6,17 C6,19.21 7.79,21 10.01,21 C12.23,21 14,19.21 14,17 L14,7 L18,7 L18,3 L12,3 Z M10.01,19 C8.91,19 8.01,18.1 8.01,17 C8.01,15.9 8.91,15 10.01,15 C11.11,15 12.01,15.9 12.01,17 C12.01,18.1 11.11,19 10.01,19 Z" id="path-1"></path>
    </defs>
    <g id="icon/image/music_note_24px" stroke="none" stroke-width="1" fill="none" fill-rule="evenodd">
        <mask id="mask-2" fill="white">
            <use xlink:href="#path-1"></use>
        </mask>
        <g fill-rule="nonzero"></g>
        <g id="✱-/-Color-/-Icons-/-Black-/-Inactive" mask="url(#mask-2)" fill="#000000" fill-opacity="0.54">
            <rect id="Rectangle" x="0" y="0" width="24" height="24"></rect>
        </g>
    </g>
</svg>