<?xml version="1.0" encoding="UTF-8"?>
<svg width="24px" height="24px" viewBox="0 0 24 24" version="1.1" xmlns="http://www.w3.org/2000/svg" xmlns:xlink="http://www.w3.org/1999/xlink">
    <!-- Generator: Sketch 50 (54983) - http://www.bohemiancoding.com/sketch -->
    <title>icon/image/panorama_wide_angle_24px_outlined</title>
    <desc>Created with Sketch.</desc>
    <defs>
        <path d="M12,6 C14.45,6 16.71,6.2 19.29,6.64 C19.76,8.42 20,10.22 20,12 C20,13.78 19.76,15.58 19.29,17.36 C16.71,17.8 14.45,18 12,18 C9.55,18 7.29,17.8 4.71,17.36 C4.24,15.58 4,13.78 4,12 C4,10.22 4.24,8.42 4.71,6.64 C7.29,6.2 9.55,6 12,6 Z M12,4 C9.27,4 6.78,4.24 4.05,4.72 L3.12,4.88 L2.87,5.78 C2.29,7.85 2,9.93 2,12 C2,14.07 2.29,16.15 2.87,18.22 L3.12,19.11 L4.05,19.27 C6.78,19.76 9.27,20 12,20 C14.73,20 17.22,19.76 19.95,19.28 L20.88,19.12 L21.13,18.23 C21.71,16.15 22,14.07 22,12 C22,9.93 21.71,7.85 21.13,5.78 L20.88,4.89 L19.95,4.73 C17.22,4.24 14.73,4 12,4 Z" id="path-1"></path>
    </defs>
    <g id="icon/image/panorama_wide_angle_24px" stroke="none" stroke-width="1" fill="none" fill-rule="evenodd">
        <mask id="mask-2" fill="white">
            <use xlink:href="#path-1"></use>
        </mask>
        <g fill-rule="nonzero"></g>
        <g id="✱-/-Color-/-Icons-/-Black-/-Inactive" mask="url(#mask-2)" fill="#000000" fill-opacity="0.54">
            <rect id="Rectangle" x="0" y="0" width="24" height="24"></rect>
        </g>
    </g>
</svg>