<?xml version="1.0" encoding="UTF-8"?>
<svg width="24px" height="24px" viewBox="0 0 24 24" version="1.1" xmlns="http://www.w3.org/2000/svg" xmlns:xlink="http://www.w3.org/1999/xlink">
    <!-- Generator: Sketch 50 (54983) - http://www.bohemiancoding.com/sketch -->
    <title>icon/image/panorama_24px_outlined</title>
    <desc>Created with Sketch.</desc>
    <defs>
        <path d="M21,4 L3,4 C1.9,4 1,4.9 1,6 L1,18 C1,19.1 1.9,20 3,20 L21,20 C22.1,20 23,19.1 23,18 L23,6 C23,4.9 22.1,4 21,4 Z M21,18 L3,18 L3,6 L21,6 L21,18 Z M14.5,11 L11,15.51 L8.5,12.5 L5,17 L19,17 L14.5,11 Z" id="path-1"></path>
    </defs>
    <g id="icon/image/panorama_24px" stroke="none" stroke-width="1" fill="none" fill-rule="evenodd">
        <mask id="mask-2" fill="white">
            <use xlink:href="#path-1"></use>
        </mask>
        <g fill-rule="nonzero"></g>
        <g id="✱-/-Color-/-Icons-/-Black-/-Inactive" mask="url(#mask-2)" fill="#000000" fill-opacity="0.54">
            <rect id="Rectangle" x="0" y="0" width="24" height="24"></rect>
        </g>
    </g>
</svg>