<?xml version="1.0" encoding="UTF-8"?>
<svg width="24px" height="24px" viewBox="0 0 24 24" version="1.1" xmlns="http://www.w3.org/2000/svg" xmlns:xlink="http://www.w3.org/1999/xlink">
    <!-- Generator: Sketch 50 (54983) - http://www.bohemiancoding.com/sketch -->
    <title>icon/image/photo_size_select_actual_24px_outlined</title>
    <desc>Created with Sketch.</desc>
    <defs>
        <path d="M21,3 L3,3 C2,3 1,4 1,5 L1,19 C1,20.1 1.9,21 3,21 L21,21 C22,21 23,20 23,19 L23,5 C23,4 22,3 21,3 Z M21,18.92 C20.98,18.95 20.94,18.98 20.92,19 L3,19 L3,5.08 L3.08,5 L20.91,5 C20.94,5.02 20.97,5.06 20.99,5.08 L20.99,18.92 L21,18.92 Z M11,15.51 L8.5,12.5 L5,17 L19,17 L14.5,11 L11,15.51 Z" id="path-1"></path>
    </defs>
    <g id="icon/image/photo_size_select_actual_24px" stroke="none" stroke-width="1" fill="none" fill-rule="evenodd">
        <mask id="mask-2" fill="white">
            <use xlink:href="#path-1"></use>
        </mask>
        <g fill-rule="nonzero"></g>
        <g id="✱-/-Color-/-Icons-/-Black-/-Inactive" mask="url(#mask-2)" fill="#000000" fill-opacity="0.54">
            <rect id="Rectangle" x="0" y="0" width="24" height="24"></rect>
        </g>
    </g>
</svg>