<?xml version="1.0" encoding="UTF-8"?>
<svg width="24px" height="24px" viewBox="0 0 24 24" version="1.1" xmlns="http://www.w3.org/2000/svg" xmlns:xlink="http://www.w3.org/1999/xlink">
    <!-- Generator: Sketch 50 (54983) - http://www.bohemiancoding.com/sketch -->
    <title>icon/image/photo_filter_24px_outlined</title>
    <desc>Created with Sketch.</desc>
    <defs>
        <path d="M19,10 L19,19 L4.98,19 L4.98,5 L13.98,5 L13.98,3 L5,3 C3.9,3 3,3.9 3,5 L3,19 C3,20.1 3.9,21 5,21 L19,21 C20.1,21 21,20.1 21,19 L21,10 L19,10 Z M16.06,7.94 L17,10 L17.94,7.94 L20,7 L17.94,6.06 L17,4 L16.06,6.06 L14,7 L16.06,7.94 Z M12,8 L10.75,10.75 L8,12 L10.75,13.25 L12,16 L13.25,13.25 L16,12 L13.25,10.75 L12,8 Z" id="path-1"></path>
    </defs>
    <g id="icon/image/photo_filter_24px" stroke="none" stroke-width="1" fill="none" fill-rule="evenodd">
        <mask id="mask-2" fill="white">
            <use xlink:href="#path-1"></use>
        </mask>
        <g fill-rule="nonzero"></g>
        <g id="✱-/-Color-/-Icons-/-Black-/-Inactive" mask="url(#mask-2)" fill="#000000" fill-opacity="0.54">
            <rect id="Rectangle" x="0" y="0" width="24" height="24"></rect>
        </g>
    </g>
</svg>