<?xml version="1.0" encoding="UTF-8"?>
<svg width="24px" height="24px" viewBox="0 0 24 24" version="1.1" xmlns="http://www.w3.org/2000/svg" xmlns:xlink="http://www.w3.org/1999/xlink">
    <!-- Generator: Sketch 50 (54983) - http://www.bohemiancoding.com/sketch -->
    <title>icon/image/straighten_24px_outlined</title>
    <desc>Created with Sketch.</desc>
    <defs>
        <path d="M21,6 L3,6 C1.9,6 1,6.9 1,8 L1,16 C1,17.1 1.9,18 3,18 L21,18 C22.1,18 23,17.1 23,16 L23,8 C23,6.9 22.1,6 21,6 Z M21,16 L3,16 L3,8 L5,8 L5,12 L7,12 L7,8 L9,8 L9,12 L11,12 L11,8 L13,8 L13,12 L15,12 L15,8 L17,8 L17,12 L19,12 L19,8 L21,8 L21,16 Z" id="path-1"></path>
    </defs>
    <g id="icon/image/straighten_24px" stroke="none" stroke-width="1" fill="none" fill-rule="evenodd">
        <mask id="mask-2" fill="white">
            <use xlink:href="#path-1"></use>
        </mask>
        <g fill-rule="nonzero"></g>
        <g id="✱-/-Color-/-Icons-/-Black-/-Inactive" mask="url(#mask-2)" fill="#000000" fill-opacity="0.54">
            <rect id="Rectangle" x="0" y="0" width="24" height="24"></rect>
        </g>
    </g>
</svg>