<?xml version="1.0" encoding="UTF-8"?>
<svg width="24px" height="24px" viewBox="0 0 24 24" version="1.1" xmlns="http://www.w3.org/2000/svg" xmlns:xlink="http://www.w3.org/1999/xlink">
    <!-- Generator: Sketch 50 (54983) - http://www.bohemiancoding.com/sketch -->
    <title>icon/image/style_24px_outlined</title>
    <desc>Created with Sketch.</desc>
    <defs>
        <path d="M2.79225214,19.4 L4.13225214,19.96 L4.13225214,10.93 L1.70225214,16.79 C1.29225214,17.81 1.78225214,18.98 2.79225214,19.4 Z M22.2922521,15.7 L17.3322521,3.73 C17.0222521,2.98 16.2922521,2.52 15.5222521,2.5 C15.2622521,2.5 14.9922521,2.54 14.7322521,2.65 L7.36225214,5.7 C6.61225214,6.01 6.15225214,6.73 6.13225214,7.5 C6.12225214,7.77 6.17225214,8.04 6.28225214,8.3 L11.2422521,20.27 C11.5522521,21.03 12.2922521,21.49 13.0722521,21.5 C13.3322521,21.5 13.5922521,21.45 13.8422521,21.35 L21.2022521,18.3 C22.2222521,17.88 22.7122521,16.71 22.2922521,15.7 Z M13.0922521,19.5 L8.13225214,7.54 L15.4822521,4.5 L15.4922521,4.5 L20.4422521,16.45 L13.0922521,19.5 Z M11.2622521,7.75 C10.7099674,7.75 10.2622521,8.19771525 10.2622521,8.75 C10.2622521,9.30228475 10.7099674,9.75 11.2622521,9.75 C11.8145369,9.75 12.2622521,9.30228475 12.2622521,8.75 C12.2622521,8.19771525 11.8145369,7.75 11.2622521,7.75 Z M6.14225214,19.5 C6.14225214,20.6 7.04225214,21.5 8.14225214,21.5 L9.59225214,21.5 L6.14225214,13.16 L6.14225214,19.5 Z" id="path-1"></path>
    </defs>
    <g id="icon/image/style_24px" stroke="none" stroke-width="1" fill="none" fill-rule="evenodd">
        <mask id="mask-2" fill="white">
            <use xlink:href="#path-1"></use>
        </mask>
        <g fill-rule="nonzero"></g>
        <g id="✱-/-Color-/-Icons-/-Black-/-Inactive" mask="url(#mask-2)" fill="#000000" fill-opacity="0.54">
            <rect id="Rectangle" x="0" y="0" width="24" height="24"></rect>
        </g>
    </g>
</svg>