<?xml version="1.0" encoding="UTF-8"?>
<svg width="24px" height="24px" viewBox="0 0 24 24" version="1.1" xmlns="http://www.w3.org/2000/svg" xmlns:xlink="http://www.w3.org/1999/xlink">
    <!-- Generator: Sketch 50 (54983) - http://www.bohemiancoding.com/sketch -->
    <title>icon/image/timer_10_24px_outlined</title>
    <desc>Created with Sketch.</desc>
    <defs>
        <path d="M0,7.715 L0,9.395 L2.99750208,8.395 L2.99750208,17.995 L4.9958368,17.995 L4.9958368,5.995 L4.74604496,5.995 L0,7.715 Z M23.7601998,14.365 C23.6203164,14.085 23.4104913,13.835 23.1307244,13.625 C22.8509575,13.415 22.5212323,13.235 22.1215654,13.095 C21.7218984,12.955 21.2722731,12.825 20.7726894,12.715 C20.4229808,12.645 20.1332223,12.565 19.9034138,12.485 C19.6736053,12.405 19.4937552,12.325 19.3538718,12.235 C19.2139883,12.145 19.1240633,12.045 19.0741049,11.935 C19.0241465,11.825 18.9941715,11.695 18.9941715,11.545 C18.9941715,11.405 19.0241465,11.265 19.0840966,11.135 C19.1440466,11.005 19.2339717,10.885 19.3538718,10.795 C19.4737719,10.695 19.623647,10.615 19.8034971,10.555 C19.9833472,10.495 20.203164,10.465 20.4429642,10.465 C20.692756,10.465 20.9125729,10.505 21.1024147,10.575 C21.2922565,10.645 21.4521232,10.745 21.582015,10.865 C21.7119067,10.985 21.8018318,11.125 21.8717735,11.285 C21.9317236,11.445 21.9716903,11.605 21.9716903,11.775 L23.9200666,11.775 C23.9200666,11.385 23.8401332,11.025 23.6802664,10.685 C23.5203997,10.345 23.2905912,10.055 22.990841,9.805 C22.6910908,9.555 22.3313905,9.365 21.9017485,9.215 C21.4721066,9.065 20.9825146,8.995 20.4429642,8.995 C19.9333888,8.995 19.4637802,9.065 19.0541216,9.205 C18.6444629,9.345 18.2847627,9.535 17.9950042,9.775 C17.7052456,10.015 17.4854288,10.295 17.325562,10.615 C17.1656953,10.935 17.0957535,11.265 17.0957535,11.625 C17.0957535,11.985 17.1756869,12.315 17.325562,12.585 C17.4754371,12.865 17.6852623,13.105 17.9650291,13.315 C18.2348043,13.525 18.5645296,13.695 18.9442132,13.845 C19.3238968,13.985 19.7535387,14.105 20.2131557,14.205 C20.602831,14.285 20.9225645,14.375 21.1623647,14.465 C21.4021649,14.555 21.5920067,14.655 21.7318901,14.755 C21.8617818,14.855 21.9517069,14.975 22.0016653,15.095 C22.0516236,15.215 22.071607,15.345 22.071607,15.485 C22.071607,15.805 21.9417152,16.055 21.67194,16.255 C21.4021649,16.455 21.0124896,16.545 20.5029142,16.545 C20.2830974,16.545 20.0732723,16.525 19.8634471,16.465 C19.653622,16.415 19.4637802,16.335 19.3039134,16.225 C19.134055,16.115 19.0041632,15.965 18.8942548,15.785 C18.7843464,15.605 18.7243963,15.375 18.7144047,15.115 L16.8259784,15.115 C16.8259784,15.475 16.9059117,15.825 17.0657785,16.165 C17.2256453,16.505 17.4554538,16.815 17.7651957,17.095 C18.0749376,17.365 18.4546211,17.585 18.9142381,17.755 C19.3738551,17.925 19.8934221,18.005 20.4929226,18.005 C21.0224813,18.005 21.5020816,17.945 21.9317236,17.815 C22.3613655,17.685 22.7310575,17.505 23.0407993,17.275 C23.3505412,17.045 23.5803497,16.765 23.7502082,16.445 C23.9200666,16.125 24,15.775 24,15.385 C23.9800167,14.985 23.9100749,14.645 23.7601998,14.365 Z M13.8084929,7.045 C13.468776,6.645 13.0591174,6.345 12.5795171,6.165 C12.1099084,5.985 11.570358,5.895 10.990841,5.895 C10.4113239,5.895 9.8817652,5.985 9.40216486,6.165 C8.92256453,6.345 8.51290591,6.635 8.17318901,7.045 C7.83347211,7.455 7.57368859,7.975 7.38384679,8.635 C7.20399667,9.285 7.10407993,10.085 7.10407993,11.025 L7.10407993,12.945 C7.10407993,13.885 7.194005,14.685 7.38384679,15.335 C7.57368859,15.995 7.83347211,16.525 8.18318068,16.935 C8.52289759,17.345 8.9325562,17.645 9.41215654,17.825 C9.89175687,18.005 10.4213156,18.105 11.0008326,18.105 C11.5903414,18.105 12.1199001,18.015 12.5895087,17.825 C13.0691091,17.645 13.468776,17.345 13.8084929,16.935 C14.1482098,16.525 14.4079933,15.995 14.5878435,15.335 C14.7676936,14.685 14.8676103,13.885 14.8676103,12.945 L14.8676103,11.025 C14.8676103,10.085 14.7776853,9.285 14.5878435,8.635 C14.4079933,7.975 14.1482098,7.445 13.8084929,7.045 Z M12.889259,13.215 C12.889259,13.815 12.8492923,14.325 12.7693589,14.745 C12.6894255,15.165 12.5695254,15.505 12.4096586,15.765 C12.2497918,16.025 12.0499584,16.215 11.8201499,16.335 C11.5903414,16.455 11.3105745,16.515 11.0008326,16.515 C10.7010824,16.515 10.4213156,16.455 10.1815154,16.335 C9.94171524,16.215 9.74188177,16.025 9.58201499,15.765 C9.42214821,15.505 9.29225645,15.165 9.20233139,14.745 C9.11240633,14.325 9.07243963,13.815 9.07243963,13.215 L9.07243963,10.715 C9.07243963,10.115 9.11240633,9.605 9.20233139,9.195 C9.29225645,8.785 9.41215654,8.455 9.58201499,8.195 C9.74188177,7.945 9.94171524,7.765 10.1815154,7.645 C10.4213156,7.535 10.6910908,7.475 10.990841,7.475 C11.3005828,7.475 11.570358,7.535 11.8001665,7.645 C12.0399667,7.755 12.2398002,7.935 12.3996669,8.195 C12.5595337,8.445 12.6894255,8.775 12.7693589,9.185 C12.8492923,9.595 12.8992506,10.105 12.8992506,10.705 L12.8992506,13.215 L12.889259,13.215 Z" id="path-1"></path>
    </defs>
    <g id="icon/image/timer_10_24px" stroke="none" stroke-width="1" fill="none" fill-rule="evenodd">
        <mask id="mask-2" fill="white">
            <use xlink:href="#path-1"></use>
        </mask>
        <g fill-rule="nonzero"></g>
        <g id="✱-/-Color-/-Icons-/-Black-/-Inactive" mask="url(#mask-2)" fill="#000000" fill-opacity="0.54">
            <rect id="Rectangle" x="0" y="0" width="24" height="24"></rect>
        </g>
    </g>
</svg>