<?xml version="1.0" encoding="UTF-8"?>
<svg width="24px" height="24px" viewBox="0 0 24 24" version="1.1" xmlns="http://www.w3.org/2000/svg" xmlns:xlink="http://www.w3.org/1999/xlink">
    <!-- Generator: Sketch 50 (54983) - http://www.bohemiancoding.com/sketch -->
    <title>icon/image/timer_3_24px_outlined</title>
    <desc>Created with Sketch.</desc>
    <defs>
        <path d="M10.96,12.98 C10.8,12.74 10.6,12.52 10.34,12.33 C10.09,12.14 9.78,11.98 9.41,11.85 C9.71,11.71 9.98,11.55 10.21,11.35 C10.44,11.15 10.63,10.94 10.78,10.71 C10.93,10.48 11.05,10.25 11.12,10 C11.2,9.76 11.23,9.51 11.23,9.27 C11.23,8.72 11.14,8.23 10.95,7.81 C10.77,7.39 10.51,7.04 10.17,6.75 C9.84,6.47 9.44,6.25 8.97,6.11 C8.52,5.98 8,5.91 7.44,5.91 C6.89,5.91 6.38,5.99 5.92,6.15 C5.45,6.32 5.05,6.55 4.72,6.84 C4.39,7.13 4.12,7.47 3.94,7.87 C3.74,8.26 3.65,8.7 3.65,9.16 L5.63,9.16 C5.63,8.9 5.68,8.67 5.77,8.47 C5.86,8.27 5.99,8.09 6.15,7.95 C6.32,7.81 6.51,7.7 6.73,7.62 C6.95,7.54 7.19,7.5 7.46,7.5 C8.07,7.5 8.52,7.66 8.82,7.97 C9.12,8.28 9.26,8.72 9.26,9.29 C9.26,9.56 9.22,9.81 9.14,10.03 C9.06,10.25 8.93,10.44 8.76,10.6 C8.59,10.76 8.38,10.88 8.13,10.97 C7.88,11.06 7.58,11.1 7.24,11.1 L6.07,11.1 L6.07,12.67 L7.25,12.67 C7.59,12.67 7.89,12.71 8.16,12.78 C8.43,12.86 8.66,12.97 8.85,13.13 C9.04,13.29 9.19,13.49 9.29,13.74 C9.39,13.98 9.45,14.28 9.45,14.61 C9.45,15.23 9.27,15.7 8.92,16.03 C8.57,16.36 8.08,16.52 7.47,16.52 C7.18,16.52 6.91,16.48 6.67,16.39 C6.43,16.31 6.23,16.19 6.06,16.03 C5.89,15.87 5.76,15.69 5.67,15.47 C5.58,15.25 5.53,15.01 5.53,14.75 L3.54,14.75 C3.54,15.3 3.65,15.78 3.86,16.2 C4.07,16.62 4.36,16.97 4.72,17.25 C5.08,17.53 5.49,17.74 5.96,17.88 C6.43,18.02 6.92,18.09 7.44,18.09 C8.01,18.09 8.53,18.01 9.02,17.86 C9.51,17.71 9.93,17.48 10.28,17.18 C10.64,16.88 10.92,16.52 11.12,16.08 C11.32,15.65 11.42,15.15 11.42,14.6 C11.42,14.31 11.38,14.02 11.31,13.74 C11.23,13.49 11.12,13.23 10.96,12.98 Z M20.22,14.38 C20.08,14.1 19.87,13.85 19.59,13.64 C19.31,13.43 18.98,13.25 18.58,13.11 C18.18,12.97 17.73,12.84 17.23,12.73 C16.88,12.66 16.59,12.58 16.36,12.5 C16.13,12.42 15.95,12.34 15.81,12.25 C15.67,12.16 15.58,12.06 15.53,11.95 C15.48,11.84 15.45,11.71 15.45,11.56 C15.45,11.41 15.48,11.28 15.54,11.15 C15.6,11.02 15.69,10.9 15.81,10.81 C15.93,10.71 16.08,10.63 16.26,10.57 C16.44,10.51 16.66,10.48 16.9,10.48 C17.15,10.48 17.37,10.52 17.56,10.59 C17.75,10.66 17.91,10.76 18.04,10.88 C18.17,11 18.26,11.14 18.33,11.3 C18.39,11.46 18.43,11.62 18.43,11.79 L20.38,11.79 C20.38,11.4 20.3,11.04 20.14,10.7 C19.98,10.36 19.75,10.07 19.45,9.82 C19.15,9.57 18.79,9.38 18.36,9.23 C17.93,9.08 17.44,9.01 16.9,9.01 C16.39,9.01 15.92,9.08 15.51,9.22 C15.1,9.36 14.74,9.55 14.45,9.79 C14.16,10.03 13.94,10.31 13.78,10.63 C13.62,10.95 13.55,11.28 13.55,11.64 C13.55,12 13.63,12.32 13.78,12.6 C13.93,12.88 14.15,13.12 14.42,13.33 C14.69,13.54 15.02,13.71 15.4,13.86 C15.78,14 16.21,14.12 16.67,14.22 C17.06,14.3 17.38,14.39 17.62,14.48 C17.86,14.57 18.05,14.67 18.19,14.77 C18.32,14.87 18.41,14.99 18.46,15.11 C18.51,15.23 18.53,15.36 18.53,15.5 C18.53,15.82 18.4,16.07 18.13,16.27 C17.86,16.47 17.47,16.56 16.96,16.56 C16.74,16.56 16.53,16.54 16.32,16.48 C16.11,16.43 15.92,16.35 15.76,16.24 C15.59,16.13 15.46,15.98 15.35,15.8 C15.24,15.62 15.18,15.39 15.17,15.13 L13.28,15.13 C13.28,15.49 13.36,15.84 13.52,16.18 C13.68,16.52 13.91,16.83 14.22,17.11 C14.53,17.38 14.91,17.6 15.37,17.77 C15.83,17.94 16.35,18.02 16.95,18.02 C17.48,18.02 17.96,17.96 18.39,17.83 C18.82,17.7 19.19,17.52 19.5,17.29 C19.81,17.06 20.04,16.78 20.21,16.46 C20.38,16.14 20.46,15.79 20.46,15.4 C20.44,15 20.37,14.66 20.22,14.38 Z" id="path-1"></path>
    </defs>
    <g id="icon/image/timer_3_24px" stroke="none" stroke-width="1" fill="none" fill-rule="evenodd">
        <mask id="mask-2" fill="white">
            <use xlink:href="#path-1"></use>
        </mask>
        <g fill-rule="nonzero"></g>
        <g id="✱-/-Color-/-Icons-/-Black-/-Inactive" mask="url(#mask-2)" fill="#000000" fill-opacity="0.54">
            <rect id="Rectangle" x="0" y="0" width="24" height="24"></rect>
        </g>
    </g>
</svg>