<?xml version="1.0" encoding="UTF-8"?>
<svg width="24px" height="24px" viewBox="0 0 24 24" version="1.1" xmlns="http://www.w3.org/2000/svg" xmlns:xlink="http://www.w3.org/1999/xlink">
    <!-- Generator: Sketch 50 (54983) - http://www.bohemiancoding.com/sketch -->
    <title>icon/image/transform_24px_outlined</title>
    <desc>Created with Sketch.</desc>
    <defs>
        <path d="M22,18 L22,16 L8,16 L8,4 L10,4 L7,1 L4,4 L6,4 L6,6 L2,6 L2,8 L6,8 L6,16 C6,17.1 6.9,18 8,18 L16,18 L16,20 L14,20 L17,23 L20,20 L18,20 L18,18 L22,18 Z M10,8 L16,8 L16,14 L18,14 L18,8 C18,6.9 17.1,6 16,6 L10,6 L10,8 Z" id="path-1"></path>
    </defs>
    <g id="icon/image/transform_24px" stroke="none" stroke-width="1" fill="none" fill-rule="evenodd">
        <mask id="mask-2" fill="white">
            <use xlink:href="#path-1"></use>
        </mask>
        <g fill-rule="nonzero"></g>
        <g id="✱-/-Color-/-Icons-/-Black-/-Inactive" mask="url(#mask-2)" fill="#000000" fill-opacity="0.54">
            <rect id="Rectangle" x="0" y="0" width="24" height="24"></rect>
        </g>
    </g>
</svg>