<?xml version="1.0" encoding="UTF-8"?>
<svg width="24px" height="24px" viewBox="0 0 24 24" version="1.1" xmlns="http://www.w3.org/2000/svg" xmlns:xlink="http://www.w3.org/1999/xlink">
    <!-- Generator: Sketch 50 (54983) - http://www.bohemiancoding.com/sketch -->
    <title>icon/image/vignette_24px_outlined</title>
    <desc>Created with Sketch.</desc>
    <defs>
        <path d="M21,5 L21,19 L3,19 L3,5 L21,5 Z M21,3 L3,3 C1.9,3 1,3.9 1,5 L1,19 C1,20.1 1.9,21 3,21 L21,21 C22.1,21 23,20.1 23,19 L23,5 C23,3.9 22.1,3 21,3 Z M12,8 C15.25,8 18,9.83 18,12 C18,14.17 15.25,16 12,16 C8.75,16 6,14.17 6,12 C6,9.83 8.75,8 12,8 Z M12,6 C7.58,6 4,8.69 4,12 C4,15.31 7.58,18 12,18 C16.42,18 20,15.31 20,12 C20,8.69 16.42,6 12,6 Z" id="path-1"></path>
    </defs>
    <g id="icon/image/vignette_24px" stroke="none" stroke-width="1" fill="none" fill-rule="evenodd">
        <mask id="mask-2" fill="white">
            <use xlink:href="#path-1"></use>
        </mask>
        <g fill-rule="nonzero"></g>
        <g id="✱-/-Color-/-Icons-/-Black-/-Inactive" mask="url(#mask-2)" fill="#000000" fill-opacity="0.54">
            <rect id="Rectangle" x="0" y="0" width="24" height="24"></rect>
        </g>
    </g>
</svg>