<?xml version="1.0" encoding="UTF-8"?>
<svg width="24px" height="24px" viewBox="0 0 24 24" version="1.1" xmlns="http://www.w3.org/2000/svg" xmlns:xlink="http://www.w3.org/1999/xlink">
    <!-- Generator: Sketch 50 (54983) - http://www.bohemiancoding.com/sketch -->
    <title>icon/image/wb_cloudy_24px_outlined</title>
    <desc>Created with Sketch.</desc>
    <defs>
        <path d="M12,6 C14.608913,6 16.8879633,7.86 17.3977509,10.43 L17.697626,11.93 L19.2169929,12.04 C20.7763432,12.15 21.9958351,13.45 21.9958351,15 C21.9958351,16.65 20.6463973,18 18.9970845,18 L6.00249896,18 C3.79341941,18 2.00416493,16.21 2.00416493,14 C2.00416493,11.95 3.5335277,10.24 5.56268222,10.03 L6.63223657,9.92 L7.13202832,8.97 C8.07163682,7.14 9.94085798,6 12,6 Z M12,4 C9.11120367,4 6.59225323,5.64 5.34277384,8.04 C2.34402332,8.36 0.00499791753,10.91 0.00499791753,14 C0.00499791753,17.31 2.69387755,20 6.00249896,20 L18.9970845,20 C21.755935,20 23.9950021,17.76 23.9950021,15 C23.9950021,12.36 21.9458559,10.22 19.3569346,10.04 C18.667222,6.59 15.638484,4 12,4 Z" id="path-1"></path>
    </defs>
    <g id="icon/image/wb_cloudy_24px" stroke="none" stroke-width="1" fill="none" fill-rule="evenodd">
        <mask id="mask-2" fill="white">
            <use xlink:href="#path-1"></use>
        </mask>
        <g fill-rule="nonzero"></g>
        <g id="✱-/-Color-/-Icons-/-Black-/-Inactive" mask="url(#mask-2)" fill="#000000" fill-opacity="0.54">
            <rect id="Rectangle" x="0" y="0" width="24" height="24"></rect>
        </g>
    </g>
</svg>