<?xml version="1.0" encoding="UTF-8"?>
<svg width="24px" height="24px" viewBox="0 0 24 24" version="1.1" xmlns="http://www.w3.org/2000/svg" xmlns:xlink="http://www.w3.org/1999/xlink">
    <!-- Generator: Sketch 50 (54983) - http://www.bohemiancoding.com/sketch -->
    <title>icon/places/airport_shuttle_24px_two_tone</title>
    <desc>Created with Sketch.</desc>
    <defs>
        <path d="M0,2 L0.78,2 C1.33,1.39 2.12,1 3,1 C3.88,1 4.67,1.39 5.22,2 L12.78,2 C13.33,1.39 14.12,1 15,1 C15.88,1 16.67,1.39 17.22,2 L18,2 L18,0 L0,0 L0,2 Z" id="path-1"></path>
        <path d="M16,0 L2,0 C0.9,0 0,0.89 0,2 L0,11 L2,11 C2,12.66 3.34,14 5,14 C6.66,14 8,12.66 8,11 L14,11 C14,12.66 15.34,14 17,14 C18.66,14 20,12.66 20,11 L22,11 L22,6 L16,0 Z M14,2 L15,2 L18,5 L14,5 L14,2 Z M8,2 L12,2 L12,5 L8,5 L8,2 Z M2,2 L6,2 L6,5 L2,5 L2,2 Z M5,12.25 C4.31,12.25 3.75,11.69 3.75,11 C3.75,10.31 4.31,9.75 5,9.75 C5.69,9.75 6.25,10.31 6.25,11 C6.25,11.69 5.69,12.25 5,12.25 Z M17,12.25 C16.31,12.25 15.75,11.69 15.75,11 C15.75,10.31 16.31,9.75 17,9.75 C17.69,9.75 18.25,10.31 18.25,11 C18.25,11.69 17.69,12.25 17,12.25 Z M20,9 L19.22,9 C18.67,8.39 17.88,8 17,8 C16.12,8 15.33,8.39 14.78,9 L7.22,9 C6.67,8.39 5.89,8 5,8 C4.11,8 3.33,8.39 2.78,9 L2,9 L2,7 L20,7 L20,9 Z" id="path-3"></path>
    </defs>
    <g id="icon/places/airport_shuttle_24px" stroke="none" stroke-width="1" fill="none" fill-rule="evenodd">
        <g id="↳-Light-Color" transform="translate(3.000000, 12.000000)">
            <mask id="mask-2" fill="white">
                <use xlink:href="#path-1"></use>
            </mask>
            <g id="Mask" opacity="0.3" fill-rule="nonzero"></g>
            <g id="✱-/-Color-/-Icons-/-Black-/-Disabled" mask="url(#mask-2)" fill="#000000" fill-opacity="0.38">
                <rect id="Rectangle" x="0" y="0" width="101" height="101"></rect>
            </g>
        </g>
        <g id="↳-Dark-Color" transform="translate(1.000000, 5.000000)">
            <mask id="mask-4" fill="white">
                <use xlink:href="#path-3"></use>
            </mask>
            <g id="Mask" fill-rule="nonzero"></g>
            <g id="✱-/-Color-/-Icons-/-Black-/-Inactive" mask="url(#mask-4)" fill="#000000" fill-opacity="0.54">
                <rect id="Rectangle" x="0" y="0" width="101" height="101"></rect>
            </g>
        </g>
    </g>
</svg>