<?xml version="1.0" encoding="UTF-8"?>
<svg width="24px" height="24px" viewBox="0 0 24 24" version="1.1" xmlns="http://www.w3.org/2000/svg" xmlns:xlink="http://www.w3.org/1999/xlink">
    <!-- Generator: Sketch 50 (54983) - http://www.bohemiancoding.com/sketch -->
    <title>icon/places/all_inclusive_24px_two_tone</title>
    <desc>Created with Sketch.</desc>
    <defs>
        <path d="M18.6,0.62 C17.16,0.62 15.8,1.18 14.83,2.15 L7.8,8.39 C7.16,9.03 6.31,9.38 5.4,9.38 C3.53,9.38 2.01,7.87 2.01,6 C2.01,4.13 3.53,2.62 5.4,2.62 C6.31,2.62 7.16,2.97 7.84,3.65 L8.97,4.65 L10.48,3.31 L9.22,2.2 C8.2,1.18 6.84,0.62 5.4,0.62 C2.42,0.62 0,3.04 0,6 C0,8.96 2.42,11.38 5.4,11.38 C6.84,11.38 8.2,10.82 9.17,9.85 L16.2,3.61 C16.84,2.97 17.69,2.62 18.6,2.62 C20.47,2.62 21.99,4.13 21.99,6 C21.99,7.87 20.47,9.38 18.6,9.38 C17.7,9.38 16.84,9.03 16.16,8.35 L15.02,7.34 L13.51,8.68 L14.78,9.8 C15.8,10.81 17.15,11.37 18.6,11.37 C21.58,11.37 24,8.96 24,5.99 C24,3.02 21.58,0.62 18.6,0.62 Z" id="path-1"></path>
    </defs>
    <g id="icon/places/all_inclusive_24px" stroke="none" stroke-width="1" fill="none" fill-rule="evenodd">
        <g id="↳-Dark-Color" transform="translate(0.000000, 6.000000)">
            <mask id="mask-2" fill="white">
                <use xlink:href="#path-1"></use>
            </mask>
            <g id="Mask" fill-rule="nonzero"></g>
            <g id="✱-/-Color-/-Icons-/-Black-/-Inactive" mask="url(#mask-2)" fill="#000000" fill-opacity="0.54">
                <rect id="Rectangle" x="0" y="0" width="101" height="101"></rect>
            </g>
        </g>
    </g>
</svg>