<?xml version="1.0" encoding="UTF-8"?>
<svg width="24px" height="24px" viewBox="0 0 24 24" version="1.1" xmlns="http://www.w3.org/2000/svg" xmlns:xlink="http://www.w3.org/1999/xlink">
    <!-- Generator: Sketch 50 (54983) - http://www.bohemiancoding.com/sketch -->
    <title>icon/places/beach_access_24px_two_tone</title>
    <desc>Created with Sketch.</desc>
    <defs>
        <path d="M0.6,0.6 C0.13,2.94 0.63,5.38 1.99,7.43 L7.44,1.98 C5.91,0.96 4.16,0.42 2.36,0.42 C1.76,0.42 1.17,0.48 0.6,0.6 Z" id="path-1"></path>
        <path d="M3.12,0 C2.19,0 1.3,0.16 0.45,0.46 C2.36,0.65 4.24,1.35 5.89,2.53 L7.28,1.14 C6.03,0.4 4.61,0 3.12,0 Z" id="path-3"></path>
        <path d="M0,3.12 C0,4.61 0.4,6.03 1.14,7.27 L2.53,5.88 C1.35,4.23 0.65,2.36 0.46,0.44 C0.16,1.3 0,2.2 0,3.12 Z" id="path-5"></path>
        <rect id="path-7" x="3.05079719" y="-0.487520817" width="2.01998063" height="9.10991263"></rect>
        <path d="M10.12,0 C7.54,0 4.96,0.98 2.98,2.95 C2.98,2.95 2.98,2.95 2.98,2.95 C2.98,2.95 2.98,2.95 2.98,2.95 C2.98,2.95 2.97,2.96 2.97,2.96 C-0.98,6.91 -0.98,13.32 2.97,17.27 L17.27,2.96 C15.3,0.99 12.71,0 10.12,0 Z M3.14,14.27 C2.4,13.03 2,11.61 2,10.12 C2,9.19 2.16,8.3 2.46,7.45 C2.65,9.36 3.35,11.24 4.53,12.89 L3.14,14.27 Z M5.98,11.43 C4.63,9.38 4.12,6.93 4.6,4.6 C5.18,4.48 5.76,4.42 6.35,4.42 C8.15,4.42 9.9,4.97 11.43,5.98 L5.98,11.43 Z M7.45,2.46 C8.3,2.16 9.19,2 10.12,2 C11.61,2 13.03,2.4 14.27,3.14 L12.88,4.53 C11.23,3.35 9.36,2.65 7.45,2.46 Z" id="path-9"></path>
    </defs>
    <g id="icon/places/beach_access_24px" stroke="none" stroke-width="1" fill="none" fill-rule="evenodd">
        <g id="↳-Light-Color" transform="translate(7.000000, 7.000000)">
            <mask id="mask-2" fill="white">
                <use xlink:href="#path-1"></use>
            </mask>
            <g id="Mask" opacity="0.3" fill-rule="nonzero"></g>
            <g id="✱-/-Color-/-Icons-/-Black-/-Disabled" mask="url(#mask-2)" fill="#000000" fill-opacity="0.38">
                <rect id="Rectangle" x="0" y="0" width="101" height="101"></rect>
            </g>
        </g>
        <g id="↳-Light-Color" transform="translate(10.000000, 5.000000)">
            <mask id="mask-4" fill="white">
                <use xlink:href="#path-3"></use>
            </mask>
            <g id="Mask" opacity="0.3" fill-rule="nonzero"></g>
            <g id="✱-/-Color-/-Icons-/-Black-/-Disabled" mask="url(#mask-4)" fill="#000000" fill-opacity="0.38">
                <rect id="Rectangle" x="0" y="0" width="101" height="101"></rect>
            </g>
        </g>
        <g id="↳-Light-Color" transform="translate(5.000000, 10.000000)">
            <mask id="mask-6" fill="white">
                <use xlink:href="#path-5"></use>
            </mask>
            <g id="Mask" opacity="0.3" fill-rule="nonzero"></g>
            <g id="✱-/-Color-/-Icons-/-Black-/-Disabled" mask="url(#mask-6)" fill="#000000" fill-opacity="0.38">
                <rect id="Rectangle" x="0" y="0" width="101" height="101"></rect>
            </g>
        </g>
        <g id="↳-Dark-Color" transform="translate(13.000000, 13.000000)">
            <mask id="mask-8" fill="white">
                <use xlink:href="#path-7"></use>
            </mask>
            <g id="Mask" fill-rule="nonzero" transform="translate(4.060788, 4.067436) rotate(-45.000000) translate(-4.060788, -4.067436) "></g>
            <g id="✱-/-Color-/-Icons-/-Black-/-Inactive" mask="url(#mask-8)" fill="#000000" fill-opacity="0.54">
                <rect id="Rectangle" x="0" y="0" width="101" height="101"></rect>
            </g>
        </g>
        <g id="↳-Dark-Color" transform="translate(3.000000, 3.000000)">
            <mask id="mask-10" fill="white">
                <use xlink:href="#path-9"></use>
            </mask>
            <g id="Mask" fill-rule="nonzero"></g>
            <g id="✱-/-Color-/-Icons-/-Black-/-Inactive" mask="url(#mask-10)" fill="#000000" fill-opacity="0.54">
                <rect id="Rectangle" x="0" y="0" width="101" height="101"></rect>
            </g>
        </g>
    </g>
</svg>