<?xml version="1.0" encoding="UTF-8"?>
<svg width="24px" height="24px" viewBox="0 0 24 24" version="1.1" xmlns="http://www.w3.org/2000/svg" xmlns:xlink="http://www.w3.org/1999/xlink">
    <!-- Generator: Sketch 50 (54983) - http://www.bohemiancoding.com/sketch -->
    <title>icon/places/business_center_24px_two_tone</title>
    <desc>Created with Sketch.</desc>
    <defs>
        <polygon id="path-1" points="10 1 4 1 4 0 0 0 0 3 14 3 14 0 10 0"></polygon>
        <polygon id="path-3" points="0 5 5 5 5 2 11 2 11 5 16 5 16 0 0 0"></polygon>
        <path d="M18,4 L14,4 L14,2 L12,0 L8,0 L6,2 L6,4 L2,4 C0.9,4 0,4.9 0,6 L0,11 C0,11.75 0.4,12.38 1,12.73 L1,16 C1,17.11 1.89,18 3,18 L17,18 C18.11,18 19,17.11 19,16 L19,12.72 C19.59,12.37 20,11.73 20,11 L20,6 C20,4.9 19.1,4 18,4 Z M8,2 L12,2 L12,4 L8,4 L8,2 Z M17,16 L3,16 L3,13 L7,13 L7,14 L13,14 L13,13 L17,13 L17,16 Z M9,12 L9,10 L11,10 L11,12 L9,12 Z M18,11 L13,11 L13,8 L7,8 L7,11 L2,11 L2,6 L18,6 L18,11 Z" id="path-5"></path>
    </defs>
    <g id="icon/places/business_center_24px" stroke="none" stroke-width="1" fill="none" fill-rule="evenodd">
        <g id="↳-Light-Color" transform="translate(5.000000, 16.000000)">
            <mask id="mask-2" fill="white">
                <use xlink:href="#path-1"></use>
            </mask>
            <g id="Mask" opacity="0.3" fill-rule="nonzero"></g>
            <g id="✱-/-Color-/-Icons-/-Black-/-Disabled" mask="url(#mask-2)" fill="#000000" fill-opacity="0.38">
                <rect id="Rectangle" x="0" y="0" width="101" height="101"></rect>
            </g>
        </g>
        <g id="↳-Light-Color" transform="translate(4.000000, 9.000000)">
            <mask id="mask-4" fill="white">
                <use xlink:href="#path-3"></use>
            </mask>
            <g id="Mask" opacity="0.3" fill-rule="nonzero"></g>
            <g id="✱-/-Color-/-Icons-/-Black-/-Disabled" mask="url(#mask-4)" fill="#000000" fill-opacity="0.38">
                <rect id="Rectangle" x="0" y="0" width="101" height="101"></rect>
            </g>
        </g>
        <g id="↳-Dark-Color" transform="translate(2.000000, 3.000000)">
            <mask id="mask-6" fill="white">
                <use xlink:href="#path-5"></use>
            </mask>
            <g id="Mask" fill-rule="nonzero"></g>
            <g id="✱-/-Color-/-Icons-/-Black-/-Inactive" mask="url(#mask-6)" fill="#000000" fill-opacity="0.54">
                <rect id="Rectangle" x="0" y="0" width="101" height="101"></rect>
            </g>
        </g>
    </g>
</svg>