<?xml version="1.0" encoding="UTF-8"?>
<svg width="24px" height="24px" viewBox="0 0 24 24" version="1.1" xmlns="http://www.w3.org/2000/svg" xmlns:xlink="http://www.w3.org/1999/xlink">
    <!-- Generator: Sketch 50 (54983) - http://www.bohemiancoding.com/sketch -->
    <title>icon/places/child_friendly_24px_two_tone</title>
    <desc>Created with Sketch.</desc>
    <defs>
        <path d="M0,0.34 L0,4 L3.66,4 C3.05,2.3 1.7,0.95 0,0.34 Z" id="path-1"></path>
        <path d="M1.04,1.36 L1.48,2.03 C2.67,2.19 3.67,2.95 4.16,4 L6.84,4 C7.4,2.82 8.61,2 10,2 C10.15,2 10.31,2.01 10.46,2.03 L10.75,1.66 C11.15,1.15 11.45,0.59 11.67,0 L0.37,0 C0.69,0.67 0.94,1.19 1.04,1.36 Z" id="path-3"></path>
        <path d="M0,0 L0,8 L8,8 C8,3.58 4.42,0 0,0 Z M2,6 L2,2.34 C3.7,2.94 5.05,4.29 5.66,6 L2,6 Z" id="path-5"></path>
        <path d="M4.44,2 L3.49,0 L0,0 L0,2 L2.22,2 C2.22,2 4.11,6.07 4.34,6.42 C3.24,7.01 2.5,8.17 2.5,9.5 C2.5,11.43 4.07,13 6,13 C7.76,13 9.22,11.7 9.46,10 L11.54,10 C11.78,11.7 13.24,13 15,13 C16.93,13 18.5,11.43 18.5,9.5 C18.5,8.46 18.04,7.53 17.32,6.89 C18.37,5.54 19,3.84 19,2 L4.44,2 Z M6,11 C5.17,11 4.5,10.33 4.5,9.5 C4.5,8.67 5.17,8 6,8 C6.83,8 7.5,8.67 7.5,9.5 C7.5,10.33 6.83,11 6,11 Z M15,11 C14.17,11 13.5,10.33 13.5,9.5 C13.5,8.67 14.17,8 15,8 C15.83,8 16.5,8.67 16.5,9.5 C16.5,10.33 15.83,11 15,11 Z M15.74,5.66 L15.45,6.03 C15.31,6.01 15.15,6 15,6 C13.61,6 12.4,6.82 11.84,8 L9.16,8 C8.66,6.96 7.66,6.2 6.48,6.03 L6.04,5.36 C5.94,5.19 5.7,4.67 5.37,4 L16.66,4 C16.45,4.59 16.14,5.15 15.74,5.66 Z" id="path-7"></path>
    </defs>
    <g id="icon/places/child_friendly_24px" stroke="none" stroke-width="1" fill="none" fill-rule="evenodd">
        <g id="↳-Light-Color" transform="translate(15.000000, 4.000000)">
            <mask id="mask-2" fill="white">
                <use xlink:href="#path-1"></use>
            </mask>
            <g id="Mask" opacity="0.3" fill-rule="nonzero"></g>
            <g id="✱-/-Color-/-Icons-/-Black-/-Disabled" mask="url(#mask-2)" fill="#000000" fill-opacity="0.38">
                <rect id="Rectangle" x="0" y="0" width="101" height="101"></rect>
            </g>
        </g>
        <g id="↳-Light-Color" transform="translate(7.000000, 13.000000)">
            <mask id="mask-4" fill="white">
                <use xlink:href="#path-3"></use>
            </mask>
            <g id="Mask" opacity="0.3" fill-rule="nonzero"></g>
            <g id="✱-/-Color-/-Icons-/-Black-/-Disabled" mask="url(#mask-4)" fill="#000000" fill-opacity="0.38">
                <rect id="Rectangle" x="0" y="0" width="101" height="101"></rect>
            </g>
        </g>
        <g id="↳-Dark-Color" transform="translate(13.000000, 2.000000)">
            <mask id="mask-6" fill="white">
                <use xlink:href="#path-5"></use>
            </mask>
            <g id="Mask" fill-rule="nonzero"></g>
            <g id="✱-/-Color-/-Icons-/-Black-/-Inactive" mask="url(#mask-6)" fill="#000000" fill-opacity="0.54">
                <rect id="Rectangle" x="0" y="0" width="101" height="101"></rect>
            </g>
        </g>
        <g id="↳-Dark-Color" transform="translate(2.000000, 9.000000)">
            <mask id="mask-8" fill="white">
                <use xlink:href="#path-7"></use>
            </mask>
            <g id="Mask" fill-rule="nonzero"></g>
            <g id="✱-/-Color-/-Icons-/-Black-/-Inactive" mask="url(#mask-8)" fill="#000000" fill-opacity="0.54">
                <rect id="Rectangle" x="0" y="0" width="101" height="101"></rect>
            </g>
        </g>
    </g>
</svg>