<?xml version="1.0" encoding="UTF-8"?>
<svg width="24px" height="24px" viewBox="0 0 24 24" version="1.1" xmlns="http://www.w3.org/2000/svg" xmlns:xlink="http://www.w3.org/1999/xlink">
    <!-- Generator: Sketch 50 (54983) - http://www.bohemiancoding.com/sketch -->
    <title>icon/places/rv_hookup_24px_two_tone</title>
    <desc>Created with Sketch.</desc>
    <defs>
        <path d="M16,15 L16,9 C16,7.9 15.1,7 14,7 L3,7 L3,5 L0,8 L3,11 L3,9 L7,9 L7,12 L0,12 L0,15 C0,16.1 0.9,17 2,17 L4,17 C4,18.66 5.34,20 7,20 C8.66,20 10,18.66 10,17 L18,17 L18,15 L16,15 Z M7,18 C6.45,18 6,17.55 6,17 C6,16.45 6.45,16 7,16 C7.55,16 8,16.45 8,17 C8,17.55 7.55,18 7,18 Z M14,12 L10,12 L10,9 L14,9 L14,12 Z M13,0 L13,2 L5,2 L5,4 L13,4 L13,6 L16,3 L13,0 Z" id="path-1"></path>
    </defs>
    <g id="icon/places/rv_hookup_24px" stroke="none" stroke-width="1" fill="none" fill-rule="evenodd">
        <g id="↳-Dark-Color" transform="translate(4.000000, 2.000000)">
            <mask id="mask-2" fill="white">
                <use xlink:href="#path-1"></use>
            </mask>
            <g id="Mask" fill-rule="nonzero"></g>
            <g id="✱-/-Color-/-Icons-/-Black-/-Inactive" mask="url(#mask-2)" fill="#000000" fill-opacity="0.54">
                <rect id="Rectangle" x="0" y="0" width="101" height="101"></rect>
            </g>
        </g>
    </g>
</svg>