<?xml version="1.0" encoding="UTF-8"?>
<svg width="24px" height="24px" viewBox="0 0 24 24" version="1.1" xmlns="http://www.w3.org/2000/svg" xmlns:xlink="http://www.w3.org/1999/xlink">
    <!-- Generator: Sketch 50 (54983) - http://www.bohemiancoding.com/sketch -->
    <title>icon/places/smoking_rooms_24px_two_tone</title>
    <desc>Created with Sketch.</desc>
    <defs>
        <path d="M0,14 L15,14 L15,17 L0,17 L0,14 Z M18.5,14 L20,14 L20,17 L18.5,17 L18.5,14 Z M16,14 L17.5,14 L17.5,17 L16,17 L16,14 Z M16.85,5.73 C17.47,5.12 17.85,4.28 17.85,3.35 C17.85,1.5 16.35,0 14.5,0 L14.5,1.5 C15.52,1.5 16.35,2.33 16.35,3.35 C16.35,4.37 15.52,5.2 14.5,5.2 L14.5,6.7 C16.74,6.7 18.5,8.53 18.5,10.77 L18.5,13 L20,13 L20,10.76 C20,8.54 18.72,6.62 16.85,5.73 Z M14.03,8.2 L12.5,8.2 C11.48,8.2 10.65,7.22 10.65,6.2 C10.65,5.18 11.48,4.45 12.5,4.45 L12.5,2.95 C10.65,2.95 9.15,4.45 9.15,6.3 C9.15,8.15 10.65,9.65 12.5,9.65 L14.03,9.65 C15.08,9.65 16,10.39 16,11.7 L16,13 L17.5,13 L17.5,11.36 C17.5,9.55 15.9,8.2 14.03,8.2 Z" id="path-1"></path>
    </defs>
    <g id="icon/places/smoking_rooms_24px" stroke="none" stroke-width="1" fill="none" fill-rule="evenodd">
        <g id="↳-Dark-Color" transform="translate(2.000000, 2.000000)">
            <mask id="mask-2" fill="white">
                <use xlink:href="#path-1"></use>
            </mask>
            <g id="Mask" fill-rule="nonzero"></g>
            <g id="✱-/-Color-/-Icons-/-Black-/-Inactive" mask="url(#mask-2)" fill="#000000" fill-opacity="0.54">
                <rect id="Rectangle" x="0" y="0" width="101" height="101"></rect>
            </g>
        </g>
    </g>
</svg>