<?xml version="1.0" encoding="UTF-8"?>
<svg width="24px" height="24px" viewBox="0 0 24 24" version="1.1" xmlns="http://www.w3.org/2000/svg" xmlns:xlink="http://www.w3.org/1999/xlink">
    <!-- Generator: Sketch 50 (54983) - http://www.bohemiancoding.com/sketch -->
    <title>icon/places/spa_24px_two_tone</title>
    <desc>Created with Sketch.</desc>
    <defs>
        <path d="M3.55,2 C2.48,1.29 1.3,0.73 0.02,0.39 C1.3,0.73 2.48,1.29 3.55,2 Z M13.98,0.39 C12.69,0.73 11.49,1.3 10.41,2.03 C11.49,1.3 12.69,0.73 13.98,0.39 Z" id="path-1"></path>
        <path d="M0.94,1.25 C0.94,1.24 0.94,1.24 0.94,1.25 C0.81,1.16 0.67,1.08 0.54,0.99 C0.67,1.09 0.81,1.16 0.94,1.25 Z" id="path-3"></path>
        <path d="M3.35,3.58 C3.13,2.37 2.69,1.23 2.05,0.2 C1.39,1.24 0.93,2.39 0.68,3.59 C1.14,3.89 1.58,4.21 2.01,4.56 C2.43,4.21 2.88,3.88 3.35,3.58 Z" id="path-5"></path>
        <path d="M12.54,1.66 L12.55,1.68 C12.46,1.74 12.37,1.8 12.28,1.85 L12.21,1.9 C11.23,2.61 10.37,3.51 9.68,4.56 L8,7.1 L6.33,4.55 C5.65,3.52 4.81,2.63 3.82,1.9 L3.75,1.86 C3.62,1.78 3.49,1.7 3.36,1.61 L3.37,1.6 C2.41,0.97 1.36,0.53 0.25,0.27 C1,3.63 3.41,6.44 6.7,7.62 C7.12,7.77 7.54,7.89 7.98,7.98 C8.43,7.89 8.87,7.77 9.31,7.61 C12.58,6.44 14.98,3.63 15.74,0.27 C14.6,0.53 13.51,1 12.54,1.66 Z" id="path-7"></path>
        <path id="path-9"></path>
        <path d="M10,5.45 C9.18,4.2 8.14,3.11 6.94,2.25 C6.81,2.16 6.67,2.09 6.54,1.99 C6.67,2.08 6.81,2.16 6.93,2.24 C4.98,0.83 2.59,0 0,0 C0,5.32 3.36,9.82 8.03,11.49 C8.66,11.72 9.32,11.89 10,12 C10.68,11.88 11.33,11.71 11.97,11.49 C16.64,9.82 20,5.32 20,0 C15.82,0 12.15,2.17 10,5.45 Z M11.32,9.6 C10.88,9.75 10.44,9.87 9.99,9.97 C9.55,9.88 9.12,9.76 8.71,9.61 C5.42,8.43 3.01,5.62 2.26,2.26 C3.36,2.52 4.41,2.97 5.38,3.59 L5.36,3.6 C5.49,3.69 5.62,3.78 5.75,3.85 L5.82,3.89 C6.81,4.61 7.66,5.5 8.33,6.54 L10,9.1 L11.67,6.55 C12.36,5.5 13.22,4.6 14.2,3.89 L14.27,3.84 C14.36,3.79 14.45,3.73 14.54,3.67 L14.53,3.65 C15.51,3 16.6,2.52 17.74,2.25 C16.99,5.62 14.59,8.43 11.32,9.6 Z" id="path-11"></path>
        <path d="M7.49,7.63 C7.31,4.84 6.18,2.12 4.06,0 C1.92,2.14 0.74,4.86 0.51,7.63 C1.79,8.31 2.97,9.19 4,10.26 C5.03,9.2 6.21,8.32 7.49,7.63 Z M4.05,3.19 C4.68,4.22 5.12,5.37 5.35,6.57 C4.88,6.87 4.44,7.2 4.01,7.55 C3.59,7.21 3.14,6.88 2.68,6.58 C2.93,5.38 3.39,4.23 4.05,3.19 Z" id="path-13"></path>
        <path d="M0.99,0.28 C0.97,0.27 0.95,0.25 0.94,0.24 C0.94,0.24 0.95,0.24 0.95,0.25 C0.96,0.26 0.97,0.27 0.99,0.28 Z" id="path-15"></path>
    </defs>
    <g id="icon/places/spa_24px" stroke="none" stroke-width="1" fill="none" fill-rule="evenodd">
        <g id="↳-Dark-Color" transform="translate(5.000000, 10.000000)">
            <mask id="mask-2" fill="white">
                <use xlink:href="#path-1"></use>
            </mask>
            <g id="Mask" fill-rule="nonzero"></g>
            <g id="✱-/-Color-/-Icons-/-Black-/-Inactive" mask="url(#mask-2)" fill="#000000" fill-opacity="0.54">
                <rect id="Rectangle" x="0" y="0" width="101" height="101"></rect>
            </g>
        </g>
        <g id="↳-Light-Color" transform="translate(8.000000, 11.000000)">
            <mask id="mask-4" fill="white">
                <use xlink:href="#path-3"></use>
            </mask>
            <g id="Mask" opacity="0.3" fill-rule="nonzero"></g>
            <g id="✱-/-Color-/-Icons-/-Black-/-Disabled" mask="url(#mask-4)" fill="#000000" fill-opacity="0.38">
                <rect id="Rectangle" x="0" y="0" width="101" height="101"></rect>
            </g>
        </g>
        <g id="↳-Light-Color" transform="translate(10.000000, 5.000000)">
            <mask id="mask-6" fill="white">
                <use xlink:href="#path-5"></use>
            </mask>
            <g id="Mask" opacity="0.3" fill-rule="nonzero"></g>
            <g id="✱-/-Color-/-Icons-/-Black-/-Disabled" mask="url(#mask-6)" fill="#000000" fill-opacity="0.38">
                <rect id="Rectangle" x="0" y="0" width="101" height="101"></rect>
            </g>
        </g>
        <g id="↳-Light-Color" transform="translate(4.000000, 12.000000)">
            <mask id="mask-8" fill="white">
                <use xlink:href="#path-7"></use>
            </mask>
            <g id="Mask" opacity="0.3" fill-rule="nonzero"></g>
            <g id="✱-/-Color-/-Icons-/-Black-/-Disabled" mask="url(#mask-8)" fill="#000000" fill-opacity="0.38">
                <rect id="Rectangle" x="0" y="0" width="101" height="101"></rect>
            </g>
        </g>
        <g id="↳-Light-Color" transform="translate(8.000000, 12.000000)">
            <mask id="mask-10" fill="white">
                <use xlink:href="#path-9"></use>
            </mask>
            <g id="Mask" opacity="0.3" fill-rule="nonzero"></g>
            <g id="✱-/-Color-/-Icons-/-Black-/-Disabled" mask="url(#mask-10)" fill="#000000" fill-opacity="0.38">
                <rect id="Rectangle" x="0" y="0" width="101" height="101"></rect>
            </g>
        </g>
        <g id="↳-Dark-Color" transform="translate(2.000000, 10.000000)">
            <mask id="mask-12" fill="white">
                <use xlink:href="#path-11"></use>
            </mask>
            <g id="Mask" fill-rule="nonzero"></g>
            <g id="✱-/-Color-/-Icons-/-Black-/-Inactive" mask="url(#mask-12)" fill="#000000" fill-opacity="0.54">
                <rect id="Rectangle" x="0" y="0" width="101" height="101"></rect>
            </g>
        </g>
        <g id="↳-Dark-Color" transform="translate(8.000000, 2.000000)">
            <mask id="mask-14" fill="white">
                <use xlink:href="#path-13"></use>
            </mask>
            <g id="Mask" fill-rule="nonzero"></g>
            <g id="✱-/-Color-/-Icons-/-Black-/-Inactive" mask="url(#mask-14)" fill="#000000" fill-opacity="0.54">
                <rect id="Rectangle" x="0" y="0" width="101" height="101"></rect>
            </g>
        </g>
        <g id="↳-Light-Color" transform="translate(8.000000, 12.000000)">
            <mask id="mask-16" fill="white">
                <use xlink:href="#path-15"></use>
            </mask>
            <g id="Mask" opacity="0.3" fill-rule="nonzero"></g>
            <g id="✱-/-Color-/-Icons-/-Black-/-Disabled" mask="url(#mask-16)" fill="#000000" fill-opacity="0.38">
                <rect id="Rectangle" x="0" y="0" width="101" height="101"></rect>
            </g>
        </g>
    </g>
</svg>