<?xml version="1.0" encoding="UTF-8"?>
<svg width="24px" height="24px" viewBox="0 0 24 24" version="1.1" xmlns="http://www.w3.org/2000/svg" xmlns:xlink="http://www.w3.org/1999/xlink">
    <!-- Generator: Sketch 50 (54983) - http://www.bohemiancoding.com/sketch -->
    <title>icon/av/control_camera_24px_rounded</title>
    <desc>Created with Sketch.</desc>
    <defs>
        <path d="M4.65,9.3499928 L2.7,11.2999928 C2.31,11.6899928 2.31,12.3199928 2.7,12.7099928 L4.65,14.6599928 C5.14,15.1499928 5.93,15.1499928 6.42,14.6599928 C6.9,14.1699928 6.9,13.3899928 6.42,12.8999928 L5.54,11.9999928 L6.42,11.1099928 C6.9,10.6199928 6.9,9.8399928 6.42,9.3499928 C5.94,8.8599928 5.14,8.8599928 4.65,9.3499928 Z M17.58,9.3499928 C17.1,9.8399928 17.1,10.6199928 17.58,11.1099928 L18.46,11.9999928 L17.58,12.8899928 C17.1,13.3799928 17.1,14.1599928 17.58,14.6499928 C18.07,15.1399928 18.86,15.1399928 19.35,14.6499928 L21.3,12.6999928 C21.69,12.3099928 21.69,11.6799928 21.3,11.2899928 L19.35,9.3399928 C18.86,8.8599928 18.06,8.8599928 17.58,9.3499928 Z M12,18.4599928 L11.11,17.5799928 C10.62,17.0999928 9.84,17.0999928 9.35,17.5799928 C8.86,18.0699928 8.86,18.8599928 9.35,19.3499928 L11.3,21.2999928 C11.69,21.6899928 12.32,21.6899928 12.71,21.2999928 L14.66,19.3499928 C15.15,18.8599928 15.15,18.0699928 14.66,17.5799928 C14.17,17.0999928 13.39,17.0999928 12.9,17.5799928 L12,18.4599928 Z M9.35,6.4199928 C9.84,6.8999928 10.62,6.8999928 11.11,6.4199928 L12,5.5399928 L12.89,6.4199928 C13.38,6.8999928 14.16,6.8999928 14.65,6.4199928 C15.14,5.9299928 15.14,5.1399928 14.65,4.6499928 L12.7,2.6999928 C12.5131685,2.51274013 12.2595176,2.4075072 11.995,2.4075072 C11.7304824,2.4075072 11.4768315,2.51274013 11.29,2.6999928 L9.35,4.6499928 C8.86,5.1399928 8.86,5.9399928 9.35,6.4199928 Z M12,8.9999928 C10.3431458,8.9999928 9,10.3431386 9,11.9999928 C9,13.6568471 10.3431458,14.9999928 12,14.9999928 C13.6568542,14.9999928 15,13.6568471 15,11.9999928 C15,10.3431386 13.6568542,8.9999928 12,8.9999928 Z" id="path-1"></path>
    </defs>
    <g id="icon/av/control_camera_24px" stroke="none" stroke-width="1" fill="none" fill-rule="evenodd">
        <mask id="mask-2" fill="white">
            <use xlink:href="#path-1"></use>
        </mask>
        <g fill-rule="nonzero"></g>
        <g id="✱-/-Color-/-Icons-/-Black-/-Inactive" mask="url(#mask-2)" fill="#000000" fill-opacity="0.54">
            <rect id="Rectangle" x="0" y="0" width="24" height="24"></rect>
        </g>
    </g>
</svg>