<?xml version="1.0" encoding="UTF-8"?>
<svg width="24px" height="24px" viewBox="0 0 24 24" version="1.1" xmlns="http://www.w3.org/2000/svg" xmlns:xlink="http://www.w3.org/1999/xlink">
    <!-- Generator: Sketch 50 (54983) - http://www.bohemiancoding.com/sketch -->
    <title>icon/av/explicit_24px_rounded</title>
    <desc>Created with Sketch.</desc>
    <defs>
        <path d="M19,3 L5,3 C3.9,3 3,3.9 3,5 L3,19 C3,20.1 3.9,21 5,21 L19,21 C20.1,21 21,20.1 21,19 L21,5 C21,3.9 20.1,3 19,3 Z M14,9 L11,9 L11,11 L14,11 C14.55,11 15,11.45 15,12 C15,12.55 14.55,13 14,13 L11,13 L11,15 L14,15 C14.55,15 15,15.45 15,16 C15,16.55 14.55,17 14,17 L10,17 C9.45,17 9,16.55 9,16 L9,8 C9,7.45 9.45,7 10,7 L14,7 C14.55,7 15,7.45 15,8 C15,8.55 14.55,9 14,9 Z" id="path-1"></path>
    </defs>
    <g id="icon/av/explicit_24px" stroke="none" stroke-width="1" fill="none" fill-rule="evenodd">
        <mask id="mask-2" fill="white">
            <use xlink:href="#path-1"></use>
        </mask>
        <g fill-rule="nonzero"></g>
        <g id="✱-/-Color-/-Icons-/-Black-/-Inactive" mask="url(#mask-2)" fill="#000000" fill-opacity="0.54">
            <rect id="Rectangle" x="0" y="0" width="24" height="24"></rect>
        </g>
    </g>
</svg>