<?xml version="1.0" encoding="UTF-8"?>
<svg width="24px" height="24px" viewBox="0 0 24 24" version="1.1" xmlns="http://www.w3.org/2000/svg" xmlns:xlink="http://www.w3.org/1999/xlink">
    <!-- Generator: Sketch 50 (54983) - http://www.bohemiancoding.com/sketch -->
    <title>icon/av/fiber_dvr_24px_rounded</title>
    <desc>Created with Sketch.</desc>
    <defs>
        <path d="M4.5,10.5 L6.5,10.5 L6.5,13.5 L4.5,13.5 L4.5,10.5 Z M17.5,10.5 L19.5,10.5 L19.5,11.5 L17.5,11.5 L17.5,10.5 Z M21,3 L3,3 C1.89,3 1,3.89 1,5 L1,19 C1,20.1 1.89,21 3,21 L21,21 C22.11,21 23,20.1 23,19 L23,5 C23,3.89 22.11,3 21,3 Z M8,13.5 C8,14.33 7.33,15 6.5,15 L3.5,15 C3.22,15 3,14.78 3,14.5 L3,9.5 C3,9.22 3.22,9 3.5,9 L6.5,9 C7.33,9 8,9.67 8,10.5 L8,13.5 Z M14.1,9.92 L12.83,14.28 C12.71,14.71 12.31,15 11.87,15 C11.43,15 11.03,14.71 10.91,14.28 L9.64,9.92 C9.5,9.46 9.85,9 10.33,9 C10.65,9 10.93,9.21 11.02,9.52 L11.87,12.43 L12.72,9.52 C12.81,9.21 13.09,9 13.41,9 C13.89,9 14.24,9.46 14.1,9.92 Z M21,11.5 C21,12.1 20.6,12.65 20.1,12.9 L20.73,14.38 C20.92,14.83 20.59,15.34 20.1,15.34 C19.82,15.34 19.57,15.18 19.47,14.92 L18.65,13 L17.5,13 L17.5,14.31 C17.5,14.69 17.19,15 16.81,15 L16.69,15 C16.31,15 16,14.69 16,14.31 L16,9.64 C16,9.29 16.29,9 16.64,9 L19.5,9 C20.33,9 21,9.67 21,10.5 L21,11.5 Z" id="path-1"></path>
    </defs>
    <g id="icon/av/fiber_dvr_24px" stroke="none" stroke-width="1" fill="none" fill-rule="evenodd">
        <mask id="mask-2" fill="white">
            <use xlink:href="#path-1"></use>
        </mask>
        <g fill-rule="nonzero"></g>
        <g id="✱-/-Color-/-Icons-/-Black-/-Inactive" mask="url(#mask-2)" fill="#000000" fill-opacity="0.54">
            <rect id="Rectangle" x="0" y="0" width="24" height="24"></rect>
        </g>
    </g>
</svg>