<?xml version="1.0" encoding="UTF-8"?>
<svg width="24px" height="24px" viewBox="0 0 24 24" version="1.1" xmlns="http://www.w3.org/2000/svg" xmlns:xlink="http://www.w3.org/1999/xlink">
    <!-- Generator: Sketch 50 (54983) - http://www.bohemiancoding.com/sketch -->
    <title>icon/av/fiber_smart_record_24px_rounded</title>
    <desc>Created with Sketch.</desc>
    <defs>
        <path d="M9,4 C4.581722,4 1,7.581722 1,12 C1,16.418278 4.581722,20 9,20 C13.418278,20 17,16.418278 17,12 C17,7.581722 13.418278,4 9,4 Z M17,5.55 L17,5.73 C17,6.1 17.23,6.42 17.57,6.58 C19.6,7.54 21,9.61 21,12 C21,14.39 19.6,16.46 17.57,17.42 C17.23,17.58 17,17.89 17,18.26 L17,18.44 C17,19.12 17.71,19.55 18.32,19.26 C21.08,18.01 23,15.23 23,12 C23,8.77 21.08,5.99 18.32,4.73 C17.71,4.45 17,4.87 17,5.55 Z" id="path-1"></path>
    </defs>
    <g id="icon/av/fiber_smart_record_24px" stroke="none" stroke-width="1" fill="none" fill-rule="evenodd">
        <mask id="mask-2" fill="white">
            <use xlink:href="#path-1"></use>
        </mask>
        <g fill-rule="nonzero"></g>
        <g id="✱-/-Color-/-Icons-/-Black-/-Inactive" mask="url(#mask-2)" fill="#000000" fill-opacity="0.54">
            <rect id="Rectangle" x="0" y="0" width="24" height="24"></rect>
        </g>
    </g>
</svg>