<?xml version="1.0" encoding="UTF-8"?>
<svg width="24px" height="24px" viewBox="0 0 24 24" version="1.1" xmlns="http://www.w3.org/2000/svg" xmlns:xlink="http://www.w3.org/1999/xlink">
    <!-- Generator: Sketch 50 (54983) - http://www.bohemiancoding.com/sketch -->
    <title>icon/av/forward_5_24px_rounded</title>
    <desc>Created with Sketch.</desc>
    <defs>
        <path d="M18.9533635,13.6489204 C18.4533635,13.6489204 18.0433635,14.0189204 17.9733635,14.5089204 C17.4933635,17.8789204 14.2033635,20.3489204 10.5533635,19.4689204 C8.30336346,18.9289204 6.64336346,17.1989204 6.16336346,14.9389204 C5.35336346,11.0689204 8.30336346,7.64892043 12.0333635,7.64892043 L12.0333635,10.4389204 C12.0333635,10.8889204 12.5733635,11.1089204 12.8833635,10.7889204 L16.6733635,6.99892043 C16.8733635,6.79892043 16.8733635,6.48892043 16.6733635,6.28892043 L12.8833635,2.49892043 C12.5733635,2.18892043 12.0333635,2.40892043 12.0333635,2.84892043 L12.0333635,5.64892043 C7.09336346,5.64892043 3.19336346,10.1289204 4.19336346,15.2489204 C4.79336346,18.3589204 7.09336346,20.7489204 10.1833635,21.4389204 C15.0133635,22.5189204 19.3333635,19.2389204 19.9533635,14.7689204 C20.0433635,14.1789204 19.5533635,13.6489204 18.9533635,13.6489204 Z M12.5133635,15.7989204 C12.4633635,15.8689204 12.4033635,15.9289204 12.3333635,15.9689204 C12.2633635,16.0089204 12.1633635,16.0289204 12.0633635,16.0289204 C11.8933635,16.0289204 11.7533635,15.9789204 11.6433635,15.8789204 C11.5333635,15.7789204 11.4733635,15.6389204 11.4533635,15.4689204 L10.6133635,15.4689204 C10.6233635,15.6689204 10.6633635,15.8389204 10.7433635,15.9989204 C10.8233635,16.1589204 10.9333635,16.2789204 11.0633635,16.3889204 C11.1933635,16.4989204 11.3533635,16.5789204 11.5233635,16.6289204 C11.6933635,16.6789204 11.8733635,16.7089204 12.0533635,16.7089204 C12.2933635,16.7089204 12.5133635,16.6689204 12.6933635,16.5889204 C12.8733635,16.5089204 13.0233635,16.4089204 13.1433635,16.2789204 C13.2633635,16.1489204 13.3533635,15.9989204 13.4133635,15.8289204 C13.4733635,15.6589204 13.5033635,15.4789204 13.5033635,15.2889204 C13.5033635,15.0689204 13.4733635,14.8589204 13.4133635,14.6889204 C13.3533635,14.5189204 13.2733635,14.3589204 13.1633635,14.2389204 C13.0533635,14.1189204 12.9133635,14.0189204 12.7533635,13.9589204 C12.5933635,13.8989204 12.4133635,13.8589204 12.2033635,13.8589204 C12.1333635,13.8589204 12.0633635,13.8689204 12.0033635,13.8789204 C11.9433635,13.8889204 11.8733635,13.8989204 11.8233635,13.9189204 C11.7733635,13.9389204 11.7233635,13.9489204 11.6733635,13.9689204 C11.6233635,13.9889204 11.5933635,14.0089204 11.5633635,14.0189204 L11.6733635,13.0989204 L13.3733635,13.0989204 L13.3733635,12.3889204 L10.9833635,12.3889204 L10.7333635,14.5589204 L11.4033635,14.7289204 C11.4333635,14.6989204 11.4633635,14.6689204 11.5033635,14.6389204 C11.5433635,14.6089204 11.5733635,14.5889204 11.6233635,14.5689204 C11.6733635,14.5489204 11.7233635,14.5289204 11.7733635,14.5189204 C11.8233635,14.5089204 11.9033635,14.4989204 11.9733635,14.4989204 C12.0933635,14.4989204 12.1933635,14.5189204 12.2733635,14.5489204 C12.3533635,14.5789204 12.4333635,14.6389204 12.4833635,14.6989204 C12.5333635,14.7589204 12.5833635,14.8389204 12.6133635,14.9389204 C12.6433635,15.0389204 12.6533635,15.1289204 12.6533635,15.2489204 C12.6533635,15.3689204 12.6433635,15.4689204 12.6233635,15.5589204 C12.6033635,15.6489204 12.5633635,15.7289204 12.5133635,15.7989204 Z" id="path-1"></path>
    </defs>
    <g id="icon/av/forward_5_24px" stroke="none" stroke-width="1" fill="none" fill-rule="evenodd">
        <mask id="mask-2" fill="white">
            <use xlink:href="#path-1"></use>
        </mask>
        <g fill-rule="nonzero"></g>
        <g id="✱-/-Color-/-Icons-/-Black-/-Inactive" mask="url(#mask-2)" fill="#000000" fill-opacity="0.54">
            <rect id="Rectangle" x="0" y="0" width="24" height="24"></rect>
        </g>
    </g>
</svg>