<?xml version="1.0" encoding="UTF-8"?>
<svg width="24px" height="24px" viewBox="0 0 24 24" version="1.1" xmlns="http://www.w3.org/2000/svg" xmlns:xlink="http://www.w3.org/1999/xlink">
    <!-- Generator: Sketch 50 (54983) - http://www.bohemiancoding.com/sketch -->
    <title>icon/av/forward_30_24px_rounded</title>
    <desc>Created with Sketch.</desc>
    <defs>
        <path d="M18.9533635,13.648753 C18.4533635,13.648753 18.0433635,14.018753 17.9733635,14.508753 C17.4933635,17.878753 14.2033635,20.348753 10.5533635,19.468753 C8.30336346,18.928753 6.64336346,17.198753 6.16336346,14.938753 C5.35336346,11.068753 8.30336346,7.64875295 12.0333635,7.64875295 L12.0333635,10.438753 C12.0333635,10.888753 12.5733635,11.108753 12.8833635,10.788753 L16.6733635,6.99875295 C16.8733635,6.79875295 16.8733635,6.48875295 16.6733635,6.28875295 L12.8833635,2.49875295 C12.5733635,2.18875295 12.0333635,2.40875295 12.0333635,2.85875295 L12.0333635,5.64875295 C7.09336346,5.64875295 3.19336346,10.128753 4.19336346,15.248753 C4.79336346,18.358753 7.09336346,20.748753 10.1833635,21.438753 C15.0133635,22.518753 19.3333635,19.238753 19.9533635,14.768753 C20.0433635,14.178753 19.5533635,13.648753 18.9533635,13.648753 Z M10.5733635,15.868753 C10.5133635,15.918753 10.4533635,15.958753 10.3733635,15.988753 C10.2933635,16.018753 10.2033635,16.028753 10.1033635,16.028753 C10.0133635,16.028753 9.93336346,16.018753 9.85336346,15.988753 C9.77336346,15.958753 9.71336346,15.928753 9.65336346,15.878753 C9.59336346,15.828753 9.55336346,15.778753 9.52336346,15.708753 C9.49336346,15.638753 9.47336346,15.568753 9.47336346,15.488753 L8.62336346,15.488753 C8.62336346,15.698753 8.66336346,15.878753 8.74336346,16.038753 C8.82336346,16.198753 8.93336346,16.318753 9.07336346,16.418753 C9.21336346,16.518753 9.36336346,16.598753 9.53336346,16.648753 C9.70336346,16.698753 9.88336346,16.718753 10.0633635,16.718753 C10.2733635,16.718753 10.4733635,16.688753 10.6633635,16.638753 C10.8533635,16.588753 11.0033635,16.498753 11.1433635,16.398753 C11.2833635,16.298753 11.3833635,16.158753 11.4633635,16.008753 C11.5433635,15.858753 11.5833635,15.678753 11.5833635,15.478753 C11.5833635,15.248753 11.5233635,15.038753 11.4033635,14.868753 C11.2833635,14.698753 11.1033635,14.568753 10.8633635,14.478753 C10.9633635,14.428753 11.0633635,14.378753 11.1433635,14.308753 C11.2233635,14.238753 11.2933635,14.168753 11.3433635,14.088753 C11.3933635,14.008753 11.4433635,13.928753 11.4733635,13.838753 C11.5033635,13.748753 11.5133635,13.658753 11.5133635,13.568753 C11.5133635,13.368753 11.4733635,13.198753 11.4033635,13.038753 C11.3333635,12.878753 11.2333635,12.758753 11.1033635,12.658753 C10.9733635,12.558753 10.8233635,12.478753 10.6433635,12.428753 C10.4633635,12.378753 10.2733635,12.348753 10.0533635,12.348753 C9.86336346,12.348753 9.67336346,12.378753 9.51336346,12.428753 C9.35336346,12.478753 9.19336346,12.558753 9.07336346,12.658753 C8.95336346,12.758753 8.84336346,12.878753 8.77336346,13.028753 C8.70336346,13.178753 8.66336346,13.328753 8.66336346,13.508753 L9.51336346,13.508753 C9.51336346,13.438753 9.53336346,13.368753 9.56336346,13.308753 C9.59336346,13.248753 9.63336346,13.198753 9.68336346,13.158753 C9.73336346,13.118753 9.79336346,13.088753 9.86336346,13.058753 C9.93336346,13.028753 10.0033635,13.028753 10.0833635,13.028753 C10.1833635,13.028753 10.2633635,13.038753 10.3333635,13.068753 C10.4033635,13.098753 10.4633635,13.128753 10.5133635,13.178753 C10.5633635,13.228753 10.5933635,13.288753 10.6233635,13.348753 C10.6533635,13.408753 10.6633635,13.488753 10.6633635,13.568753 C10.6633635,13.748753 10.6133635,13.888753 10.5033635,13.998753 C10.3933635,14.108753 10.2433635,14.158753 10.0233635,14.158753 L9.59336346,14.158753 L9.59336346,14.818753 L10.0433635,14.818753 C10.1533635,14.818753 10.2433635,14.828753 10.3333635,14.858753 C10.4233635,14.888753 10.4933635,14.918753 10.5533635,14.968753 C10.6133635,15.018753 10.6633635,15.088753 10.6933635,15.168753 C10.7233635,15.248753 10.7433635,15.348753 10.7433635,15.458753 C10.7433635,15.548753 10.7333635,15.628753 10.7033635,15.698753 C10.6733635,15.768753 10.6233635,15.808753 10.5733635,15.868753 Z M14.4733635,12.428753 C14.2933635,12.358753 14.1033635,12.328753 13.8833635,12.328753 C13.6633635,12.328753 13.4733635,12.358753 13.2933635,12.428753 C13.1133635,12.498753 12.9633635,12.608753 12.8433635,12.758753 C12.7233635,12.908753 12.6133635,13.098753 12.5533635,13.328753 C12.4933635,13.558753 12.4533635,13.828753 12.4533635,14.148753 L12.4533635,14.888753 C12.4533635,15.208753 12.4933635,15.488753 12.5633635,15.708753 C12.6333635,15.928753 12.7333635,16.128753 12.8633635,16.278753 C12.9933635,16.428753 13.1433635,16.538753 13.3233635,16.608753 C13.5033635,16.678753 13.6933635,16.708753 13.9133635,16.708753 C14.1333635,16.708753 14.3233635,16.678753 14.5033635,16.608753 C14.6833635,16.538753 14.8333635,16.428753 14.9533635,16.278753 C15.0733635,16.128753 15.1733635,15.938753 15.2433635,15.708753 C15.3133635,15.478753 15.3433635,15.208753 15.3433635,14.888753 L15.3433635,14.148753 C15.3433635,13.828753 15.3033635,13.548753 15.2333635,13.328753 C15.1633635,13.108753 15.0633635,12.908753 14.9333635,12.758753 C14.8033635,12.608753 14.6533635,12.498753 14.4733635,12.428753 Z M14.4833635,14.998753 C14.4833635,15.188753 14.4733635,15.348753 14.4433635,15.478753 C14.4133635,15.608753 14.3833635,15.718753 14.3333635,15.798753 C14.2833635,15.878753 14.2233635,15.938753 14.1433635,15.968753 C14.0633635,15.998753 13.9833635,16.018753 13.8933635,16.018753 C13.8033635,16.018753 13.7133635,15.998753 13.6433635,15.968753 C13.5733635,15.938753 13.5033635,15.878753 13.4533635,15.798753 C13.4033635,15.718753 13.3633635,15.608753 13.3333635,15.478753 C13.3033635,15.348753 13.2933635,15.188753 13.2933635,14.998753 L13.2933635,14.028753 C13.2933635,13.838753 13.3033635,13.678753 13.3333635,13.548753 C13.3633635,13.418753 13.3933635,13.318753 13.4533635,13.238753 C13.5133635,13.158753 13.5633635,13.098753 13.6433635,13.068753 C13.7233635,13.038753 13.8033635,13.018753 13.8933635,13.018753 C13.9833635,13.018753 14.0733635,13.038753 14.1433635,13.068753 C14.2133635,13.098753 14.2833635,13.158753 14.3333635,13.238753 C14.3833635,13.318753 14.4233635,13.418753 14.4533635,13.548753 C14.4833635,13.678753 14.4933635,13.838753 14.4933635,14.028753 L14.4933635,14.998753 L14.4833635,14.998753 Z" id="path-1"></path>
    </defs>
    <g id="icon/av/forward_30_24px" stroke="none" stroke-width="1" fill="none" fill-rule="evenodd">
        <mask id="mask-2" fill="white">
            <use xlink:href="#path-1"></use>
        </mask>
        <g fill-rule="nonzero"></g>
        <g id="✱-/-Color-/-Icons-/-Black-/-Inactive" mask="url(#mask-2)" fill="#000000" fill-opacity="0.54">
            <rect id="Rectangle" x="0" y="0" width="24" height="24"></rect>
        </g>
    </g>
</svg>