<?xml version="1.0" encoding="UTF-8"?>
<svg width="24px" height="24px" viewBox="0 0 24 24" version="1.1" xmlns="http://www.w3.org/2000/svg" xmlns:xlink="http://www.w3.org/1999/xlink">
    <!-- Generator: Sketch 50 (54983) - http://www.bohemiancoding.com/sketch -->
    <title>icon/av/forward_10_24px_rounded</title>
    <desc>Created with Sketch.</desc>
    <defs>
        <path d="M18.9533635,13.648753 C18.4533635,13.648753 18.0433635,14.018753 17.9733635,14.508753 C17.4933635,17.878753 14.2033635,20.348753 10.5533635,19.468753 C8.30336346,18.928753 6.64336346,17.198753 6.16336346,14.938753 C5.35336346,11.068753 8.30336346,7.64875295 12.0333635,7.64875295 L12.0333635,10.438753 C12.0333635,10.888753 12.5733635,11.108753 12.8833635,10.788753 L16.6733635,6.99875295 C16.8733635,6.79875295 16.8733635,6.48875295 16.6733635,6.28875295 L12.8833635,2.49875295 C12.5733635,2.18875295 12.0333635,2.40875295 12.0333635,2.85875295 L12.0333635,5.64875295 C7.09336346,5.64875295 3.19336346,10.128753 4.19336346,15.248753 C4.79336346,18.358753 7.09336346,20.748753 10.1833635,21.438753 C15.0133635,22.518753 19.3333635,19.238753 19.9533635,14.768753 C20.0433635,14.178753 19.5533635,13.648753 18.9533635,13.648753 Z M10.9333635,16.648753 L10.9333635,12.378753 L10.8433635,12.378753 L9.07336346,13.008753 L9.07336346,13.698753 L10.0833635,13.388753 L10.0833635,16.648753 L10.9333635,16.648753 Z M14.3533635,12.428753 C14.1733635,12.358753 13.9833635,12.328753 13.7633635,12.328753 C13.5433635,12.328753 13.3533635,12.358753 13.1733635,12.428753 C12.9933635,12.498753 12.8433635,12.608753 12.7233635,12.758753 C12.6033635,12.908753 12.4933635,13.098753 12.4333635,13.328753 C12.3733635,13.558753 12.3333635,13.828753 12.3333635,14.148753 L12.3333635,14.888753 C12.3333635,15.208753 12.3733635,15.488753 12.4433635,15.708753 C12.5133635,15.928753 12.6133635,16.128753 12.7433635,16.278753 C12.8733635,16.428753 13.0233635,16.538753 13.2033635,16.608753 C13.3833635,16.678753 13.5733635,16.708753 13.7933635,16.708753 C14.0133635,16.708753 14.2033635,16.678753 14.3833635,16.608753 C14.5633635,16.538753 14.7133635,16.428753 14.8333635,16.278753 C14.9533635,16.128753 15.0533635,15.938753 15.1233635,15.708753 C15.1933635,15.478753 15.2233635,15.208753 15.2233635,14.888753 L15.2233635,14.148753 C15.2233635,13.828753 15.1833635,13.548753 15.1133635,13.328753 C15.0433635,13.108753 14.9433635,12.908753 14.8133635,12.758753 C14.6833635,12.608753 14.5233635,12.498753 14.3533635,12.428753 Z M14.3633635,14.998753 C14.3633635,15.188753 14.3533635,15.348753 14.3233635,15.478753 C14.2933635,15.608753 14.2633635,15.718753 14.2133635,15.798753 C14.1633635,15.878753 14.1033635,15.938753 14.0233635,15.968753 C13.9433635,15.998753 13.8633635,16.018753 13.7733635,16.018753 C13.6833635,16.018753 13.5933635,15.998753 13.5233635,15.968753 C13.4533635,15.938753 13.3833635,15.878753 13.3333635,15.798753 C13.2833635,15.718753 13.2433635,15.608753 13.2133635,15.478753 C13.1833635,15.348753 13.1733635,15.188753 13.1733635,14.998753 L13.1733635,14.028753 C13.1733635,13.838753 13.1833635,13.678753 13.2133635,13.548753 C13.2433635,13.418753 13.2733635,13.318753 13.3333635,13.238753 C13.3933635,13.158753 13.4433635,13.098753 13.5233635,13.068753 C13.6033635,13.038753 13.6833635,13.018753 13.7733635,13.018753 C13.8633635,13.018753 13.9533635,13.038753 14.0233635,13.068753 C14.0933635,13.098753 14.1633635,13.158753 14.2133635,13.238753 C14.2633635,13.318753 14.3033635,13.418753 14.3333635,13.548753 C14.3633635,13.678753 14.3733635,13.838753 14.3733635,14.028753 L14.3733635,14.998753 L14.3633635,14.998753 Z" id="path-1"></path>
    </defs>
    <g id="icon/av/forward_10_24px" stroke="none" stroke-width="1" fill="none" fill-rule="evenodd">
        <mask id="mask-2" fill="white">
            <use xlink:href="#path-1"></use>
        </mask>
        <g fill-rule="nonzero"></g>
        <g id="✱-/-Color-/-Icons-/-Black-/-Inactive" mask="url(#mask-2)" fill="#000000" fill-opacity="0.54">
            <rect id="Rectangle" x="0" y="0" width="24" height="24"></rect>
        </g>
    </g>
</svg>