<?xml version="1.0" encoding="UTF-8"?>
<svg width="24px" height="24px" viewBox="0 0 24 24" version="1.1" xmlns="http://www.w3.org/2000/svg" xmlns:xlink="http://www.w3.org/1999/xlink">
    <!-- Generator: Sketch 50 (54983) - http://www.bohemiancoding.com/sketch -->
    <title>icon/av/hearing_24px_rounded</title>
    <desc>Created with Sketch.</desc>
    <defs>
        <path d="M17.0269476,20.1650116 C16.7369476,20.1650116 16.4669476,20.1050116 16.2669476,20.0150116 C15.5569476,19.6450116 15.0569476,19.1350116 14.5569476,17.6350116 C14.0469476,16.0750116 13.0869476,15.3450116 12.1669476,14.6350116 C11.3769476,14.0250116 10.5569476,13.3950116 9.84694762,12.1050116 C9.31694762,11.1450116 9.02694762,10.0950116 9.02694762,9.16501155 C9.02694762,6.36501155 11.2269476,4.16501155 14.0269476,4.16501155 C16.5869476,4.16501155 18.6569476,6.01501155 18.9769476,8.47501155 C19.0369476,8.87501155 19.3869476,9.16501155 19.7969476,9.16501155 L20.1369476,9.16501155 C20.6369476,9.16501155 21.0269476,8.72501155 20.9669476,8.22501155 C20.5169476,4.75501155 17.6369476,2.16501155 14.0269476,2.16501155 C10.0969476,2.16501155 7.02694762,5.23501155 7.02694762,9.16501155 C7.02694762,10.4250116 7.40694762,11.8150116 8.09694762,13.0650116 C9.00694762,14.7150116 10.0769476,15.5450116 10.9469476,16.2150116 C11.7569476,16.8350116 12.3369476,17.2850116 12.6569476,18.2650116 C13.2569476,20.0850116 14.0269476,21.1050116 15.3869476,21.8150116 C15.8969476,22.0450116 16.4569476,22.1650116 17.0269476,22.1650116 C18.8669476,22.1650116 20.4169476,20.9250116 20.8869476,19.2350116 C21.0269476,18.6950116 20.6369476,18.1650116 20.0769476,18.1650116 L19.7269476,18.1650116 C19.3469476,18.1650116 19.0469476,18.4350116 18.9169476,18.7950116 C18.6569476,19.5850116 17.9069476,20.1650116 17.0269476,20.1650116 Z M6.99694762,2.13501155 C6.56694762,1.70501155 5.87694762,1.74501155 5.49694762,2.20501155 C3.95694762,4.10501155 3.02694762,6.52501155 3.02694762,9.16501155 C3.02694762,11.8050116 3.95694762,14.2250116 5.49694762,16.1150116 C5.87694762,16.5750116 6.56694762,16.6150116 6.98694762,16.1950116 C7.34694762,15.8350116 7.37694762,15.2650116 7.05694762,14.8750116 C5.79694762,13.3250116 5.02694762,11.3350116 5.02694762,9.16501155 C5.02694762,6.99501155 5.79694762,5.00501155 7.06694762,3.46501155 C7.39694762,3.06501155 7.35694762,2.49501155 6.99694762,2.13501155 Z M11.5269476,9.16501155 C11.5269476,10.5450116 12.6469476,11.6650116 14.0269476,11.6650116 C15.4069476,11.6650116 16.5269476,10.5450116 16.5269476,9.16501155 C16.5269476,7.78501155 15.4069476,6.66501155 14.0269476,6.66501155 C12.6469476,6.66501155 11.5269476,7.78501155 11.5269476,9.16501155 Z" id="path-1"></path>
    </defs>
    <g id="icon/av/hearing_24px" stroke="none" stroke-width="1" fill="none" fill-rule="evenodd">
        <mask id="mask-2" fill="white">
            <use xlink:href="#path-1"></use>
        </mask>
        <g fill-rule="nonzero"></g>
        <g id="✱-/-Color-/-Icons-/-Black-/-Inactive" mask="url(#mask-2)" fill="#000000" fill-opacity="0.54">
            <rect id="Rectangle" x="0" y="0" width="24" height="24"></rect>
        </g>
    </g>
</svg>