<?xml version="1.0" encoding="UTF-8"?>
<svg width="24px" height="24px" viewBox="0 0 24 24" version="1.1" xmlns="http://www.w3.org/2000/svg" xmlns:xlink="http://www.w3.org/1999/xlink">
    <!-- Generator: Sketch 50 (54983) - http://www.bohemiancoding.com/sketch -->
    <title>icon/av/mic_off_24px_rounded</title>
    <desc>Created with Sketch.</desc>
    <defs>
        <path d="M14.92,11.1 L14.92,5.5 C14.92,3.84 13.58,2.5 11.92,2.5 C10.38,2.5 9.13,3.66 8.96,5.15 L14.92,11.1 Z M18,11.5 C17.59,11.5 17.23,11.8 17.17,12.21 C17.12,12.53 17.05,12.85 16.95,13.14 L18.22,14.41 C18.52,13.81 18.74,13.16 18.85,12.47 C18.92,11.96 18.52,11.5 18,11.5 Z M3.63,4.06 C3.24,4.45 3.24,5.08 3.63,5.47 L8.92,10.77 L8.92,11.2 C8.92,12.39 9.52,13.52 10.55,14.11 C11.3,14.54 11.96,14.55 12.57,14.42 L14.23,16.08 C13.52,16.41 12.73,16.6 11.92,16.6 C9.38,16.6 7.04,14.83 6.67,12.21 C6.61,11.8 6.25,11.5 5.84,11.5 C5.32,11.5 4.92,11.96 4.99,12.47 C5.45,15.43 7.95,17.77 10.92,18.22 L10.92,20.5 C10.92,21.05 11.37,21.5 11.92,21.5 C12.47,21.5 12.92,21.05 12.92,20.5 L12.92,18.22 C13.83,18.09 14.69,17.77 15.47,17.32 L18.96,20.81 C19.35,21.2 19.98,21.2 20.37,20.81 C20.76,20.42 20.76,19.79 20.37,19.4 L5.04,4.06 C4.85316847,3.87274733 4.59951764,3.76751439 4.335,3.76751439 C4.07048236,3.76751439 3.81683153,3.87274733 3.63,4.06 Z" id="path-1"></path>
    </defs>
    <g id="icon/av/mic_off_24px" stroke="none" stroke-width="1" fill="none" fill-rule="evenodd">
        <mask id="mask-2" fill="white">
            <use xlink:href="#path-1"></use>
        </mask>
        <g fill-rule="nonzero"></g>
        <g id="✱-/-Color-/-Icons-/-Black-/-Inactive" mask="url(#mask-2)" fill="#000000" fill-opacity="0.54">
            <rect id="Rectangle" x="0" y="0" width="24" height="24"></rect>
        </g>
    </g>
</svg>