<?xml version="1.0" encoding="UTF-8"?>
<svg width="24px" height="24px" viewBox="0 0 24 24" version="1.1" xmlns="http://www.w3.org/2000/svg" xmlns:xlink="http://www.w3.org/1999/xlink">
    <!-- Generator: Sketch 50 (54983) - http://www.bohemiancoding.com/sketch -->
    <title>icon/av/missed_video_call_24px_rounded</title>
    <desc>Created with Sketch.</desc>
    <defs>
        <path d="M17,10.5 L17,7 C17,6.45 16.55,6 16,6 L4,6 C3.45,6 3,6.45 3,7 L3,17 C3,17.55 3.45,18 4,18 L16,18 C16.55,18 17,17.55 17,17 L17,13.5 L19.29,15.79 C19.92,16.42 21,15.97 21,15.08 L21,8.91 C21,8.02 19.92,7.57 19.29,8.2 L17,10.5 Z M10.71,14.29 C10.32,14.68 9.69,14.68 9.3,14.29 L6.12,11.11 L6.12,13.66 L5,13.66 L5,9.72 C5,9.44 5.22,9.22 5.5,9.22 L9.44,9.22 L9.44,10.33 L6.89,10.33 L10,13.43 L14.22,9.21 L15,10 L10.71,14.29 Z" id="path-1"></path>
    </defs>
    <g id="icon/av/missed_video_call_24px" stroke="none" stroke-width="1" fill="none" fill-rule="evenodd">
        <mask id="mask-2" fill="white">
            <use xlink:href="#path-1"></use>
        </mask>
        <g fill-rule="nonzero"></g>
        <g id="✱-/-Color-/-Icons-/-Black-/-Inactive" mask="url(#mask-2)" fill="#000000" fill-opacity="0.54">
            <rect id="Rectangle" x="0" y="0" width="24" height="24"></rect>
        </g>
    </g>
</svg>