<?xml version="1.0" encoding="UTF-8"?>
<svg width="24px" height="24px" viewBox="0 0 24 24" version="1.1" xmlns="http://www.w3.org/2000/svg" xmlns:xlink="http://www.w3.org/1999/xlink">
    <!-- Generator: Sketch 50 (54983) - http://www.bohemiancoding.com/sketch -->
    <title>icon/av/music_video_24px_rounded</title>
    <desc>Created with Sketch.</desc>
    <defs>
        <path d="M21,3 L3,3 C1.9,3 1,3.9 1,5 L1,19 C1,20.1 1.9,21 3,21 L21,21 C22.1,21 23,20.1 23,19 L23,5 C23,3.9 22.1,3 21,3 Z M20,19 L4,19 C3.45,19 3,18.55 3,18 L3,6 C3,5.45 3.45,5 4,5 L20,5 C20.55,5 21,5.45 21,6 L21,18 C21,18.55 20.55,19 20,19 Z M8.05,15.54 C7.72,13.64 9.16,12 11,12 C11.35,12 11.69,12.07 12,12.18 L12,8 C12,6.9 12.9,6 14,6 L16,6 C16.55,6 17,6.45 17,7 C17,7.55 16.55,8 16,8 L14,8 L14,15.03 C13.98,16.85 12.34,18.29 10.45,17.95 C9.24,17.74 8.25,16.75 8.05,15.54 Z" id="path-1"></path>
    </defs>
    <g id="icon/av/music_video_24px" stroke="none" stroke-width="1" fill="none" fill-rule="evenodd">
        <mask id="mask-2" fill="white">
            <use xlink:href="#path-1"></use>
        </mask>
        <g fill-rule="nonzero"></g>
        <g id="✱-/-Color-/-Icons-/-Black-/-Inactive" mask="url(#mask-2)" fill="#000000" fill-opacity="0.54">
            <rect id="Rectangle" x="0" y="0" width="24" height="24"></rect>
        </g>
    </g>
</svg>