<?xml version="1.0" encoding="UTF-8"?>
<svg width="24px" height="24px" viewBox="0 0 24 24" version="1.1" xmlns="http://www.w3.org/2000/svg" xmlns:xlink="http://www.w3.org/1999/xlink">
    <!-- Generator: Sketch 50 (54983) - http://www.bohemiancoding.com/sketch -->
    <title>icon/av/new_releases_24px_rounded</title>
    <desc>Created with Sketch.</desc>
    <defs>
        <path d="M22.420618,11.34 L20.560618,9.22 L20.820618,6.41 C20.870618,5.91 20.530618,5.45 20.050618,5.34 L17.290618,4.71 L15.850618,2.28 C15.590618,1.85 15.060618,1.67 14.600618,1.87 L12.000618,3 L9.410618,1.89 C8.950618,1.69 8.410618,1.87 8.160618,2.3 L6.710618,4.72 L3.960618,5.34 C3.470618,5.45 3.130618,5.9 3.180618,6.41 L3.440618,9.21 L1.580618,11.34 C1.250618,11.72 1.250618,12.28 1.580618,12.66 L3.440618,14.78 L3.180618,17.6 C3.130618,18.1 3.470618,18.56 3.950618,18.67 L6.710618,19.3 L8.150618,21.72 C8.410618,22.15 8.940618,22.33 9.410618,22.13 L12.000618,21 L14.590618,22.11 C15.050618,22.31 15.590618,22.13 15.840618,21.7 L17.280618,19.27 L20.040618,18.64 C20.530618,18.53 20.860618,18.07 20.810618,17.57 L20.550618,14.76 L22.410618,12.64 C22.750618,12.28 22.750618,11.72 22.420618,11.34 Z M13.000618,17 L11.000618,17 L11.000618,15 L13.000618,15 L13.000618,17 Z M12.000618,13 C11.450618,13 11.000618,12.55 11.000618,12 L11.000618,8 C11.000618,7.45 11.450618,7 12.000618,7 C12.550618,7 13.000618,7.45 13.000618,8 L13.000618,12 C13.000618,12.55 12.550618,13 12.000618,13 Z" id="path-1"></path>
    </defs>
    <g id="icon/av/new_releases_24px" stroke="none" stroke-width="1" fill="none" fill-rule="evenodd">
        <mask id="mask-2" fill="white">
            <use xlink:href="#path-1"></use>
        </mask>
        <g fill-rule="nonzero"></g>
        <g id="✱-/-Color-/-Icons-/-Black-/-Inactive" mask="url(#mask-2)" fill="#000000" fill-opacity="0.54">
            <rect id="Rectangle" x="0" y="0" width="24" height="24"></rect>
        </g>
    </g>
</svg>