<?xml version="1.0" encoding="UTF-8"?>
<svg width="24px" height="24px" viewBox="0 0 24 24" version="1.1" xmlns="http://www.w3.org/2000/svg" xmlns:xlink="http://www.w3.org/1999/xlink">
    <!-- Generator: Sketch 50 (54983) - http://www.bohemiancoding.com/sketch -->
    <title>icon/av/note_24px_rounded</title>
    <desc>Created with Sketch.</desc>
    <defs>
        <path d="M21.41,9.41 L16.58,4.58 C16.21,4.21 15.7,4 15.17,4 L4,4 C2.9,4 2,4.9 2,6 L2,18.01 C2,19.11 2.89,20 3.99,20 L20,20 C21.1,20 22,19.1 22,18 L22,10.83 C22,10.3 21.79,9.79 21.41,9.41 Z M15,5.5 L20.5,11 L16,11 C15.45,11 15,10.55 15,10 L15,5.5 Z" id="path-1"></path>
    </defs>
    <g id="icon/av/note_24px" stroke="none" stroke-width="1" fill="none" fill-rule="evenodd">
        <mask id="mask-2" fill="white">
            <use xlink:href="#path-1"></use>
        </mask>
        <g fill-rule="nonzero"></g>
        <g id="✱-/-Color-/-Icons-/-Black-/-Inactive" mask="url(#mask-2)" fill="#000000" fill-opacity="0.54">
            <rect id="Rectangle" x="0" y="0" width="24" height="24"></rect>
        </g>
    </g>
</svg>