<?xml version="1.0" encoding="UTF-8"?>
<svg width="24px" height="24px" viewBox="0 0 24 24" version="1.1" xmlns="http://www.w3.org/2000/svg" xmlns:xlink="http://www.w3.org/1999/xlink">
    <!-- Generator: Sketch 50 (54983) - http://www.bohemiancoding.com/sketch -->
    <title>icon/av/pause_circle_filled_24px_rounded</title>
    <desc>Created with Sketch.</desc>
    <defs>
        <path d="M12,2 C6.48,2 2,6.48 2,12 C2,17.52 6.48,22 12,22 C17.52,22 22,17.52 22,12 C22,6.48 17.52,2 12,2 Z M10,16 C9.45,16 9,15.55 9,15 L9,9 C9,8.45 9.45,8 10,8 C10.55,8 11,8.45 11,9 L11,15 C11,15.55 10.55,16 10,16 Z M14,16 C13.45,16 13,15.55 13,15 L13,9 C13,8.45 13.45,8 14,8 C14.55,8 15,8.45 15,9 L15,15 C15,15.55 14.55,16 14,16 Z" id="path-1"></path>
    </defs>
    <g id="icon/av/pause_circle_filled_24px" stroke="none" stroke-width="1" fill="none" fill-rule="evenodd">
        <mask id="mask-2" fill="white">
            <use xlink:href="#path-1"></use>
        </mask>
        <g fill-rule="nonzero"></g>
        <g id="✱-/-Color-/-Icons-/-Black-/-Inactive" mask="url(#mask-2)" fill="#000000" fill-opacity="0.54">
            <rect id="Rectangle" x="0" y="0" width="24" height="24"></rect>
        </g>
    </g>
</svg>