<?xml version="1.0" encoding="UTF-8"?>
<svg width="24px" height="24px" viewBox="0 0 24 24" version="1.1" xmlns="http://www.w3.org/2000/svg" xmlns:xlink="http://www.w3.org/1999/xlink">
    <!-- Generator: Sketch 50 (54983) - http://www.bohemiancoding.com/sketch -->
    <title>icon/av/playlist_add_check_24px_rounded</title>
    <desc>Created with Sketch.</desc>
    <defs>
        <path d="M12.70375,9.20375 L2.70375,9.20375 C2.15375,9.20375 1.70375,9.65375 1.70375,10.20375 C1.70375,10.75375 2.15375,11.20375 2.70375,11.20375 L12.70375,11.20375 C13.25375,11.20375 13.70375,10.75375 13.70375,10.20375 C13.70375,9.65375 13.25375,9.20375 12.70375,9.20375 Z M12.70375,5.20375 L2.70375,5.20375 C2.15375,5.20375 1.70375,5.65375 1.70375,6.20375 C1.70375,6.75375 2.15375,7.20375 2.70375,7.20375 L12.70375,7.20375 C13.25375,7.20375 13.70375,6.75375 13.70375,6.20375 C13.70375,5.65375 13.25375,5.20375 12.70375,5.20375 Z M2.70375,15.20375 L8.70375,15.20375 C9.25375,15.20375 9.70375,14.75375 9.70375,14.20375 C9.70375,13.65375 9.25375,13.20375 8.70375,13.20375 L2.70375,13.20375 C2.15375,13.20375 1.70375,13.65375 1.70375,14.20375 C1.70375,14.75375 2.15375,15.20375 2.70375,15.20375 Z M21.91375,11.41375 L22.00375,11.50375 C22.39375,11.89375 22.39375,12.52375 22.00375,12.91375 L16.42375,18.50375 C16.03375,18.89375 15.40375,18.89375 15.01375,18.50375 L11.92375,15.41375 C11.7364973,15.2269185 11.6312644,14.9732676 11.6312644,14.70875 C11.6312644,14.4442324 11.7364973,14.1905815 11.92375,14.00375 L12.01375,13.91375 C12.40375,13.52375 13.03375,13.52375 13.42375,13.91375 L15.72375,16.21375 L20.50375,11.42375 C20.88375,11.02375 21.52375,11.02375 21.91375,11.41375 Z" id="path-1"></path>
    </defs>
    <g id="icon/av/playlist_add_check_24px" stroke="none" stroke-width="1" fill="none" fill-rule="evenodd">
        <mask id="mask-2" fill="white">
            <use xlink:href="#path-1"></use>
        </mask>
        <g fill-rule="nonzero"></g>
        <g id="✱-/-Color-/-Icons-/-Black-/-Inactive" mask="url(#mask-2)" fill="#000000" fill-opacity="0.54">
            <rect id="Rectangle" x="0" y="0" width="24" height="24"></rect>
        </g>
    </g>
</svg>