<?xml version="1.0" encoding="UTF-8"?>
<svg width="24px" height="24px" viewBox="0 0 24 24" version="1.1" xmlns="http://www.w3.org/2000/svg" xmlns:xlink="http://www.w3.org/1999/xlink">
    <!-- Generator: Sketch 50 (54983) - http://www.bohemiancoding.com/sketch -->
    <title>icon/av/playlist_play_24px_rounded</title>
    <desc>Created with Sketch.</desc>
    <defs>
        <path d="M5.735,9.19398079 L15.735,9.19398079 C16.285,9.19398079 16.735,9.64398079 16.735,10.1939808 C16.735,10.7439808 16.285,11.1939808 15.735,11.1939808 L5.735,11.1939808 C5.185,11.1939808 4.735,10.7439808 4.735,10.1939808 C4.735,9.64398079 5.185,9.19398079 5.735,9.19398079 Z M5.735,5.19398079 L15.735,5.19398079 C16.285,5.19398079 16.735,5.64398079 16.735,6.19398079 C16.735,6.74398079 16.285,7.19398079 15.735,7.19398079 L5.735,7.19398079 C5.185,7.19398079 4.735,6.74398079 4.735,6.19398079 C4.735,5.64398079 5.185,5.19398079 5.735,5.19398079 Z M5.735,13.1939808 L11.735,13.1939808 C12.285,13.1939808 12.735,13.6439808 12.735,14.1939808 C12.735,14.7439808 12.285,15.1939808 11.735,15.1939808 L5.735,15.1939808 C5.185,15.1939808 4.735,14.7439808 4.735,14.1939808 C4.735,13.6439808 5.185,13.1939808 5.735,13.1939808 Z M14.735,14.0739808 L14.735,18.3039808 C14.735,18.6939808 15.155,18.9339808 15.495,18.7339808 L19.025,16.6139808 C19.345,16.4239808 19.345,15.9539808 19.025,15.7539808 L15.495,13.6339808 C15.155,13.4439808 14.735,13.6839808 14.735,14.0739808 Z" id="path-1"></path>
    </defs>
    <g id="icon/av/playlist_play_24px" stroke="none" stroke-width="1" fill="none" fill-rule="evenodd">
        <mask id="mask-2" fill="white">
            <use xlink:href="#path-1"></use>
        </mask>
        <g fill-rule="nonzero"></g>
        <g id="✱-/-Color-/-Icons-/-Black-/-Inactive" mask="url(#mask-2)" fill="#000000" fill-opacity="0.54">
            <rect id="Rectangle" x="0" y="0" width="24" height="24"></rect>
        </g>
    </g>
</svg>