<?xml version="1.0" encoding="UTF-8"?>
<svg width="24px" height="24px" viewBox="0 0 24 24" version="1.1" xmlns="http://www.w3.org/2000/svg" xmlns:xlink="http://www.w3.org/1999/xlink">
    <!-- Generator: Sketch 50 (54983) - http://www.bohemiancoding.com/sketch -->
    <title>icon/av/queue_play_next_24px_rounded</title>
    <desc>Created with Sketch.</desc>
    <defs>
        <path d="M20.70875,2.47125 L2.70875,2.47125 C1.60875,2.47125 0.70875,3.37125 0.70875,4.47125 L0.70875,16.47125 C0.70875,17.57125 1.60875,18.47125 2.70875,18.47125 L7.70875,18.47125 L7.70875,19.47125 C7.70875,20.02125 8.15875,20.47125 8.70875,20.47125 L14.70875,20.47125 C15.25875,20.47125 15.70875,20.02125 15.70875,19.47125 L15.70875,18.47125 L16.70875,18.47125 C17.25875,18.47125 17.70875,18.02125 17.70875,17.47125 C17.70875,16.92125 17.25875,16.47125 16.70875,16.47125 L3.70875,16.47125 C3.15875,16.47125 2.70875,16.02125 2.70875,15.47125 L2.70875,5.47125 C2.70875,4.92125 3.15875,4.47125 3.70875,4.47125 L19.70875,4.47125 C20.25875,4.47125 20.70875,4.92125 20.70875,5.47125 L20.70875,11.47125 C20.70875,12.02125 21.15875,12.47125 21.70875,12.47125 C22.25875,12.47125 22.70875,12.02125 22.70875,11.47125 L22.70875,4.47125 C22.70875,3.37125 21.80875,2.47125 20.70875,2.47125 Z M12.70875,9.47125 L12.70875,7.47125 C12.70875,6.92125 12.25875,6.47125 11.70875,6.47125 C11.15875,6.47125 10.70875,6.92125 10.70875,7.47125 L10.70875,9.47125 L8.70875,9.47125 C8.15875,9.47125 7.70875,9.92125 7.70875,10.47125 C7.70875,11.02125 8.15875,11.47125 8.70875,11.47125 L10.70875,11.47125 L10.70875,13.47125 C10.70875,14.02125 11.15875,14.47125 11.70875,14.47125 C12.25875,14.47125 12.70875,14.02125 12.70875,13.47125 L12.70875,11.47125 L14.70875,11.47125 C15.25875,11.47125 15.70875,11.02125 15.70875,10.47125 C15.70875,9.92125 15.25875,9.47125 14.70875,9.47125 L12.70875,9.47125 Z M22.99875,18.18125 L19.95875,21.22125 C19.54875,21.63125 18.86875,21.63125 18.45875,21.22125 C18.04875,20.81125 18.04875,20.13125 18.45875,19.72125 L20.70875,17.47125 L18.45875,15.22125 C18.04875,14.81125 18.04875,14.13125 18.45875,13.72125 C18.86875,13.31125 19.54875,13.31125 19.95875,13.72125 L22.99875,16.76125 C23.38875,17.15125 23.38875,17.79125 22.99875,18.18125 Z" id="path-1"></path>
    </defs>
    <g id="icon/av/queue_play_next_24px" stroke="none" stroke-width="1" fill="none" fill-rule="evenodd">
        <mask id="mask-2" fill="white">
            <use xlink:href="#path-1"></use>
        </mask>
        <g fill-rule="nonzero"></g>
        <g id="✱-/-Color-/-Icons-/-Black-/-Inactive" mask="url(#mask-2)" fill="#000000" fill-opacity="0.54">
            <rect id="Rectangle" x="0" y="0" width="24" height="24"></rect>
        </g>
    </g>
</svg>