<?xml version="1.0" encoding="UTF-8"?>
<svg width="24px" height="24px" viewBox="0 0 24 24" version="1.1" xmlns="http://www.w3.org/2000/svg" xmlns:xlink="http://www.w3.org/1999/xlink">
    <!-- Generator: Sketch 50 (54983) - http://www.bohemiancoding.com/sketch -->
    <title>icon/av/queue_music_24px_rounded</title>
    <desc>Created with Sketch.</desc>
    <defs>
        <path d="M13.5,5.00134066 L3.5,5.00134066 C2.95,5.00134066 2.5,5.45134066 2.5,6.00134066 C2.5,6.55134066 2.95,7.00134066 3.5,7.00134066 L13.5,7.00134066 C14.05,7.00134066 14.5,6.55134066 14.5,6.00134066 C14.5,5.45134066 14.05,5.00134066 13.5,5.00134066 Z M13.5,9.00134066 L3.5,9.00134066 C2.95,9.00134066 2.5,9.45134066 2.5,10.0013407 C2.5,10.5513407 2.95,11.0013407 3.5,11.0013407 L13.5,11.0013407 C14.05,11.0013407 14.5,10.5513407 14.5,10.0013407 C14.5,9.45134066 14.05,9.00134066 13.5,9.00134066 Z M3.5,15.0013407 L9.5,15.0013407 C10.05,15.0013407 10.5,14.5513407 10.5,14.0013407 C10.5,13.4513407 10.05,13.0013407 9.5,13.0013407 L3.5,13.0013407 C2.95,13.0013407 2.5,13.4513407 2.5,14.0013407 C2.5,14.5513407 2.95,15.0013407 3.5,15.0013407 Z M18.5,5.00134066 C17.4,5.00134066 16.5,5.90134066 16.5,7.00134066 L16.5,13.1813407 C16.19,13.0713407 15.85,13.0013407 15.5,13.0013407 C13.66,13.0013407 12.22,14.6413407 12.55,16.5413407 C12.76,17.7513407 13.75,18.7413407 14.96,18.9513407 C16.86,19.2813407 18.5,17.8413407 18.5,16.0013407 L18.5,7.00134066 L20.5,7.00134066 C21.05,7.00134066 21.5,6.55134066 21.5,6.00134066 C21.5,5.45134066 21.05,5.00134066 20.5,5.00134066 L18.5,5.00134066 Z" id="path-1"></path>
    </defs>
    <g id="icon/av/queue_music_24px" stroke="none" stroke-width="1" fill="none" fill-rule="evenodd">
        <mask id="mask-2" fill="white">
            <use xlink:href="#path-1"></use>
        </mask>
        <g fill-rule="nonzero"></g>
        <g id="✱-/-Color-/-Icons-/-Black-/-Inactive" mask="url(#mask-2)" fill="#000000" fill-opacity="0.54">
            <rect id="Rectangle" x="0" y="0" width="24" height="24"></rect>
        </g>
    </g>
</svg>