<?xml version="1.0" encoding="UTF-8"?>
<svg width="24px" height="24px" viewBox="0 0 24 24" version="1.1" xmlns="http://www.w3.org/2000/svg" xmlns:xlink="http://www.w3.org/1999/xlink">
    <!-- Generator: Sketch 50 (54983) - http://www.bohemiancoding.com/sketch -->
    <title>icon/av/radio_24px_rounded</title>
    <desc>Created with Sketch.</desc>
    <defs>
        <path d="M3.24,6.51416014 C2.51,6.79416014 2,7.53416014 2,8.36416014 L2,20.3641601 C2,21.4641601 2.9,22.3641601 4,22.3641601 L20,22.3641601 C21.11,22.3641601 22,21.4641601 22,20.3641601 L22,8.36416014 C22,7.26416014 21.1,6.36416014 20,6.36416014 L8.3,6.36416014 L15.73,3.36416014 C16.19,3.17416014 16.41,2.65416014 16.22,2.19416014 C16.03,1.73416014 15.51,1.51416014 15.05,1.70416014 L3.24,6.51416014 Z M7,20.3641601 C5.34,20.3641601 4,19.0241601 4,17.3641601 C4,15.7041601 5.34,14.3641601 7,14.3641601 C8.66,14.3641601 10,15.7041601 10,17.3641601 C10,19.0241601 8.66,20.3641601 7,20.3641601 Z M20,12.3641601 L18,12.3641601 L18,11.3641601 C18,10.8141601 17.55,10.3641601 17,10.3641601 C16.45,10.3641601 16,10.8141601 16,11.3641601 L16,12.3641601 L4,12.3641601 L4,9.36416014 C4,8.81416014 4.45,8.36416014 5,8.36416014 L19,8.36416014 C19.55,8.36416014 20,8.81416014 20,9.36416014 L20,12.3641601 Z" id="path-1"></path>
    </defs>
    <g id="icon/av/radio_24px" stroke="none" stroke-width="1" fill="none" fill-rule="evenodd">
        <mask id="mask-2" fill="white">
            <use xlink:href="#path-1"></use>
        </mask>
        <g fill-rule="nonzero"></g>
        <g id="✱-/-Color-/-Icons-/-Black-/-Inactive" mask="url(#mask-2)" fill="#000000" fill-opacity="0.54">
            <rect id="Rectangle" x="0" y="0" width="24" height="24"></rect>
        </g>
    </g>
</svg>