<?xml version="1.0" encoding="UTF-8"?>
<svg width="24px" height="24px" viewBox="0 0 24 24" version="1.1" xmlns="http://www.w3.org/2000/svg" xmlns:xlink="http://www.w3.org/1999/xlink">
    <!-- Generator: Sketch 50 (54983) - http://www.bohemiancoding.com/sketch -->
    <title>icon/av/replay_5_24px_rounded</title>
    <desc>Created with Sketch.</desc>
    <defs>
        <path d="M11.9656537,5.64221096 L11.9656537,2.85221096 C11.9656537,2.40221096 11.4256537,2.18221096 11.1156537,2.50221096 L7.31565366,6.29221096 C7.11565366,6.49221096 7.11565366,6.80221096 7.31565366,7.00221096 L11.1056537,10.792211 C11.4256537,11.102211 11.9656537,10.882211 11.9656537,10.432211 L11.9656537,7.64221096 C15.6956537,7.64221096 18.6456537,11.062211 17.8256537,14.932211 C17.3556537,17.192211 15.6856537,18.922211 13.4356537,19.462211 C9.79565366,20.342211 6.50565366,17.862211 6.01565366,14.502211 C5.95565366,14.012211 5.53565366,13.642211 5.04565366,13.642211 C4.44565366,13.642211 3.96565366,14.172211 4.04565366,14.772211 C4.67565366,19.242211 8.98565366,22.522211 13.8156537,21.442211 C16.9056537,20.752211 19.2056537,18.362211 19.8056537,15.252211 C20.8056537,10.122211 16.9056537,5.64221096 11.9656537,5.64221096 Z M10.6556537,14.542211 L10.9056537,12.372211 L13.2956537,12.372211 L13.2956537,13.082211 L11.5956537,13.082211 L11.4856537,14.002211 C11.5156537,13.982211 11.5556537,13.972211 11.5956537,13.952211 C11.6356537,13.932211 11.6856537,13.912211 11.7456537,13.902211 C11.8056537,13.892211 11.8656537,13.872211 11.9256537,13.862211 C11.9856537,13.852211 12.0556537,13.842211 12.1256537,13.842211 C12.3356537,13.842211 12.5156537,13.872211 12.6756537,13.942211 C12.8356537,14.012211 12.9756537,14.102211 13.0856537,14.222211 C13.1956537,14.342211 13.2856537,14.492211 13.3356537,14.672211 C13.3856537,14.852211 13.4256537,15.052211 13.4256537,15.272211 C13.4256537,15.462211 13.3956537,15.642211 13.3356537,15.812211 C13.2756537,15.982211 13.1856537,16.132211 13.0656537,16.262211 C12.9456537,16.392211 12.7956537,16.502211 12.6156537,16.572211 C12.4356537,16.642211 12.2256537,16.692211 11.9756537,16.692211 C11.7956537,16.692211 11.6156537,16.662211 11.4456537,16.612211 C11.2756537,16.562211 11.1256537,16.472211 10.9856537,16.372211 C10.8456537,16.272211 10.7456537,16.132211 10.6656537,15.982211 C10.5856537,15.832211 10.5356537,15.652211 10.5356537,15.452211 L11.3756537,15.452211 C11.3956537,15.632211 11.4556537,15.772211 11.5656537,15.862211 C11.6756537,15.952211 11.8156537,16.012211 11.9856537,16.012211 C12.0956537,16.012211 12.1856537,15.992211 12.2556537,15.952211 C12.3256537,15.912211 12.3956537,15.852211 12.4356537,15.782211 C12.4756537,15.712211 12.5156537,15.632211 12.5456537,15.532211 C12.5756537,15.432211 12.5756537,15.332211 12.5756537,15.222211 C12.5756537,15.112211 12.5656537,15.012211 12.5356537,14.912211 C12.5056537,14.812211 12.4656537,14.742211 12.4056537,14.672211 C12.3456537,14.602211 12.2756537,14.552211 12.1956537,14.522211 C12.1156537,14.492211 12.0056537,14.472211 11.8956537,14.472211 C11.8156537,14.472211 11.7456537,14.482211 11.6956537,14.492211 C11.6456537,14.502211 11.5856537,14.522211 11.5456537,14.542211 C11.5056537,14.562211 11.4656537,14.592211 11.4256537,14.612211 C11.3856537,14.632211 11.3556537,14.672211 11.3256537,14.702211 L10.6556537,14.542211 Z" id="path-1"></path>
    </defs>
    <g id="icon/av/replay_5_24px" stroke="none" stroke-width="1" fill="none" fill-rule="evenodd">
        <mask id="mask-2" fill="white">
            <use xlink:href="#path-1"></use>
        </mask>
        <g fill-rule="nonzero"></g>
        <g id="✱-/-Color-/-Icons-/-Black-/-Inactive" mask="url(#mask-2)" fill="#000000" fill-opacity="0.54">
            <rect id="Rectangle" x="0" y="0" width="24" height="24"></rect>
        </g>
    </g>
</svg>