<?xml version="1.0" encoding="UTF-8"?>
<svg width="24px" height="24px" viewBox="0 0 24 24" version="1.1" xmlns="http://www.w3.org/2000/svg" xmlns:xlink="http://www.w3.org/1999/xlink">
    <!-- Generator: Sketch 50 (54983) - http://www.bohemiancoding.com/sketch -->
    <title>icon/av/replay_24px_rounded</title>
    <desc>Created with Sketch.</desc>
    <defs>
        <path d="M11.9620818,5.64248536 L11.9620818,2.85248536 C11.9620818,2.40248536 11.4220818,2.18248536 11.1120818,2.50248536 L7.31208184,6.29248536 C7.11208184,6.49248536 7.11208184,6.80248536 7.31208184,7.00248536 L11.1020818,10.7924854 C11.4220818,11.1024854 11.9620818,10.8824854 11.9620818,10.4324854 L11.9620818,7.64248536 C15.6920818,7.64248536 18.6420818,11.0624854 17.8220818,14.9324854 C17.3520818,17.2024854 15.5120818,19.0324854 13.2520818,19.5024854 C9.68208184,20.2524854 6.50208184,17.8024854 6.02208184,14.4924854 C5.95208184,14.0124854 5.53208184,13.6424854 5.04208184,13.6424854 C4.44208184,13.6424854 3.96208184,14.1724854 4.04208184,14.7724854 C4.66208184,19.1624854 8.84208184,22.4124854 13.5720818,21.4924854 C16.6920818,20.8824854 19.2020818,18.3724854 19.8120818,15.2524854 C20.8020818,10.1224854 16.9020818,5.64248536 11.9620818,5.64248536 Z" id="path-1"></path>
    </defs>
    <g id="icon/av/replay_24px" stroke="none" stroke-width="1" fill="none" fill-rule="evenodd">
        <mask id="mask-2" fill="white">
            <use xlink:href="#path-1"></use>
        </mask>
        <g fill-rule="nonzero"></g>
        <g id="✱-/-Color-/-Icons-/-Black-/-Inactive" mask="url(#mask-2)" fill="#000000" fill-opacity="0.54">
            <rect id="Rectangle" x="0" y="0" width="24" height="24"></rect>
        </g>
    </g>
</svg>