<?xml version="1.0" encoding="UTF-8"?>
<svg width="24px" height="24px" viewBox="0 0 24 24" version="1.1" xmlns="http://www.w3.org/2000/svg" xmlns:xlink="http://www.w3.org/1999/xlink">
    <!-- Generator: Sketch 50 (54983) - http://www.bohemiancoding.com/sketch -->
    <title>icon/av/replay_10_24px_rounded</title>
    <desc>Created with Sketch.</desc>
    <defs>
        <path d="M11.9619319,5.64248536 L11.9619319,2.85248536 C11.9619319,2.40248536 11.4219319,2.18248536 11.1119319,2.50248536 L7.32193192,6.29248536 C7.12193192,6.49248536 7.12193192,6.80248536 7.32193192,7.00248536 L11.1119319,10.7924854 C11.4219319,11.1024854 11.9619319,10.8824854 11.9619319,10.4424854 L11.9619319,7.64248536 C15.6919319,7.64248536 18.6419319,11.0624854 17.8219319,14.9324854 C17.3519319,17.2024854 15.5119319,19.0324854 13.2519319,19.5024854 C9.68193192,20.2524854 6.50193192,17.8024854 6.02193192,14.4924854 C5.96193192,14.0124854 5.54193192,13.6424854 5.04193192,13.6424854 C4.44193192,13.6424854 3.96193192,14.1724854 4.04193192,14.7724854 C4.66193192,19.1624854 8.84193192,22.4124854 13.5719319,21.4924854 C16.6919319,20.8824854 19.2019319,18.3724854 19.8119319,15.2524854 C20.8019319,10.1224854 16.9119319,5.64248536 11.9619319,5.64248536 Z M10.8619319,16.6424854 L10.0119319,16.6424854 L10.0119319,13.3824854 L9.00193192,13.6924854 L9.00193192,13.0024854 L10.7719319,12.3724854 L10.8619319,12.3724854 L10.8619319,16.6424854 Z M15.1419319,14.8824854 C15.1419319,15.2024854 15.1119319,15.4824854 15.0419319,15.7024854 C14.9719319,15.9224854 14.8719319,16.1224854 14.7519319,16.2724854 C14.6319319,16.4224854 14.4719319,16.5324854 14.3019319,16.6024854 C14.1319319,16.6724854 13.9319319,16.7024854 13.7119319,16.7024854 C13.4919319,16.7024854 13.3019319,16.6724854 13.1219319,16.6024854 C12.9419319,16.5324854 12.7919319,16.4224854 12.6619319,16.2724854 C12.5319319,16.1224854 12.4319319,15.9324854 12.3619319,15.7024854 C12.2919319,15.4724854 12.2519319,15.2024854 12.2519319,14.8824854 L12.2519319,14.1424854 C12.2519319,13.8224854 12.2819319,13.5424854 12.3519319,13.3224854 C12.4219319,13.1024854 12.5219319,12.9024854 12.6419319,12.7524854 C12.7619319,12.6024854 12.9219319,12.4924854 13.0919319,12.4224854 C13.2619319,12.3524854 13.4619319,12.3224854 13.6819319,12.3224854 C13.9019319,12.3224854 14.0919319,12.3524854 14.2719319,12.4224854 C14.4519319,12.4924854 14.6019319,12.6024854 14.7319319,12.7524854 C14.8619319,12.9024854 14.9619319,13.0924854 15.0319319,13.3224854 C15.1019319,13.5524854 15.1419319,13.8224854 15.1419319,14.1424854 L15.1419319,14.8824854 Z M14.2919319,14.0224854 C14.2919319,13.8324854 14.2819319,13.6724854 14.2519319,13.5424854 C14.2219319,13.4124854 14.1819319,13.3124854 14.1319319,13.2324854 C14.0819319,13.1524854 14.0219319,13.0924854 13.9419319,13.0624854 C13.8619319,13.0324854 13.7819319,13.0124854 13.6919319,13.0124854 C13.6019319,13.0124854 13.5119319,13.0324854 13.4419319,13.0624854 C13.3719319,13.0924854 13.3019319,13.1524854 13.2519319,13.2324854 C13.2019319,13.3124854 13.1619319,13.4124854 13.1319319,13.5424854 C13.1019319,13.6724854 13.0919319,13.8324854 13.0919319,14.0224854 L13.0919319,14.9924854 C13.0919319,15.1824854 13.1019319,15.3424854 13.1319319,15.4724854 C13.1619319,15.6024854 13.2019319,15.7124854 13.2519319,15.7924854 C13.3019319,15.8724854 13.3619319,15.9324854 13.4419319,15.9624854 C13.5219319,15.9924854 13.6019319,16.0124854 13.6919319,16.0124854 C13.7819319,16.0124854 13.8719319,15.9924854 13.9419319,15.9624854 C14.0119319,15.9324854 14.0819319,15.8724854 14.1319319,15.7924854 C14.1819319,15.7124854 14.2219319,15.6024854 14.2419319,15.4724854 C14.2619319,15.3424854 14.2819319,15.1824854 14.2819319,14.9924854 L14.2819319,14.0224854 L14.2919319,14.0224854 Z" id="path-1"></path>
    </defs>
    <g id="icon/av/replay_10_24px" stroke="none" stroke-width="1" fill="none" fill-rule="evenodd">
        <mask id="mask-2" fill="white">
            <use xlink:href="#path-1"></use>
        </mask>
        <g fill-rule="nonzero"></g>
        <g id="✱-/-Color-/-Icons-/-Black-/-Inactive" mask="url(#mask-2)" fill="#000000" fill-opacity="0.54">
            <rect id="Rectangle" x="0" y="0" width="24" height="24"></rect>
        </g>
    </g>
</svg>