<?xml version="1.0" encoding="UTF-8"?>
<svg width="24px" height="24px" viewBox="0 0 24 24" version="1.1" xmlns="http://www.w3.org/2000/svg" xmlns:xlink="http://www.w3.org/1999/xlink">
    <!-- Generator: Sketch 50 (54983) - http://www.bohemiancoding.com/sketch -->
    <title>icon/av/replay_30_24px_rounded</title>
    <desc>Created with Sketch.</desc>
    <defs>
        <path d="M11.9620818,5.64248536 L11.9620818,2.85248536 C11.9620818,2.40248536 11.4220818,2.18248536 11.1120818,2.50248536 L7.31208184,6.29248536 C7.11208184,6.49248536 7.11208184,6.80248536 7.31208184,7.00248536 L11.1020818,10.7924854 C11.4220818,11.1024854 11.9620818,10.8824854 11.9620818,10.4324854 L11.9620818,7.64248536 C15.6920818,7.64248536 18.6420818,11.0624854 17.8220818,14.9324854 C17.3520818,17.2024854 15.5120818,19.0324854 13.2520818,19.5024854 C9.68208184,20.2524854 6.50208184,17.8024854 6.02208184,14.4924854 C5.95208184,14.0124854 5.53208184,13.6424854 5.04208184,13.6424854 C4.44208184,13.6424854 3.96208184,14.1724854 4.04208184,14.7724854 C4.66208184,19.1624854 8.84208184,22.4124854 13.5720818,21.4924854 C16.6920818,20.8824854 19.2020818,18.3724854 19.8120818,15.2524854 C20.8020818,10.1224854 16.9020818,5.64248536 11.9620818,5.64248536 Z M9.52208184,14.1324854 L9.97208184,14.1324854 C10.1820818,14.1324854 10.3420818,14.0824854 10.4520818,13.9724854 C10.5620818,13.8624854 10.6120818,13.7224854 10.6120818,13.5424854 C10.6120818,13.4624854 10.6020818,13.3924854 10.5720818,13.3224854 C10.5420818,13.2524854 10.5120818,13.2024854 10.4620818,13.1524854 C10.4120818,13.1024854 10.3520818,13.0624854 10.2820818,13.0424854 C10.2120818,13.0224854 10.1220818,13.0024854 10.0320818,13.0024854 C9.95208184,13.0024854 9.88208184,13.0124854 9.81208184,13.0324854 C9.74208184,13.0524854 9.68208184,13.0824854 9.63208184,13.1324854 C9.58208184,13.1824854 9.54208184,13.2224854 9.51208184,13.2824854 C9.48208184,13.3424854 9.46208184,13.4124854 9.46208184,13.4824854 L8.61208184,13.4824854 C8.61208184,13.3024854 8.65208184,13.1424854 8.72208184,13.0024854 C8.79208184,12.8624854 8.89208184,12.7324854 9.02208184,12.6324854 C9.15208184,12.5324854 9.29208184,12.4524854 9.46208184,12.4024854 C9.63208184,12.3524854 9.81208184,12.3224854 10.0020818,12.3224854 C10.2120818,12.3224854 10.4120818,12.3524854 10.5920818,12.4024854 C10.7720818,12.4524854 10.9220818,12.5324854 11.0520818,12.6324854 C11.1820818,12.7324854 11.2820818,12.8624854 11.3520818,13.0124854 C11.4220818,13.1624854 11.4620818,13.3424854 11.4620818,13.5424854 C11.4620818,13.6324854 11.4520818,13.7224854 11.4220818,13.8124854 C11.3920818,13.9024854 11.3520818,13.9824854 11.2920818,14.0624854 C11.2320818,14.1424854 11.1720818,14.2124854 11.0920818,14.2824854 C11.0120818,14.3524854 10.9220818,14.4024854 10.8120818,14.4524854 C11.0520818,14.5424854 11.2320818,14.6624854 11.3520818,14.8424854 C11.4720818,15.0224854 11.5320818,15.2224854 11.5320818,15.4524854 C11.5320818,15.6524854 11.4920818,15.8324854 11.4120818,15.9824854 C11.3320818,16.1324854 11.2320818,16.2724854 11.0920818,16.3724854 C10.9520818,16.4724854 10.8020818,16.5624854 10.6120818,16.6124854 C10.4220818,16.6624854 10.2320818,16.6924854 10.0120818,16.6924854 C9.83208184,16.6924854 9.65208184,16.6724854 9.48208184,16.6224854 C9.31208184,16.5724854 9.15208184,16.5024854 9.02208184,16.3924854 C8.89208184,16.2824854 8.77208184,16.1624854 8.69208184,16.0124854 C8.61208184,15.8624854 8.57208184,15.6724854 8.57208184,15.4624854 L9.42208184,15.4624854 C9.42208184,15.5424854 9.44208184,15.6124854 9.47208184,15.6824854 C9.50208184,15.7524854 9.54208184,15.8024854 9.60208184,15.8524854 C9.66208184,15.9024854 9.72208184,15.9424854 9.80208184,15.9624854 C9.88208184,15.9824854 9.96208184,16.0024854 10.0520818,16.0024854 C10.1520818,16.0024854 10.2420818,15.9924854 10.3220818,15.9624854 C10.4020818,15.9324854 10.4720818,15.8924854 10.5220818,15.8424854 C10.5720818,15.7924854 10.6220818,15.7324854 10.6520818,15.6624854 C10.6820818,15.5924854 10.6920818,15.5124854 10.6920818,15.4224854 C10.6920818,15.3124854 10.6720818,15.2124854 10.6420818,15.1324854 C10.6120818,15.0524854 10.5620818,14.9824854 10.5020818,14.9324854 C10.4420818,14.8824854 10.3720818,14.8424854 10.2820818,14.8224854 C10.1920818,14.8024854 10.1020818,14.7824854 9.99208184,14.7824854 L9.52208184,14.7824854 L9.52208184,14.1324854 Z M15.2620818,14.8824854 C15.2620818,15.2024854 15.2320818,15.4824854 15.1620818,15.7024854 C15.0920818,15.9224854 14.9920818,16.1224854 14.8720818,16.2724854 C14.7520818,16.4224854 14.5920818,16.5324854 14.4220818,16.6024854 C14.2520818,16.6724854 14.0520818,16.7024854 13.8320818,16.7024854 C13.6120818,16.7024854 13.4220818,16.6724854 13.2420818,16.6024854 C13.0620818,16.5324854 12.9120818,16.4224854 12.7820818,16.2724854 C12.6520818,16.1224854 12.5520818,15.9324854 12.4820818,15.7024854 C12.4120818,15.4724854 12.3720818,15.2024854 12.3720818,14.8824854 L12.3720818,14.1424854 C12.3720818,13.8224854 12.4020818,13.5424854 12.4720818,13.3224854 C12.5420818,13.1024854 12.6420818,12.9024854 12.7620818,12.7524854 C12.8820818,12.6024854 13.0420818,12.4924854 13.2120818,12.4224854 C13.3820818,12.3524854 13.5820818,12.3224854 13.8020818,12.3224854 C14.0220818,12.3224854 14.2120818,12.3524854 14.3920818,12.4224854 C14.5720818,12.4924854 14.7220818,12.6024854 14.8520818,12.7524854 C14.9820818,12.9024854 15.0820818,13.0924854 15.1520818,13.3224854 C15.2220818,13.5524854 15.2620818,13.8224854 15.2620818,14.1424854 L15.2620818,14.8824854 Z M14.4120818,14.0224854 C14.4120818,13.8324854 14.4020818,13.6724854 14.3720818,13.5424854 C14.3420818,13.4124854 14.3020818,13.3124854 14.2520818,13.2324854 C14.2020818,13.1524854 14.1420818,13.0924854 14.0620818,13.0624854 C13.9820818,13.0324854 13.9020818,13.0124854 13.8120818,13.0124854 C13.7220818,13.0124854 13.6320818,13.0324854 13.5620818,13.0624854 C13.4920818,13.0924854 13.4220818,13.1524854 13.3720818,13.2324854 C13.3220818,13.3124854 13.2820818,13.4124854 13.2520818,13.5424854 C13.2220818,13.6724854 13.2120818,13.8324854 13.2120818,14.0224854 L13.2120818,14.9924854 C13.2120818,15.1824854 13.2220818,15.3424854 13.2520818,15.4724854 C13.2820818,15.6024854 13.3220818,15.7124854 13.3720818,15.7924854 C13.4220818,15.8724854 13.4820818,15.9324854 13.5620818,15.9624854 C13.6420818,15.9924854 13.7220818,16.0124854 13.8120818,16.0124854 C13.9020818,16.0124854 13.9920818,15.9924854 14.0620818,15.9624854 C14.1320818,15.9324854 14.2020818,15.8724854 14.2520818,15.7924854 C14.3020818,15.7124854 14.3420818,15.6024854 14.3620818,15.4724854 C14.3920818,15.3424854 14.4020818,15.1824854 14.4020818,14.9924854 L14.4020818,14.0224854 L14.4120818,14.0224854 Z" id="path-1"></path>
    </defs>
    <g id="icon/av/replay_30_24px" stroke="none" stroke-width="1" fill="none" fill-rule="evenodd">
        <mask id="mask-2" fill="white">
            <use xlink:href="#path-1"></use>
        </mask>
        <g fill-rule="nonzero"></g>
        <g id="✱-/-Color-/-Icons-/-Black-/-Inactive" mask="url(#mask-2)" fill="#000000" fill-opacity="0.54">
            <rect id="Rectangle" x="0" y="0" width="24" height="24"></rect>
        </g>
    </g>
</svg>