<?xml version="1.0" encoding="UTF-8"?>
<svg width="24px" height="24px" viewBox="0 0 24 24" version="1.1" xmlns="http://www.w3.org/2000/svg" xmlns:xlink="http://www.w3.org/1999/xlink">
    <!-- Generator: Sketch 50 (54983) - http://www.bohemiancoding.com/sketch -->
    <title>icon/av/slow_motion_video_24px_rounded</title>
    <desc>Created with Sketch.</desc>
    <defs>
        <path d="M9.89201875,8.50499213 L9.89201875,15.5049921 C9.89201875,15.9149921 10.3620188,16.1549921 10.6920188,15.9049921 L15.3620188,12.4049921 C15.6320188,12.2049921 15.6320188,11.8049921 15.3620188,11.6049921 L10.6920188,8.10499213 C10.3620188,7.85499213 9.89201875,8.09499213 9.89201875,8.50499213 Z M10.8920188,3.23499213 C10.8920188,2.59499213 10.3020188,2.10499213 9.68201875,2.24499213 C8.56201875,2.50499213 7.50201875,2.94499213 6.56201875,3.54499213 C6.03201875,3.88499213 5.95201875,4.64499213 6.40201875,5.09499213 C6.72201875,5.41499213 7.23201875,5.49499213 7.61201875,5.25499213 C8.38201875,4.76499213 9.23201875,4.40499213 10.1520188,4.20499213 C10.5920188,4.10499213 10.8920188,3.69499213 10.8920188,3.23499213 Z M4.99201875,6.51499213 C4.53201875,6.06499213 3.78201875,6.13499213 3.44201875,6.67499213 C2.84201875,7.61499213 2.40201875,8.67499213 2.14201875,9.79499213 C2.00201875,10.4149921 2.48201875,11.0049921 3.12201875,11.0049921 C3.57201875,11.0049921 3.99201875,10.7049921 4.08201875,10.2649921 C4.28201875,9.35499213 4.65201875,8.49499213 5.13201875,7.73499213 C5.39201875,7.34499213 5.31201875,6.83499213 4.99201875,6.51499213 Z M3.12201875,13.0049921 C2.48201875,13.0049921 1.99201875,13.5949921 2.13201875,14.2149921 C2.39201875,15.3349921 2.83201875,16.3849921 3.43201875,17.3349921 C3.77201875,17.8749921 4.53201875,17.9449921 4.98201875,17.4949921 C5.30201875,17.1749921 5.38201875,16.6649921 5.13201875,16.2849921 C4.64201875,15.5249921 4.28201875,14.6749921 4.08201875,13.7549921 C3.99201875,13.3049921 3.58201875,13.0049921 3.12201875,13.0049921 Z M6.56201875,20.4549921 C7.51201875,21.0549921 8.56201875,21.4949921 9.68201875,21.7549921 C10.3020188,21.8949921 10.8920188,21.4049921 10.8920188,20.7749921 C10.8920188,20.3249921 10.5920188,19.9049921 10.1520188,19.8149921 C9.24201875,19.6149921 8.38201875,19.2449921 7.62201875,18.7649921 C7.23201875,18.5249921 6.73201875,18.5949921 6.41201875,18.9249921 C5.95201875,19.3649921 6.02201875,20.1149921 6.56201875,20.4549921 Z M21.8920188,12.0049921 C21.8920188,16.7349921 18.5920188,20.7149921 14.1620188,21.7449921 C13.5420188,21.8949921 12.9420188,21.4049921 12.9420188,20.7649921 C12.9420188,20.3049921 13.2520188,19.9049921 13.6920188,19.7949921 C17.2420188,18.9749921 19.8920188,15.7949921 19.8920188,12.0049921 C19.8920188,8.21499213 17.2420188,5.03499213 13.6920188,4.21499213 C13.2520188,4.11499213 12.9420188,3.70499213 12.9420188,3.24499213 C12.9420188,2.60499213 13.5420188,2.11499213 14.1620188,2.26499213 C18.5920188,3.29499213 21.8920188,7.27499213 21.8920188,12.0049921 Z" id="path-1"></path>
    </defs>
    <g id="icon/av/slow_motion_video_24px" stroke="none" stroke-width="1" fill="none" fill-rule="evenodd">
        <mask id="mask-2" fill="white">
            <use xlink:href="#path-1"></use>
        </mask>
        <g fill-rule="nonzero"></g>
        <g id="✱-/-Color-/-Icons-/-Black-/-Inactive" mask="url(#mask-2)" fill="#000000" fill-opacity="0.54">
            <rect id="Rectangle" x="0" y="0" width="24" height="24"></rect>
        </g>
    </g>
</svg>