<?xml version="1.0" encoding="UTF-8"?>
<svg width="24px" height="24px" viewBox="0 0 24 24" version="1.1" xmlns="http://www.w3.org/2000/svg" xmlns:xlink="http://www.w3.org/1999/xlink">
    <!-- Generator: Sketch 50 (54983) - http://www.bohemiancoding.com/sketch -->
    <title>icon/av/snooze_24px_rounded</title>
    <desc>Created with Sketch.</desc>
    <defs>
        <path d="M10,10.8906952 L12.63,10.8906952 L8.91,15.2406952 C8.36,15.8906952 8.82,16.8906952 9.67,16.8906952 L14,16.8906952 C14.55,16.8906952 15,16.4406952 15,15.8906952 C15,15.3406952 14.55,14.8906952 14,14.8906952 L11.37,14.8906952 L15.09,10.5406952 C15.64,9.8906952 15.18,8.8906952 14.33,8.8906952 L10,8.8906952 C9.45,8.8906952 9,9.3406952 9,9.8906952 C9,10.4406952 9.45,10.8906952 10,10.8906952 Z M21.3,6.3106952 C20.95,6.7306952 20.32,6.7906952 19.89,6.4406952 L16.82,3.8806952 C16.4,3.5206952 16.34,2.8906952 16.7,2.4706952 C17.05,2.0506952 17.68,1.9906952 18.11,2.3406952 L21.18,4.9006952 C21.6,5.2606952 21.66,5.8906952 21.3,6.3106952 Z M2.7,6.3106952 C3.05,6.7406952 3.68,6.7906952 4.1,6.4406952 L7.17,3.8806952 C7.6,3.5206952 7.66,2.8906952 7.3,2.4706952 C6.95,2.0406952 6.32,1.9906952 5.9,2.3406952 L2.82,4.9006952 C2.4,5.2606952 2.34,5.8906952 2.7,6.3106952 Z M12,5.8906952 C15.86,5.8906952 19,9.0306952 19,12.8906952 C19,16.7506952 15.86,19.8906952 12,19.8906952 C8.14,19.8906952 5,16.7506952 5,12.8906952 C5,9.0306952 8.14,5.8906952 12,5.8906952 Z M12,3.8906952 C7.03,3.8906952 3,7.9206952 3,12.8906952 C3,17.8606952 7.03,21.8906952 12,21.8906952 C16.97,21.8906952 21,17.8606952 21,12.8906952 C21,7.9206952 16.97,3.8906952 12,3.8906952 Z" id="path-1"></path>
    </defs>
    <g id="icon/av/snooze_24px" stroke="none" stroke-width="1" fill="none" fill-rule="evenodd">
        <mask id="mask-2" fill="white">
            <use xlink:href="#path-1"></use>
        </mask>
        <g fill-rule="nonzero"></g>
        <g id="✱-/-Color-/-Icons-/-Black-/-Inactive" mask="url(#mask-2)" fill="#000000" fill-opacity="0.54">
            <rect id="Rectangle" x="0" y="0" width="24" height="24"></rect>
        </g>
    </g>
</svg>