<?xml version="1.0" encoding="UTF-8"?>
<svg width="24px" height="24px" viewBox="0 0 24 24" version="1.1" xmlns="http://www.w3.org/2000/svg" xmlns:xlink="http://www.w3.org/1999/xlink">
    <!-- Generator: Sketch 50 (54983) - http://www.bohemiancoding.com/sketch -->
    <title>icon/av/sort_by_alpha_24px_rounded</title>
    <desc>Created with Sketch.</desc>
    <defs>
        <path d="M13.0147054,2.65 C12.8147054,2.45 12.5047054,2.45 12.3047054,2.65 L10.2947054,4.66 L15.0147054,4.66 L13.0147054,2.65 Z M12.3147054,21.35 C12.5147054,21.55 12.8247054,21.55 13.0247054,21.35 L15.0047054,19.37 L10.3447054,19.37 L12.3147054,21.35 Z M11.0647054,17.73 C11.6647054,17.73 12.0747054,17.13 11.8547054,16.57 L8.12470544,7.03 C7.94470544,6.57 7.49470544,6.27 7.00470544,6.27 C6.51470544,6.27 6.06470544,6.57 5.88470544,7.03 L2.14470544,16.56 C1.92470544,17.12 2.33470544,17.72 2.93470544,17.72 C3.28470544,17.72 3.60470544,17.5 3.73470544,17.17 L4.44470544,15.27 L9.55470544,15.27 L10.2647054,17.17 C10.3947054,17.51 10.7147054,17.73 11.0647054,17.73 Z M5.05470544,13.64 L6.99470544,8.46 L8.93470544,13.64 L5.05470544,13.64 Z M21.1347054,16.14 L15.8047054,16.14 L21.5247054,7.85 C21.9847054,7.19 21.5047054,6.28 20.7047054,6.28 L14.2247054,6.28 C13.7847054,6.28 13.4347054,6.64 13.4347054,7.08 L13.4347054,7.09 C13.4347054,7.53 13.7947054,7.89 14.2247054,7.89 L19.3147054,7.89 L13.5847054,16.17 C13.1247054,16.83 13.6047054,17.74 14.4047054,17.74 L21.1247054,17.74 C21.5647054,17.74 21.9147054,17.38 21.9147054,16.95 C21.9347054,16.5 21.5747054,16.14 21.1347054,16.14 Z" id="path-1"></path>
    </defs>
    <g id="icon/av/sort_by_alpha_24px" stroke="none" stroke-width="1" fill="none" fill-rule="evenodd">
        <mask id="mask-2" fill="white">
            <use xlink:href="#path-1"></use>
        </mask>
        <g fill-rule="nonzero"></g>
        <g id="✱-/-Color-/-Icons-/-Black-/-Inactive" mask="url(#mask-2)" fill="#000000" fill-opacity="0.54">
            <rect id="Rectangle" x="0" y="0" width="24" height="24"></rect>
        </g>
    </g>
</svg>