<?xml version="1.0" encoding="UTF-8"?>
<svg width="24px" height="24px" viewBox="0 0 24 24" version="1.1" xmlns="http://www.w3.org/2000/svg" xmlns:xlink="http://www.w3.org/1999/xlink">
    <!-- Generator: Sketch 50 (54983) - http://www.bohemiancoding.com/sketch -->
    <title>icon/av/timer_24px_rounded</title>
    <desc>Created with Sketch.</desc>
    <defs>
        <path d="M12.0024428,15.9987095 C11.4501581,15.9987095 11.0024428,16.4464248 11.0024428,16.9987095 C11.0024428,17.5509943 11.4501581,17.9987095 12.0024428,17.9987095 C12.5547276,17.9987095 13.0024428,17.5509943 13.0024428,16.9987095 C13.0024428,16.4464248 12.5547276,15.9987095 12.0024428,15.9987095 Z M7.00244281,10.9987095 C6.45015806,10.9987095 6.00244281,11.4464248 6.00244281,11.9987095 C6.00244281,12.5509943 6.45015806,12.9987095 7.00244281,12.9987095 C7.55472756,12.9987095 8.00244281,12.5509943 8.00244281,11.9987095 C8.00244281,11.4464248 7.55472756,10.9987095 7.00244281,10.9987095 Z M17.0024428,10.9987095 C16.4501581,10.9987095 16.0024428,11.4464248 16.0024428,11.9987095 C16.0024428,12.5509943 16.4501581,12.9987095 17.0024428,12.9987095 C17.5547276,12.9987095 18.0024428,12.5509943 18.0024428,11.9987095 C18.0024428,11.4464248 17.5547276,10.9987095 17.0024428,10.9987095 Z M12.0024428,2.99870952 C11.4524428,2.99870952 11.0024428,3.44870952 11.0024428,3.99870952 L11.0024428,5.99870952 C11.0024428,6.54870952 11.4524428,6.99870952 12.0024428,6.99870952 C12.5524428,6.99870952 13.0024428,6.54870952 13.0024428,5.99870952 L13.0024428,5.07870952 C16.3124428,5.55870952 18.8724428,8.32870952 19.0024428,11.7387095 C19.1424428,15.5887095 15.9724428,18.9387095 12.1224428,18.9987095 C8.19244281,19.0587095 5.00244281,15.9087095 5.00244281,11.9987095 C5.00244281,10.3187095 5.59244281,8.77870952 6.58244281,7.57870952 L11.2924428,12.2987095 C11.6824428,12.6887095 12.3124428,12.6887095 12.7024428,12.2987095 C13.0924428,11.9087095 13.0924428,11.2787095 12.7024428,10.8887095 L7.26244281,5.45870952 C6.88244281,5.07870952 6.26244281,5.06870952 5.86244281,5.43870952 C4.10244281,7.06870952 3.00244281,9.39870952 3.00244281,11.9987095 C3.00244281,17.0387095 7.14244281,21.1187095 12.2124428,20.9987095 C16.9124428,20.8887095 20.8424428,16.9887095 20.9924428,12.2887095 C21.1624428,7.18870952 17.0724428,2.99870952 12.0024428,2.99870952 Z" id="path-1"></path>
    </defs>
    <g id="icon/av/timer_24px" stroke="none" stroke-width="1" fill="none" fill-rule="evenodd">
        <mask id="mask-2" fill="white">
            <use xlink:href="#path-1"></use>
        </mask>
        <g fill-rule="nonzero"></g>
        <g id="✱-/-Color-/-Icons-/-Black-/-Inactive" mask="url(#mask-2)" fill="#000000" fill-opacity="0.54">
            <rect id="Rectangle" x="0" y="0" width="24" height="24"></rect>
        </g>
    </g>
</svg>