<?xml version="1.0" encoding="UTF-8"?>
<svg width="24px" height="24px" viewBox="0 0 24 24" version="1.1" xmlns="http://www.w3.org/2000/svg" xmlns:xlink="http://www.w3.org/1999/xlink">
    <!-- Generator: Sketch 50 (54983) - http://www.bohemiancoding.com/sketch -->
    <title>icon/av/video_call_24px_rounded</title>
    <desc>Created with Sketch.</desc>
    <defs>
        <path d="M17,10.5 L17,7 C17,6.45 16.55,6 16,6 L4,6 C3.45,6 3,6.45 3,7 L3,17 C3,17.55 3.45,18 4,18 L16,18 C16.55,18 17,17.55 17,17 L17,13.5 L19.29,15.79 C19.92,16.42 21,15.97 21,15.08 L21,8.91 C21,8.02 19.92,7.57 19.29,8.2 L17,10.5 Z M13,13 L11,13 L11,15 C11,15.55 10.55,16 10,16 C9.45,16 9,15.55 9,15 L9,13 L7,13 C6.45,13 6,12.55 6,12 C6,11.45 6.45,11 7,11 L9,11 L9,9 C9,8.45 9.45,8 10,8 C10.55,8 11,8.45 11,9 L11,11 L13,11 C13.55,11 14,11.45 14,12 C14,12.55 13.55,13 13,13 Z" id="path-1"></path>
    </defs>
    <g id="icon/av/video_call_24px" stroke="none" stroke-width="1" fill="none" fill-rule="evenodd">
        <mask id="mask-2" fill="white">
            <use xlink:href="#path-1"></use>
        </mask>
        <g fill-rule="nonzero"></g>
        <g id="✱-/-Color-/-Icons-/-Black-/-Inactive" mask="url(#mask-2)" fill="#000000" fill-opacity="0.54">
            <rect id="Rectangle" x="0" y="0" width="24" height="24"></rect>
        </g>
    </g>
</svg>