<?xml version="1.0" encoding="UTF-8"?>
<svg width="24px" height="24px" viewBox="0 0 24 24" version="1.1" xmlns="http://www.w3.org/2000/svg" xmlns:xlink="http://www.w3.org/1999/xlink">
    <!-- Generator: Sketch 50 (54983) - http://www.bohemiancoding.com/sketch -->
    <title>icon/av/videocam_off_24px_rounded</title>
    <desc>Created with Sketch.</desc>
    <defs>
        <path d="M21.29125,14.7699928 L21.29125,9.4799928 C21.29125,8.5899928 20.21125,8.1399928 19.58125,8.7699928 L17.29125,11.0699928 L17.29125,7.5699928 C17.29125,7.0199928 16.84125,6.5699928 16.29125,6.5699928 L10.68125,6.5699928 L19.59125,15.4799928 C20.21125,16.1099928 21.29125,15.6599928 21.29125,14.7699928 Z M3.00125,3.1299928 C2.61125,3.5199928 2.61125,4.1499928 3.00125,4.5399928 L5.02125,6.5699928 L4.29125,6.5699928 C3.74125,6.5699928 3.29125,7.0199928 3.29125,7.5699928 L3.29125,17.5699928 C3.29125,18.1199928 3.74125,18.5699928 4.29125,18.5699928 L16.29125,18.5699928 C16.50125,18.5699928 16.68125,18.4899928 16.84125,18.3899928 L19.32125,20.8699928 C19.71125,21.2599928 20.34125,21.2599928 20.73125,20.8699928 C21.12125,20.4799928 21.12125,19.8499928 20.73125,19.4599928 L4.41125,3.1299928 C4.22441847,2.94274013 3.97076764,2.8375072 3.70625,2.8375072 C3.44173236,2.8375072 3.18808153,2.94274013 3.00125,3.1299928 Z" id="path-1"></path>
    </defs>
    <g id="icon/av/videocam_off_24px" stroke="none" stroke-width="1" fill="none" fill-rule="evenodd">
        <mask id="mask-2" fill="white">
            <use xlink:href="#path-1"></use>
        </mask>
        <g fill-rule="nonzero"></g>
        <g id="✱-/-Color-/-Icons-/-Black-/-Inactive" mask="url(#mask-2)" fill="#000000" fill-opacity="0.54">
            <rect id="Rectangle" x="0" y="0" width="24" height="24"></rect>
        </g>
    </g>
</svg>