<?xml version="1.0" encoding="UTF-8"?>
<svg width="24px" height="24px" viewBox="0 0 24 24" version="1.1" xmlns="http://www.w3.org/2000/svg" xmlns:xlink="http://www.w3.org/1999/xlink">
    <!-- Generator: Sketch 50 (54983) - http://www.bohemiancoding.com/sketch -->
    <title>icon/av/web_24px_rounded</title>
    <desc>Created with Sketch.</desc>
    <defs>
        <path d="M20,4 L4,4 C2.9,4 2.01,4.9 2.01,6 L2,18 C2,19.1 2.9,20 4,20 L20,20 C21.1,20 22,19.1 22,18 L22,6 C22,4.9 21.1,4 20,4 Z M4,9 L14.5,9 L14.5,12.5 L4,12.5 L4,9 Z M4,14.5 L14.5,14.5 L14.5,18 L5,18 C4.45,18 4,17.55 4,17 L4,14.5 Z M19,18 L16.5,18 L16.5,9 L20,9 L20,17 C20,17.55 19.55,18 19,18 Z" id="path-1"></path>
    </defs>
    <g id="icon/av/web_24px" stroke="none" stroke-width="1" fill="none" fill-rule="evenodd">
        <mask id="mask-2" fill="white">
            <use xlink:href="#path-1"></use>
        </mask>
        <g fill-rule="nonzero"></g>
        <g id="✱-/-Color-/-Icons-/-Black-/-Inactive" mask="url(#mask-2)" fill="#000000" fill-opacity="0.54">
            <rect id="Rectangle" x="0" y="0" width="24" height="24"></rect>
        </g>
    </g>
</svg>