<?xml version="1.0" encoding="UTF-8"?>
<svg width="24px" height="24px" viewBox="0 0 24 24" version="1.1" xmlns="http://www.w3.org/2000/svg" xmlns:xlink="http://www.w3.org/1999/xlink">
    <!-- Generator: Sketch 50 (54983) - http://www.bohemiancoding.com/sketch -->
    <title>icon/communication/alternate_email_24px_two_tone</title>
    <desc>Created with Sketch.</desc>
    <defs>
        <path d="M10,20.95 L15,20.95 L15,18.95 L10,18.95 C5.66,18.95 2,15.29 2,10.95 C2,6.61 5.66,2.95 10,2.95 C14.34,2.95 18,6.61 18,10.95 L18,12.38 C18,13.17 17.29,13.95 16.5,13.95 C15.71,13.95 15,13.17 15,12.38 L15,10.95 C15,8.19 12.76,5.95 10,5.95 C7.24,5.95 5,8.19 5,10.95 C5,13.71 7.24,15.95 10,15.95 C11.38,15.95 12.64,15.39 13.54,14.48 C14.19,15.37 15.31,15.95 16.5,15.95 C18.47,15.95 20,14.35 20,12.38 L20,10.95 C20,5.43 15.52,0.95 10,0.95 C4.48,0.95 0,5.43 0,10.95 C0,16.47 4.48,20.95 10,20.95 Z M10,13.95 C8.34,13.95 7,12.61 7,10.95 C7,9.29 8.34,7.95 10,7.95 C11.66,7.95 13,9.29 13,10.95 C13,12.61 11.66,13.95 10,13.95 Z" id="path-1"></path>
    </defs>
    <g id="icon/communication/alternate_email_24px" stroke="none" stroke-width="1" fill="none" fill-rule="evenodd">
        <g id="↳-Dark-Color" transform="translate(2.000000, 1.000000)">
            <mask id="mask-2" fill="white">
                <use xlink:href="#path-1"></use>
            </mask>
            <g id="Mask" fill-rule="nonzero"></g>
            <g id="✱-/-Color-/-Icons-/-Black-/-Inactive" mask="url(#mask-2)" fill="#000000" fill-opacity="0.54">
                <rect id="Rectangle" x="0" y="0" width="101" height="101"></rect>
            </g>
        </g>
    </g>
</svg>