<?xml version="1.0" encoding="UTF-8"?>
<svg width="24px" height="24px" viewBox="0 0 24 24" version="1.1" xmlns="http://www.w3.org/2000/svg" xmlns:xlink="http://www.w3.org/1999/xlink">
    <!-- Generator: Sketch 50 (54983) - http://www.bohemiancoding.com/sketch -->
    <title>icon/communication/call_end_24px_two_tone</title>
    <desc>Created with Sketch.</desc>
    <defs>
        <path d="M0.59,2.23 C1.26,2.61 1.89,3.03 2.47,3.5 L3.54,2.43 C2.62,1.68 1.63,1.04 0.58,0.52 L0.58,2.23 L0.59,2.23 Z" id="path-1"></path>
        <path d="M1.53,3.49 C2.12,3.01 2.75,2.59 3.4,2.22 L3.4,0.52 C2.36,1.03 1.37,1.67 0.46,2.42 L1.53,3.49 Z" id="path-3"></path>
        <path d="M12,0 C7.46,0 3.34,1.78 0.29,4.67 C0.11,4.85 0,5.1 0,5.38 C0,5.66 0.11,5.91 0.29,6.08 L2.77,8.56 C2.95,8.74 3.2,8.85 3.48,8.85 C3.75,8.85 4,8.75 4.18,8.57 C4.97,7.84 5.86,7.21 6.84,6.72 C7.17,6.56 7.4,6.21 7.4,5.82 L7.4,2.72 C8.85,2.25 10.4,2 12,2 C13.6,2 15.15,2.25 16.59,2.73 L16.59,5.83 C16.59,6.23 16.82,6.57 17.15,6.73 C18.13,7.22 19.03,7.84 19.82,8.58 C20,8.75 20.25,8.86 20.52,8.86 C20.8,8.86 21.05,8.75 21.23,8.57 L23.71,6.09 C23.89,5.91 24,5.66 24,5.38 C24,5.1 23.89,4.85 23.71,4.67 C20.66,1.78 16.54,0 12,0 Z M5.4,5.22 C4.75,5.59 4.12,6.01 3.53,6.49 L2.46,5.42 C3.37,4.67 4.36,4.04 5.4,3.52 L5.4,5.22 Z M20.47,6.5 C19.89,6.03 19.26,5.61 18.59,5.23 L18.59,3.52 C19.64,4.03 20.63,4.67 21.55,5.43 L20.47,6.5 Z" id="path-5"></path>
    </defs>
    <g id="icon/communication/call_end_24px" stroke="none" stroke-width="1" fill="none" fill-rule="evenodd">
        <g id="↳-Light-Color" transform="translate(18.000000, 10.000000)">
            <mask id="mask-2" fill="white">
                <use xlink:href="#path-1"></use>
            </mask>
            <g id="Mask" opacity="0.3" fill-rule="nonzero"></g>
            <g id="✱-/-Color-/-Icons-/-Black-/-Disabled" mask="url(#mask-2)" fill="#000000" fill-opacity="0.38">
                <rect id="Rectangle" x="0" y="0" width="101" height="101"></rect>
            </g>
        </g>
        <g id="↳-Light-Color" transform="translate(2.000000, 10.000000)">
            <mask id="mask-4" fill="white">
                <use xlink:href="#path-3"></use>
            </mask>
            <g id="Mask" opacity="0.3" fill-rule="nonzero"></g>
            <g id="✱-/-Color-/-Icons-/-Black-/-Disabled" mask="url(#mask-4)" fill="#000000" fill-opacity="0.38">
                <rect id="Rectangle" x="0" y="0" width="101" height="101"></rect>
            </g>
        </g>
        <g id="↳-Dark-Color" transform="translate(0.000000, 7.000000)">
            <mask id="mask-6" fill="white">
                <use xlink:href="#path-5"></use>
            </mask>
            <g id="Mask" fill-rule="nonzero"></g>
            <g id="✱-/-Color-/-Icons-/-Black-/-Inactive" mask="url(#mask-6)" fill="#000000" fill-opacity="0.54">
                <rect id="Rectangle" x="0" y="0" width="101" height="101"></rect>
            </g>
        </g>
    </g>
</svg>