<?xml version="1.0" encoding="UTF-8"?>
<svg width="24px" height="24px" viewBox="0 0 24 24" version="1.1" xmlns="http://www.w3.org/2000/svg" xmlns:xlink="http://www.w3.org/1999/xlink">
    <!-- Generator: Sketch 50 (54983) - http://www.bohemiancoding.com/sketch -->
    <title>icon/communication/cancel_presentation_24px_two_tone</title>
    <desc>Created with Sketch.</desc>
    <defs>
        <path d="M0,15.1 L18,15.1 L18,0.95 L0,0.95 L0,15.1 Z M5,5.36 L6.41,3.95 L9,6.54 L11.59,3.95 L13,5.36 L10.41,7.95 L13,10.54 L11.59,11.95 L9,9.36 L6.41,11.95 L5,10.54 L7.59,7.95 L5,5.36 Z" id="path-1"></path>
        <path d="M20,0 L2,0 C0.9,0 0,0.9 0,2 L0,16 C0,17.1 0.9,18 2,18 L20,18 C21.1,18 22,17.1 22,16 L22,2 C22,0.9 21.1,0 20,0 Z M20,16 L2,16 L2,2 L20,2 L20,16 Z" id="path-3"></path>
        <polygon id="path-5" points="1.41 8.95 4 6.36 6.59 8.95 8 7.54 5.41 4.95 8 2.36 6.59 0.95 4 3.54 1.41 0.95 0 2.36 2.59 4.95 0 7.54"></polygon>
    </defs>
    <g id="icon/communication/cancel_presentation_24px" stroke="none" stroke-width="1" fill="none" fill-rule="evenodd">
        <g id="↳-Light-Color" transform="translate(3.000000, 4.000000)">
            <mask id="mask-2" fill="white">
                <use xlink:href="#path-1"></use>
            </mask>
            <g id="Mask" opacity="0.3" fill-rule="nonzero"></g>
            <g id="✱-/-Color-/-Icons-/-Black-/-Disabled" mask="url(#mask-2)" fill="#000000" fill-opacity="0.38">
                <rect id="Rectangle" x="0" y="0" width="101" height="101"></rect>
            </g>
        </g>
        <g id="↳-Dark-Color" transform="translate(1.000000, 3.000000)">
            <mask id="mask-4" fill="white">
                <use xlink:href="#path-3"></use>
            </mask>
            <g id="Mask" fill-rule="nonzero"></g>
            <g id="✱-/-Color-/-Icons-/-Black-/-Inactive" mask="url(#mask-4)" fill="#000000" fill-opacity="0.54">
                <rect id="Rectangle" x="0" y="0" width="101" height="101"></rect>
            </g>
        </g>
        <g id="↳-Dark-Color" transform="translate(8.000000, 7.000000)">
            <mask id="mask-6" fill="white">
                <use xlink:href="#path-5"></use>
            </mask>
            <g id="Mask" fill-rule="nonzero"></g>
            <g id="✱-/-Color-/-Icons-/-Black-/-Inactive" mask="url(#mask-6)" fill="#000000" fill-opacity="0.54">
                <rect id="Rectangle" x="0" y="0" width="101" height="101"></rect>
            </g>
        </g>
    </g>
</svg>