<?xml version="1.0" encoding="UTF-8"?>
<svg width="24px" height="24px" viewBox="0 0 24 24" version="1.1" xmlns="http://www.w3.org/2000/svg" xmlns:xlink="http://www.w3.org/1999/xlink">
    <!-- Generator: Sketch 50 (54983) - http://www.bohemiancoding.com/sketch -->
    <title>icon/communication/contacts_24px_two_tone</title>
    <desc>Created with Sketch.</desc>
    <defs>
        <path d="M16,0 L0,0 L0,12 L16,12 L16,0 Z M8,1 C9.38,1 10.5,2.12 10.5,3.5 C10.5,4.88 9.38,6 8,6 C6.62,6 5.5,4.88 5.5,3.5 C5.5,2.12 6.62,1 8,1 Z M13,11 L3,11 L3,9.99 C3,7.9 6.31,7 8,7 C9.69,7 13,7.9 13,9.99 L13,11 Z" id="path-1"></path>
        <path d="M2,16 L18,16 C19.1,16 20,15.1 20,14 L20,2 C20,0.9 19.1,0 18,0 L2,0 C0.9,0 0,0.9 0,2 L0,14 C0,15.1 0.9,16 2,16 Z M2,2 L18,2 L18,14 L2,14 L2,2 Z" id="path-3"></path>
        <rect id="path-5" x="0" y="0" width="16" height="2"></rect>
        <rect id="path-7" x="0" y="0" width="16" height="2"></rect>
        <path d="M3,5 C4.38,5 5.5,3.88 5.5,2.5 C5.5,1.12 4.38,0 3,0 C1.62,0 0.5,1.12 0.5,2.5 C0.5,3.88 1.62,5 3,5 Z M3,1.5 C3.55,1.5 4,1.95 4,2.5 C4,3.05 3.55,3.5 3,3.5 C2.45,3.5 2,3.05 2,2.5 C2,1.95 2.45,1.5 3,1.5 Z" id="path-9"></path>
        <path d="M5,0 C3.31,0 0,0.9 0,2.99 L0,4 L10,4 L10,2.99 C10,0.9 6.69,0 5,0 Z M1.81,2.5 C2.42,1.98 3.84,1.5 5,1.5 C6.17,1.5 7.59,1.98 8.2,2.5 L1.81,2.5 Z" id="path-11"></path>
    </defs>
    <g id="icon/communication/contacts_24px" stroke="none" stroke-width="1" fill="none" fill-rule="evenodd">
        <g id="↳-Light-Color" transform="translate(4.000000, 6.000000)">
            <mask id="mask-2" fill="white">
                <use xlink:href="#path-1"></use>
            </mask>
            <g id="Mask" opacity="0.3" fill-rule="nonzero"></g>
            <g id="✱-/-Color-/-Icons-/-Black-/-Disabled" mask="url(#mask-2)" fill="#000000" fill-opacity="0.38">
                <rect id="Rectangle" x="0" y="0" width="101" height="101"></rect>
            </g>
        </g>
        <g id="↳-Dark-Color" transform="translate(2.000000, 4.000000)">
            <mask id="mask-4" fill="white">
                <use xlink:href="#path-3"></use>
            </mask>
            <g id="Mask" fill-rule="nonzero"></g>
            <g id="✱-/-Color-/-Icons-/-Black-/-Inactive" mask="url(#mask-4)" fill="#000000" fill-opacity="0.54">
                <rect id="Rectangle" x="0" y="0" width="101" height="101"></rect>
            </g>
        </g>
        <g id="↳-Dark-Color" transform="translate(4.000000, 0.000000)">
            <mask id="mask-6" fill="white">
                <use xlink:href="#path-5"></use>
            </mask>
            <g id="Mask" fill-rule="nonzero"></g>
            <g id="✱-/-Color-/-Icons-/-Black-/-Inactive" mask="url(#mask-6)" fill="#000000" fill-opacity="0.54">
                <rect id="Rectangle" x="0" y="0" width="101" height="101"></rect>
            </g>
        </g>
        <g id="↳-Dark-Color" transform="translate(4.000000, 22.000000)">
            <mask id="mask-8" fill="white">
                <use xlink:href="#path-7"></use>
            </mask>
            <g id="Mask" fill-rule="nonzero"></g>
            <g id="✱-/-Color-/-Icons-/-Black-/-Inactive" mask="url(#mask-8)" fill="#000000" fill-opacity="0.54">
                <rect id="Rectangle" x="0" y="0" width="101" height="101"></rect>
            </g>
        </g>
        <g id="↳-Dark-Color" transform="translate(9.000000, 7.000000)">
            <mask id="mask-10" fill="white">
                <use xlink:href="#path-9"></use>
            </mask>
            <g id="Mask" fill-rule="nonzero"></g>
            <g id="✱-/-Color-/-Icons-/-Black-/-Inactive" mask="url(#mask-10)" fill="#000000" fill-opacity="0.54">
                <rect id="Rectangle" x="0" y="0" width="101" height="101"></rect>
            </g>
        </g>
        <g id="↳-Dark-Color" transform="translate(7.000000, 13.000000)">
            <mask id="mask-12" fill="white">
                <use xlink:href="#path-11"></use>
            </mask>
            <g id="Mask" fill-rule="nonzero"></g>
            <g id="✱-/-Color-/-Icons-/-Black-/-Inactive" mask="url(#mask-12)" fill="#000000" fill-opacity="0.54">
                <rect id="Rectangle" x="0" y="0" width="101" height="101"></rect>
            </g>
        </g>
    </g>
</svg>