<?xml version="1.0" encoding="UTF-8"?>
<svg width="24px" height="24px" viewBox="0 0 24 24" version="1.1" xmlns="http://www.w3.org/2000/svg" xmlns:xlink="http://www.w3.org/1999/xlink">
    <!-- Generator: Sketch 50 (54983) - http://www.bohemiancoding.com/sketch -->
    <title>icon/communication/dialer_sip_24px_two_tone</title>
    <desc>Created with Sketch.</desc>
    <defs>
        <path d="M0.2,1.21 C1.4,1.62 2.68,1.88 4,1.96 L4,0.46 C3.12,0.4 2.25,0.24 1.41,0.01 L0.2,1.21 Z" id="path-1"></path>
        <path d="M1.54,0 L0.04,0 C0.13,1.32 0.39,2.59 0.79,3.79 L1.99,2.58 C1.75,1.75 1.6,0.88 1.54,0 Z" id="path-3"></path>
        <rect id="path-5" x="0" y="0" width="1" height="5"></rect>
        <polygon id="path-7" points="0 4 0 5 3 5 3 2 1 2 1 1 3 1 3 0 0 0 0 3 2 3 2 4"></polygon>
        <path d="M3,0 L0,0 L0,5 L1,5 L1,3 L3,3 L3,0 Z M2,2 L1,2 L1,1 L2,1 L2,2 Z" id="path-9"></path>
        <path d="M18,13.5 C18,12.95 17.55,12.5 17,12.5 C15.75,12.5 14.55,12.3 13.43,11.93 C13.33,11.9 13.22,11.88 13.12,11.88 C12.86,11.88 12.61,11.98 12.42,12.17 L10.22,14.37 C7.39,12.93 5.07,10.62 3.63,7.78 L5.83,5.57 C6.1,5.31 6.18,4.92 6.07,4.57 C5.7,3.45 5.5,2.25 5.5,1 C5.5,0.45 5.05,0 4.5,0 L1,0 C0.45,0 0,0.45 0,1 C0,10.39 7.61,18 17,18 C17.55,18 18,17.55 18,17 L18,13.5 Z M2.03,2 L3.53,2 C3.6,2.88 3.75,3.75 3.99,4.59 L2.79,5.8 C2.38,4.59 2.12,3.32 2.03,2 Z M16,15.97 C14.68,15.88 13.41,15.62 12.2,15.22 L13.4,14.02 C14.25,14.26 15.11,14.41 15.99,14.47 L15.99,15.97 L16,15.97 Z" id="path-11"></path>
    </defs>
    <g id="icon/communication/dialer_sip_24px" stroke="none" stroke-width="1" fill="none" fill-rule="evenodd">
        <g id="↳-Light-Color" transform="translate(15.000000, 17.000000)">
            <mask id="mask-2" fill="white">
                <use xlink:href="#path-1"></use>
            </mask>
            <g id="Mask" opacity="0.3" fill-rule="nonzero"></g>
            <g id="✱-/-Color-/-Icons-/-Black-/-Disabled" mask="url(#mask-2)" fill="#000000" fill-opacity="0.38">
                <rect id="Rectangle" x="0" y="0" width="101" height="101"></rect>
            </g>
        </g>
        <g id="↳-Light-Color" transform="translate(5.000000, 5.000000)">
            <mask id="mask-4" fill="white">
                <use xlink:href="#path-3"></use>
            </mask>
            <g id="Mask" opacity="0.3" fill-rule="nonzero"></g>
            <g id="✱-/-Color-/-Icons-/-Black-/-Disabled" mask="url(#mask-4)" fill="#000000" fill-opacity="0.38">
                <rect id="Rectangle" x="0" y="0" width="101" height="101"></rect>
            </g>
        </g>
        <g id="↳-Dark-Color" transform="translate(16.000000, 3.000000)">
            <mask id="mask-6" fill="white">
                <use xlink:href="#path-5"></use>
            </mask>
            <g id="Mask" fill-rule="nonzero"></g>
            <g id="✱-/-Color-/-Icons-/-Black-/-Inactive" mask="url(#mask-6)" fill="#000000" fill-opacity="0.54">
                <rect id="Rectangle" x="0" y="0" width="101" height="101"></rect>
            </g>
        </g>
        <g id="↳-Dark-Color" transform="translate(12.000000, 3.000000)">
            <mask id="mask-8" fill="white">
                <use xlink:href="#path-7"></use>
            </mask>
            <g id="Mask" fill-rule="nonzero"></g>
            <g id="✱-/-Color-/-Icons-/-Black-/-Inactive" mask="url(#mask-8)" fill="#000000" fill-opacity="0.54">
                <rect id="Rectangle" x="0" y="0" width="101" height="101"></rect>
            </g>
        </g>
        <g id="↳-Dark-Color" transform="translate(18.000000, 3.000000)">
            <mask id="mask-10" fill="white">
                <use xlink:href="#path-9"></use>
            </mask>
            <g id="Mask" fill-rule="nonzero"></g>
            <g id="✱-/-Color-/-Icons-/-Black-/-Inactive" mask="url(#mask-10)" fill="#000000" fill-opacity="0.54">
                <rect id="Rectangle" x="0" y="0" width="101" height="101"></rect>
            </g>
        </g>
        <g id="↳-Dark-Color" transform="translate(3.000000, 3.000000)">
            <mask id="mask-12" fill="white">
                <use xlink:href="#path-11"></use>
            </mask>
            <g id="Mask" fill-rule="nonzero"></g>
            <g id="✱-/-Color-/-Icons-/-Black-/-Inactive" mask="url(#mask-12)" fill="#000000" fill-opacity="0.54">
                <rect id="Rectangle" x="0" y="0" width="101" height="101"></rect>
            </g>
        </g>
    </g>
</svg>