<?xml version="1.0" encoding="UTF-8"?>
<svg width="24px" height="24px" viewBox="0 0 24 24" version="1.1" xmlns="http://www.w3.org/2000/svg" xmlns:xlink="http://www.w3.org/1999/xlink">
    <!-- Generator: Sketch 50 (54983) - http://www.bohemiancoding.com/sketch -->
    <title>icon/communication/domain_disabled_24px_two_tone</title>
    <desc>Created with Sketch.</desc>
    <defs>
        <path d="M1.41,0.69 L0,2.1 L2,4.1 L2,20 L17.9,20 L20.9,23 L22.31,21.59 L1.41,0.69 Z M6,18 L4,18 L4,16 L6,16 L6,18 Z M6,14 L4,14 L4,12 L6,12 L6,14 Z M4,10 L4,8 L6,8 L6,10 L4,10 Z M10,18 L8,18 L8,16 L10,16 L10,18 Z M8,14 L8,12 L10,12 L10,14 L8,14 Z M12,18 L12,16 L13.9,16 L15.9,18 L12,18 Z" id="path-1"></path>
        <polygon id="path-3" points="3 2 5 2 5 4 4.55 4 7 6.45 7 6 15 6 15 14.45 17 16.45 17 4 7 4 7 0 0.55 0 3 2.45"></polygon>
        <rect id="path-5" x="0" y="0" width="2" height="2"></rect>
        <path d="M0,0 L0,0.45 L8,8.45 L8,0 L0,0 Z M6,4 L4,4 L4,2 L6,2 L6,4 Z" id="path-7"></path>
    </defs>
    <g id="icon/communication/domain_disabled_24px" stroke="none" stroke-width="1" fill="none" fill-rule="evenodd">
        <g id="↳-Dark-Color" transform="translate(0.000000, 1.000000)">
            <mask id="mask-2" fill="white">
                <use xlink:href="#path-1"></use>
            </mask>
            <g id="Mask" fill-rule="nonzero"></g>
            <g id="✱-/-Color-/-Icons-/-Black-/-Inactive" mask="url(#mask-2)" fill="#000000" fill-opacity="0.54">
                <rect id="Rectangle" x="0" y="0" width="101" height="101"></rect>
            </g>
        </g>
        <g id="↳-Dark-Color" transform="translate(5.000000, 3.000000)">
            <mask id="mask-4" fill="white">
                <use xlink:href="#path-3"></use>
            </mask>
            <g id="Mask" fill-rule="nonzero"></g>
            <g id="✱-/-Color-/-Icons-/-Black-/-Inactive" mask="url(#mask-4)" fill="#000000" fill-opacity="0.54">
                <rect id="Rectangle" x="0" y="0" width="101" height="101"></rect>
            </g>
        </g>
        <g id="↳-Dark-Color" transform="translate(16.000000, 11.000000)">
            <mask id="mask-6" fill="white">
                <use xlink:href="#path-5"></use>
            </mask>
            <g id="Mask" fill-rule="nonzero"></g>
            <g id="✱-/-Color-/-Icons-/-Black-/-Inactive" mask="url(#mask-6)" fill="#000000" fill-opacity="0.54">
                <rect id="Rectangle" x="0" y="0" width="101" height="101"></rect>
            </g>
        </g>
        <g id="↳-Light-Color" transform="translate(12.000000, 9.000000)">
            <mask id="mask-8" fill="white">
                <use xlink:href="#path-7"></use>
            </mask>
            <g id="Mask" opacity="0.3" fill-rule="nonzero"></g>
            <g id="✱-/-Color-/-Icons-/-Black-/-Disabled" mask="url(#mask-8)" fill="#000000" fill-opacity="0.38">
                <rect id="Rectangle" x="0" y="0" width="101" height="101"></rect>
            </g>
        </g>
    </g>
</svg>