<?xml version="1.0" encoding="UTF-8"?>
<svg width="24px" height="24px" viewBox="0 0 24 24" version="1.1" xmlns="http://www.w3.org/2000/svg" xmlns:xlink="http://www.w3.org/1999/xlink">
    <!-- Generator: Sketch 50 (54983) - http://www.bohemiancoding.com/sketch -->
    <title>icon/communication/import_contacts_24px_two_tone</title>
    <desc>Created with Sketch.</desc>
    <defs>
        <path d="M20,1 C18.89,0.65 17.67,0.5 16.5,0.5 C14.55,0.5 12.45,0.9 11,2 C9.55,0.9 7.45,0.5 5.5,0.5 C3.55,0.5 1.45,0.9 0,2 L0,16.65 C0,16.9 0.25,17.15 0.5,17.15 C0.6,17.15 0.65,17.1 0.75,17.1 C2.1,16.45 4.05,16 5.5,16 C7.45,16 9.55,16.4 11,17.5 C12.35,16.65 14.8,16 16.5,16 C18.15,16 19.85,16.3 21.25,17.05 C21.35,17.1 21.4,17.1 21.5,17.1 C21.75,17.1 22,16.85 22,16.6 L22,2 C21.4,1.55 20.75,1.25 20,1 Z M2,14.5 L2,3 C3.1,2.65 4.3,2.5 5.5,2.5 C6.84,2.5 8.63,2.91 10,3.49 L10,14.99 C8.63,14.41 6.84,14 5.5,14 C4.3,14 3.1,14.15 2,14.5 Z M20,14.5 C18.9,14.15 17.7,14 16.5,14 C15.16,14 13.37,14.41 12,14.99 L12,3.49 C13.37,2.9 15.16,2.5 16.5,2.5 C17.7,2.5 18.9,2.65 20,3 L20,14.5 Z" id="path-1"></path>
        <path d="M8,1.49 C6.63,0.91 4.84,0.5 3.5,0.5 C2.3,0.5 1.1,0.65 0,1 L0,12.5 C1.1,12.15 2.3,12 3.5,12 C4.84,12 6.63,12.41 8,12.99 L8,1.49 Z" id="path-3"></path>
    </defs>
    <g id="icon/communication/import_contacts_24px" stroke="none" stroke-width="1" fill="none" fill-rule="evenodd">
        <g id="↳-Dark-Color" transform="translate(1.000000, 4.000000)">
            <mask id="mask-2" fill="white">
                <use xlink:href="#path-1"></use>
            </mask>
            <g id="Mask" fill-rule="nonzero"></g>
            <g id="✱-/-Color-/-Icons-/-Black-/-Inactive" mask="url(#mask-2)" fill="#000000" fill-opacity="0.54">
                <rect id="Rectangle" x="0" y="0" width="101" height="101"></rect>
            </g>
        </g>
        <g id="↳-Light-Color" transform="translate(3.000000, 6.000000)">
            <mask id="mask-4" fill="white">
                <use xlink:href="#path-3"></use>
            </mask>
            <g id="Mask" opacity="0.3" fill-rule="nonzero"></g>
            <g id="✱-/-Color-/-Icons-/-Black-/-Disabled" mask="url(#mask-4)" fill="#000000" fill-opacity="0.38">
                <rect id="Rectangle" x="0" y="0" width="101" height="101"></rect>
            </g>
        </g>
    </g>
</svg>