<?xml version="1.0" encoding="UTF-8"?>
<svg width="24px" height="24px" viewBox="0 0 24 24" version="1.1" xmlns="http://www.w3.org/2000/svg" xmlns:xlink="http://www.w3.org/1999/xlink">
    <!-- Generator: Sketch 50 (54983) - http://www.bohemiancoding.com/sketch -->
    <title>icon/communication/live_help_24px_two_tone</title>
    <desc>Created with Sketch.</desc>
    <defs>
        <path d="M0,14 L4,14 L4.83,14 L5.42,14.59 L7,16.17 L8.59,14.58 L9.17,14 L10,14 L14,14 L14,0 L0,0 L0,14 Z M8,13 L6,13 L6,11 L8,11 L8,13 Z M7,1 C9.21,1 11,2.79 11,5 C11,7.5 8,7.75 8,10 L6,10 C6,6.75 9,7 9,5 C9,3.9 8.1,3 7,3 C5.9,3 5,3.9 5,5 L3,5 C3,2.79 4.79,1 7,1 Z" id="path-1"></path>
        <path d="M18,2 C18,0.9 17.1,0 16,0 L2,0 C0.89,0 0,0.9 0,2 L0,16 C0,17.1 0.89,18 2,18 L6,18 L9,21 L12,18 L16,18 C17.1,18 18,17.1 18,16 L18,2 Z M16,16 L12,16 L11.17,16 L10.58,16.59 L9,18.17 L7.41,16.58 L6.83,16 L6,16 L2,16 L2,2 L16,2 L16,16 Z" id="path-3"></path>
        <rect id="path-5" x="0" y="0" width="2" height="2"></rect>
        <path d="M4,2 C5.1,2 6,2.9 6,4 C6,6 3,5.75 3,9 L5,9 C5,6.75 8,6.5 8,4 C8,1.79 6.21,0 4,0 C1.79,0 0,1.79 0,4 L2,4 C2,2.9 2.9,2 4,2 Z" id="path-7"></path>
    </defs>
    <g id="icon/communication/live_help_24px" stroke="none" stroke-width="1" fill="none" fill-rule="evenodd">
        <g id="↳-Light-Color" transform="translate(5.000000, 4.000000)">
            <mask id="mask-2" fill="white">
                <use xlink:href="#path-1"></use>
            </mask>
            <g id="Mask" opacity="0.3" fill-rule="nonzero"></g>
            <g id="✱-/-Color-/-Icons-/-Black-/-Disabled" mask="url(#mask-2)" fill="#000000" fill-opacity="0.38">
                <rect id="Rectangle" x="0" y="0" width="101" height="101"></rect>
            </g>
        </g>
        <g id="↳-Dark-Color" transform="translate(3.000000, 2.000000)">
            <mask id="mask-4" fill="white">
                <use xlink:href="#path-3"></use>
            </mask>
            <g id="Mask" fill-rule="nonzero"></g>
            <g id="✱-/-Color-/-Icons-/-Black-/-Inactive" mask="url(#mask-4)" fill="#000000" fill-opacity="0.54">
                <rect id="Rectangle" x="0" y="0" width="101" height="101"></rect>
            </g>
        </g>
        <g id="↳-Dark-Color" transform="translate(11.000000, 15.000000)">
            <mask id="mask-6" fill="white">
                <use xlink:href="#path-5"></use>
            </mask>
            <g id="Mask" fill-rule="nonzero"></g>
            <g id="✱-/-Color-/-Icons-/-Black-/-Inactive" mask="url(#mask-6)" fill="#000000" fill-opacity="0.54">
                <rect id="Rectangle" x="0" y="0" width="101" height="101"></rect>
            </g>
        </g>
        <g id="↳-Dark-Color" transform="translate(8.000000, 5.000000)">
            <mask id="mask-8" fill="white">
                <use xlink:href="#path-7"></use>
            </mask>
            <g id="Mask" fill-rule="nonzero"></g>
            <g id="✱-/-Color-/-Icons-/-Black-/-Inactive" mask="url(#mask-8)" fill="#000000" fill-opacity="0.54">
                <rect id="Rectangle" x="0" y="0" width="101" height="101"></rect>
            </g>
        </g>
    </g>
</svg>