<?xml version="1.0" encoding="UTF-8"?>
<svg width="24px" height="24px" viewBox="0 0 24 24" version="1.1" xmlns="http://www.w3.org/2000/svg" xmlns:xlink="http://www.w3.org/1999/xlink">
    <!-- Generator: Sketch 50 (54983) - http://www.bohemiancoding.com/sketch -->
    <title>icon/communication/location_off_24px_two_tone</title>
    <desc>Created with Sketch.</desc>
    <defs>
        <path d="M10,7 C10,8.06 9.61,9.32 9,10.62 L10.49,12.11 C11.37,10.36 12,8.57 12,7 C12,3.13 8.87,0 5,0 C3.16,0 1.5,0.71 0.25,1.86 L1.68,3.29 C2.56,2.5 3.72,2 5,2 C7.76,2 10,4.24 10,7 Z" id="path-1"></path>
        <path d="M2,0.5 C1.41,0.5 0.87,0.71 0.44,1.06 L3.94,4.56 C4.29,4.13 4.5,3.59 4.5,3 C4.5,1.62 3.38,0.5 2,0.5 Z" id="path-3"></path>
        <path d="M1.41,0.86 L0,2.27 L3.18,5.45 C3.07,5.95 3,6.47 3,7 C3,12.25 10,20 10,20 C10,20 11.67,18.15 13.38,15.65 L16.73,19 L18.14,17.59 L1.41,0.86 Z M10,16.88 C7.99,14.3 5.2,10.14 5.02,7.29 L11.94,14.21 C11.29,15.19 10.61,16.1 10,16.88 Z" id="path-5"></path>
    </defs>
    <g id="icon/communication/location_off_24px" stroke="none" stroke-width="1" fill="none" fill-rule="evenodd">
        <g id="↳-Dark-Color" transform="translate(7.000000, 2.000000)">
            <mask id="mask-2" fill="white">
                <use xlink:href="#path-1"></use>
            </mask>
            <g id="Mask" fill-rule="nonzero"></g>
            <g id="✱-/-Color-/-Icons-/-Black-/-Inactive" mask="url(#mask-2)" fill="#000000" fill-opacity="0.54">
                <rect id="Rectangle" x="0" y="0" width="101" height="101"></rect>
            </g>
        </g>
        <g id="↳-Dark-Color" transform="translate(10.000000, 6.000000)">
            <mask id="mask-4" fill="white">
                <use xlink:href="#path-3"></use>
            </mask>
            <g id="Mask" fill-rule="nonzero"></g>
            <g id="✱-/-Color-/-Icons-/-Black-/-Inactive" mask="url(#mask-4)" fill="#000000" fill-opacity="0.54">
                <rect id="Rectangle" x="0" y="0" width="101" height="101"></rect>
            </g>
        </g>
        <g id="↳-Dark-Color" transform="translate(2.000000, 2.000000)">
            <mask id="mask-6" fill="white">
                <use xlink:href="#path-5"></use>
            </mask>
            <g id="Mask" fill-rule="nonzero"></g>
            <g id="✱-/-Color-/-Icons-/-Black-/-Inactive" mask="url(#mask-6)" fill="#000000" fill-opacity="0.54">
                <rect id="Rectangle" x="0" y="0" width="101" height="101"></rect>
            </g>
        </g>
    </g>
</svg>