<?xml version="1.0" encoding="UTF-8"?>
<svg width="24px" height="24px" viewBox="0 0 24 24" version="1.1" xmlns="http://www.w3.org/2000/svg" xmlns:xlink="http://www.w3.org/1999/xlink">
    <!-- Generator: Sketch 50 (54983) - http://www.bohemiancoding.com/sketch -->
    <title>icon/communication/person_add_disabled_24px_two_tone</title>
    <desc>Created with Sketch.</desc>
    <defs>
        <path d="M0,2 L5.87,2 L4,0.13 L2.9,0.43 C0.89,0.99 0.08,1.76 0,2 Z" id="path-1"></path>
        <path d="M4,2 C4,0.9 3.1,0 2,0 C1.01,0 0.19,0.72 0.03,1.67 L2.34,3.98 C3.27,3.82 4,2.99 4,2 Z" id="path-3"></path>
        <path d="M3.48,7.95 C3.65,7.97 3.82,8 4,8 C6.21,8 8,6.21 8,4 C8,1.79 6.21,0 4,0 C1.79,0 0,1.79 0,4 C0,4.18 0.03,4.35 0.05,4.52 L3.48,7.95 Z M4,2 C5.1,2 6,2.9 6,4 C6,4.99 5.27,5.82 4.33,5.97 L2.02,3.66 C2.19,2.72 3.01,2 4,2 Z" id="path-5"></path>
        <path d="M0.69,0.16 L6.53,6 L7,6 L7,4 C7,1.86 3.44,0.5 0.69,0.16 Z" id="path-7"></path>
        <path d="M0,2.12 L4,6.12 L4,9 L1,9 L1,11 L4,11 L4,14 L6,14 L6,11 L8.88,11 L11.39,13.51 C9.19,14.11 7,15.3 7,17 L7,19 L16.88,19 L20.88,23 L22.29,21.59 L1.41,0.71 L0,2.12 Z M13.01,15.13 L14.88,17 L9,17 C9.08,16.76 9.88,15.99 11.91,15.43 L13.01,15.13 Z M6,8.12 L6.88,9 L6,9 L6,8.12 Z" id="path-9"></path>
    </defs>
    <g id="icon/communication/person_add_disabled_24px" stroke="none" stroke-width="1" fill="none" fill-rule="evenodd">
        <g id="↳-Light-Color" transform="translate(9.000000, 16.000000)">
            <mask id="mask-2" fill="white">
                <use xlink:href="#path-1"></use>
            </mask>
            <g id="Mask" opacity="0.3" fill-rule="nonzero"></g>
            <g id="✱-/-Color-/-Icons-/-Black-/-Disabled" mask="url(#mask-2)" fill="#000000" fill-opacity="0.38">
                <rect id="Rectangle" x="0" y="0" width="101" height="101"></rect>
            </g>
        </g>
        <g id="↳-Light-Color" transform="translate(13.000000, 6.000000)">
            <mask id="mask-4" fill="white">
                <use xlink:href="#path-3"></use>
            </mask>
            <g id="Mask" opacity="0.3" fill-rule="nonzero"></g>
            <g id="✱-/-Color-/-Icons-/-Black-/-Disabled" mask="url(#mask-4)" fill="#000000" fill-opacity="0.38">
                <rect id="Rectangle" x="0" y="0" width="101" height="101"></rect>
            </g>
        </g>
        <g id="↳-Dark-Color" transform="translate(11.000000, 4.000000)">
            <mask id="mask-6" fill="white">
                <use xlink:href="#path-5"></use>
            </mask>
            <g id="Mask" fill-rule="nonzero"></g>
            <g id="✱-/-Color-/-Icons-/-Black-/-Inactive" mask="url(#mask-6)" fill="#000000" fill-opacity="0.54">
                <rect id="Rectangle" x="0" y="0" width="101" height="101"></rect>
            </g>
        </g>
        <g id="↳-Dark-Color" transform="translate(16.000000, 14.000000)">
            <mask id="mask-8" fill="white">
                <use xlink:href="#path-7"></use>
            </mask>
            <g id="Mask" fill-rule="nonzero"></g>
            <g id="✱-/-Color-/-Icons-/-Black-/-Inactive" mask="url(#mask-8)" fill="#000000" fill-opacity="0.54">
                <rect id="Rectangle" x="0" y="0" width="101" height="101"></rect>
            </g>
        </g>
        <g id="↳-Dark-Color" transform="translate(0.000000, 1.000000)">
            <mask id="mask-10" fill="white">
                <use xlink:href="#path-9"></use>
            </mask>
            <g id="Mask" fill-rule="nonzero"></g>
            <g id="✱-/-Color-/-Icons-/-Black-/-Inactive" mask="url(#mask-10)" fill="#000000" fill-opacity="0.54">
                <rect id="Rectangle" x="0" y="0" width="101" height="101"></rect>
            </g>
        </g>
    </g>
</svg>