<?xml version="1.0" encoding="UTF-8"?>
<svg width="24px" height="24px" viewBox="0 0 24 24" version="1.1" xmlns="http://www.w3.org/2000/svg" xmlns:xlink="http://www.w3.org/1999/xlink">
    <!-- Generator: Sketch 50 (54983) - http://www.bohemiancoding.com/sketch -->
    <title>icon/communication/phonelink_setup_24px_two_tone</title>
    <desc>Created with Sketch.</desc>
    <defs>
        <path d="M0,2 L0,5 L2,5 L2,3 L12,3 L12,19 L2,19 L2,17 L0,17 L0,20 C0,21.1 0.9,22 2,22 L12,22 C13.1,22 14,21.1 14,20 L14,2 C14,0.9 13.1,0 12,0 L2,0 C0.9,0 0,0.9 0,2 Z" id="path-1"></path>
        <path d="M6.5,8.5 C6.79,8.38 7.05,8.21 7.3,8.02 L7.28,8.05 L8.29,8.44 C8.52,8.53 8.78,8.44 8.9,8.22 L9.74,6.76 C9.86,6.55 9.81,6.27 9.62,6.12 L8.77,5.44 L8.75,5.47 C8.77,5.31 8.8,5.15 8.8,4.99 C8.8,4.83 8.77,4.67 8.75,4.51 L8.77,4.54 L9.62,3.86 C9.81,3.71 9.86,3.43 9.74,3.22 L8.9,1.76 C8.78,1.55 8.52,1.45 8.29,1.54 L7.28,1.93 L7.3,1.96 C7.05,1.79 6.79,1.62 6.5,1.5 L6.33,0.42 C6.3,0.18 6.09,0 5.84,0 L4.16,0 C3.91,0 3.7,0.18 3.67,0.42 L3.5,1.5 C3.21,1.62 2.95,1.79 2.7,1.98 L2.72,1.95 L1.7,1.56 C1.47,1.47 1.21,1.56 1.09,1.78 L0.25,3.24 C0.13,3.45 0.18,3.73 0.37,3.88 L1.22,4.56 L1.24,4.53 C1.22,4.68 1.19,4.84 1.19,5 C1.19,5.16 1.22,5.32 1.24,5.48 L1.22,5.45 L0.37,6.13 C0.18,6.28 0.13,6.56 0.25,6.77 L1.09,8.23 C1.21,8.44 1.47,8.54 1.7,8.45 L2.71,8.06 L2.7,8.02 C2.95,8.21 3.21,8.38 3.5,8.5 L3.67,9.57 C3.7,9.82 3.91,10 4.16,10 L5.84,10 C6.09,10 6.3,9.82 6.33,9.58 L6.5,8.5 Z M3,5 C3,3.9 3.9,3 5,3 C6.1,3 7,3.9 7,5 C7,6.1 6.1,7 5,7 C3.9,7 3,6.1 3,5 Z" id="path-3"></path>
    </defs>
    <g id="icon/communication/phonelink_setup_24px" stroke="none" stroke-width="1" fill="none" fill-rule="evenodd">
        <g id="↳-Dark-Color" transform="translate(7.000000, 1.000000)">
            <mask id="mask-2" fill="white">
                <use xlink:href="#path-1"></use>
            </mask>
            <g id="Mask" fill-rule="nonzero"></g>
            <g id="✱-/-Color-/-Icons-/-Black-/-Inactive" mask="url(#mask-2)" fill="#000000" fill-opacity="0.54">
                <rect id="Rectangle" x="0" y="0" width="101" height="101"></rect>
            </g>
        </g>
        <g id="↳-Dark-Color" transform="translate(3.000000, 7.000000)">
            <mask id="mask-4" fill="white">
                <use xlink:href="#path-3"></use>
            </mask>
            <g id="Mask" fill-rule="nonzero"></g>
            <g id="✱-/-Color-/-Icons-/-Black-/-Inactive" mask="url(#mask-4)" fill="#000000" fill-opacity="0.54">
                <rect id="Rectangle" x="0" y="0" width="101" height="101"></rect>
            </g>
        </g>
    </g>
</svg>