<?xml version="1.0" encoding="UTF-8"?>
<svg width="24px" height="24px" viewBox="0 0 24 24" version="1.1" xmlns="http://www.w3.org/2000/svg" xmlns:xlink="http://www.w3.org/1999/xlink">
    <!-- Generator: Sketch 50 (54983) - http://www.bohemiancoding.com/sketch -->
    <title>icon/communication/phonelink_lock_24px_two_tone</title>
    <desc>Created with Sketch.</desc>
    <defs>
        <path d="M4,0 C2.6,0 1.2,1.1 1.2,2.5 L1.2,4 C0.6,4 0,4.6 0,5.2 L0,8.7 C0,9.4 0.6,10 1.2,10 L6.7,10 C7.4,10 8,9.4 8,8.8 L8,5.3 C8,4.6 7.4,4 6.8,4 L6.8,2.5 C6.8,1.1 5.4,0 4,0 Z M5.5,4 L2.5,4 L2.5,2.5 C2.5,1.7 3.2,1.2 4,1.2 C4.8,1.2 5.5,1.7 5.5,2.5 L5.5,4 Z" id="path-1"></path>
        <path d="M14,20 L14,2 C14,0.9 13.1,0 12,0 L2,0 C0.9,0 0,0.9 0,2 L0,5 L2,5 L2,3 L12,3 L12,19 L2,19 L2,17 L0,17 L0,20 C0,21.1 0.9,22 2,22 L12,22 C13.1,22 14,21.1 14,20 Z" id="path-3"></path>
    </defs>
    <g id="icon/communication/phonelink_lock_24px" stroke="none" stroke-width="1" fill="none" fill-rule="evenodd">
        <g id="↳-Dark-Color" transform="translate(4.000000, 7.000000)">
            <mask id="mask-2" fill="white">
                <use xlink:href="#path-1"></use>
            </mask>
            <g id="Mask" fill-rule="nonzero"></g>
            <g id="✱-/-Color-/-Icons-/-Black-/-Inactive" mask="url(#mask-2)" fill="#000000" fill-opacity="0.54">
                <rect id="Rectangle" x="0" y="0" width="101" height="101"></rect>
            </g>
        </g>
        <g id="↳-Dark-Color" transform="translate(7.000000, 1.000000)">
            <mask id="mask-4" fill="white">
                <use xlink:href="#path-3"></use>
            </mask>
            <g id="Mask" fill-rule="nonzero"></g>
            <g id="✱-/-Color-/-Icons-/-Black-/-Inactive" mask="url(#mask-4)" fill="#000000" fill-opacity="0.54">
                <rect id="Rectangle" x="0" y="0" width="101" height="101"></rect>
            </g>
        </g>
    </g>
</svg>