<?xml version="1.0" encoding="UTF-8"?>
<svg width="24px" height="24px" viewBox="0 0 24 24" version="1.1" xmlns="http://www.w3.org/2000/svg" xmlns:xlink="http://www.w3.org/1999/xlink">
    <!-- Generator: Sketch 50 (54983) - http://www.bohemiancoding.com/sketch -->
    <title>icon/communication/portable_wifi_off_24px_two_tone</title>
    <desc>Created with Sketch.</desc>
    <defs>
        <path d="M1.42,0.36 L0.01,1.78 L2.1,3.87 C0.79,5.57 0,7.69 0,10 C0,13.7 2.01,16.92 4.99,18.65 L5.99,16.92 C3.61,15.53 2,12.96 2,10 C2,8.24 2.57,6.62 3.53,5.31 L4.96,6.75 C4.36,7.68 4,8.8 4,10 C4,12.22 5.21,14.15 7,15.19 L8,13.45 C6.81,12.75 6,11.48 6,10 C6,9.35 6.17,8.75 6.44,8.21 L8.02,9.79 L8,10 C8,11.1 8.9,12 10,12 L10.21,11.98 L17.73,19.5 L19.14,18.09 L1.42,0.36 Z" id="path-1"></path>
        <path d="M7.71,7.82 C7.89,7.25 8,6.63 8,6 C8,2.69 5.31,0 2,0 C1.37,0 0.75,0.11 0.18,0.29 L1.9,2.01 C1.93,2.01 1.96,2 2,2 C4.21,2 6,3.79 6,6 C6,6.04 5.99,6.07 5.99,6.11 L7.71,7.82 Z" id="path-3"></path>
        <path d="M5,2 C9.42,2 13,5.58 13,10 C13,11.2 12.71,12.32 12.23,13.35 L13.72,14.84 C14.53,13.4 15,11.76 15,10 C15,4.48 10.52,0 5,0 C3.24,0 1.6,0.48 0.16,1.28 L1.64,2.76 C2.66,2.28 3.8,2 5,2 Z" id="path-5"></path>
    </defs>
    <g id="icon/communication/portable_wifi_off_24px" stroke="none" stroke-width="1" fill="none" fill-rule="evenodd">
        <g id="↳-Dark-Color" transform="translate(2.000000, 2.000000)">
            <mask id="mask-2" fill="white">
                <use xlink:href="#path-1"></use>
            </mask>
            <g id="Mask" fill-rule="nonzero"></g>
            <g id="✱-/-Color-/-Icons-/-Black-/-Inactive" mask="url(#mask-2)" fill="#000000" fill-opacity="0.54">
                <rect id="Rectangle" x="0" y="0" width="101" height="101"></rect>
            </g>
        </g>
        <g id="↳-Dark-Color" transform="translate(10.000000, 6.000000)">
            <mask id="mask-4" fill="white">
                <use xlink:href="#path-3"></use>
            </mask>
            <g id="Mask" fill-rule="nonzero"></g>
            <g id="✱-/-Color-/-Icons-/-Black-/-Inactive" mask="url(#mask-4)" fill="#000000" fill-opacity="0.54">
                <rect id="Rectangle" x="0" y="0" width="101" height="101"></rect>
            </g>
        </g>
        <g id="↳-Dark-Color" transform="translate(7.000000, 2.000000)">
            <mask id="mask-6" fill="white">
                <use xlink:href="#path-5"></use>
            </mask>
            <g id="Mask" fill-rule="nonzero"></g>
            <g id="✱-/-Color-/-Icons-/-Black-/-Inactive" mask="url(#mask-6)" fill="#000000" fill-opacity="0.54">
                <rect id="Rectangle" x="0" y="0" width="101" height="101"></rect>
            </g>
        </g>
    </g>
</svg>