<?xml version="1.0" encoding="UTF-8"?>
<svg width="24px" height="24px" viewBox="0 0 24 24" version="1.1" xmlns="http://www.w3.org/2000/svg" xmlns:xlink="http://www.w3.org/1999/xlink">
    <!-- Generator: Sketch 50 (54983) - http://www.bohemiancoding.com/sketch -->
    <title>icon/communication/present_to_all_24px_two_tone</title>
    <desc>Created with Sketch.</desc>
    <defs>
        <path d="M0,15.02 L18,15.02 L18,0.98 L0,0.98 L0,15.02 Z M9,4 L13,8 L11,8 L11,12 L7,12 L7,8 L5,8 L9,4 Z" id="path-1"></path>
        <polygon id="path-3" points="2 8 6 8 6 4 8 4 4 0 0 4 2 4"></polygon>
        <path d="M20,0 L2,0 C0.89,0 0,0.89 0,2 L0,16 C0,17.11 0.89,18 2,18 L20,18 C21.11,18 22,17.11 22,16 L22,2 C22,0.89 21.11,0 20,0 Z M20,16.02 L2,16.02 L2,1.98 L20,1.98 L20,16.02 Z" id="path-5"></path>
    </defs>
    <g id="icon/communication/present_to_all_24px" stroke="none" stroke-width="1" fill="none" fill-rule="evenodd">
        <g id="↳-Light-Color" transform="translate(3.000000, 4.000000)">
            <mask id="mask-2" fill="white">
                <use xlink:href="#path-1"></use>
            </mask>
            <g id="Mask" opacity="0.3" fill-rule="nonzero"></g>
            <g id="✱-/-Color-/-Icons-/-Black-/-Disabled" mask="url(#mask-2)" fill="#000000" fill-opacity="0.38">
                <rect id="Rectangle" x="0" y="0" width="101" height="101"></rect>
            </g>
        </g>
        <g id="↳-Dark-Color" transform="translate(8.000000, 8.000000)">
            <mask id="mask-4" fill="white">
                <use xlink:href="#path-3"></use>
            </mask>
            <g id="Mask" fill-rule="nonzero"></g>
            <g id="✱-/-Color-/-Icons-/-Black-/-Inactive" mask="url(#mask-4)" fill="#000000" fill-opacity="0.54">
                <rect id="Rectangle" x="0" y="0" width="101" height="101"></rect>
            </g>
        </g>
        <g id="↳-Dark-Color" transform="translate(1.000000, 3.000000)">
            <mask id="mask-6" fill="white">
                <use xlink:href="#path-5"></use>
            </mask>
            <g id="Mask" fill-rule="nonzero"></g>
            <g id="✱-/-Color-/-Icons-/-Black-/-Inactive" mask="url(#mask-6)" fill="#000000" fill-opacity="0.54">
                <rect id="Rectangle" x="0" y="0" width="101" height="101"></rect>
            </g>
        </g>
    </g>
</svg>