<?xml version="1.0" encoding="UTF-8"?>
<svg width="24px" height="24px" viewBox="0 0 24 24" version="1.1" xmlns="http://www.w3.org/2000/svg" xmlns:xlink="http://www.w3.org/1999/xlink">
    <!-- Generator: Sketch 50 (54983) - http://www.bohemiancoding.com/sketch -->
    <title>icon/communication/ring_volume_24px_two_tone</title>
    <desc>Created with Sketch.</desc>
    <defs>
        <path d="M0.6,2.22 C1.26,2.59 1.88,3.01 2.47,3.49 L3.54,2.42 C2.63,1.67 1.64,1.04 0.6,0.52 L0.6,2.22 Z" id="path-1"></path>
        <path d="M1.53,3.5 C2.11,3.03 2.74,2.61 3.4,2.23 L3.4,0.52 C2.35,1.03 1.37,1.67 0.45,2.42 L1.53,3.5 Z" id="path-3"></path>
        <path d="M12,0 C7.46,0 3.34,1.78 0.29,4.67 C0.11,4.85 0,5.1 0,5.38 C0,5.66 0.11,5.91 0.29,6.09 L2.77,8.57 C2.95,8.75 3.2,8.86 3.48,8.86 C3.75,8.86 4,8.75 4.18,8.58 C4.97,7.84 5.87,7.22 6.84,6.73 C7.17,6.57 7.4,6.23 7.4,5.83 L7.4,2.73 C8.85,2.25 10.4,2 12,2 C13.6,2 15.15,2.25 16.6,2.72 L16.6,5.82 C16.6,6.21 16.83,6.56 17.16,6.72 C18.14,7.21 19.03,7.84 19.82,8.57 C20,8.75 20.25,8.85 20.52,8.85 C20.8,8.85 21.05,8.74 21.23,8.56 L23.71,6.08 C23.89,5.9 24,5.65 24,5.37 C24,5.1 23.89,4.85 23.71,4.67 C20.66,1.78 16.54,0 12,0 Z M5.4,5.23 C4.74,5.6 4.11,6.03 3.53,6.5 L2.46,5.43 C3.37,4.68 4.36,4.04 5.41,3.53 L5.41,5.23 L5.4,5.23 Z M20.47,6.49 C19.88,6.01 19.26,5.59 18.6,5.22 L18.6,3.52 C19.64,4.03 20.63,4.67 21.54,5.42 L20.47,6.49 Z" id="path-5"></path>
        <path d="M0.19,4.4 L1.6,5.81 C1.6,5.81 5.05,2.29 5.16,2.26 L3.75,0.85 L0.19,4.4 Z" id="path-7"></path>
        <rect id="path-9" x="0" y="0" width="2" height="5"></rect>
        <path d="M4.4,5.81 L5.81,4.4 L2.26,0.84 L0.84,2.26 C0.95,2.29 4.4,5.81 4.4,5.81 Z" id="path-11"></path>
    </defs>
    <g id="icon/communication/ring_volume_24px" stroke="none" stroke-width="1" fill="none" fill-rule="evenodd">
        <g id="↳-Light-Color" transform="translate(18.000000, 15.000000)">
            <mask id="mask-2" fill="white">
                <use xlink:href="#path-1"></use>
            </mask>
            <g id="Mask" opacity="0.3" fill-rule="nonzero"></g>
            <g id="✱-/-Color-/-Icons-/-Black-/-Disabled" mask="url(#mask-2)" fill="#000000" fill-opacity="0.38">
                <rect id="Rectangle" x="0" y="0" width="101" height="101"></rect>
            </g>
        </g>
        <g id="↳-Light-Color" transform="translate(2.000000, 15.000000)">
            <mask id="mask-4" fill="white">
                <use xlink:href="#path-3"></use>
            </mask>
            <g id="Mask" opacity="0.3" fill-rule="nonzero"></g>
            <g id="✱-/-Color-/-Icons-/-Black-/-Disabled" mask="url(#mask-4)" fill="#000000" fill-opacity="0.38">
                <rect id="Rectangle" x="0" y="0" width="101" height="101"></rect>
            </g>
        </g>
        <g id="↳-Dark-Color" transform="translate(0.000000, 12.000000)">
            <mask id="mask-6" fill="white">
                <use xlink:href="#path-5"></use>
            </mask>
            <g id="Mask" fill-rule="nonzero"></g>
            <g id="✱-/-Color-/-Icons-/-Black-/-Inactive" mask="url(#mask-6)" fill="#000000" fill-opacity="0.54">
                <rect id="Rectangle" x="0" y="0" width="101" height="101"></rect>
            </g>
        </g>
        <g id="↳-Dark-Color" transform="translate(16.000000, 4.000000)">
            <mask id="mask-8" fill="white">
                <use xlink:href="#path-7"></use>
            </mask>
            <g id="Mask" fill-rule="nonzero"></g>
            <g id="✱-/-Color-/-Icons-/-Black-/-Inactive" mask="url(#mask-8)" fill="#000000" fill-opacity="0.54">
                <rect id="Rectangle" x="0" y="0" width="101" height="101"></rect>
            </g>
        </g>
        <g id="↳-Dark-Color" transform="translate(11.000000, 2.000000)">
            <mask id="mask-10" fill="white">
                <use xlink:href="#path-9"></use>
            </mask>
            <g id="Mask" fill-rule="nonzero"></g>
            <g id="✱-/-Color-/-Icons-/-Black-/-Inactive" mask="url(#mask-10)" fill="#000000" fill-opacity="0.54">
                <rect id="Rectangle" x="0" y="0" width="101" height="101"></rect>
            </g>
        </g>
        <g id="↳-Dark-Color" transform="translate(2.000000, 4.000000)">
            <mask id="mask-12" fill="white">
                <use xlink:href="#path-11"></use>
            </mask>
            <g id="Mask" fill-rule="nonzero"></g>
            <g id="✱-/-Color-/-Icons-/-Black-/-Inactive" mask="url(#mask-12)" fill="#000000" fill-opacity="0.54">
                <rect id="Rectangle" x="0" y="0" width="101" height="101"></rect>
            </g>
        </g>
    </g>
</svg>