<?xml version="1.0" encoding="UTF-8"?>
<svg width="24px" height="24px" viewBox="0 0 24 24" version="1.1" xmlns="http://www.w3.org/2000/svg" xmlns:xlink="http://www.w3.org/1999/xlink">
    <!-- Generator: Sketch 50 (54983) - http://www.bohemiancoding.com/sketch -->
    <title>icon/communication/screen_share_24px_two_tone</title>
    <desc>Created with Sketch.</desc>
    <defs>
        <path d="M16,10 L16,0 L0,0 L0,10 L0,10.01 L16,10 Z M9,8.47 L9,6.28 C6.22,6.28 4.39,7.13 3,9 C3.56,6.33 5.11,3.67 9,3.13 L9,1 L13,4.73 L9,8.47 Z" id="path-1"></path>
        <path d="M20,14 C21.1,14 21.99,13.1 21.99,12 L22,2 C22,0.89 21.1,0 20,0 L4,0 C2.89,0 2,0.89 2,2 L2,12 C2,13.1 2.89,14 4,14 L0,14 L0,16 L24,16 L24,14 L20,14 Z M4,12 L4,2 L20,2 L20,12 L20,12.01 L4,12 Z" id="path-3"></path>
        <path d="M6,2.13 C2.11,2.67 0.56,5.33 0,8 C1.39,6.13 3.22,5.28 6,5.28 L6,7.47 L10,3.73 L6,0 L6,2.13 Z" id="path-5"></path>
    </defs>
    <g id="icon/communication/screen_share_24px" stroke="none" stroke-width="1" fill="none" fill-rule="evenodd">
        <g id="↳-Light-Color" transform="translate(4.000000, 6.000000)">
            <mask id="mask-2" fill="white">
                <use xlink:href="#path-1"></use>
            </mask>
            <g id="Mask" opacity="0.3" fill-rule="nonzero"></g>
            <g id="✱-/-Color-/-Icons-/-Black-/-Disabled" mask="url(#mask-2)" fill="#000000" fill-opacity="0.38">
                <rect id="Rectangle" x="0" y="0" width="101" height="101"></rect>
            </g>
        </g>
        <g id="↳-Dark-Color" transform="translate(0.000000, 4.000000)">
            <mask id="mask-4" fill="white">
                <use xlink:href="#path-3"></use>
            </mask>
            <g id="Mask" fill-rule="nonzero"></g>
            <g id="✱-/-Color-/-Icons-/-Black-/-Inactive" mask="url(#mask-4)" fill="#000000" fill-opacity="0.54">
                <rect id="Rectangle" x="0" y="0" width="101" height="101"></rect>
            </g>
        </g>
        <g id="↳-Dark-Color" transform="translate(7.000000, 7.000000)">
            <mask id="mask-6" fill="white">
                <use xlink:href="#path-5"></use>
            </mask>
            <g id="Mask" fill-rule="nonzero"></g>
            <g id="✱-/-Color-/-Icons-/-Black-/-Inactive" mask="url(#mask-6)" fill="#000000" fill-opacity="0.54">
                <rect id="Rectangle" x="0" y="0" width="101" height="101"></rect>
            </g>
        </g>
    </g>
</svg>