<?xml version="1.0" encoding="UTF-8"?>
<svg width="24px" height="24px" viewBox="0 0 24 24" version="1.1" xmlns="http://www.w3.org/2000/svg" xmlns:xlink="http://www.w3.org/1999/xlink">
    <!-- Generator: Sketch 50 (54983) - http://www.bohemiancoding.com/sketch -->
    <title>icon/communication/speaker_phone_24px_two_tone</title>
    <desc>Created with Sketch.</desc>
    <defs>
        <rect id="path-1" x="0" y="0" width="6" height="8"></rect>
        <path d="M8,0 C4.98,0 2.24,1.23 0.25,3.21 L1.66,4.62 C3.28,3 5.53,2 8,2 C10.47,2 12.72,3 14.34,4.62 L15.75,3.21 C13.76,1.23 11.02,0 8,0 Z" id="path-3"></path>
        <path d="M0,2.07 L1.43,3.5 C2.34,2.59 3.61,2.02 5,2.02 C6.39,2.02 7.66,2.59 8.57,3.5 L10,2.07 C8.72,0.79 6.95,0 5,0 C3.05,0 1.28,0.79 0,2.07 Z" id="path-5"></path>
        <path d="M6.86,0.01 L1.14,0 C0.51,0 0,0.51 0,1.14 L0,10.85 C0,11.48 0.51,11.99 1.14,11.99 L6.85,11.99 C7.48,11.99 7.99,11.48 7.99,10.85 L7.99,1.14 C8,0.51 7.49,0.01 6.86,0.01 Z M7,10 L1,10 L1,2 L7,2 L7,10 Z" id="path-7"></path>
    </defs>
    <g id="icon/communication/speaker_phone_24px" stroke="none" stroke-width="1" fill="none" fill-rule="evenodd">
        <g id="↳-Light-Color" transform="translate(9.000000, 12.000000)">
            <mask id="mask-2" fill="white">
                <use xlink:href="#path-1"></use>
            </mask>
            <g id="Mask" opacity="0.3" fill-rule="nonzero"></g>
            <g id="✱-/-Color-/-Icons-/-Black-/-Disabled" mask="url(#mask-2)" fill="#000000" fill-opacity="0.38">
                <rect id="Rectangle" x="0" y="0" width="101" height="101"></rect>
            </g>
        </g>
        <g id="↳-Dark-Color" transform="translate(4.000000, 1.000000)">
            <mask id="mask-4" fill="white">
                <use xlink:href="#path-3"></use>
            </mask>
            <g id="Mask" fill-rule="nonzero"></g>
            <g id="✱-/-Color-/-Icons-/-Black-/-Inactive" mask="url(#mask-4)" fill="#000000" fill-opacity="0.54">
                <rect id="Rectangle" x="0" y="0" width="101" height="101"></rect>
            </g>
        </g>
        <g id="↳-Dark-Color" transform="translate(7.000000, 5.000000)">
            <mask id="mask-6" fill="white">
                <use xlink:href="#path-5"></use>
            </mask>
            <g id="Mask" fill-rule="nonzero"></g>
            <g id="✱-/-Color-/-Icons-/-Black-/-Inactive" mask="url(#mask-6)" fill="#000000" fill-opacity="0.54">
                <rect id="Rectangle" x="0" y="0" width="101" height="101"></rect>
            </g>
        </g>
        <g id="↳-Dark-Color" transform="translate(8.000000, 10.000000)">
            <mask id="mask-8" fill="white">
                <use xlink:href="#path-7"></use>
            </mask>
            <g id="Mask" fill-rule="nonzero"></g>
            <g id="✱-/-Color-/-Icons-/-Black-/-Inactive" mask="url(#mask-8)" fill="#000000" fill-opacity="0.54">
                <rect id="Rectangle" x="0" y="0" width="101" height="101"></rect>
            </g>
        </g>
    </g>
</svg>