<?xml version="1.0" encoding="UTF-8"?>
<svg width="24px" height="24px" viewBox="0 0 24 24" version="1.1" xmlns="http://www.w3.org/2000/svg" xmlns:xlink="http://www.w3.org/1999/xlink">
    <!-- Generator: Sketch 50 (54983) - http://www.bohemiancoding.com/sketch -->
    <title>icon/communication/stop_screen_share_24px_two_tone</title>
    <desc>Created with Sketch.</desc>
    <defs>
        <path d="M6.67,6.54 C5.13,6.92 3.96,7.71 3,9 C3.31,7.52 3.94,6.07 5.08,4.95 L0.13,0.02 L0,0.02 L0,10.02 L0,10.03 L10.14,10.03 L6.67,6.54 Z" id="path-1"></path>
        <path d="M21.79,17 L23.79,19 L24,19 L24,17 L21.79,17 Z M1.11,1.98 L2.66,3.54 C2.25,3.91 2,4.43 2,5.02 L2,15 C2,16.1 2.9,17 4.01,17 L0,17 L0,19 L18.13,19 L20.84,21.71 L22.25,20.3 L2.52,0.57 L1.11,1.98 Z M4,5.02 L4.13,5.02 L9.08,9.95 C7.94,11.07 7.31,12.52 7,14 C7.96,12.71 9.13,11.92 10.67,11.54 L14.13,15.02 L4,15.02 L4,5.02 Z M20,5.02 L20,15.21 L21.3,16.51 C21.72,16.14 22,15.62 22,15.02 L22,5.02 C22,3.91 21.1,3.02 20,3.02 L7.8,3.02 L9.8,5.02 L20,5.02 Z M12.93,8.15 L15.72,10.93 L17,9.73 L13,6 L13,8.13 C13,8.13 12.93,8.15 12.93,8.15 Z" id="path-3"></path>
        <path d="M11,0.02 L0.8,0.02 L3.93,3.15 C3.95,3.15 3.97,3.14 4,3.13 L4,1 L8,4.73 L6.72,5.93 L11,10.21 L11,0.02 Z" id="path-5"></path>
    </defs>
    <g id="icon/communication/stop_screen_share_24px" stroke="none" stroke-width="1" fill="none" fill-rule="evenodd">
        <g id="↳-Light-Color" transform="translate(4.000000, 6.000000)">
            <mask id="mask-2" fill="white">
                <use xlink:href="#path-1"></use>
            </mask>
            <g id="Mask" opacity="0.3" fill-rule="nonzero"></g>
            <g id="✱-/-Color-/-Icons-/-Black-/-Disabled" mask="url(#mask-2)" fill="#000000" fill-opacity="0.38">
                <rect id="Rectangle" x="0" y="0" width="101" height="101"></rect>
            </g>
        </g>
        <g id="↳-Dark-Color" transform="translate(0.000000, 1.000000)">
            <mask id="mask-4" fill="white">
                <use xlink:href="#path-3"></use>
            </mask>
            <g id="Mask" fill-rule="nonzero"></g>
            <g id="✱-/-Color-/-Icons-/-Black-/-Inactive" mask="url(#mask-4)" fill="#000000" fill-opacity="0.54">
                <rect id="Rectangle" x="0" y="0" width="101" height="101"></rect>
            </g>
        </g>
        <g id="↳-Light-Color" transform="translate(9.000000, 6.000000)">
            <mask id="mask-6" fill="white">
                <use xlink:href="#path-5"></use>
            </mask>
            <g id="Mask" opacity="0.3" fill-rule="nonzero"></g>
            <g id="✱-/-Color-/-Icons-/-Black-/-Disabled" mask="url(#mask-6)" fill="#000000" fill-opacity="0.38">
                <rect id="Rectangle" x="0" y="0" width="101" height="101"></rect>
            </g>
        </g>
    </g>
</svg>