<?xml version="1.0" encoding="UTF-8"?>
<svg width="24px" height="24px" viewBox="0 0 24 24" version="1.1" xmlns="http://www.w3.org/2000/svg" xmlns:xlink="http://www.w3.org/1999/xlink">
    <!-- Generator: Sketch 50 (54983) - http://www.bohemiancoding.com/sketch -->
    <title>icon/communication/swap_calls_24px_two_tone</title>
    <desc>Created with Sketch.</desc>
    <defs>
        <path d="M12,4 L15,4 L15,11 C15,12.1 14.1,13 13,13 C11.9,13 11,12.1 11,11 L11,4 C11,1.79 9.21,0 7,0 C4.79,0 3,1.79 3,4 L3,11 L0,11 L4,15 L8,11 L5,11 L5,4 C5,2.9 5.9,2 7,2 C8.1,2 9,2.9 9,4 L9,11 C9,13.21 10.79,15 13,15 C15.21,15 17,13.21 17,11 L17,4 L20,4 L16,0 L12,4 Z" id="path-1"></path>
    </defs>
    <g id="icon/communication/swap_calls_24px" stroke="none" stroke-width="1" fill="none" fill-rule="evenodd">
        <g id="↳-Dark-Color" transform="translate(2.000000, 4.000000)">
            <mask id="mask-2" fill="white">
                <use xlink:href="#path-1"></use>
            </mask>
            <g id="Mask" fill-rule="nonzero"></g>
            <g id="✱-/-Color-/-Icons-/-Black-/-Inactive" mask="url(#mask-2)" fill="#000000" fill-opacity="0.54">
                <rect id="Rectangle" x="0" y="0" width="101" height="101"></rect>
            </g>
        </g>
    </g>
</svg>