<?xml version="1.0" encoding="UTF-8"?>
<svg width="24px" height="24px" viewBox="0 0 24 24" version="1.1" xmlns="http://www.w3.org/2000/svg" xmlns:xlink="http://www.w3.org/1999/xlink">
    <!-- Generator: Sketch 50 (54983) - http://www.bohemiancoding.com/sketch -->
    <title>icon/action/3d_rotation_24px_sharp</title>
    <desc>Created with Sketch.</desc>
    <defs>
        <path d="M7.525,21.48 C4.255,19.94 1.915,16.76 1.555,13 L0.055,13 C0.565,19.16 5.715,24 12.005,24 L12.665,23.97 L8.855,20.16 L7.525,21.48 Z M8.415,14.96 C8.225,14.96 8.045,14.93 7.895,14.88 C7.735,14.82 7.605,14.75 7.495,14.64 C7.385,14.54 7.295,14.42 7.235,14.27 C7.175,14.13 7.145,13.97 7.145,13.8 L5.845,13.8 C5.845,14.16 5.915,14.48 6.055,14.75 C6.195,15.02 6.385,15.25 6.615,15.44 C6.855,15.62 7.125,15.76 7.435,15.85 C7.735,15.95 8.055,16 8.395,16 C8.765,16 9.115,15.95 9.425,15.85 C9.745,15.75 10.025,15.6 10.255,15.41 C10.485,15.22 10.675,14.98 10.805,14.69 C10.935,14.4 11.005,14.08 11.005,13.72 C11.005,13.53 10.985,13.34 10.935,13.16 C10.885,12.98 10.815,12.81 10.705,12.65 C10.605,12.49 10.465,12.35 10.305,12.22 C10.135,12.09 9.935,11.99 9.695,11.91 C9.895,11.82 10.065,11.71 10.215,11.58 C10.365,11.45 10.485,11.31 10.585,11.16 C10.685,11.01 10.755,10.86 10.805,10.7 C10.855,10.54 10.875,10.38 10.875,10.22 C10.875,9.86 10.815,9.54 10.695,9.26 C10.575,8.98 10.405,8.75 10.185,8.57 C9.985,8.38 9.715,8.24 9.415,8.14 C9.105,8.05 8.765,8 8.395,8 C8.035,8 7.705,8.05 7.395,8.16 C7.095,8.27 6.825,8.42 6.605,8.61 C6.395,8.8 6.225,9.02 6.095,9.28 C5.975,9.54 5.915,9.82 5.915,10.13 L7.215,10.13 C7.215,9.96 7.245,9.81 7.305,9.68 C7.365,9.55 7.445,9.43 7.555,9.34 C7.665,9.25 7.785,9.17 7.935,9.12 C8.085,9.07 8.235,9.04 8.415,9.04 C8.815,9.04 9.115,9.14 9.305,9.35 C9.495,9.55 9.595,9.84 9.595,10.21 C9.595,10.39 9.565,10.55 9.515,10.7 C9.465,10.85 9.375,10.97 9.265,11.07 C9.155,11.17 9.015,11.25 8.855,11.31 C8.695,11.37 8.495,11.4 8.275,11.4 L7.505,11.4 L7.505,12.43 L8.275,12.43 C8.495,12.43 8.695,12.45 8.875,12.5 C9.055,12.55 9.205,12.63 9.325,12.73 C9.445,12.84 9.545,12.97 9.615,13.13 C9.685,13.29 9.715,13.48 9.715,13.7 C9.715,14.11 9.595,14.42 9.365,14.63 C9.135,14.86 8.815,14.96 8.415,14.96 Z M16.965,9.04 C16.645,8.71 16.265,8.45 15.825,8.27 C15.385,8.09 14.895,8 14.355,8 L11.995,8 L11.995,16 L14.295,16 C14.845,16 15.355,15.91 15.805,15.73 C16.255,15.55 16.645,15.3 16.965,14.97 C17.285,14.64 17.535,14.24 17.705,13.78 C17.875,13.31 17.965,12.79 17.965,12.21 L17.965,11.81 C17.965,11.23 17.875,10.71 17.705,10.24 C17.535,9.77 17.285,9.37 16.965,9.04 Z M16.575,12.2 C16.575,12.62 16.525,12.99 16.435,13.33 C16.335,13.66 16.195,13.95 16.005,14.18 C15.815,14.41 15.575,14.59 15.295,14.71 C15.005,14.83 14.675,14.89 14.305,14.89 L13.395,14.89 L13.395,9.12 L14.365,9.12 C15.085,9.12 15.635,9.35 16.005,9.81 C16.385,10.27 16.575,10.93 16.575,11.8 L16.575,12.2 Z M12.005,0 L11.345,0.03 L15.155,3.84 L16.485,2.51 C19.755,4.06 22.095,7.23 22.445,10.99 L23.945,10.99 C23.445,4.84 18.295,0 12.005,0 Z" id="path-1"></path>
    </defs>
    <g id="icon/action/3d_rotation_24px" stroke="none" stroke-width="1" fill="none" fill-rule="evenodd">
        <mask id="mask-2" fill="white">
            <use xlink:href="#path-1"></use>
        </mask>
        <g fill-rule="nonzero"></g>
        <g id="✱-/-Color-/-Icons-/-Black-/-Inactive" mask="url(#mask-2)" fill="#000000" fill-opacity="0.54">
            <rect id="Rectangle" x="0" y="0" width="24" height="24"></rect>
        </g>
    </g>
</svg>