<?xml version="1.0" encoding="UTF-8"?>
<svg width="24px" height="24px" viewBox="0 0 24 24" version="1.1" xmlns="http://www.w3.org/2000/svg" xmlns:xlink="http://www.w3.org/1999/xlink">
    <!-- Generator: Sketch 50 (54983) - http://www.bohemiancoding.com/sketch -->
    <title>icon/action/accessibility_new_24px_sharp</title>
    <desc>Created with Sketch.</desc>
    <defs>
        <path d="M20.5,6 C17.89,6.7 14.83,7 12,7 C9.17,7 6.11,6.7 3.5,6 L3,8 C4.86,8.5 7,8.83 9,9 L9,22 L11,22 L11,16 L13,16 L13,22 L15,22 L15,9 C17,8.83 19.14,8.5 21,8 L20.5,6 Z M12,6 C13.1,6 14,5.1 14,4 C14,2.9 13.1,2 12,2 C10.9,2 10,2.9 10,4 C10,5.1 10.9,6 12,6 Z" id="path-1"></path>
    </defs>
    <g id="icon/action/accessibility_new_24px" stroke="none" stroke-width="1" fill="none" fill-rule="evenodd">
        <mask id="mask-2" fill="white">
            <use xlink:href="#path-1"></use>
        </mask>
        <g fill-rule="nonzero"></g>
        <g id="✱-/-Color-/-Icons-/-Black-/-Inactive" mask="url(#mask-2)" fill="#000000" fill-opacity="0.54">
            <rect id="Rectangle" x="0" y="0" width="24" height="24"></rect>
        </g>
    </g>
</svg>