<?xml version="1.0" encoding="UTF-8"?>
<svg width="24px" height="24px" viewBox="0 0 24 24" version="1.1" xmlns="http://www.w3.org/2000/svg" xmlns:xlink="http://www.w3.org/1999/xlink">
    <!-- Generator: Sketch 50 (54983) - http://www.bohemiancoding.com/sketch -->
    <title>icon/action/account_balance_wallet_24px_sharp</title>
    <desc>Created with Sketch.</desc>
    <defs>
        <path d="M20.5,18 L20.5,21 L2.5,21 L2.5,3 L20.5,3 L20.5,6 L9.5,6 L9.5,18 L20.5,18 Z M11.5,16 L21.5,16 L21.5,8 L11.5,8 L11.5,16 Z M15.5,13.5 C14.67,13.5 14,12.83 14,12 C14,11.17 14.67,10.5 15.5,10.5 C16.33,10.5 17,11.17 17,12 C17,12.83 16.33,13.5 15.5,13.5 Z" id="path-1"></path>
    </defs>
    <g id="icon/action/account_balance_wallet_24px" stroke="none" stroke-width="1" fill="none" fill-rule="evenodd">
        <mask id="mask-2" fill="white">
            <use xlink:href="#path-1"></use>
        </mask>
        <g fill-rule="nonzero"></g>
        <g id="✱-/-Color-/-Icons-/-Black-/-Inactive" mask="url(#mask-2)" fill="#000000" fill-opacity="0.54">
            <rect id="Rectangle" x="0" y="0" width="24" height="24"></rect>
        </g>
    </g>
</svg>