<?xml version="1.0" encoding="UTF-8"?>
<svg width="24px" height="24px" viewBox="0 0 24 24" version="1.1" xmlns="http://www.w3.org/2000/svg" xmlns:xlink="http://www.w3.org/1999/xlink">
    <!-- Generator: Sketch 50 (54983) - http://www.bohemiancoding.com/sketch -->
    <title>icon/action/all_inbox_24px_sharp</title>
    <desc>Created with Sketch.</desc>
    <defs>
        <path d="M21,3 L3,3 L3,14 L21,14 L21,3 Z M19,9 L15,9 C15,10.62 13.62,12 12,12 C10.38,12 9,10.62 9,9 L5,9 L5,5 L19,5 L19,9 Z M15,16 L21,16 L21,21 L3,21 L3,16 L9,16 C9,17.66 10.34,19 12,19 C13.66,19 15,17.66 15,16 Z" id="path-1"></path>
    </defs>
    <g id="icon/action/all_inbox_24px" stroke="none" stroke-width="1" fill="none" fill-rule="evenodd">
        <mask id="mask-2" fill="white">
            <use xlink:href="#path-1"></use>
        </mask>
        <g fill-rule="nonzero"></g>
        <g id="✱-/-Color-/-Icons-/-Black-/-Inactive" mask="url(#mask-2)" fill="#000000" fill-opacity="0.54">
            <rect id="Rectangle" x="0" y="0" width="24" height="24"></rect>
        </g>
    </g>
</svg>