<?xml version="1.0" encoding="UTF-8"?>
<svg width="24px" height="24px" viewBox="0 0 24 24" version="1.1" xmlns="http://www.w3.org/2000/svg" xmlns:xlink="http://www.w3.org/1999/xlink">
    <!-- Generator: Sketch 50 (54983) - http://www.bohemiancoding.com/sketch -->
    <title>icon/action/card_travel_24px_sharp</title>
    <desc>Created with Sketch.</desc>
    <defs>
        <path d="M22,6.5 L17,6.5 L17,4.5 C17,3.4 16.1,2.5 15,2.5 L9,2.5 C7.9,2.5 7,3.4 7,4.5 L7,6.5 L2,6.5 L2,21.5 L22,21.5 L22,6.5 Z M9,4.5 L15,4.5 L15,6.5 L9,6.5 L9,4.5 Z M20,19.5 L4,19.5 L4,17.5 L20,17.5 L20,19.5 Z M20,14.5 L4,14.5 L4,8.5 L7,8.5 L7,10.5 L9,10.5 L9,8.5 L15,8.5 L15,10.5 L17,10.5 L17,8.5 L20,8.5 L20,14.5 Z" id="path-1"></path>
    </defs>
    <g id="icon/action/card_travel_24px" stroke="none" stroke-width="1" fill="none" fill-rule="evenodd">
        <mask id="mask-2" fill="white">
            <use xlink:href="#path-1"></use>
        </mask>
        <g fill-rule="nonzero"></g>
        <g id="✱-/-Color-/-Icons-/-Black-/-Inactive" mask="url(#mask-2)" fill="#000000" fill-opacity="0.54">
            <rect id="Rectangle" x="0" y="0" width="24" height="24"></rect>
        </g>
    </g>
</svg>