<?xml version="1.0" encoding="UTF-8"?>
<svg width="24px" height="24px" viewBox="0 0 24 24" version="1.1" xmlns="http://www.w3.org/2000/svg" xmlns:xlink="http://www.w3.org/1999/xlink">
    <!-- Generator: Sketch 50 (54983) - http://www.bohemiancoding.com/sketch -->
    <title>icon/action/contact_support_24px_sharp</title>
    <desc>Created with Sketch.</desc>
    <defs>
        <path d="M12,2 C7.31,2 3.5,5.81 3.5,10.5 C3.5,15.19 7.31,19 12,19 L12.5,19 L12.5,22 C17.36,19.66 20.5,15 20.5,10.5 C20.5,5.81 16.69,2 12,2 Z M13,16.5 L11,16.5 L11,14.5 L13,14.5 L13,16.5 Z M13,13 L11,13 C11,9.75 14,10 14,8 C14,6.9 13.1,6 12,6 C10.9,6 10,6.9 10,8 L8,8 C8,5.79 9.79,4 12,4 C14.21,4 16,5.79 16,8 C16,10.5 13,10.75 13,13 Z" id="path-1"></path>
    </defs>
    <g id="icon/action/contact_support_24px" stroke="none" stroke-width="1" fill="none" fill-rule="evenodd">
        <mask id="mask-2" fill="white">
            <use xlink:href="#path-1"></use>
        </mask>
        <g fill-rule="nonzero"></g>
        <g id="✱-/-Color-/-Icons-/-Black-/-Inactive" mask="url(#mask-2)" fill="#000000" fill-opacity="0.54">
            <rect id="Rectangle" x="0" y="0" width="24" height="24"></rect>
        </g>
    </g>
</svg>