<?xml version="1.0" encoding="UTF-8"?>
<svg width="24px" height="24px" viewBox="0 0 24 24" version="1.1" xmlns="http://www.w3.org/2000/svg" xmlns:xlink="http://www.w3.org/1999/xlink">
    <!-- Generator: Sketch 50 (54983) - http://www.bohemiancoding.com/sketch -->
    <title>icon/action/dns_24px_sharp</title>
    <desc>Created with Sketch.</desc>
    <defs>
        <path d="M21,13 L3,13 L3,21 L21,21 L21,13 Z M7,19 C5.9,19 5,18.1 5,17 C5,15.9 5.9,15 7,15 C8.1,15 9,15.9 9,17 C9,18.1 8.1,19 7,19 Z M21,3 L3,3 L3,11 L21,11 L21,3 Z M7,9 C5.9,9 5,8.1 5,7 C5,5.9 5.9,5 7,5 C8.1,5 9,5.9 9,7 C9,8.1 8.1,9 7,9 Z" id="path-1"></path>
    </defs>
    <g id="icon/action/dns_24px" stroke="none" stroke-width="1" fill="none" fill-rule="evenodd">
        <mask id="mask-2" fill="white">
            <use xlink:href="#path-1"></use>
        </mask>
        <g fill-rule="nonzero"></g>
        <g id="✱-/-Color-/-Icons-/-Black-/-Inactive" mask="url(#mask-2)" fill="#000000" fill-opacity="0.54">
            <rect id="Rectangle" x="0" y="0" width="24" height="24"></rect>
        </g>
    </g>
</svg>