<?xml version="1.0" encoding="UTF-8"?>
<svg width="24px" height="24px" viewBox="0 0 24 24" version="1.1" xmlns="http://www.w3.org/2000/svg" xmlns:xlink="http://www.w3.org/1999/xlink">
    <!-- Generator: Sketch 50 (54983) - http://www.bohemiancoding.com/sketch -->
    <title>icon/action/donut_small_24px_sharp</title>
    <desc>Created with Sketch.</desc>
    <defs>
        <path d="M13.025,9.18 C13.875,9.48 14.535,10.15 14.845,11 L21.975,11 C21.505,6.28 17.745,2.52 13.025,2.05 L13.025,9.18 Z M11.025,14.82 C9.865,14.4 9.025,13.3 9.025,12 C9.025,10.7 9.865,9.6 11.025,9.18 L11.025,2.05 C5.975,2.55 2.025,6.81 2.025,12 C2.025,17.19 5.975,21.45 11.025,21.95 L11.025,14.82 Z M14.845,13 C14.545,13.85 13.875,14.51 13.025,14.82 L13.025,21.95 C17.745,21.48 21.505,17.72 21.975,13 L14.845,13 Z" id="path-1"></path>
    </defs>
    <g id="icon/action/donut_small_24px" stroke="none" stroke-width="1" fill="none" fill-rule="evenodd">
        <mask id="mask-2" fill="white">
            <use xlink:href="#path-1"></use>
        </mask>
        <g fill-rule="nonzero"></g>
        <g id="✱-/-Color-/-Icons-/-Black-/-Inactive" mask="url(#mask-2)" fill="#000000" fill-opacity="0.54">
            <rect id="Rectangle" x="0" y="0" width="24" height="24"></rect>
        </g>
    </g>
</svg>