<?xml version="1.0" encoding="UTF-8"?>
<svg width="24px" height="24px" viewBox="0 0 24 24" version="1.1" xmlns="http://www.w3.org/2000/svg" xmlns:xlink="http://www.w3.org/1999/xlink">
    <!-- Generator: Sketch 50 (54983) - http://www.bohemiancoding.com/sketch -->
    <title>icon/action/explore_off_24px_sharp</title>
    <desc>Created with Sketch.</desc>
    <defs>
        <path d="M18,6 L15.09,12.26 L20.34,17.51 C21.39,15.93 22,14.04 22,12 C22,6.48 17.52,2 12,2 C9.96,2 8.07,2.61 6.49,3.66 L11.74,8.91 L18,6 Z M2.1,4.93 L3.66,6.49 C2.61,8.07 2,9.96 2,12 C2,17.52 6.48,22 12,22 C14.04,22 15.93,21.39 17.51,20.34 L19.07,21.9 L20.48,20.49 L3.51,3.51 L2.1,4.93 Z M8.91,11.74 L12.26,15.09 L6,18 L8.91,11.74 Z" id="path-1"></path>
    </defs>
    <g id="icon/action/explore_off_24px" stroke="none" stroke-width="1" fill="none" fill-rule="evenodd">
        <mask id="mask-2" fill="white">
            <use xlink:href="#path-1"></use>
        </mask>
        <g fill-rule="nonzero"></g>
        <g id="✱-/-Color-/-Icons-/-Black-/-Inactive" mask="url(#mask-2)" fill="#000000" fill-opacity="0.54">
            <rect id="Rectangle" x="0" y="0" width="24" height="24"></rect>
        </g>
    </g>
</svg>