<?xml version="1.0" encoding="UTF-8"?>
<svg width="24px" height="24px" viewBox="0 0 24 24" version="1.1" xmlns="http://www.w3.org/2000/svg" xmlns:xlink="http://www.w3.org/1999/xlink">
    <!-- Generator: Sketch 50 (54983) - http://www.bohemiancoding.com/sketch -->
    <title>icon/action/extension_24px_sharp</title>
    <desc>Created with Sketch.</desc>
    <defs>
        <path d="M19.8585112,11.5014888 L18.4985112,11.5014888 L18.4985112,5.50148882 L12.4985112,5.50148882 L12.4985112,4.14148882 C12.4985112,2.83148882 11.5585112,1.64148882 10.2585112,1.51148882 C8.75851118,1.36148882 7.49851118,2.53148882 7.49851118,4.00148882 L7.49851118,5.50148882 L1.50851118,5.50148882 L1.50851118,11.3014888 L2.89851118,11.3014888 C4.20851118,11.3014888 5.39851118,12.1814888 5.64851118,13.4614888 C5.97851118,15.1814888 4.66851118,16.7014888 2.99851118,16.7014888 L1.49851118,16.7014888 L1.49851118,22.5014888 L7.29851118,22.5014888 L7.29851118,21.1014888 C7.29851118,19.7914888 8.17851118,18.6014888 9.45851118,18.3514888 C11.1785112,18.0214888 12.6985112,19.3314888 12.6985112,21.0014888 L12.6985112,22.5014888 L18.4985112,22.5014888 L18.4985112,16.5014888 L19.9985112,16.5014888 C21.4685112,16.5014888 22.6385112,15.2414888 22.4885112,13.7414888 C22.3585112,12.4414888 21.1585112,11.5014888 19.8585112,11.5014888 Z" id="path-1"></path>
    </defs>
    <g id="icon/action/extension_24px" stroke="none" stroke-width="1" fill="none" fill-rule="evenodd">
        <mask id="mask-2" fill="white">
            <use xlink:href="#path-1"></use>
        </mask>
        <g fill-rule="nonzero"></g>
        <g id="✱-/-Color-/-Icons-/-Black-/-Inactive" mask="url(#mask-2)" fill="#000000" fill-opacity="0.54">
            <rect id="Rectangle" x="0" y="0" width="24" height="24"></rect>
        </g>
    </g>
</svg>