<?xml version="1.0" encoding="UTF-8"?>
<svg width="24px" height="24px" viewBox="0 0 24 24" version="1.1" xmlns="http://www.w3.org/2000/svg" xmlns:xlink="http://www.w3.org/1999/xlink">
    <!-- Generator: Sketch 50 (54983) - http://www.bohemiancoding.com/sketch -->
    <title>icon/action/favorite_border_24px_sharp</title>
    <desc>Created with Sketch.</desc>
    <defs>
        <path d="M16.5,2.825 C14.76,2.825 13.09,3.635 12,4.915 C10.91,3.635 9.24,2.825 7.5,2.825 C4.42,2.825 2,5.245 2,8.325 C2,12.105 5.4,15.185 10.55,19.865 L12,21.175 L13.45,19.855 C18.6,15.185 22,12.105 22,8.325 C22,5.245 19.58,2.825 16.5,2.825 Z M12.1,18.375 L12,18.475 L11.9,18.375 C7.14,14.065 4,11.215 4,8.325 C4,6.325 5.5,4.825 7.5,4.825 C9.04,4.825 10.54,5.815 11.07,7.185 L12.94,7.185 C13.46,5.815 14.96,4.825 16.5,4.825 C18.5,4.825 20,6.325 20,8.325 C20,11.215 16.86,14.065 12.1,18.375 Z" id="path-1"></path>
    </defs>
    <g id="icon/action/favorite_border_24px" stroke="none" stroke-width="1" fill="none" fill-rule="evenodd">
        <mask id="mask-2" fill="white">
            <use xlink:href="#path-1"></use>
        </mask>
        <g fill-rule="nonzero"></g>
        <g id="✱-/-Color-/-Icons-/-Black-/-Inactive" mask="url(#mask-2)" fill="#000000" fill-opacity="0.54">
            <rect id="Rectangle" x="0" y="0" width="24" height="24"></rect>
        </g>
    </g>
</svg>