<?xml version="1.0" encoding="UTF-8"?>
<svg width="24px" height="24px" viewBox="0 0 24 24" version="1.1" xmlns="http://www.w3.org/2000/svg" xmlns:xlink="http://www.w3.org/1999/xlink">
    <!-- Generator: Sketch 50 (54983) - http://www.bohemiancoding.com/sketch -->
    <title>icon/action/find_in_page_24px_sharp</title>
    <desc>Created with Sketch.</desc>
    <defs>
        <path d="M20,19.59 L20,8 L14,2 L4,2 L4,22 L19.57,21.98 L14.76,17.17 C13.96,17.69 13.02,18 12,18 C9.24,18 7,15.76 7,13 C7,10.24 9.24,8 12,8 C14.76,8 17,10.24 17,13 C17,14.02 16.69,14.96 16.17,15.75 L20,19.59 Z M9,13 C9,14.66 10.34,16 12,16 C13.66,16 15,14.66 15,13 C15,11.34 13.66,10 12,10 C10.34,10 9,11.34 9,13 Z" id="path-1"></path>
    </defs>
    <g id="icon/action/find_in_page_24px" stroke="none" stroke-width="1" fill="none" fill-rule="evenodd">
        <mask id="mask-2" fill="white">
            <use xlink:href="#path-1"></use>
        </mask>
        <g fill-rule="nonzero"></g>
        <g id="✱-/-Color-/-Icons-/-Black-/-Inactive" mask="url(#mask-2)" fill="#000000" fill-opacity="0.54">
            <rect id="Rectangle" x="0" y="0" width="24" height="24"></rect>
        </g>
    </g>
</svg>