<?xml version="1.0" encoding="UTF-8"?>
<svg width="24px" height="24px" viewBox="0 0 24 24" version="1.1" xmlns="http://www.w3.org/2000/svg" xmlns:xlink="http://www.w3.org/1999/xlink">
    <!-- Generator: Sketch 50 (54983) - http://www.bohemiancoding.com/sketch -->
    <title>icon/action/fingerprint_24px_sharp</title>
    <desc>Created with Sketch.</desc>
    <defs>
        <path d="M17.815,4.47 C17.735,4.47 17.655,4.45 17.585,4.41 C15.665,3.42 14.005,3 12.015,3 C10.035,3 8.155,3.47 6.445,4.41 C6.205,4.54 5.905,4.45 5.765,4.21 C5.635,3.97 5.725,3.66 5.965,3.53 C7.825,2.52 9.865,2 12.015,2 C14.145,2 16.005,2.47 18.045,3.52 C18.295,3.65 18.385,3.95 18.255,4.19 C18.165,4.37 17.995,4.47 17.815,4.47 Z M3.505,9.72 C3.405,9.72 3.305,9.69 3.215,9.63 C2.985,9.47 2.935,9.16 3.095,8.93 C4.085,7.53 5.345,6.43 6.845,5.66 C9.985,4.04 14.005,4.03 17.155,5.65 C18.655,6.42 19.915,7.51 20.905,8.9 C21.065,9.12 21.015,9.44 20.785,9.6 C20.555,9.76 20.245,9.71 20.085,9.48 C19.185,8.22 18.045,7.23 16.695,6.54 C13.825,5.07 10.155,5.07 7.295,6.55 C5.935,7.25 4.795,8.25 3.895,9.51 C3.815,9.65 3.665,9.72 3.505,9.72 Z M9.755,21.79 C9.625,21.79 9.495,21.74 9.405,21.64 C8.535,20.77 8.065,20.21 7.395,19 C6.705,17.77 6.345,16.27 6.345,14.66 C6.345,11.69 8.885,9.27 12.005,9.27 C15.125,9.27 17.665,11.69 17.665,14.66 C17.665,14.94 17.445,15.16 17.165,15.16 C16.885,15.16 16.665,14.94 16.665,14.66 C16.665,12.24 14.575,10.27 12.005,10.27 C9.435,10.27 7.345,12.24 7.345,14.66 C7.345,16.1 7.665,17.43 8.275,18.51 C8.915,19.66 9.355,20.15 10.125,20.93 C10.315,21.13 10.315,21.44 10.125,21.64 C10.015,21.74 9.885,21.79 9.755,21.79 Z M16.925,19.94 C15.735,19.94 14.685,19.64 13.825,19.05 C12.335,18.04 11.445,16.4 11.445,14.66 C11.445,14.38 11.665,14.16 11.945,14.16 C12.225,14.16 12.445,14.38 12.445,14.66 C12.445,16.07 13.165,17.4 14.385,18.22 C15.095,18.7 15.925,18.93 16.925,18.93 C17.165,18.93 17.565,18.9 17.965,18.83 C18.235,18.78 18.495,18.96 18.545,19.24 C18.595,19.51 18.415,19.77 18.135,19.82 C17.565,19.93 17.065,19.94 16.925,19.94 Z M14.915,22 C14.875,22 14.825,21.99 14.785,21.98 C13.195,21.54 12.155,20.95 11.065,19.88 C9.665,18.49 8.895,16.64 8.895,14.66 C8.895,13.04 10.275,11.72 11.975,11.72 C13.675,11.72 15.055,13.04 15.055,14.66 C15.055,15.73 15.985,16.6 17.135,16.6 C18.285,16.6 19.215,15.73 19.215,14.66 C19.215,10.89 15.965,7.83 11.965,7.83 C9.125,7.83 6.525,9.41 5.355,11.86 C4.965,12.67 4.765,13.62 4.765,14.66 C4.765,15.44 4.835,16.67 5.435,18.27 C5.535,18.53 5.405,18.82 5.145,18.91 C4.885,19.01 4.595,18.87 4.505,18.62 C4.015,17.31 3.775,16.01 3.775,14.66 C3.775,13.46 4.005,12.37 4.455,11.42 C5.785,8.63 8.735,6.82 11.965,6.82 C16.515,6.82 20.215,10.33 20.215,14.65 C20.215,16.27 18.835,17.59 17.135,17.59 C15.435,17.59 14.055,16.27 14.055,14.65 C14.055,13.58 13.125,12.71 11.975,12.71 C10.825,12.71 9.895,13.58 9.895,14.65 C9.895,16.36 10.555,17.96 11.765,19.16 C12.715,20.1 13.625,20.62 15.035,21.01 C15.305,21.08 15.455,21.36 15.385,21.62 C15.335,21.85 15.125,22 14.915,22 Z" id="path-1"></path>
    </defs>
    <g id="icon/action/fingerprint_24px" stroke="none" stroke-width="1" fill="none" fill-rule="evenodd">
        <mask id="mask-2" fill="white">
            <use xlink:href="#path-1"></use>
        </mask>
        <g fill-rule="nonzero"></g>
        <g id="✱-/-Color-/-Icons-/-Black-/-Inactive" mask="url(#mask-2)" fill="#000000" fill-opacity="0.54">
            <rect id="Rectangle" x="0" y="0" width="24" height="24"></rect>
        </g>
    </g>
</svg>