<?xml version="1.0" encoding="UTF-8"?>
<svg width="24px" height="24px" viewBox="0 0 24 24" version="1.1" xmlns="http://www.w3.org/2000/svg" xmlns:xlink="http://www.w3.org/1999/xlink">
    <!-- Generator: Sketch 50 (54983) - http://www.bohemiancoding.com/sketch -->
    <title>icon/action/flip_to_back_24px_sharp</title>
    <desc>Created with Sketch.</desc>
    <defs>
        <path d="M9,7 L7,7 L7,9 L9,9 L9,7 Z M9,11 L7,11 L7,13 L9,13 L9,11 Z M13,15 L11,15 L11,17 L13,17 L13,15 Z M13,3 L11,3 L11,5 L13,5 L13,3 Z M9,3 L7,3 L7,5 L9,5 L9,3 Z M21,3 L19,3 L19,5 L21,5 L21,3 Z M21,15 L19,15 L19,17 L21,17 L21,15 Z M9,15 L7,15 L7,17 L9,17 L9,15 Z M19,13 L21,13 L21,11 L19,11 L19,13 Z M19,9 L21,9 L21,7 L19,7 L19,9 Z M5,7 L3,7 L3,21 L17,21 L17,19 L5,19 L5,7 Z M15,5 L17,5 L17,3 L15,3 L15,5 Z M15,17 L17,17 L17,15 L15,15 L15,17 Z" id="path-1"></path>
    </defs>
    <g id="icon/action/flip_to_back_24px" stroke="none" stroke-width="1" fill="none" fill-rule="evenodd">
        <mask id="mask-2" fill="white">
            <use xlink:href="#path-1"></use>
        </mask>
        <g fill-rule="nonzero"></g>
        <g id="✱-/-Color-/-Icons-/-Black-/-Inactive" mask="url(#mask-2)" fill="#000000" fill-opacity="0.54">
            <rect id="Rectangle" x="0" y="0" width="24" height="24"></rect>
        </g>
    </g>
</svg>