<?xml version="1.0" encoding="UTF-8"?>
<svg width="24px" height="24px" viewBox="0 0 24 24" version="1.1" xmlns="http://www.w3.org/2000/svg" xmlns:xlink="http://www.w3.org/1999/xlink">
    <!-- Generator: Sketch 50 (54983) - http://www.bohemiancoding.com/sketch -->
    <title>icon/action/http_24px_sharp</title>
    <desc>Created with Sketch.</desc>
    <defs>
        <path d="M4.5,11 L2.5,11 L2.5,9 L1,9 L1,15 L2.5,15 L2.5,12.5 L4.5,12.5 L4.5,15 L6,15 L6,9 L4.5,9 L4.5,11 Z M7,10.5 L8.5,10.5 L8.5,15 L10,15 L10,10.5 L11.5,10.5 L11.5,9 L7,9 L7,10.5 Z M12.5,10.5 L14,10.5 L14,15 L15.5,15 L15.5,10.5 L17,10.5 L17,9 L12.5,9 L12.5,10.5 Z M23,9 L18,9 L18,15 L19.5,15 L19.5,13 L23,13 L23,9 Z M21.5,11.5 L19.5,11.5 L19.5,10.5 L21.5,10.5 L21.5,11.5 Z" id="path-1"></path>
    </defs>
    <g id="icon/action/http_24px" stroke="none" stroke-width="1" fill="none" fill-rule="evenodd">
        <mask id="mask-2" fill="white">
            <use xlink:href="#path-1"></use>
        </mask>
        <g fill-rule="nonzero"></g>
        <g id="✱-/-Color-/-Icons-/-Black-/-Inactive" mask="url(#mask-2)" fill="#000000" fill-opacity="0.54">
            <rect id="Rectangle" x="0" y="0" width="24" height="24"></rect>
        </g>
    </g>
</svg>