<?xml version="1.0" encoding="UTF-8"?>
<svg width="24px" height="24px" viewBox="0 0 24 24" version="1.1" xmlns="http://www.w3.org/2000/svg" xmlns:xlink="http://www.w3.org/1999/xlink">
    <!-- Generator: Sketch 50 (54983) - http://www.bohemiancoding.com/sketch -->
    <title>icon/action/important_devices_24px_sharp</title>
    <desc>Created with Sketch.</desc>
    <defs>
        <path d="M24,11.01 L17,11 L17,22 L24,22 L24,11.01 Z M23,20 L18,20 L18,13 L23,13 L23,20 Z M22,2 L0,2 L0,18 L9,18 L9,20 L7,20 L7,22 L15,22 L15,20 L13,20 L13,18 L15,18 L15,16 L2,16 L2,4 L20,4 L20,9 L22,9 L22,2 Z M11.97,9 L11,6 L10.03,9 L7,9 L9.47,10.76 L8.53,13.67 L11,11.87 L13.47,13.67 L12.53,10.76 L15,9 L11.97,9 Z" id="path-1"></path>
    </defs>
    <g id="icon/action/important_devices_24px" stroke="none" stroke-width="1" fill="none" fill-rule="evenodd">
        <mask id="mask-2" fill="white">
            <use xlink:href="#path-1"></use>
        </mask>
        <g fill-rule="nonzero"></g>
        <g id="✱-/-Color-/-Icons-/-Black-/-Inactive" mask="url(#mask-2)" fill="#000000" fill-opacity="0.54">
            <rect id="Rectangle" x="0" y="0" width="24" height="24"></rect>
        </g>
    </g>
</svg>