<?xml version="1.0" encoding="UTF-8"?>
<svg width="24px" height="24px" viewBox="0 0 24 24" version="1.1" xmlns="http://www.w3.org/2000/svg" xmlns:xlink="http://www.w3.org/1999/xlink">
    <!-- Generator: Sketch 50 (54983) - http://www.bohemiancoding.com/sketch -->
    <title>icon/action/open_with_24px_sharp</title>
    <desc>Created with Sketch.</desc>
    <defs>
        <path d="M10,9 L14,9 L14,6 L17,6 L12,1 L7,6 L10,6 L10,9 Z M9,10 L6,10 L6,7 L1,12 L6,17 L6,14 L9,14 L9,10 Z M23,12 L18,7 L18,10 L15,10 L15,14 L18,14 L18,17 L23,12 Z M14,15 L10,15 L10,18 L7,18 L12,23 L17,18 L14,18 L14,15 Z" id="path-1"></path>
    </defs>
    <g id="icon/action/open_with_24px" stroke="none" stroke-width="1" fill="none" fill-rule="evenodd">
        <mask id="mask-2" fill="white">
            <use xlink:href="#path-1"></use>
        </mask>
        <g fill-rule="nonzero"></g>
        <g id="✱-/-Color-/-Icons-/-Black-/-Inactive" mask="url(#mask-2)" fill="#000000" fill-opacity="0.54">
            <rect id="Rectangle" x="0" y="0" width="24" height="24"></rect>
        </g>
    </g>
</svg>