<?xml version="1.0" encoding="UTF-8"?>
<svg width="24px" height="24px" viewBox="0 0 24 24" version="1.1" xmlns="http://www.w3.org/2000/svg" xmlns:xlink="http://www.w3.org/1999/xlink">
    <!-- Generator: Sketch 50 (54983) - http://www.bohemiancoding.com/sketch -->
    <title>icon/action/perm_data_setting_24px_sharp</title>
    <desc>Created with Sketch.</desc>
    <defs>
        <path d="M19.0593922,11.5 C19.3993922,11.5 19.7293922,11.53 20.0593922,11.57 L20.0693922,0 L0.0693922247,20 L11.6293922,20 C11.5893922,19.67 11.5593922,19.34 11.5593922,19 C11.5593922,14.86 14.9193922,11.5 19.0593922,11.5 Z M22.7693922,19.49 C22.7893922,19.33 22.8093922,19.17 22.8093922,19 C22.8093922,18.83 22.7993922,18.67 22.7693922,18.51 L23.8293922,17.68 C23.9193922,17.6 23.9493922,17.47 23.8893922,17.36 L22.8893922,15.63 C22.8293922,15.52 22.6993922,15.48 22.5793922,15.52 L21.3393922,16.02 C21.0793922,15.82 20.7993922,15.65 20.4893922,15.53 L20.2993922,14.21 C20.2893922,14.09 20.1793922,14 20.0593922,14 L18.0593922,14 C17.9393922,14 17.8293922,14.09 17.8093922,14.21 L17.6193922,15.53 C17.3193922,15.66 17.0293922,15.82 16.7693922,16.02 L15.5293922,15.52 C15.4193922,15.48 15.2893922,15.52 15.2193922,15.63 L14.2193922,17.36 C14.1593922,17.47 14.1793922,17.6 14.2793922,17.68 L15.3393922,18.51 C15.3193922,18.67 15.3093922,18.83 15.3093922,19 C15.3093922,19.17 15.3193922,19.33 15.3393922,19.49 L14.2793922,20.32 C14.1893922,20.4 14.1593922,20.53 14.2193922,20.64 L15.2193922,22.37 C15.2793922,22.48 15.4093922,22.52 15.5293922,22.48 L16.7693922,21.98 C17.0293922,22.18 17.3093922,22.35 17.6193922,22.47 L17.8093922,23.79 C17.8293922,23.91 17.9293922,24 18.0593922,24 L20.0593922,24 C20.1793922,24 20.2893922,23.91 20.3093922,23.79 L20.4993922,22.47 C20.7993922,22.34 21.0893922,22.18 21.3393922,21.98 L22.5893922,22.48 C22.6993922,22.52 22.8293922,22.48 22.8993922,22.37 L23.8993922,20.64 C23.9593922,20.53 23.9293922,20.4 23.8393922,20.32 L22.7693922,19.49 Z M19.0593922,20.5 C18.2293922,20.5 17.5593922,19.83 17.5593922,19 C17.5593922,18.17 18.2293922,17.5 19.0593922,17.5 C19.8893922,17.5 20.5593922,18.17 20.5593922,19 C20.5593922,19.83 19.8893922,20.5 19.0593922,20.5 Z" id="path-1"></path>
    </defs>
    <g id="icon/action/perm_data_setting_24px" stroke="none" stroke-width="1" fill="none" fill-rule="evenodd">
        <mask id="mask-2" fill="white">
            <use xlink:href="#path-1"></use>
        </mask>
        <g fill-rule="nonzero"></g>
        <g id="✱-/-Color-/-Icons-/-Black-/-Inactive" mask="url(#mask-2)" fill="#000000" fill-opacity="0.54">
            <rect id="Rectangle" x="0" y="0" width="24" height="24"></rect>
        </g>
    </g>
</svg>