<?xml version="1.0" encoding="UTF-8"?>
<svg width="24px" height="24px" viewBox="0 0 24 24" version="1.1" xmlns="http://www.w3.org/2000/svg" xmlns:xlink="http://www.w3.org/1999/xlink">
    <!-- Generator: Sketch 50 (54983) - http://www.bohemiancoding.com/sketch -->
    <title>icon/action/perm_camera_mic_24px_sharp</title>
    <desc>Created with Sketch.</desc>
    <defs>
        <path d="M22,5 L16.83,5 L15,3 L9,3 L7.17,5 L2,5 L2,21 L11,21 L11,18.91 C8.17,18.43 6,15.97 6,13 L8,13 C8,15.21 9.79,17 12,17 C14.21,17 16,15.21 16,13 L18,13 C18,15.97 15.83,18.43 13,18.91 L13,21 L22,21 L22,5 Z M14,13 C14,14.1 13.1,15 12,15 C10.9,15 10,14.1 10,13 L10,9 C10,7.9 10.9,7 12,7 C13.1,7 14,7.9 14,9 L14,13 Z" id="path-1"></path>
    </defs>
    <g id="icon/action/perm_camera_mic_24px" stroke="none" stroke-width="1" fill="none" fill-rule="evenodd">
        <mask id="mask-2" fill="white">
            <use xlink:href="#path-1"></use>
        </mask>
        <g fill-rule="nonzero"></g>
        <g id="✱-/-Color-/-Icons-/-Black-/-Inactive" mask="url(#mask-2)" fill="#000000" fill-opacity="0.54">
            <rect id="Rectangle" x="0" y="0" width="24" height="24"></rect>
        </g>
    </g>
</svg>