<?xml version="1.0" encoding="UTF-8"?>
<svg width="24px" height="24px" viewBox="0 0 24 24" version="1.1" xmlns="http://www.w3.org/2000/svg" xmlns:xlink="http://www.w3.org/1999/xlink">
    <!-- Generator: Sketch 50 (54983) - http://www.bohemiancoding.com/sketch -->
    <title>icon/action/record_voice_over_24px_sharp</title>
    <desc>Created with Sketch.</desc>
    <defs>
        <path d="M9.0006244,5.5 C6.7914854,5.5 5.0006244,7.290861 5.0006244,9.5 C5.0006244,11.709139 6.7914854,13.5 9.0006244,13.5 C11.2097634,13.5 13.0006244,11.709139 13.0006244,9.5 C13.0006244,7.290861 11.2097634,5.5 9.0006244,5.5 Z M9.0006244,15.5 C6.3306244,15.5 1.0006244,16.84 1.0006244,19.5 L1.0006244,21.5 L17.0006244,21.5 L17.0006244,19.5 C17.0006244,16.84 11.6706244,15.5 9.0006244,15.5 Z M15.0806244,7.55 C15.9206244,8.73 15.9206244,10.26 15.0806244,11.44 L16.7606244,13.13 C18.7806244,11.11 18.7806244,8.06 16.7606244,5.86 L15.0806244,7.55 Z M20.0706244,2.5 L18.4406244,4.13 C21.2106244,7.15 21.2106244,11.69 18.4406244,14.87 L20.0706244,16.5 C23.9706244,12.61 23.9806244,6.55 20.0706244,2.5 Z" id="path-1"></path>
    </defs>
    <g id="icon/action/record_voice_over_24px" stroke="none" stroke-width="1" fill="none" fill-rule="evenodd">
        <mask id="mask-2" fill="white">
            <use xlink:href="#path-1"></use>
        </mask>
        <g fill-rule="nonzero"></g>
        <g id="✱-/-Color-/-Icons-/-Black-/-Inactive" mask="url(#mask-2)" fill="#000000" fill-opacity="0.54">
            <rect id="Rectangle" x="0" y="0" width="24" height="24"></rect>
        </g>
    </g>
</svg>