<?xml version="1.0" encoding="UTF-8"?>
<svg width="24px" height="24px" viewBox="0 0 24 24" version="1.1" xmlns="http://www.w3.org/2000/svg" xmlns:xlink="http://www.w3.org/1999/xlink">
    <!-- Generator: Sketch 50 (54983) - http://www.bohemiancoding.com/sketch -->
    <title>icon/action/redeem_24px_sharp</title>
    <desc>Created with Sketch.</desc>
    <defs>
        <path d="M22,6.5 L17.82,6.5 C17.93,6.19 18,5.85 18,5.5 C18,3.84 16.66,2.5 15,2.5 C13.95,2.5 13.04,3.04 12.5,3.85 L12,4.52 L11.5,3.84 C10.96,3.04 10.05,2.5 9,2.5 C7.34,2.5 6,3.84 6,5.5 C6,5.85 6.07,6.19 6.18,6.5 L2,6.5 L2,21.5 L22,21.5 L22,6.5 Z M15,4.5 C15.55,4.5 16,4.95 16,5.5 C16,6.05 15.55,6.5 15,6.5 C14.45,6.5 14,6.05 14,5.5 C14,4.95 14.45,4.5 15,4.5 Z M9,4.5 C9.55,4.5 10,4.95 10,5.5 C10,6.05 9.55,6.5 9,6.5 C8.45,6.5 8,6.05 8,5.5 C8,4.95 8.45,4.5 9,4.5 Z M20,19.5 L4,19.5 L4,17.5 L20,17.5 L20,19.5 Z M20,14.5 L4,14.5 L4,8.5 L9.08,8.5 L7,11.33 L8.62,12.5 L12,7.9 L15.38,12.5 L17,11.33 L14.92,8.5 L20,8.5 L20,14.5 Z" id="path-1"></path>
    </defs>
    <g id="icon/action/redeem_24px" stroke="none" stroke-width="1" fill="none" fill-rule="evenodd">
        <mask id="mask-2" fill="white">
            <use xlink:href="#path-1"></use>
        </mask>
        <g fill-rule="nonzero"></g>
        <g id="✱-/-Color-/-Icons-/-Black-/-Inactive" mask="url(#mask-2)" fill="#000000" fill-opacity="0.54">
            <rect id="Rectangle" x="0" y="0" width="24" height="24"></rect>
        </g>
    </g>
</svg>