<?xml version="1.0" encoding="UTF-8"?>
<svg width="24px" height="24px" viewBox="0 0 24 24" version="1.1" xmlns="http://www.w3.org/2000/svg" xmlns:xlink="http://www.w3.org/1999/xlink">
    <!-- Generator: Sketch 50 (54983) - http://www.bohemiancoding.com/sketch -->
    <title>icon/action/restore_page_24px_sharp</title>
    <desc>Created with Sketch.</desc>
    <defs>
        <path d="M14,2 L4,2 L4,22 L20,22 L20,8 L14,2 Z M12,18 C9.95,18 8.19,16.76 7.42,15 L9.13,15 C9.76,15.9 10.81,16.5 12,16.5 C13.93,16.5 15.5,14.93 15.5,13 C15.5,11.07 13.93,9.5 12,9.5 C10.65,9.5 9.48,10.28 8.9,11.4 L10.5,13 L6.5,13 L6.5,9 L7.8,10.3 C8.69,8.92 10.23,8 12,8 C14.76,8 17,10.24 17,13 C17,15.76 14.76,18 12,18 Z" id="path-1"></path>
    </defs>
    <g id="icon/action/restore_page_24px" stroke="none" stroke-width="1" fill="none" fill-rule="evenodd">
        <mask id="mask-2" fill="white">
            <use xlink:href="#path-1"></use>
        </mask>
        <g fill-rule="nonzero"></g>
        <g id="✱-/-Color-/-Icons-/-Black-/-Inactive" mask="url(#mask-2)" fill="#000000" fill-opacity="0.54">
            <rect id="Rectangle" x="0" y="0" width="24" height="24"></rect>
        </g>
    </g>
</svg>