<?xml version="1.0" encoding="UTF-8"?>
<svg width="24px" height="24px" viewBox="0 0 24 24" version="1.1" xmlns="http://www.w3.org/2000/svg" xmlns:xlink="http://www.w3.org/1999/xlink">
    <!-- Generator: Sketch 50 (54983) - http://www.bohemiancoding.com/sketch -->
    <title>icon/action/settings_ethernet_24px_sharp</title>
    <desc>Created with Sketch.</desc>
    <defs>
        <path d="M7.77,6.76 L6.23,5.48 L0.82,12 L6.23,18.52 L7.77,17.24 L3.42,12 L7.77,6.76 Z M7,13 L9,13 L9,11 L7,11 L7,13 Z M17,11 L15,11 L15,13 L17,13 L17,11 Z M11,13 L13,13 L13,11 L11,11 L11,13 Z M17.77,5.48 L16.23,6.76 L20.58,12 L16.23,17.24 L17.77,18.52 L23.18,12 L17.77,5.48 Z" id="path-1"></path>
    </defs>
    <g id="icon/action/settings_ethernet_24px" stroke="none" stroke-width="1" fill="none" fill-rule="evenodd">
        <mask id="mask-2" fill="white">
            <use xlink:href="#path-1"></use>
        </mask>
        <g fill-rule="nonzero"></g>
        <g id="✱-/-Color-/-Icons-/-Black-/-Inactive" mask="url(#mask-2)" fill="#000000" fill-opacity="0.54">
            <rect id="Rectangle" x="0" y="0" width="24" height="24"></rect>
        </g>
    </g>
</svg>