<?xml version="1.0" encoding="UTF-8"?>
<svg width="24px" height="24px" viewBox="0 0 24 24" version="1.1" xmlns="http://www.w3.org/2000/svg" xmlns:xlink="http://www.w3.org/1999/xlink">
    <!-- Generator: Sketch 50 (54983) - http://www.bohemiancoding.com/sketch -->
    <title>icon/action/settings_applications_24px_sharp</title>
    <desc>Created with Sketch.</desc>
    <defs>
        <path d="M19,3 L5,3 C3.89,3 3,3.9 3,5 L3,19 C3,20.1 3.89,21 5,21 L19,21 C20.11,21 21,20.1 21,19 L21,5 C21,3.9 20.11,3 19,3 Z M17.25,12 C17.25,12.24 17.23,12.47 17.2,12.71 L17.21,12.69 L18.68,13.85 C18.82,13.95 18.91,14.03 18.91,14.03 L17.21,16.97 L15.19,16.17 L15.21,16.14 C14.84,16.43 14.44,16.67 14,16.85 L14.01,16.85 L13.74,18.7 C13.72,18.87 13.7,19 13.7,19 L10.3,19 L9.99,16.85 L10,16.85 C9.56,16.67 9.16,16.43 8.79,16.14 L8.81,16.17 L6.79,16.97 L5.09,14.03 C5.09,14.03 5.19,13.95 5.32,13.85 L6.79,12.69 L6.8,12.71 C6.77,12.47 6.75,12.24 6.75,12 C6.75,11.76 6.77,11.53 6.8,11.31 L6.79,11.32 L5.09,9.98 L6.79,7.03 L8.8,7.84 L8.8,7.85 C9.17,7.57 9.57,7.33 10,7.15 L9.99,7.15 L10.3,5 L13.71,5 L14.01,7.15 L14,7.15 C14.43,7.33 14.83,7.57 15.2,7.85 L15.2,7.84 L17.21,7.03 L18.91,9.98 L17.2,11.32 L17.19,11.31 C17.23,11.53 17.25,11.76 17.25,12 Z M12,9.55 C10.6469024,9.55 9.55,10.6469024 9.55,12 C9.55,13.3530976 10.6469024,14.45 12,14.45 C13.3530976,14.45 14.45,13.3530976 14.45,12 C14.45,10.6469024 13.3530976,9.55 12,9.55 Z" id="path-1"></path>
    </defs>
    <g id="icon/action/settings_applications_24px" stroke="none" stroke-width="1" fill="none" fill-rule="evenodd">
        <mask id="mask-2" fill="white">
            <use xlink:href="#path-1"></use>
        </mask>
        <g fill-rule="nonzero"></g>
        <g id="✱-/-Color-/-Icons-/-Black-/-Inactive" mask="url(#mask-2)" fill="#000000" fill-opacity="0.54">
            <rect id="Rectangle" x="0" y="0" width="24" height="24"></rect>
        </g>
    </g>
</svg>