<?xml version="1.0" encoding="UTF-8"?>
<svg width="24px" height="24px" viewBox="0 0 24 24" version="1.1" xmlns="http://www.w3.org/2000/svg" xmlns:xlink="http://www.w3.org/1999/xlink">
    <!-- Generator: Sketch 50 (54983) - http://www.bohemiancoding.com/sketch -->
    <title>icon/action/speaker_notes_off_24px_sharp</title>
    <desc>Created with Sketch.</desc>
    <defs>
        <path d="M2.27,1 L1,2.27 L3.01,4.28 L3,21.27 L7,17.27 L16,17.27 L21.73,23 L23,21.73 L2.27,1 Z M9,13.27 L7,13.27 L7,11.27 L9,11.27 L9,13.27 Z M7,10.27 L7,8.27 L9,10.27 L7,10.27 Z M23,1.27 L5.08,1.27 L11,7.19 L11,5.27 L19,5.27 L19,7.27 L11.08,7.27 L12.08,8.27 L19,8.27 L19,10.27 L14.08,10.27 L21.07,17.26 L23,17.26 L23,1.27 Z" id="path-1"></path>
    </defs>
    <g id="icon/action/speaker_notes_off_24px" stroke="none" stroke-width="1" fill="none" fill-rule="evenodd">
        <mask id="mask-2" fill="white">
            <use xlink:href="#path-1"></use>
        </mask>
        <g fill-rule="nonzero"></g>
        <g id="✱-/-Color-/-Icons-/-Black-/-Inactive" mask="url(#mask-2)" fill="#000000" fill-opacity="0.54">
            <rect id="Rectangle" x="0" y="0" width="24" height="24"></rect>
        </g>
    </g>
</svg>