<?xml version="1.0" encoding="UTF-8"?>
<svg width="24px" height="24px" viewBox="0 0 24 24" version="1.1" xmlns="http://www.w3.org/2000/svg" xmlns:xlink="http://www.w3.org/1999/xlink">
    <!-- Generator: Sketch 50 (54983) - http://www.bohemiancoding.com/sketch -->
    <title>icon/action/swap_horizontal_circle_24px_sharp</title>
    <desc>Created with Sketch.</desc>
    <defs>
        <path d="M22,12 C22,6.48 17.52,2 12,2 C6.48,2 2,6.48 2,12 C2,17.52 6.48,22 12,22 C17.52,22 22,17.52 22,12 Z M15,6.5 L18.5,10 L15,13.5 L15,11 L11,11 L11,9 L15,9 L15,6.5 Z M9,17.5 L5.5,14 L9,10.5 L9,13 L13,13 L13,15 L9,15 L9,17.5 Z" id="path-1"></path>
    </defs>
    <g id="icon/action/swap_horizontal_circle_24px" stroke="none" stroke-width="1" fill="none" fill-rule="evenodd">
        <mask id="mask-2" fill="white">
            <use xlink:href="#path-1"></use>
        </mask>
        <g fill-rule="nonzero"></g>
        <g id="✱-/-Color-/-Icons-/-Black-/-Inactive" mask="url(#mask-2)" fill="#000000" fill-opacity="0.54">
            <rect id="Rectangle" x="0" y="0" width="24" height="24"></rect>
        </g>
    </g>
</svg>