<?xml version="1.0" encoding="UTF-8"?>
<svg width="24px" height="24px" viewBox="0 0 24 24" version="1.1" xmlns="http://www.w3.org/2000/svg" xmlns:xlink="http://www.w3.org/1999/xlink">
    <!-- Generator: Sketch 50 (54983) - http://www.bohemiancoding.com/sketch -->
    <title>icon/action/touch_app_24px_sharp</title>
    <desc>Created with Sketch.</desc>
    <defs>
        <path d="M8.69,9.74 L8.69,6 C8.69,4.62 9.81,3.5 11.19,3.5 C12.57,3.5 13.69,4.62 13.69,6 L13.69,9.74 C14.9,8.93 15.69,7.56 15.69,6 C15.69,3.51 13.68,1.5 11.19,1.5 C8.7,1.5 6.69,3.51 6.69,6 C6.69,7.56 7.48,8.93 8.69,9.74 Z M13.77,12 L12.69,12 L12.69,6 C12.69,5.17 12.02,4.5 11.19,4.5 C10.36,4.5 9.69,5.17 9.69,6 L9.69,16.74 L5.65,15.89 L4.44,17.12 L9.82,22.5 L18.49,22.5 L19.56,14.88 L13.77,12 Z" id="path-1"></path>
    </defs>
    <g id="icon/action/touch_app_24px" stroke="none" stroke-width="1" fill="none" fill-rule="evenodd">
        <mask id="mask-2" fill="white">
            <use xlink:href="#path-1"></use>
        </mask>
        <g fill-rule="nonzero"></g>
        <g id="✱-/-Color-/-Icons-/-Black-/-Inactive" mask="url(#mask-2)" fill="#000000" fill-opacity="0.54">
            <rect id="Rectangle" x="0" y="0" width="24" height="24"></rect>
        </g>
    </g>
</svg>