<?xml version="1.0" encoding="UTF-8"?>
<svg width="24px" height="24px" viewBox="0 0 24 24" version="1.1" xmlns="http://www.w3.org/2000/svg" xmlns:xlink="http://www.w3.org/1999/xlink">
    <!-- Generator: Sketch 50 (54983) - http://www.bohemiancoding.com/sketch -->
    <title>icon/maps/add_location_24px_outlined</title>
    <desc>Created with Sketch.</desc>
    <defs>
        <path d="M12,2 C8.14,2 5,5.14 5,9 C5,14.25 12,22 12,22 C12,22 19,14.25 19,9 C19,5.14 15.86,2 12,2 Z M7,9 C7,6.24 9.24,4 12,4 C14.76,4 17,6.24 17,9 C17,11.88 14.12,16.19 12,18.88 C9.92,16.21 7,11.85 7,9 Z M13,6 L11,6 L11,8 L9,8 L9,10 L11,10 L11,12 L13,12 L13,10 L15,10 L15,8 L13,8 L13,6 Z" id="path-1"></path>
    </defs>
    <g id="icon/maps/add_location_24px" stroke="none" stroke-width="1" fill="none" fill-rule="evenodd">
        <mask id="mask-2" fill="white">
            <use xlink:href="#path-1"></use>
        </mask>
        <g fill-rule="nonzero"></g>
        <g id="✱-/-Color-/-Icons-/-Black-/-Inactive" mask="url(#mask-2)" fill="#000000" fill-opacity="0.54">
            <rect id="Rectangle" x="0" y="0" width="24" height="24"></rect>
        </g>
    </g>
</svg>