<?xml version="1.0" encoding="UTF-8"?>
<svg width="24px" height="24px" viewBox="0 0 24 24" version="1.1" xmlns="http://www.w3.org/2000/svg" xmlns:xlink="http://www.w3.org/1999/xlink">
    <!-- Generator: Sketch 50 (54983) - http://www.bohemiancoding.com/sketch -->
    <title>icon/maps/beenhere_24px_outlined</title>
    <desc>Created with Sketch.</desc>
    <defs>
        <path d="M19,1 L5,1 C3.9,1 3.01,1.9 3.01,3 L3,15.93 C3,16.62 3.35,17.23 3.88,17.59 L12,23 L20.11,17.59 C20.64,17.23 20.99,16.62 20.99,15.93 L21,3 C21,1.9 20.1,1 19,1 Z M12,20.6 L5,15.94 L5,3 L19,3 L19,15.93 L12,20.6 Z M9.99,13.18 L7.41,10.59 L6,12 L10,16 L18,8 L16.58,6.58 L9.99,13.18 Z" id="path-1"></path>
    </defs>
    <g id="icon/maps/beenhere_24px" stroke="none" stroke-width="1" fill="none" fill-rule="evenodd">
        <mask id="mask-2" fill="white">
            <use xlink:href="#path-1"></use>
        </mask>
        <g fill-rule="nonzero"></g>
        <g id="✱-/-Color-/-Icons-/-Black-/-Inactive" mask="url(#mask-2)" fill="#000000" fill-opacity="0.54">
            <rect id="Rectangle" x="0" y="0" width="24" height="24"></rect>
        </g>
    </g>
</svg>