<?xml version="1.0" encoding="UTF-8"?>
<svg width="24px" height="24px" viewBox="0 0 24 24" version="1.1" xmlns="http://www.w3.org/2000/svg" xmlns:xlink="http://www.w3.org/1999/xlink">
    <!-- Generator: Sketch 50 (54983) - http://www.bohemiancoding.com/sketch -->
    <title>icon/maps/compass_calibration_24px_outlined</title>
    <desc>Created with Sketch.</desc>
    <defs>
        <path d="M12,11.5 C9.24,11.5 7,13.74 7,16.5 C7,19.26 9.24,21.5 12,21.5 C14.76,21.5 17,19.26 17,16.5 C17,13.74 14.76,11.5 12,11.5 Z M12,19.5 C10.35,19.5 9,18.15 9,16.5 C9,14.85 10.35,13.5 12,13.5 C13.65,13.5 15,14.85 15,16.5 C15,18.15 13.65,19.5 12,19.5 Z M12,2.5 C8.1,2.5 4.56,4.09 2,6.65 L7,11.65 C8.28,10.37 10.05,9.57 12,9.57 C13.95,9.57 15.72,10.36 17,11.64 L22,6.64 C19.44,4.09 15.9,2.5 12,2.5 Z M16.84,8.97 C15.4,8.06 13.74,7.57 12,7.57 C10.26,7.57 8.59,8.06 7.15,8.98 L4.94,6.76 C6.99,5.29 9.44,4.5 12,4.5 C14.56,4.5 17,5.29 19.05,6.76 L16.84,8.97 Z" id="path-1"></path>
    </defs>
    <g id="icon/maps/compass_calibration_24px" stroke="none" stroke-width="1" fill="none" fill-rule="evenodd">
        <mask id="mask-2" fill="white">
            <use xlink:href="#path-1"></use>
        </mask>
        <g fill-rule="nonzero"></g>
        <g id="✱-/-Color-/-Icons-/-Black-/-Inactive" mask="url(#mask-2)" fill="#000000" fill-opacity="0.54">
            <rect id="Rectangle" x="0" y="0" width="24" height="24"></rect>
        </g>
    </g>
</svg>