<?xml version="1.0" encoding="UTF-8"?>
<svg width="24px" height="24px" viewBox="0 0 24 24" version="1.1" xmlns="http://www.w3.org/2000/svg" xmlns:xlink="http://www.w3.org/1999/xlink">
    <!-- Generator: Sketch 50 (54983) - http://www.bohemiancoding.com/sketch -->
    <title>icon/maps/departure_board_24px_outlined</title>
    <desc>Created with Sketch.</desc>
    <defs>
        <path d="M5.5,15 C4.67157288,15 4,15.6715729 4,16.5 C4,17.3284271 4.67157288,18 5.5,18 C6.32842712,18 7,17.3284271 7,16.5 C7,15.6715729 6.32842712,15 5.5,15 Z M12.5,15 C11.6715729,15 11,15.6715729 11,16.5 C11,17.3284271 11.6715729,18 12.5,18 C13.3284271,18 14,17.3284271 14,16.5 C14,15.6715729 13.3284271,15 12.5,15 Z M16,1 C13.61,1 11.51,2.2 10.25,4.02 C9.84,4.01 9.43,4 9,4 C4.58,4 1,4.5 1,8 L1,18 C1,18.88 1.39,19.67 2,20.22 L2,22 C2,22.55 2.45,23 3,23 L4,23 C4.55,23 5,22.55 5,22 L5,21 L13,21 L13,22 C13,22.55 13.45,23 14,23 L15,23 C15.55,23 16,22.55 16,22 L16,20.22 C16.61,19.67 17,18.88 17,18 L17,14.92 C20.39,14.43 23,11.53 23,8 C23,4.13 19.87,1 16,1 Z M9,6 L9.29,6 C9.2,6.32 9.13,6.66 9.08,6.99 L3.34,6.99 C3.89,6.46 5.31,6 9,6 Z M3,8.99 L9.08,8.99 C9.24,10.1 9.65,11.12 10.26,12 L3,12 L3,8.99 Z M15,18 C15,18.37 14.79,18.62 14.66,18.73 L14.37,19 L3.63,19 L3.34,18.73 C3.21,18.62 3,18.37 3,18 L3,14 L12.41,14 C13.19,14.47 14.06,14.79 15,14.92 L15,18 Z M16,13 C13.24,13 11,10.76 11,8 C11,5.24 13.24,3 16,3 C18.76,3 21,5.24 21,8 C21,10.76 18.76,13 16,13 Z M16.5,4 L15,4 L15,9 L18.62,11.16 L19.37,9.93 L16.5,8.25 L16.5,4 Z" id="path-1"></path>
    </defs>
    <g id="icon/maps/departure_board_24px" stroke="none" stroke-width="1" fill="none" fill-rule="evenodd">
        <mask id="mask-2" fill="white">
            <use xlink:href="#path-1"></use>
        </mask>
        <g fill-rule="nonzero"></g>
        <g id="✱-/-Color-/-Icons-/-Black-/-Inactive" mask="url(#mask-2)" fill="#000000" fill-opacity="0.54">
            <rect id="Rectangle" x="0" y="0" width="24" height="24"></rect>
        </g>
    </g>
</svg>