<?xml version="1.0" encoding="UTF-8"?>
<svg width="24px" height="24px" viewBox="0 0 24 24" version="1.1" xmlns="http://www.w3.org/2000/svg" xmlns:xlink="http://www.w3.org/1999/xlink">
    <!-- Generator: Sketch 50 (54983) - http://www.bohemiancoding.com/sketch -->
    <title>icon/maps/directions_boat_24px_outlined</title>
    <desc>Created with Sketch.</desc>
    <defs>
        <path d="M13.001165,3 L13.001165,4 L11.001165,4 L11.001165,3 L13.001165,3 Z M12.001165,10.11 L17.381165,11.88 L19.771165,12.66 L18.651165,16.63 C18.111165,16.33 17.711165,15.92 17.511165,15.69 L16.001165,13.96 L14.491165,15.68 C14.151165,16.08 13.211165,17 12.001165,17 C10.791165,17 9.851165,16.08 9.511165,15.68 L8.001165,13.96 L6.491165,15.68 C6.291165,15.91 5.891165,16.31 5.351165,16.61 L4.221165,12.65 L6.621165,11.86 L12.001165,10.11 Z M15.001165,1 L9.001165,1 L9.001165,4 L6.001165,4 C4.901165,4 4.001165,4.9 4.001165,6 L4.001165,10.62 L2.711165,11.04 C2.451165,11.12 2.231165,11.3 2.111165,11.54 C1.991165,11.78 1.961165,12.06 2.051165,12.32 L3.951165,19 L4.001165,19 C5.601165,19 7.021165,18.12 8.001165,17 C8.981165,18.12 10.401165,19 12.001165,19 C13.601165,19 15.021165,18.12 16.001165,17 C16.981165,18.12 18.401165,19 20.001165,19 L20.051165,19 L21.941165,12.32 C22.021165,12.06 22.001165,11.78 21.881165,11.54 C21.761165,11.3 21.541165,11.12 21.281165,11.04 L20.001165,10.62 L20.001165,6 C20.001165,4.9 19.101165,4 18.001165,4 L15.001165,4 L15.001165,1 Z M6.001165,9.97 L6.001165,6 L18.001165,6 L18.001165,9.97 L12.001165,8 L6.001165,9.97 Z M16.001165,19.68 C14.781165,20.53 13.391165,20.96 12.001165,20.96 C10.611165,20.96 9.221165,20.53 8.001165,19.68 C6.781165,20.53 5.391165,21 4.001165,21 L2.001165,21 L2.001165,23 L4.001165,23 C5.381165,23 6.741165,22.65 8.001165,22.01 C9.261165,22.65 10.631165,22.98 12.001165,22.98 C13.371165,22.98 14.741165,22.66 16.001165,22.01 C17.261165,22.66 18.621165,23 20.001165,23 L22.001165,23 L22.001165,21 L20.001165,21 C18.611165,21 17.221165,20.53 16.001165,19.68 Z" id="path-1"></path>
    </defs>
    <g id="icon/maps/directions_boat_24px" stroke="none" stroke-width="1" fill="none" fill-rule="evenodd">
        <mask id="mask-2" fill="white">
            <use xlink:href="#path-1"></use>
        </mask>
        <g fill-rule="nonzero"></g>
        <g id="✱-/-Color-/-Icons-/-Black-/-Inactive" mask="url(#mask-2)" fill="#000000" fill-opacity="0.54">
            <rect id="Rectangle" x="0" y="0" width="24" height="24"></rect>
        </g>
    </g>
</svg>