<?xml version="1.0" encoding="UTF-8"?>
<svg width="24px" height="24px" viewBox="0 0 24 24" version="1.1" xmlns="http://www.w3.org/2000/svg" xmlns:xlink="http://www.w3.org/1999/xlink">
    <!-- Generator: Sketch 50 (54983) - http://www.bohemiancoding.com/sketch -->
    <title>icon/maps/directions_subway_24px_outlined</title>
    <desc>Created with Sketch.</desc>
    <defs>
        <path d="M12,2.5 C8,2.5 4,3 4,6.5 L4,16 C4,17.93 5.57,19.5 7.5,19.5 L6,21 L6,21.5 L18,21.5 L18,21 L16.5,19.5 C18.43,19.5 20,17.93 20,16 L20,6.5 C20,3 16.42,2.5 12,2.5 Z M17.66,5.5 L6.43,5.5 C7.04,4.98 8.49,4.5 12,4.5 C15.71,4.5 17.12,4.96 17.66,5.5 Z M11,7.5 L11,10.5 L6,10.5 L6,7.5 L11,7.5 Z M13,7.5 L18,7.5 L18,10.5 L13,10.5 L13,7.5 Z M16.5,17.5 L7.5,17.5 C6.67,17.5 6,16.83 6,16 L6,12.5 L18,12.5 L18,16 C18,16.83 17.33,17.5 16.5,17.5 Z M8.5,13.5 C7.67157288,13.5 7,14.1715729 7,15 C7,15.8284271 7.67157288,16.5 8.5,16.5 C9.32842712,16.5 10,15.8284271 10,15 C10,14.1715729 9.32842712,13.5 8.5,13.5 Z M15.5,13.5 C14.6715729,13.5 14,14.1715729 14,15 C14,15.8284271 14.6715729,16.5 15.5,16.5 C16.3284271,16.5 17,15.8284271 17,15 C17,14.1715729 16.3284271,13.5 15.5,13.5 Z" id="path-1"></path>
    </defs>
    <g id="icon/maps/directions_subway_24px" stroke="none" stroke-width="1" fill="none" fill-rule="evenodd">
        <mask id="mask-2" fill="white">
            <use xlink:href="#path-1"></use>
        </mask>
        <g fill-rule="nonzero"></g>
        <g id="✱-/-Color-/-Icons-/-Black-/-Inactive" mask="url(#mask-2)" fill="#000000" fill-opacity="0.54">
            <rect id="Rectangle" x="0" y="0" width="24" height="24"></rect>
        </g>
    </g>
</svg>