<?xml version="1.0" encoding="UTF-8"?>
<svg width="24px" height="24px" viewBox="0 0 24 24" version="1.1" xmlns="http://www.w3.org/2000/svg" xmlns:xlink="http://www.w3.org/1999/xlink">
    <!-- Generator: Sketch 50 (54983) - http://www.bohemiancoding.com/sketch -->
    <title>icon/maps/directions_bike_24px_outlined</title>
    <desc>Created with Sketch.</desc>
    <defs>
        <path d="M15.5,5.75 C16.6,5.75 17.5,4.85 17.5,3.75 C17.5,2.65 16.6,1.75 15.5,1.75 C14.4,1.75 13.5,2.65 13.5,3.75 C13.5,4.85 14.4,5.75 15.5,5.75 Z M5,12.25 C2.2,12.25 0,14.45 0,17.25 C0,20.05 2.2,22.25 5,22.25 C7.8,22.25 10,20.05 10,17.25 C10,14.45 7.8,12.25 5,12.25 Z M5,20.75 C3.1,20.75 1.5,19.15 1.5,17.25 C1.5,15.35 3.1,13.75 5,13.75 C6.9,13.75 8.5,15.35 8.5,17.25 C8.5,19.15 6.9,20.75 5,20.75 Z M10.8,10.75 L13.2,8.35 L14,9.15 C15.3,10.45 17,11.25 19.1,11.25 L19.1,9.25 C17.6,9.25 16.4,8.65 15.5,7.75 L13.6,5.85 C13.1,5.45 12.6,5.25 12,5.25 C11.4,5.25 10.9,5.45 10.6,5.85 L7.8,8.65 C7.4,9.05 7.2,9.55 7.2,10.05 C7.2,10.65 7.4,11.15 7.8,11.45 L11,14.25 L11,19.25 L13,19.25 L13,13.05 L10.8,10.75 Z M19,12.25 C16.2,12.25 14,14.45 14,17.25 C14,20.05 16.2,22.25 19,22.25 C21.8,22.25 24,20.05 24,17.25 C24,14.45 21.8,12.25 19,12.25 Z M19,20.75 C17.1,20.75 15.5,19.15 15.5,17.25 C15.5,15.35 17.1,13.75 19,13.75 C20.9,13.75 22.5,15.35 22.5,17.25 C22.5,19.15 20.9,20.75 19,20.75 Z" id="path-1"></path>
    </defs>
    <g id="icon/maps/directions_bike_24px" stroke="none" stroke-width="1" fill="none" fill-rule="evenodd">
        <mask id="mask-2" fill="white">
            <use xlink:href="#path-1"></use>
        </mask>
        <g fill-rule="nonzero"></g>
        <g id="✱-/-Color-/-Icons-/-Black-/-Inactive" mask="url(#mask-2)" fill="#000000" fill-opacity="0.54">
            <rect id="Rectangle" x="0" y="0" width="24" height="24"></rect>
        </g>
    </g>
</svg>