<?xml version="1.0" encoding="UTF-8"?>
<svg width="24px" height="24px" viewBox="0 0 24 24" version="1.1" xmlns="http://www.w3.org/2000/svg" xmlns:xlink="http://www.w3.org/1999/xlink">
    <!-- Generator: Sketch 50 (54983) - http://www.bohemiancoding.com/sketch -->
    <title>icon/maps/layers_clear_24px_outlined</title>
    <desc>Created with Sketch.</desc>
    <defs>
        <path d="M11.93,5.565 L17.67,10.035 L15.78,11.505 L17.21,12.925 L20.93,10.035 L11.93,3.035 L9.34,5.055 L10.76,6.475 L11.93,5.565 Z M20.93,15.105 L19.3,13.835 L18.63,14.355 L20.06,15.785 L20.93,15.105 Z M3.34,1.895 L1.93,3.305 L6.15,7.525 L2.93,10.035 L11.93,17.035 L14.03,15.405 L15.45,16.825 L11.92,19.575 L4.55,13.845 L2.93,15.105 L11.93,22.105 L16.88,18.255 L20.66,22.035 L22.07,20.625 L3.34,1.895 Z M11.93,14.505 L6.19,10.035 L7.58,8.955 L12.6,13.975 L11.93,14.505 Z" id="path-1"></path>
    </defs>
    <g id="icon/maps/layers_clear_24px" stroke="none" stroke-width="1" fill="none" fill-rule="evenodd">
        <mask id="mask-2" fill="white">
            <use xlink:href="#path-1"></use>
        </mask>
        <g fill-rule="nonzero"></g>
        <g id="✱-/-Color-/-Icons-/-Black-/-Inactive" mask="url(#mask-2)" fill="#000000" fill-opacity="0.54">
            <rect id="Rectangle" x="0" y="0" width="24" height="24"></rect>
        </g>
    </g>
</svg>