<?xml version="1.0" encoding="UTF-8"?>
<svg width="24px" height="24px" viewBox="0 0 24 24" version="1.1" xmlns="http://www.w3.org/2000/svg" xmlns:xlink="http://www.w3.org/1999/xlink">
    <!-- Generator: Sketch 50 (54983) - http://www.bohemiancoding.com/sketch -->
    <title>icon/maps/local_movies_24px_outlined</title>
    <desc>Created with Sketch.</desc>
    <defs>
        <path d="M14,5 L14,19 L10,19 L10,5 L14,5 Z M20,3 L18,3 L18,5 L16,5 L16,3 L8,3 L8,5 L6,5 L6,3 L4,3 L4,21 L6,21 L6,19 L8,19 L8,21 L16,21 L16,19 L18,19 L18,21 L20,21 L20,3 Z M16,9 L16,7 L18,7 L18,9 L16,9 Z M6,9 L6,7 L8,7 L8,9 L6,9 Z M16,13 L16,11 L18,11 L18,13 L16,13 Z M6,13 L6,11 L8,11 L8,13 L6,13 Z M16,17 L16,15 L18,15 L18,17 L16,17 Z M6,17 L6,15 L8,15 L8,17 L6,17 Z" id="path-1"></path>
    </defs>
    <g id="icon/maps/local_movies_24px" stroke="none" stroke-width="1" fill="none" fill-rule="evenodd">
        <mask id="mask-2" fill="white">
            <use xlink:href="#path-1"></use>
        </mask>
        <g fill-rule="nonzero"></g>
        <g id="✱-/-Color-/-Icons-/-Black-/-Inactive" mask="url(#mask-2)" fill="#000000" fill-opacity="0.54">
            <rect id="Rectangle" x="0" y="0" width="24" height="24"></rect>
        </g>
    </g>
</svg>