<?xml version="1.0" encoding="UTF-8"?>
<svg width="24px" height="24px" viewBox="0 0 24 24" version="1.1" xmlns="http://www.w3.org/2000/svg" xmlns:xlink="http://www.w3.org/1999/xlink">
    <!-- Generator: Sketch 50 (54983) - http://www.bohemiancoding.com/sketch -->
    <title>icon/maps/local_drink_24px_outlined</title>
    <desc>Created with Sketch.</desc>
    <defs>
        <path d="M3,2 L5.01,20.23 C5.13,21.23 5.97,22 7,22 L17,22 C18.03,22 18.87,21.23 18.99,20.23 L21,2 L3,2 Z M17,20 L7,20.01 L5.89,10 L18.1,10 L17,20 Z M18.33,8 L5.67,8 L5.23,4 L18.76,4 L18.33,8 Z M12,19 C13.66,19 15,17.66 15,16 C15,14 12,10.6 12,10.6 C12,10.6 9,14 9,16 C9,17.66 10.34,19 12,19 Z M12,13.91 C12.59,14.82 13,15.64 13,16 C13,16.55 12.55,17 12,17 C11.45,17 11,16.55 11,16 C11,15.63 11.41,14.81 12,13.91 Z" id="path-1"></path>
    </defs>
    <g id="icon/maps/local_drink_24px" stroke="none" stroke-width="1" fill="none" fill-rule="evenodd">
        <mask id="mask-2" fill="white">
            <use xlink:href="#path-1"></use>
        </mask>
        <g fill-rule="nonzero"></g>
        <g id="✱-/-Color-/-Icons-/-Black-/-Inactive" mask="url(#mask-2)" fill="#000000" fill-opacity="0.54">
            <rect id="Rectangle" x="0" y="0" width="24" height="24"></rect>
        </g>
    </g>
</svg>