<?xml version="1.0" encoding="UTF-8"?>
<svg width="24px" height="24px" viewBox="0 0 24 24" version="1.1" xmlns="http://www.w3.org/2000/svg" xmlns:xlink="http://www.w3.org/1999/xlink">
    <!-- Generator: Sketch 50 (54983) - http://www.bohemiancoding.com/sketch -->
    <title>icon/maps/local_car_wash_24px_outlined</title>
    <desc>Created with Sketch.</desc>
    <defs>
        <path d="M17,5.1 C17.83,5.1 18.5,4.43 18.5,3.6 C18.5,2.6 17,0.9 17,0.9 C17,0.9 15.5,2.6 15.5,3.6 C15.5,4.43 16.17,5.1 17,5.1 Z M12,5.1 C12.83,5.1 13.5,4.43 13.5,3.6 C13.5,2.6 12,0.9 12,0.9 C12,0.9 10.5,2.6 10.5,3.6 C10.5,4.43 11.17,5.1 12,5.1 Z M7,5.1 C7.83,5.1 8.5,4.43 8.5,3.6 C8.5,2.6 7,0.9 7,0.9 C7,0.9 5.5,2.6 5.5,3.6 C5.5,4.43 6.17,5.1 7,5.1 Z M18.92,8.11 C18.72,7.52 18.16,7.1 17.5,7.1 L6.5,7.1 C5.84,7.1 5.29,7.52 5.08,8.11 L3,14.1 L3,22.1 C3,22.65 3.45,23.1 4,23.1 L5,23.1 C5.55,23.1 6,22.65 6,22.1 L6,21.1 L18,21.1 L18,22.1 C18,22.65 18.45,23.1 19,23.1 L20,23.1 C20.55,23.1 21,22.65 21,22.1 L21,14.1 L18.92,8.11 Z M6.85,9.1 L17.14,9.1 L18.18,12.1 L5.81,12.1 L6.85,9.1 Z M19,19.1 L5,19.1 L5,14.44 L5.12,14.1 L18.89,14.1 L19,14.44 L19,19.1 Z M7.5,15.1 C6.67157288,15.1 6,15.7715729 6,16.6 C6,17.4284271 6.67157288,18.1 7.5,18.1 C8.32842712,18.1 9,17.4284271 9,16.6 C9,15.7715729 8.32842712,15.1 7.5,15.1 Z M16.5,15.1 C15.6715729,15.1 15,15.7715729 15,16.6 C15,17.4284271 15.6715729,18.1 16.5,18.1 C17.3284271,18.1 18,17.4284271 18,16.6 C18,15.7715729 17.3284271,15.1 16.5,15.1 Z" id="path-1"></path>
    </defs>
    <g id="icon/maps/local_car_wash_24px" stroke="none" stroke-width="1" fill="none" fill-rule="evenodd">
        <mask id="mask-2" fill="white">
            <use xlink:href="#path-1"></use>
        </mask>
        <g fill-rule="nonzero"></g>
        <g id="✱-/-Color-/-Icons-/-Black-/-Inactive" mask="url(#mask-2)" fill="#000000" fill-opacity="0.54">
            <rect id="Rectangle" x="0" y="0" width="24" height="24"></rect>
        </g>
    </g>
</svg>