<?xml version="1.0" encoding="UTF-8"?>
<svg width="24px" height="24px" viewBox="0 0 24 24" version="1.1" xmlns="http://www.w3.org/2000/svg" xmlns:xlink="http://www.w3.org/1999/xlink">
    <!-- Generator: Sketch 50 (54983) - http://www.bohemiancoding.com/sketch -->
    <title>icon/maps/local_laundry_service_24px_outlined</title>
    <desc>Created with Sketch.</desc>
    <defs>
        <path d="M18,2.01 L6,2 C4.89,2 4,2.89 4,4 L4,20 C4,21.11 4.89,22 6,22 L18,22 C19.11,22 20,21.11 20,20 L20,4 C20,2.89 19.11,2.01 18,2.01 Z M18,20 L6,20 L5.99,4 L18,4 L18,20 Z M8,5 C7.44771525,5 7,5.44771525 7,6 C7,6.55228475 7.44771525,7 8,7 C8.55228475,7 9,6.55228475 9,6 C9,5.44771525 8.55228475,5 8,5 Z M11,5 C10.4477153,5 10,5.44771525 10,6 C10,6.55228475 10.4477153,7 11,7 C11.5522847,7 12,6.55228475 12,6 C12,5.44771525 11.5522847,5 11,5 Z M12,19 C14.76,19 17,16.76 17,14 C17,11.24 14.76,9 12,9 C9.24,9 7,11.24 7,14 C7,16.76 9.24,19 12,19 Z M14.36,11.64 C15.66,12.94 15.66,15.06 14.36,16.36 C13.06,17.66 10.94,17.66 9.64,16.36 L14.36,11.64 Z" id="path-1"></path>
    </defs>
    <g id="icon/maps/local_laundry_service_24px" stroke="none" stroke-width="1" fill="none" fill-rule="evenodd">
        <mask id="mask-2" fill="white">
            <use xlink:href="#path-1"></use>
        </mask>
        <g fill-rule="nonzero"></g>
        <g id="✱-/-Color-/-Icons-/-Black-/-Inactive" mask="url(#mask-2)" fill="#000000" fill-opacity="0.54">
            <rect id="Rectangle" x="0" y="0" width="24" height="24"></rect>
        </g>
    </g>
</svg>