<?xml version="1.0" encoding="UTF-8"?>
<svg width="24px" height="24px" viewBox="0 0 24 24" version="1.1" xmlns="http://www.w3.org/2000/svg" xmlns:xlink="http://www.w3.org/1999/xlink">
    <!-- Generator: Sketch 50 (54983) - http://www.bohemiancoding.com/sketch -->
    <title>icon/maps/local_taxi_24px_outlined</title>
    <desc>Created with Sketch.</desc>
    <defs>
        <path d="M18.92,6.01 C18.72,5.42 18.16,5 17.5,5 L15,5 L15,3 L9,3 L9,5 L6.5,5 C5.84,5 5.29,5.42 5.08,6.01 L3,12 L3,20 C3,20.55 3.45,21 4,21 L5,21 C5.55,21 6,20.55 6,20 L6,19 L18,19 L18,20 C18,20.55 18.45,21 19,21 L20,21 C20.55,21 21,20.55 21,20 L21,12 L18.92,6.01 Z M6.85,7 L17.14,7 L18.18,10 L5.81,10 L6.85,7 Z M19,17 L5,17 L5,12.34 L5.12,12 L18.89,12 L19,12.34 L19,17 Z M7.5,13 C6.67157288,13 6,13.6715729 6,14.5 C6,15.3284271 6.67157288,16 7.5,16 C8.32842712,16 9,15.3284271 9,14.5 C9,13.6715729 8.32842712,13 7.5,13 Z M16.5,13 C15.6715729,13 15,13.6715729 15,14.5 C15,15.3284271 15.6715729,16 16.5,16 C17.3284271,16 18,15.3284271 18,14.5 C18,13.6715729 17.3284271,13 16.5,13 Z" id="path-1"></path>
    </defs>
    <g id="icon/maps/local_taxi_24px" stroke="none" stroke-width="1" fill="none" fill-rule="evenodd">
        <mask id="mask-2" fill="white">
            <use xlink:href="#path-1"></use>
        </mask>
        <g fill-rule="nonzero"></g>
        <g id="✱-/-Color-/-Icons-/-Black-/-Inactive" mask="url(#mask-2)" fill="#000000" fill-opacity="0.54">
            <rect id="Rectangle" x="0" y="0" width="24" height="24"></rect>
        </g>
    </g>
</svg>