<?xml version="1.0" encoding="UTF-8"?>
<svg width="24px" height="24px" viewBox="0 0 24 24" version="1.1" xmlns="http://www.w3.org/2000/svg" xmlns:xlink="http://www.w3.org/1999/xlink">
    <!-- Generator: Sketch 50 (54983) - http://www.bohemiancoding.com/sketch -->
    <title>icon/maps/local_hotel_24px_outlined</title>
    <desc>Created with Sketch.</desc>
    <defs>
        <path d="M7,13.5 C8.66,13.5 10,12.16 10,10.5 C10,8.84 8.66,7.5 7,7.5 C5.34,7.5 4,8.84 4,10.5 C4,12.16 5.34,13.5 7,13.5 Z M7,9.5 C7.55,9.5 8,9.95 8,10.5 C8,11.05 7.55,11.5 7,11.5 C6.45,11.5 6,11.05 6,10.5 C6,9.95 6.45,9.5 7,9.5 Z M19,6.5 L11,6.5 L11,14.5 L3,14.5 L3,4.5 L1,4.5 L1,19.5 L3,19.5 L3,16.5 L21,16.5 L21,19.5 L23,19.5 L23,10.5 C23,8.29 21.21,6.5 19,6.5 Z M21,14.5 L13,14.5 L13,8.5 L19,8.5 C20.1,8.5 21,9.4 21,10.5 L21,14.5 Z" id="path-1"></path>
    </defs>
    <g id="icon/maps/local_hotel_24px" stroke="none" stroke-width="1" fill="none" fill-rule="evenodd">
        <mask id="mask-2" fill="white">
            <use xlink:href="#path-1"></use>
        </mask>
        <g fill-rule="nonzero"></g>
        <g id="✱-/-Color-/-Icons-/-Black-/-Inactive" mask="url(#mask-2)" fill="#000000" fill-opacity="0.54">
            <rect id="Rectangle" x="0" y="0" width="24" height="24"></rect>
        </g>
    </g>
</svg>