<?xml version="1.0" encoding="UTF-8"?>
<svg width="24px" height="24px" viewBox="0 0 24 24" version="1.1" xmlns="http://www.w3.org/2000/svg" xmlns:xlink="http://www.w3.org/1999/xlink">
    <!-- Generator: Sketch 50 (54983) - http://www.bohemiancoding.com/sketch -->
    <title>icon/maps/person_pin_24px_outlined</title>
    <desc>Created with Sketch.</desc>
    <defs>
        <path d="M19,1.5 L5,1.5 C3.89,1.5 3,2.4 3,3.5 L3,17.5 C3,18.6 3.89,19.5 5,19.5 L9,19.5 L12,22.5 L15,19.5 L19,19.5 C20.1,19.5 21,18.6 21,17.5 L21,3.5 C21,2.4 20.1,1.5 19,1.5 Z M19,17.5 L14.17,17.5 L13.58,18.09 L12,19.67 L10.41,18.08 L9.83,17.5 L5,17.5 L5,3.5 L19,3.5 L19,17.5 Z M12,10.5 C13.65,10.5 15,9.15 15,7.5 C15,5.85 13.65,4.5 12,4.5 C10.35,4.5 9,5.85 9,7.5 C9,9.15 10.35,10.5 12,10.5 Z M12,6.5 C12.55,6.5 13,6.95 13,7.5 C13,8.05 12.55,8.5 12,8.5 C11.45,8.5 11,8.05 11,7.5 C11,6.95 11.45,6.5 12,6.5 Z M18,15.08 C18,12.58 14.03,11.5 12,11.5 C9.97,11.5 6,12.58 6,15.08 L6,16.5 L18,16.5 L18,15.08 Z M8.48,14.5 C9.22,13.99 10.71,13.5 12,13.5 C13.29,13.5 14.78,13.99 15.52,14.5 L8.48,14.5 Z" id="path-1"></path>
    </defs>
    <g id="icon/maps/person_pin_24px" stroke="none" stroke-width="1" fill="none" fill-rule="evenodd">
        <mask id="mask-2" fill="white">
            <use xlink:href="#path-1"></use>
        </mask>
        <g fill-rule="nonzero"></g>
        <g id="✱-/-Color-/-Icons-/-Black-/-Inactive" mask="url(#mask-2)" fill="#000000" fill-opacity="0.54">
            <rect id="Rectangle" x="0" y="0" width="24" height="24"></rect>
        </g>
    </g>
</svg>