<?xml version="1.0" encoding="UTF-8"?>
<svg width="24px" height="24px" viewBox="0 0 24 24" version="1.1" xmlns="http://www.w3.org/2000/svg" xmlns:xlink="http://www.w3.org/1999/xlink">
    <!-- Generator: Sketch 50 (54983) - http://www.bohemiancoding.com/sketch -->
    <title>icon/maps/restaurant_24px_outlined</title>
    <desc>Created with Sketch.</desc>
    <defs>
        <path d="M16,6 L16,14 L19,14 L19,22 L21,22 L21,2 C18.24,2 16,4.24 16,6 Z M11,9 L9,9 L9,2 L7,2 L7,9 L5,9 L5,2 L3,2 L3,9 C3,11.21 4.79,13 7,13 L7,22 L9,22 L9,13 C11.21,13 13,11.21 13,9 L13,2 L11,2 L11,9 Z" id="path-1"></path>
    </defs>
    <g id="icon/maps/restaurant_24px" stroke="none" stroke-width="1" fill="none" fill-rule="evenodd">
        <mask id="mask-2" fill="white">
            <use xlink:href="#path-1"></use>
        </mask>
        <g fill-rule="nonzero"></g>
        <g id="✱-/-Color-/-Icons-/-Black-/-Inactive" mask="url(#mask-2)" fill="#000000" fill-opacity="0.54">
            <rect id="Rectangle" x="0" y="0" width="24" height="24"></rect>
        </g>
    </g>
</svg>