<?xml version="1.0" encoding="UTF-8"?>
<svg width="24px" height="24px" viewBox="0 0 24 24" version="1.1" xmlns="http://www.w3.org/2000/svg" xmlns:xlink="http://www.w3.org/1999/xlink">
    <!-- Generator: Sketch 50 (54983) - http://www.bohemiancoding.com/sketch -->
    <title>icon/maps/transfer_within_a_station_24px_outlined</title>
    <desc>Created with Sketch.</desc>
    <defs>
        <path d="M16.49,15.25 L16.49,13.5 L14,16 L16.49,18.5 L16.49,16.75 L22,16.75 L22,15.25 L16.49,15.25 Z M19.51,19.5 L14,19.5 L14,21 L19.51,21 L19.51,22.75 L22,20.25 L19.51,17.75 L19.51,19.5 Z M9.5,5.25 C10.6,5.25 11.5,4.35 11.5,3.25 C11.5,2.15 10.6,1.25 9.5,1.25 C8.4,1.25 7.5,2.15 7.5,3.25 C7.5,4.35 8.4,5.25 9.5,5.25 Z M5.75,8.65 L3,22.75 L5.1,22.75 L6.85,14.75 L9,16.75 L9,22.75 L11,22.75 L11,15.2 L8.95,13.15 L9.55,10.15 C10.85,11.75 12.8,12.75 15,12.75 L15,10.75 C13.15,10.75 11.55,9.75 10.65,8.3 L9.7,6.7 C9.35,6.1 8.7,5.75 8,5.75 C7.75,5.75 7.5,5.8 7.25,5.9 L2,8.05 L2,12.75 L4,12.75 L4,9.4 L5.75,8.65 Z" id="path-1"></path>
    </defs>
    <g id="icon/maps/transfer_within_a_station_24px" stroke="none" stroke-width="1" fill="none" fill-rule="evenodd">
        <mask id="mask-2" fill="white">
            <use xlink:href="#path-1"></use>
        </mask>
        <g fill-rule="nonzero"></g>
        <g id="✱-/-Color-/-Icons-/-Black-/-Inactive" mask="url(#mask-2)" fill="#000000" fill-opacity="0.54">
            <rect id="Rectangle" x="0" y="0" width="24" height="24"></rect>
        </g>
    </g>
</svg>