<?xml version="1.0" encoding="UTF-8"?>
<svg width="24px" height="24px" viewBox="0 0 24 24" version="1.1" xmlns="http://www.w3.org/2000/svg" xmlns:xlink="http://www.w3.org/1999/xlink">
    <!-- Generator: Sketch 50 (54983) - http://www.bohemiancoding.com/sketch -->
    <title>icon/device/add_to_home_screen_24px_outlined</title>
    <desc>Created with Sketch.</desc>
    <defs>
        <path d="M18.5,1.01 L8.5,1 C7.4,1 6.5,1.9 6.5,3 L6.5,6 L8.5,6 L8.5,5 L18.5,5 L18.5,19 L8.5,19 L8.5,18 L6.5,18 L6.5,21 C6.5,22.1 7.4,23 8.5,23 L18.5,23 C19.6,23 20.5,22.1 20.5,21 L20.5,3 C20.5,1.9 19.6,1.01 18.5,1.01 Z M10.5,15 L12.5,15 L12.5,8 L5.5,8 L5.5,10 L9.09,10 L3.5,15.59 L4.91,17 L10.5,11.41 L10.5,15 Z" id="path-1"></path>
    </defs>
    <g id="icon/device/add_to_home_screen_24px" stroke="none" stroke-width="1" fill="none" fill-rule="evenodd">
        <mask id="mask-2" fill="white">
            <use xlink:href="#path-1"></use>
        </mask>
        <g fill-rule="nonzero"></g>
        <g id="✱-/-Color-/-Icons-/-Black-/-Inactive" mask="url(#mask-2)" fill="#000000" fill-opacity="0.54">
            <rect id="Rectangle" x="0" y="0" width="24" height="24"></rect>
        </g>
    </g>
</svg>