<?xml version="1.0" encoding="UTF-8"?>
<svg width="24px" height="24px" viewBox="0 0 24 24" version="1.1" xmlns="http://www.w3.org/2000/svg" xmlns:xlink="http://www.w3.org/1999/xlink">
    <!-- Generator: Sketch 50 (54983) - http://www.bohemiancoding.com/sketch -->
    <title>icon/device/add_alarm_24px_outlined</title>
    <desc>Created with Sketch.</desc>
    <defs>
        <path d="M7.88,3.46 L6.6,1.93 L2,5.78 L3.29,7.31 L7.88,3.46 Z M22,5.79 L17.4,1.93 L16.11,3.46 L20.71,7.32 L22,5.79 Z M12,4.07 C7.03,4.07 3,8.1 3,13.07 C3,18.04 7.02,22.07 12,22.07 C16.97,22.07 21,18.04 21,13.07 C21,8.1 16.97,4.07 12,4.07 Z M12,20.07 C8.13,20.07 5,16.94 5,13.07 C5,9.2 8.13,6.07 12,6.07 C15.87,6.07 19,9.2 19,13.07 C19,16.94 15.87,20.07 12,20.07 Z M13,9.07 L11,9.07 L11,12.07 L8,12.07 L8,14.07 L11,14.07 L11,17.07 L13,17.07 L13,14.07 L16,14.07 L16,12.07 L13,12.07 L13,9.07 Z" id="path-1"></path>
    </defs>
    <g id="icon/device/add_alarm_24px" stroke="none" stroke-width="1" fill="none" fill-rule="evenodd">
        <mask id="mask-2" fill="white">
            <use xlink:href="#path-1"></use>
        </mask>
        <g fill-rule="nonzero"></g>
        <g id="✱-/-Color-/-Icons-/-Black-/-Inactive" mask="url(#mask-2)" fill="#000000" fill-opacity="0.54">
            <rect id="Rectangle" x="0" y="0" width="24" height="24"></rect>
        </g>
    </g>
</svg>