<?xml version="1.0" encoding="UTF-8"?>
<svg width="24px" height="24px" viewBox="0 0 24 24" version="1.1" xmlns="http://www.w3.org/2000/svg" xmlns:xlink="http://www.w3.org/1999/xlink">
    <!-- Generator: Sketch 50 (54983) - http://www.bohemiancoding.com/sketch -->
    <title>icon/device/bluetooth_searching_24px_outlined</title>
    <desc>Created with Sketch.</desc>
    <defs>
        <path d="M14.235,12.01 L16.555,14.33 C16.835,13.61 16.995,12.82 16.995,12 C16.995,11.18 16.835,10.41 16.565,9.69 L14.235,12.01 Z M19.525,6.71 L18.265,7.97 C18.895,9.18 19.245,10.54 19.245,11.99 C19.245,13.44 18.885,14.81 18.265,16.01 L19.465,17.21 C20.435,15.67 21.005,13.85 21.005,11.9 C20.995,10.01 20.455,8.23 19.525,6.71 Z M15.705,7.71 L9.995,2 L8.995,2 L8.995,9.59 L4.405,5 L2.995,6.41 L8.585,12 L2.995,17.59 L4.405,19 L8.995,14.41 L8.995,22 L9.995,22 L15.705,16.29 L11.405,12 L15.705,7.71 Z M10.995,5.83 L12.875,7.71 L10.995,9.59 L10.995,5.83 Z M12.875,16.29 L10.995,18.17 L10.995,14.41 L12.875,16.29 Z" id="path-1"></path>
    </defs>
    <g id="icon/device/bluetooth_searching_24px" stroke="none" stroke-width="1" fill="none" fill-rule="evenodd">
        <mask id="mask-2" fill="white">
            <use xlink:href="#path-1"></use>
        </mask>
        <g fill-rule="nonzero"></g>
        <g id="✱-/-Color-/-Icons-/-Black-/-Inactive" mask="url(#mask-2)" fill="#000000" fill-opacity="0.54">
            <rect id="Rectangle" x="0" y="0" width="24" height="24"></rect>
        </g>
    </g>
</svg>