<?xml version="1.0" encoding="UTF-8"?>
<svg width="24px" height="24px" viewBox="0 0 24 24" version="1.1" xmlns="http://www.w3.org/2000/svg" xmlns:xlink="http://www.w3.org/1999/xlink">
    <!-- Generator: Sketch 50 (54983) - http://www.bohemiancoding.com/sketch -->
    <title>icon/device/mobile_friendly_24px_outlined</title>
    <desc>Created with Sketch.</desc>
    <defs>
        <path d="M18.905,1 L8.905,1 C7.805,1 6.905,1.9 6.905,3 L6.905,6 L8.905,6 L8.905,4 L18.905,4 L18.905,20 L8.905,20 L8.905,18 L6.905,18 L6.905,21 C6.905,22.1 7.805,23 8.905,23 L18.905,23 C20.005,23 20.905,22.1 20.905,21 L20.905,3 C20.905,1.9 20.005,1 18.905,1 Z M6.915,13.47 L4.365,10.92 L3.095,12.19 L6.905,16 L14.095,8.81 L12.825,7.54 L6.915,13.47 Z" id="path-1"></path>
    </defs>
    <g id="icon/device/mobile_friendly_24px" stroke="none" stroke-width="1" fill="none" fill-rule="evenodd">
        <mask id="mask-2" fill="white">
            <use xlink:href="#path-1"></use>
        </mask>
        <g fill-rule="nonzero"></g>
        <g id="✱-/-Color-/-Icons-/-Black-/-Inactive" mask="url(#mask-2)" fill="#000000" fill-opacity="0.54">
            <rect id="Rectangle" x="0" y="0" width="24" height="24"></rect>
        </g>
    </g>
</svg>