<?xml version="1.0" encoding="UTF-8"?>
<svg width="24px" height="24px" viewBox="0 0 24 24" version="1.1" xmlns="http://www.w3.org/2000/svg" xmlns:xlink="http://www.w3.org/1999/xlink">
    <!-- Generator: Sketch 50 (54983) - http://www.bohemiancoding.com/sketch -->
    <title>icon/device/thermostat_24px_outlined</title>
    <desc>Created with Sketch.</desc>
    <defs>
        <path d="M15,13 L15,5 C15,3.34 13.66,2 12,2 C10.34,2 9,3.34 9,5 L9,13 C7.79,13.91 7,15.37 7,17 C7,19.76 9.24,22 12,22 C14.76,22 17,19.76 17,17 C17,15.37 16.21,13.91 15,13 Z M11,5 C11,4.45 11.45,4 12,4 C12.55,4 13,4.45 13,5 L12,5 L12,6 L13,6 L13,8 L12,8 L12,9 L13,9 L13,11 L11,11 L11,5 Z" id="path-1"></path>
    </defs>
    <g id="icon/device/thermostat_24px" stroke="none" stroke-width="1" fill="none" fill-rule="evenodd">
        <mask id="mask-2" fill="white">
            <use xlink:href="#path-1"></use>
        </mask>
        <g fill-rule="nonzero"></g>
        <g id="✱-/-Color-/-Icons-/-Black-/-Inactive" mask="url(#mask-2)" fill="#000000" fill-opacity="0.54">
            <rect id="Rectangle" x="0" y="0" width="24" height="24"></rect>
        </g>
    </g>
</svg>