<?xml version="1.0" encoding="UTF-8"?>
<svg width="24px" height="24px" viewBox="0 0 24 24" version="1.1" xmlns="http://www.w3.org/2000/svg" xmlns:xlink="http://www.w3.org/1999/xlink">
    <!-- Generator: Sketch 50 (54983) - http://www.bohemiancoding.com/sketch -->
    <title>icon/device/usb_24px_outlined</title>
    <desc>Created with Sketch.</desc>
    <defs>
        <path d="M15.1,7.4 L15.1,11.4 L16.1,11.4 L16.1,13.4 L13.1,13.4 L13.1,5.4 L15.1,5.4 L12.1,1.4 L9.1,5.4 L11.1,5.4 L11.1,13.4 L8.1,13.4 L8.1,11.33 C8.8,10.96 9.3,10.25 9.3,9.4 C9.3,8.19 8.31,7.2 7.1,7.2 C5.89,7.2 4.9,8.19 4.9,9.4 C4.9,10.25 5.4,10.96 6.1,11.33 L6.1,13.4 C6.1,14.51 6.99,15.4 8.1,15.4 L11.1,15.4 L11.1,18.45 C10.39,18.82 9.9,19.55 9.9,20.4 C9.9,21.62 10.89,22.6 12.1,22.6 C13.31,22.6 14.3,21.62 14.3,20.4 C14.3,19.55 13.81,18.82 13.1,18.45 L13.1,15.4 L16.1,15.4 C17.21,15.4 18.1,14.51 18.1,13.4 L18.1,11.4 L19.1,11.4 L19.1,7.4 L15.1,7.4 Z" id="path-1"></path>
    </defs>
    <g id="icon/device/usb_24px" stroke="none" stroke-width="1" fill="none" fill-rule="evenodd">
        <mask id="mask-2" fill="white">
            <use xlink:href="#path-1"></use>
        </mask>
        <g fill-rule="nonzero"></g>
        <g id="✱-/-Color-/-Icons-/-Black-/-Inactive" mask="url(#mask-2)" fill="#000000" fill-opacity="0.54">
            <rect id="Rectangle" x="0" y="0" width="24" height="24"></rect>
        </g>
    </g>
</svg>