<?xml version="1.0" encoding="UTF-8"?>
<svg width="24px" height="24px" viewBox="0 0 24 24" version="1.1" xmlns="http://www.w3.org/2000/svg" xmlns:xlink="http://www.w3.org/1999/xlink">
    <!-- Generator: Sketch 50 (54983) - http://www.bohemiancoding.com/sketch -->
    <title>icon/social/cake_24px_rounded</title>
    <desc>Created with Sketch.</desc>
    <defs>
        <path d="M12.68,6.62875 C13.38,6.38875 13.9,5.72875 13.98,4.98875 C14.03,4.51875 13.93,4.07875 13.7,3.71875 L12.42,1.49875 C12.23,1.16875 11.75,1.16875 11.55,1.49875 L10.27,3.71875 C10.1,4.01875 10,4.36875 10,4.74875 C10,6.06875 11.3,7.09875 12.68,6.62875 Z M16.53,16.66875 L15.53,15.66875 L14.45,16.73875 C13.15,18.03875 10.87,18.04875 9.56,16.73875 L8.49,15.66875 L7.4,16.73875 C6.75,17.38875 5.88,17.74875 4.96,17.74875 C4.23,17.74875 3.56,17.51875 3,17.13875 L3,20.74875 C3,21.84875 3.9,22.74875 5,22.74875 L19,22.74875 C20.1,22.74875 21,21.84875 21,20.74875 L21,17.13875 C20.25,17.64875 19.29,17.88875 18.26,17.65875 C17.6,17.51875 17.01,17.14875 16.53,16.66875 Z M18,9.74875 L13,9.74875 L13,8.74875 C13,8.19875 12.55,7.74875 12,7.74875 C11.45,7.74875 11,8.19875 11,8.74875 L11,9.74875 L6,9.74875 C4.34,9.74875 3,11.08875 3,12.74875 L3,14.20875 C3,15.05875 3.5,15.87875 4.31,16.14875 C5.04,16.38875 5.83,16.20875 6.34,15.68875 L8.48,13.55875 L10.61,15.68875 C11.37,16.44875 12.62,16.44875 13.38,15.68875 L15.52,13.55875 L17.65,15.68875 C18.08,16.11875 18.68,16.31875 19.3,16.23875 C20.29,16.10875 20.99,15.17875 20.99,14.17875 L20.99,12.75875 C21,11.08875 19.66,9.74875 18,9.74875 Z" id="path-1"></path>
    </defs>
    <g id="icon/social/cake_24px" stroke="none" stroke-width="1" fill="none" fill-rule="evenodd">
        <mask id="mask-2" fill="white">
            <use xlink:href="#path-1"></use>
        </mask>
        <g fill-rule="nonzero"></g>
        <g id="✱-/-Color-/-Icons-/-Black-/-Inactive" mask="url(#mask-2)" fill="#000000" fill-opacity="0.54">
            <rect id="Rectangle" x="0" y="0" width="24" height="24"></rect>
        </g>
    </g>
</svg>