<?xml version="1.0" encoding="UTF-8"?>
<svg width="24px" height="24px" viewBox="0 0 24 24" version="1.1" xmlns="http://www.w3.org/2000/svg" xmlns:xlink="http://www.w3.org/1999/xlink">
    <!-- Generator: Sketch 50 (54983) - http://www.bohemiancoding.com/sketch -->
    <title>icon/social/notifications_active_24px_rounded</title>
    <desc>Created with Sketch.</desc>
    <defs>
        <path d="M18.003918,15.75 L18.003918,10.75 C18.003918,7.68 16.363918,5.11 13.503918,4.43 L13.503918,3.75 C13.503918,2.92 12.823918,2.25 11.993918,2.25 C11.163918,2.25 10.503918,2.92 10.503918,3.75 L10.503918,4.43 C7.63391805,5.11 6.00391805,7.67 6.00391805,10.75 L6.00391805,15.75 L4.70391805,17.04 C4.07391805,17.67 4.51391805,18.75 5.40391805,18.75 L18.573918,18.75 C19.463918,18.75 19.913918,17.67 19.283918,17.04 L18.003918,15.75 Z M11.993918,21.75 C13.093918,21.75 13.993918,20.85 13.993918,19.75 L9.99391805,19.75 C9.99391805,20.85 10.883918,21.75 11.993918,21.75 Z M6.77391805,4.48 C7.19391805,4.1 7.20391805,3.45 6.80391805,3.05 C6.42391805,2.67 5.80391805,2.66 5.41391805,3.03 C3.70391805,4.59 2.52391805,6.71 2.14391805,9.09 C2.05391805,9.7 2.52391805,10.25 3.14391805,10.25 C3.62391805,10.25 4.04391805,9.9 4.12391805,9.42 C4.42391805,7.48 5.38391805,5.75 6.77391805,4.48 Z M18.603918,3.03 C18.203918,2.66 17.583918,2.67 17.203918,3.05 C16.803918,3.45 16.823918,4.09 17.233918,4.47 C18.613918,5.74 19.583918,7.47 19.883918,9.41 C19.953918,9.89 20.373918,10.24 20.863918,10.24 C21.473918,10.24 21.953918,9.69 21.853918,9.08 C21.473918,6.71 20.303918,4.6 18.603918,3.03 Z" id="path-1"></path>
    </defs>
    <g id="icon/social/notifications_active_24px" stroke="none" stroke-width="1" fill="none" fill-rule="evenodd">
        <mask id="mask-2" fill="white">
            <use xlink:href="#path-1"></use>
        </mask>
        <g fill-rule="nonzero"></g>
        <g id="✱-/-Color-/-Icons-/-Black-/-Inactive" mask="url(#mask-2)" fill="#000000" fill-opacity="0.54">
            <rect id="Rectangle" x="0" y="0" width="24" height="24"></rect>
        </g>
    </g>
</svg>