<?xml version="1.0" encoding="UTF-8"?>
<svg width="24px" height="24px" viewBox="0 0 24 24" version="1.1" xmlns="http://www.w3.org/2000/svg" xmlns:xlink="http://www.w3.org/1999/xlink">
    <!-- Generator: Sketch 50 (54983) - http://www.bohemiancoding.com/sketch -->
    <title>icon/social/notifications_paused_24px_rounded</title>
    <desc>Created with Sketch.</desc>
    <defs>
        <path d="M12.0001711,21.75 C13.1001711,21.75 14.0001711,20.85 14.0001711,19.75 L10.0001711,19.75 C10.0001711,20.85 10.8901711,21.75 12.0001711,21.75 Z M19.2901711,17.04 L18.0001711,15.75 L18.0001711,10.75 C18.0001711,7.68 16.3601711,5.11 13.5001711,4.43 L13.5001711,3.75 C13.5001711,2.92 12.8301711,2.25 12.0001711,2.25 C11.1701711,2.25 10.5001711,2.92 10.5001711,3.75 L10.5001711,4.43 C7.63017115,5.11 6.00017115,7.67 6.00017115,10.75 L6.00017115,15.75 L4.71017115,17.04 C4.08017115,17.67 4.52017115,18.75 5.41017115,18.75 L18.5801711,18.75 C19.4801711,18.75 19.9201711,17.67 19.2901711,17.04 Z M14.5001711,9.08 C14.5001711,9.39 14.3901711,9.68 14.2001711,9.92 L11.7001711,12.95 L13.6001711,12.95 C14.1001711,12.95 14.5001711,13.35 14.5001711,13.85 C14.5001711,14.35 14.1001711,14.75 13.6001711,14.75 L10.8201711,14.75 C10.0901711,14.75 9.50017115,14.16 9.50017115,13.43 L9.50017115,13.42 C9.50017115,13.11 9.61017115,12.82 9.80017115,12.58 L12.3001711,9.55 L10.4001711,9.55 C9.90017115,9.55 9.50017115,9.15 9.50017115,8.65 C9.50017115,8.15 9.90017115,7.75 10.4001711,7.75 L13.1801711,7.75 C13.9101711,7.75 14.5001711,8.34 14.5001711,9.08 Z" id="path-1"></path>
    </defs>
    <g id="icon/social/notifications_paused_24px" stroke="none" stroke-width="1" fill="none" fill-rule="evenodd">
        <mask id="mask-2" fill="white">
            <use xlink:href="#path-1"></use>
        </mask>
        <g fill-rule="nonzero"></g>
        <g id="✱-/-Color-/-Icons-/-Black-/-Inactive" mask="url(#mask-2)" fill="#000000" fill-opacity="0.54">
            <rect id="Rectangle" x="0" y="0" width="24" height="24"></rect>
        </g>
    </g>
</svg>