<?xml version="1.0" encoding="UTF-8"?>
<svg width="24px" height="24px" viewBox="0 0 24 24" version="1.1" xmlns="http://www.w3.org/2000/svg" xmlns:xlink="http://www.w3.org/1999/xlink">
    <!-- Generator: Sketch 50 (54983) - http://www.bohemiancoding.com/sketch -->
    <title>icon/social/pages_24px_rounded</title>
    <desc>Created with Sketch.</desc>
    <defs>
        <path d="M3,5 L3,11 L8,11 L7.4,8.62 C7.22,7.88 7.88,7.22 8.62,7.4 L11,8 L11,3 L5,3 C3.9,3 3,3.9 3,5 Z M8,13 L3,13 L3,19 C3,20.1 3.9,21 5,21 L11,21 L11,16 L8.62,16.6 C7.89,16.78 7.22,16.12 7.41,15.39 L8,13 Z M15.38,16.6 L13,16 L13,21 L19,21 C20.1,21 21,20.1 21,19 L21,13 L16,13 L16.6,15.38 C16.78,16.12 16.12,16.78 15.38,16.6 Z M19,3 L13,3 L13,8 L15.38,7.4 C16.11,7.22 16.78,7.88 16.59,8.61 L16,11 L21,11 L21,5 C21,3.9 20.1,3 19,3 Z" id="path-1"></path>
    </defs>
    <g id="icon/social/pages_24px" stroke="none" stroke-width="1" fill="none" fill-rule="evenodd">
        <mask id="mask-2" fill="white">
            <use xlink:href="#path-1"></use>
        </mask>
        <g fill-rule="nonzero"></g>
        <g id="✱-/-Color-/-Icons-/-Black-/-Inactive" mask="url(#mask-2)" fill="#000000" fill-opacity="0.54">
            <rect id="Rectangle" x="0" y="0" width="24" height="24"></rect>
        </g>
    </g>
</svg>