<?xml version="1.0" encoding="UTF-8"?>
<svg width="24px" height="24px" viewBox="0 0 24 24" version="1.1" xmlns="http://www.w3.org/2000/svg" xmlns:xlink="http://www.w3.org/1999/xlink">
    <!-- Generator: Sketch 50 (54983) - http://www.bohemiancoding.com/sketch -->
    <title>icon/social/party_mode_24px_rounded</title>
    <desc>Created with Sketch.</desc>
    <defs>
        <path d="M20,5 L16.83,5 L15.59,3.65 C15.22,3.24 14.68,3 14.12,3 L9.88,3 C9.32,3 8.78,3.24 8.4,3.65 L7.17,5 L4,5 C2.9,5 2,5.9 2,7 L2,19 C2,20.1 2.9,21 4,21 L20,21 C21.1,21 22,20.1 22,19 L22,7 C22,5.9 21.1,5 20,5 Z M12,8 C13.63,8 15.06,8.79 15.98,10 L12,10 C10.34,10 9,11.34 9,13 C9,13.35 9.07,13.69 9.18,14 L7.1,14 C7.04,13.68 7,13.34 7,13 C7,10.24 9.24,8 12,8 Z M12,18 C10.37,18 8.94,17.21 8.02,16 L12,16 C13.66,16 15,14.66 15,13 C15,12.65 14.93,12.31 14.82,12 L16.9,12 C16.97,12.32 17,12.66 17,13 C17,15.76 14.76,18 12,18 Z" id="path-1"></path>
    </defs>
    <g id="icon/social/party_mode_24px" stroke="none" stroke-width="1" fill="none" fill-rule="evenodd">
        <mask id="mask-2" fill="white">
            <use xlink:href="#path-1"></use>
        </mask>
        <g fill-rule="nonzero"></g>
        <g id="✱-/-Color-/-Icons-/-Black-/-Inactive" mask="url(#mask-2)" fill="#000000" fill-opacity="0.54">
            <rect id="Rectangle" x="0" y="0" width="24" height="24"></rect>
        </g>
    </g>
</svg>