<?xml version="1.0" encoding="UTF-8"?>
<svg width="24px" height="24px" viewBox="0 0 24 24" version="1.1" xmlns="http://www.w3.org/2000/svg" xmlns:xlink="http://www.w3.org/1999/xlink">
    <!-- Generator: Sketch 50 (54983) - http://www.bohemiancoding.com/sketch -->
    <title>icon/social/thumb_up_alt_24px_rounded</title>
    <desc>Created with Sketch.</desc>
    <defs>
        <path d="M12.9490108,2.75187901 L7.40901079,8.29187901 C7.03901079,8.66187901 6.82901079,9.17187901 6.82901079,9.70187901 L6.82901079,19.691879 C6.82901079,20.791879 7.72901079,21.691879 8.82901079,21.691879 L17.8290108,21.691879 C18.6290108,21.691879 19.3490108,21.211879 19.6690108,20.481879 L22.9290108,12.871879 C23.7690108,10.891879 22.3190108,8.69187901 20.1690108,8.69187901 L14.5190108,8.69187901 L15.4690108,4.11187901 C15.5690108,3.61187901 15.4190108,3.10187901 15.0590108,2.74187901 C14.4690108,2.16187901 13.5290108,2.16187901 12.9490108,2.75187901 Z M2.82901079,21.691879 C3.92901079,21.691879 4.82901079,20.791879 4.82901079,19.691879 L4.82901079,11.691879 C4.82901079,10.591879 3.92901079,9.69187901 2.82901079,9.69187901 C1.72901079,9.69187901 0.829010785,10.591879 0.829010785,11.691879 L0.829010785,19.691879 C0.829010785,20.791879 1.72901079,21.691879 2.82901079,21.691879 Z" id="path-1"></path>
    </defs>
    <g id="icon/social/thumb_up_alt_24px" stroke="none" stroke-width="1" fill="none" fill-rule="evenodd">
        <mask id="mask-2" fill="white">
            <use xlink:href="#path-1"></use>
        </mask>
        <g fill-rule="nonzero"></g>
        <g id="✱-/-Color-/-Icons-/-Black-/-Inactive" mask="url(#mask-2)" fill="#000000" fill-opacity="0.54">
            <rect id="Rectangle" x="0" y="0" width="24" height="24"></rect>
        </g>
    </g>
</svg>