<?xml version="1.0" encoding="UTF-8"?>
<svg width="24px" height="24px" viewBox="0 0 24 24" version="1.1" xmlns="http://www.w3.org/2000/svg" xmlns:xlink="http://www.w3.org/1999/xlink">
    <!-- Generator: Sketch 50 (54983) - http://www.bohemiancoding.com/sketch -->
    <title>icon/social/thumb_down_alt_24px_rounded</title>
    <desc>Created with Sketch.</desc>
    <defs>
        <path d="M11.0484068,21.248121 L16.5784068,15.708121 C16.9484068,15.338121 17.1584068,14.828121 17.1584068,14.298121 L17.1584068,4.30812099 C17.1584068,3.20812099 16.2584068,2.30812099 15.1584068,2.30812099 L6.16840682,2.30812099 C5.36840682,2.30812099 4.64840682,2.78812099 4.33840682,3.51812099 L1.07840682,11.128121 C0.228406815,13.108121 1.67840682,15.308121 3.82840682,15.308121 L9.47840682,15.308121 L8.52840682,19.888121 C8.42840682,20.388121 8.57840682,20.898121 8.93840682,21.258121 C9.52840682,21.838121 10.4684068,21.838121 11.0484068,21.248121 Z M21.1684068,2.30812099 C20.0684068,2.30812099 19.1684068,3.20812099 19.1684068,4.30812099 L19.1684068,12.308121 C19.1684068,13.408121 20.0684068,14.308121 21.1684068,14.308121 C22.2684068,14.308121 23.1684068,13.408121 23.1684068,12.308121 L23.1684068,4.30812099 C23.1684068,3.20812099 22.2684068,2.30812099 21.1684068,2.30812099 Z" id="path-1"></path>
    </defs>
    <g id="icon/social/thumb_down_alt_24px" stroke="none" stroke-width="1" fill="none" fill-rule="evenodd">
        <mask id="mask-2" fill="white">
            <use xlink:href="#path-1"></use>
        </mask>
        <g fill-rule="nonzero"></g>
        <g id="✱-/-Color-/-Icons-/-Black-/-Inactive" mask="url(#mask-2)" fill="#000000" fill-opacity="0.54">
            <rect id="Rectangle" x="0" y="0" width="24" height="24"></rect>
        </g>
    </g>
</svg>