<?xml version="1.0" encoding="UTF-8"?>
<svg width="24px" height="24px" viewBox="0 0 24 24" version="1.1" xmlns="http://www.w3.org/2000/svg" xmlns:xlink="http://www.w3.org/1999/xlink">
    <!-- Generator: Sketch 50 (54983) - http://www.bohemiancoding.com/sketch -->
    <title>icon/social/whatshot_24px_rounded</title>
    <desc>Created with Sketch.</desc>
    <defs>
        <path d="M17.09,4.77573866 C16.39,3.74573866 15.59,2.78573866 14.69,1.92573866 C14.34,1.58573866 13.75,1.90573866 13.85,2.38573866 C14.04,3.32573866 14.24,4.56573866 14.24,5.67573866 C14.24,7.73573866 12.89,9.40573866 10.83,9.40573866 C9.29,9.40573866 8.03,8.47573866 7.48,7.14573866 C7.38,6.94573866 7.34,6.82573866 7.28,6.60573866 C7.17,6.18573866 6.62,6.05573866 6.38,6.42573866 C6.2,6.69573866 6.03,6.96573866 5.87,7.25573866 C4.68,9.29573866 4,11.6757387 4,14.2157387 C4,18.6357387 7.58,22.2157387 12,22.2157387 C16.42,22.2157387 20,18.6357387 20,14.2157387 C20,10.7257387 18.92,7.48573866 17.09,4.77573866 Z M11.71,19.2157387 C9.93,19.2157387 8.49,17.8157387 8.49,16.0757387 C8.49,14.4557387 9.54,13.3157387 11.3,12.9557387 C12.77,12.6557387 14.28,12.0257387 15.33,11.0357387 C15.61,10.7757387 16.07,10.8957387 16.15,11.2657387 C16.38,12.2857387 16.5,13.3457387 16.5,14.4157387 C16.51,17.0657387 14.36,19.2157387 11.71,19.2157387 Z" id="path-1"></path>
    </defs>
    <g id="icon/social/whatshot_24px" stroke="none" stroke-width="1" fill="none" fill-rule="evenodd">
        <mask id="mask-2" fill="white">
            <use xlink:href="#path-1"></use>
        </mask>
        <g fill-rule="nonzero"></g>
        <g id="✱-/-Color-/-Icons-/-Black-/-Inactive" mask="url(#mask-2)" fill="#000000" fill-opacity="0.54">
            <rect id="Rectangle" x="0" y="0" width="24" height="24"></rect>
        </g>
    </g>
</svg>