<?xml version="1.0" encoding="UTF-8"?>
<svg width="24px" height="24px" viewBox="0 0 24 24" version="1.1" xmlns="http://www.w3.org/2000/svg" xmlns:xlink="http://www.w3.org/1999/xlink">
    <!-- Generator: Sketch 50 (54983) - http://www.bohemiancoding.com/sketch -->
    <title>icon/communication/call_end_24px_outlined</title>
    <desc>Created with Sketch.</desc>
    <defs>
        <path d="M18.59,11.09 C19.64,11.6 20.63,12.24 21.55,13 L20.48,14.07 C19.9,13.6 19.27,13.18 18.6,12.8 L18.6,11.09 L18.59,11.09 Z M5.4,11.09 L5.4,12.79 C4.75,13.16 4.12,13.58 3.53,14.06 L2.46,12.99 C3.37,12.24 4.36,11.61 5.4,11.09 Z M12,7.57 C7.46,7.57 3.34,9.35 0.29,12.24 C0.11,12.42 0,12.67 0,12.95 C0,13.23 0.11,13.48 0.29,13.65 L2.77,16.13 C2.95,16.31 3.2,16.42 3.48,16.42 C3.75,16.42 4,16.32 4.18,16.14 C4.97,15.41 5.86,14.78 6.84,14.29 C7.17,14.13 7.4,13.78 7.4,13.39 L7.4,10.29 C8.85,9.82 10.4,9.57 12,9.57 C13.6,9.57 15.15,9.82 16.59,10.3 L16.59,13.4 C16.59,13.8 16.82,14.14 17.15,14.3 C18.13,14.79 19.03,15.41 19.82,16.15 C20,16.32 20.25,16.43 20.52,16.43 C20.8,16.43 21.05,16.32 21.23,16.14 L23.71,13.66 C23.89,13.48 24,13.23 24,12.95 C24,12.67 23.89,12.42 23.71,12.24 C20.66,9.35 16.54,7.57 12,7.57 Z" id="path-1"></path>
    </defs>
    <g id="icon/communication/call_end_24px" stroke="none" stroke-width="1" fill="none" fill-rule="evenodd">
        <mask id="mask-2" fill="white">
            <use xlink:href="#path-1"></use>
        </mask>
        <g fill-rule="nonzero"></g>
        <g id="✱-/-Color-/-Icons-/-Black-/-Inactive" mask="url(#mask-2)" fill="#000000" fill-opacity="0.54">
            <rect id="Rectangle" x="0" y="0" width="24" height="24"></rect>
        </g>
    </g>
</svg>