<?xml version="1.0" encoding="UTF-8"?>
<svg width="24px" height="24px" viewBox="0 0 24 24" version="1.1" xmlns="http://www.w3.org/2000/svg" xmlns:xlink="http://www.w3.org/1999/xlink">
    <!-- Generator: Sketch 50 (54983) - http://www.bohemiancoding.com/sketch -->
    <title>icon/communication/contact_phone_24px_outlined</title>
    <desc>Created with Sketch.</desc>
    <defs>
        <path d="M22,3 L2,3 C0.9,3 0,3.9 0,5 L0,19 C0,20.1 0.9,21 2,21 L22,21 C23.1,21 23.99,20.1 23.99,19 L24,5 C24,3.9 23.1,3 22,3 Z M22,19 L2,19 L2,5 L22,5 L22,19 Z M19.01,17.99 L21,16 L19.49,14 L17.85,14 C17.63,13.37 17.5,12.7 17.5,12 C17.5,11.3 17.63,10.63 17.85,10 L19.49,10 L21,8 L19.01,6.01 C17.7,6.99 16.73,8.38 16.28,10 C16.1,10.64 16,11.31 16,12 C16,12.69 16.1,13.36 16.28,14 C16.73,15.61 17.7,17.01 19.01,17.99 Z M9,12 C10.65,12 12,10.65 12,9 C12,7.35 10.65,6 9,6 C7.35,6 6,7.35 6,9 C6,10.65 7.35,12 9,12 Z M9,8 C9.55,8 10,8.45 10,9 C10,9.55 9.55,10 9,10 C8.45,10 8,9.55 8,9 C8,8.45 8.45,8 9,8 Z M15,16.59 C15,14.09 11.03,13.01 9,13.01 C6.97,13.01 3,14.09 3,16.59 L3,18 L15,18 L15,16.59 Z M5.48,16 C6.22,15.5 7.7,15 9,15 C10.3,15 11.77,15.49 12.52,16 L5.48,16 Z" id="path-1"></path>
    </defs>
    <g id="icon/communication/contact_phone_24px" stroke="none" stroke-width="1" fill="none" fill-rule="evenodd">
        <mask id="mask-2" fill="white">
            <use xlink:href="#path-1"></use>
        </mask>
        <g fill-rule="nonzero"></g>
        <g id="✱-/-Color-/-Icons-/-Black-/-Inactive" mask="url(#mask-2)" fill="#000000" fill-opacity="0.54">
            <rect id="Rectangle" x="0" y="0" width="24" height="24"></rect>
        </g>
    </g>
</svg>