<?xml version="1.0" encoding="UTF-8"?>
<svg width="24px" height="24px" viewBox="0 0 24 24" version="1.1" xmlns="http://www.w3.org/2000/svg" xmlns:xlink="http://www.w3.org/1999/xlink">
    <!-- Generator: Sketch 50 (54983) - http://www.bohemiancoding.com/sketch -->
    <title>icon/communication/import_contacts_24px_outlined</title>
    <desc>Created with Sketch.</desc>
    <defs>
        <path d="M21,4 C19.89,3.65 18.67,3.5 17.5,3.5 C15.55,3.5 13.45,3.9 12,5 C10.55,3.9 8.45,3.5 6.5,3.5 C4.55,3.5 2.45,3.9 1,5 L1,19.65 C1,19.9 1.25,20.15 1.5,20.15 C1.6,20.15 1.65,20.1 1.75,20.1 C3.1,19.45 5.05,19 6.5,19 C8.45,19 10.55,19.4 12,20.5 C13.35,19.65 15.8,19 17.5,19 C19.15,19 20.85,19.3 22.25,20.05 C22.35,20.1 22.4,20.1 22.5,20.1 C22.75,20.1 23,19.85 23,19.6 L23,5 C22.4,4.55 21.75,4.25 21,4 Z M21,17.5 C19.9,17.15 18.7,17 17.5,17 C15.8,17 13.35,17.65 12,18.5 L12,7 C13.35,6.15 15.8,5.5 17.5,5.5 C18.7,5.5 19.9,5.65 21,6 L21,17.5 Z" id="path-1"></path>
    </defs>
    <g id="icon/communication/import_contacts_24px" stroke="none" stroke-width="1" fill="none" fill-rule="evenodd">
        <mask id="mask-2" fill="white">
            <use xlink:href="#path-1"></use>
        </mask>
        <g fill-rule="nonzero"></g>
        <g id="✱-/-Color-/-Icons-/-Black-/-Inactive" mask="url(#mask-2)" fill="#000000" fill-opacity="0.54">
            <rect id="Rectangle" x="0" y="0" width="24" height="24"></rect>
        </g>
    </g>
</svg>