<?xml version="1.0" encoding="UTF-8"?>
<svg width="24px" height="24px" viewBox="0 0 24 24" version="1.1" xmlns="http://www.w3.org/2000/svg" xmlns:xlink="http://www.w3.org/1999/xlink">
    <!-- Generator: Sketch 50 (54983) - http://www.bohemiancoding.com/sketch -->
    <title>icon/communication/live_help_24px_outlined</title>
    <desc>Created with Sketch.</desc>
    <defs>
        <path d="M19,1.5 L5,1.5 C3.89,1.5 3,2.4 3,3.5 L3,17.5 C3,18.6 3.89,19.5 5,19.5 L9,19.5 L12,22.5 L15,19.5 L19,19.5 C20.1,19.5 21,18.6 21,17.5 L21,3.5 C21,2.4 20.1,1.5 19,1.5 Z M19,17.5 L14.17,17.5 L13.58,18.09 L12,19.67 L10.41,18.08 L9.83,17.5 L5,17.5 L5,3.5 L19,3.5 L19,17.5 Z M11,14.5 L13,14.5 L13,16.5 L11,16.5 L11,14.5 Z M12,6.5 C13.1,6.5 14,7.4 14,8.5 C14,10.5 11,10.25 11,13.5 L13,13.5 C13,11.25 16,11 16,8.5 C16,6.29 14.21,4.5 12,4.5 C9.79,4.5 8,6.29 8,8.5 L10,8.5 C10,7.4 10.9,6.5 12,6.5 Z" id="path-1"></path>
    </defs>
    <g id="icon/communication/live_help_24px" stroke="none" stroke-width="1" fill="none" fill-rule="evenodd">
        <mask id="mask-2" fill="white">
            <use xlink:href="#path-1"></use>
        </mask>
        <g fill-rule="nonzero"></g>
        <g id="✱-/-Color-/-Icons-/-Black-/-Inactive" mask="url(#mask-2)" fill="#000000" fill-opacity="0.54">
            <rect id="Rectangle" x="0" y="0" width="24" height="24"></rect>
        </g>
    </g>
</svg>