<?xml version="1.0" encoding="UTF-8"?>
<svg width="24px" height="24px" viewBox="0 0 24 24" version="1.1" xmlns="http://www.w3.org/2000/svg" xmlns:xlink="http://www.w3.org/1999/xlink">
    <!-- Generator: Sketch 50 (54983) - http://www.bohemiancoding.com/sketch -->
    <title>icon/communication/no_sim_24px_outlined</title>
    <desc>Created with Sketch.</desc>
    <defs>
        <path d="M21.44,20.4 L3.97,2.93 L2.56,4.34 L5.3,7.08 L5.18,7.2 L5.18,18.19 C5.18,19.29 6.08,20.19 7.18,20.19 L17.18,20.19 C17.53,20.19 17.86,20.09 18.15,19.93 L20.03,21.81 L21.44,20.4 Z M7.18,18.19 L7.18,8.96 L16.41,18.19 L7.18,18.19 Z M11.02,4.19 L17.18,4.19 L17.18,13.3 L19.18,15.3 L19.18,4.19 C19.18,3.09 18.28,2.19 17.18,2.19 L10.19,2.19 L8.13,4.25 L9.54,5.66 L11.02,4.19 Z" id="path-1"></path>
    </defs>
    <g id="icon/communication/no_sim_24px" stroke="none" stroke-width="1" fill="none" fill-rule="evenodd">
        <mask id="mask-2" fill="white">
            <use xlink:href="#path-1"></use>
        </mask>
        <g fill-rule="nonzero"></g>
        <g id="✱-/-Color-/-Icons-/-Black-/-Inactive" mask="url(#mask-2)" fill="#000000" fill-opacity="0.54">
            <rect id="Rectangle" x="0" y="0" width="24" height="24"></rect>
        </g>
    </g>
</svg>