<?xml version="1.0" encoding="UTF-8"?>
<svg width="24px" height="24px" viewBox="0 0 24 24" version="1.1" xmlns="http://www.w3.org/2000/svg" xmlns:xlink="http://www.w3.org/1999/xlink">
    <!-- Generator: Sketch 50 (54983) - http://www.bohemiancoding.com/sketch -->
    <title>icon/communication/person_add_disabled_24px_outlined</title>
    <desc>Created with Sketch.</desc>
    <defs>
        <path d="M15.5,5.145 C16.6,5.145 17.5,6.045 17.5,7.145 C17.5,8.135 16.77,8.965 15.83,9.115 L13.52,6.805 C13.69,5.865 14.51,5.145 15.5,5.145 Z M15.5,3.145 C13.29,3.145 11.5,4.935 11.5,7.145 C11.5,7.325 11.53,7.495 11.55,7.665 L14.98,11.095 C15.15,11.115 15.32,11.145 15.5,11.145 C17.71,11.145 19.5,9.355 19.5,7.145 C19.5,4.935 17.71,3.145 15.5,3.145 Z M17.19,13.305 L23.03,19.145 L23.5,19.145 L23.5,17.145 C23.5,15.005 19.94,13.645 17.19,13.305 Z M13.51,15.275 L15.38,17.145 L9.5,17.145 C9.58,16.905 10.38,16.135 12.41,15.575 L13.51,15.275 Z M1.91,0.855 L0.5,2.265 L4.5,6.265 L4.5,9.145 L1.5,9.145 L1.5,11.145 L4.5,11.145 L4.5,14.145 L6.5,14.145 L6.5,11.145 L9.38,11.145 L11.89,13.655 C9.69,14.255 7.5,15.445 7.5,17.145 L7.5,19.145 L17.38,19.145 L21.38,23.145 L22.79,21.735 L1.91,0.855 Z M6.5,9.145 L6.5,8.265 L7.38,9.145 L6.5,9.145 Z" id="path-1"></path>
    </defs>
    <g id="icon/communication/person_add_disabled_24px" stroke="none" stroke-width="1" fill="none" fill-rule="evenodd">
        <mask id="mask-2" fill="white">
            <use xlink:href="#path-1"></use>
        </mask>
        <g fill-rule="nonzero"></g>
        <g id="✱-/-Color-/-Icons-/-Black-/-Inactive" mask="url(#mask-2)" fill="#000000" fill-opacity="0.54">
            <rect id="Rectangle" x="0" y="0" width="24" height="24"></rect>
        </g>
    </g>
</svg>