<?xml version="1.0" encoding="UTF-8"?>
<svg width="24px" height="24px" viewBox="0 0 24 24" version="1.1" xmlns="http://www.w3.org/2000/svg" xmlns:xlink="http://www.w3.org/1999/xlink">
    <!-- Generator: Sketch 50 (54983) - http://www.bohemiancoding.com/sketch -->
    <title>icon/communication/phonelink_setup_24px_outlined</title>
    <desc>Created with Sketch.</desc>
    <defs>
        <path d="M6.90745706,3 L6.90745706,6 L8.90745706,6 L8.90745706,4 L18.9074571,4 L18.9074571,20 L8.90745706,20 L8.90745706,18 L6.90745706,18 L6.90745706,21 C6.90745706,22.1 7.80745706,23 8.90745706,23 L18.9074571,23 C20.0074571,23 20.9074571,22.1 20.9074571,21 L20.9074571,3 C20.9074571,1.9 20.0074571,1 18.9074571,1 L8.90745706,1 C7.80745706,1 6.90745706,1.9 6.90745706,3 Z M9.40745706,15.5 C9.69745706,15.38 9.95745706,15.21 10.2074571,15.02 L10.1874571,15.05 L11.1974571,15.44 C11.4274571,15.53 11.6874571,15.44 11.8074571,15.22 L12.6474571,13.76 C12.7674571,13.55 12.7174571,13.27 12.5274571,13.12 L11.6774571,12.44 L11.6574571,12.47 C11.6774571,12.31 11.7074571,12.15 11.7074571,11.99 C11.7074571,11.83 11.6774571,11.67 11.6574571,11.51 L11.6774571,11.54 L12.5274571,10.86 C12.7174571,10.71 12.7674571,10.43 12.6474571,10.22 L11.8074571,8.76 C11.6874571,8.55 11.4274571,8.45 11.1974571,8.54 L10.1874571,8.93 L10.2074571,8.96 C9.95745706,8.79 9.69745706,8.62 9.40745706,8.5 L9.23745706,7.42 C9.20745706,7.18 8.99745706,7 8.74745706,7 L7.06745706,7 C6.81745706,7 6.60745706,7.18 6.57745706,7.42 L6.40745706,8.5 C6.11745706,8.62 5.85745706,8.79 5.60745706,8.98 L5.62745706,8.95 L4.60745706,8.56 C4.37745706,8.47 4.11745706,8.56 3.99745706,8.78 L3.15745706,10.24 C3.03745706,10.45 3.08745706,10.73 3.27745706,10.88 L4.12745706,11.56 L4.14745706,11.53 C4.12745706,11.68 4.09745706,11.84 4.09745706,12 C4.09745706,12.16 4.12745706,12.32 4.14745706,12.48 L4.12745706,12.45 L3.27745706,13.13 C3.08745706,13.28 3.03745706,13.56 3.15745706,13.77 L3.99745706,15.23 C4.11745706,15.44 4.37745706,15.54 4.60745706,15.45 L5.61745706,15.06 L5.60745706,15.02 C5.85745706,15.21 6.11745706,15.38 6.40745706,15.5 L6.57745706,16.57 C6.60745706,16.82 6.81745706,17 7.06745706,17 L8.74745706,17 C8.99745706,17 9.20745706,16.82 9.23745706,16.58 L9.40745706,15.5 Z M5.90745706,12 C5.90745706,10.9 6.80745706,10 7.90745706,10 C9.00745706,10 9.90745706,10.9 9.90745706,12 C9.90745706,13.1 9.00745706,14 7.90745706,14 C6.80745706,14 5.90745706,13.1 5.90745706,12 Z" id="path-1"></path>
    </defs>
    <g id="icon/communication/phonelink_setup_24px" stroke="none" stroke-width="1" fill="none" fill-rule="evenodd">
        <mask id="mask-2" fill="white">
            <use xlink:href="#path-1"></use>
        </mask>
        <g fill-rule="nonzero"></g>
        <g id="✱-/-Color-/-Icons-/-Black-/-Inactive" mask="url(#mask-2)" fill="#000000" fill-opacity="0.54">
            <rect id="Rectangle" x="0" y="0" width="24" height="24"></rect>
        </g>
    </g>
</svg>