<?xml version="1.0" encoding="UTF-8"?>
<svg width="24px" height="24px" viewBox="0 0 24 24" version="1.1" xmlns="http://www.w3.org/2000/svg" xmlns:xlink="http://www.w3.org/1999/xlink">
    <!-- Generator: Sketch 50 (54983) - http://www.bohemiancoding.com/sketch -->
    <title>icon/communication/phonelink_lock_24px_outlined</title>
    <desc>Created with Sketch.</desc>
    <defs>
        <path d="M18.5,1 L8.5,1 C7.4,1 6.5,1.9 6.5,3 L6.5,6 L8.5,6 L8.5,4 L18.5,4 L18.5,20 L8.5,20 L8.5,18 L6.5,18 L6.5,21 C6.5,22.1 7.4,23 8.5,23 L18.5,23 C19.6,23 20.5,22.1 20.5,21 L20.5,3 C20.5,1.9 19.6,1 18.5,1 Z M10.3,11 L10.3,9.5 C10.3,8.1 8.9,7 7.5,7 C6.1,7 4.7,8.1 4.7,9.5 L4.7,11 C4.1,11 3.5,11.6 3.5,12.2 L3.5,15.7 C3.5,16.4 4.1,17 4.7,17 L10.2,17 C10.9,17 11.5,16.4 11.5,15.8 L11.5,12.3 C11.5,11.6 10.9,11 10.3,11 Z M9,11 L6,11 L6,9.5 C6,8.7 6.7,8.2 7.5,8.2 C8.3,8.2 9,8.7 9,9.5 L9,11 Z" id="path-1"></path>
    </defs>
    <g id="icon/communication/phonelink_lock_24px" stroke="none" stroke-width="1" fill="none" fill-rule="evenodd">
        <mask id="mask-2" fill="white">
            <use xlink:href="#path-1"></use>
        </mask>
        <g fill-rule="nonzero"></g>
        <g id="✱-/-Color-/-Icons-/-Black-/-Inactive" mask="url(#mask-2)" fill="#000000" fill-opacity="0.54">
            <rect id="Rectangle" x="0" y="0" width="24" height="24"></rect>
        </g>
    </g>
</svg>