<?xml version="1.0" encoding="UTF-8"?>
<svg width="24px" height="24px" viewBox="0 0 24 24" version="1.1" xmlns="http://www.w3.org/2000/svg" xmlns:xlink="http://www.w3.org/1999/xlink">
    <!-- Generator: Sketch 50 (54983) - http://www.bohemiancoding.com/sketch -->
    <title>icon/communication/portable_wifi_off_24px_outlined</title>
    <desc>Created with Sketch.</desc>
    <defs>
        <path d="M3.42,2.61 L2.01,4.03 L4.1,6.12 C2.79,7.82 2,9.94 2,12.25 C2,15.95 4.01,19.17 6.99,20.9 L7.99,19.17 C5.61,17.78 4,15.21 4,12.25 C4,10.49 4.57,8.87 5.53,7.56 L6.96,9 C6.36,9.93 6,11.05 6,12.25 C6,14.47 7.21,16.4 9,17.44 L10,15.7 C8.81,15 8,13.73 8,12.25 C8,11.6 8.17,11 8.44,10.46 L10.02,12.04 L10,12.25 C10,13.35 10.9,14.25 12,14.25 L12.21,14.23 L19.73,21.75 L21.14,20.34 L3.42,2.61 Z M17.71,14.07 C17.89,13.5 18,12.88 18,12.25 C18,8.94 15.31,6.25 12,6.25 C11.37,6.25 10.75,6.36 10.18,6.54 L11.9,8.26 C11.93,8.26 11.96,8.25 12,8.25 C14.21,8.25 16,10.04 16,12.25 C16,12.29 15.99,12.32 15.99,12.36 L17.71,14.07 Z M12,4.25 C16.42,4.25 20,7.83 20,12.25 C20,13.45 19.71,14.57 19.23,15.6 L20.72,17.09 C21.53,15.65 22,14.01 22,12.25 C22,6.73 17.52,2.25 12,2.25 C10.24,2.25 8.6,2.73 7.16,3.53 L8.64,5.01 C9.66,4.53 10.8,4.25 12,4.25 Z" id="path-1"></path>
    </defs>
    <g id="icon/communication/portable_wifi_off_24px" stroke="none" stroke-width="1" fill="none" fill-rule="evenodd">
        <mask id="mask-2" fill="white">
            <use xlink:href="#path-1"></use>
        </mask>
        <g fill-rule="nonzero"></g>
        <g id="✱-/-Color-/-Icons-/-Black-/-Inactive" mask="url(#mask-2)" fill="#000000" fill-opacity="0.54">
            <rect id="Rectangle" x="0" y="0" width="24" height="24"></rect>
        </g>
    </g>
</svg>