<?xml version="1.0" encoding="UTF-8"?>
<svg width="24px" height="24px" viewBox="0 0 24 24" version="1.1" xmlns="http://www.w3.org/2000/svg" xmlns:xlink="http://www.w3.org/1999/xlink">
    <!-- Generator: Sketch 50 (54983) - http://www.bohemiancoding.com/sketch -->
    <title>icon/communication/ring_volume_24px_outlined</title>
    <desc>Created with Sketch.</desc>
    <defs>
        <path d="M23.71,17.24 C20.66,14.35 16.54,12.57 12,12.57 C7.46,12.57 3.34,14.35 0.29,17.24 C0.11,17.42 0,17.67 0,17.95 C0,18.23 0.11,18.48 0.29,18.66 L2.77,21.14 C2.95,21.32 3.2,21.43 3.48,21.43 C3.75,21.43 4,21.32 4.18,21.15 C4.97,20.41 5.87,19.79 6.84,19.3 C7.17,19.14 7.4,18.8 7.4,18.4 L7.4,15.3 C8.85,14.82 10.4,14.57 12,14.57 C13.6,14.57 15.15,14.82 16.6,15.29 L16.6,18.39 C16.6,18.78 16.83,19.13 17.16,19.29 C18.14,19.78 19.03,20.41 19.82,21.14 C20,21.32 20.25,21.42 20.52,21.42 C20.8,21.42 21.05,21.31 21.23,21.13 L23.71,18.65 C23.89,18.47 24,18.22 24,17.94 C24,17.67 23.89,17.42 23.71,17.24 Z M5.4,17.8 C4.74,18.17 4.11,18.6 3.53,19.07 L2.46,18 C3.37,17.25 4.36,16.61 5.41,16.1 L5.41,17.8 L5.4,17.8 Z M20.47,19.06 C19.88,18.58 19.26,18.16 18.6,17.79 L18.6,16.09 C19.64,16.6 20.63,17.24 21.54,17.99 L20.47,19.06 Z M21.16,6.83 L19.75,5.42 L16.19,8.97 L17.6,10.38 C17.6,10.38 21.05,6.86 21.16,6.83 Z M11,2.57 L13,2.57 L13,7.57 L11,7.57 L11,2.57 Z M6.4,10.38 L7.81,8.97 L4.26,5.41 L2.84,6.83 C2.95,6.86 6.4,10.38 6.4,10.38 Z" id="path-1"></path>
    </defs>
    <g id="icon/communication/ring_volume_24px" stroke="none" stroke-width="1" fill="none" fill-rule="evenodd">
        <mask id="mask-2" fill="white">
            <use xlink:href="#path-1"></use>
        </mask>
        <g fill-rule="nonzero"></g>
        <g id="✱-/-Color-/-Icons-/-Black-/-Inactive" mask="url(#mask-2)" fill="#000000" fill-opacity="0.54">
            <rect id="Rectangle" x="0" y="0" width="24" height="24"></rect>
        </g>
    </g>
</svg>