<?xml version="1.0" encoding="UTF-8"?>
<svg width="24px" height="24px" viewBox="0 0 24 24" version="1.1" xmlns="http://www.w3.org/2000/svg" xmlns:xlink="http://www.w3.org/1999/xlink">
    <!-- Generator: Sketch 50 (54983) - http://www.bohemiancoding.com/sketch -->
    <title>icon/communication/stop_screen_share_24px_outlined</title>
    <desc>Created with Sketch.</desc>
    <defs>
        <path d="M21.79,17.86 L23.79,19.86 L24,19.86 L24,17.86 L21.79,17.86 Z M1.11,2.84 L2.66,4.4 C2.25,4.77 2,5.29 2,5.88 L2,15.86 C2,16.96 2.9,17.86 4.01,17.86 L0,17.86 L0,19.86 L18.13,19.86 L20.84,22.57 L22.25,21.16 L2.52,1.43 L1.11,2.84 Z M4,5.88 L4.13,5.88 L9.08,10.81 C7.94,11.93 7.31,13.38 7,14.86 C7.96,13.57 9.13,12.78 10.67,12.4 L14.13,15.88 L4,15.88 L4,5.88 Z M20,5.88 L20,16.07 L21.3,17.37 C21.72,17 22,16.48 22,15.88 L22,5.88 C22,4.77 21.1,3.88 20,3.88 L7.8,3.88 L9.8,5.88 L20,5.88 Z M12.93,9.01 L15.72,11.79 L17,10.59 L13,6.86 L13,8.99 L12.93,9.01 Z" id="path-1"></path>
    </defs>
    <g id="icon/communication/stop_screen_share_24px" stroke="none" stroke-width="1" fill="none" fill-rule="evenodd">
        <mask id="mask-2" fill="white">
            <use xlink:href="#path-1"></use>
        </mask>
        <g fill-rule="nonzero"></g>
        <g id="✱-/-Color-/-Icons-/-Black-/-Inactive" mask="url(#mask-2)" fill="#000000" fill-opacity="0.54">
            <rect id="Rectangle" x="0" y="0" width="24" height="24"></rect>
        </g>
    </g>
</svg>