<?xml version="1.0" encoding="UTF-8"?>
<svg width="24px" height="24px" viewBox="0 0 24 24" version="1.1" xmlns="http://www.w3.org/2000/svg" xmlns:xlink="http://www.w3.org/1999/xlink">
    <!-- Generator: Sketch 50 (54983) - http://www.bohemiancoding.com/sketch -->
    <title>icon/communication/swap_calls_24px_outlined</title>
    <desc>Created with Sketch.</desc>
    <defs>
        <path d="M18,4.5 L14,8.5 L17,8.5 L17,15.5 C17,16.6 16.1,17.5 15,17.5 C13.9,17.5 13,16.6 13,15.5 L13,8.5 C13,6.29 11.21,4.5 9,4.5 C6.79,4.5 5,6.29 5,8.5 L5,15.5 L2,15.5 L6,19.5 L10,15.5 L7,15.5 L7,8.5 C7,7.4 7.9,6.5 9,6.5 C10.1,6.5 11,7.4 11,8.5 L11,15.5 C11,17.71 12.79,19.5 15,19.5 C17.21,19.5 19,17.71 19,15.5 L19,8.5 L22,8.5 L18,4.5 Z" id="path-1"></path>
    </defs>
    <g id="icon/communication/swap_calls_24px" stroke="none" stroke-width="1" fill="none" fill-rule="evenodd">
        <mask id="mask-2" fill="white">
            <use xlink:href="#path-1"></use>
        </mask>
        <g fill-rule="nonzero"></g>
        <g id="✱-/-Color-/-Icons-/-Black-/-Inactive" mask="url(#mask-2)" fill="#000000" fill-opacity="0.54">
            <rect id="Rectangle" x="0" y="0" width="24" height="24"></rect>
        </g>
    </g>
</svg>