<?xml version="1.0" encoding="UTF-8"?>
<svg width="24px" height="24px" viewBox="0 0 24 24" version="1.1" xmlns="http://www.w3.org/2000/svg" xmlns:xlink="http://www.w3.org/1999/xlink">
    <!-- Generator: Sketch 50 (54983) - http://www.bohemiancoding.com/sketch -->
    <title>icon/communication/unsubscribe_24px_outlined</title>
    <desc>Created with Sketch.</desc>
    <defs>
        <path d="M20.4884364,14.5381806 L20.4884364,5.49818063 C20.4884364,4.39818063 19.5884364,3.49818063 18.4884364,3.49818063 L4.49843641,3.49818063 C3.39843641,3.49818063 2.49843641,4.39818063 2.49843641,5.49818063 L2.49843641,15.4981806 C2.49843641,16.5981806 3.39843641,17.4981806 4.49843641,17.4981806 L14.5484364,17.4981806 C14.8284364,19.4181806 16.6484364,20.8481806 18.7284364,20.4281806 C20.0684364,20.1581806 21.1584364,19.0581806 21.4284364,17.7181806 C21.6784364,16.4781806 21.2684364,15.3281806 20.4884364,14.5381806 Z M18.4884364,5.49818063 L11.4984364,8.99818063 L4.49843641,5.49818063 L18.4884364,5.49818063 Z M14.8484364,15.4981806 L4.49843641,15.4981806 L4.49843641,7.49818063 L11.4984364,10.9981806 L18.4984364,7.49818063 L18.4984364,13.5481806 C18.3384364,13.5281806 18.1684364,13.4981806 17.9984364,13.4981806 C16.6084364,13.4981806 15.4084364,14.3181806 14.8484364,15.4981806 Z M19.9984364,17.4981806 L15.9984364,17.4981806 L15.9984364,16.4981806 L19.9984364,16.4981806 L19.9984364,17.4981806 Z" id="path-1"></path>
    </defs>
    <g id="icon/communication/unsubscribe_24px" stroke="none" stroke-width="1" fill="none" fill-rule="evenodd">
        <mask id="mask-2" fill="white">
            <use xlink:href="#path-1"></use>
        </mask>
        <g fill-rule="nonzero"></g>
        <g id="✱-/-Color-/-Icons-/-Black-/-Inactive" mask="url(#mask-2)" fill="#000000" fill-opacity="0.54">
            <rect id="Rectangle" x="0" y="0" width="24" height="24"></rect>
        </g>
    </g>
</svg>