<?xml version="1.0" encoding="UTF-8"?>
<svg width="24px" height="24px" viewBox="0 0 24 24" version="1.1" xmlns="http://www.w3.org/2000/svg" xmlns:xlink="http://www.w3.org/1999/xlink">
    <!-- Generator: Sketch 50 (54983) - http://www.bohemiancoding.com/sketch -->
    <title>icon/av/add_to_queue_24px_outlined</title>
    <desc>Created with Sketch.</desc>
    <defs>
        <path d="M11,15 L13,15 L13,12 L16,12 L16,10 L13,10 L13,7 L11,7 L11,10 L8,10 L8,12 L11,12 L11,15 Z M21,3 L3,3 C1.89,3 1,3.89 1,5 L1,17 C1,18.1 1.89,19 3,19 L8,19 L8,21 L16,21 L16,19 L21,19 C22.1,19 23,18.1 23,17 L23,5 C23,3.89 22.1,3 21,3 Z M21,17 L3,17 L3,5 L21,5 L21,17 Z" id="path-1"></path>
    </defs>
    <g id="icon/av/add_to_queue_24px" stroke="none" stroke-width="1" fill="none" fill-rule="evenodd">
        <mask id="mask-2" fill="white">
            <use xlink:href="#path-1"></use>
        </mask>
        <g fill-rule="nonzero"></g>
        <g id="✱-/-Color-/-Icons-/-Black-/-Inactive" mask="url(#mask-2)" fill="#000000" fill-opacity="0.54">
            <rect id="Rectangle" x="0" y="0" width="24" height="24"></rect>
        </g>
    </g>
</svg>