<?xml version="1.0" encoding="UTF-8"?>
<svg width="24px" height="24px" viewBox="0 0 24 24" version="1.1" xmlns="http://www.w3.org/2000/svg" xmlns:xlink="http://www.w3.org/1999/xlink">
    <!-- Generator: Sketch 50 (54983) - http://www.bohemiancoding.com/sketch -->
    <title>icon/av/airplay_24px_outlined</title>
    <desc>Created with Sketch.</desc>
    <defs>
        <path d="M6,21.5 L18,21.5 L12,15.5 L6,21.5 Z M21,2.5 L3,2.5 C1.9,2.5 1,3.4 1,4.5 L1,16.5 C1,17.6 1.9,18.5 3,18.5 L7,18.5 L7,16.5 L3,16.5 L3,4.5 L21,4.5 L21,16.5 L17,16.5 L17,18.5 L21,18.5 C22.1,18.5 23,17.6 23,16.5 L23,4.5 C23,3.4 22.1,2.5 21,2.5 Z" id="path-1"></path>
    </defs>
    <g id="icon/av/airplay_24px" stroke="none" stroke-width="1" fill="none" fill-rule="evenodd">
        <mask id="mask-2" fill="white">
            <use xlink:href="#path-1"></use>
        </mask>
        <g fill-rule="nonzero"></g>
        <g id="✱-/-Color-/-Icons-/-Black-/-Inactive" mask="url(#mask-2)" fill="#000000" fill-opacity="0.54">
            <rect id="Rectangle" x="0" y="0" width="24" height="24"></rect>
        </g>
    </g>
</svg>