<?xml version="1.0" encoding="UTF-8"?>
<svg width="24px" height="24px" viewBox="0 0 24 24" version="1.1" xmlns="http://www.w3.org/2000/svg" xmlns:xlink="http://www.w3.org/1999/xlink">
    <!-- Generator: Sketch 50 (54983) - http://www.bohemiancoding.com/sketch -->
    <title>icon/av/closed_caption_24px_outlined</title>
    <desc>Created with Sketch.</desc>
    <defs>
        <path d="M19,4 L5,4 C3.89,4 3,4.9 3,6 L3,18 C3,19.1 3.89,20 5,20 L19,20 C20.1,20 21,19.1 21,18 L21,6 C21,4.9 20.1,4 19,4 Z M19,18 L5,18 L5,6 L19,6 L19,18 Z M7,15 L10,15 C10.55,15 11,14.55 11,14 L11,13 L9.5,13 L9.5,13.5 L7.5,13.5 L7.5,10.5 L9.5,10.5 L9.5,11 L11,11 L11,10 C11,9.45 10.55,9 10,9 L7,9 C6.45,9 6,9.45 6,10 L6,14 C6,14.55 6.45,15 7,15 Z M14,15 L17,15 C17.55,15 18,14.55 18,14 L18,13 L16.5,13 L16.5,13.5 L14.5,13.5 L14.5,10.5 L16.5,10.5 L16.5,11 L18,11 L18,10 C18,9.45 17.55,9 17,9 L14,9 C13.45,9 13,9.45 13,10 L13,14 C13,14.55 13.45,15 14,15 Z" id="path-1"></path>
    </defs>
    <g id="icon/av/closed_caption_24px" stroke="none" stroke-width="1" fill="none" fill-rule="evenodd">
        <mask id="mask-2" fill="white">
            <use xlink:href="#path-1"></use>
        </mask>
        <g fill-rule="nonzero"></g>
        <g id="✱-/-Color-/-Icons-/-Black-/-Inactive" mask="url(#mask-2)" fill="#000000" fill-opacity="0.54">
            <rect id="Rectangle" x="0" y="0" width="24" height="24"></rect>
        </g>
    </g>
</svg>