<?xml version="1.0" encoding="UTF-8"?>
<svg width="24px" height="24px" viewBox="0 0 24 24" version="1.1" xmlns="http://www.w3.org/2000/svg" xmlns:xlink="http://www.w3.org/1999/xlink">
    <!-- Generator: Sketch 50 (54983) - http://www.bohemiancoding.com/sketch -->
    <title>icon/av/control_camera_24px_outlined</title>
    <desc>Created with Sketch.</desc>
    <defs>
        <path d="M5.54,8.46 L2,12 L5.54,15.54 L7.3,13.77 L5.54,12 L7.3,10.23 L5.54,8.46 Z M12,18.46 L10.23,16.7 L8.46,18.46 L12,22 L15.54,18.46 L13.77,16.7 L12,18.46 Z M18.46,8.46 L16.7,10.23 L18.46,12 L16.7,13.77 L18.46,15.54 L22,12 L18.46,8.46 Z M8.46,5.54 L10.23,7.3 L12,5.54 L13.77,7.3 L15.54,5.54 L12,2 L8.46,5.54 Z M12,9 C10.3431458,9 9,10.3431458 9,12 C9,13.6568542 10.3431458,15 12,15 C13.6568542,15 15,13.6568542 15,12 C15,10.3431458 13.6568542,9 12,9 Z" id="path-1"></path>
    </defs>
    <g id="icon/av/control_camera_24px" stroke="none" stroke-width="1" fill="none" fill-rule="evenodd">
        <mask id="mask-2" fill="white">
            <use xlink:href="#path-1"></use>
        </mask>
        <g fill-rule="nonzero"></g>
        <g id="✱-/-Color-/-Icons-/-Black-/-Inactive" mask="url(#mask-2)" fill="#000000" fill-opacity="0.54">
            <rect id="Rectangle" x="0" y="0" width="24" height="24"></rect>
        </g>
    </g>
</svg>