<?xml version="1.0" encoding="UTF-8"?>
<svg width="24px" height="24px" viewBox="0 0 24 24" version="1.1" xmlns="http://www.w3.org/2000/svg" xmlns:xlink="http://www.w3.org/1999/xlink">
    <!-- Generator: Sketch 50 (54983) - http://www.bohemiancoding.com/sketch -->
    <title>icon/av/fiber_new_24px_outlined</title>
    <desc>Created with Sketch.</desc>
    <defs>
        <path d="M7.25,12.5 L4.75,9 L3.5,9 L3.5,15 L4.75,15 L4.75,11.5 L7.3,15 L8.5,15 L8.5,9 L7.25,9 L7.25,12.5 Z M9.5,15 L13.5,15 L13.5,13.75 L11,13.75 L11,12.64 L13.5,12.64 L13.5,11.38 L11,11.38 L11,10.26 L13.5,10.26 L13.5,9 L9.5,9 L9.5,15 Z M19.25,9 L19.25,13.5 L18.13,13.5 L18.13,9.99 L16.88,9.99 L16.88,13.51 L15.75,13.51 L15.75,9 L14.5,9 L14.5,14 C14.5,14.55 14.95,15 15.5,15 L19.5,15 C20.05,15 20.5,14.55 20.5,14 L20.5,9 L19.25,9 Z" id="path-1"></path>
    </defs>
    <g id="icon/av/fiber_new_24px" stroke="none" stroke-width="1" fill="none" fill-rule="evenodd">
        <mask id="mask-2" fill="white">
            <use xlink:href="#path-1"></use>
        </mask>
        <g fill-rule="nonzero"></g>
        <g id="✱-/-Color-/-Icons-/-Black-/-Inactive" mask="url(#mask-2)" fill="#000000" fill-opacity="0.54">
            <rect id="Rectangle" x="0" y="0" width="24" height="24"></rect>
        </g>
    </g>
</svg>