<?xml version="1.0" encoding="UTF-8"?>
<svg width="24px" height="24px" viewBox="0 0 24 24" version="1.1" xmlns="http://www.w3.org/2000/svg" xmlns:xlink="http://www.w3.org/1999/xlink">
    <!-- Generator: Sketch 50 (54983) - http://www.bohemiancoding.com/sketch -->
    <title>icon/av/forward_10_24px_outlined</title>
    <desc>Created with Sketch.</desc>
    <defs>
        <path d="M18,14 C18,17.31 15.31,20 12,20 C8.69,20 6,17.31 6,14 C6,10.69 8.69,8 12,8 L12,12 L17,7 L12,2 L12,6 C7.58,6 4,9.58 4,14 C4,18.42 7.58,22 12,22 C16.42,22 20,18.42 20,14 L18,14 Z M10.9,17 L10.9,12.73 L10.81,12.73 L9.04,13.36 L9.04,14.05 L10.05,13.74 L10.05,17 L10.9,17 Z M14.32,12.78 C14.14,12.71 13.95,12.68 13.73,12.68 C13.51,12.68 13.32,12.71 13.14,12.78 C12.96,12.85 12.81,12.96 12.69,13.11 C12.57,13.26 12.46,13.45 12.4,13.68 C12.34,13.91 12.3,14.18 12.3,14.5 L12.3,15.24 C12.3,15.56 12.34,15.84 12.41,16.06 C12.48,16.28 12.58,16.48 12.71,16.63 C12.84,16.78 12.99,16.89 13.17,16.96 C13.35,17.03 13.54,17.06 13.76,17.06 C13.98,17.06 14.17,17.03 14.35,16.96 C14.53,16.89 14.68,16.78 14.8,16.63 C14.92,16.48 15.02,16.29 15.09,16.06 C15.16,15.83 15.19,15.56 15.19,15.24 L15.19,14.5 C15.19,14.18 15.15,13.9 15.08,13.68 C15.01,13.46 14.91,13.26 14.78,13.11 C14.65,12.96 14.49,12.85 14.32,12.78 Z M14.33,15.35 C14.33,15.54 14.32,15.7 14.29,15.83 C14.26,15.96 14.23,16.07 14.18,16.15 C14.13,16.23 14.07,16.29 13.99,16.32 C13.91,16.35 13.83,16.37 13.74,16.37 C13.65,16.37 13.56,16.35 13.49,16.32 C13.42,16.29 13.35,16.23 13.3,16.15 C13.25,16.07 13.21,15.96 13.18,15.83 C13.15,15.7 13.14,15.54 13.14,15.35 L13.14,14.38 C13.14,14.19 13.15,14.03 13.18,13.9 C13.21,13.77 13.24,13.67 13.3,13.59 C13.36,13.51 13.41,13.45 13.49,13.42 C13.57,13.39 13.65,13.37 13.74,13.37 C13.83,13.37 13.92,13.39 13.99,13.42 C14.06,13.45 14.13,13.51 14.18,13.59 C14.23,13.67 14.27,13.77 14.3,13.9 C14.33,14.03 14.34,14.19 14.34,14.38 L14.34,15.35 L14.33,15.35 Z" id="path-1"></path>
    </defs>
    <g id="icon/av/forward_10_24px" stroke="none" stroke-width="1" fill="none" fill-rule="evenodd">
        <mask id="mask-2" fill="white">
            <use xlink:href="#path-1"></use>
        </mask>
        <g fill-rule="nonzero"></g>
        <g id="✱-/-Color-/-Icons-/-Black-/-Inactive" mask="url(#mask-2)" fill="#000000" fill-opacity="0.54">
            <rect id="Rectangle" x="0" y="0" width="24" height="24"></rect>
        </g>
    </g>
</svg>