<?xml version="1.0" encoding="UTF-8"?>
<svg width="24px" height="24px" viewBox="0 0 24 24" version="1.1" xmlns="http://www.w3.org/2000/svg" xmlns:xlink="http://www.w3.org/1999/xlink">
    <!-- Generator: Sketch 50 (54983) - http://www.bohemiancoding.com/sketch -->
    <title>icon/av/forward_5_24px_outlined</title>
    <desc>Created with Sketch.</desc>
    <defs>
        <path d="M18,14 C18,17.31 15.31,20 12,20 C8.69,20 6,17.31 6,14 C6,10.69 8.69,8 12,8 L12,12 L17,7 L12,2 L12,6 C7.58,6 4,9.58 4,14 C4,18.42 7.58,22 12,22 C16.42,22 20,18.42 20,14 L18,14 Z M12.48,16.15 C12.43,16.22 12.37,16.28 12.3,16.32 C12.23,16.36 12.13,16.38 12.03,16.38 C11.86,16.38 11.72,16.33 11.61,16.23 C11.5,16.13 11.44,15.99 11.42,15.82 L10.58,15.82 C10.59,16.02 10.63,16.19 10.71,16.35 C10.79,16.51 10.9,16.63 11.03,16.74 C11.16,16.85 11.32,16.93 11.49,16.98 C11.66,17.03 11.84,17.06 12.02,17.06 C12.26,17.06 12.48,17.02 12.66,16.94 C12.84,16.86 12.99,16.76 13.11,16.63 C13.23,16.5 13.32,16.35 13.38,16.18 C13.44,16.01 13.47,15.83 13.47,15.64 C13.47,15.42 13.44,15.21 13.38,15.04 C13.32,14.87 13.24,14.71 13.13,14.59 C13.02,14.47 12.88,14.37 12.72,14.31 C12.56,14.25 12.38,14.21 12.17,14.21 C12.1,14.21 12.03,14.22 11.97,14.23 C11.91,14.24 11.84,14.25 11.79,14.27 C11.74,14.29 11.69,14.3 11.64,14.32 C11.59,14.34 11.56,14.36 11.53,14.37 L11.64,13.45 L13.34,13.45 L13.34,12.74 L10.95,12.74 L10.7,14.91 L11.37,15.08 C11.4,15.05 11.43,15.02 11.47,14.99 C11.51,14.96 11.54,14.94 11.59,14.92 C11.64,14.9 11.69,14.88 11.74,14.87 C11.79,14.86 11.87,14.85 11.94,14.85 C12.06,14.85 12.16,14.87 12.24,14.9 C12.32,14.93 12.4,14.99 12.45,15.05 C12.5,15.11 12.55,15.19 12.58,15.29 C12.61,15.39 12.62,15.48 12.62,15.6 C12.62,15.72 12.61,15.82 12.59,15.91 C12.57,16 12.53,16.08 12.48,16.15 Z" id="path-1"></path>
    </defs>
    <g id="icon/av/forward_5_24px" stroke="none" stroke-width="1" fill="none" fill-rule="evenodd">
        <mask id="mask-2" fill="white">
            <use xlink:href="#path-1"></use>
        </mask>
        <g fill-rule="nonzero"></g>
        <g id="✱-/-Color-/-Icons-/-Black-/-Inactive" mask="url(#mask-2)" fill="#000000" fill-opacity="0.54">
            <rect id="Rectangle" x="0" y="0" width="24" height="24"></rect>
        </g>
    </g>
</svg>