<?xml version="1.0" encoding="UTF-8"?>
<svg width="24px" height="24px" viewBox="0 0 24 24" version="1.1" xmlns="http://www.w3.org/2000/svg" xmlns:xlink="http://www.w3.org/1999/xlink">
    <!-- Generator: Sketch 50 (54983) - http://www.bohemiancoding.com/sketch -->
    <title>icon/av/high_quality_24px_outlined</title>
    <desc>Created with Sketch.</desc>
    <defs>
        <path d="M19,4 L5,4 C3.89,4 3,4.9 3,6 L3,18 C3,19.1 3.89,20 5,20 L19,20 C20.1,20 21,19.1 21,18 L21,6 C21,4.9 20.1,4 19,4 Z M19,18 L5,18 L5,6 L19,6 L19,18 Z M7.5,13 L9.5,13 L9.5,15 L11,15 L11,9 L9.5,9 L9.5,11.5 L7.5,11.5 L7.5,9 L6,9 L6,15 L7.5,15 L7.5,13 Z M14,15 L14.75,15 L14.75,16.5 L16.25,16.5 L16.25,15 L17,15 C17.55,15 18,14.55 18,14 L18,10 C18,9.45 17.55,9 17,9 L14,9 C13.45,9 13,9.45 13,10 L13,14 C13,14.55 13.45,15 14,15 Z M14.5,10.5 L16.5,10.5 L16.5,13.5 L14.5,13.5 L14.5,10.5 Z" id="path-1"></path>
    </defs>
    <g id="icon/av/high_quality_24px" stroke="none" stroke-width="1" fill="none" fill-rule="evenodd">
        <mask id="mask-2" fill="white">
            <use xlink:href="#path-1"></use>
        </mask>
        <g fill-rule="nonzero"></g>
        <g id="✱-/-Color-/-Icons-/-Black-/-Inactive" mask="url(#mask-2)" fill="#000000" fill-opacity="0.54">
            <rect id="Rectangle" x="0" y="0" width="24" height="24"></rect>
        </g>
    </g>
</svg>