<?xml version="1.0" encoding="UTF-8"?>
<svg width="24px" height="24px" viewBox="0 0 24 24" version="1.1" xmlns="http://www.w3.org/2000/svg" xmlns:xlink="http://www.w3.org/1999/xlink">
    <!-- Generator: Sketch 50 (54983) - http://www.bohemiancoding.com/sketch -->
    <title>icon/av/recent_actors_24px_outlined</title>
    <desc>Created with Sketch.</desc>
    <defs>
        <path d="M21,5 L23,5 L23,19 L21,19 L21,5 Z M17,5 L19,5 L19,19 L17,19 L17,5 Z M14,5 L2,5 C1.45,5 1,5.45 1,6 L1,18 C1,18.55 1.45,19 2,19 L14,19 C14.55,19 15,18.55 15,18 L15,6 C15,5.45 14.55,5 14,5 Z M13,17 L3,17 L3,7 L13,7 L13,17 Z M8,7.99 C6.92304474,7.99 6.05,8.86304474 6.05,9.94 C6.05,11.0169553 6.92304474,11.89 8,11.89 C9.07695526,11.89 9.95,11.0169553 9.95,9.94 C9.95,8.86304474 9.07695526,7.99 8,7.99 Z M11.89,15.35 C11.89,14.05 9.3,13.4 8,13.4 C6.7,13.4 4.11,14.05 4.11,15.35 L4.11,16 L11.89,16 L11.89,15.35 Z" id="path-1"></path>
    </defs>
    <g id="icon/av/recent_actors_24px" stroke="none" stroke-width="1" fill="none" fill-rule="evenodd">
        <mask id="mask-2" fill="white">
            <use xlink:href="#path-1"></use>
        </mask>
        <g fill-rule="nonzero"></g>
        <g id="✱-/-Color-/-Icons-/-Black-/-Inactive" mask="url(#mask-2)" fill="#000000" fill-opacity="0.54">
            <rect id="Rectangle" x="0" y="0" width="24" height="24"></rect>
        </g>
    </g>
</svg>