<?xml version="1.0" encoding="UTF-8"?>
<svg width="24px" height="24px" viewBox="0 0 24 24" version="1.1" xmlns="http://www.w3.org/2000/svg" xmlns:xlink="http://www.w3.org/1999/xlink">
    <!-- Generator: Sketch 50 (54983) - http://www.bohemiancoding.com/sketch -->
    <title>icon/av/replay_5_24px_outlined</title>
    <desc>Created with Sketch.</desc>
    <defs>
        <path d="M12,6 L12,2 L7,7 L12,12 L12,8 C15.31,8 18,10.69 18,14 C18,17.31 15.31,20 12,20 C8.69,20 6,17.31 6,14 L4,14 C4,18.42 7.58,22 12,22 C16.42,22 20,18.42 20,14 C20,9.58 16.42,6 12,6 Z M10.69,14.9 L10.94,12.73 L13.33,12.73 L13.33,13.44 L11.63,13.44 L11.52,14.36 C11.55,14.34 11.59,14.33 11.63,14.31 C11.67,14.29 11.72,14.27 11.78,14.26 C11.84,14.25 11.9,14.23 11.96,14.22 C12.02,14.21 12.09,14.2 12.16,14.2 C12.37,14.2 12.55,14.23 12.71,14.3 C12.87,14.37 13.01,14.46 13.12,14.58 C13.23,14.7 13.32,14.85 13.37,15.03 C13.42,15.21 13.46,15.41 13.46,15.63 C13.46,15.82 13.43,16 13.37,16.17 C13.31,16.34 13.22,16.49 13.1,16.62 C12.98,16.75 12.83,16.86 12.65,16.93 C12.47,17 12.26,17.05 12.01,17.05 C11.83,17.05 11.65,17.02 11.48,16.97 C11.31,16.92 11.16,16.83 11.02,16.73 C10.88,16.63 10.78,16.49 10.7,16.34 C10.62,16.19 10.57,16.01 10.57,15.81 L11.41,15.81 C11.43,15.99 11.49,16.13 11.6,16.22 C11.71,16.31 11.85,16.37 12.02,16.37 C12.13,16.37 12.22,16.35 12.29,16.31 C12.36,16.27 12.43,16.21 12.47,16.14 C12.51,16.07 12.55,15.99 12.58,15.89 C12.61,15.79 12.61,15.69 12.61,15.58 C12.61,15.47 12.6,15.37 12.57,15.27 C12.54,15.17 12.5,15.1 12.44,15.03 C12.38,14.96 12.31,14.91 12.23,14.88 C12.15,14.85 12.04,14.83 11.93,14.83 C11.85,14.83 11.78,14.84 11.73,14.85 C11.68,14.86 11.62,14.88 11.58,14.9 C11.54,14.92 11.5,14.95 11.46,14.97 C11.42,14.99 11.39,15.03 11.36,15.06 L10.69,14.9 Z" id="path-1"></path>
    </defs>
    <g id="icon/av/replay_5_24px" stroke="none" stroke-width="1" fill="none" fill-rule="evenodd">
        <mask id="mask-2" fill="white">
            <use xlink:href="#path-1"></use>
        </mask>
        <g fill-rule="nonzero"></g>
        <g id="✱-/-Color-/-Icons-/-Black-/-Inactive" mask="url(#mask-2)" fill="#000000" fill-opacity="0.54">
            <rect id="Rectangle" x="0" y="0" width="24" height="24"></rect>
        </g>
    </g>
</svg>