<?xml version="1.0" encoding="UTF-8"?>
<svg width="24px" height="24px" viewBox="0 0 24 24" version="1.1" xmlns="http://www.w3.org/2000/svg" xmlns:xlink="http://www.w3.org/1999/xlink">
    <!-- Generator: Sketch 50 (54983) - http://www.bohemiancoding.com/sketch -->
    <title>icon/av/subscriptions_24px_outlined</title>
    <desc>Created with Sketch.</desc>
    <defs>
        <path d="M4,6 L20,6 L20,8 L4,8 L4,6 Z M6,2 L18,2 L18,4 L6,4 L6,2 Z M20,10 L4,10 C2.9,10 2,10.9 2,12 L2,20 C2,21.1 2.9,22 4,22 L20,22 C21.1,22 22,21.1 22,20 L22,12 C22,10.9 21.1,10 20,10 Z M20,20 L4,20 L4,12 L20,12 L20,20 Z M10,12.73 L10,19.26 L16,16 L10,12.73 Z" id="path-1"></path>
    </defs>
    <g id="icon/av/subscriptions_24px" stroke="none" stroke-width="1" fill="none" fill-rule="evenodd">
        <mask id="mask-2" fill="white">
            <use xlink:href="#path-1"></use>
        </mask>
        <g fill-rule="nonzero"></g>
        <g id="✱-/-Color-/-Icons-/-Black-/-Inactive" mask="url(#mask-2)" fill="#000000" fill-opacity="0.54">
            <rect id="Rectangle" x="0" y="0" width="24" height="24"></rect>
        </g>
    </g>
</svg>