<?xml version="1.0" encoding="UTF-8"?>
<svg width="24px" height="24px" viewBox="0 0 24 24" version="1.1" xmlns="http://www.w3.org/2000/svg" xmlns:xlink="http://www.w3.org/1999/xlink">
    <!-- Generator: Sketch 50 (54983) - http://www.bohemiancoding.com/sketch -->
    <title>icon/av/videocam_off_24px_outlined</title>
    <desc>Created with Sketch.</desc>
    <defs>
        <path d="M9.99,8.57 L7.99,6.57 L3.84,2.43 L2.43,3.84 L5.16,6.57 L4.43,6.57 C3.88,6.57 3.43,7.02 3.43,7.57 L3.43,17.57 C3.43,18.12 3.88,18.57 4.43,18.57 L16.43,18.57 C16.64,18.57 16.82,18.49 16.98,18.39 L20.16,21.57 L21.57,20.16 L12.71,11.3 L9.99,8.57 Z M5.43,16.57 L5.43,8.57 L7.16,8.57 L15.16,16.57 L5.43,16.57 Z M15.43,8.57 L15.43,11.18 L21.43,17.18 L21.43,7.07 L17.43,11.07 L17.43,7.57 C17.43,7.02 16.98,6.57 16.43,6.57 L10.82,6.57 L12.82,8.57 L15.43,8.57 Z" id="path-1"></path>
    </defs>
    <g id="icon/av/videocam_off_24px" stroke="none" stroke-width="1" fill="none" fill-rule="evenodd">
        <mask id="mask-2" fill="white">
            <use xlink:href="#path-1"></use>
        </mask>
        <g fill-rule="nonzero"></g>
        <g id="✱-/-Color-/-Icons-/-Black-/-Inactive" mask="url(#mask-2)" fill="#000000" fill-opacity="0.54">
            <rect id="Rectangle" x="0" y="0" width="24" height="24"></rect>
        </g>
    </g>
</svg>