<?xml version="1.0" encoding="UTF-8"?>
<svg width="24px" height="24px" viewBox="0 0 24 24" version="1.1" xmlns="http://www.w3.org/2000/svg" xmlns:xlink="http://www.w3.org/1999/xlink">
    <!-- Generator: Sketch 50 (54983) - http://www.bohemiancoding.com/sketch -->
    <title>icon/av/video_call_24px_outlined</title>
    <desc>Created with Sketch.</desc>
    <defs>
        <path d="M17,10.5 L17,7 C17,6.45 16.55,6 16,6 L4,6 C3.45,6 3,6.45 3,7 L3,17 C3,17.55 3.45,18 4,18 L16,18 C16.55,18 17,17.55 17,17 L17,13.5 L21,17.5 L21,6.5 L17,10.5 Z M15,16 L5,16 L5,8 L15,8 L15,16 Z M9,15 L11,15 L11,13 L13,13 L13,11 L11,11 L11,9 L9,9 L9,11 L7,11 L7,13 L9,13 L9,15 Z" id="path-1"></path>
    </defs>
    <g id="icon/av/video_call_24px" stroke="none" stroke-width="1" fill="none" fill-rule="evenodd">
        <mask id="mask-2" fill="white">
            <use xlink:href="#path-1"></use>
        </mask>
        <g fill-rule="nonzero"></g>
        <g id="✱-/-Color-/-Icons-/-Black-/-Inactive" mask="url(#mask-2)" fill="#000000" fill-opacity="0.54">
            <rect id="Rectangle" x="0" y="0" width="24" height="24"></rect>
        </g>
    </g>
</svg>