<?xml version="1.0" encoding="UTF-8"?>
<svg width="24px" height="24px" viewBox="0 0 24 24" version="1.1" xmlns="http://www.w3.org/2000/svg" xmlns:xlink="http://www.w3.org/1999/xlink">
    <!-- Generator: Sketch 50 (54983) - http://www.bohemiancoding.com/sketch -->
    <title>icon/av/volume_off_24px_outlined</title>
    <desc>Created with Sketch.</desc>
    <defs>
        <path d="M4.34,2.935 L2.93,4.345 L7.29,8.705 L7,9.005 L3,9.005 L3,15.005 L7,15.005 L12,20.005 L12,13.415 L16.18,17.595 C15.53,18.085 14.8,18.475 14,18.705 L14,20.765 C15.34,20.465 16.57,19.845 17.61,19.015 L19.66,21.065 L21.07,19.655 L4.34,2.935 Z M10,15.175 L7.83,13.005 L5,13.005 L5,11.005 L7.83,11.005 L8.71,10.125 L10,11.415 L10,15.175 Z M19,12.005 C19,12.825 18.85,13.615 18.59,14.345 L20.12,15.875 C20.68,14.705 21,13.395 21,12.005 C21,7.725 18.01,4.145 14,3.235 L14,5.295 C16.89,6.155 19,8.835 19,12.005 Z M12,4.005 L10.12,5.885 L12,7.765 L12,4.005 Z M16.5,12.005 C16.5,10.235 15.48,8.715 14,7.975 L14,9.765 L16.48,12.245 C16.49,12.165 16.5,12.085 16.5,12.005 Z" id="path-1"></path>
    </defs>
    <g id="icon/av/volume_off_24px" stroke="none" stroke-width="1" fill="none" fill-rule="evenodd">
        <mask id="mask-2" fill="white">
            <use xlink:href="#path-1"></use>
        </mask>
        <g fill-rule="nonzero"></g>
        <g id="✱-/-Color-/-Icons-/-Black-/-Inactive" mask="url(#mask-2)" fill="#000000" fill-opacity="0.54">
            <rect id="Rectangle" x="0" y="0" width="24" height="24"></rect>
        </g>
    </g>
</svg>