<?xml version="1.0" encoding="UTF-8"?>
<svg width="24px" height="24px" viewBox="0 0 24 24" version="1.1" xmlns="http://www.w3.org/2000/svg" xmlns:xlink="http://www.w3.org/1999/xlink">
    <!-- Generator: Sketch 50 (54983) - http://www.bohemiancoding.com/sketch -->
    <title>icon/action/add_shopping_cart_24px</title>
    <desc>Created with Sketch.</desc>
    <defs>
        <path d="M11,9 L13,9 L13,6 L16,6 L16,4 L13,4 L13,1 L11,1 L11,4 L8,4 L8,6 L11,6 L11,9 Z M7,18 C5.9,18 5.01,18.9 5.01,20 C5.01,21.1 5.9,22 7,22 C8.1,22 9,21.1 9,20 C9,18.9 8.1,18 7,18 Z M17,18 C15.9,18 15.01,18.9 15.01,20 C15.01,21.1 15.9,22 17,22 C18.1,22 19,21.1 19,20 C19,18.9 18.1,18 17,18 Z M8.1,13 L15.55,13 C16.3,13 16.96,12.59 17.3,11.97 L21.16,4.96 L19.41,4 L15.55,11 L8.53,11 L4.27,2 L1,2 L1,4 L3,4 L6.6,11.59 L5.25,14.03 C4.52,15.37 5.48,17 7,17 L19,17 L19,15 L7,15 L8.1,13 Z" id="path-1"></path>
    </defs>
    <g id="icon/action/add_shopping_cart_24px" stroke="none" stroke-width="1" fill="none" fill-rule="evenodd">
        <mask id="mask-2" fill="white">
            <use xlink:href="#path-1"></use>
        </mask>
        <g fill-rule="nonzero"></g>
        <g id="✱-/-Color-/-Icons-/-Black-/-Inactive" mask="url(#mask-2)" fill="#000000" fill-opacity="0.54">
            <rect id="Rectangle" x="0" y="0" width="24" height="24"></rect>
        </g>
    </g>
</svg>