<?xml version="1.0" encoding="UTF-8"?>
<svg width="24px" height="24px" viewBox="0 0 24 24" version="1.1" xmlns="http://www.w3.org/2000/svg" xmlns:xlink="http://www.w3.org/1999/xlink">
    <!-- Generator: Sketch 50 (54983) - http://www.bohemiancoding.com/sketch -->
    <title>icon/action/alarm_off_24px</title>
    <desc>Created with Sketch.</desc>
    <defs>
        <path d="M10.26305,6.385 C10.88305,6.205 11.54305,6.095 12.22305,6.095 C16.08305,6.095 19.22305,9.235 19.22305,13.095 C19.22305,13.775 19.11305,14.435 18.93305,15.055 L20.49305,16.615 C20.96305,15.535 21.22305,14.345 21.22305,13.095 C21.22305,8.125 17.19305,4.095 12.22305,4.095 C10.97305,4.095 9.78305,4.355 8.69305,4.815 L10.26305,6.385 Z M17.55955,1.906 L22.16695,5.7496 L20.88575,7.2854 L16.27835,3.4418 L17.55955,1.906 Z M3.24305,2.195 L1.83305,3.605 L3.20305,4.975 L2.28305,5.745 L3.56305,7.285 L4.62305,6.405 L5.42305,7.205 C4.05305,8.785 3.22305,10.845 3.22305,13.095 C3.22305,18.065 7.25305,22.095 12.22305,22.095 C14.47305,22.095 16.53305,21.265 18.11305,19.895 L20.21305,21.995 L21.62305,20.585 L3.24305,2.195 Z M12.22305,20.095 C8.36305,20.095 5.22305,16.955 5.22305,13.095 C5.22305,11.395 5.83305,9.835 6.84305,8.625 L16.69305,18.475 C15.48305,19.485 13.92305,20.095 12.22305,20.095 Z M7.70305,3.825 L8.16305,3.445 L6.88305,1.905 L6.28305,2.405 L7.70305,3.825 Z" id="path-1"></path>
    </defs>
    <g id="icon/action/alarm_off_24px" stroke="none" stroke-width="1" fill="none" fill-rule="evenodd">
        <mask id="mask-2" fill="white">
            <use xlink:href="#path-1"></use>
        </mask>
        <g fill-rule="nonzero"></g>
        <g id="✱-/-Color-/-Icons-/-Black-/-Inactive" mask="url(#mask-2)" fill="#000000" fill-opacity="0.54">
            <rect id="Rectangle" x="0" y="0" width="24" height="24"></rect>
        </g>
    </g>
</svg>