<?xml version="1.0" encoding="UTF-8"?>
<svg width="24px" height="24px" viewBox="0 0 24 24" version="1.1" xmlns="http://www.w3.org/2000/svg" xmlns:xlink="http://www.w3.org/1999/xlink">
    <!-- Generator: Sketch 50 (54983) - http://www.bohemiancoding.com/sketch -->
    <title>icon/action/all_out_24px</title>
    <desc>Created with Sketch.</desc>
    <defs>
        <path d="M4,4 L4,8 L8,4 L4,4 Z M16,4 L20,8 L20,4 L16,4 Z M20,20 L20,16 L16,20 L20,20 Z M4,20 L8,20 L4,16 L4,20 Z M19,12 C19,8.13 15.87,5 12,5 C8.13,5 5,8.13 5,12 C5,15.87 8.13,19 12,19 C15.87,19 19,15.87 19,12 Z M12,17 C9.24,17 7,14.76 7,12 C7,9.24 9.24,7 12,7 C14.76,7 17,9.24 17,12 C17,14.76 14.76,17 12,17 Z" id="path-1"></path>
    </defs>
    <g id="icon/action/all_out_24px" stroke="none" stroke-width="1" fill="none" fill-rule="evenodd">
        <mask id="mask-2" fill="white">
            <use xlink:href="#path-1"></use>
        </mask>
        <g fill-rule="nonzero"></g>
        <g id="✱-/-Color-/-Icons-/-Black-/-Inactive" mask="url(#mask-2)" fill="#000000" fill-opacity="0.54">
            <rect id="Rectangle" x="0" y="0" width="24" height="24"></rect>
        </g>
    </g>
</svg>