<?xml version="1.0" encoding="UTF-8"?>
<svg width="24px" height="24px" viewBox="0 0 24 24" version="1.1" xmlns="http://www.w3.org/2000/svg" xmlns:xlink="http://www.w3.org/1999/xlink">
    <!-- Generator: Sketch 50 (54983) - http://www.bohemiancoding.com/sketch -->
    <title>icon/action/all_inbox_24px</title>
    <desc>Created with Sketch.</desc>
    <defs>
        <path d="M19,3 L5,3 C3.9,3 3,3.9 3,5 L3,12 C3,13.1 3.9,14 5,14 L19,14 C20.1,14 21,13.1 21,12 L21,5 C21,3.9 20.1,3 19,3 Z M19,9 L15,9 C15,10.62 13.62,12 12,12 C10.38,12 9,10.62 9,9 L5,9 L5,5 L19,5 L19,9 Z M15,16 L21,16 L21,19 C21,20.1 20.1,21 19,21 L5,21 C3.9,21 3,20.1 3,19 L3,16 L9,16 C9,17.66 10.34,19 12,19 C13.66,19 15,17.66 15,16 Z" id="path-1"></path>
    </defs>
    <g id="icon/action/all_inbox_24px" stroke="none" stroke-width="1" fill="none" fill-rule="evenodd">
        <mask id="mask-2" fill="white">
            <use xlink:href="#path-1"></use>
        </mask>
        <g fill-rule="nonzero"></g>
        <g id="✱-/-Color-/-Icons-/-Black-/-Inactive" mask="url(#mask-2)" fill="#000000" fill-opacity="0.54">
            <rect id="Rectangle" x="0" y="0" width="24" height="24"></rect>
        </g>
    </g>
</svg>