<?xml version="1.0" encoding="UTF-8"?>
<svg width="24px" height="24px" viewBox="0 0 24 24" version="1.1" xmlns="http://www.w3.org/2000/svg" xmlns:xlink="http://www.w3.org/1999/xlink">
    <!-- Generator: Sketch 50 (54983) - http://www.bohemiancoding.com/sketch -->
    <title>icon/action/chrome_reader_mode_24px</title>
    <desc>Created with Sketch.</desc>
    <defs>
        <path d="M21,4 L3,4 C1.9,4 1,4.9 1,6 L1,19 C1,20.1 1.9,21 3,21 L21,21 C22.1,21 23,20.1 23,19 L23,6 C23,4.9 22.1,4 21,4 Z M21,19 L12,19 L12,6 L21,6 L21,19 Z M13,9.5 L20,9.5 L20,11 L13,11 L13,9.5 Z M13,12 L20,12 L20,13.5 L13,13.5 L13,12 Z M13,14.5 L20,14.5 L20,16 L13,16 L13,14.5 Z" id="path-1"></path>
    </defs>
    <g id="icon/action/chrome_reader_mode_24px" stroke="none" stroke-width="1" fill="none" fill-rule="evenodd">
        <mask id="mask-2" fill="white">
            <use xlink:href="#path-1"></use>
        </mask>
        <g fill-rule="nonzero"></g>
        <g id="✱-/-Color-/-Icons-/-Black-/-Inactive" mask="url(#mask-2)" fill="#000000" fill-opacity="0.54">
            <rect id="Rectangle" x="0" y="0" width="24" height="24"></rect>
        </g>
    </g>
</svg>