<?xml version="1.0" encoding="UTF-8"?>
<svg width="24px" height="24px" viewBox="0 0 24 24" version="1.1" xmlns="http://www.w3.org/2000/svg" xmlns:xlink="http://www.w3.org/1999/xlink">
    <!-- Generator: Sketch 50 (54983) - http://www.bohemiancoding.com/sketch -->
    <title>icon/action/dns_24px</title>
    <desc>Created with Sketch.</desc>
    <defs>
        <path d="M20,13 L4,13 C3.45,13 3,13.45 3,14 L3,20 C3,20.55 3.45,21 4,21 L20,21 C20.55,21 21,20.55 21,20 L21,14 C21,13.45 20.55,13 20,13 Z M7,19 C5.9,19 5,18.1 5,17 C5,15.9 5.9,15 7,15 C8.1,15 9,15.9 9,17 C9,18.1 8.1,19 7,19 Z M20,3 L4,3 C3.45,3 3,3.45 3,4 L3,10 C3,10.55 3.45,11 4,11 L20,11 C20.55,11 21,10.55 21,10 L21,4 C21,3.45 20.55,3 20,3 Z M7,9 C5.9,9 5,8.1 5,7 C5,5.9 5.9,5 7,5 C8.1,5 9,5.9 9,7 C9,8.1 8.1,9 7,9 Z" id="path-1"></path>
    </defs>
    <g id="icon/action/dns_24px" stroke="none" stroke-width="1" fill="none" fill-rule="evenodd">
        <mask id="mask-2" fill="white">
            <use xlink:href="#path-1"></use>
        </mask>
        <g fill-rule="nonzero"></g>
        <g id="✱-/-Color-/-Icons-/-Black-/-Inactive" mask="url(#mask-2)" fill="#000000" fill-opacity="0.54">
            <rect id="Rectangle" x="0" y="0" width="24" height="24"></rect>
        </g>
    </g>
</svg>