<?xml version="1.0" encoding="UTF-8"?>
<svg width="24px" height="24px" viewBox="0 0 24 24" version="1.1" xmlns="http://www.w3.org/2000/svg" xmlns:xlink="http://www.w3.org/1999/xlink">
    <!-- Generator: Sketch 50 (54983) - http://www.bohemiancoding.com/sketch -->
    <title>icon/action/donut_small_24px</title>
    <desc>Created with Sketch.</desc>
    <defs>
        <path d="M13,9.18 C13.85,9.48 14.51,10.15 14.82,11 L21.95,11 C21.48,6.28 17.72,2.52 13,2.05 L13,9.18 Z M11,14.82 C9.84,14.4 9,13.3 9,12 C9,10.7 9.84,9.6 11,9.18 L11,2.05 C5.95,2.55 2,6.81 2,12 C2,17.19 5.95,21.45 11,21.95 L11,14.82 Z M14.82,13 C14.52,13.85 13.85,14.51 13,14.82 L13,21.95 C17.72,21.48 21.48,17.72 21.95,13 L14.82,13 Z" id="path-1"></path>
    </defs>
    <g id="icon/action/donut_small_24px" stroke="none" stroke-width="1" fill="none" fill-rule="evenodd">
        <mask id="mask-2" fill="white">
            <use xlink:href="#path-1"></use>
        </mask>
        <g fill-rule="nonzero"></g>
        <g id="✱-/-Color-/-Icons-/-Black-/-Inactive" mask="url(#mask-2)" fill="#000000" fill-opacity="0.54">
            <rect id="Rectangle" x="0" y="0" width="24" height="24"></rect>
        </g>
    </g>
</svg>