<?xml version="1.0" encoding="UTF-8"?>
<svg width="24px" height="24px" viewBox="0 0 24 24" version="1.1" xmlns="http://www.w3.org/2000/svg" xmlns:xlink="http://www.w3.org/1999/xlink">
    <!-- Generator: Sketch 50 (54983) - http://www.bohemiancoding.com/sketch -->
    <title>icon/action/event_seat_24px</title>
    <desc>Created with Sketch.</desc>
    <defs>
        <path d="M4,21 L7,21 L7,18 L17,18 L17,21 L20,21 L20,15 L4,15 L4,21 Z M19,10 L22,10 L22,13 L19,13 L19,10 Z M2,10 L5,10 L5,13 L2,13 L2,10 Z M17,13 L7,13 L7,5 C7,3.9 7.9,3 9,3 L15,3 C16.1,3 17,3.9 17,5 L17,13 Z" id="path-1"></path>
    </defs>
    <g id="icon/action/event_seat_24px" stroke="none" stroke-width="1" fill="none" fill-rule="evenodd">
        <mask id="mask-2" fill="white">
            <use xlink:href="#path-1"></use>
        </mask>
        <g fill-rule="nonzero"></g>
        <g id="✱-/-Color-/-Icons-/-Black-/-Inactive" mask="url(#mask-2)" fill="#000000" fill-opacity="0.54">
            <rect id="Rectangle" x="0" y="0" width="24" height="24"></rect>
        </g>
    </g>
</svg>