<?xml version="1.0" encoding="UTF-8"?>
<svg width="24px" height="24px" viewBox="0 0 24 24" version="1.1" xmlns="http://www.w3.org/2000/svg" xmlns:xlink="http://www.w3.org/1999/xlink">
    <!-- Generator: Sketch 50 (54983) - http://www.bohemiancoding.com/sketch -->
    <title>icon/action/group_work_24px</title>
    <desc>Created with Sketch.</desc>
    <defs>
        <path d="M12,2 C6.48,2 2,6.48 2,12 C2,17.52 6.48,22 12,22 C17.52,22 22,17.52 22,12 C22,6.48 17.52,2 12,2 Z M8,17.5 C6.62,17.5 5.5,16.38 5.5,15 C5.5,13.62 6.62,12.5 8,12.5 C9.38,12.5 10.5,13.62 10.5,15 C10.5,16.38 9.38,17.5 8,17.5 Z M9.5,8 C9.5,6.62 10.62,5.5 12,5.5 C13.38,5.5 14.5,6.62 14.5,8 C14.5,9.38 13.38,10.5 12,10.5 C10.62,10.5 9.5,9.38 9.5,8 Z M16,17.5 C14.62,17.5 13.5,16.38 13.5,15 C13.5,13.62 14.62,12.5 16,12.5 C17.38,12.5 18.5,13.62 18.5,15 C18.5,16.38 17.38,17.5 16,17.5 Z" id="path-1"></path>
    </defs>
    <g id="icon/action/group_work_24px" stroke="none" stroke-width="1" fill="none" fill-rule="evenodd">
        <mask id="mask-2" fill="white">
            <use xlink:href="#path-1"></use>
        </mask>
        <g fill-rule="nonzero"></g>
        <g id="✱-/-Color-/-Icons-/-Black-/-Inactive" mask="url(#mask-2)" fill="#000000" fill-opacity="0.54">
            <rect id="Rectangle" x="0" y="0" width="24" height="24"></rect>
        </g>
    </g>
</svg>