<?xml version="1.0" encoding="UTF-8"?>
<svg width="24px" height="24px" viewBox="0 0 24 24" version="1.1" xmlns="http://www.w3.org/2000/svg" xmlns:xlink="http://www.w3.org/1999/xlink">
    <!-- Generator: Sketch 50 (54983) - http://www.bohemiancoding.com/sketch -->
    <title>icon/action/important_devices_24px</title>
    <desc>Created with Sketch.</desc>
    <defs>
        <path d="M23,11.01 L18,11 C17.45,11 17,11.45 17,12 L17,21 C17,21.55 17.45,22 18,22 L23,22 C23.55,22 24,21.55 24,21 L24,12 C24,11.45 23.55,11.01 23,11.01 Z M23,20 L18,20 L18,13 L23,13 L23,20 Z M20,2 L2,2 C0.89,2 0,2.89 0,4 L0,16 C0,17.1 0.89,18 2,18 L9,18 L9,20 L7,20 L7,22 L15,22 L15,20 L13,20 L13,18 L15,18 L15,16 L2,16 L2,4 L20,4 L20,9 L22,9 L22,4 C22,2.89 21.1,2 20,2 Z M11.97,9 L11,6 L10.03,9 L7,9 L9.47,10.76 L8.53,13.67 L11,11.87 L13.47,13.67 L12.53,10.76 L15,9 L11.97,9 Z" id="path-1"></path>
    </defs>
    <g id="icon/action/important_devices_24px" stroke="none" stroke-width="1" fill="none" fill-rule="evenodd">
        <mask id="mask-2" fill="white">
            <use xlink:href="#path-1"></use>
        </mask>
        <g fill-rule="nonzero"></g>
        <g id="✱-/-Color-/-Icons-/-Black-/-Inactive" mask="url(#mask-2)" fill="#000000" fill-opacity="0.54">
            <rect id="Rectangle" x="0" y="0" width="24" height="24"></rect>
        </g>
    </g>
</svg>