<?xml version="1.0" encoding="UTF-8"?>
<svg width="24px" height="24px" viewBox="0 0 24 24" version="1.1" xmlns="http://www.w3.org/2000/svg" xmlns:xlink="http://www.w3.org/1999/xlink">
    <!-- Generator: Sketch 50 (54983) - http://www.bohemiancoding.com/sketch -->
    <title>icon/action/invert_colors_24px</title>
    <desc>Created with Sketch.</desc>
    <defs>
        <path d="M17.66,7.93 L12,2.27 L6.34,7.93 C3.22,11.05 3.22,16.12 6.34,19.24 C7.9,20.8 9.95,21.58 12,21.58 C14.05,21.58 16.1,20.8 17.66,19.24 C20.78,16.12 20.78,11.05 17.66,7.93 Z M12,19.59 C10.4,19.59 8.89,18.97 7.76,17.83 C6.62,16.69 6,15.19 6,13.59 C6,11.99 6.62,10.48 7.76,9.35 L12,5.1 L12,19.59 Z" id="path-1"></path>
    </defs>
    <g id="icon/action/invert_colors_24px" stroke="none" stroke-width="1" fill="none" fill-rule="evenodd">
        <mask id="mask-2" fill="white">
            <use xlink:href="#path-1"></use>
        </mask>
        <g fill-rule="nonzero"></g>
        <g id="✱-/-Color-/-Icons-/-Black-/-Inactive" mask="url(#mask-2)" fill="#000000" fill-opacity="0.54">
            <rect id="Rectangle" x="0" y="0" width="24" height="24"></rect>
        </g>
    </g>
</svg>