<?xml version="1.0" encoding="UTF-8"?>
<svg width="24px" height="24px" viewBox="0 0 24 24" version="1.1" xmlns="http://www.w3.org/2000/svg" xmlns:xlink="http://www.w3.org/1999/xlink">
    <!-- Generator: Sketch 50 (54983) - http://www.bohemiancoding.com/sketch -->
    <title>icon/action/opacity_24px</title>
    <desc>Created with Sketch.</desc>
    <defs>
        <path d="M17.66,8 L12,2.35 L6.34,8 C4.78,9.56 4,11.64 4,13.64 C4,15.64 4.78,17.75 6.34,19.31 C7.9,20.87 9.95,21.66 12,21.66 C14.05,21.66 16.1,20.87 17.66,19.31 C19.22,17.75 20,15.64 20,13.64 C20,11.64 19.22,9.56 17.66,8 Z M6,14 C6.01,12 6.62,10.73 7.76,9.6 L12,5.27 L16.24,9.65 C17.38,10.77 17.99,12 18,14 L6,14 Z" id="path-1"></path>
    </defs>
    <g id="icon/action/opacity_24px" stroke="none" stroke-width="1" fill="none" fill-rule="evenodd">
        <mask id="mask-2" fill="white">
            <use xlink:href="#path-1"></use>
        </mask>
        <g fill-rule="nonzero"></g>
        <g id="✱-/-Color-/-Icons-/-Black-/-Inactive" mask="url(#mask-2)" fill="#000000" fill-opacity="0.54">
            <rect id="Rectangle" x="0" y="0" width="24" height="24"></rect>
        </g>
    </g>
</svg>