<?xml version="1.0" encoding="UTF-8"?>
<svg width="24px" height="24px" viewBox="0 0 24 24" version="1.1" xmlns="http://www.w3.org/2000/svg" xmlns:xlink="http://www.w3.org/1999/xlink">
    <!-- Generator: Sketch 50 (54983) - http://www.bohemiancoding.com/sketch -->
    <title>icon/action/pan_tool_24px</title>
    <desc>Created with Sketch.</desc>
    <defs>
        <path d="M23,5.5 L23,20 C23,22.2 21.2,24 19,24 L11.7,24 C10.62,24 9.6,23.57 8.85,22.81 L1,14.83 C1,14.83 2.26,13.6 2.3,13.58 C2.52,13.39 2.79,13.29 3.09,13.29 C3.31,13.29 3.51,13.35 3.69,13.45 C3.73,13.46 8,15.91 8,15.91 L8,4.5 C8,3.67 8.67,3 9.5,3 C10.33,3 11,3.67 11,4.5 L11,11 L12,11 L12,1.5 C12,0.67 12.67,0 13.5,0 C14.33,0 15,0.67 15,1.5 L15,11 L16,11 L16,2.5 C16,1.67 16.67,1 17.5,1 C18.33,1 19,1.67 19,2.5 L19,11 L20,11 L20,5.5 C20,4.67 20.67,4 21.5,4 C22.33,4 23,4.67 23,5.5 Z" id="path-1"></path>
    </defs>
    <g id="icon/action/pan_tool_24px" stroke="none" stroke-width="1" fill="none" fill-rule="evenodd">
        <mask id="mask-2" fill="white">
            <use xlink:href="#path-1"></use>
        </mask>
        <g fill-rule="nonzero"></g>
        <g id="✱-/-Color-/-Icons-/-Black-/-Inactive" mask="url(#mask-2)" fill="#000000" fill-opacity="0.54">
            <rect id="Rectangle" x="0" y="0" width="24" height="24"></rect>
        </g>
    </g>
</svg>