<?xml version="1.0" encoding="UTF-8"?>
<svg width="24px" height="24px" viewBox="0 0 24 24" version="1.1" xmlns="http://www.w3.org/2000/svg" xmlns:xlink="http://www.w3.org/1999/xlink">
    <!-- Generator: Sketch 50 (54983) - http://www.bohemiancoding.com/sketch -->
    <title>icon/action/perm_media_24px</title>
    <desc>Created with Sketch.</desc>
    <defs>
        <path d="M2,6 L0,6 L0,11 L0.01,11 L0,20 C0,21.1 0.9,22 2,22 L20,22 L20,20 L2,20 L2,6 Z M22,4 L14,4 L12,2 L6,2 C4.9,2 4.01,2.9 4.01,4 L4,16 C4,17.1 4.9,18 6,18 L22,18 C23.1,18 24,17.1 24,16 L24,6 C24,4.9 23.1,4 22,4 Z M7,15 L11.5,9 L15,13.51 L17.5,10.5 L21,15 L7,15 Z" id="path-1"></path>
    </defs>
    <g id="icon/action/perm_media_24px" stroke="none" stroke-width="1" fill="none" fill-rule="evenodd">
        <mask id="mask-2" fill="white">
            <use xlink:href="#path-1"></use>
        </mask>
        <g fill-rule="nonzero"></g>
        <g id="✱-/-Color-/-Icons-/-Black-/-Inactive" mask="url(#mask-2)" fill="#000000" fill-opacity="0.54">
            <rect id="Rectangle" x="0" y="0" width="24" height="24"></rect>
        </g>
    </g>
</svg>