<?xml version="1.0" encoding="UTF-8"?>
<svg width="24px" height="24px" viewBox="0 0 24 24" version="1.1" xmlns="http://www.w3.org/2000/svg" xmlns:xlink="http://www.w3.org/1999/xlink">
    <!-- Generator: Sketch 50 (54983) - http://www.bohemiancoding.com/sketch -->
    <title>icon/action/pets_24px</title>
    <desc>Created with Sketch.</desc>
    <defs>
        <path d="M4.5,12 C5.88071187,12 7,10.8807119 7,9.5 C7,8.11928813 5.88071187,7 4.5,7 C3.11928813,7 2,8.11928813 2,9.5 C2,10.8807119 3.11928813,12 4.5,12 Z M9,8 C10.3807119,8 11.5,6.88071187 11.5,5.5 C11.5,4.11928813 10.3807119,3 9,3 C7.61928813,3 6.5,4.11928813 6.5,5.5 C6.5,6.88071187 7.61928813,8 9,8 Z M15,8 C16.3807119,8 17.5,6.88071187 17.5,5.5 C17.5,4.11928813 16.3807119,3 15,3 C13.6192881,3 12.5,4.11928813 12.5,5.5 C12.5,6.88071187 13.6192881,8 15,8 Z M19.5,12 C20.8807119,12 22,10.8807119 22,9.5 C22,8.11928813 20.8807119,7 19.5,7 C18.1192881,7 17,8.11928813 17,9.5 C17,10.8807119 18.1192881,12 19.5,12 Z M17.34,14.86 C16.47,13.84 15.74,12.97 14.86,11.95 C14.4,11.41 13.81,10.87 13.11,10.63 C13,10.59 12.89,10.56 12.78,10.54 C12.53,10.5 12.26,10.5 12,10.5 C11.74,10.5 11.47,10.5 11.21,10.55 C11.1,10.57 10.99,10.6 10.88,10.64 C10.18,10.88 9.6,11.42 9.13,11.96 C8.26,12.98 7.53,13.85 6.65,14.87 C5.34,16.18 3.73,17.63 4.03,19.66 C4.32,20.68 5.05,21.69 6.36,21.98 C7.09,22.13 9.42,21.54 11.9,21.54 L12.08,21.54 C14.56,21.54 16.89,22.12 17.62,21.98 C18.93,21.69 19.66,20.67 19.95,19.66 C20.26,17.62 18.65,16.17 17.34,14.86 Z" id="path-1"></path>
    </defs>
    <g id="icon/action/pets_24px" stroke="none" stroke-width="1" fill="none" fill-rule="evenodd">
        <mask id="mask-2" fill="white">
            <use xlink:href="#path-1"></use>
        </mask>
        <g fill-rule="nonzero"></g>
        <g id="✱-/-Color-/-Icons-/-Black-/-Inactive" mask="url(#mask-2)" fill="#000000" fill-opacity="0.54">
            <rect id="Rectangle" x="0" y="0" width="24" height="24"></rect>
        </g>
    </g>
</svg>