<?xml version="1.0" encoding="UTF-8"?>
<svg width="24px" height="24px" viewBox="0 0 24 24" version="1.1" xmlns="http://www.w3.org/2000/svg" xmlns:xlink="http://www.w3.org/1999/xlink">
    <!-- Generator: Sketch 50 (54983) - http://www.bohemiancoding.com/sketch -->
    <title>icon/action/power_settings_new_24px</title>
    <desc>Created with Sketch.</desc>
    <defs>
        <path d="M13,3 L11,3 L11,13 L13,13 L13,3 Z M17.83,5.17 L16.41,6.59 C17.99,7.86 19,9.81 19,12 C19,15.87 15.87,19 12,19 C8.13,19 5,15.87 5,12 C5,9.81 6.01,7.86 7.58,6.58 L6.17,5.17 C4.23,6.82 3,9.26 3,12 C3,16.97 7.03,21 12,21 C16.97,21 21,16.97 21,12 C21,9.26 19.77,6.82 17.83,5.17 Z" id="path-1"></path>
    </defs>
    <g id="icon/action/power_settings_new_24px" stroke="none" stroke-width="1" fill="none" fill-rule="evenodd">
        <mask id="mask-2" fill="white">
            <use xlink:href="#path-1"></use>
        </mask>
        <g fill-rule="nonzero"></g>
        <g id="✱-/-Color-/-Icons-/-Black-/-Inactive" mask="url(#mask-2)" fill="#000000" fill-opacity="0.54">
            <rect id="Rectangle" x="0" y="0" width="24" height="24"></rect>
        </g>
    </g>
</svg>