<?xml version="1.0" encoding="UTF-8"?>
<svg width="24px" height="24px" viewBox="0 0 24 24" version="1.1" xmlns="http://www.w3.org/2000/svg" xmlns:xlink="http://www.w3.org/1999/xlink">
    <!-- Generator: Sketch 50 (54983) - http://www.bohemiancoding.com/sketch -->
    <title>icon/action/settings_remote_24px</title>
    <desc>Created with Sketch.</desc>
    <defs>
        <path d="M15,9 L9,9 C8.45,9 8,9.45 8,10 L8,22 C8,22.55 8.45,23 9,23 L15,23 C15.55,23 16,22.55 16,22 L16,10 C16,9.45 15.55,9 15,9 Z M12,15 C10.9,15 10,14.1 10,13 C10,11.9 10.9,11 12,11 C13.1,11 14,11.9 14,13 C14,14.1 13.1,15 12,15 Z M7.05,6.05 L8.46,7.46 C9.37,6.56 10.62,6 12,6 C13.38,6 14.63,6.56 15.54,7.46 L16.95,6.05 C15.68,4.78 13.93,4 12,4 C10.07,4 8.32,4.78 7.05,6.05 Z M12,0 C8.96,0 6.21,1.23 4.22,3.22 L5.63,4.63 C7.26,3.01 9.51,2 12,2 C14.49,2 16.74,3.01 18.36,4.64 L19.77,3.23 C17.79,1.23 15.04,0 12,0 Z" id="path-1"></path>
    </defs>
    <g id="icon/action/settings_remote_24px" stroke="none" stroke-width="1" fill="none" fill-rule="evenodd">
        <mask id="mask-2" fill="white">
            <use xlink:href="#path-1"></use>
        </mask>
        <g fill-rule="nonzero"></g>
        <g id="✱-/-Color-/-Icons-/-Black-/-Inactive" mask="url(#mask-2)" fill="#000000" fill-opacity="0.54">
            <rect id="Rectangle" x="0" y="0" width="24" height="24"></rect>
        </g>
    </g>
</svg>