<?xml version="1.0" encoding="UTF-8"?>
<svg width="24px" height="24px" viewBox="0 0 24 24" version="1.1" xmlns="http://www.w3.org/2000/svg" xmlns:xlink="http://www.w3.org/1999/xlink">
    <!-- Generator: Sketch 50 (54983) - http://www.bohemiancoding.com/sketch -->
    <title>icon/action/settings_bluetooth_24px</title>
    <desc>Created with Sketch.</desc>
    <defs>
        <path d="M11,24 L13,24 L13,22 L11,22 L11,24 Z M7,24 L9,24 L9,22 L7,22 L7,24 Z M15,24 L17,24 L17,22 L15,22 L15,24 Z M17.71,5.71 L12,0 L11,0 L11,7.59 L6.41,3 L5,4.41 L10.59,10 L5,15.59 L6.41,17 L11,12.41 L11,20 L12,20 L17.71,14.29 L13.41,10 L17.71,5.71 Z M13,3.83 L14.88,5.71 L13,7.59 L13,3.83 Z M14.88,14.29 L13,16.17 L13,12.41 L14.88,14.29 Z" id="path-1"></path>
    </defs>
    <g id="icon/action/settings_bluetooth_24px" stroke="none" stroke-width="1" fill="none" fill-rule="evenodd">
        <mask id="mask-2" fill="white">
            <use xlink:href="#path-1"></use>
        </mask>
        <g fill-rule="nonzero"></g>
        <g id="✱-/-Color-/-Icons-/-Black-/-Inactive" mask="url(#mask-2)" fill="#000000" fill-opacity="0.54">
            <rect id="Rectangle" x="0" y="0" width="24" height="24"></rect>
        </g>
    </g>
</svg>