<?xml version="1.0" encoding="UTF-8"?>
<svg width="24px" height="24px" viewBox="0 0 24 24" version="1.1" xmlns="http://www.w3.org/2000/svg" xmlns:xlink="http://www.w3.org/1999/xlink">
    <!-- Generator: Sketch 50 (54983) - http://www.bohemiancoding.com/sketch -->
    <title>icon/action/settings_input_hdmi_24px</title>
    <desc>Created with Sketch.</desc>
    <defs>
        <path d="M18,7 L18,4 C18,2.9 17.1,2 16,2 L8,2 C6.9,2 6,2.9 6,4 L6,7 L5,7 L5,13 L8,19 L8,22 L16,22 L16,19 L19,13 L19,7 L18,7 Z M8,4 L16,4 L16,7 L14,7 L14,5 L13,5 L13,7 L11,7 L11,5 L10,5 L10,7 L8,7 L8,4 Z" id="path-1"></path>
    </defs>
    <g id="icon/action/settings_input_hdmi_24px" stroke="none" stroke-width="1" fill="none" fill-rule="evenodd">
        <mask id="mask-2" fill="white">
            <use xlink:href="#path-1"></use>
        </mask>
        <g fill-rule="nonzero"></g>
        <g id="✱-/-Color-/-Icons-/-Black-/-Inactive" mask="url(#mask-2)" fill="#000000" fill-opacity="0.54">
            <rect id="Rectangle" x="0" y="0" width="24" height="24"></rect>
        </g>
    </g>
</svg>