<?xml version="1.0" encoding="UTF-8"?>
<svg width="24px" height="24px" viewBox="0 0 24 24" version="1.1" xmlns="http://www.w3.org/2000/svg" xmlns:xlink="http://www.w3.org/1999/xlink">
    <!-- Generator: Sketch 50 (54983) - http://www.bohemiancoding.com/sketch -->
    <title>icon/action/shop_two_24px</title>
    <desc>Created with Sketch.</desc>
    <defs>
        <path d="M3,9 L1,9 L1,20 C1,21.11 1.89,22 3,22 L17,22 C18.11,22 19,21.11 19,20 L3,20 L3,9 Z M18,5 L18,3 C18,1.89 17.11,1 16,1 L12,1 C10.89,1 10,1.89 10,3 L10,5 L5,5 L5,16 C5,17.11 5.89,18 7,18 L21,18 C22.11,18 23,17.11 23,16 L23,5 L18,5 Z M12,3 L16,3 L16,5 L12,5 L12,3 Z M12,15 L12,8 L17.5,11 L12,15 Z" id="path-1"></path>
    </defs>
    <g id="icon/action/shop_two_24px" stroke="none" stroke-width="1" fill="none" fill-rule="evenodd">
        <mask id="mask-2" fill="white">
            <use xlink:href="#path-1"></use>
        </mask>
        <g fill-rule="nonzero"></g>
        <g id="✱-/-Color-/-Icons-/-Black-/-Inactive" mask="url(#mask-2)" fill="#000000" fill-opacity="0.54">
            <rect id="Rectangle" x="0" y="0" width="24" height="24"></rect>
        </g>
    </g>
</svg>