<?xml version="1.0" encoding="UTF-8"?>
<svg width="24px" height="24px" viewBox="0 0 24 24" version="1.1" xmlns="http://www.w3.org/2000/svg" xmlns:xlink="http://www.w3.org/1999/xlink">
    <!-- Generator: Sketch 50 (54983) - http://www.bohemiancoding.com/sketch -->
    <title>icon/action/speaker_notes_off_24px</title>
    <desc>Created with Sketch.</desc>
    <defs>
        <path d="M1.27,1.73 L0,3 L2.01,5.01 L2,22 L6,18 L15,18 L20.73,23.73 L22,22.46 L1.27,1.73 Z M8,14 L6,14 L6,12 L8,12 L8,14 Z M6,11 L6,9 L8,11 L6,11 Z M20,2 L4.08,2 L10,7.92 L10,6 L18,6 L18,8 L10.08,8 L11.08,9 L18,9 L18,11 L13.08,11 L20.07,17.99 C21.14,17.95 22,17.08 22,16 L22,4 C22,2.9 21.1,2 20,2 Z" id="path-1"></path>
    </defs>
    <g id="icon/action/speaker_notes_off_24px" stroke="none" stroke-width="1" fill="none" fill-rule="evenodd">
        <mask id="mask-2" fill="white">
            <use xlink:href="#path-1"></use>
        </mask>
        <g fill-rule="nonzero"></g>
        <g id="✱-/-Color-/-Icons-/-Black-/-Inactive" mask="url(#mask-2)" fill="#000000" fill-opacity="0.54">
            <rect id="Rectangle" x="0" y="0" width="24" height="24"></rect>
        </g>
    </g>
</svg>