<?xml version="1.0" encoding="UTF-8"?>
<svg width="24px" height="24px" viewBox="0 0 24 24" version="1.1" xmlns="http://www.w3.org/2000/svg" xmlns:xlink="http://www.w3.org/1999/xlink">
    <!-- Generator: Sketch 50 (54983) - http://www.bohemiancoding.com/sketch -->
    <title>icon/action/supervised_user_circle_24px</title>
    <desc>Created with Sketch.</desc>
    <defs>
        <path d="M12,2 C6.48,2 2,6.48 2,12 C2,17.52 6.48,22 12,22 C17.52,22 22,17.52 22,12 C22,6.48 17.52,2 12,2 Z M15.61,8.34 C16.68,8.34 17.54,9.2 17.54,10.27 C17.54,11.34 16.68,12.2 15.61,12.2 C14.54,12.2 13.68,11.34 13.68,10.27 C13.67,9.2 14.54,8.34 15.61,8.34 Z M9.61,6.76 C10.91,6.76 11.97,7.82 11.97,9.12 C11.97,10.42 10.91,11.48 9.61,11.48 C8.31,11.48 7.25,10.42 7.25,9.12 C7.25,7.81 8.3,6.76 9.61,6.76 Z M9.61,15.89 L9.61,19.64 C7.21,18.89 5.31,17.04 4.47,14.68 C5.52,13.56 8.14,12.99 9.61,12.99 C10.14,12.99 10.81,13.07 11.51,13.21 C9.87,14.08 9.61,15.23 9.61,15.89 Z M12,20 C11.73,20 11.47,19.99 11.21,19.96 L11.21,15.89 C11.21,14.47 14.15,13.76 15.61,13.76 C16.68,13.76 18.53,14.15 19.45,14.91 C18.28,17.88 15.39,20 12,20 Z" id="path-1"></path>
    </defs>
    <g id="icon/action/supervised_user_circle_24px" stroke="none" stroke-width="1" fill="none" fill-rule="evenodd">
        <mask id="mask-2" fill="white">
            <use xlink:href="#path-1"></use>
        </mask>
        <g fill-rule="nonzero"></g>
        <g id="✱-/-Color-/-Icons-/-Black-/-Inactive" mask="url(#mask-2)" fill="#000000" fill-opacity="0.54">
            <rect id="Rectangle" x="0" y="0" width="24" height="24"></rect>
        </g>
    </g>
</svg>