<?xml version="1.0" encoding="UTF-8"?>
<svg width="24px" height="24px" viewBox="0 0 24 24" version="1.1" xmlns="http://www.w3.org/2000/svg" xmlns:xlink="http://www.w3.org/1999/xlink">
    <!-- Generator: Sketch 50 (54983) - http://www.bohemiancoding.com/sketch -->
    <title>icon/action/view_list_24px</title>
    <desc>Created with Sketch.</desc>
    <defs>
        <path d="M3,14 L7,14 L7,10 L3,10 L3,14 Z M3,19 L7,19 L7,15 L3,15 L3,19 Z M3,9 L7,9 L7,5 L3,5 L3,9 Z M8,14 L20,14 L20,10 L8,10 L8,14 Z M8,19 L20,19 L20,15 L8,15 L8,19 Z M8,5 L8,9 L20,9 L20,5 L8,5 Z" id="path-1"></path>
    </defs>
    <g id="icon/action/view_list_24px" stroke="none" stroke-width="1" fill="none" fill-rule="evenodd">
        <mask id="mask-2" fill="white">
            <use xlink:href="#path-1"></use>
        </mask>
        <g fill-rule="nonzero"></g>
        <g id="✱-/-Color-/-Icons-/-Black-/-Inactive" mask="url(#mask-2)" fill="#000000" fill-opacity="0.54">
            <rect id="Rectangle" x="0" y="0" width="24" height="24"></rect>
        </g>
    </g>
</svg>