<?xml version="1.0" encoding="UTF-8"?>
<svg width="24px" height="24px" viewBox="0 0 24 24" version="1.1" xmlns="http://www.w3.org/2000/svg" xmlns:xlink="http://www.w3.org/1999/xlink">
    <!-- Generator: Sketch 50 (54983) - http://www.bohemiancoding.com/sketch -->
    <title>icon/action/visibility_off_24px</title>
    <desc>Created with Sketch.</desc>
    <defs>
        <path d="M12,6.5 C14.76,6.5 17,8.74 17,11.5 C17,12.01 16.9,12.5 16.76,12.96 L19.82,16.02 C21.21,14.79 22.31,13.25 23,11.49 C21.27,7.11 17,4 12,4 C10.73,4 9.51,4.2 8.36,4.57 L10.53,6.74 C11,6.6 11.49,6.5 12,6.5 Z M3.42,2.45 L2.01,3.87 L4.69,6.55 C3.06,7.83 1.77,9.53 1,11.5 C2.73,15.89 7,19 12,19 C13.52,19 14.97,18.7 16.31,18.18 L19.74,21.61 L21.15,20.2 L3.42,2.45 Z M12,16.5 C9.24,16.5 7,14.26 7,11.5 C7,10.73 7.18,10 7.49,9.36 L9.06,10.93 C9.03,11.11 9,11.3 9,11.5 C9,13.16 10.34,14.5 12,14.5 C12.2,14.5 12.38,14.47 12.57,14.43 L14.14,16 C13.49,16.32 12.77,16.5 12,16.5 Z M14.97,11.17 C14.82,9.77 13.72,8.68 12.33,8.53 L14.97,11.17 Z" id="path-1"></path>
    </defs>
    <g id="icon/action/visibility_off_24px" stroke="none" stroke-width="1" fill="none" fill-rule="evenodd">
        <mask id="mask-2" fill="white">
            <use xlink:href="#path-1"></use>
        </mask>
        <g fill-rule="nonzero"></g>
        <g id="✱-/-Color-/-Icons-/-Black-/-Inactive" mask="url(#mask-2)" fill="#000000" fill-opacity="0.54">
            <rect id="Rectangle" x="0" y="0" width="24" height="24"></rect>
        </g>
    </g>
</svg>