<?xml version="1.0" encoding="UTF-8"?>
<svg width="24px" height="24px" viewBox="0 0 24 24" version="1.1" xmlns="http://www.w3.org/2000/svg" xmlns:xlink="http://www.w3.org/1999/xlink">
    <!-- Generator: Sketch 50 (54983) - http://www.bohemiancoding.com/sketch -->
    <title>icon/action/voice_over_off_24px</title>
    <desc>Created with Sketch.</desc>
    <defs>
        <path d="M16.76,5.36 L15.08,7.05 C15.88,8.18 15.91,9.63 15.17,10.79 L16.87,12.49 C18.77,10.47 18.74,7.51 16.76,5.36 Z M20.07,2 L18.44,3.63 C21.16,6.6 21.2,11.02 18.58,14.19 L20.22,15.83 C23.96,11.94 23.93,5.99 20.07,2 Z M9.43,5.04 L12.96,8.57 C12.76,6.71 11.29,5.24 9.43,5.04 Z M4.41,2.86 L3,4.27 L5.62,6.89 C5.23,7.5 5,8.22 5,9 C5,11.21 6.79,13 9,13 C9.78,13 10.5,12.77 11.11,12.38 L15.51,16.78 C13.74,15.6 10.78,15 9,15 C6.33,15 1,16.34 1,19 L1,21 L17,21 L17,19 C17,18.63 16.89,18.3 16.71,17.98 L19.73,21 L21.14,19.59 L4.41,2.86 Z" id="path-1"></path>
    </defs>
    <g id="icon/action/voice_over_off_24px" stroke="none" stroke-width="1" fill="none" fill-rule="evenodd">
        <mask id="mask-2" fill="white">
            <use xlink:href="#path-1"></use>
        </mask>
        <g fill-rule="nonzero"></g>
        <g id="✱-/-Color-/-Icons-/-Black-/-Inactive" mask="url(#mask-2)" fill="#000000" fill-opacity="0.54">
            <rect id="Rectangle" x="0" y="0" width="24" height="24"></rect>
        </g>
    </g>
</svg>