<?xml version="1.0" encoding="UTF-8"?>
<svg width="24px" height="24px" viewBox="0 0 24 24" version="1.1" xmlns="http://www.w3.org/2000/svg" xmlns:xlink="http://www.w3.org/1999/xlink">
    <!-- Generator: Sketch 50 (54983) - http://www.bohemiancoding.com/sketch -->
    <title>icon/action/work_outline_24px</title>
    <desc>Created with Sketch.</desc>
    <defs>
        <path d="M14,6 L14,4 L10,4 L10,6 L14,6 Z M4,8 L4,19 L20,19 L20,8 L4,8 Z M20,6 C21.11,6 22,6.89 22,8 L22,19 C22,20.11 21.11,21 20,21 L4,21 C2.89,21 2,20.11 2,19 L2.01,8 C2.01,6.89 2.89,6 4,6 L8,6 L8,4 C8,2.89 8.89,2 10,2 L14,2 C15.11,2 16,2.89 16,4 L16,6 L20,6 Z" id="path-1"></path>
    </defs>
    <g id="icon/action/work_outline_24px" stroke="none" stroke-width="1" fill="none" fill-rule="evenodd">
        <mask id="mask-2" fill="white">
            <use xlink:href="#path-1"></use>
        </mask>
        <g fill-rule="nonzero"></g>
        <g id="✱-/-Color-/-Icons-/-Black-/-Inactive" mask="url(#mask-2)" fill="#000000" fill-opacity="0.54">
            <rect id="Rectangle" x="0" y="0" width="24" height="24"></rect>
        </g>
    </g>
</svg>