<?xml version="1.0" encoding="UTF-8"?>
<svg width="24px" height="24px" viewBox="0 0 24 24" version="1.1" xmlns="http://www.w3.org/2000/svg" xmlns:xlink="http://www.w3.org/1999/xlink">
    <!-- Generator: Sketch 50 (54983) - http://www.bohemiancoding.com/sketch -->
    <title>icon/action/work_24px</title>
    <desc>Created with Sketch.</desc>
    <defs>
        <path d="M20,6 L16,6 L16,4 C16,2.89 15.11,2 14,2 L10,2 C8.89,2 8,2.89 8,4 L8,6 L4,6 C2.89,6 2.01,6.89 2.01,8 L2,19 C2,20.11 2.89,21 4,21 L20,21 C21.11,21 22,20.11 22,19 L22,8 C22,6.89 21.11,6 20,6 Z M14,6 L10,6 L10,4 L14,4 L14,6 Z" id="path-1"></path>
    </defs>
    <g id="icon/action/work_24px" stroke="none" stroke-width="1" fill="none" fill-rule="evenodd">
        <mask id="mask-2" fill="white">
            <use xlink:href="#path-1"></use>
        </mask>
        <g fill-rule="nonzero"></g>
        <g id="✱-/-Color-/-Icons-/-Black-/-Inactive" mask="url(#mask-2)" fill="#000000" fill-opacity="0.54">
            <rect id="Rectangle" x="0" y="0" width="24" height="24"></rect>
        </g>
    </g>
</svg>