<?xml version="1.0" encoding="UTF-8"?>
<svg width="24px" height="24px" viewBox="0 0 24 24" version="1.1" xmlns="http://www.w3.org/2000/svg" xmlns:xlink="http://www.w3.org/1999/xlink">
    <!-- Generator: Sketch 50 (54983) - http://www.bohemiancoding.com/sketch -->
    <title>icon/action/work_off_24px</title>
    <desc>Created with Sketch.</desc>
    <defs>
        <path d="M23.15,21.59 L3.4,1.84 L1.99,3.25 L4.74,6 L4,6 C2.89,6 2.01,6.89 2.01,8 L2,19 C2,20.11 2.89,21 4,21 L19.74,21 L21.74,23 L23.15,21.59 Z M10,4 L14,4 L14,6 L10.4,6 L22,17.6 L22,8 C22,6.89 21.11,6 20,6 L16,6 L16,4 C16,2.89 15.11,2 14,2 L10,2 C9.01,2 8.2,2.7 8.04,3.64 L10,5.6 L10,4 Z" id="path-1"></path>
    </defs>
    <g id="icon/action/work_off_24px" stroke="none" stroke-width="1" fill="none" fill-rule="evenodd">
        <mask id="mask-2" fill="white">
            <use xlink:href="#path-1"></use>
        </mask>
        <g fill-rule="nonzero"></g>
        <g id="✱-/-Color-/-Icons-/-Black-/-Inactive" mask="url(#mask-2)" fill="#000000" fill-opacity="0.54">
            <rect id="Rectangle" x="0" y="0" width="24" height="24"></rect>
        </g>
    </g>
</svg>