<?xml version="1.0" encoding="UTF-8"?>
<svg width="24px" height="24px" viewBox="0 0 24 24" version="1.1" xmlns="http://www.w3.org/2000/svg" xmlns:xlink="http://www.w3.org/1999/xlink">
    <!-- Generator: Sketch 50 (54983) - http://www.bohemiancoding.com/sketch -->
    <title>icon/action/youtube_searched_for_24px</title>
    <desc>Created with Sketch.</desc>
    <defs>
        <path d="M17.01,14 L16.21,14 L15.94,13.73 C16.92,12.59 17.51,11.12 17.51,9.5 C17.51,5.91 14.6,3 11.01,3 C7.42,3 4.51,6 4.51,9.5 L2,9.5 L5.84,13.5 L10,9.5 L6.51,9.5 C6.51,7 8.53,5 11.01,5 C13.49,5 15.51,7.01 15.51,9.5 C15.51,11.98 13.49,14 11.01,14 C10.36,14 9.75,13.86 9.19,13.62 L7.71,15.1 C8.68,15.67 9.8,16 11.01,16 C12.62,16 14.09,15.41 15.23,14.43 L15.5,14.7 L15.5,15.49 L20.51,20.48 L22,19 L17.01,14 Z" id="path-1"></path>
    </defs>
    <g id="icon/action/youtube_searched_for_24px" stroke="none" stroke-width="1" fill="none" fill-rule="evenodd">
        <mask id="mask-2" fill="white">
            <use xlink:href="#path-1"></use>
        </mask>
        <g fill-rule="nonzero"></g>
        <g id="✱-/-Color-/-Icons-/-Black-/-Inactive" mask="url(#mask-2)" fill="#000000" fill-opacity="0.54">
            <rect id="Rectangle" x="0" y="0" width="24" height="24"></rect>
        </g>
    </g>
</svg>