<?xml version="1.0" encoding="UTF-8"?>
<svg width="24px" height="24px" viewBox="0 0 24 24" version="1.1" xmlns="http://www.w3.org/2000/svg" xmlns:xlink="http://www.w3.org/1999/xlink">
    <!-- Generator: Sketch 50 (54983) - http://www.bohemiancoding.com/sketch -->
    <title>icon/av/art_track_24px</title>
    <desc>Created with Sketch.</desc>
    <defs>
        <path d="M22,13 L14,13 L14,11 L22,11 L22,13 Z M22,7 L14,7 L14,9 L22,9 L22,7 Z M14,17 L22,17 L22,15 L14,15 L14,17 Z M12,9 L12,15 C12,16.1 11.1,17 10,17 L4,17 C2.9,17 2,16.1 2,15 L2,9 C2,7.9 2.9,7 4,7 L10,7 C11.1,7 12,7.9 12,9 Z M10.5,15 L8.25,12 L6.5,14.26 L5.25,12.75 L3.5,15 L10.5,15 Z" id="path-1"></path>
    </defs>
    <g id="icon/av/art_track_24px" stroke="none" stroke-width="1" fill="none" fill-rule="evenodd">
        <mask id="mask-2" fill="white">
            <use xlink:href="#path-1"></use>
        </mask>
        <g fill-rule="nonzero"></g>
        <g id="✱-/-Color-/-Icons-/-Black-/-Inactive" mask="url(#mask-2)" fill="#000000" fill-opacity="0.54">
            <rect id="Rectangle" x="0" y="0" width="24" height="24"></rect>
        </g>
    </g>
</svg>