<?xml version="1.0" encoding="UTF-8"?>
<svg width="24px" height="24px" viewBox="0 0 24 24" version="1.1" xmlns="http://www.w3.org/2000/svg" xmlns:xlink="http://www.w3.org/1999/xlink">
    <!-- Generator: Sketch 50 (54983) - http://www.bohemiancoding.com/sketch -->
    <title>icon/av/fiber_new_24px</title>
    <desc>Created with Sketch.</desc>
    <defs>
        <path d="M20,4 L4,4 C2.89,4 2.01,4.89 2.01,6 L2,18 C2,19.11 2.89,20 4,20 L20,20 C21.11,20 22,19.11 22,18 L22,6 C22,4.89 21.11,4 20,4 Z M8.5,15 L7.3,15 L4.75,11.5 L4.75,15 L3.5,15 L3.5,9 L4.75,9 L7.25,12.5 L7.25,9 L8.5,9 L8.5,15 Z M13.5,10.26 L11,10.26 L11,11.38 L13.5,11.38 L13.5,12.64 L11,12.64 L11,13.75 L13.5,13.75 L13.5,15 L9.5,15 L9.5,9 L13.5,9 L13.5,10.26 Z M20.5,14 C20.5,14.55 20.05,15 19.5,15 L15.5,15 C14.95,15 14.5,14.55 14.5,14 L14.5,9 L15.75,9 L15.75,13.51 L16.88,13.51 L16.88,9.99 L18.13,9.99 L18.13,13.5 L19.25,13.5 L19.25,9 L20.5,9 L20.5,14 Z" id="path-1"></path>
    </defs>
    <g id="icon/av/fiber_new_24px" stroke="none" stroke-width="1" fill="none" fill-rule="evenodd">
        <mask id="mask-2" fill="white">
            <use xlink:href="#path-1"></use>
        </mask>
        <g fill-rule="nonzero"></g>
        <g id="✱-/-Color-/-Icons-/-Black-/-Inactive" mask="url(#mask-2)" fill="#000000" fill-opacity="0.54">
            <rect id="Rectangle" x="0" y="0" width="24" height="24"></rect>
        </g>
    </g>
</svg>