<?xml version="1.0" encoding="UTF-8"?>
<svg width="24px" height="24px" viewBox="0 0 24 24" version="1.1" xmlns="http://www.w3.org/2000/svg" xmlns:xlink="http://www.w3.org/1999/xlink">
    <!-- Generator: Sketch 50 (54983) - http://www.bohemiancoding.com/sketch -->
    <title>icon/av/fiber_pin_24px</title>
    <desc>Created with Sketch.</desc>
    <defs>
        <path d="M5.5,10.5 L7.5,10.5 L7.5,11.5 L5.5,11.5 L5.5,10.5 Z M20,4 L4,4 C2.89,4 2.01,4.89 2.01,6 L2,18 C2,19.11 2.89,20 4,20 L20,20 C21.11,20 22,19.11 22,18 L22,6 C22,4.89 21.11,4 20,4 Z M9,11.5 C9,12.35 8.35,13 7.5,13 L5.5,13 L5.5,15 L4,15 L4,9 L7.5,9 C8.35,9 9,9.65 9,10.5 L9,11.5 Z M12.5,15 L11,15 L11,9 L12.5,9 L12.5,15 Z M20,15 L18.8,15 L16.25,11.5 L16.25,15 L15,15 L15,9 L16.25,9 L18.75,12.5 L18.75,9 L20,9 L20,15 Z" id="path-1"></path>
    </defs>
    <g id="icon/av/fiber_pin_24px" stroke="none" stroke-width="1" fill="none" fill-rule="evenodd">
        <mask id="mask-2" fill="white">
            <use xlink:href="#path-1"></use>
        </mask>
        <g fill-rule="nonzero"></g>
        <g id="✱-/-Color-/-Icons-/-Black-/-Inactive" mask="url(#mask-2)" fill="#000000" fill-opacity="0.54">
            <rect id="Rectangle" x="0" y="0" width="24" height="24"></rect>
        </g>
    </g>
</svg>