<?xml version="1.0" encoding="UTF-8"?>
<svg width="24px" height="24px" viewBox="0 0 24 24" version="1.1" xmlns="http://www.w3.org/2000/svg" xmlns:xlink="http://www.w3.org/1999/xlink">
    <!-- Generator: Sketch 50 (54983) - http://www.bohemiancoding.com/sketch -->
    <title>icon/av/mic_off_24px</title>
    <desc>Created with Sketch.</desc>
    <defs>
        <path d="M15,10.6 L15,5 C15,3.34 13.66,2 12,2 C10.46,2 9.21,3.16 9.04,4.65 L15,10.6 Z M19,11 L17.3,11 C17.3,11.58 17.2,12.13 17.03,12.64 L18.3,13.91 C18.74,13.03 19,12.04 19,11 Z M4.41,2.86 L3,4.27 L9,10.27 L9,11 C9,12.66 10.34,14 12,14 C12.23,14 12.44,13.97 12.65,13.92 L14.31,15.58 C13.6,15.91 12.81,16.1 12,16.1 C9.24,16.1 6.7,14 6.7,11 L5,11 C5,14.41 7.72,17.23 11,17.72 L11,21 L13,21 L13,17.72 C13.91,17.59 14.77,17.27 15.55,16.82 L19.75,21.02 L21.16,19.61 L4.41,2.86 Z" id="path-1"></path>
    </defs>
    <g id="icon/av/mic_off_24px" stroke="none" stroke-width="1" fill="none" fill-rule="evenodd">
        <mask id="mask-2" fill="white">
            <use xlink:href="#path-1"></use>
        </mask>
        <g fill-rule="nonzero"></g>
        <g id="✱-/-Color-/-Icons-/-Black-/-Inactive" mask="url(#mask-2)" fill="#000000" fill-opacity="0.54">
            <rect id="Rectangle" x="0" y="0" width="24" height="24"></rect>
        </g>
    </g>
</svg>