<?xml version="1.0" encoding="UTF-8"?>
<svg width="24px" height="24px" viewBox="0 0 24 24" version="1.1" xmlns="http://www.w3.org/2000/svg" xmlns:xlink="http://www.w3.org/1999/xlink">
    <!-- Generator: Sketch 50 (54983) - http://www.bohemiancoding.com/sketch -->
    <title>icon/av/repeat_one_24px</title>
    <desc>Created with Sketch.</desc>
    <defs>
        <path d="M7,7 L17,7 L17,10 L21,6 L17,2 L17,5 L5,5 L5,11 L7,11 L7,7 Z M17,17 L7,17 L7,14 L3,18 L7,22 L7,19 L19,19 L19,13 L17,13 L17,17 Z M13,15 L13,9 L12,9 L10,10 L10,11 L11.5,11 L11.5,15 L13,15 Z" id="path-1"></path>
    </defs>
    <g id="icon/av/repeat_one_24px" stroke="none" stroke-width="1" fill="none" fill-rule="evenodd">
        <mask id="mask-2" fill="white">
            <use xlink:href="#path-1"></use>
        </mask>
        <g fill-rule="nonzero"></g>
        <g id="✱-/-Color-/-Icons-/-Black-/-Inactive" mask="url(#mask-2)" fill="#000000" fill-opacity="0.54">
            <rect id="Rectangle" x="0" y="0" width="24" height="24"></rect>
        </g>
    </g>
</svg>