<?xml version="1.0" encoding="UTF-8"?>
<svg width="24px" height="24px" viewBox="0 0 24 24" version="1.1" xmlns="http://www.w3.org/2000/svg" xmlns:xlink="http://www.w3.org/1999/xlink">
    <!-- Generator: Sketch 50 (54983) - http://www.bohemiancoding.com/sketch -->
    <title>icon/av/slow_motion_video_24px</title>
    <desc>Created with Sketch.</desc>
    <defs>
        <path d="M13.05,9.79 L10,7.5 L10,16.5 L13.05,14.21 L16,12 L13.05,9.79 Z M13.05,9.79 L10,7.5 L10,16.5 L13.05,14.21 L16,12 L13.05,9.79 Z M13.05,9.79 L10,7.5 L10,16.5 L13.05,14.21 L16,12 L13.05,9.79 Z M11,4.07 L11,2.05 C8.99,2.25 7.16,3.05 5.68,4.26 L7.1,5.69 C8.21,4.83 9.54,4.25 11,4.07 Z M5.69,7.1 L4.26,5.68 C3.05,7.16 2.25,8.99 2.05,11 L4.07,11 C4.25,9.54 4.83,8.21 5.69,7.1 Z M4.07,13 L2.05,13 C2.25,15.01 3.05,16.84 4.26,18.32 L5.69,16.89 C4.83,15.79 4.25,14.46 4.07,13 Z M5.68,19.74 C7.16,20.95 9,21.75 11,21.95 L11,19.93 C9.54,19.75 8.21,19.17 7.1,18.31 L5.68,19.74 Z M22,12 C22,17.16 18.08,21.42 13.05,21.95 L13.05,19.93 C16.97,19.41 20,16.05 20,12 C20,7.95 16.97,4.59 13.05,4.07 L13.05,2.05 C18.08,2.58 22,6.84 22,12 Z" id="path-1"></path>
    </defs>
    <g id="icon/av/slow_motion_video_24px" stroke="none" stroke-width="1" fill="none" fill-rule="evenodd">
        <mask id="mask-2" fill="white">
            <use xlink:href="#path-1"></use>
        </mask>
        <g fill-rule="nonzero"></g>
        <g id="✱-/-Color-/-Icons-/-Black-/-Inactive" mask="url(#mask-2)" fill="#000000" fill-opacity="0.54">
            <rect id="Rectangle" x="0" y="0" width="24" height="24"></rect>
        </g>
    </g>
</svg>