<?xml version="1.0" encoding="UTF-8"?>
<svg width="24px" height="24px" viewBox="0 0 24 24" version="1.1" xmlns="http://www.w3.org/2000/svg" xmlns:xlink="http://www.w3.org/1999/xlink">
    <!-- Generator: Sketch 50 (54983) - http://www.bohemiancoding.com/sketch -->
    <title>icon/av/snooze_24px</title>
    <desc>Created with Sketch.</desc>
    <defs>
        <path d="M9,11 L12.63,11 L9,15.2 L9,17 L15,17 L15,15 L11.37,15 L15,10.8 L15,9 L9,9 L9,11 Z M17.3365,1.81105 L23.3366163,1.81105 L23.3366163,3.81108877 L17.3365,3.81108877 L17.3365,1.81105 Z M6.66335,1.8104 L8.66338877,1.8104 L8.66338877,7.81051631 L6.66335,7.81051631 L6.66335,1.8104 Z M12,4 C7.03,4 3,8.03 3,13 C3,17.97 7.03,22 12,22 C16.97,22 21,17.97 21,13 C21,8.03 16.97,4 12,4 Z M12,20 C8.14,20 5,16.86 5,13 C5,9.14 8.14,6 12,6 C15.86,6 19,9.14 19,13 C19,16.86 15.86,20 12,20 Z" id="path-1"></path>
    </defs>
    <g id="icon/av/snooze_24px" stroke="none" stroke-width="1" fill="none" fill-rule="evenodd">
        <mask id="mask-2" fill="white">
            <use xlink:href="#path-1"></use>
        </mask>
        <g fill-rule="nonzero"></g>
        <g id="✱-/-Color-/-Icons-/-Black-/-Inactive" mask="url(#mask-2)" fill="#000000" fill-opacity="0.54">
            <rect id="Rectangle" x="0" y="0" width="24" height="24"></rect>
        </g>
    </g>
</svg>