<?xml version="1.0" encoding="UTF-8"?>
<svg width="24px" height="24px" viewBox="0 0 24 24" version="1.1" xmlns="http://www.w3.org/2000/svg" xmlns:xlink="http://www.w3.org/1999/xlink">
    <!-- Generator: Sketch 50 (54983) - http://www.bohemiancoding.com/sketch -->
    <title>icon/av/sort_by_alpha_24px</title>
    <desc>Created with Sketch.</desc>
    <defs>
        <path d="M14.94,4.66 L10.22,4.66 L12.58,2.3 L14.94,4.66 Z M10.25,19.37 L14.91,19.37 L12.58,21.7 L10.25,19.37 Z M6.1,6.27 L1.6,17.73 L3.44,17.73 L4.36,15.28 L9.47,15.28 L10.39,17.73 L12.23,17.73 L7.74,6.27 L6.1,6.27 Z M4.97,13.64 L6.91,8.46 L8.85,13.64 L4.97,13.64 Z M15.73,16.14 L21.85,16.14 L21.85,17.73 L13.32,17.73 L13.32,16.44 L19.24,7.88 L13.36,7.88 L13.36,6.28 L21.66,6.28 L21.66,7.54 L15.73,16.14 Z" id="path-1"></path>
    </defs>
    <g id="icon/av/sort_by_alpha_24px" stroke="none" stroke-width="1" fill="none" fill-rule="evenodd">
        <mask id="mask-2" fill="white">
            <use xlink:href="#path-1"></use>
        </mask>
        <g fill-rule="nonzero"></g>
        <g id="✱-/-Color-/-Icons-/-Black-/-Inactive" mask="url(#mask-2)" fill="#000000" fill-opacity="0.54">
            <rect id="Rectangle" x="0" y="0" width="24" height="24"></rect>
        </g>
    </g>
</svg>