<?xml version="1.0" encoding="UTF-8"?>
<svg width="24px" height="24px" viewBox="0 0 24 24" version="1.1" xmlns="http://www.w3.org/2000/svg" xmlns:xlink="http://www.w3.org/1999/xlink">
    <!-- Generator: Sketch 50 (54983) - http://www.bohemiancoding.com/sketch -->
    <title>icon/av/volume_off_24px</title>
    <desc>Created with Sketch.</desc>
    <defs>
        <path d="M4.34,2.93 L2.93,4.34 L7.29,8.7 L7,9 L3,9 L3,15 L7,15 L12,20 L12,13.41 L16.18,17.59 C15.53,18.08 14.8,18.47 14,18.7 L14,20.76 C15.34,20.46 16.57,19.84 17.61,19.01 L19.66,21.06 L21.07,19.65 L4.34,2.93 Z M19,12 C19,12.82 18.85,13.61 18.59,14.34 L20.12,15.87 C20.68,14.7 21,13.39 21,12 C21,7.72 18.01,4.14 14,3.23 L14,5.29 C16.89,6.15 19,8.83 19,12 Z M12,4 L10.12,5.88 L12,7.76 L12,4 Z M16.5,12 C16.5,10.23 15.48,8.71 14,7.97 L14,9.76 L16.48,12.24 C16.49,12.16 16.5,12.08 16.5,12 Z" id="path-1"></path>
    </defs>
    <g id="icon/av/volume_off_24px" stroke="none" stroke-width="1" fill="none" fill-rule="evenodd">
        <mask id="mask-2" fill="white">
            <use xlink:href="#path-1"></use>
        </mask>
        <g fill-rule="nonzero"></g>
        <g id="✱-/-Color-/-Icons-/-Black-/-Inactive" mask="url(#mask-2)" fill="#000000" fill-opacity="0.54">
            <rect id="Rectangle" x="0" y="0" width="24" height="24"></rect>
        </g>
    </g>
</svg>