<?xml version="1.0" encoding="UTF-8"?>
<svg width="24px" height="24px" viewBox="0 0 24 24" version="1.1" xmlns="http://www.w3.org/2000/svg" xmlns:xlink="http://www.w3.org/1999/xlink">
    <!-- Generator: Sketch 50 (54983) - http://www.bohemiancoding.com/sketch -->
    <title>icon/file/attachment_24px_outlined</title>
    <desc>Created with Sketch.</desc>
    <defs>
        <path d="M18,16 L6.5,16 C4.29,16 2.5,14.21 2.5,12 C2.5,9.79 4.29,8 6.5,8 L19,8 C20.38,8 21.5,9.12 21.5,10.5 C21.5,11.88 20.38,13 19,13 L8.5,13 C7.95,13 7.5,12.55 7.5,12 C7.5,11.45 7.95,11 8.5,11 L18,11 L18,9.5 L8.5,9.5 C7.12,9.5 6,10.62 6,12 C6,13.38 7.12,14.5 8.5,14.5 L19,14.5 C21.21,14.5 23,12.71 23,10.5 C23,8.29 21.21,6.5 19,6.5 L6.5,6.5 C3.46,6.5 1,8.96 1,12 C1,15.04 3.46,17.5 6.5,17.5 L18,17.5 L18,16 Z" id="path-1"></path>
    </defs>
    <g id="icon/file/attachment_24px" stroke="none" stroke-width="1" fill="none" fill-rule="evenodd">
        <mask id="mask-2" fill="white">
            <use xlink:href="#path-1"></use>
        </mask>
        <g fill-rule="nonzero"></g>
        <g id="✱-/-Color-/-Icons-/-Black-/-Inactive" mask="url(#mask-2)" fill="#000000" fill-opacity="0.54">
            <rect id="Rectangle" x="0" y="0" width="24" height="24"></rect>
        </g>
    </g>
</svg>