<?xml version="1.0" encoding="UTF-8"?>
<svg width="24px" height="24px" viewBox="0 0 24 24" version="1.1" xmlns="http://www.w3.org/2000/svg" xmlns:xlink="http://www.w3.org/1999/xlink">
    <!-- Generator: Sketch 50 (54983) - http://www.bohemiancoding.com/sketch -->
    <title>icon/file/cloud_circle_24px_outlined</title>
    <desc>Created with Sketch.</desc>
    <defs>
        <path d="M12,2 C6.48,2 2,6.48 2,12 C2,17.52 6.48,22 12,22 C17.52,22 22,17.52 22,12 C22,6.48 17.52,2 12,2 Z M12,20 C7.59,20 4,16.41 4,12 C4,7.59 7.59,4 12,4 C16.41,4 20,7.59 20,12 C20,16.41 16.41,20 12,20 Z M16.29,10.19 C15.89,8.18 14.13,6.67 12,6.67 C10.31,6.67 8.85,7.63 8.12,9.03 C6.36,9.21 5,10.7 5,12.5 C5,14.43 6.57,16 8.5,16 L16.08,16 C17.69,16 19,14.69 19,13.08 C19,11.54 17.8,10.29 16.29,10.19 Z M16,14 L8.5,14 C7.67,14 7,13.33 7,12.5 C7,11.67 7.67,11 8.5,11 L9.4,11 L9.89,9.95 C10.3,9.16 11.11,8.67 12,8.67 C13.13,8.67 14.11,9.47 14.33,10.58 L14.61,12 L16,12 C16.55,12 17,12.45 17,13 C17,13.55 16.55,14 16,14 Z" id="path-1"></path>
    </defs>
    <g id="icon/file/cloud_circle_24px" stroke="none" stroke-width="1" fill="none" fill-rule="evenodd">
        <mask id="mask-2" fill="white">
            <use xlink:href="#path-1"></use>
        </mask>
        <g fill-rule="nonzero"></g>
        <g id="✱-/-Color-/-Icons-/-Black-/-Inactive" mask="url(#mask-2)" fill="#000000" fill-opacity="0.54">
            <rect id="Rectangle" x="0" y="0" width="24" height="24"></rect>
        </g>
    </g>
</svg>