<?xml version="1.0" encoding="UTF-8"?>
<svg width="24px" height="24px" viewBox="0 0 24 24" version="1.1" xmlns="http://www.w3.org/2000/svg" xmlns:xlink="http://www.w3.org/1999/xlink">
    <!-- Generator: Sketch 50 (54983) - http://www.bohemiancoding.com/sketch -->
    <title>icon/file/create_new_folder_24px_outlined</title>
    <desc>Created with Sketch.</desc>
    <defs>
        <path d="M20,6 L12,6 L10,4 L4,4 C2.89,4 2.01,4.89 2.01,6 L2,18 C2,19.11 2.89,20 4,20 L20,20 C21.11,20 22,19.11 22,18 L22,8 C22,6.89 21.11,6 20,6 Z M20,18 L4,18 L4,6 L9.17,6 L11.17,8 L20,8 L20,18 Z M12,14 L14,14 L14,16 L16,16 L16,14 L18,14 L18,12 L16,12 L16,10 L14,10 L14,12 L12,12 L12,14 Z" id="path-1"></path>
    </defs>
    <g id="icon/file/create_new_folder_24px" stroke="none" stroke-width="1" fill="none" fill-rule="evenodd">
        <mask id="mask-2" fill="white">
            <use xlink:href="#path-1"></use>
        </mask>
        <g fill-rule="nonzero"></g>
        <g id="✱-/-Color-/-Icons-/-Black-/-Inactive" mask="url(#mask-2)" fill="#000000" fill-opacity="0.54">
            <rect id="Rectangle" x="0" y="0" width="24" height="24"></rect>
        </g>
    </g>
</svg>