<?xml version="1.0" encoding="UTF-8"?>
<svg width="24px" height="24px" viewBox="0 0 24 24" version="1.1" xmlns="http://www.w3.org/2000/svg" xmlns:xlink="http://www.w3.org/1999/xlink">
    <!-- Generator: Sketch 50 (54983) - http://www.bohemiancoding.com/sketch -->
    <title>icon/editor/format_paint_24px</title>
    <desc>Created with Sketch.</desc>
    <defs>
        <path d="M18,4 L18,3 C18,2.45 17.55,2 17,2 L5,2 C4.45,2 4,2.45 4,3 L4,7 C4,7.55 4.45,8 5,8 L17,8 C17.55,8 18,7.55 18,7 L18,6 L19,6 L19,10 L9,10 L9,21 C9,21.55 9.45,22 10,22 L12,22 C12.55,22 13,21.55 13,21 L13,12 L21,12 L21,4 L18,4 Z" id="path-1"></path>
    </defs>
    <g id="icon/editor/format_paint_24px" stroke="none" stroke-width="1" fill="none" fill-rule="evenodd">
        <mask id="mask-2" fill="white">
            <use xlink:href="#path-1"></use>
        </mask>
        <g fill-rule="nonzero"></g>
        <g id="✱-/-Color-/-Icons-/-Black-/-Inactive" mask="url(#mask-2)" fill="#000000" fill-opacity="0.54">
            <rect id="Rectangle" x="0" y="0" width="24" height="24"></rect>
        </g>
    </g>
</svg>