<?xml version="1.0" encoding="UTF-8"?>
<svg width="24px" height="24px" viewBox="0 0 24 24" version="1.1" xmlns="http://www.w3.org/2000/svg" xmlns:xlink="http://www.w3.org/1999/xlink">
    <!-- Generator: Sketch 50 (54983) - http://www.bohemiancoding.com/sketch -->
    <title>icon/editor/format_list_numbered_24px</title>
    <desc>Created with Sketch.</desc>
    <defs>
        <path d="M2,17 L4,17 L4,17.5 L3,17.5 L3,18.5 L4,18.5 L4,19 L2,19 L2,20 L5,20 L5,16 L2,16 L2,17 Z M3,8 L4,8 L4,4 L2,4 L2,5 L3,5 L3,8 Z M2,11 L3.8,11 L2,13.1 L2,14 L5,14 L5,13 L3.2,13 L5,10.9 L5,10 L2,10 L2,11 Z M7,5 L7,7 L21,7 L21,5 L7,5 Z M7,19 L21,19 L21,17 L7,17 L7,19 Z M7,13 L21,13 L21,11 L7,11 L7,13 Z" id="path-1"></path>
    </defs>
    <g id="icon/editor/format_list_numbered_24px" stroke="none" stroke-width="1" fill="none" fill-rule="evenodd">
        <mask id="mask-2" fill="white">
            <use xlink:href="#path-1"></use>
        </mask>
        <g fill-rule="nonzero"></g>
        <g id="✱-/-Color-/-Icons-/-Black-/-Inactive" mask="url(#mask-2)" fill="#000000" fill-opacity="0.54">
            <rect id="Rectangle" x="0" y="0" width="24" height="24"></rect>
        </g>
    </g>
</svg>