<?xml version="1.0" encoding="UTF-8"?>
<svg width="24px" height="24px" viewBox="0 0 24 24" version="1.1" xmlns="http://www.w3.org/2000/svg" xmlns:xlink="http://www.w3.org/1999/xlink">
    <!-- Generator: Sketch 50 (54983) - http://www.bohemiancoding.com/sketch -->
    <title>icon/editor/format_list_bulleted_24px</title>
    <desc>Created with Sketch.</desc>
    <defs>
        <path d="M4,10.5 C3.17,10.5 2.5,11.17 2.5,12 C2.5,12.83 3.17,13.5 4,13.5 C4.83,13.5 5.5,12.83 5.5,12 C5.5,11.17 4.83,10.5 4,10.5 Z M4,4.5 C3.17,4.5 2.5,5.17 2.5,6 C2.5,6.83 3.17,7.5 4,7.5 C4.83,7.5 5.5,6.83 5.5,6 C5.5,5.17 4.83,4.5 4,4.5 Z M4,16.5 C3.17,16.5 2.5,17.18 2.5,18 C2.5,18.82 3.18,19.5 4,19.5 C4.82,19.5 5.5,18.82 5.5,18 C5.5,17.18 4.83,16.5 4,16.5 Z M7,19 L21,19 L21,17 L7,17 L7,19 Z M7,13 L21,13 L21,11 L7,11 L7,13 Z M7,5 L7,7 L21,7 L21,5 L7,5 Z" id="path-1"></path>
    </defs>
    <g id="icon/editor/format_list_bulleted_24px" stroke="none" stroke-width="1" fill="none" fill-rule="evenodd">
        <mask id="mask-2" fill="white">
            <use xlink:href="#path-1"></use>
        </mask>
        <g fill-rule="nonzero"></g>
        <g id="✱-/-Color-/-Icons-/-Black-/-Inactive" mask="url(#mask-2)" fill="#000000" fill-opacity="0.54">
            <rect id="Rectangle" x="0" y="0" width="24" height="24"></rect>
        </g>
    </g>
</svg>