<?xml version="1.0" encoding="UTF-8"?>
<svg width="24px" height="24px" viewBox="0 0 24 24" version="1.1" xmlns="http://www.w3.org/2000/svg" xmlns:xlink="http://www.w3.org/1999/xlink">
    <!-- Generator: Sketch 50 (54983) - http://www.bohemiancoding.com/sketch -->
    <title>icon/editor/insert_comment_24px</title>
    <desc>Created with Sketch.</desc>
    <defs>
        <path d="M20,2 L4,2 C2.9,2 2,2.9 2,4 L2,16 C2,17.1 2.9,18 4,18 L18,18 L22,22 L22,4 C22,2.9 21.1,2 20,2 Z M18,14 L6,14 L6,12 L18,12 L18,14 Z M18,11 L6,11 L6,9 L18,9 L18,11 Z M18,8 L6,8 L6,6 L18,6 L18,8 Z" id="path-1"></path>
    </defs>
    <g id="icon/editor/insert_comment_24px" stroke="none" stroke-width="1" fill="none" fill-rule="evenodd">
        <mask id="mask-2" fill="white">
            <use xlink:href="#path-1"></use>
        </mask>
        <g fill-rule="nonzero"></g>
        <g id="✱-/-Color-/-Icons-/-Black-/-Inactive" mask="url(#mask-2)" fill="#000000" fill-opacity="0.54">
            <rect id="Rectangle" x="0" y="0" width="24" height="24"></rect>
        </g>
    </g>
</svg>