<?xml version="1.0" encoding="UTF-8"?>
<svg width="24px" height="24px" viewBox="0 0 24 24" version="1.1" xmlns="http://www.w3.org/2000/svg" xmlns:xlink="http://www.w3.org/1999/xlink">
    <!-- Generator: Sketch 50 (54983) - http://www.bohemiancoding.com/sketch -->
    <title>icon/editor/multiline_chart_24px</title>
    <desc>Created with Sketch.</desc>
    <defs>
        <path d="M22,6.92 L20.59,5.51 L17.74,8.72 C15.68,6.4 12.83,5 9.61,5 C6.72,5 4.07,6.16 2,8 L3.42,9.42 C5.12,7.93 7.27,7 9.61,7 C12.35,7 14.7,8.26 16.38,10.24 L13.5,13.48 L9.5,9.48 L2,16.99 L3.5,18.49 L9.5,12.48 L13.5,16.48 L17.55,11.93 C18.3,13.28 18.8,14.83 18.99,16.48 L21,16.48 C20.78,14.18 20.05,12.09 18.96,10.34 L22,6.92 Z" id="path-1"></path>
    </defs>
    <g id="icon/editor/multiline_chart_24px" stroke="none" stroke-width="1" fill="none" fill-rule="evenodd">
        <mask id="mask-2" fill="white">
            <use xlink:href="#path-1"></use>
        </mask>
        <g fill-rule="nonzero"></g>
        <g id="✱-/-Color-/-Icons-/-Black-/-Inactive" mask="url(#mask-2)" fill="#000000" fill-opacity="0.54">
            <rect id="Rectangle" x="0" y="0" width="24" height="24"></rect>
        </g>
    </g>
</svg>