<?xml version="1.0" encoding="UTF-8"?>
<svg width="24px" height="24px" viewBox="0 0 24 24" version="1.1" xmlns="http://www.w3.org/2000/svg" xmlns:xlink="http://www.w3.org/1999/xlink">
    <!-- Generator: Sketch 50 (54983) - http://www.bohemiancoding.com/sketch -->
    <title>icon/editor/scatter_plot_24px</title>
    <desc>Created with Sketch.</desc>
    <defs>
        <path d="M7,17 C8.65685425,17 10,15.6568542 10,14 C10,12.3431458 8.65685425,11 7,11 C5.34314575,11 4,12.3431458 4,14 C4,15.6568542 5.34314575,17 7,17 Z M11,9 C12.6568542,9 14,7.65685425 14,6 C14,4.34314575 12.6568542,3 11,3 C9.34314575,3 8,4.34314575 8,6 C8,7.65685425 9.34314575,9 11,9 Z M16.6,20.6 C18.2568542,20.6 19.6,19.2568542 19.6,17.6 C19.6,15.9431458 18.2568542,14.6 16.6,14.6 C14.9431458,14.6 13.6,15.9431458 13.6,17.6 C13.6,19.2568542 14.9431458,20.6 16.6,20.6 Z" id="path-1"></path>
    </defs>
    <g id="icon/editor/scatter_plot_24px" stroke="none" stroke-width="1" fill="none" fill-rule="evenodd">
        <mask id="mask-2" fill="white">
            <use xlink:href="#path-1"></use>
        </mask>
        <g fill-rule="nonzero"></g>
        <g id="✱-/-Color-/-Icons-/-Black-/-Inactive" mask="url(#mask-2)" fill="#000000" fill-opacity="0.54">
            <rect id="Rectangle" x="0" y="0" width="24" height="24"></rect>
        </g>
    </g>
</svg>