<?xml version="1.0" encoding="UTF-8"?>
<svg width="24px" height="24px" viewBox="0 0 24 24" version="1.1" xmlns="http://www.w3.org/2000/svg" xmlns:xlink="http://www.w3.org/1999/xlink">
    <!-- Generator: Sketch 50 (54983) - http://www.bohemiancoding.com/sketch -->
    <title>icon/editor/wrap_text_24px</title>
    <desc>Created with Sketch.</desc>
    <defs>
        <path d="M4,19 L10,19 L10,17 L4,17 L4,19 Z M20,5 L4,5 L4,7 L20,7 L20,5 Z M17,11 L4,11 L4,13 L17.25,13 C18.35,13 19.25,13.9 19.25,15 C19.25,16.1 18.35,17 17.25,17 L15,17 L15,15 L12,18 L15,21 L15,19 L17,19 C19.21,19 21,17.21 21,15 C21,12.79 19.21,11 17,11 Z" id="path-1"></path>
    </defs>
    <g id="icon/editor/wrap_text_24px" stroke="none" stroke-width="1" fill="none" fill-rule="evenodd">
        <mask id="mask-2" fill="white">
            <use xlink:href="#path-1"></use>
        </mask>
        <g fill-rule="nonzero"></g>
        <g id="✱-/-Color-/-Icons-/-Black-/-Inactive" mask="url(#mask-2)" fill="#000000" fill-opacity="0.54">
            <rect id="Rectangle" x="0" y="0" width="24" height="24"></rect>
        </g>
    </g>
</svg>