<?xml version="1.0" encoding="UTF-8"?>
<svg width="24px" height="24px" viewBox="0 0 24 24" version="1.1" xmlns="http://www.w3.org/2000/svg" xmlns:xlink="http://www.w3.org/1999/xlink">
    <!-- Generator: Sketch 50 (54983) - http://www.bohemiancoding.com/sketch -->
    <title>icon/communication/dialer_sip_24px_sharp</title>
    <desc>Created with Sketch.</desc>
    <defs>
        <path d="M15.9992188,3.00078116 L16.9992188,3.00078116 L16.9992188,8.00078116 L15.9992188,8.00078116 L15.9992188,3.00078116 Z M14.9992188,5.00078116 L12.9992188,5.00078116 L12.9992188,4.00078116 L14.9992188,4.00078116 L14.9992188,3.00078116 L11.9992188,3.00078116 L11.9992188,6.00078116 L13.9992188,6.00078116 L13.9992188,7.00078116 L11.9992188,7.00078116 L11.9992188,8.00078116 L14.9992188,8.00078116 L14.9992188,5.00078116 Z M17.9992188,3.00078116 L17.9992188,8.00078116 L18.9992188,8.00078116 L18.9992188,6.00078116 L20.9992188,6.00078116 L20.9992188,3.00078116 L17.9992188,3.00078116 Z M19.9992188,5.00078116 L18.9992188,5.00078116 L18.9992188,4.00078116 L19.9992188,4.00078116 L19.9992188,5.00078116 Z M20.9992188,15.4607812 L15.7292188,14.8507812 L13.2092188,17.3707812 C10.3792188,15.9307812 8.05921884,13.6207812 6.61921884,10.7807812 L9.14921884,8.25078116 L8.53921884,3.00078116 L3.02921884,3.00078116 C2.44921884,13.1807812 10.8192188,21.5507812 20.9992188,20.9707812 L20.9992188,15.4607812 Z" id="path-1"></path>
    </defs>
    <g id="icon/communication/dialer_sip_24px" stroke="none" stroke-width="1" fill="none" fill-rule="evenodd">
        <mask id="mask-2" fill="white">
            <use xlink:href="#path-1"></use>
        </mask>
        <g fill-rule="nonzero"></g>
        <g id="✱-/-Color-/-Icons-/-Black-/-Inactive" mask="url(#mask-2)" fill="#000000" fill-opacity="0.54">
            <rect id="Rectangle" x="0" y="0" width="24" height="24"></rect>
        </g>
    </g>
</svg>