<?xml version="1.0" encoding="UTF-8"?>
<svg width="24px" height="24px" viewBox="0 0 24 24" version="1.1" xmlns="http://www.w3.org/2000/svg" xmlns:xlink="http://www.w3.org/1999/xlink">
    <!-- Generator: Sketch 50 (54983) - http://www.bohemiancoding.com/sketch -->
    <title>icon/communication/print_disabled_24px_sharp</title>
    <desc>Created with Sketch.</desc>
    <defs>
        <path d="M10.47,6.22 L18.82,6.22 L18.82,2.23 L6.82,2.23 L6.82,2.58 L10.47,6.22 Z M11.48,7.23 L20.48,16.22 L22.82,16.22 L22.82,10.23 C22.82,8.57 21.48,7.23 19.82,7.23 L11.48,7.23 Z M19.82,9.22 C20.37,9.22 20.82,9.67 20.82,10.22 C20.82,10.77 20.37,11.22 19.82,11.22 C19.27,11.22 18.82,10.77 18.82,10.22 C18.82,9.67 19.27,9.22 19.82,9.22 Z M2.23,0.82 L0.82,2.23 L5.82,7.23 C4.16,7.23 2.82,8.56 2.82,10.22 L2.82,16.22 L6.82,16.22 L6.82,20.22 L18.82,20.22 L21.77,23.18 L23.18,21.77 L2.23,0.82 Z M8.82,18.23 L8.82,14.22 L12.82,14.22 L16.82,18.22 L8.82,18.23 Z" id="path-1"></path>
    </defs>
    <g id="icon/communication/print_disabled_24px" stroke="none" stroke-width="1" fill="none" fill-rule="evenodd">
        <mask id="mask-2" fill="white">
            <use xlink:href="#path-1"></use>
        </mask>
        <g fill-rule="nonzero"></g>
        <g id="✱-/-Color-/-Icons-/-Black-/-Inactive" mask="url(#mask-2)" fill="#000000" fill-opacity="0.54">
            <rect id="Rectangle" x="0" y="0" width="24" height="24"></rect>
        </g>
    </g>
</svg>