<?xml version="1.0" encoding="UTF-8"?>
<svg width="24px" height="24px" viewBox="0 0 24 24" version="1.1" xmlns="http://www.w3.org/2000/svg" xmlns:xlink="http://www.w3.org/1999/xlink">
    <!-- Generator: Sketch 50 (54983) - http://www.bohemiancoding.com/sketch -->
    <title>icon/communication/ring_volume_24px_sharp</title>
    <desc>Created with Sketch.</desc>
    <defs>
        <path d="M21.16,6.725 L19.75,5.315 L16.19,8.865 L17.6,10.275 C17.6,10.275 21.05,6.755 21.16,6.725 Z M11,2.465 L13,2.465 L13,7.465 L11,7.465 L11,2.465 Z M6.4,10.275 L7.81,8.865 L4.26,5.305 L2.84,6.725 C2.95,6.755 6.4,10.275 6.4,10.275 Z M0,17.855 L3.68,21.535 L7.6,18.425 L7.6,15.055 C10.45,14.125 13.54,14.125 16.4,15.055 L16.4,18.435 L20.31,21.535 L24,17.855 C17.59,10.665 6.41,10.665 0,17.855 Z" id="path-1"></path>
    </defs>
    <g id="icon/communication/ring_volume_24px" stroke="none" stroke-width="1" fill="none" fill-rule="evenodd">
        <mask id="mask-2" fill="white">
            <use xlink:href="#path-1"></use>
        </mask>
        <g fill-rule="nonzero"></g>
        <g id="✱-/-Color-/-Icons-/-Black-/-Inactive" mask="url(#mask-2)" fill="#000000" fill-opacity="0.54">
            <rect id="Rectangle" x="0" y="0" width="24" height="24"></rect>
        </g>
    </g>
</svg>