<?xml version="1.0" encoding="UTF-8"?>
<svg width="24px" height="24px" viewBox="0 0 24 24" version="1.1" xmlns="http://www.w3.org/2000/svg" xmlns:xlink="http://www.w3.org/1999/xlink">
    <!-- Generator: Sketch 50 (54983) - http://www.bohemiancoding.com/sketch -->
    <title>icon/communication/stop_screen_share_24px_sharp</title>
    <desc>Created with Sketch.</desc>
    <defs>
        <path d="M21.79,17.86 L23.79,19.86 L24,19.86 L24,17.86 L21.79,17.86 Z M13,8.99 L13,6.86 L17,10.6 L15.72,11.79 L20.9,16.97 L22,15.86 L22,3.88 L7.8,3.88 L12.93,9.01 C12.96,9 12.98,8.99 13,8.99 Z M1.11,2.84 L2,3.74 L2,15.88 L4,17.87 L0,17.86 L0,19.86 L18.13,19.86 L20.84,22.57 L22.25,21.16 L2.52,1.43 L1.11,2.84 Z M9.08,10.81 L10.67,12.4 C9.13,12.78 7.96,13.57 7,14.86 C7.31,13.38 7.94,11.93 9.08,10.81 Z" id="path-1"></path>
    </defs>
    <g id="icon/communication/stop_screen_share_24px" stroke="none" stroke-width="1" fill="none" fill-rule="evenodd">
        <mask id="mask-2" fill="white">
            <use xlink:href="#path-1"></use>
        </mask>
        <g fill-rule="nonzero"></g>
        <g id="✱-/-Color-/-Icons-/-Black-/-Inactive" mask="url(#mask-2)" fill="#000000" fill-opacity="0.54">
            <rect id="Rectangle" x="0" y="0" width="24" height="24"></rect>
        </g>
    </g>
</svg>