<?xml version="1.0" encoding="UTF-8"?>
<svg width="24px" height="24px" viewBox="0 0 24 24" version="1.1" xmlns="http://www.w3.org/2000/svg" xmlns:xlink="http://www.w3.org/1999/xlink">
    <!-- Generator: Sketch 50 (54983) - http://www.bohemiancoding.com/sketch -->
    <title>icon/notification/airline_seat_legroom_normal_24px</title>
    <desc>Created with Sketch.</desc>
    <defs>
        <path d="M5,12 L5,3 L3,3 L3,12 C3,14.76 5.24,17 8,17 L14,17 L14,15 L8,15 C6.34,15 5,13.66 5,12 Z M20.5,18 L19,18 L19,11 C19,9.9 18.1,9 17,9 L12,9 L12,3 L6,3 L6,11 C6,12.65 7.35,14 9,14 L16,14 L16,21 L20.5,21 C21.33,21 22,20.33 22,19.5 C22,18.67 21.33,18 20.5,18 Z" id="path-1"></path>
    </defs>
    <g id="icon/notification/airline_seat_legroom_normal_24px" stroke="none" stroke-width="1" fill="none" fill-rule="evenodd">
        <mask id="mask-2" fill="white">
            <use xlink:href="#path-1"></use>
        </mask>
        <g fill-rule="nonzero"></g>
        <g id="✱-/-Color-/-Icons-/-Black-/-Inactive" mask="url(#mask-2)" fill="#000000" fill-opacity="0.54">
            <rect id="Rectangle" x="0" y="0" width="24" height="24"></rect>
        </g>
    </g>
</svg>