<?xml version="1.0" encoding="UTF-8"?>
<svg width="24px" height="24px" viewBox="0 0 24 24" version="1.1" xmlns="http://www.w3.org/2000/svg" xmlns:xlink="http://www.w3.org/1999/xlink">
    <!-- Generator: Sketch 50 (54983) - http://www.bohemiancoding.com/sketch -->
    <title>icon/notification/airline_seat_legroom_reduced_24px</title>
    <desc>Created with Sketch.</desc>
    <defs>
        <path d="M19.97,19.2 C20.15,20.16 19.42,21 18.5,21 L14,21 L14,18 L15,14 L9,14 C7.35,14 6,12.65 6,11 L6,3 L12,3 L12,9 L17,9 C18.1,9 19,9.9 19,11 L17,18 L18.44,18 C19.17,18 19.83,18.49 19.97,19.2 Z M5,12 L5,3 L3,3 L3,12 C3,14.76 5.24,17 8,17 L12,17 L12,15 L8,15 C6.34,15 5,13.66 5,12 Z" id="path-1"></path>
    </defs>
    <g id="icon/notification/airline_seat_legroom_reduced_24px" stroke="none" stroke-width="1" fill="none" fill-rule="evenodd">
        <mask id="mask-2" fill="white">
            <use xlink:href="#path-1"></use>
        </mask>
        <g fill-rule="nonzero"></g>
        <g id="✱-/-Color-/-Icons-/-Black-/-Inactive" mask="url(#mask-2)" fill="#000000" fill-opacity="0.54">
            <rect id="Rectangle" x="0" y="0" width="24" height="24"></rect>
        </g>
    </g>
</svg>