<?xml version="1.0" encoding="UTF-8"?>
<svg width="24px" height="24px" viewBox="0 0 24 24" version="1.1" xmlns="http://www.w3.org/2000/svg" xmlns:xlink="http://www.w3.org/1999/xlink">
    <!-- Generator: Sketch 50 (54983) - http://www.bohemiancoding.com/sketch -->
    <title>icon/notification/airline_seat_flat_24px</title>
    <desc>Created with Sketch.</desc>
    <defs>
        <path d="M22,11 L22,13 L9,13 L9,7 L18,7 C20.21,7 22,8.79 22,11 Z M2,14 L2,16 L8,16 L8,18 L16,18 L16,16 L22,16 L22,14 L2,14 Z M7.14,12.1 C8.3,10.91 8.28,9.02 7.1,7.86 C5.91,6.7 4.02,6.72 2.86,7.9 C1.7,9.09 1.72,10.98 2.9,12.14 C4.09,13.3 5.98,13.28 7.14,12.1 Z" id="path-1"></path>
    </defs>
    <g id="icon/notification/airline_seat_flat_24px" stroke="none" stroke-width="1" fill="none" fill-rule="evenodd">
        <mask id="mask-2" fill="white">
            <use xlink:href="#path-1"></use>
        </mask>
        <g fill-rule="nonzero"></g>
        <g id="✱-/-Color-/-Icons-/-Black-/-Inactive" mask="url(#mask-2)" fill="#000000" fill-opacity="0.54">
            <rect id="Rectangle" x="0" y="0" width="24" height="24"></rect>
        </g>
    </g>
</svg>