<?xml version="1.0" encoding="UTF-8"?>
<svg width="24px" height="24px" viewBox="0 0 24 24" version="1.1" xmlns="http://www.w3.org/2000/svg" xmlns:xlink="http://www.w3.org/1999/xlink">
    <!-- Generator: Sketch 50 (54983) - http://www.bohemiancoding.com/sketch -->
    <title>icon/notification/airline_seat_flat_angled_24px</title>
    <desc>Created with Sketch.</desc>
    <defs>
        <path d="M22.25,14.29 L21.56,16.18 L9.2,11.71 L11.28,6.05 L19.84,9.14 C21.94,9.9 23.02,12.2 22.25,14.29 Z M1.5,12.14 L8,14.48 L8,19 L16,19 L16,17.37 L20.52,19 L21.21,17.11 L2.19,10.25 L1.5,12.14 Z M7.3,10.2 C8.79,9.48 9.42,7.69 8.71,6.2 C7.99,4.71 6.2,4.08 4.7,4.8 C3.21,5.51 2.58,7.3 3.3,8.8 C4.01,10.29 5.8,10.92 7.3,10.2 Z" id="path-1"></path>
    </defs>
    <g id="icon/notification/airline_seat_flat_angled_24px" stroke="none" stroke-width="1" fill="none" fill-rule="evenodd">
        <mask id="mask-2" fill="white">
            <use xlink:href="#path-1"></use>
        </mask>
        <g fill-rule="nonzero"></g>
        <g id="✱-/-Color-/-Icons-/-Black-/-Inactive" mask="url(#mask-2)" fill="#000000" fill-opacity="0.54">
            <rect id="Rectangle" x="0" y="0" width="24" height="24"></rect>
        </g>
    </g>
</svg>