<?xml version="1.0" encoding="UTF-8"?>
<svg width="24px" height="24px" viewBox="0 0 24 24" version="1.1" xmlns="http://www.w3.org/2000/svg" xmlns:xlink="http://www.w3.org/1999/xlink">
    <!-- Generator: Sketch 50 (54983) - http://www.bohemiancoding.com/sketch -->
    <title>icon/notification/bluetooth_audio_24px</title>
    <desc>Created with Sketch.</desc>
    <defs>
        <path d="M14.24,12.01 L16.56,14.33 C16.84,13.61 17,12.82 17,12 C17,11.18 16.84,10.41 16.57,9.69 L14.24,12.01 Z M19.53,6.71 L18.27,7.97 C18.9,9.18 19.25,10.54 19.25,11.99 C19.25,13.44 18.89,14.81 18.27,16.01 L19.47,17.21 C20.44,15.67 21.01,13.85 21.01,11.9 C21,10.01 20.46,8.23 19.53,6.71 Z M15.71,7.71 L10,2 L9,2 L9,9.59 L4.41,5 L3,6.41 L8.59,12 L3,17.59 L4.41,19 L9,14.41 L9,22 L10,22 L15.71,16.29 L11.41,12 L15.71,7.71 Z M11,5.83 L12.88,7.71 L11,9.59 L11,5.83 Z M12.88,16.29 L11,18.17 L11,14.41 L12.88,16.29 Z" id="path-1"></path>
    </defs>
    <g id="icon/notification/bluetooth_audio_24px" stroke="none" stroke-width="1" fill="none" fill-rule="evenodd">
        <mask id="mask-2" fill="white">
            <use xlink:href="#path-1"></use>
        </mask>
        <g fill-rule="nonzero"></g>
        <g id="✱-/-Color-/-Icons-/-Black-/-Inactive" mask="url(#mask-2)" fill="#000000" fill-opacity="0.54">
            <rect id="Rectangle" x="0" y="0" width="24" height="24"></rect>
        </g>
    </g>
</svg>