<?xml version="1.0" encoding="UTF-8"?>
<svg width="24px" height="24px" viewBox="0 0 24 24" version="1.1" xmlns="http://www.w3.org/2000/svg" xmlns:xlink="http://www.w3.org/1999/xlink">
    <!-- Generator: Sketch 50 (54983) - http://www.bohemiancoding.com/sketch -->
    <title>icon/notification/live_tv_24px</title>
    <desc>Created with Sketch.</desc>
    <defs>
        <path d="M21,6 L13.41,6 L16.7,2.71 L16,2 L12,6 L8,2 L7.29,2.71 L10.59,6 L3,6 C1.9,6 1,6.89 1,8 L1,20 C1,21.1 1.9,22 3,22 L21,22 C22.1,22 23,21.1 23,20 L23,8 C23,6.89 22.1,6 21,6 Z M21,20 L3,20 L3,8 L21,8 L21,20 Z M9,10 L9,18 L16,14 L9,10 Z" id="path-1"></path>
    </defs>
    <g id="icon/notification/live_tv_24px" stroke="none" stroke-width="1" fill="none" fill-rule="evenodd">
        <mask id="mask-2" fill="white">
            <use xlink:href="#path-1"></use>
        </mask>
        <g fill-rule="nonzero"></g>
        <g id="✱-/-Color-/-Icons-/-Black-/-Inactive" mask="url(#mask-2)" fill="#000000" fill-opacity="0.54">
            <rect id="Rectangle" x="0" y="0" width="24" height="24"></rect>
        </g>
    </g>
</svg>