<?xml version="1.0" encoding="UTF-8"?>
<svg width="24px" height="24px" viewBox="0 0 24 24" version="1.1" xmlns="http://www.w3.org/2000/svg" xmlns:xlink="http://www.w3.org/1999/xlink">
    <!-- Generator: Sketch 50 (54983) - http://www.bohemiancoding.com/sketch -->
    <title>icon/notification/network_locked_24px</title>
    <desc>Created with Sketch.</desc>
    <defs>
        <path d="M22,16 L22,15.5 C22,14.12 20.88,13 19.5,13 C18.12,13 17,14.12 17,15.5 L17,16 C16.45,16 16,16.45 16,17 L16,21 C16,21.55 16.45,22 17,22 L22,22 C22.55,22 23,21.55 23,21 L23,17 C23,16.45 22.55,16 22,16 Z M21,16 L18,16 L18,15.5 C18,14.67 18.67,14 19.5,14 C20.33,14 21,14.67 21,15.5 L21,16 Z M19.5,11 C19.67,11 19.83,11.03 20,11.05 L20,1 L1,20 L14,20 L14,17 C14,16.08 14.42,15.26 15.07,14.7 C15.45,12.6 17.29,11 19.5,11 Z" id="path-1"></path>
    </defs>
    <g id="icon/notification/network_locked_24px" stroke="none" stroke-width="1" fill="none" fill-rule="evenodd">
        <mask id="mask-2" fill="white">
            <use xlink:href="#path-1"></use>
        </mask>
        <g fill-rule="nonzero"></g>
        <g id="✱-/-Color-/-Icons-/-Black-/-Inactive" mask="url(#mask-2)" fill="#000000" fill-opacity="0.54">
            <rect id="Rectangle" x="0" y="0" width="24" height="24"></rect>
        </g>
    </g>
</svg>