<?xml version="1.0" encoding="UTF-8"?>
<svg width="24px" height="24px" viewBox="0 0 24 24" version="1.1" xmlns="http://www.w3.org/2000/svg" xmlns:xlink="http://www.w3.org/1999/xlink">
    <!-- Generator: Sketch 50 (54983) - http://www.bohemiancoding.com/sketch -->
    <title>icon/notification/no_encryption_24px</title>
    <desc>Created with Sketch.</desc>
    <defs>
        <path d="M8.9,6 C8.9,4.29 10.29,2.9 12,2.9 C13.71,2.9 15.1,4.29 15.1,6 L15.1,8 L10.44,8 L20,17.56 L20,10 C20,8.9 19.1,8 18,8 L17,8 L17,6 C17,3.24 14.76,1 12,1 C9.68,1 7.74,2.59 7.18,4.74 L8.9,6.46 L8.9,6 Z M4.41,4.81 L3,6.22 L5.04,8.26 C4.42,8.6 4,9.25 4,10 L4,20 C4,21.1 4.9,22 6,22 L18.78,22 L19.78,23 L21.19,21.59 L4.41,4.81 Z" id="path-1"></path>
    </defs>
    <g id="icon/notification/no_encryption_24px" stroke="none" stroke-width="1" fill="none" fill-rule="evenodd">
        <mask id="mask-2" fill="white">
            <use xlink:href="#path-1"></use>
        </mask>
        <g fill-rule="nonzero"></g>
        <g id="✱-/-Color-/-Icons-/-Black-/-Inactive" mask="url(#mask-2)" fill="#000000" fill-opacity="0.54">
            <rect id="Rectangle" x="0" y="0" width="24" height="24"></rect>
        </g>
    </g>
</svg>