<?xml version="1.0" encoding="UTF-8"?>
<svg width="24px" height="24px" viewBox="0 0 24 24" version="1.1" xmlns="http://www.w3.org/2000/svg" xmlns:xlink="http://www.w3.org/1999/xlink">
    <!-- Generator: Sketch 50 (54983) - http://www.bohemiancoding.com/sketch -->
    <title>icon/notification/phone_bluetooth_speaker_24px</title>
    <desc>Created with Sketch.</desc>
    <defs>
        <path d="M14.71,9.5 L17,7.21 L17,11 L17.5,11 L20.35,8.15 L18.21,6 L20.36,3.85 L17.5,1 L17,1 L17,4.79 L14.71,2.5 L14,3.21 L16.79,6 L14,8.79 L14.71,9.5 Z M18,2.91 L18.94,3.85 L18,4.79 L18,2.91 Z M18,7.21 L18.94,8.15 L18,9.09 L18,7.21 Z M20,15.5 C18.75,15.5 17.55,15.3 16.43,14.93 C16.08,14.82 15.69,14.9 15.41,15.17 L13.21,17.37 C10.38,15.93 8.06,13.62 6.62,10.78 L8.82,8.57 C9.1,8.31 9.18,7.92 9.07,7.57 C8.7,6.45 8.5,5.25 8.5,4 C8.5,3.45 8.05,3 7.5,3 L4,3 C3.45,3 3,3.45 3,4 C3,13.39 10.61,21 20,21 C20.55,21 21,20.55 21,20 L21,16.5 C21,15.95 20.55,15.5 20,15.5 Z" id="path-1"></path>
    </defs>
    <g id="icon/notification/phone_bluetooth_speaker_24px" stroke="none" stroke-width="1" fill="none" fill-rule="evenodd">
        <mask id="mask-2" fill="white">
            <use xlink:href="#path-1"></use>
        </mask>
        <g fill-rule="nonzero"></g>
        <g id="✱-/-Color-/-Icons-/-Black-/-Inactive" mask="url(#mask-2)" fill="#000000" fill-opacity="0.54">
            <rect id="Rectangle" x="0" y="0" width="24" height="24"></rect>
        </g>
    </g>
</svg>