<?xml version="1.0" encoding="UTF-8"?>
<svg width="24px" height="24px" viewBox="0 0 24 24" version="1.1" xmlns="http://www.w3.org/2000/svg" xmlns:xlink="http://www.w3.org/1999/xlink">
    <!-- Generator: Sketch 50 (54983) - http://www.bohemiancoding.com/sketch -->
    <title>icon/notification/phone_missed_24px</title>
    <desc>Created with Sketch.</desc>
    <defs>
        <path d="M22.7616,16.67 C19.8336,13.78 15.8784,12 11.52,12 C7.1616,12 3.2064,13.78 0.2784,16.67 C0.1056,16.85 0,17.1 0,17.38 C0,17.66 0.1056,17.91 0.2784,18.09 L2.6592,20.57 C2.832,20.75 3.072,20.86 3.3408,20.86 C3.6,20.86 3.84,20.75 4.0128,20.58 C4.7712,19.84 5.6352,19.22 6.5664,18.73 C6.8832,18.57 7.104,18.23 7.104,17.83 L7.104,14.73 C8.496,14.25 9.984,14 11.52,14 C13.056,14 14.544,14.25 15.936,14.72 L15.936,17.82 C15.936,18.21 16.1568,18.56 16.4736,18.72 C17.4144,19.21 18.2688,19.84 19.0368,20.57 C19.2096,20.75 19.4496,20.85 19.7088,20.85 C19.9776,20.85 20.2176,20.74 20.3904,20.56 L22.7712,18.08 C22.944,17.9 23.0496,17.65 23.0496,17.37 C23.0496,17.09 22.9344,16.85 22.7616,16.67 Z M6.72,6.43 L11.4624,11.37 L18.2496,4.3 L16.896,2.88 L11.4624,8.54 L8.064,5 L10.56,5 L10.56,3 L4.8,3 L4.8,9 L6.72,9 L6.72,6.43 Z" id="path-1"></path>
    </defs>
    <g id="icon/notification/phone_missed_24px" stroke="none" stroke-width="1" fill="none" fill-rule="evenodd">
        <mask id="mask-2" fill="white">
            <use xlink:href="#path-1"></use>
        </mask>
        <g fill-rule="nonzero"></g>
        <g id="✱-/-Color-/-Icons-/-Black-/-Inactive" mask="url(#mask-2)" fill="#000000" fill-opacity="0.54">
            <rect id="Rectangle" x="0" y="0" width="24" height="24"></rect>
        </g>
    </g>
</svg>