<?xml version="1.0" encoding="UTF-8"?>
<svg width="24px" height="24px" viewBox="0 0 24 24" version="1.1" xmlns="http://www.w3.org/2000/svg" xmlns:xlink="http://www.w3.org/1999/xlink">
    <!-- Generator: Sketch 50 (54983) - http://www.bohemiancoding.com/sketch -->
    <title>icon/notification/power_off_24px</title>
    <desc>Created with Sketch.</desc>
    <defs>
        <path d="M18,14.49 L18,9 C18,7.9 17.1,7 16,7 L16,3 L14,3 L14,7 L10.12,7 L17.81,14.69 L18,14.49 Z M10,3 L8,3 L8,4.88 L10,6.88 L10,3 Z M4.12,3.84 L2.71,5.25 L6.05,8.59 C6.02,8.72 6,8.86 6,8.99 L6,14.5 L9.5,18 L9.5,21 L14.5,21 L14.5,18 L14.98,17.52 L19.45,21.99 L20.86,20.58 L4.12,3.84 Z" id="path-1"></path>
    </defs>
    <g id="icon/notification/power_off_24px" stroke="none" stroke-width="1" fill="none" fill-rule="evenodd">
        <mask id="mask-2" fill="white">
            <use xlink:href="#path-1"></use>
        </mask>
        <g fill-rule="nonzero"></g>
        <g id="✱-/-Color-/-Icons-/-Black-/-Inactive" mask="url(#mask-2)" fill="#000000" fill-opacity="0.54">
            <rect id="Rectangle" x="0" y="0" width="24" height="24"></rect>
        </g>
    </g>
</svg>