<?xml version="1.0" encoding="UTF-8"?>
<svg width="24px" height="24px" viewBox="0 0 24 24" version="1.1" xmlns="http://www.w3.org/2000/svg" xmlns:xlink="http://www.w3.org/1999/xlink">
    <!-- Generator: Sketch 50 (54983) - http://www.bohemiancoding.com/sketch -->
    <title>icon/notification/wifi_off_24px</title>
    <desc>Created with Sketch.</desc>
    <defs>
        <path d="M21,11 L23,9 C19.27,5.27 14.13,3.85 9.3,4.69 L11.88,7.27 C15.18,7.25 18.49,8.49 21,11 Z M19,13 C17.92,11.92 16.64,11.15 15.28,10.67 L18.3,13.69 L19,13 Z M9,17 L12,20 L15,17 C13.35,15.34 10.66,15.34 9,17 Z M3.41,1.64 L2,3.05 L5.05,6.1 C3.59,6.83 2.22,7.79 1,9 L3,11 C4.23,9.77 5.65,8.84 7.17,8.22 L9.41,10.46 C7.79,10.89 6.27,11.74 5,13 L7,15 C8.35,13.65 10.11,12.96 11.89,12.94 L18.97,20.02 L20.38,18.61 L3.41,1.64 Z" id="path-1"></path>
    </defs>
    <g id="icon/notification/wifi_off_24px" stroke="none" stroke-width="1" fill="none" fill-rule="evenodd">
        <mask id="mask-2" fill="white">
            <use xlink:href="#path-1"></use>
        </mask>
        <g fill-rule="nonzero"></g>
        <g id="✱-/-Color-/-Icons-/-Black-/-Inactive" mask="url(#mask-2)" fill="#000000" fill-opacity="0.54">
            <rect id="Rectangle" x="0" y="0" width="24" height="24"></rect>
        </g>
    </g>
</svg>