<?xml version="1.0" encoding="UTF-8"?>
<svg width="24px" height="24px" viewBox="0 0 24 24" version="1.1" xmlns="http://www.w3.org/2000/svg" xmlns:xlink="http://www.w3.org/1999/xlink">
    <!-- Generator: Sketch 50 (54983) - http://www.bohemiancoding.com/sketch -->
    <title>icon/social/group_add_24px_sharp</title>
    <desc>Created with Sketch.</desc>
    <defs>
        <path d="M8,10.5 L5,10.5 L5,7.5 L3,7.5 L3,10.5 L0,10.5 L0,12.5 L3,12.5 L3,15.5 L5,15.5 L5,12.5 L8,12.5 L8,10.5 Z M18,11.5 C19.66,11.5 20.99,10.16 20.99,8.5 C20.99,6.84 19.66,5.5 18,5.5 C17.68,5.5 17.37,5.55 17.09,5.64 C17.66,6.45 17.99,7.43 17.99,8.5 C17.99,9.57 17.65,10.54 17.09,11.36 C17.37,11.45 17.68,11.5 18,11.5 Z M13,11.5 C14.66,11.5 15.99,10.16 15.99,8.5 C15.99,6.84 14.66,5.5 13,5.5 C11.34,5.5 10,6.84 10,8.5 C10,10.16 11.34,11.5 13,11.5 Z M19.62,13.66 C20.45,14.39 21,15.32 21,16.5 L21,18.5 L24,18.5 L24,16.5 C24,14.96 21.63,14.01 19.62,13.66 Z M13,13.5 C11,13.5 7,14.5 7,16.5 L7,18.5 L19,18.5 L19,16.5 C19,14.5 15,13.5 13,13.5 Z" id="path-1"></path>
    </defs>
    <g id="icon/social/group_add_24px" stroke="none" stroke-width="1" fill="none" fill-rule="evenodd">
        <mask id="mask-2" fill="white">
            <use xlink:href="#path-1"></use>
        </mask>
        <g fill-rule="nonzero"></g>
        <g id="✱-/-Color-/-Icons-/-Black-/-Inactive" mask="url(#mask-2)" fill="#000000" fill-opacity="0.54">
            <rect id="Rectangle" x="0" y="0" width="24" height="24"></rect>
        </g>
    </g>
</svg>