<?xml version="1.0" encoding="UTF-8"?>
<svg width="24px" height="24px" viewBox="0 0 24 24" version="1.1" xmlns="http://www.w3.org/2000/svg" xmlns:xlink="http://www.w3.org/1999/xlink">
    <!-- Generator: Sketch 50 (54983) - http://www.bohemiancoding.com/sketch -->
    <title>icon/social/notifications_off_24px_sharp</title>
    <desc>Created with Sketch.</desc>
    <defs>
        <path d="M11.305,21.75 C12.405,21.75 13.305,20.85 13.305,19.75 L9.305,19.75 C9.305,20.85 10.195,21.75 11.305,21.75 Z M17.305,10.75 C17.305,7.68 15.665,5.11 12.805,4.43 L12.805,2.25 L9.805,2.25 L9.805,4.43 C9.565,4.49 9.335,4.58 9.115,4.66 L17.305,12.85 L17.305,10.75 Z M4.715,3.1 L3.305,4.51 L6.115,7.32 C5.595,8.32 5.305,9.48 5.305,10.75 L5.305,15.75 L3.305,17.75 L3.305,18.75 L17.545,18.75 L19.285,20.49 L20.695,19.08 L4.715,3.1 Z" id="path-1"></path>
    </defs>
    <g id="icon/social/notifications_off_24px" stroke="none" stroke-width="1" fill="none" fill-rule="evenodd">
        <mask id="mask-2" fill="white">
            <use xlink:href="#path-1"></use>
        </mask>
        <g fill-rule="nonzero"></g>
        <g id="✱-/-Color-/-Icons-/-Black-/-Inactive" mask="url(#mask-2)" fill="#000000" fill-opacity="0.54">
            <rect id="Rectangle" x="0" y="0" width="24" height="24"></rect>
        </g>
    </g>
</svg>