<?xml version="1.0" encoding="UTF-8"?>
<svg width="24px" height="24px" viewBox="0 0 24 24" version="1.1" xmlns="http://www.w3.org/2000/svg" xmlns:xlink="http://www.w3.org/1999/xlink">
    <!-- Generator: Sketch 50 (54983) - http://www.bohemiancoding.com/sketch -->
    <title>icon/social/pages_24px_sharp</title>
    <desc>Created with Sketch.</desc>
    <defs>
        <path d="M3,3 L3,11 L8,11 L7,7 L11,8 L11,3 L3,3 Z M8,13 L3,13 L3,21 L11,21 L11,16 L7,17 L8,13 Z M17,17 L13,16 L13,21 L21,21 L21,13 L16,13 L17,17 Z M21,3 L13,3 L13,8 L17,7 L16,11 L21,11 L21,3 Z" id="path-1"></path>
    </defs>
    <g id="icon/social/pages_24px" stroke="none" stroke-width="1" fill="none" fill-rule="evenodd">
        <mask id="mask-2" fill="white">
            <use xlink:href="#path-1"></use>
        </mask>
        <g fill-rule="nonzero"></g>
        <g id="✱-/-Color-/-Icons-/-Black-/-Inactive" mask="url(#mask-2)" fill="#000000" fill-opacity="0.54">
            <rect id="Rectangle" x="0" y="0" width="24" height="24"></rect>
        </g>
    </g>
</svg>