<?xml version="1.0" encoding="UTF-8"?>
<svg width="24px" height="24px" viewBox="0 0 24 24" version="1.1" xmlns="http://www.w3.org/2000/svg" xmlns:xlink="http://www.w3.org/1999/xlink">
    <!-- Generator: Sketch 50 (54983) - http://www.bohemiancoding.com/sketch -->
    <title>icon/social/sentiment_very_dissatisfied_24px_sharp</title>
    <desc>Created with Sketch.</desc>
    <defs>
        <path d="M12,13.5 C9.67,13.5 7.69,14.96 6.89,17 L17.11,17 C16.31,14.96 14.33,13.5 12,13.5 Z M7.82,12 L8.88,10.94 L9.94,12 L11,10.94 L9.94,9.88 L11,8.82 L9.94,7.76 L8.88,8.82 L7.82,7.76 L6.76,8.82 L7.82,9.88 L6.76,10.94 L7.82,12 Z M11.99,2 C6.47,2 2,6.47 2,12 C2,17.53 6.47,22 11.99,22 C17.51,22 22,17.53 22,12 C22,6.47 17.52,2 11.99,2 Z M12,20 C7.58,20 4,16.42 4,12 C4,7.58 7.58,4 12,4 C16.42,4 20,7.58 20,12 C20,16.42 16.42,20 12,20 Z M16.18,7.76 L15.12,8.82 L14.06,7.76 L13,8.82 L14.06,9.88 L13,10.94 L14.06,12 L15.12,10.94 L16.18,12 L17.24,10.94 L16.18,9.88 L17.24,8.82 L16.18,7.76 Z" id="path-1"></path>
    </defs>
    <g id="icon/social/sentiment_very_dissatisfied_24px" stroke="none" stroke-width="1" fill="none" fill-rule="evenodd">
        <mask id="mask-2" fill="white">
            <use xlink:href="#path-1"></use>
        </mask>
        <g fill-rule="nonzero"></g>
        <g id="✱-/-Color-/-Icons-/-Black-/-Inactive" mask="url(#mask-2)" fill="#000000" fill-opacity="0.54">
            <rect id="Rectangle" x="0" y="0" width="24" height="24"></rect>
        </g>
    </g>
</svg>