<?xml version="1.0" encoding="UTF-8"?>
<svg width="24px" height="24px" viewBox="0 0 24 24" version="1.1" xmlns="http://www.w3.org/2000/svg" xmlns:xlink="http://www.w3.org/1999/xlink">
    <!-- Generator: Sketch 50 (54983) - http://www.bohemiancoding.com/sketch -->
    <title>icon/alert/notification_important_24px_sharp</title>
    <desc>Created with Sketch.</desc>
    <defs>
        <path d="M12,22.75 C13.1,22.75 13.99,21.86 13.99,20.76 L10.01,20.76 C10.01,21.86 10.9,22.75 12,22.75 Z M19,16.75 L19,10.75 C19,7.4 16.64,4.6 13.5,3.92 L13.5,1.25 L10.5,1.25 L10.5,3.92 C7.36,4.6 5,7.4 5,10.75 L5,16.75 L3,18.75 L3,19.75 L21,19.75 L21,18.75 L19,16.75 Z M13,15.75 L11,15.75 L11,13.75 L13,13.75 L13,15.75 Z M13,11.75 L11,11.75 L11,7.75 L13,7.75 L13,11.75 Z" id="path-1"></path>
    </defs>
    <g id="icon/alert/notification_important_24px" stroke="none" stroke-width="1" fill="none" fill-rule="evenodd">
        <mask id="mask-2" fill="white">
            <use xlink:href="#path-1"></use>
        </mask>
        <g fill-rule="nonzero"></g>
        <g id="✱-/-Color-/-Icons-/-Black-/-Inactive" mask="url(#mask-2)" fill="#000000" fill-opacity="0.54">
            <rect id="Rectangle" x="0" y="0" width="24" height="24"></rect>
        </g>
    </g>
</svg>