<?xml version="1.0" encoding="UTF-8"?>
<svg width="24px" height="24px" viewBox="0 0 24 24" version="1.1" xmlns="http://www.w3.org/2000/svg" xmlns:xlink="http://www.w3.org/1999/xlink">
    <!-- Generator: Sketch 50 (54983) - http://www.bohemiancoding.com/sketch -->
    <title>icon/editor/format_italicon/editor/24px_rounded</title>
    <desc>Created with Sketch.</desc>
    <defs>
        <path d="M10,6.5 C10,7.33 10.67,8 11.5,8 L12.21,8 L8.79,16 L7.5,16 C6.67,16 6,16.67 6,17.5 C6,18.33 6.67,19 7.5,19 L12.5,19 C13.33,19 14,18.33 14,17.5 C14,16.67 13.33,16 12.5,16 L11.79,16 L15.21,8 L16.5,8 C17.33,8 18,7.33 18,6.5 C18,5.67 17.33,5 16.5,5 L11.5,5 C10.67,5 10,5.67 10,6.5 Z" id="path-1"></path>
    </defs>
    <g id="icon/editor/format_italicon/editor/24px" stroke="none" stroke-width="1" fill="none" fill-rule="evenodd">
        <mask id="mask-2" fill="white">
            <use xlink:href="#path-1"></use>
        </mask>
        <g fill-rule="nonzero"></g>
        <g id="✱-/-Color-/-Icons-/-Black-/-Inactive" mask="url(#mask-2)" fill="#000000" fill-opacity="0.54">
            <rect id="Rectangle" x="0" y="0" width="24" height="24"></rect>
        </g>
    </g>
</svg>