<?xml version="1.0" encoding="UTF-8"?>
<svg width="24px" height="24px" viewBox="0 0 24 24" version="1.1" xmlns="http://www.w3.org/2000/svg" xmlns:xlink="http://www.w3.org/1999/xlink">
    <!-- Generator: Sketch 50 (54983) - http://www.bohemiancoding.com/sketch -->
    <title>icon/action/accessible_forward_24px_two_tone</title>
    <desc>Created with Sketch.</desc>
    <defs>
        <circle id="path-1" cx="2" cy="2.54" r="2"></circle>
        <path d="M10,10 L8,10 C8,11.65 6.65,13 5,13 C3.35,13 2,11.65 2,10 C2,8.35 3.35,7 5,7 L5,5 C2.24,5 0,7.24 0,10 C0,12.76 2.24,15 5,15 C7.76,15 10,12.76 10,10 Z M13,6.5 L11.14,6.5 L12.81,2.83 C13.42,1.5 12.44,0 10.96,0 L5.76,0 C4.95,0 4.22,0.47 3.89,1.2 L3.22,3 L5.14,3.53 L5.79,2 L8,2 L6.17,6.1 C5.57,7.43 6.56,9 8.02,9 L13,9 L13,14 L15,14 L15,8.5 C15,7.4 14.1,6.5 13,6.5 Z" id="path-3"></path>
    </defs>
    <g id="icon/action/accessible_forward_24px" stroke="none" stroke-width="1" fill="none" fill-rule="evenodd">
        <g id="↳-Dark-Color" transform="translate(16.000000, 2.000000)">
            <mask id="mask-2" fill="white">
                <use xlink:href="#path-1"></use>
            </mask>
            <g id="Mask" fill-rule="nonzero"></g>
            <g id="✱-/-Color-/-Icons-/-Black-/-Inactive" mask="url(#mask-2)" fill="#000000" fill-opacity="0.54">
                <rect id="Rectangle" x="0" y="0" width="101" height="101"></rect>
            </g>
        </g>
        <g id="↳-Dark-Color" transform="translate(5.000000, 7.000000)">
            <mask id="mask-4" fill="white">
                <use xlink:href="#path-3"></use>
            </mask>
            <g id="Mask" fill-rule="nonzero"></g>
            <g id="✱-/-Color-/-Icons-/-Black-/-Inactive" mask="url(#mask-4)" fill="#000000" fill-opacity="0.54">
                <rect id="Rectangle" x="0" y="0" width="101" height="101"></rect>
            </g>
        </g>
    </g>
</svg>