<?xml version="1.0" encoding="UTF-8"?>
<svg width="24px" height="24px" viewBox="0 0 24 24" version="1.1" xmlns="http://www.w3.org/2000/svg" xmlns:xlink="http://www.w3.org/1999/xlink">
    <!-- Generator: Sketch 50 (54983) - http://www.bohemiancoding.com/sketch -->
    <title>icon/action/accessible_24px_two_tone</title>
    <desc>Created with Sketch.</desc>
    <defs>
        <circle id="path-1" cx="2" cy="2" r="2"></circle>
        <path d="M14,6 L14,4 C12.46,4.02 10.91,3.25 9.93,2.17 L8.64,0.74 C8.47,0.55 8.26,0.4 8.03,0.29 C8.02,0.29 8.02,0.28 8.01,0.28 L8,0.28 C7.65,0.08 7.25,-0.02 6.81,0.02 C5.76,0.11 5,1.04 5,2.09 L5,8 C5,9.1 5.9,10 7,10 L12,10 L12,15 L14,15 L14,9.5 C14,8.4 13.1,7.5 12,7.5 L9,7.5 L9,4.05 C10.29,5.12 12.25,5.99 14,6 Z M7.83,11 C7.42,12.16 6.31,13 5,13 C3.34,13 2,11.66 2,10 C2,8.69 2.84,7.59 4,7.17 L4,5.1 C1.72,5.56 0,7.58 0,10 C0,12.76 2.24,15 5,15 C7.42,15 9.44,13.28 9.9,11 L7.83,11 Z" id="path-3"></path>
    </defs>
    <g id="icon/action/accessible_24px" stroke="none" stroke-width="1" fill="none" fill-rule="evenodd">
        <g id="↳-Dark-Color" transform="translate(10.000000, 2.000000)">
            <mask id="mask-2" fill="white">
                <use xlink:href="#path-1"></use>
            </mask>
            <g id="Mask" fill-rule="nonzero"></g>
            <g id="✱-/-Color-/-Icons-/-Black-/-Inactive" mask="url(#mask-2)" fill="#000000" fill-opacity="0.54">
                <rect id="Rectangle" x="0" y="0" width="101" height="101"></rect>
            </g>
        </g>
        <g id="↳-Dark-Color" transform="translate(5.000000, 7.000000)">
            <mask id="mask-4" fill="white">
                <use xlink:href="#path-3"></use>
            </mask>
            <g id="Mask" fill-rule="nonzero"></g>
            <g id="✱-/-Color-/-Icons-/-Black-/-Inactive" mask="url(#mask-4)" fill="#000000" fill-opacity="0.54">
                <rect id="Rectangle" x="0" y="0" width="101" height="101"></rect>
            </g>
        </g>
    </g>
</svg>