<?xml version="1.0" encoding="UTF-8"?>
<svg width="24px" height="24px" viewBox="0 0 24 24" version="1.1" xmlns="http://www.w3.org/2000/svg" xmlns:xlink="http://www.w3.org/1999/xlink">
    <!-- Generator: Sketch 50 (54983) - http://www.bohemiancoding.com/sketch -->
    <title>icon/action/accessibility_24px_two_tone</title>
    <desc>Created with Sketch.</desc>
    <defs>
        <path d="M9,0 C10.1,0 11,0.9 11,2 C11,3.1 10.1,4 9,4 C7.9,4 7,3.1 7,2 C7,0.9 7.9,0 9,0 Z M18,7 L12,7 L12,20 L10,20 L10,14 L8,14 L8,20 L6,20 L6,7 L0,7 L0,5 L18,5 L18,7 Z" id="path-1"></path>
    </defs>
    <g id="icon/action/accessibility_24px" stroke="none" stroke-width="1" fill="none" fill-rule="evenodd">
        <g id="↳-Dark-Color" transform="translate(3.000000, 2.000000)">
            <mask id="mask-2" fill="white">
                <use xlink:href="#path-1"></use>
            </mask>
            <g id="Mask" fill-rule="nonzero"></g>
            <g id="✱-/-Color-/-Icons-/-Black-/-Inactive" mask="url(#mask-2)" fill="#000000" fill-opacity="0.54">
                <rect id="Rectangle" x="0" y="0" width="101" height="101"></rect>
            </g>
        </g>
    </g>
</svg>