<?xml version="1.0" encoding="UTF-8"?>
<svg width="24px" height="24px" viewBox="0 0 24 24" version="1.1" xmlns="http://www.w3.org/2000/svg" xmlns:xlink="http://www.w3.org/1999/xlink">
    <!-- Generator: Sketch 50 (54983) - http://www.bohemiancoding.com/sketch -->
    <title>icon/action/accessibility_new_24px_two_tone</title>
    <desc>Created with Sketch.</desc>
    <defs>
        <path d="M17.5,4 C14.89,4.7 11.83,5 9,5 C6.17,5 3.11,4.7 0.5,4 L0,6 C1.86,6.5 4,6.83 6,7 L6,20 L8,20 L8,14 L10,14 L10,20 L12,20 L12,7 C14,6.83 16.14,6.5 18,6 L17.5,4 Z M9,4 C10.1,4 11,3.1 11,2 C11,0.9 10.1,0 9,0 C7.9,0 7,0.9 7,2 C7,3.1 7.9,4 9,4 Z" id="path-1"></path>
    </defs>
    <g id="icon/action/accessibility_new_24px" stroke="none" stroke-width="1" fill="none" fill-rule="evenodd">
        <g id="↳-Dark-Color" transform="translate(3.000000, 2.000000)">
            <mask id="mask-2" fill="white">
                <use xlink:href="#path-1"></use>
            </mask>
            <g id="Mask" fill-rule="nonzero"></g>
            <g id="✱-/-Color-/-Icons-/-Black-/-Inactive" mask="url(#mask-2)" fill="#000000" fill-opacity="0.54">
                <rect id="Rectangle" x="0" y="0" width="101" height="101"></rect>
            </g>
        </g>
    </g>
</svg>