<?xml version="1.0" encoding="UTF-8"?>
<svg width="24px" height="24px" viewBox="0 0 24 24" version="1.1" xmlns="http://www.w3.org/2000/svg" xmlns:xlink="http://www.w3.org/1999/xlink">
    <!-- Generator: Sketch 50 (54983) - http://www.bohemiancoding.com/sketch -->
    <title>icon/action/account_circle_24px_two_tone</title>
    <desc>Created with Sketch.</desc>
    <defs>
        <path d="M8,0 C3.59,0 0,3.59 0,8 C0,9.82 0.62,11.49 1.64,12.83 C3.07,11.09 6.54,10.5 8,10.5 C9.46,10.5 12.93,11.09 14.36,12.83 C15.38,11.49 16,9.82 16,8 C16,3.59 12.41,0 8,0 Z M8,9 C6.06,9 4.5,7.44 4.5,5.5 C4.5,3.56 6.06,2 8,2 C9.94,2 11.5,3.56 11.5,5.5 C11.5,7.44 9.94,9 8,9 Z" id="path-1"></path>
        <path d="M10,0 C4.48,0 0,4.48 0,10 C0,15.52 4.48,20 10,20 C15.52,20 20,15.52 20,10 C20,4.48 15.52,0 10,0 Z M5.07,16.28 C5.5,15.38 8.12,14.5 10,14.5 C11.88,14.5 14.51,15.38 14.93,16.28 C13.57,17.36 11.86,18 10,18 C8.14,18 6.43,17.36 5.07,16.28 Z M16.36,14.83 C14.93,13.09 11.46,12.5 10,12.5 C8.54,12.5 5.07,13.09 3.64,14.83 C2.62,13.49 2,11.82 2,10 C2,5.59 5.59,2 10,2 C14.41,2 18,5.59 18,10 C18,11.82 17.38,13.49 16.36,14.83 Z" id="path-3"></path>
        <path d="M4,0 C2.06,0 0.5,1.56 0.5,3.5 C0.5,5.44 2.06,7 4,7 C5.94,7 7.5,5.44 7.5,3.5 C7.5,1.56 5.94,0 4,0 Z M4,5 C3.17,5 2.5,4.33 2.5,3.5 C2.5,2.67 3.17,2 4,2 C4.83,2 5.5,2.67 5.5,3.5 C5.5,4.33 4.83,5 4,5 Z" id="path-5"></path>
    </defs>
    <g id="icon/action/account_circle_24px" stroke="none" stroke-width="1" fill="none" fill-rule="evenodd">
        <g id="↳-Light-Color" transform="translate(4.000000, 4.000000)">
            <mask id="mask-2" fill="white">
                <use xlink:href="#path-1"></use>
            </mask>
            <g id="Mask" opacity="0.3" fill-rule="nonzero"></g>
            <g id="✱-/-Color-/-Icons-/-Black-/-Disabled" mask="url(#mask-2)" fill="#000000" fill-opacity="0.38">
                <rect id="Rectangle" x="0" y="0" width="101" height="101"></rect>
            </g>
        </g>
        <g id="↳-Dark-Color" transform="translate(2.000000, 2.000000)">
            <mask id="mask-4" fill="white">
                <use xlink:href="#path-3"></use>
            </mask>
            <g id="Mask" fill-rule="nonzero"></g>
            <g id="✱-/-Color-/-Icons-/-Black-/-Inactive" mask="url(#mask-4)" fill="#000000" fill-opacity="0.54">
                <rect id="Rectangle" x="0" y="0" width="101" height="101"></rect>
            </g>
        </g>
        <g id="↳-Dark-Color" transform="translate(8.000000, 6.000000)">
            <mask id="mask-6" fill="white">
                <use xlink:href="#path-5"></use>
            </mask>
            <g id="Mask" fill-rule="nonzero"></g>
            <g id="✱-/-Color-/-Icons-/-Black-/-Inactive" mask="url(#mask-6)" fill="#000000" fill-opacity="0.54">
                <rect id="Rectangle" x="0" y="0" width="101" height="101"></rect>
            </g>
        </g>
    </g>
</svg>