<?xml version="1.0" encoding="UTF-8"?>
<svg width="24px" height="24px" viewBox="0 0 24 24" version="1.1" xmlns="http://www.w3.org/2000/svg" xmlns:xlink="http://www.w3.org/1999/xlink">
    <!-- Generator: Sketch 50 (54983) - http://www.bohemiancoding.com/sketch -->
    <title>icon/action/account_balance_wallet_24px_two_tone</title>
    <desc>Created with Sketch.</desc>
    <defs>
        <path d="M8,12 C6.9,12 6,11.1 6,10 L6,4 C6,2.9 6.9,2 8,2 L14,2 L14,0 L0,0 L0,14 L14,14 L14,12 L8,12 Z" id="path-1"></path>
        <path d="M18,4.28 L18,2 C18,0.9 17.1,0 16,0 L2,0 C0.89,0 0,0.9 0,2 L0,16 C0,17.1 0.89,18 2,18 L16,18 C17.1,18 18,17.1 18,16 L18,13.72 C18.59,13.37 19,12.74 19,12 L19,6 C19,5.26 18.59,4.62 18,4.28 Z M17,6 L17,12 L10,12 L10,6 L17,6 Z M2,16 L2,2 L16,2 L16,4 L10,4 C8.9,4 8,4.9 8,6 L8,12 C8,13.1 8.9,14 10,14 L16,14 L16,16 L2,16 Z" id="path-3"></path>
        <circle id="path-5" cx="2" cy="2" r="1.5"></circle>
    </defs>
    <g id="icon/action/account_balance_wallet_24px" stroke="none" stroke-width="1" fill="none" fill-rule="evenodd">
        <g id="↳-Light-Color" transform="translate(5.000000, 5.000000)">
            <mask id="mask-2" fill="white">
                <use xlink:href="#path-1"></use>
            </mask>
            <g id="Mask" opacity="0.3" fill-rule="nonzero"></g>
            <g id="✱-/-Color-/-Icons-/-Black-/-Disabled" mask="url(#mask-2)" fill="#000000" fill-opacity="0.38">
                <rect id="Rectangle" x="0" y="0" width="101" height="101"></rect>
            </g>
        </g>
        <g id="↳-Dark-Color" transform="translate(3.000000, 3.000000)">
            <mask id="mask-4" fill="white">
                <use xlink:href="#path-3"></use>
            </mask>
            <g id="Mask" fill-rule="nonzero"></g>
            <g id="✱-/-Color-/-Icons-/-Black-/-Inactive" mask="url(#mask-4)" fill="#000000" fill-opacity="0.54">
                <rect id="Rectangle" x="0" y="0" width="101" height="101"></rect>
            </g>
        </g>
        <g id="↳-Dark-Color" transform="translate(14.000000, 10.000000)">
            <mask id="mask-6" fill="white">
                <use xlink:href="#path-5"></use>
            </mask>
            <g id="Mask" fill-rule="nonzero"></g>
            <g id="✱-/-Color-/-Icons-/-Black-/-Inactive" mask="url(#mask-6)" fill="#000000" fill-opacity="0.54">
                <rect id="Rectangle" x="0" y="0" width="101" height="101"></rect>
            </g>
        </g>
    </g>
</svg>