<?xml version="1.0" encoding="UTF-8"?>
<svg width="24px" height="24px" viewBox="0 0 24 24" version="1.1" xmlns="http://www.w3.org/2000/svg" xmlns:xlink="http://www.w3.org/1999/xlink">
    <!-- Generator: Sketch 50 (54983) - http://www.bohemiancoding.com/sketch -->
    <title>icon/action/add_shopping_cart_24px_two_tone</title>
    <desc>Created with Sketch.</desc>
    <defs>
        <path d="M10,8 L12,8 L12,5 L15,5 L15,3 L12,3 L12,0 L10,0 L10,3 L7,3 L7,5 L10,5 L10,8 Z M6,17 C4.9,17 4.01,17.9 4.01,19 C4.01,20.1 4.9,21 6,21 C7.1,21 8,20.1 8,19 C8,17.9 7.1,17 6,17 Z M16,17 C14.9,17 14.01,17.9 14.01,19 C14.01,20.1 14.9,21 16,21 C17.1,21 18,20.1 18,19 C18,17.9 17.1,17 16,17 Z M7.1,12 L14.55,12 C15.3,12 15.96,11.59 16.3,10.97 L20.16,3.96 L18.41,3 L14.55,10 L7.53,10 L3.27,1 L0,1 L0,3 L2,3 L5.6,10.59 L4.25,13.03 C3.52,14.37 4.48,16 6,16 L18,16 L18,14 L6,14 L7.1,12 Z" id="path-1"></path>
    </defs>
    <g id="icon/action/add_shopping_cart_24px" stroke="none" stroke-width="1" fill="none" fill-rule="evenodd">
        <g id="↳-Dark-Color" transform="translate(1.000000, 1.000000)">
            <mask id="mask-2" fill="white">
                <use xlink:href="#path-1"></use>
            </mask>
            <g id="Mask" fill-rule="nonzero"></g>
            <g id="✱-/-Color-/-Icons-/-Black-/-Inactive" mask="url(#mask-2)" fill="#000000" fill-opacity="0.54">
                <rect id="Rectangle" x="0" y="0" width="101" height="101"></rect>
            </g>
        </g>
    </g>
</svg>