<?xml version="1.0" encoding="UTF-8"?>
<svg width="24px" height="24px" viewBox="0 0 24 24" version="1.1" xmlns="http://www.w3.org/2000/svg" xmlns:xlink="http://www.w3.org/1999/xlink">
    <!-- Generator: Sketch 50 (54983) - http://www.bohemiancoding.com/sketch -->
    <title>icon/action/alarm_off_24px_two_tone</title>
    <desc>Created with Sketch.</desc>
    <defs>
        <path d="M2.04,2.29 C2.66,2.11 3.32,2 4,2 C7.86,2 11,5.14 11,9 C11,9.68 10.89,10.34 10.71,10.96 L12.27,12.52 C12.74,11.44 13,10.25 13,9 C13,4.03 8.97,0 4,0 C2.75,0 1.56,0.26 0.47,0.72 L2.04,2.29 Z" id="path-1"></path>
        <rect id="path-3" x="2.00073062" y="0.500341846" width="2.00003877" height="6.00011631"></rect>
        <path d="M18.24,16.32 L16.81,14.89 L7.11,5.19 L5.68,3.76 C5.68,3.76 5.68,3.76 5.68,3.76 L4.94,3.02 L3.52,1.6 L2.02,0.1 C2.04,0.08 0.61,1.51 0.61,1.51 L1.98,2.88 L1.06,3.65 L2.34,5.19 L3.4,4.31 L4.2,5.11 C2.83,6.69 2,8.75 2,11 C2,15.97 6.03,20 11,20 C13.25,20 15.31,19.17 16.89,17.8 L18.99,19.9 L20.4,18.49 L18.24,16.32 C18.24,16.32 18.24,16.32 18.24,16.32 Z M11,18 C7.14,18 4,14.86 4,11 C4,9.3 4.61,7.74 5.62,6.53 L15.47,16.38 C14.26,17.39 12.7,18 11,18 Z" id="path-5"></path>
        <polygon id="path-7" points="1.48 2.73 1.94 2.35 0.66 0.81 0.06 1.31"></polygon>
    </defs>
    <g id="icon/action/alarm_off_24px" stroke="none" stroke-width="1" fill="none" fill-rule="evenodd">
        <g id="↳-Dark-Color" transform="translate(8.000000, 4.000000)">
            <mask id="mask-2" fill="white">
                <use xlink:href="#path-1"></use>
            </mask>
            <g id="Mask" fill-rule="nonzero"></g>
            <g id="✱-/-Color-/-Icons-/-Black-/-Inactive" mask="url(#mask-2)" fill="#000000" fill-opacity="0.54">
                <rect id="Rectangle" x="0" y="0" width="101" height="101"></rect>
            </g>
        </g>
        <g id="↳-Dark-Color" transform="translate(16.000000, 1.000000)">
            <mask id="mask-4" fill="white">
                <use xlink:href="#path-3"></use>
            </mask>
            <g id="Mask" fill-rule="nonzero" transform="translate(3.000750, 3.500400) rotate(-50.164352) translate(-3.000750, -3.500400) "></g>
            <g id="✱-/-Color-/-Icons-/-Black-/-Inactive" mask="url(#mask-4)" fill="#000000" fill-opacity="0.54">
                <rect id="Rectangle" x="0" y="0" width="101" height="101"></rect>
            </g>
        </g>
        <g id="↳-Dark-Color" transform="translate(1.000000, 2.000000)">
            <mask id="mask-6" fill="white">
                <use xlink:href="#path-5"></use>
            </mask>
            <g id="Mask" fill-rule="nonzero"></g>
            <g id="✱-/-Color-/-Icons-/-Black-/-Inactive" mask="url(#mask-6)" fill="#000000" fill-opacity="0.54">
                <rect id="Rectangle" x="0" y="0" width="101" height="101"></rect>
            </g>
        </g>
        <g id="↳-Dark-Color" transform="translate(6.000000, 1.000000)">
            <mask id="mask-8" fill="white">
                <use xlink:href="#path-7"></use>
            </mask>
            <g id="Mask" fill-rule="nonzero"></g>
            <g id="✱-/-Color-/-Icons-/-Black-/-Inactive" mask="url(#mask-8)" fill="#000000" fill-opacity="0.54">
                <rect id="Rectangle" x="0" y="0" width="101" height="101"></rect>
            </g>
        </g>
    </g>
</svg>