<?xml version="1.0" encoding="UTF-8"?>
<svg width="24px" height="24px" viewBox="0 0 24 24" version="1.1" xmlns="http://www.w3.org/2000/svg" xmlns:xlink="http://www.w3.org/1999/xlink">
    <!-- Generator: Sketch 50 (54983) - http://www.bohemiancoding.com/sketch -->
    <title>icon/action/all_inbox_24px_two_tone</title>
    <desc>Created with Sketch.</desc>
    <defs>
        <path d="M16,0 L2,0 C0.9,0 0,0.9 0,2 L0,9 C0,10.1 0.9,11 2,11 L16,11 C17.1,11 18,10.1 18,9 L18,2 C18,0.9 17.1,0 16,0 Z M2,7 L5.13,7 C5.34,7.78 5.8,8.47 6.4,9 L2,9 L2,7 Z M16,9 L11.6,9 C12.2,8.47 12.66,7.78 12.87,7 L16,7 L16,9 Z M16,5 L11,5 L11,6 C11,7.07 10.07,8 9,8 C7.93,8 7,7.07 7,6 L7,5 L2,5 L2,2 L16,2 L16,5 Z" id="path-1"></path>
        <path d="M11,0 L11,1 C11,1.47 10.81,1.9 10.52,2.25 C10.15,2.7 9.6,3 9,3 C8.4,3 7.85,2.7 7.48,2.25 C7.19,1.9 7,1.47 7,1 L7,0 L0,0 L0,4 C0,5.1 0.9,6 2,6 L16,6 C17.1,6 18,5.1 18,4 L18,0 L11,0 Z M2,2 L5,2 L5.13,2 C5.15,2.09 5.19,2.17 5.22,2.25 C5.46,2.93 5.87,3.53 6.4,4 L2,4 L2,2 Z M16,4 L11.6,4 C12.14,3.53 12.55,2.93 12.78,2.25 C12.81,2.17 12.85,2.09 12.87,2 L14,2 L16,2 L16,4 Z" id="path-3"></path>
        <path d="M3.13,0 L0,0 L0,2 L4.4,2 C3.8,1.47 3.34,0.78 3.13,0 Z" id="path-5"></path>
        <path d="M0.6,2 L5,2 L5,0 L1.87,0 C1.66,0.78 1.2,1.47 0.6,2 Z" id="path-7"></path>
        <path d="M3.22,0.25 C3.19,0.17 3.16,0.09 3.13,0 L3,0 L0,0 L0,2 L4.4,2 C3.87,1.53 3.46,0.93 3.22,0.25 Z" id="path-9"></path>
        <path d="M1.87,0 C1.85,0.09 1.81,0.17 1.78,0.25 C1.55,0.93 1.14,1.53 0.6,2 L5,2 L5,0 L1.87,0 Z" id="path-11"></path>
    </defs>
    <g id="icon/action/all_inbox_24px" stroke="none" stroke-width="1" fill="none" fill-rule="evenodd">
        <g id="↳-Dark-Color" transform="translate(3.000000, 3.000000)">
            <mask id="mask-2" fill="white">
                <use xlink:href="#path-1"></use>
            </mask>
            <g id="Mask" fill-rule="nonzero"></g>
            <g id="✱-/-Color-/-Icons-/-Black-/-Inactive" mask="url(#mask-2)" fill="#000000" fill-opacity="0.54">
                <rect id="Rectangle" x="0" y="0" width="101" height="101"></rect>
            </g>
        </g>
        <g id="↳-Dark-Color" transform="translate(3.000000, 15.000000)">
            <mask id="mask-4" fill="white">
                <use xlink:href="#path-3"></use>
            </mask>
            <g id="Mask" fill-rule="nonzero"></g>
            <g id="✱-/-Color-/-Icons-/-Black-/-Inactive" mask="url(#mask-4)" fill="#000000" fill-opacity="0.54">
                <rect id="Rectangle" x="0" y="0" width="101" height="101"></rect>
            </g>
        </g>
        <g id="↳-Light-Color" transform="translate(5.000000, 10.000000)">
            <mask id="mask-6" fill="white">
                <use xlink:href="#path-5"></use>
            </mask>
            <g id="Mask" opacity="0.3" fill-rule="nonzero"></g>
            <g id="✱-/-Color-/-Icons-/-Black-/-Disabled" mask="url(#mask-6)" fill="#000000" fill-opacity="0.38">
                <rect id="Rectangle" x="0" y="0" width="101" height="101"></rect>
            </g>
        </g>
        <g id="↳-Light-Color" transform="translate(14.000000, 10.000000)">
            <mask id="mask-8" fill="white">
                <use xlink:href="#path-7"></use>
            </mask>
            <g id="Mask" opacity="0.3" fill-rule="nonzero"></g>
            <g id="✱-/-Color-/-Icons-/-Black-/-Disabled" mask="url(#mask-8)" fill="#000000" fill-opacity="0.38">
                <rect id="Rectangle" x="0" y="0" width="101" height="101"></rect>
            </g>
        </g>
        <g id="↳-Light-Color" transform="translate(5.000000, 17.000000)">
            <mask id="mask-10" fill="white">
                <use xlink:href="#path-9"></use>
            </mask>
            <g id="Mask" opacity="0.3" fill-rule="nonzero"></g>
            <g id="✱-/-Color-/-Icons-/-Black-/-Disabled" mask="url(#mask-10)" fill="#000000" fill-opacity="0.38">
                <rect id="Rectangle" x="0" y="0" width="101" height="101"></rect>
            </g>
        </g>
        <g id="↳-Light-Color" transform="translate(14.000000, 17.000000)">
            <mask id="mask-12" fill="white">
                <use xlink:href="#path-11"></use>
            </mask>
            <g id="Mask" opacity="0.3" fill-rule="nonzero"></g>
            <g id="✱-/-Color-/-Icons-/-Black-/-Disabled" mask="url(#mask-12)" fill="#000000" fill-opacity="0.38">
                <rect id="Rectangle" x="0" y="0" width="101" height="101"></rect>
            </g>
        </g>
    </g>
</svg>