<?xml version="1.0" encoding="UTF-8"?>
<svg width="24px" height="24px" viewBox="0 0 24 24" version="1.1" xmlns="http://www.w3.org/2000/svg" xmlns:xlink="http://www.w3.org/1999/xlink">
    <!-- Generator: Sketch 50 (54983) - http://www.bohemiancoding.com/sketch -->
    <title>icon/action/android_24px_two_tone</title>
    <desc>Created with Sketch.</desc>
    <defs>
        <path d="M4,18 C4,18.55 4.45,19 5,19 L6,19 L6,22.5 C6,23.33 6.67,24 7.5,24 C8.33,24 9,23.33 9,22.5 L9,19 L11,19 L11,22.5 C11,23.33 11.67,24 12.5,24 C13.33,24 14,23.33 14,22.5 L14,19 L15,19 C15.55,19 16,18.55 16,18 L16,8 L4,8 L4,18 Z M1.5,8 C0.67,8 0,8.67 0,9.5 L0,16.5 C0,17.33 0.67,18 1.5,18 C2.33,18 3,17.33 3,16.5 L3,9.5 C3,8.67 2.33,8 1.5,8 Z M18.5,8 C17.67,8 17,8.67 17,9.5 L17,16.5 C17,17.33 17.67,18 18.5,18 C19.33,18 20,17.33 20,16.5 L20,9.5 C20,8.67 19.33,8 18.5,8 Z M13.53,2.16 L14.83,0.86 C15.03,0.66 15.03,0.35 14.83,0.15 C14.63,-0.05 14.32,-0.05 14.12,0.15 L12.64,1.63 C11.85,1.23 10.95,1 10,1 C9.04,1 8.14,1.23 7.34,1.63 L5.85,0.15 C5.65,-0.05 5.34,-0.05 5.14,0.15 C4.94,0.35 4.94,0.66 5.14,0.86 L6.45,2.17 C4.97,3.26 4,5.01 4,7 L16,7 C16,5.01 15.03,3.25 13.53,2.16 Z M8,5 L7,5 L7,4 L8,4 L8,5 Z M13,5 L12,5 L12,4 L13,4 L13,5 Z" id="path-1"></path>
    </defs>
    <g id="icon/action/android_24px" stroke="none" stroke-width="1" fill="none" fill-rule="evenodd">
        <g id="↳-Dark-Color" transform="translate(2.000000, 0.000000)">
            <mask id="mask-2" fill="white">
                <use xlink:href="#path-1"></use>
            </mask>
            <g id="Mask" fill-rule="nonzero"></g>
            <g id="✱-/-Color-/-Icons-/-Black-/-Inactive" mask="url(#mask-2)" fill="#000000" fill-opacity="0.54">
                <rect id="Rectangle" x="0" y="0" width="101" height="101"></rect>
            </g>
        </g>
    </g>
</svg>