<?xml version="1.0" encoding="UTF-8"?>
<svg width="24px" height="24px" viewBox="0 0 24 24" version="1.1" xmlns="http://www.w3.org/2000/svg" xmlns:xlink="http://www.w3.org/1999/xlink">
    <!-- Generator: Sketch 50 (54983) - http://www.bohemiancoding.com/sketch -->
    <title>icon/action/bookmarks_24px_two_tone</title>
    <desc>Created with Sketch.</desc>
    <defs>
        <path d="M12,0 L1.99,0 C0.89,0 0,0.9 0,2 L10,2 C11.1,2 12,2.9 12,4 L12,17 L14,18 L14,2 C14,0.9 13.1,0 12,0 Z" id="path-1"></path>
        <path d="M12,0 L2,0 C0.9,0 0,0.9 0,2 L0,18 L7,15 L14,18 L14,2 C14,0.9 13.1,0 12,0 Z M12,14.97 L7.79,13.16 L7,12.82 L6.21,13.16 L2,14.97 L2,2 L12,2 L12,14.97 Z" id="path-3"></path>
        <polygon id="path-5" points="0 12.97 5 10.82 10 12.97 10 0 0 0"></polygon>
    </defs>
    <g id="icon/action/bookmarks_24px" stroke="none" stroke-width="1" fill="none" fill-rule="evenodd">
        <g id="↳-Dark-Color" transform="translate(7.000000, 1.000000)">
            <mask id="mask-2" fill="white">
                <use xlink:href="#path-1"></use>
            </mask>
            <g id="Mask" fill-rule="nonzero"></g>
            <g id="✱-/-Color-/-Icons-/-Black-/-Inactive" mask="url(#mask-2)" fill="#000000" fill-opacity="0.54">
                <rect id="Rectangle" x="0" y="0" width="101" height="101"></rect>
            </g>
        </g>
        <g id="↳-Dark-Color" transform="translate(3.000000, 5.000000)">
            <mask id="mask-4" fill="white">
                <use xlink:href="#path-3"></use>
            </mask>
            <g id="Mask" fill-rule="nonzero"></g>
            <g id="✱-/-Color-/-Icons-/-Black-/-Inactive" mask="url(#mask-4)" fill="#000000" fill-opacity="0.54">
                <rect id="Rectangle" x="0" y="0" width="101" height="101"></rect>
            </g>
        </g>
        <g id="↳-Light-Color" transform="translate(5.000000, 7.000000)">
            <mask id="mask-6" fill="white">
                <use xlink:href="#path-5"></use>
            </mask>
            <g id="Mask" opacity="0.3" fill-rule="nonzero"></g>
            <g id="✱-/-Color-/-Icons-/-Black-/-Disabled" mask="url(#mask-6)" fill="#000000" fill-opacity="0.38">
                <g transform="translate(-2.000000, -2.000000)" id="Rectangle">
                    <rect x="0" y="0" width="101" height="101"></rect>
                </g>
            </g>
        </g>
    </g>
</svg>