<?xml version="1.0" encoding="UTF-8"?>
<svg width="24px" height="24px" viewBox="0 0 24 24" version="1.1" xmlns="http://www.w3.org/2000/svg" xmlns:xlink="http://www.w3.org/1999/xlink">
    <!-- Generator: Sketch 50 (54983) - http://www.bohemiancoding.com/sketch -->
    <title>icon/action/bug_report_24px_two_tone</title>
    <desc>Created with Sketch.</desc>
    <defs>
        <path d="M7.83,2.65 L7.46,2 C7.16,1.47 6.75,1.04 6.25,0.69 L5.64,0.27 L4.96,0.11 C4.63,0.04 4.32,0 4,0 C3.69,0 3.37,0.04 3.06,0.11 L2.32,0.29 L1.75,0.69 C1.26,1.03 0.84,1.48 0.54,2 L0.17,2.65 L0.07,3.3 C0.03,3.53 0,3.78 0,4 L0,5 L0,7 L0,8 C0,8.22 0.03,8.47 0.07,8.7 L0.17,9.35 L0.54,10 C1.26,11.24 2.58,12 4,12 C5.42,12 6.74,11.23 7.46,10 L7.83,9.36 L7.93,8.71 C7.97,8.47 8,8.22 8,8 L8,7 L8,5 L8,4 C8,3.78 7.97,3.53 7.93,3.3 L7.83,2.65 Z M6,9 L2,9 L2,7 L6,7 L6,9 Z M6,5 L2,5 L2,3 L6,3 L6,5 Z" id="path-1"></path>
        <path d="M16,5 L13.19,5 C12.74,4.22 12.12,3.55 11.37,3.04 L13,1.41 L11.59,0 L9.42,2.17 C8.96,2.06 8.49,2 8,2 C7.51,2 7.04,2.06 6.59,2.17 L4.41,0 L3,1.41 L4.62,3.04 C3.88,3.55 3.26,4.22 2.81,5 L0,5 L0,7 L2.09,7 C2.04,7.33 2,7.66 2,8 L2,9 L0,9 L0,11 L2,11 L2,12 C2,12.34 2.04,12.67 2.09,13 L0,13 L0,15 L2.81,15 C3.85,16.79 5.78,18 8,18 C10.22,18 12.15,16.79 13.19,15 L16,15 L16,13 L13.91,13 C13.96,12.67 14,12.34 14,12 L14,11 L16,11 L16,9 L14,9 L14,8 C14,7.66 13.96,7.33 13.91,7 L16,7 L16,5 Z M12,9 L12,11 L12,12 C12,12.22 11.97,12.47 11.93,12.7 L11.83,13.35 L11.46,14 C10.74,15.24 9.42,16 8,16 C6.58,16 5.26,15.23 4.54,14 L4.17,13.36 L4.07,12.71 C4.03,12.47 4,12.22 4,12 L4,11 L4,9 L4,8 C4,7.78 4.03,7.53 4.07,7.3 L4.17,6.65 L4.54,6 C4.84,5.48 5.26,5.03 5.75,4.69 L6.32,4.3 L7.06,4.12 C7.37,4.04 7.69,4 8,4 C8.32,4 8.63,4.04 8.95,4.12 L9.63,4.28 L10.24,4.7 C10.74,5.04 11.15,5.48 11.45,6.01 L11.83,6.66 L11.93,7.31 C11.97,7.53 12,7.78 12,8 L12,9 Z" id="path-3"></path>
        <rect id="path-5" x="0" y="0" width="4" height="2"></rect>
        <rect id="path-7" x="0" y="0" width="4" height="2"></rect>
    </defs>
    <g id="icon/action/bug_report_24px" stroke="none" stroke-width="1" fill="none" fill-rule="evenodd">
        <g id="↳-Light-Color" transform="translate(8.000000, 7.000000)">
            <mask id="mask-2" fill="white">
                <use xlink:href="#path-1"></use>
            </mask>
            <g id="Mask" opacity="0.3" fill-rule="nonzero"></g>
            <g id="✱-/-Color-/-Icons-/-Black-/-Disabled" mask="url(#mask-2)" fill="#000000" fill-opacity="0.38">
                <rect id="Rectangle" x="0" y="0" width="101" height="101"></rect>
            </g>
        </g>
        <g id="↳-Dark-Color" transform="translate(4.000000, 3.000000)">
            <mask id="mask-4" fill="white">
                <use xlink:href="#path-3"></use>
            </mask>
            <g id="Mask" fill-rule="nonzero"></g>
            <g id="✱-/-Color-/-Icons-/-Black-/-Inactive" mask="url(#mask-4)" fill="#000000" fill-opacity="0.54">
                <rect id="Rectangle" x="0" y="0" width="101" height="101"></rect>
            </g>
        </g>
        <g id="↳-Dark-Color" transform="translate(10.000000, 14.000000)">
            <mask id="mask-6" fill="white">
                <use xlink:href="#path-5"></use>
            </mask>
            <g id="Mask" fill-rule="nonzero"></g>
            <g id="✱-/-Color-/-Icons-/-Black-/-Inactive" mask="url(#mask-6)" fill="#000000" fill-opacity="0.54">
                <rect id="Rectangle" x="0" y="0" width="101" height="101"></rect>
            </g>
        </g>
        <g id="↳-Dark-Color" transform="translate(10.000000, 10.000000)">
            <mask id="mask-8" fill="white">
                <use xlink:href="#path-7"></use>
            </mask>
            <g id="Mask" fill-rule="nonzero"></g>
            <g id="✱-/-Color-/-Icons-/-Black-/-Inactive" mask="url(#mask-8)" fill="#000000" fill-opacity="0.54">
                <rect id="Rectangle" x="0" y="0" width="101" height="101"></rect>
            </g>
        </g>
    </g>
</svg>