<?xml version="1.0" encoding="UTF-8"?>
<svg width="24px" height="24px" viewBox="0 0 24 24" version="1.1" xmlns="http://www.w3.org/2000/svg" xmlns:xlink="http://www.w3.org/1999/xlink">
    <!-- Generator: Sketch 50 (54983) - http://www.bohemiancoding.com/sketch -->
    <title>icon/action/build_24px_two_tone</title>
    <desc>Created with Sketch.</desc>
    <defs>
        <path d="M9.92,6.28 C10.16,4.88 9.76,3.39 8.68,2.32 C7.74,1.37 6.48,0.93 5.24,1 L8.33,4.09 L4.09,8.33 L1,5.24 C0.93,6.48 1.37,7.73 2.31,8.68 C3.35,9.72 4.78,10.13 6.14,9.93 C6.85,9.83 7.54,9.55 8.14,9.11 L17.6,18.57 L18.48,17.69 L9.03,8.24 C9.5,7.64 9.8,6.98 9.92,6.28 Z" id="path-1"></path>
        <path d="M22.61,18.97 L13.54,9.9 C14.47,7.56 13.99,4.8 12.1,2.9 C9.8,0.6 6.22,0.39 3.67,2.25 L7.5,6.08 L6.08,7.5 L2.25,3.67 C0.39,6.21 0.6,9.79 2.9,12.09 C4.76,13.95 7.47,14.44 9.79,13.57 L18.9,22.68 C19.29,23.07 19.92,23.07 20.31,22.68 L22.61,20.38 C23.01,20 23.01,19.36 22.61,18.97 Z M19.61,20.57 L10.15,11.11 C9.54,11.56 8.86,11.83 8.15,11.93 C6.79,12.13 5.36,11.72 4.32,10.68 C3.37,9.74 2.93,8.48 3,7.24 L6.09,10.33 L10.33,6.09 L7.24,3 C8.48,2.93 9.73,3.37 10.68,4.31 C11.76,5.39 12.17,6.88 11.92,8.27 C11.8,8.97 11.5,9.63 11.04,10.22 L20.49,19.67 L19.61,20.57 Z" id="path-3"></path>
    </defs>
    <g id="icon/action/build_24px" stroke="none" stroke-width="1" fill="none" fill-rule="evenodd">
        <g id="↳-Light-Color" transform="translate(2.000000, 2.000000)">
            <mask id="mask-2" fill="white">
                <use xlink:href="#path-1"></use>
            </mask>
            <g id="Mask" opacity="0.3" fill-rule="nonzero"></g>
            <g id="✱-/-Color-/-Icons-/-Black-/-Disabled" mask="url(#mask-2)" fill="#000000" fill-opacity="0.38">
                <rect id="Rectangle" x="0" y="0" width="101" height="101"></rect>
            </g>
        </g>
        <g id="↳-Dark-Color">
            <mask id="mask-4" fill="white">
                <use xlink:href="#path-3"></use>
            </mask>
            <g id="Mask" fill-rule="nonzero"></g>
            <g id="✱-/-Color-/-Icons-/-Black-/-Inactive" mask="url(#mask-4)" fill="#000000" fill-opacity="0.54">
                <rect id="Rectangle" x="0" y="0" width="101" height="101"></rect>
            </g>
        </g>
    </g>
</svg>