<?xml version="1.0" encoding="UTF-8"?>
<svg width="24px" height="24px" viewBox="0 0 24 24" version="1.1" xmlns="http://www.w3.org/2000/svg" xmlns:xlink="http://www.w3.org/1999/xlink">
    <!-- Generator: Sketch 50 (54983) - http://www.bohemiancoding.com/sketch -->
    <title>icon/action/cached_24px_two_tone</title>
    <desc>Created with Sketch.</desc>
    <defs>
        <path d="M18,4 L14,8 L17,8 C17,11.31 14.31,14 11,14 C9.99,14 9.03,13.75 8.2,13.3 L6.74,14.76 C7.97,15.54 9.43,16 11,16 C15.42,16 19,12.42 19,8 L22,8 L18,4 Z M5,8 C5,4.69 7.69,2 11,2 C12.01,2 12.97,2.25 13.8,2.7 L15.26,1.24 C14.03,0.46 12.57,0 11,0 C6.58,0 3,3.58 3,8 L0,8 L4,12 L8,8 L5,8 Z" id="path-1"></path>
    </defs>
    <g id="icon/action/cached_24px" stroke="none" stroke-width="1" fill="none" fill-rule="evenodd">
        <g id="↳-Dark-Color" transform="translate(1.000000, 4.000000)">
            <mask id="mask-2" fill="white">
                <use xlink:href="#path-1"></use>
            </mask>
            <g id="Mask" fill-rule="nonzero"></g>
            <g id="✱-/-Color-/-Icons-/-Black-/-Inactive" mask="url(#mask-2)" fill="#000000" fill-opacity="0.54">
                <rect id="Rectangle" x="0" y="0" width="101" height="101"></rect>
            </g>
        </g>
    </g>
</svg>