<?xml version="1.0" encoding="UTF-8"?>
<svg width="24px" height="24px" viewBox="0 0 24 24" version="1.1" xmlns="http://www.w3.org/2000/svg" xmlns:xlink="http://www.w3.org/1999/xlink">
    <!-- Generator: Sketch 50 (54983) - http://www.bohemiancoding.com/sketch -->
    <title>icon/action/calendar_today_24px_two_tone</title>
    <desc>Created with Sketch.</desc>
    <defs>
        <path d="M18,2 L17,2 L17,0 L15,0 L15,2 L5,2 L5,0 L3,0 L3,2 L2,2 C0.9,2 0,2.9 0,4 L0,20 C0,21.1 0.9,22 2,22 L18,22 C19.1,22 20,21.1 20,20 L20,4 C20,2.9 19.1,2 18,2 Z M18,4 L18,7 L2,7 L2,4 L18,4 Z M2,20 L2,9 L18,9 L18,20 L2,20 Z" id="path-1"></path>
        <rect id="path-3" x="0" y="0.01" width="16" height="2.99"></rect>
    </defs>
    <g id="icon/action/calendar_today_24px" stroke="none" stroke-width="1" fill="none" fill-rule="evenodd">
        <g id="↳-Dark-Color" transform="translate(2.000000, 1.000000)">
            <mask id="mask-2" fill="white">
                <use xlink:href="#path-1"></use>
            </mask>
            <g id="Mask" fill-rule="nonzero"></g>
            <g id="✱-/-Color-/-Icons-/-Black-/-Inactive" mask="url(#mask-2)" fill="#000000" fill-opacity="0.54">
                <rect id="Rectangle" x="0" y="0" width="101" height="101"></rect>
            </g>
        </g>
        <g id="↳-Light-Color" transform="translate(4.000000, 5.000000)">
            <mask id="mask-4" fill="white">
                <use xlink:href="#path-3"></use>
            </mask>
            <g id="Mask" opacity="0.3" fill-rule="nonzero"></g>
            <g id="✱-/-Color-/-Icons-/-Black-/-Disabled" mask="url(#mask-4)" fill="#000000" fill-opacity="0.38">
                <rect id="Rectangle" x="0" y="0" width="101" height="101"></rect>
            </g>
        </g>
    </g>
</svg>