<?xml version="1.0" encoding="UTF-8"?>
<svg width="24px" height="24px" viewBox="0 0 24 24" version="1.1" xmlns="http://www.w3.org/2000/svg" xmlns:xlink="http://www.w3.org/1999/xlink">
    <!-- Generator: Sketch 50 (54983) - http://www.bohemiancoding.com/sketch -->
    <title>icon/action/card_giftcard_24px_two_tone</title>
    <desc>Created with Sketch.</desc>
    <defs>
        <rect id="path-1" x="0" y="0" width="16" height="2"></rect>
        <polygon id="path-3" points="13 3.83 11.38 5 8 0.4 4.62 5 3 3.83 5.08 1 0 1 0 7 16 7 16 1 10.92 1"></polygon>
        <path d="M18,4 L15.82,4 C15.93,3.69 16,3.35 16,3 C16,1.34 14.66,0 13,0 C11.95,0 11.04,0.54 10.5,1.35 L10,2.02 L9.5,1.34 C8.96,0.54 8.05,0 7,0 C5.34,0 4,1.34 4,3 C4,3.35 4.07,3.69 4.18,4 L2,4 C0.89,4 0.01,4.89 0.01,6 L0,17 C0,18.11 0.89,19 2,19 L18,19 C19.11,19 20,18.11 20,17 L20,6 C20,4.89 19.11,4 18,4 Z M13,2 C13.55,2 14,2.45 14,3 C14,3.55 13.55,4 13,4 C12.45,4 12,3.55 12,3 C12,2.45 12.45,2 13,2 Z M7,2 C7.55,2 8,2.45 8,3 C8,3.55 7.55,4 7,4 C6.45,4 6,3.55 6,3 C6,2.45 6.45,2 7,2 Z M18,17 L2,17 L2,15 L18,15 L18,17 Z M18,12 L2,12 L2,6 L7.08,6 L5,8.83 L6.62,10 L10,5.4 L13.38,10 L15,8.83 L12.92,6 L18,6 L18,12 Z" id="path-5"></path>
    </defs>
    <g id="icon/action/card_giftcard_24px" stroke="none" stroke-width="1" fill="none" fill-rule="evenodd">
        <g id="↳-Light-Color" transform="translate(4.000000, 17.000000)">
            <mask id="mask-2" fill="white">
                <use xlink:href="#path-1"></use>
            </mask>
            <g id="Mask" opacity="0.3" fill-rule="nonzero"></g>
            <g id="✱-/-Color-/-Icons-/-Black-/-Disabled" mask="url(#mask-2)" fill="#000000" fill-opacity="0.38">
                <rect id="Rectangle" x="0" y="0" width="101" height="101"></rect>
            </g>
        </g>
        <g id="↳-Light-Color" transform="translate(4.000000, 7.000000)">
            <mask id="mask-4" fill="white">
                <use xlink:href="#path-3"></use>
            </mask>
            <g id="Mask" opacity="0.3" fill-rule="nonzero"></g>
            <g id="✱-/-Color-/-Icons-/-Black-/-Disabled" mask="url(#mask-4)" fill="#000000" fill-opacity="0.38">
                <rect id="Rectangle" x="0" y="0" width="101" height="101"></rect>
            </g>
        </g>
        <g id="↳-Dark-Color" transform="translate(2.000000, 2.000000)">
            <mask id="mask-6" fill="white">
                <use xlink:href="#path-5"></use>
            </mask>
            <g id="Mask" fill-rule="nonzero"></g>
            <g id="✱-/-Color-/-Icons-/-Black-/-Inactive" mask="url(#mask-6)" fill="#000000" fill-opacity="0.54">
                <rect id="Rectangle" x="0" y="0" width="101" height="101"></rect>
            </g>
        </g>
    </g>
</svg>