<?xml version="1.0" encoding="UTF-8"?>
<svg width="24px" height="24px" viewBox="0 0 24 24" version="1.1" xmlns="http://www.w3.org/2000/svg" xmlns:xlink="http://www.w3.org/1999/xlink">
    <!-- Generator: Sketch 50 (54983) - http://www.bohemiancoding.com/sketch -->
    <title>icon/action/contact_support_24px_two_tone</title>
    <desc>Created with Sketch.</desc>
    <defs>
        <path d="M7.5,0 C3.36,0 0,3.36 0,7.5 C0,11.64 3.36,15 7.5,15 L9,15 L9,17.3 C12.64,15 15,11.22 15,7.5 C15,3.36 11.64,0 7.5,0 Z M8.5,13.5 L6.5,13.5 L6.5,11.5 L8.5,11.5 L8.5,13.5 Z M8.5,10 L6.5,10 C6.5,6.75 9.5,7 9.5,5 C9.5,3.9 8.6,3 7.5,3 C6.4,3 5.5,3.9 5.5,5 L3.5,5 C3.5,2.79 5.29,1 7.5,1 C9.71,1 11.5,2.79 11.5,5 C11.5,7.5 8.5,7.75 8.5,10 Z" id="path-1"></path>
        <path d="M9.5,0 C4.26,0 0,4.26 0,9.5 C0,14.57 3.99,18.73 9,18.99 L9,22.59 L10.43,21.9 C15.56,19.43 19,14.45 19,9.5 C19,4.26 14.74,0 9.5,0 Z M11,19.3 L11,17 L9.5,17 C5.36,17 2,13.64 2,9.5 C2,5.36 5.36,2 9.5,2 C13.64,2 17,5.36 17,9.5 C17,13.23 14.64,17.01 11,19.3 Z" id="path-3"></path>
        <rect id="path-5" x="0.5" y="0.5" width="2" height="2"></rect>
        <path d="M4.5,0 C2.29,0 0.5,1.79 0.5,4 L2.5,4 C2.5,2.9 3.4,2 4.5,2 C5.6,2 6.5,2.9 6.5,4 C6.5,6 3.5,5.75 3.5,9 L5.5,9 C5.5,6.75 8.5,6.5 8.5,4 C8.5,1.79 6.71,0 4.5,0 Z" id="path-7"></path>
    </defs>
    <g id="icon/action/contact_support_24px" stroke="none" stroke-width="1" fill="none" fill-rule="evenodd">
        <g id="↳-Light-Color" transform="translate(4.000000, 3.000000)">
            <mask id="mask-2" fill="white">
                <use xlink:href="#path-1"></use>
            </mask>
            <g id="Mask" opacity="0.3" fill-rule="nonzero"></g>
            <g id="✱-/-Color-/-Icons-/-Black-/-Disabled" mask="url(#mask-2)" fill="#000000" fill-opacity="0.38">
                <rect id="Rectangle" x="0" y="0" width="101" height="101"></rect>
            </g>
        </g>
        <g id="↳-Dark-Color" transform="translate(2.000000, 1.000000)">
            <mask id="mask-4" fill="white">
                <use xlink:href="#path-3"></use>
            </mask>
            <g id="Mask" fill-rule="nonzero"></g>
            <g id="✱-/-Color-/-Icons-/-Black-/-Inactive" mask="url(#mask-4)" fill="#000000" fill-opacity="0.54">
                <rect id="Rectangle" x="0" y="0" width="101" height="101"></rect>
            </g>
        </g>
        <g id="↳-Dark-Color" transform="translate(10.000000, 14.000000)">
            <mask id="mask-6" fill="white">
                <use xlink:href="#path-5"></use>
            </mask>
            <g id="Mask" fill-rule="nonzero"></g>
            <g id="✱-/-Color-/-Icons-/-Black-/-Inactive" mask="url(#mask-6)" fill="#000000" fill-opacity="0.54">
                <rect id="Rectangle" x="0" y="0" width="101" height="101"></rect>
            </g>
        </g>
        <g id="↳-Dark-Color" transform="translate(7.000000, 4.000000)">
            <mask id="mask-8" fill="white">
                <use xlink:href="#path-7"></use>
            </mask>
            <g id="Mask" fill-rule="nonzero"></g>
            <g id="✱-/-Color-/-Icons-/-Black-/-Inactive" mask="url(#mask-8)" fill="#000000" fill-opacity="0.54">
                <rect id="Rectangle" x="0" y="0" width="101" height="101"></rect>
            </g>
        </g>
    </g>
</svg>