<?xml version="1.0" encoding="UTF-8"?>
<svg width="24px" height="24px" viewBox="0 0 24 24" version="1.1" xmlns="http://www.w3.org/2000/svg" xmlns:xlink="http://www.w3.org/1999/xlink">
    <!-- Generator: Sketch 50 (54983) - http://www.bohemiancoding.com/sketch -->
    <title>icon/action/copyright_24px_two_tone</title>
    <desc>Created with Sketch.</desc>
    <defs>
        <path d="M8,0 C3.59,0 0,3.59 0,8 C0,12.41 3.59,16 8,16 C12.41,16 16,12.41 16,8 C16,3.59 12.41,0 8,0 Z M6.08,9.14 C6.13,9.47 6.24,9.77 6.38,10.02 C6.52,10.27 6.72,10.48 6.97,10.64 C7.2,10.79 7.5,10.86 7.86,10.87 C8.07,10.86 8.27,10.84 8.46,10.77 C8.66,10.7 8.83,10.6 8.98,10.47 C9.13,10.34 9.25,10.19 9.34,10.01 C9.43,9.83 9.48,9.64 9.49,9.43 L11.28,9.43 C11.27,9.84 11.16,10.22 10.98,10.58 C10.8,10.94 10.55,11.25 10.24,11.52 C9.93,11.79 9.57,12 9.16,12.15 C8.75,12.3 8.31,12.38 7.84,12.38 C7.19,12.38 6.62,12.26 6.14,12.04 C5.66,11.82 5.26,11.51 4.94,11.13 C4.62,10.75 4.38,10.3 4.23,9.78 C4.08,9.26 4,8.72 4,8.14 L4,7.87 C4,7.29 4.09,6.75 4.24,6.23 C4.39,5.71 4.63,5.26 4.95,4.87 C5.27,4.48 5.67,4.18 6.15,3.95 C6.63,3.72 7.2,3.61 7.85,3.61 C8.36,3.61 8.82,3.68 9.24,3.84 C9.66,4 10.02,4.22 10.32,4.5 C10.62,4.78 10.85,5.12 11.02,5.51 C11.19,5.9 11.28,6.33 11.3,6.8 L9.51,6.8 C9.5,6.58 9.46,6.36 9.37,6.16 C9.28,5.96 9.17,5.78 9.03,5.63 C8.89,5.48 8.71,5.36 8.51,5.27 C8.32,5.19 8.11,5.15 7.88,5.14 C7.51,5.15 7.21,5.22 6.97,5.37 C6.72,5.53 6.52,5.74 6.38,5.99 C6.24,6.24 6.13,6.53 6.08,6.86 C6.03,7.19 6,7.52 6,7.87 L6,8.14 C6,8.47 6.03,8.81 6.08,9.14 Z" id="path-1"></path>
        <path d="M2.08,3.86 C2.13,3.53 2.24,3.24 2.38,2.99 C2.52,2.74 2.72,2.53 2.97,2.37 C3.21,2.22 3.51,2.15 3.88,2.14 C4.11,2.15 4.32,2.19 4.51,2.27 C4.71,2.36 4.89,2.48 5.03,2.63 C5.17,2.78 5.28,2.96 5.37,3.16 C5.46,3.36 5.5,3.58 5.51,3.8 L7.3,3.8 C7.28,3.33 7.19,2.9 7.02,2.51 C6.85,2.12 6.62,1.78 6.32,1.5 C6.02,1.22 5.66,1 5.24,0.84 C4.82,0.68 4.36,0.61 3.85,0.61 C3.2,0.61 2.63,0.72 2.15,0.95 C1.67,1.18 1.27,1.48 0.95,1.87 C0.63,2.26 0.39,2.71 0.24,3.23 C0.09,3.75 0,4.29 0,4.87 L0,5.14 C0,5.72 0.08,6.26 0.23,6.78 C0.38,7.3 0.62,7.75 0.94,8.13 C1.26,8.51 1.66,8.82 2.14,9.04 C2.62,9.26 3.19,9.38 3.84,9.38 C4.31,9.38 4.75,9.3 5.16,9.15 C5.57,9 5.93,8.79 6.24,8.52 C6.55,8.25 6.8,7.94 6.98,7.58 C7.16,7.22 7.27,6.84 7.28,6.43 L5.49,6.43 C5.48,6.64 5.43,6.83 5.34,7.01 C5.25,7.19 5.13,7.34 4.98,7.47 C4.83,7.6 4.66,7.7 4.46,7.77 C4.27,7.84 4.07,7.86 3.86,7.87 C3.5,7.86 3.2,7.79 2.97,7.64 C2.72,7.48 2.52,7.27 2.38,7.02 C2.24,6.77 2.13,6.47 2.08,6.14 C2.03,5.81 2,5.47 2,5.14 L2,4.87 C2,4.52 2.03,4.19 2.08,3.86 Z" id="path-3"></path>
        <path d="M10,0 C4.48,0 0,4.48 0,10 C0,15.52 4.48,20 10,20 C15.52,20 20,15.52 20,10 C20,4.48 15.52,0 10,0 Z M10,18 C5.59,18 2,14.41 2,10 C2,5.59 5.59,2 10,2 C14.41,2 18,5.59 18,10 C18,14.41 14.41,18 10,18 Z" id="path-5"></path>
    </defs>
    <g id="icon/action/copyright_24px" stroke="none" stroke-width="1" fill="none" fill-rule="evenodd">
        <g id="↳-Light-Color" transform="translate(4.000000, 4.000000)">
            <mask id="mask-2" fill="white">
                <use xlink:href="#path-1"></use>
            </mask>
            <g id="Mask" opacity="0.3" fill-rule="nonzero"></g>
            <g id="✱-/-Color-/-Icons-/-Black-/-Disabled" mask="url(#mask-2)" fill="#000000" fill-opacity="0.38">
                <rect id="Rectangle" x="0" y="0" width="101" height="101"></rect>
            </g>
        </g>
        <g id="↳-Dark-Color" transform="translate(8.000000, 7.000000)">
            <mask id="mask-4" fill="white">
                <use xlink:href="#path-3"></use>
            </mask>
            <g id="Mask" fill-rule="nonzero"></g>
            <g id="✱-/-Color-/-Icons-/-Black-/-Inactive" mask="url(#mask-4)" fill="#000000" fill-opacity="0.54">
                <rect id="Rectangle" x="0" y="0" width="101" height="101"></rect>
            </g>
        </g>
        <g id="↳-Dark-Color" transform="translate(2.000000, 2.000000)">
            <mask id="mask-6" fill="white">
                <use xlink:href="#path-5"></use>
            </mask>
            <g id="Mask" fill-rule="nonzero"></g>
            <g id="✱-/-Color-/-Icons-/-Black-/-Inactive" mask="url(#mask-6)" fill="#000000" fill-opacity="0.54">
                <rect id="Rectangle" x="0" y="0" width="101" height="101"></rect>
            </g>
        </g>
    </g>
</svg>