<?xml version="1.0" encoding="UTF-8"?>
<svg width="24px" height="24px" viewBox="0 0 24 24" version="1.1" xmlns="http://www.w3.org/2000/svg" xmlns:xlink="http://www.w3.org/1999/xlink">
    <!-- Generator: Sketch 50 (54983) - http://www.bohemiancoding.com/sketch -->
    <title>icon/action/dns_24px_two_tone</title>
    <desc>Created with Sketch.</desc>
    <defs>
        <path d="M0,4 L14,4 L14,0 L0,0 L0,4 Z M2,0.5 C2.83,0.5 3.5,1.17 3.5,2 C3.5,2.83 2.83,3.5 2,3.5 C1.17,3.5 0.5,2.83 0.5,2 C0.5,1.17 1.17,0.5 2,0.5 Z" id="path-1"></path>
        <path d="M0,4 L14,4 L14,0 L0,0 L0,4 Z M2,0.5 C2.83,0.5 3.5,1.17 3.5,2 C3.5,2.83 2.83,3.5 2,3.5 C1.17,3.5 0.5,2.83 0.5,2 C0.5,1.17 1.17,0.5 2,0.5 Z" id="path-3"></path>
        <path d="M17,0 L1,0 C0.45,0 0,0.45 0,1 L0,7 C0,7.55 0.45,8 1,8 L17,8 C17.55,8 18,7.55 18,7 L18,1 C18,0.45 17.55,0 17,0 Z M16,6 L2,6 L2,2 L16,2 L16,6 Z" id="path-5"></path>
        <circle id="path-7" cx="2" cy="2" r="1.5"></circle>
        <path d="M17,0 L1,0 C0.45,0 0,0.45 0,1 L0,7 C0,7.55 0.45,8 1,8 L17,8 C17.55,8 18,7.55 18,7 L18,1 C18,0.45 17.55,0 17,0 Z M16,6 L2,6 L2,2 L16,2 L16,6 Z" id="path-9"></path>
        <circle id="path-11" cx="2" cy="2" r="1.5"></circle>
    </defs>
    <g id="icon/action/dns_24px" stroke="none" stroke-width="1" fill="none" fill-rule="evenodd">
        <g id="↳-Light-Color" transform="translate(5.000000, 5.000000)">
            <mask id="mask-2" fill="white">
                <use xlink:href="#path-1"></use>
            </mask>
            <g id="Mask" opacity="0.3" fill-rule="nonzero"></g>
            <g id="✱-/-Color-/-Icons-/-Black-/-Disabled" mask="url(#mask-2)" fill="#000000" fill-opacity="0.38">
                <rect id="Rectangle" x="0" y="0" width="101" height="101"></rect>
            </g>
        </g>
        <g id="↳-Light-Color" transform="translate(5.000000, 15.000000)">
            <mask id="mask-4" fill="white">
                <use xlink:href="#path-3"></use>
            </mask>
            <g id="Mask" opacity="0.3" fill-rule="nonzero"></g>
            <g id="✱-/-Color-/-Icons-/-Black-/-Disabled" mask="url(#mask-4)" fill="#000000" fill-opacity="0.38">
                <rect id="Rectangle" x="0" y="0" width="101" height="101"></rect>
            </g>
        </g>
        <g id="↳-Dark-Color" transform="translate(3.000000, 13.000000)">
            <mask id="mask-6" fill="white">
                <use xlink:href="#path-5"></use>
            </mask>
            <g id="Mask" fill-rule="nonzero"></g>
            <g id="✱-/-Color-/-Icons-/-Black-/-Inactive" mask="url(#mask-6)" fill="#000000" fill-opacity="0.54">
                <rect id="Rectangle" x="0" y="0" width="101" height="101"></rect>
            </g>
        </g>
        <g id="↳-Dark-Color" transform="translate(5.000000, 15.000000)">
            <mask id="mask-8" fill="white">
                <use xlink:href="#path-7"></use>
            </mask>
            <g id="Mask" fill-rule="nonzero"></g>
            <g id="✱-/-Color-/-Icons-/-Black-/-Inactive" mask="url(#mask-8)" fill="#000000" fill-opacity="0.54">
                <rect id="Rectangle" x="0" y="0" width="101" height="101"></rect>
            </g>
        </g>
        <g id="↳-Dark-Color" transform="translate(3.000000, 3.000000)">
            <mask id="mask-10" fill="white">
                <use xlink:href="#path-9"></use>
            </mask>
            <g id="Mask" fill-rule="nonzero"></g>
            <g id="✱-/-Color-/-Icons-/-Black-/-Inactive" mask="url(#mask-10)" fill="#000000" fill-opacity="0.54">
                <rect id="Rectangle" x="0" y="0" width="101" height="101"></rect>
            </g>
        </g>
        <g id="↳-Dark-Color" transform="translate(5.000000, 5.000000)">
            <mask id="mask-12" fill="white">
                <use xlink:href="#path-11"></use>
            </mask>
            <g id="Mask" fill-rule="nonzero"></g>
            <g id="✱-/-Color-/-Icons-/-Black-/-Inactive" mask="url(#mask-12)" fill="#000000" fill-opacity="0.54">
                <rect id="Rectangle" x="0" y="0" width="101" height="101"></rect>
            </g>
        </g>
    </g>
</svg>