<?xml version="1.0" encoding="UTF-8"?>
<svg width="24px" height="24px" viewBox="0 0 24 24" version="1.1" xmlns="http://www.w3.org/2000/svg" xmlns:xlink="http://www.w3.org/1999/xlink">
    <!-- Generator: Sketch 50 (54983) - http://www.bohemiancoding.com/sketch -->
    <title>icon/action/donut_small_24px_two_tone</title>
    <desc>Created with Sketch.</desc>
    <defs>
        <path d="M0.99,5 L4.42,5 C3.6,3 2,1.4 0,0.58 L0,4.01 C0.37,4.29 0.71,4.63 0.99,5 Z" id="path-1"></path>
        <path d="M0,8 C0,11.35 2.04,14.24 5,15.42 L5,11.98 C3.77,11.05 3,9.58 3,7.99 C3,6.4 3.77,4.93 5,4 L5,0.58 C2.04,1.76 0,4.65 0,8 Z" id="path-3"></path>
        <path d="M0,0.99 L0,4.42 C2,3.6 3.6,2 4.42,0 L0.99,0 C0.71,0.37 0.37,0.71 0,0.99 Z" id="path-5"></path>
        <path d="M1.82,9 L8.95,9 C8.48,4.28 4.72,0.52 0,0.05 L0,7.18 C0.85,7.49 1.51,8.15 1.82,9 Z M2,2.58 C4,3.4 5.6,5 6.42,7 L2.99,7 C2.71,6.63 2.37,6.29 2,6.01 L2,2.58 Z" id="path-7"></path>
        <path d="M0,10 C0,15.19 3.95,19.45 9,19.95 L9,12.82 C7.84,12.4 7,11.3 7,10 C7,8.7 7.84,7.6 9,7.18 L9,0.05 C3.95,0.55 0,4.81 0,10 Z M7,2.58 L7,6.02 C5.77,6.94 5,8.41 5,10 C5,11.59 5.77,13.06 7,13.99 L7,17.43 C4.04,16.24 2,13.35 2,10 C2,6.65 4.04,3.76 7,2.58 Z" id="path-9"></path>
        <path d="M0,1.82 L0,8.95 C4.72,8.48 8.48,4.72 8.95,0 L1.82,0 C1.51,0.85 0.85,1.51 0,1.82 Z M2,2.99 C2.37,2.71 2.71,2.38 2.99,2 L6.42,2 C5.6,4 4,5.6 2,6.42 L2,2.99 Z" id="path-11"></path>
    </defs>
    <g id="icon/action/donut_small_24px" stroke="none" stroke-width="1" fill="none" fill-rule="evenodd">
        <g id="↳-Light-Color" transform="translate(15.000000, 4.000000)">
            <mask id="mask-2" fill="white">
                <use xlink:href="#path-1"></use>
            </mask>
            <g id="Mask" opacity="0.3" fill-rule="nonzero"></g>
            <g id="✱-/-Color-/-Icons-/-Black-/-Disabled" mask="url(#mask-2)" fill="#000000" fill-opacity="0.38">
                <rect id="Rectangle" x="0" y="0" width="101" height="101"></rect>
            </g>
        </g>
        <g id="↳-Light-Color" transform="translate(4.000000, 4.000000)">
            <mask id="mask-4" fill="white">
                <use xlink:href="#path-3"></use>
            </mask>
            <g id="Mask" opacity="0.3" fill-rule="nonzero"></g>
            <g id="✱-/-Color-/-Icons-/-Black-/-Disabled" mask="url(#mask-4)" fill="#000000" fill-opacity="0.38">
                <rect id="Rectangle" x="0" y="0" width="101" height="101"></rect>
            </g>
        </g>
        <g id="↳-Light-Color" transform="translate(15.000000, 15.000000)">
            <mask id="mask-6" fill="white">
                <use xlink:href="#path-5"></use>
            </mask>
            <g id="Mask" opacity="0.3" fill-rule="nonzero"></g>
            <g id="✱-/-Color-/-Icons-/-Black-/-Disabled" mask="url(#mask-6)" fill="#000000" fill-opacity="0.38">
                <rect id="Rectangle" x="0" y="0" width="101" height="101"></rect>
            </g>
        </g>
        <g id="↳-Dark-Color" transform="translate(13.000000, 2.000000)">
            <mask id="mask-8" fill="white">
                <use xlink:href="#path-7"></use>
            </mask>
            <g id="Mask" fill-rule="nonzero"></g>
            <g id="✱-/-Color-/-Icons-/-Black-/-Inactive" mask="url(#mask-8)" fill="#000000" fill-opacity="0.54">
                <rect id="Rectangle" x="0" y="0" width="101" height="101"></rect>
            </g>
        </g>
        <g id="↳-Dark-Color" transform="translate(2.000000, 2.000000)">
            <mask id="mask-10" fill="white">
                <use xlink:href="#path-9"></use>
            </mask>
            <g id="Mask" fill-rule="nonzero"></g>
            <g id="✱-/-Color-/-Icons-/-Black-/-Inactive" mask="url(#mask-10)" fill="#000000" fill-opacity="0.54">
                <rect id="Rectangle" x="0" y="0" width="101" height="101"></rect>
            </g>
        </g>
        <g id="↳-Dark-Color" transform="translate(13.000000, 13.000000)">
            <mask id="mask-12" fill="white">
                <use xlink:href="#path-11"></use>
            </mask>
            <g id="Mask" fill-rule="nonzero"></g>
            <g id="✱-/-Color-/-Icons-/-Black-/-Inactive" mask="url(#mask-12)" fill="#000000" fill-opacity="0.54">
                <rect id="Rectangle" x="0" y="0" width="101" height="101"></rect>
            </g>
        </g>
    </g>
</svg>