<?xml version="1.0" encoding="UTF-8"?>
<svg width="24px" height="24px" viewBox="0 0 24 24" version="1.1" xmlns="http://www.w3.org/2000/svg" xmlns:xlink="http://www.w3.org/1999/xlink">
    <!-- Generator: Sketch 50 (54983) - http://www.bohemiancoding.com/sketch -->
    <title>icon/action/donut_large_24px_two_tone</title>
    <desc>Created with Sketch.</desc>
    <defs>
        <path d="M0,3.08 C3.06,3.52 5.48,5.94 5.92,9 L8.95,9 C8.48,4.28 4.72,0.52 0,0.05 L0,3.08 Z" id="path-1"></path>
        <path d="M5.92,0 C5.48,3.06 3.06,5.48 0,5.92 L0,8.95 C4.72,8.48 8.48,4.72 8.95,0 L5.92,3.55271368e-15 Z" id="path-3"></path>
        <path d="M9,16.92 C5.61,16.43 3,13.52 3,10 C3,6.48 5.61,3.57 9,3.08 L9,0.05 C3.95,0.55 0,4.81 0,10 C0,15.19 3.95,19.45 9,19.95 L9,16.92 Z" id="path-5"></path>
    </defs>
    <g id="icon/action/donut_large_24px" stroke="none" stroke-width="1" fill="none" fill-rule="evenodd">
        <g id="↳-Dark-Color" transform="translate(13.000000, 2.000000)">
            <mask id="mask-2" fill="white">
                <use xlink:href="#path-1"></use>
            </mask>
            <g id="Mask" fill-rule="nonzero"></g>
            <g id="✱-/-Color-/-Icons-/-Black-/-Inactive" mask="url(#mask-2)" fill="#000000" fill-opacity="0.54">
                <rect id="Rectangle" x="0" y="0" width="101" height="101"></rect>
            </g>
        </g>
        <g id="↳-Dark-Color" transform="translate(13.000000, 13.000000)">
            <mask id="mask-4" fill="white">
                <use xlink:href="#path-3"></use>
            </mask>
            <g id="Mask" fill-rule="nonzero"></g>
            <g id="✱-/-Color-/-Icons-/-Black-/-Inactive" mask="url(#mask-4)" fill="#000000" fill-opacity="0.54">
                <rect id="Rectangle" x="0" y="0" width="101" height="101"></rect>
            </g>
        </g>
        <g id="↳-Dark-Color" transform="translate(2.000000, 2.000000)">
            <mask id="mask-6" fill="white">
                <use xlink:href="#path-5"></use>
            </mask>
            <g id="Mask" fill-rule="nonzero"></g>
            <g id="✱-/-Color-/-Icons-/-Black-/-Inactive" mask="url(#mask-6)" fill="#000000" fill-opacity="0.54">
                <rect id="Rectangle" x="0" y="0" width="101" height="101"></rect>
            </g>
        </g>
    </g>
</svg>