<?xml version="1.0" encoding="UTF-8"?>
<svg width="24px" height="24px" viewBox="0 0 24 24" version="1.1" xmlns="http://www.w3.org/2000/svg" xmlns:xlink="http://www.w3.org/1999/xlink">
    <!-- Generator: Sketch 50 (54983) - http://www.bohemiancoding.com/sketch -->
    <title>icon/action/extension_24px_two_tone</title>
    <desc>Created with Sketch.</desc>
    <defs>
        <path d="M15,9 L13,9 L13,7 L13,3 L9,3 L7,3 L7,1 C7,0.72 6.78,0.5 6.5,0.5 C6.22,0.5 6,0.72 6,1 L6,3 L4,3 L0,3 L0.01,5.12 C1.76,5.8 3,7.51 3,9.5 C3,11.49 1.75,13.2 0,13.88 L0,16 L2.12,16 C2.8,14.25 4.51,13 6.5,13 C8.49,13 10.2,14.25 10.88,16 L13,16 L13,12 L13,10 L15,10 C15.28,10 15.5,9.78 15.5,9.5 C15.5,9.22 15.28,9 15,9 Z" id="path-1"></path>
        <path d="M17,9 L17,5 C17,3.9 16.1,3 15,3 L11,3 C11,1.62 9.88,0.5 8.5,0.5 C7.12,0.5 6,1.62 6,3 L2,3 C0.9,3 0.01,3.9 0.01,5 L0.01,8.8 L0.3,8.8 C1.79,8.8 3,10.01 3,11.5 C3,12.99 1.79,14.2 0.3,14.2 L0,14.2 L0,18 C0,19.1 0.9,20 2,20 L5.8,20 L5.8,19.7 C5.8,18.21 7.01,17 8.5,17 C9.99,17 11.2,18.21 11.2,19.7 L11.2,20 L15,20 C16.1,20 17,19.1 17,18 L17,14 C18.38,14 19.5,12.88 19.5,11.5 C19.5,10.12 18.38,9 17,9 Z M17,12 L15,12 L15,14 L15,18 L12.88,18 C12.2,16.25 10.49,15 8.5,15 C6.51,15 4.8,16.25 4.12,18 L2,18 L2,15.88 C3.75,15.2 5,13.49 5,11.5 C5,9.51 3.76,7.8 2.01,7.12 L2,5 L6,5 L8,5 L8,3 C8,2.72 8.22,2.5 8.5,2.5 C8.78,2.5 9,2.72 9,3 L9,5 L11,5 L15,5 L15,9 L15,11 L17,11 C17.28,11 17.5,11.22 17.5,11.5 C17.5,11.78 17.28,12 17,12 Z" id="path-3"></path>
    </defs>
    <g id="icon/action/extension_24px" stroke="none" stroke-width="1" fill="none" fill-rule="evenodd">
        <g id="↳-Light-Color" transform="translate(4.000000, 4.000000)">
            <mask id="mask-2" fill="white">
                <use xlink:href="#path-1"></use>
            </mask>
            <g id="Mask" opacity="0.3" fill-rule="nonzero"></g>
            <g id="✱-/-Color-/-Icons-/-Black-/-Disabled" mask="url(#mask-2)" fill="#000000" fill-opacity="0.38">
                <rect id="Rectangle" x="0" y="0" width="101" height="101"></rect>
            </g>
        </g>
        <g id="↳-Dark-Color" transform="translate(2.000000, 2.000000)">
            <mask id="mask-4" fill="white">
                <use xlink:href="#path-3"></use>
            </mask>
            <g id="Mask" fill-rule="nonzero"></g>
            <g id="✱-/-Color-/-Icons-/-Black-/-Inactive" mask="url(#mask-4)" fill="#000000" fill-opacity="0.54">
                <rect id="Rectangle" x="0" y="0" width="101" height="101"></rect>
            </g>
        </g>
    </g>
</svg>