<?xml version="1.0" encoding="UTF-8"?>
<svg width="24px" height="24px" viewBox="0 0 24 24" version="1.1" xmlns="http://www.w3.org/2000/svg" xmlns:xlink="http://www.w3.org/1999/xlink">
    <!-- Generator: Sketch 50 (54983) - http://www.bohemiancoding.com/sketch -->
    <title>icon/action/face_24px_two_tone</title>
    <desc>Created with Sketch.</desc>
    <defs>
        <path d="M7.5,4 C7.96,4 8.41,3.95 8.84,3.88 C7.44,1.56 4.9,0 2,0 C1.54,0 1.09,0.05 0.66,0.12 C2.06,2.44 4.6,4 7.5,4 Z" id="path-1"></path>
        <path d="M4.08,0.03 C2.37,1 1.05,2.58 0.42,4.47 C2.13,3.5 3.45,1.92 4.08,0.03 Z" id="path-3"></path>
        <path d="M10,0 C4.48,0 0,4.48 0,10 C0,15.52 4.48,20 10,20 C15.52,20 20,15.52 20,10 C20,4.48 15.52,0 10,0 Z M10,2 C12.9,2 15.44,3.56 16.84,5.88 C16.41,5.95 15.96,6 15.5,6 C12.6,6 10.06,4.44 8.66,2.12 C9.09,2.05 9.54,2 10,2 Z M6.08,3.03 C5.45,4.92 4.13,6.5 2.42,7.47 C3.05,5.58 4.37,4 6.08,3.03 Z M10,18 C5.59,18 2,14.41 2,10 C2,9.95 2.01,9.9 2.01,9.85 C4.61,8.87 6.69,6.86 7.75,4.3 C9.58,6.56 12.37,8 15.5,8 C16.25,8 16.97,7.91 17.67,7.76 C17.88,8.47 18,9.22 18,10 C18,14.41 14.41,18 10,18 Z" id="path-5"></path>
        <circle id="path-7" cx="2" cy="2" r="1.25"></circle>
        <circle id="path-9" cx="2" cy="2" r="1.25"></circle>
    </defs>
    <g id="icon/action/face_24px" stroke="none" stroke-width="1" fill="none" fill-rule="evenodd">
        <g id="↳-Light-Color" transform="translate(10.000000, 4.000000)">
            <mask id="mask-2" fill="white">
                <use xlink:href="#path-1"></use>
            </mask>
            <g id="Mask" opacity="0.3" fill-rule="nonzero"></g>
            <g id="✱-/-Color-/-Icons-/-Black-/-Disabled" mask="url(#mask-2)" fill="#000000" fill-opacity="0.38">
                <rect id="Rectangle" x="0" y="0" width="101" height="101"></rect>
            </g>
        </g>
        <g id="↳-Light-Color" transform="translate(4.000000, 5.000000)">
            <mask id="mask-4" fill="white">
                <use xlink:href="#path-3"></use>
            </mask>
            <g id="Mask" opacity="0.3" fill-rule="nonzero"></g>
            <g id="✱-/-Color-/-Icons-/-Black-/-Disabled" mask="url(#mask-4)" fill="#000000" fill-opacity="0.38">
                <rect id="Rectangle" x="0" y="0" width="101" height="101"></rect>
            </g>
        </g>
        <g id="↳-Dark-Color" transform="translate(2.000000, 2.000000)">
            <mask id="mask-6" fill="white">
                <use xlink:href="#path-5"></use>
            </mask>
            <g id="Mask" fill-rule="nonzero"></g>
            <g id="✱-/-Color-/-Icons-/-Black-/-Inactive" mask="url(#mask-6)" fill="#000000" fill-opacity="0.54">
                <rect id="Rectangle" x="0" y="0" width="101" height="101"></rect>
            </g>
        </g>
        <g id="↳-Dark-Color" transform="translate(7.000000, 11.000000)">
            <mask id="mask-8" fill="white">
                <use xlink:href="#path-7"></use>
            </mask>
            <g id="Mask" fill-rule="nonzero"></g>
            <g id="✱-/-Color-/-Icons-/-Black-/-Inactive" mask="url(#mask-8)" fill="#000000" fill-opacity="0.54">
                <rect id="Rectangle" x="0" y="0" width="101" height="101"></rect>
            </g>
        </g>
        <g id="↳-Dark-Color" transform="translate(13.000000, 11.000000)">
            <mask id="mask-10" fill="white">
                <use xlink:href="#path-9"></use>
            </mask>
            <g id="Mask" fill-rule="nonzero"></g>
            <g id="✱-/-Color-/-Icons-/-Black-/-Inactive" mask="url(#mask-10)" fill="#000000" fill-opacity="0.54">
                <rect id="Rectangle" x="0" y="0" width="101" height="101"></rect>
            </g>
        </g>
    </g>
</svg>