<?xml version="1.0" encoding="UTF-8"?>
<svg width="24px" height="24px" viewBox="0 0 24 24" version="1.1" xmlns="http://www.w3.org/2000/svg" xmlns:xlink="http://www.w3.org/1999/xlink">
    <!-- Generator: Sketch 50 (54983) - http://www.bohemiancoding.com/sketch -->
    <title>icon/action/favorite_24px_two_tone</title>
    <desc>Created with Sketch.</desc>
    <defs>
        <path d="M12.5,0 C10.96,0 9.46,0.99 8.94,2.36 L7.07,2.36 C6.54,0.99 5.04,0 3.5,0 C1.5,0 0,1.5 0,3.5 C0,6.39 3.14,9.24 7.9,13.55 L8,13.65 L8.1,13.55 C12.86,9.24 16,6.39 16,3.5 C16,1.5 14.5,0 12.5,0 Z" id="path-1"></path>
        <path d="M14.5,0 C12.76,0 11.09,0.81 10,2.09 C8.91,0.81 7.24,0 5.5,0 C2.42,0 0,2.42 0,5.5 C0,9.28 3.4,12.36 8.55,17.04 L10,18.35 L11.45,17.03 C16.6,12.36 20,9.28 20,5.5 C20,2.42 17.58,0 14.5,0 Z M10.1,15.55 L10,15.65 L9.9,15.55 C5.14,11.24 2,8.39 2,5.5 C2,3.5 3.5,2 5.5,2 C7.04,2 8.54,2.99 9.07,4.36 L10.94,4.36 C11.46,2.99 12.96,2 14.5,2 C16.5,2 18,3.5 18,5.5 C18,8.39 14.86,11.24 10.1,15.55 Z" id="path-3"></path>
    </defs>
    <g id="icon/action/favorite_24px" stroke="none" stroke-width="1" fill="none" fill-rule="evenodd">
        <g id="↳-Light-Color" transform="translate(4.000000, 5.000000)">
            <mask id="mask-2" fill="white">
                <use xlink:href="#path-1"></use>
            </mask>
            <g id="Mask" opacity="0.3" fill-rule="nonzero"></g>
            <g id="✱-/-Color-/-Icons-/-Black-/-Disabled" mask="url(#mask-2)" fill="#000000" fill-opacity="0.38">
                <rect id="Rectangle" x="0" y="0" width="101" height="101"></rect>
            </g>
        </g>
        <g id="↳-Dark-Color" transform="translate(2.000000, 3.000000)">
            <mask id="mask-4" fill="white">
                <use xlink:href="#path-3"></use>
            </mask>
            <g id="Mask" fill-rule="nonzero"></g>
            <g id="✱-/-Color-/-Icons-/-Black-/-Inactive" mask="url(#mask-4)" fill="#000000" fill-opacity="0.54">
                <rect id="Rectangle" x="0" y="0" width="101" height="101"></rect>
            </g>
        </g>
    </g>
</svg>