<?xml version="1.0" encoding="UTF-8"?>
<svg width="24px" height="24px" viewBox="0 0 24 24" version="1.1" xmlns="http://www.w3.org/2000/svg" xmlns:xlink="http://www.w3.org/1999/xlink">
    <!-- Generator: Sketch 50 (54983) - http://www.bohemiancoding.com/sketch -->
    <title>icon/action/find_replace_24px_two_tone</title>
    <desc>Created with Sketch.</desc>
    <defs>
        <path d="M7,2 C8.38,2 9.63,2.56 10.54,3.46 L8,6 L14,6 L14,0 L11.95,2.05 C10.68,0.78 8.93,0 7,0 C3.47,0 0.57,2.61 0.08,6 L2.1,6 C2.56,3.72 4.58,2 7,2 Z M12.64,11.14 C13.3,10.24 13.76,9.17 13.92,8 L11.9,8 C11.44,10.28 9.42,12 7,12 C5.62,12 4.37,11.44 3.46,10.54 L6,8 L0,8 L0,14 L2.05,11.95 C3.32,13.22 5.07,14 7,14 C8.55,14 9.98,13.49 11.14,12.64 L16,17.49 L17.49,16 L12.64,11.14 Z" id="path-1"></path>
    </defs>
    <g id="icon/action/find_replace_24px" stroke="none" stroke-width="1" fill="none" fill-rule="evenodd">
        <g id="↳-Dark-Color" transform="translate(4.000000, 4.000000)">
            <mask id="mask-2" fill="white">
                <use xlink:href="#path-1"></use>
            </mask>
            <g id="Mask" fill-rule="nonzero"></g>
            <g id="✱-/-Color-/-Icons-/-Black-/-Inactive" mask="url(#mask-2)" fill="#000000" fill-opacity="0.54">
                <rect id="Rectangle" x="0" y="0" width="101" height="101"></rect>
            </g>
        </g>
    </g>
</svg>