<?xml version="1.0" encoding="UTF-8"?>
<svg width="24px" height="24px" viewBox="0 0 24 24" version="1.1" xmlns="http://www.w3.org/2000/svg" xmlns:xlink="http://www.w3.org/1999/xlink">
    <!-- Generator: Sketch 50 (54983) - http://www.bohemiancoding.com/sketch -->
    <title>icon/action/fingerprint_24px_two_tone</title>
    <desc>Created with Sketch.</desc>
    <defs>
        <path d="M15.81,2.47 C15.73,2.47 15.65,2.45 15.58,2.41 C13.66,1.42 12,1 10.01,1 C8.03,1 6.15,1.47 4.44,2.41 C4.2,2.54 3.9,2.45 3.76,2.21 C3.63,1.97 3.72,1.66 3.96,1.53 C5.82,0.52 7.86,0 10.01,0 C12.14,0 14,0.47 16.04,1.52 C16.29,1.65 16.38,1.95 16.25,2.19 C16.16,2.37 15.99,2.47 15.81,2.47 Z M1.5,7.72 C1.4,7.72 1.3,7.69 1.21,7.63 C0.98,7.47 0.93,7.16 1.09,6.93 C2.08,5.53 3.34,4.43 4.84,3.66 C7.98,2.04 12,2.03 15.15,3.65 C16.65,4.42 17.91,5.51 18.9,6.9 C19.06,7.12 19.01,7.44 18.78,7.6 C18.55,7.76 18.24,7.71 18.08,7.48 C17.18,6.22 16.04,5.23 14.69,4.54 C11.82,3.07 8.15,3.07 5.29,4.55 C3.93,5.25 2.79,6.25 1.89,7.51 C1.81,7.65 1.66,7.72 1.5,7.72 Z M7.75,19.79 C7.62,19.79 7.49,19.74 7.4,19.64 C6.53,18.77 6.06,18.21 5.39,17 C4.7,15.77 4.34,14.27 4.34,12.66 C4.34,9.69 6.88,7.27 10,7.27 C13.12,7.27 15.66,9.69 15.66,12.66 C15.66,12.94 15.44,13.16 15.16,13.16 C14.88,13.16 14.66,12.94 14.66,12.66 C14.66,10.24 12.57,8.27 10,8.27 C7.43,8.27 5.34,10.24 5.34,12.66 C5.34,14.1 5.66,15.43 6.27,16.51 C6.91,17.66 7.35,18.15 8.12,18.93 C8.31,19.13 8.31,19.44 8.12,19.64 C8.01,19.74 7.88,19.79 7.75,19.79 Z M14.92,17.94 C13.73,17.94 12.68,17.64 11.82,17.05 C10.33,16.04 9.44,14.4 9.44,12.66 C9.44,12.38 9.66,12.16 9.94,12.16 C10.22,12.16 10.44,12.38 10.44,12.66 C10.44,14.07 11.16,15.4 12.38,16.22 C13.09,16.7 13.92,16.93 14.92,16.93 C15.16,16.93 15.56,16.9 15.96,16.83 C16.23,16.78 16.49,16.96 16.54,17.24 C16.59,17.51 16.41,17.77 16.13,17.82 C15.56,17.93 15.06,17.94 14.92,17.94 Z M12.91,20 C12.87,20 12.82,19.99 12.78,19.98 C11.19,19.54 10.15,18.95 9.06,17.88 C7.66,16.49 6.89,14.64 6.89,12.66 C6.89,11.04 8.27,9.72 9.97,9.72 C11.67,9.72 13.05,11.04 13.05,12.66 C13.05,13.73 13.98,14.6 15.13,14.6 C16.28,14.6 17.21,13.73 17.21,12.66 C17.21,8.89 13.96,5.83 9.96,5.83 C7.12,5.83 4.52,7.41 3.35,9.86 C2.96,10.67 2.76,11.62 2.76,12.66 C2.76,13.44 2.83,14.67 3.43,16.27 C3.53,16.53 3.4,16.82 3.14,16.91 C2.88,17.01 2.59,16.87 2.5,16.62 C2.01,15.31 1.77,14.01 1.77,12.66 C1.77,11.46 2,10.37 2.45,9.42 C3.78,6.63 6.73,4.82 9.96,4.82 C14.51,4.82 18.21,8.33 18.21,12.65 C18.21,14.27 16.83,15.59 15.13,15.59 C13.43,15.59 12.05,14.27 12.05,12.65 C12.05,11.58 11.12,10.71 9.97,10.71 C8.82,10.71 7.89,11.58 7.89,12.65 C7.89,14.36 8.55,15.96 9.76,17.16 C10.71,18.1 11.62,18.62 13.03,19.01 C13.3,19.08 13.45,19.36 13.38,19.62 C13.33,19.85 13.12,20 12.91,20 Z" id="path-1"></path>
    </defs>
    <g id="icon/action/fingerprint_24px" stroke="none" stroke-width="1" fill="none" fill-rule="evenodd">
        <g id="↳-Dark-Color" transform="translate(2.000000, 2.000000)">
            <mask id="mask-2" fill="white">
                <use xlink:href="#path-1"></use>
            </mask>
            <g id="Mask" fill-rule="nonzero"></g>
            <g id="✱-/-Color-/-Icons-/-Black-/-Inactive" mask="url(#mask-2)" fill="#000000" fill-opacity="0.54">
                <rect id="Rectangle" x="0" y="0" width="101" height="101"></rect>
            </g>
        </g>
    </g>
</svg>