<?xml version="1.0" encoding="UTF-8"?>
<svg width="24px" height="24px" viewBox="0 0 24 24" version="1.1" xmlns="http://www.w3.org/2000/svg" xmlns:xlink="http://www.w3.org/1999/xlink">
    <!-- Generator: Sketch 50 (54983) - http://www.bohemiancoding.com/sketch -->
    <title>icon/action/flip_to_front_24px_two_tone</title>
    <desc>Created with Sketch.</desc>
    <defs>
        <path d="M0,10 L2,10 L2,8 L0,8 L0,10 Z M0,14 L2,14 L2,12 L0,12 L0,14 Z M2,18 L2,16 L0,16 C0,17.1 0.89,18 2,18 Z M0,6 L2,6 L2,4 L0,4 L0,6 Z M12,18 L14,18 L14,16 L12,16 L12,18 Z M16,0 L6,0 C4.89,0 4,0.9 4,2 L4,12 C4,13.1 4.89,14 6,14 L16,14 C17.1,14 18,13.1 18,12 L18,2 C18,0.9 17.1,0 16,0 Z M16,12 L6,12 L6,2 L16,2 L16,12 Z M8,18 L10,18 L10,16 L8,16 L8,18 Z M4,18 L6,18 L6,16 L4,16 L4,18 Z" id="path-1"></path>
    </defs>
    <g id="icon/action/flip_to_front_24px" stroke="none" stroke-width="1" fill="none" fill-rule="evenodd">
        <g id="↳-Dark-Color" transform="translate(3.000000, 3.000000)">
            <mask id="mask-2" fill="white">
                <use xlink:href="#path-1"></use>
            </mask>
            <g id="Mask" fill-rule="nonzero"></g>
            <g id="✱-/-Color-/-Icons-/-Black-/-Inactive" mask="url(#mask-2)" fill="#000000" fill-opacity="0.54">
                <rect id="Rectangle" x="0" y="0" width="101" height="101"></rect>
            </g>
        </g>
    </g>
</svg>