<?xml version="1.0" encoding="UTF-8"?>
<svg width="24px" height="24px" viewBox="0 0 24 24" version="1.1" xmlns="http://www.w3.org/2000/svg" xmlns:xlink="http://www.w3.org/1999/xlink">
    <!-- Generator: Sketch 50 (54983) - http://www.bohemiancoding.com/sketch -->
    <title>icon/action/g_translate_24px_two_tone</title>
    <desc>Created with Sketch.</desc>
    <defs>
        <path d="M18,3 L8.88,3 L8,0 L2,0 C0.9,0 0,0.9 0,2 L0,15 C0,16.1 0.9,17 2,17 L9,17 L10,20 L18,20 C19.1,20 20,19.1 20,18 L20,5 C20,3.9 19.1,3 18,3 Z M5.17,12.59 C2.92,12.59 1.08,10.76 1.08,8.5 C1.08,6.24 2.91,4.41 5.17,4.41 C6.21,4.41 7.16,4.78 7.91,5.48 L7.98,5.54 L6.75,6.72 L6.69,6.67 C6.4,6.4 5.91,6.08 5.17,6.08 C3.86,6.08 2.79,7.17 2.79,8.5 C2.79,9.83 3.86,10.92 5.17,10.92 C6.54,10.92 7.13,10.05 7.29,9.46 L5.08,9.46 L5.08,7.91 L9.03,7.91 L9.04,7.98 C9.08,8.19 9.09,8.38 9.09,8.59 C9.09,10.94 7.48,12.59 5.17,12.59 Z M10.67,9.08 L14.66,9.08 C14.66,9.08 14.32,10.39 13.1,11.82 C12.58,11.2 12.21,10.59 11.97,10.12 L10.98,10.12 L10.67,9.08 Z M12.39,12.58 L11.85,13.11 L11.2,10.88 C11.53,11.48 11.94,12.06 12.39,12.58 Z M19,18 C19,18.55 18.55,19 18,19 L11,19 L13,17 L12.19,14.23 L13.11,13.31 L15.79,16 L16.52,15.27 L13.81,12.59 C14.71,11.56 15.41,10.34 15.73,9.08 L17,9.08 L17,8.04 L13.36,8.04 L13.36,7 L12.32,7 L12.32,8.04 L10.36,8.04 L9.18,4 L18,4 C18.55,4 19,4.45 19,5 L19,18 Z" id="path-1"></path>
    </defs>
    <g id="icon/action/g_translate_24px" stroke="none" stroke-width="1" fill="none" fill-rule="evenodd">
        <g id="↳-Dark-Color" transform="translate(2.000000, 2.000000)">
            <mask id="mask-2" fill="white">
                <use xlink:href="#path-1"></use>
            </mask>
            <g id="Mask" fill-rule="nonzero"></g>
            <g id="✱-/-Color-/-Icons-/-Black-/-Inactive" mask="url(#mask-2)" fill="#000000" fill-opacity="0.54">
                <rect id="Rectangle" x="0" y="0" width="101" height="101"></rect>
            </g>
        </g>
    </g>
</svg>