<?xml version="1.0" encoding="UTF-8"?>
<svg width="24px" height="24px" viewBox="0 0 24 24" version="1.1" xmlns="http://www.w3.org/2000/svg" xmlns:xlink="http://www.w3.org/1999/xlink">
    <!-- Generator: Sketch 50 (54983) - http://www.bohemiancoding.com/sketch -->
    <title>icon/action/gif_24px_two_tone</title>
    <desc>Created with Sketch.</desc>
    <defs>
        <path d="M6.5,0 L8,0 L8,6 L6.5,6 L6.5,0 Z M4,0 L1,0 C0.4,0 0,0.5 0,1 L0,5 C0,5.5 0.4,6 1,6 L4,6 C4.6,6 5,5.5 5,5 L5,3 L3.5,3 L3.5,4.5 L1.5,4.5 L1.5,1.5 L5,1.5 L5,1 C5,0.5 4.6,0 4,0 Z M14,1.5 L14,0 L9.5,0 L9.5,6 L11,6 L11,4 L13,4 L13,2.5 L11,2.5 L11,1.5 L14,1.5 Z" id="path-1"></path>
    </defs>
    <g id="icon/action/gif_24px" stroke="none" stroke-width="1" fill="none" fill-rule="evenodd">
        <g id="↳-Dark-Color" transform="translate(5.000000, 9.000000)">
            <mask id="mask-2" fill="white">
                <use xlink:href="#path-1"></use>
            </mask>
            <g id="Mask" fill-rule="nonzero"></g>
            <g id="✱-/-Color-/-Icons-/-Black-/-Inactive" mask="url(#mask-2)" fill="#000000" fill-opacity="0.54">
                <rect id="Rectangle" x="0" y="0" width="101" height="101"></rect>
            </g>
        </g>
    </g>
</svg>