<?xml version="1.0" encoding="UTF-8"?>
<svg width="24px" height="24px" viewBox="0 0 24 24" version="1.1" xmlns="http://www.w3.org/2000/svg" xmlns:xlink="http://www.w3.org/1999/xlink">
    <!-- Generator: Sketch 50 (54983) - http://www.bohemiancoding.com/sketch -->
    <title>icon/action/http_24px_two_tone</title>
    <desc>Created with Sketch.</desc>
    <defs>
        <path d="M3.5,2 L1.5,2 L1.5,0 L0,0 L0,6 L1.5,6 L1.5,3.5 L3.5,3.5 L3.5,6 L5,6 L5,0 L3.5,0 L3.5,2 Z M6,1.5 L7.5,1.5 L7.5,6 L9,6 L9,1.5 L10.5,1.5 L10.5,0 L6,0 L6,1.5 Z M11.5,1.5 L13,1.5 L13,6 L14.5,6 L14.5,1.5 L16,1.5 L16,0 L11.5,0 L11.5,1.5 Z M20.5,0 L17,0 L17,6 L18.5,6 L18.5,4 L20.5,4 C21.3,4 22,3.3 22,2.5 L22,1.5 C22,0.7 21.3,0 20.5,0 Z M20.5,2.5 L18.5,2.5 L18.5,1.5 L20.5,1.5 L20.5,2.5 Z" id="path-1"></path>
    </defs>
    <g id="icon/action/http_24px" stroke="none" stroke-width="1" fill="none" fill-rule="evenodd">
        <g id="↳-Dark-Color" transform="translate(1.000000, 9.000000)">
            <mask id="mask-2" fill="white">
                <use xlink:href="#path-1"></use>
            </mask>
            <g id="Mask" fill-rule="nonzero"></g>
            <g id="✱-/-Color-/-Icons-/-Black-/-Inactive" mask="url(#mask-2)" fill="#000000" fill-opacity="0.54">
                <rect id="Rectangle" x="0" y="0" width="101" height="101"></rect>
            </g>
        </g>
    </g>
</svg>