<?xml version="1.0" encoding="UTF-8"?>
<svg width="24px" height="24px" viewBox="0 0 24 24" version="1.1" xmlns="http://www.w3.org/2000/svg" xmlns:xlink="http://www.w3.org/1999/xlink">
    <!-- Generator: Sketch 50 (54983) - http://www.bohemiancoding.com/sketch -->
    <title>icon/action/input_24px_two_tone</title>
    <desc>Created with Sketch.</desc>
    <defs>
        <path d="M20,0.01 L2,0.01 C0.9,0.01 0,0.91 0,2.01 L0,6 L2,6 L2,1.99 L20,1.99 L20,16.02 L2,16.02 L2,12 L0,12 L0,16.01 C0,17.11 0.9,17.99 2,17.99 L20,17.99 C21.1,17.99 22,17.11 22,16.01 L22,2.01 C22,0.9 21.1,0.01 20,0.01 Z M10,13 L14,9 L10,5 L10,8 L0,8 L0,10 L10,10 L10,13 Z" id="path-1"></path>
    </defs>
    <g id="icon/action/input_24px" stroke="none" stroke-width="1" fill="none" fill-rule="evenodd">
        <g id="↳-Dark-Color" transform="translate(1.000000, 3.000000)">
            <mask id="mask-2" fill="white">
                <use xlink:href="#path-1"></use>
            </mask>
            <g id="Mask" fill-rule="nonzero"></g>
            <g id="✱-/-Color-/-Icons-/-Black-/-Inactive" mask="url(#mask-2)" fill="#000000" fill-opacity="0.54">
                <rect id="Rectangle" x="0" y="0" width="101" height="101"></rect>
            </g>
        </g>
    </g>
</svg>