<?xml version="1.0" encoding="UTF-8"?>
<svg width="24px" height="24px" viewBox="0 0 24 24" version="1.1" xmlns="http://www.w3.org/2000/svg" xmlns:xlink="http://www.w3.org/1999/xlink">
    <!-- Generator: Sketch 50 (54983) - http://www.bohemiancoding.com/sketch -->
    <title>icon/action/language_24px_two_tone</title>
    <desc>Created with Sketch.</desc>
    <defs>
        <path d="M0.08,4 L3.03,4 C3.35,2.75 3.81,1.55 4.41,0.44 C2.57,1.07 1.04,2.34 0.08,4 Z" id="path-1"></path>
        <path d="M3.5,2 C3.5,1.32 3.56,0.66 3.64,0 L0.26,0 C0.1,0.64 0,1.31 0,2 C0,2.69 0.1,3.36 0.26,4 L3.64,4 C3.56,3.34 3.5,2.68 3.5,2 Z" id="path-3"></path>
        <path d="M0.08,0 C1.04,1.66 2.57,2.93 4.41,3.56 C3.81,2.45 3.35,1.25 3.03,0 L0.08,0 Z" id="path-5"></path>
        <path d="M2,0.04 C1.17,1.24 0.52,2.57 0.09,4 L3.91,4 C3.48,2.57 2.83,1.24 2,0.04 Z" id="path-7"></path>
        <path d="M4.92,4 C3.96,2.35 2.43,1.07 0.59,0.44 C1.19,1.55 1.65,2.75 1.97,4 L4.92,4 Z" id="path-9"></path>
        <path d="M2,3.96 C2.83,2.76 3.48,1.43 3.91,0 L0.09,0 C0.52,1.43 1.17,2.76 2,3.96 Z" id="path-11"></path>
        <path d="M0.59,3.56 C2.43,2.93 3.96,1.65 4.92,0 L1.97,0 C1.65,1.25 1.19,2.45 0.59,3.56 Z" id="path-13"></path>
        <path d="M3.74,0 L0.36,0 C0.44,0.66 0.5,1.32 0.5,2 C0.5,2.68 0.44,3.34 0.36,4 L3.74,4 C3.9,3.36 4,2.69 4,2 C4,1.31 3.9,0.64 3.74,0 Z" id="path-15"></path>
        <path d="M0.66,0 C0.57,0.65 0.5,1.32 0.5,2 C0.5,2.68 0.57,3.34 0.66,4 L5.34,4 C5.43,3.34 5.5,2.68 5.5,2 C5.5,1.32 5.43,0.65 5.34,0 L0.66,0 Z" id="path-17"></path>
        <path d="M9.99,0 C4.47,0 0,4.48 0,10 C0,15.52 4.47,20 9.99,20 C15.52,20 20,15.52 20,10 C20,4.48 15.52,0 9.99,0 Z M16.92,6 L13.97,6 C13.65,4.75 13.19,3.55 12.59,2.44 C14.43,3.07 15.96,4.35 16.92,6 Z M10,2.04 C10.83,3.24 11.48,4.57 11.91,6 L8.09,6 C8.52,4.57 9.17,3.24 10,2.04 Z M2.26,12 C2.1,11.36 2,10.69 2,10 C2,9.31 2.1,8.64 2.26,8 L5.64,8 C5.56,8.66 5.5,9.32 5.5,10 C5.5,10.68 5.56,11.34 5.64,12 L2.26,12 Z M3.08,14 L6.03,14 C6.35,15.25 6.81,16.45 7.41,17.56 C5.57,16.93 4.04,15.66 3.08,14 Z M6.03,6 L3.08,6 C4.04,4.34 5.57,3.07 7.41,2.44 C6.81,3.55 6.35,4.75 6.03,6 Z M10,17.96 C9.17,16.76 8.52,15.43 8.09,14 L11.91,14 C11.48,15.43 10.83,16.76 10,17.96 Z M12.34,12 L7.66,12 C7.57,11.34 7.5,10.68 7.5,10 C7.5,9.32 7.57,8.65 7.66,8 L12.34,8 C12.43,8.65 12.5,9.32 12.5,10 C12.5,10.68 12.43,11.34 12.34,12 Z M12.59,17.56 C13.19,16.45 13.65,15.25 13.97,14 L16.92,14 C15.96,15.65 14.43,16.93 12.59,17.56 Z M14.36,12 C14.44,11.34 14.5,10.68 14.5,10 C14.5,9.32 14.44,8.66 14.36,8 L17.74,8 C17.9,8.64 18,9.31 18,10 C18,10.69 17.9,11.36 17.74,12 L14.36,12 Z" id="path-19"></path>
    </defs>
    <g id="icon/action/language_24px" stroke="none" stroke-width="1" fill="none" fill-rule="evenodd">
        <g id="↳-Light-Color" transform="translate(5.000000, 4.000000)">
            <mask id="mask-2" fill="white">
                <use xlink:href="#path-1"></use>
            </mask>
            <g id="Mask" opacity="0.3" fill-rule="nonzero"></g>
            <g id="✱-/-Color-/-Icons-/-Black-/-Disabled" mask="url(#mask-2)" fill="#000000" fill-opacity="0.38">
                <rect id="Rectangle" x="0" y="0" width="101" height="101"></rect>
            </g>
        </g>
        <g id="↳-Light-Color" transform="translate(4.000000, 10.000000)">
            <mask id="mask-4" fill="white">
                <use xlink:href="#path-3"></use>
            </mask>
            <g id="Mask" opacity="0.3" fill-rule="nonzero"></g>
            <g id="✱-/-Color-/-Icons-/-Black-/-Disabled" mask="url(#mask-4)" fill="#000000" fill-opacity="0.38">
                <rect id="Rectangle" x="0" y="0" width="101" height="101"></rect>
            </g>
        </g>
        <g id="↳-Light-Color" transform="translate(5.000000, 16.000000)">
            <mask id="mask-6" fill="white">
                <use xlink:href="#path-5"></use>
            </mask>
            <g id="Mask" opacity="0.3" fill-rule="nonzero"></g>
            <g id="✱-/-Color-/-Icons-/-Black-/-Disabled" mask="url(#mask-6)" fill="#000000" fill-opacity="0.38">
                <rect id="Rectangle" x="0" y="0" width="101" height="101"></rect>
            </g>
        </g>
        <g id="↳-Light-Color" transform="translate(10.000000, 4.000000)">
            <mask id="mask-8" fill="white">
                <use xlink:href="#path-7"></use>
            </mask>
            <g id="Mask" opacity="0.3" fill-rule="nonzero"></g>
            <g id="✱-/-Color-/-Icons-/-Black-/-Disabled" mask="url(#mask-8)" fill="#000000" fill-opacity="0.38">
                <rect id="Rectangle" x="0" y="0" width="101" height="101"></rect>
            </g>
        </g>
        <g id="↳-Light-Color" transform="translate(14.000000, 4.000000)">
            <mask id="mask-10" fill="white">
                <use xlink:href="#path-9"></use>
            </mask>
            <g id="Mask" opacity="0.3" fill-rule="nonzero"></g>
            <g id="✱-/-Color-/-Icons-/-Black-/-Disabled" mask="url(#mask-10)" fill="#000000" fill-opacity="0.38">
                <rect id="Rectangle" x="0" y="0" width="101" height="101"></rect>
            </g>
        </g>
        <g id="↳-Light-Color" transform="translate(10.000000, 16.000000)">
            <mask id="mask-12" fill="white">
                <use xlink:href="#path-11"></use>
            </mask>
            <g id="Mask" opacity="0.3" fill-rule="nonzero"></g>
            <g id="✱-/-Color-/-Icons-/-Black-/-Disabled" mask="url(#mask-12)" fill="#000000" fill-opacity="0.38">
                <rect id="Rectangle" x="0" y="0" width="101" height="101"></rect>
            </g>
        </g>
        <g id="↳-Light-Color" transform="translate(14.000000, 16.000000)">
            <mask id="mask-14" fill="white">
                <use xlink:href="#path-13"></use>
            </mask>
            <g id="Mask" opacity="0.3" fill-rule="nonzero"></g>
            <g id="✱-/-Color-/-Icons-/-Black-/-Disabled" mask="url(#mask-14)" fill="#000000" fill-opacity="0.38">
                <rect id="Rectangle" x="0" y="0" width="101" height="101"></rect>
            </g>
        </g>
        <g id="↳-Light-Color" transform="translate(16.000000, 10.000000)">
            <mask id="mask-16" fill="white">
                <use xlink:href="#path-15"></use>
            </mask>
            <g id="Mask" opacity="0.3" fill-rule="nonzero"></g>
            <g id="✱-/-Color-/-Icons-/-Black-/-Disabled" mask="url(#mask-16)" fill="#000000" fill-opacity="0.38">
                <rect id="Rectangle" x="0" y="0" width="101" height="101"></rect>
            </g>
        </g>
        <g id="↳-Light-Color" transform="translate(9.000000, 10.000000)">
            <mask id="mask-18" fill="white">
                <use xlink:href="#path-17"></use>
            </mask>
            <g id="Mask" opacity="0.3" fill-rule="nonzero"></g>
            <g id="✱-/-Color-/-Icons-/-Black-/-Disabled" mask="url(#mask-18)" fill="#000000" fill-opacity="0.38">
                <rect id="Rectangle" x="0" y="0" width="101" height="101"></rect>
            </g>
        </g>
        <g id="↳-Dark-Color" transform="translate(2.000000, 2.000000)">
            <mask id="mask-20" fill="white">
                <use xlink:href="#path-19"></use>
            </mask>
            <g id="Mask" fill-rule="nonzero"></g>
            <g id="✱-/-Color-/-Icons-/-Black-/-Inactive" mask="url(#mask-20)" fill="#000000" fill-opacity="0.54">
                <rect id="Rectangle" x="0" y="0" width="101" height="101"></rect>
            </g>
        </g>
    </g>
</svg>