<?xml version="1.0" encoding="UTF-8"?>
<svg width="24px" height="24px" viewBox="0 0 24 24" version="1.1" xmlns="http://www.w3.org/2000/svg" xmlns:xlink="http://www.w3.org/1999/xlink">
    <!-- Generator: Sketch 50 (54983) - http://www.bohemiancoding.com/sketch -->
    <title>icon/action/line_style_24px_two_tone</title>
    <desc>Created with Sketch.</desc>
    <defs>
        <path d="M0,12 L5,12 L5,10 L0,10 L0,12 Z M6.5,12 L11.5,12 L11.5,10 L6.5,10 L6.5,12 Z M13,12 L18,12 L18,10 L13,10 L13,12 Z M0,16 L2,16 L2,14 L0,14 L0,16 Z M4,16 L6,16 L6,14 L4,14 L4,16 Z M8,16 L10,16 L10,14 L8,14 L8,16 Z M12,16 L14,16 L14,14 L12,14 L12,16 Z M16,16 L18,16 L18,14 L16,14 L16,16 Z M0,8 L8,8 L8,6 L0,6 L0,8 Z M10,8 L18,8 L18,6 L10,6 L10,8 Z M0,0 L0,4 L18,4 L18,0 L0,0 Z" id="path-1"></path>
    </defs>
    <g id="icon/action/line_style_24px" stroke="none" stroke-width="1" fill="none" fill-rule="evenodd">
        <g id="↳-Dark-Color" transform="translate(3.000000, 4.000000)">
            <mask id="mask-2" fill="white">
                <use xlink:href="#path-1"></use>
            </mask>
            <g id="Mask" fill-rule="nonzero"></g>
            <g id="✱-/-Color-/-Icons-/-Black-/-Inactive" mask="url(#mask-2)" fill="#000000" fill-opacity="0.54">
                <rect id="Rectangle" x="0" y="0" width="101" height="101"></rect>
            </g>
        </g>
    </g>
</svg>