<?xml version="1.0" encoding="UTF-8"?>
<svg width="24px" height="24px" viewBox="0 0 24 24" version="1.1" xmlns="http://www.w3.org/2000/svg" xmlns:xlink="http://www.w3.org/1999/xlink">
    <!-- Generator: Sketch 50 (54983) - http://www.bohemiancoding.com/sketch -->
    <title>icon/action/loyalty_24px_two_tone</title>
    <desc>Created with Sketch.</desc>
    <defs>
        <path d="M7,0 L0,0 L0,7 L9,16.01 L16,9 L7,0 Z M2.5,4 C1.67,4 1,3.33 1,2.5 C1,1.67 1.67,1 2.5,1 C3.33,1 4,1.67 4,2.5 C4,3.33 3.33,4 2.5,4 Z M9,7.7 L9.6,7.1 C9.97,6.73 10.49,6.5 11.05,6.5 C12.18,6.5 13.1,7.42 13.1,8.55 C13.1,9.12 12.87,9.63 12.5,10 L9,13.5 L5.5,10 C5.13,9.62 4.9,9.11 4.9,8.55 C4.9,7.42 5.82,6.5 6.95,6.5 C7.52,6.5 8.03,6.73 8.4,7.11 L9,7.7 Z" id="path-1"></path>
        <path d="M19.41,9.58 L10.41,0.58 C10.05,0.22 9.55,0 9,0 L2,0 C0.9,0 0,0.9 0,2 L0,9 C0,9.55 0.22,10.05 0.59,10.42 L9.59,19.42 C9.95,19.78 10.45,20 11,20 C11.55,20 12.05,19.78 12.41,19.41 L19.41,12.41 C19.78,12.05 20,11.55 20,11 C20,10.45 19.77,9.94 19.41,9.58 Z M11,18.01 L2,9 L2,2 L9,2 L9,1.99 L18,10.99 L11,18.01 Z" id="path-3"></path>
        <circle id="path-5" cx="1.5" cy="1.5" r="1.5"></circle>
        <path d="M0.9,2.55 C0.9,3.12 1.13,3.62 1.5,4 L5,7.5 L8.5,4 C8.87,3.63 9.1,3.11 9.1,2.55 C9.1,1.42 8.18,0.5 7.05,0.5 C6.48,0.5 5.97,0.73 5.6,1.1 L5,1.7 L4.4,1.11 C4.03,0.73 3.51,0.5 2.95,0.5 C1.82,0.5 0.9,1.42 0.9,2.55 Z" id="path-7"></path>
    </defs>
    <g id="icon/action/loyalty_24px" stroke="none" stroke-width="1" fill="none" fill-rule="evenodd">
        <g id="↳-Light-Color" transform="translate(4.000000, 4.000000)">
            <mask id="mask-2" fill="white">
                <use xlink:href="#path-1"></use>
            </mask>
            <g id="Mask" opacity="0.3" fill-rule="nonzero"></g>
            <g id="✱-/-Color-/-Icons-/-Black-/-Disabled" mask="url(#mask-2)" fill="#000000" fill-opacity="0.38">
                <rect id="Rectangle" x="0" y="0" width="101" height="101"></rect>
            </g>
        </g>
        <g id="↳-Dark-Color" transform="translate(2.000000, 2.000000)">
            <mask id="mask-4" fill="white">
                <use xlink:href="#path-3"></use>
            </mask>
            <g id="Mask" fill-rule="nonzero"></g>
            <g id="✱-/-Color-/-Icons-/-Black-/-Inactive" mask="url(#mask-4)" fill="#000000" fill-opacity="0.54">
                <rect id="Rectangle" x="0" y="0" width="101" height="101"></rect>
            </g>
        </g>
        <g id="↳-Dark-Color" transform="translate(5.000000, 5.000000)">
            <mask id="mask-6" fill="white">
                <use xlink:href="#path-5"></use>
            </mask>
            <g id="Mask" fill-rule="nonzero"></g>
            <g id="✱-/-Color-/-Icons-/-Black-/-Inactive" mask="url(#mask-6)" fill="#000000" fill-opacity="0.54">
                <rect id="Rectangle" x="0" y="0" width="101" height="101"></rect>
            </g>
        </g>
        <g id="↳-Dark-Color" transform="translate(8.000000, 10.000000)">
            <mask id="mask-8" fill="white">
                <use xlink:href="#path-7"></use>
            </mask>
            <g id="Mask" fill-rule="nonzero"></g>
            <g id="✱-/-Color-/-Icons-/-Black-/-Inactive" mask="url(#mask-8)" fill="#000000" fill-opacity="0.54">
                <rect id="Rectangle" x="0" y="0" width="101" height="101"></rect>
            </g>
        </g>
    </g>
</svg>