<?xml version="1.0" encoding="UTF-8"?>
<svg width="24px" height="24px" viewBox="0 0 24 24" version="1.1" xmlns="http://www.w3.org/2000/svg" xmlns:xlink="http://www.w3.org/1999/xlink">
    <!-- Generator: Sketch 50 (54983) - http://www.bohemiancoding.com/sketch -->
    <title>icon/action/motorcycle_24px_two_tone</title>
    <desc>Created with Sketch.</desc>
    <defs>
        <path d="M1.7,1.31 L1.95,2 L2.68,2 L2.72,2 L4.72,0 L0.98,0 C1.28,0.39 1.52,0.83 1.7,1.31 Z" id="path-1"></path>
        <path d="M19.44,4.03 L15.41,0 L11,0 L11,2 L14.59,2 L16.59,4 L5,4 C2.2,4 0,6.2 0,9 C0,11.8 2.2,14 5,14 C7.46,14 9.45,12.31 9.9,10 L11.55,10 L14.32,7.23 C14.11,7.77 14,8.37 14,9 C14,11.8 16.2,14 19,14 C21.8,14 24,11.8 24,9 C24,6.35 22.03,4.23 19.44,4.03 Z M7.82,10 C7.4,11.15 6.28,12 5,12 C3.37,12 2,10.63 2,9 C2,7.37 3.37,6 5,6 C6.28,6 7.4,6.85 7.82,8 L5,8 L5,10 L7.82,10 Z M10.72,8 L10.68,8 L9.95,8 L9.7,7.31 C9.52,6.83 9.28,6.39 8.98,6 L12.72,6 L10.72,8 Z M19,12 C17.34,12 16,10.66 16,9 C16,7.34 17.34,6 19,6 C20.66,6 22,7.34 22,9 C22,10.66 20.66,12 19,12 Z" id="path-3"></path>
    </defs>
    <g id="icon/action/motorcycle_24px" stroke="none" stroke-width="1" fill="none" fill-rule="evenodd">
        <g id="↳-Light-Color" transform="translate(8.000000, 11.000000)">
            <mask id="mask-2" fill="white">
                <use xlink:href="#path-1"></use>
            </mask>
            <g id="Mask" opacity="0.3" fill-rule="nonzero"></g>
            <g id="✱-/-Color-/-Icons-/-Black-/-Disabled" mask="url(#mask-2)" fill="#000000" fill-opacity="0.38">
                <rect id="Rectangle" x="0" y="0" width="101" height="101"></rect>
            </g>
        </g>
        <g id="↳-Dark-Color" transform="translate(0.000000, 5.000000)">
            <mask id="mask-4" fill="white">
                <use xlink:href="#path-3"></use>
            </mask>
            <g id="Mask" fill-rule="nonzero"></g>
            <g id="✱-/-Color-/-Icons-/-Black-/-Inactive" mask="url(#mask-4)" fill="#000000" fill-opacity="0.54">
                <rect id="Rectangle" x="0" y="0" width="101" height="101"></rect>
            </g>
        </g>
    </g>
</svg>