<?xml version="1.0" encoding="UTF-8"?>
<svg width="24px" height="24px" viewBox="0 0 24 24" version="1.1" xmlns="http://www.w3.org/2000/svg" xmlns:xlink="http://www.w3.org/1999/xlink">
    <!-- Generator: Sketch 50 (54983) - http://www.bohemiancoding.com/sketch -->
    <title>icon/action/note_add_24px_two_tone</title>
    <desc>Created with Sketch.</desc>
    <defs>
        <path d="M7,0 L0,0 L0,16 L12,16 L12,5 L7,5 L7,0 Z M10,10 L10,12 L7,12 L7,15 L5,15 L5,12 L2,12 L2,10 L5,10 L5,7 L7,7 L7,10 L10,10 Z" id="path-1"></path>
        <polygon id="path-3" points="5 0 3 0 3 3 0 3 0 5 3 5 3 8 5 8 5 5 8 5 8 3 5 3"></polygon>
        <path d="M10,0 L2,0 C0.9,0 0,0.9 0,2 L0,18 C0,19.1 0.89,20 1.99,20 L14,20 C15.1,20 16,19.1 16,18 L16,6 L10,0 Z M14,18 L2,18 L2,2 L9,2 L9,7 L14,7 L14,18 Z" id="path-5"></path>
    </defs>
    <g id="icon/action/note_add_24px" stroke="none" stroke-width="1" fill="none" fill-rule="evenodd">
        <g id="↳-Light-Color" transform="translate(6.000000, 4.000000)">
            <mask id="mask-2" fill="white">
                <use xlink:href="#path-1"></use>
            </mask>
            <g id="Mask" opacity="0.3" fill-rule="nonzero"></g>
            <g id="✱-/-Color-/-Icons-/-Black-/-Disabled" mask="url(#mask-2)" fill="#000000" fill-opacity="0.38">
                <rect id="Rectangle" x="0" y="0" width="101" height="101"></rect>
            </g>
        </g>
        <g id="↳-Dark-Color" transform="translate(8.000000, 11.000000)">
            <mask id="mask-4" fill="white">
                <use xlink:href="#path-3"></use>
            </mask>
            <g id="Mask" fill-rule="nonzero"></g>
            <g id="✱-/-Color-/-Icons-/-Black-/-Inactive" mask="url(#mask-4)" fill="#000000" fill-opacity="0.54">
                <rect id="Rectangle" x="0" y="0" width="101" height="101"></rect>
            </g>
        </g>
        <g id="↳-Dark-Color" transform="translate(4.000000, 2.000000)">
            <mask id="mask-6" fill="white">
                <use xlink:href="#path-5"></use>
            </mask>
            <g id="Mask" fill-rule="nonzero"></g>
            <g id="✱-/-Color-/-Icons-/-Black-/-Inactive" mask="url(#mask-6)" fill="#000000" fill-opacity="0.54">
                <rect id="Rectangle" x="0" y="0" width="101" height="101"></rect>
            </g>
        </g>
    </g>
</svg>