<?xml version="1.0" encoding="UTF-8"?>
<svg width="24px" height="24px" viewBox="0 0 24 24" version="1.1" xmlns="http://www.w3.org/2000/svg" xmlns:xlink="http://www.w3.org/1999/xlink">
    <!-- Generator: Sketch 50 (54983) - http://www.bohemiancoding.com/sketch -->
    <title>icon/action/opacity_24px_two_tone</title>
    <desc>Created with Sketch.</desc>
    <defs>
        <path d="M10.24,4.65 L6,0.27 L1.76,4.6 C0.62,5.73 0.01,7 0,9 L12,9 C11.99,7 11.38,5.77 10.24,4.65 Z" id="path-1"></path>
        <path d="M13.66,6 L8,0.35 L2.34,6 C0.78,7.56 0,9.64 0,11.64 C0,13.64 0.78,15.75 2.34,17.31 C3.9,18.87 5.95,19.66 8,19.66 C10.05,19.66 12.1,18.87 13.66,17.31 C15.22,15.75 16,13.64 16,11.64 C16,9.64 15.22,7.56 13.66,6 Z M2,12 C2.01,10 2.62,8.73 3.76,7.6 L8,3.27 L12.24,7.65 C13.38,8.77 13.99,10 14,12 L2,12 Z" id="path-3"></path>
    </defs>
    <g id="icon/action/opacity_24px" stroke="none" stroke-width="1" fill="none" fill-rule="evenodd">
        <g id="↳-Light-Color" transform="translate(6.000000, 5.000000)">
            <mask id="mask-2" fill="white">
                <use xlink:href="#path-1"></use>
            </mask>
            <g id="Mask" opacity="0.3" fill-rule="nonzero"></g>
            <g id="✱-/-Color-/-Icons-/-Black-/-Disabled" mask="url(#mask-2)" fill="#000000" fill-opacity="0.38">
                <rect id="Rectangle" x="0" y="0" width="101" height="101"></rect>
            </g>
        </g>
        <g id="↳-Dark-Color" transform="translate(4.000000, 2.000000)">
            <mask id="mask-4" fill="white">
                <use xlink:href="#path-3"></use>
            </mask>
            <g id="Mask" fill-rule="nonzero"></g>
            <g id="✱-/-Color-/-Icons-/-Black-/-Inactive" mask="url(#mask-4)" fill="#000000" fill-opacity="0.54">
                <rect id="Rectangle" x="0" y="0" width="101" height="101"></rect>
            </g>
        </g>
    </g>
</svg>