<?xml version="1.0" encoding="UTF-8"?>
<svg width="24px" height="24px" viewBox="0 0 24 24" version="1.1" xmlns="http://www.w3.org/2000/svg" xmlns:xlink="http://www.w3.org/1999/xlink">
    <!-- Generator: Sketch 50 (54983) - http://www.bohemiancoding.com/sketch -->
    <title>icon/action/open_with_24px_two_tone</title>
    <desc>Created with Sketch.</desc>
    <defs>
        <path d="M9,8 L13,8 L13,5 L16,5 L11,0 L6,5 L9,5 L9,8 Z M8,9 L5,9 L5,6 L0,11 L5,16 L5,13 L8,13 L8,9 Z M22,11 L17,6 L17,9 L14,9 L14,13 L17,13 L17,16 L22,11 Z M13,14 L9,14 L9,17 L6,17 L11,22 L16,17 L13,17 L13,14 Z" id="path-1"></path>
    </defs>
    <g id="icon/action/open_with_24px" stroke="none" stroke-width="1" fill="none" fill-rule="evenodd">
        <g id="↳-Dark-Color" transform="translate(1.000000, 1.000000)">
            <mask id="mask-2" fill="white">
                <use xlink:href="#path-1"></use>
            </mask>
            <g id="Mask" fill-rule="nonzero"></g>
            <g id="✱-/-Color-/-Icons-/-Black-/-Inactive" mask="url(#mask-2)" fill="#000000" fill-opacity="0.54">
                <rect id="Rectangle" x="0" y="0" width="101" height="101"></rect>
            </g>
        </g>
    </g>
</svg>