<?xml version="1.0" encoding="UTF-8"?>
<svg width="24px" height="24px" viewBox="0 0 24 24" version="1.1" xmlns="http://www.w3.org/2000/svg" xmlns:xlink="http://www.w3.org/1999/xlink">
    <!-- Generator: Sketch 50 (54983) - http://www.bohemiancoding.com/sketch -->
    <title>icon/action/open_in_browser_24px_two_tone</title>
    <desc>Created with Sketch.</desc>
    <defs>
        <path d="M16,0 L2,0 C0.89,0 0,0.9 0,2 L0,14 C0,15.1 0.89,16 2,16 L6,16 L6,14 L2,14 L2,4 L16,4 L16,14 L12,14 L12,16 L16,16 C17.1,16 18,15.1 18,14 L18,2 C18,0.9 17.11,0 16,0 Z M9,6 L5,10 L8,10 L8,16 L10,16 L10,10 L13,10 L9,6 Z" id="path-1"></path>
    </defs>
    <g id="icon/action/open_in_browser_24px" stroke="none" stroke-width="1" fill="none" fill-rule="evenodd">
        <g id="↳-Dark-Color" transform="translate(3.000000, 4.000000)">
            <mask id="mask-2" fill="white">
                <use xlink:href="#path-1"></use>
            </mask>
            <g id="Mask" fill-rule="nonzero"></g>
            <g id="✱-/-Color-/-Icons-/-Black-/-Inactive" mask="url(#mask-2)" fill="#000000" fill-opacity="0.54">
                <rect id="Rectangle" x="0" y="0" width="101" height="101"></rect>
            </g>
        </g>
    </g>
</svg>