<?xml version="1.0" encoding="UTF-8"?>
<svg width="24px" height="24px" viewBox="0 0 24 24" version="1.1" xmlns="http://www.w3.org/2000/svg" xmlns:xlink="http://www.w3.org/1999/xlink">
    <!-- Generator: Sketch 50 (54983) - http://www.bohemiancoding.com/sketch -->
    <title>icon/action/open_in_new_24px_two_tone</title>
    <desc>Created with Sketch.</desc>
    <defs>
        <path d="M16,16 L2,16 L2,2 L9,2 L9,0 L2,0 C0.89,0 0,0.9 0,2 L0,16 C0,17.1 0.89,18 2,18 L16,18 C17.1,18 18,17.1 18,16 L18,9 L16,9 L16,16 Z M11,0 L11,2 L14.59,2 L4.76,11.83 L6.17,13.24 L16,3.41 L16,7 L18,7 L18,0 L11,0 Z" id="path-1"></path>
    </defs>
    <g id="icon/action/open_in_new_24px" stroke="none" stroke-width="1" fill="none" fill-rule="evenodd">
        <g id="↳-Dark-Color" transform="translate(3.000000, 3.000000)">
            <mask id="mask-2" fill="white">
                <use xlink:href="#path-1"></use>
            </mask>
            <g id="Mask" fill-rule="nonzero"></g>
            <g id="✱-/-Color-/-Icons-/-Black-/-Inactive" mask="url(#mask-2)" fill="#000000" fill-opacity="0.54">
                <rect id="Rectangle" x="0" y="0" width="101" height="101"></rect>
            </g>
        </g>
    </g>
</svg>