<?xml version="1.0" encoding="UTF-8"?>
<svg width="24px" height="24px" viewBox="0 0 24 24" version="1.1" xmlns="http://www.w3.org/2000/svg" xmlns:xlink="http://www.w3.org/1999/xlink">
    <!-- Generator: Sketch 50 (54983) - http://www.bohemiancoding.com/sketch -->
    <title>icon/action/pageview_24px_two_tone</title>
    <desc>Created with Sketch.</desc>
    <defs>
        <path d="M0,12 L16,12 L16,0 L0,0 L0,12 Z M7.5,1 C9.99,1 12,3.01 12,5.5 C12,6.38 11.74,7.19 11.3,7.89 L13.74,10.32 L12.32,11.74 L9.88,9.3 C9.19,9.74 8.37,10 7.49,10 C5.01,10 3,7.99 3,5.5 C3,3.01 5.01,1 7.5,1 Z" id="path-1"></path>
        <path d="M4.49,9 C5.37,9 6.19,8.74 6.88,8.3 L9.32,10.74 L10.74,9.32 L8.3,6.89 C8.74,6.19 9,5.38 9,4.5 C9,2.01 6.99,0 4.5,0 C2.01,0 0,2.01 0,4.5 C0,6.99 2.01,9 4.49,9 Z M4.5,2 C5.88,2 7,3.12 7,4.5 C7,5.88 5.88,7 4.5,7 C3.12,7 2,5.88 2,4.5 C2,3.12 3.12,2 4.5,2 Z" id="path-3"></path>
        <path d="M18,0 L2,0 C0.9,0 0,0.9 0,2 L0,14 C0,15.1 0.9,16 2,16 L18,16 C19.1,16 20,15.1 20,14 L20,2 C20,0.9 19.1,0 18,0 Z M18,14 L2,14 L2,2 L18,2 L18,14 Z" id="path-5"></path>
    </defs>
    <g id="icon/action/pageview_24px" stroke="none" stroke-width="1" fill="none" fill-rule="evenodd">
        <g id="↳-Light-Color" transform="translate(4.000000, 6.000000)">
            <mask id="mask-2" fill="white">
                <use xlink:href="#path-1"></use>
            </mask>
            <g id="Mask" opacity="0.3" fill-rule="nonzero"></g>
            <g id="✱-/-Color-/-Icons-/-Black-/-Disabled" mask="url(#mask-2)" fill="#000000" fill-opacity="0.38">
                <rect id="Rectangle" x="0" y="0" width="101" height="101"></rect>
            </g>
        </g>
        <g id="↳-Dark-Color" transform="translate(7.000000, 7.000000)">
            <mask id="mask-4" fill="white">
                <use xlink:href="#path-3"></use>
            </mask>
            <g id="Mask" fill-rule="nonzero"></g>
            <g id="✱-/-Color-/-Icons-/-Black-/-Inactive" mask="url(#mask-4)" fill="#000000" fill-opacity="0.54">
                <rect id="Rectangle" x="0" y="0" width="101" height="101"></rect>
            </g>
        </g>
        <g id="↳-Dark-Color" transform="translate(2.000000, 4.000000)">
            <mask id="mask-6" fill="white">
                <use xlink:href="#path-5"></use>
            </mask>
            <g id="Mask" fill-rule="nonzero"></g>
            <g id="✱-/-Color-/-Icons-/-Black-/-Inactive" mask="url(#mask-6)" fill="#000000" fill-opacity="0.54">
                <rect id="Rectangle" x="0" y="0" width="101" height="101"></rect>
            </g>
        </g>
    </g>
</svg>