<?xml version="1.0" encoding="UTF-8"?>
<svg width="24px" height="24px" viewBox="0 0 24 24" version="1.1" xmlns="http://www.w3.org/2000/svg" xmlns:xlink="http://www.w3.org/1999/xlink">
    <!-- Generator: Sketch 50 (54983) - http://www.bohemiancoding.com/sketch -->
    <title>icon/action/pan_tool_24px_two_tone</title>
    <desc>Created with Sketch.</desc>
    <defs>
        <path d="M15.5,4.424 C15.22,4.424 15,4.6352 15,4.904 L15,10.52 L13,10.52 L13,2.2832 C13,2.0144 12.78,1.8032 12.5,1.8032 C12.22,1.8032 12,2.0144 12,2.2832 L12,10.52 L10,10.52 L10,1.4096 C10,1.1408 9.78,0.9296 9.5,0.9296 C9.22,0.9296 9,1.1408 9,1.4096 L9,10.52 L7,10.52 L7,3.5984 C7,3.3296 6.78,3.1184 6.5,3.1184 C6.22,3.1184 6,3.3392 6,3.5984 L6,15.9536 L0.65,13.2368 L0.14,13.6688 L6,19.5248 C6.38,19.8992 6.9,20.12 7.44,20.12 L14,20.12 C15.1,20.12 16,19.256 16,18.2 L16,4.904 C16,4.6352 15.78,4.424 15.5,4.424 Z" id="path-1"></path>
        <path d="M18.5,3.504 C18.33,3.504 18.16,3.5232 18,3.552 L18,3.2832 C18,1.9584 16.88,0.8832 15.5,0.8832 C15.17,0.8832 14.85,0.9408 14.56,1.056 C14.11,0.4224 13.35,0.0096 12.5,0.0096 C11.18,0.0096 10.09,0.9984 10.01,2.2464 C9.85,2.2176 9.68,2.1984 9.5,2.1984 C8.12,2.1984 7,3.2736 7,4.5984 L7,13.7664 L4.59,12.5376 C3.86,12.1632 2.95,12.2688 2.33,12.7968 L0.26,14.5536 L7.56,21.8592 C8.31,22.608 9.36,23.04 10.45,23.04 L17,23.04 C19.21,23.04 21,21.3216 21,19.2 L21,5.904 C21,4.5792 19.88,3.504 18.5,3.504 Z M19,19.2 C19,20.256 18.1,21.12 17,21.12 L10.45,21.12 C9.91,21.12 9.38,20.9088 9.01,20.5248 L3.15,14.6592 L3.66,14.2272 L9,16.9536 L9,4.5984 C9,4.3296 9.22,4.1184 9.5,4.1184 C9.78,4.1184 10,4.3392 10,4.5984 L10,11.52 L12,11.52 L12,2.4096 C12,2.1408 12.22,1.9296 12.5,1.9296 C12.78,1.9296 13,2.1408 13,2.4096 L13,11.52 L15,11.52 L15,3.2832 C15,3.0144 15.22,2.8032 15.5,2.8032 C15.78,2.8032 16,3.0144 16,3.2832 L16,11.52 L18,11.52 L18,5.904 C18,5.6352 18.22,5.424 18.5,5.424 C18.78,5.424 19,5.6352 19,5.904 L19,19.2 Z" id="path-3"></path>
    </defs>
    <g id="icon/action/pan_tool_24px" stroke="none" stroke-width="1" fill="none" fill-rule="evenodd">
        <g id="↳-Light-Color" transform="translate(4.000000, 1.000000)">
            <mask id="mask-2" fill="white">
                <use xlink:href="#path-1"></use>
            </mask>
            <g id="Mask" opacity="0.3" fill-rule="nonzero"></g>
            <g id="✱-/-Color-/-Icons-/-Black-/-Disabled" mask="url(#mask-2)" fill="#000000" fill-opacity="0.38">
                <rect id="Rectangle" x="0" y="0" width="101" height="101"></rect>
            </g>
        </g>
        <g id="↳-Dark-Color" transform="translate(1.000000, 0.000000)">
            <mask id="mask-4" fill="white">
                <use xlink:href="#path-3"></use>
            </mask>
            <g id="Mask" fill-rule="nonzero"></g>
            <g id="✱-/-Color-/-Icons-/-Black-/-Inactive" mask="url(#mask-4)" fill="#000000" fill-opacity="0.54">
                <rect id="Rectangle" x="0" y="0" width="101" height="101"></rect>
            </g>
        </g>
    </g>
</svg>