<?xml version="1.0" encoding="UTF-8"?>
<svg width="24px" height="24px" viewBox="0 0 24 24" version="1.1" xmlns="http://www.w3.org/2000/svg" xmlns:xlink="http://www.w3.org/1999/xlink">
    <!-- Generator: Sketch 50 (54983) - http://www.bohemiancoding.com/sketch -->
    <title>icon/action/perm_camera_mic_24px_two_tone</title>
    <desc>Created with Sketch.</desc>
    <defs>
        <path d="M12.11,2 L11.52,1.35 L10.28,0 L6.04,0 L4.81,1.35 L4.21,2 L3.33,2 L0,2 L0,14 L7,14 L7,12.91 C4.17,12.43 2,9.97 2,7 L4,7 C4,9.21 5.79,11 8,11 C10.21,11 12,9.21 12,7 L14,7 C14,9.97 11.83,12.43 9,12.91 L9,14 L16,14 L16,2 L12.99,2 L12.11,2 Z M10,7 C10,8.1 9.1,9 8,9 C6.9,9 6,8.1 6,7 L6,3 C6,1.9 6.9,1 8,1 C9.1,1 10,1.9 10,3 L10,7 Z" id="path-1"></path>
        <path d="M2,0 C0.9,0 0,0.9 0,2 L0,6 C0,7.1 0.9,8 2,8 C3.1,8 4,7.1 4,6 L4,2 C4,0.9 3.1,0 2,0 Z" id="path-3"></path>
        <path d="M18,2 L14.83,2 L12.97,0 L6.96,0 L5.17,2 L2,2 C0.9,2 0,2.9 0,4 L0,16 C0,17.1 0.9,18 2,18 L18,18 C19.1,18 20,17.1 20,16 L20,4 C20,2.9 19.1,2 18,2 Z M18,16 L11,16 L11,14.91 C13.83,14.43 16,11.97 16,9 L14,9 C14,11.21 12.21,13 10,13 C7.79,13 6,11.21 6,9 L4,9 C4,11.97 6.17,14.43 9,14.91 L9,16 L2,16 L2,4 L5.33,4 L6.21,4 L6.8,3.35 L8.04,2 L12.28,2 L13.52,3.35 L14.11,4 L14.99,4 L18,4 L18,16 Z" id="path-5"></path>
    </defs>
    <g id="icon/action/perm_camera_mic_24px" stroke="none" stroke-width="1" fill="none" fill-rule="evenodd">
        <g id="↳-Light-Color" transform="translate(4.000000, 5.000000)">
            <mask id="mask-2" fill="white">
                <use xlink:href="#path-1"></use>
            </mask>
            <g id="Mask" opacity="0.3" fill-rule="nonzero"></g>
            <g id="✱-/-Color-/-Icons-/-Black-/-Disabled" mask="url(#mask-2)" fill="#000000" fill-opacity="0.38">
                <rect id="Rectangle" x="0" y="0" width="101" height="101"></rect>
            </g>
        </g>
        <g id="↳-Dark-Color" transform="translate(10.000000, 6.000000)">
            <mask id="mask-4" fill="white">
                <use xlink:href="#path-3"></use>
            </mask>
            <g id="Mask" fill-rule="nonzero"></g>
            <g id="✱-/-Color-/-Icons-/-Black-/-Inactive" mask="url(#mask-4)" fill="#000000" fill-opacity="0.54">
                <rect id="Rectangle" x="0" y="0" width="101" height="101"></rect>
            </g>
        </g>
        <g id="↳-Dark-Color" transform="translate(2.000000, 3.000000)">
            <mask id="mask-6" fill="white">
                <use xlink:href="#path-5"></use>
            </mask>
            <g id="Mask" fill-rule="nonzero"></g>
            <g id="✱-/-Color-/-Icons-/-Black-/-Inactive" mask="url(#mask-6)" fill="#000000" fill-opacity="0.54">
                <rect id="Rectangle" x="0" y="0" width="101" height="101"></rect>
            </g>
        </g>
    </g>
</svg>