<?xml version="1.0" encoding="UTF-8"?>
<svg width="24px" height="24px" viewBox="0 0 24 24" version="1.1" xmlns="http://www.w3.org/2000/svg" xmlns:xlink="http://www.w3.org/1999/xlink">
    <!-- Generator: Sketch 50 (54983) - http://www.bohemiancoding.com/sketch -->
    <title>icon/action/perm_data_setting_24px_two_tone</title>
    <desc>Created with Sketch.</desc>
    <defs>
        <polygon id="path-1" points="17.99 11.57 20 11.57 20 0 20 0 0 20 11.56 20 11.56 18 4.83 18 17.99 4.83"></polygon>
        <path d="M9.77,6.32 L8.7,5.49 C8.72,5.33 8.74,5.17 8.74,5 C8.74,4.83 8.73,4.67 8.7,4.51 L9.76,3.68 C9.85,3.6 9.88,3.47 9.82,3.36 L8.82,1.63 C8.76,1.52 8.63,1.48 8.51,1.52 L7.27,2.02 C7.01,1.82 6.73,1.65 6.42,1.53 L6.23,0.21 C6.22,0.09 6.11,0 5.99,0 L3.99,0 C3.87,0 3.76,0.09 3.74,0.21 L3.55,1.53 C3.25,1.66 2.96,1.82 2.7,2.02 L1.46,1.52 C1.35,1.48 1.22,1.52 1.15,1.63 L0.15,3.36 C0.09,3.47 0.11,3.6 0.21,3.68 L1.27,4.51 C1.25,4.67 1.24,4.83 1.24,5 C1.24,5.17 1.25,5.33 1.27,5.49 L0.21,6.32 C0.12,6.4 0.09,6.53 0.15,6.64 L1.15,8.37 C1.21,8.48 1.34,8.52 1.46,8.48 L2.7,7.98 C2.96,8.18 3.24,8.35 3.55,8.47 L3.74,9.79 C3.76,9.91 3.86,10 3.99,10 L5.99,10 C6.11,10 6.22,9.91 6.24,9.79 L6.43,8.47 C6.73,8.34 7.02,8.18 7.27,7.98 L8.52,8.48 C8.63,8.52 8.76,8.48 8.83,8.37 L9.83,6.64 C9.89,6.53 9.86,6.4 9.77,6.32 Z M4.99,6.5 C4.16,6.5 3.49,5.83 3.49,5 C3.49,4.17 4.16,3.5 4.99,3.5 C5.82,3.5 6.49,4.17 6.49,5 C6.49,5.83 5.82,6.5 4.99,6.5 Z" id="path-3"></path>
    </defs>
    <g id="icon/action/perm_data_setting_24px" stroke="none" stroke-width="1" fill="none" fill-rule="evenodd">
        <g id="↳-Dark-Color">
            <mask id="mask-2" fill="white">
                <use xlink:href="#path-1"></use>
            </mask>
            <g id="Mask" fill-rule="nonzero"></g>
            <g id="✱-/-Color-/-Icons-/-Black-/-Inactive" mask="url(#mask-2)" fill="#000000" fill-opacity="0.54">
                <rect id="Rectangle" x="0" y="0" width="101" height="101"></rect>
            </g>
        </g>
        <g id="↳-Dark-Color" transform="translate(14.000000, 14.000000)">
            <mask id="mask-4" fill="white">
                <use xlink:href="#path-3"></use>
            </mask>
            <g id="Mask" fill-rule="nonzero"></g>
            <g id="✱-/-Color-/-Icons-/-Black-/-Inactive" mask="url(#mask-4)" fill="#000000" fill-opacity="0.54">
                <rect id="Rectangle" x="0" y="0" width="101" height="101"></rect>
            </g>
        </g>
    </g>
</svg>