<?xml version="1.0" encoding="UTF-8"?>
<svg width="24px" height="24px" viewBox="0 0 24 24" version="1.1" xmlns="http://www.w3.org/2000/svg" xmlns:xlink="http://www.w3.org/1999/xlink">
    <!-- Generator: Sketch 50 (54983) - http://www.bohemiancoding.com/sketch -->
    <title>icon/action/perm_contact_calendar_24px_two_tone</title>
    <desc>Created with Sketch.</desc>
    <defs>
        <path d="M11,0 L3,0 L1,0 L0,0 L0,14 L14,14 L14,0 L13,0 L11,0 Z M7,1 C8.65,1 10,2.35 10,4 C10,5.65 8.65,7 7,7 C5.35,7 4,5.65 4,4 C4,2.35 5.35,1 7,1 Z M13,13 L1,13 L1,11.47 C1,8.97 4.97,7.89 7,7.89 C9.03,7.89 13,8.97 13,11.47 L13,13 Z" id="path-1"></path>
        <path d="M17.84,3.22 C17.79,3.1 17.73,2.99 17.66,2.88 C17.52,2.67 17.33,2.48 17.12,2.34 C17.01,2.27 16.9,2.21 16.78,2.16 C16.54,2.06 16.28,2 16,2 L15,2 L15,0 L13,0 L13,2 L5,2 L5,0 L3,0 L3,2 L2,2 C1.58,2 1.2,2.13 0.88,2.34 C0.67,2.48 0.48,2.67 0.34,2.88 C0.27,2.99 0.21,3.1 0.16,3.22 C0.06,3.46 0,3.72 0,4 L0,18 C0,19.1 0.89,20 2,20 L16,20 C16.28,20 16.54,19.94 16.78,19.84 C16.9,19.79 17.01,19.73 17.12,19.66 C17.33,19.52 17.52,19.33 17.66,19.12 C17.87,18.8 18,18.41 18,18 L18,4 C18,3.72 17.94,3.46 17.84,3.22 Z M16,18 L2,18 L2,4 L3,4 L5,4 L13,4 L15,4 L16,4 L16,18 Z" id="path-3"></path>
        <path d="M6,0.88 C3.97,0.88 0,1.96 0,4.46 L0,6 L12,6 L12,4.47 C12,1.96 8.03,0.88 6,0.88 Z M2.31,4 C3,3.44 4.69,2.88 6,2.88 C7.31,2.88 9.01,3.44 9.69,4 L2.31,4 Z" id="path-5"></path>
        <path d="M3,6 C4.65,6 6,4.65 6,3 C6,1.35 4.65,0 3,0 C1.35,0 0,1.35 0,3 C0,4.65 1.35,6 3,6 Z M3,2 C3.55,2 4,2.45 4,3 C4,3.55 3.55,4 3,4 C2.45,4 2,3.55 2,3 C2,2.45 2.45,2 3,2 Z" id="path-7"></path>
    </defs>
    <g id="icon/action/perm_contact_calendar_24px" stroke="none" stroke-width="1" fill="none" fill-rule="evenodd">
        <g id="↳-Light-Color" transform="translate(5.000000, 5.000000)">
            <mask id="mask-2" fill="white">
                <use xlink:href="#path-1"></use>
            </mask>
            <g id="Mask" opacity="0.3" fill-rule="nonzero"></g>
            <g id="✱-/-Color-/-Icons-/-Black-/-Disabled" mask="url(#mask-2)" fill="#000000" fill-opacity="0.38">
                <rect id="Rectangle" x="0" y="0" width="101" height="101"></rect>
            </g>
        </g>
        <g id="↳-Dark-Color" transform="translate(3.000000, 1.000000)">
            <mask id="mask-4" fill="white">
                <use xlink:href="#path-3"></use>
            </mask>
            <g id="Mask" fill-rule="nonzero"></g>
            <g id="✱-/-Color-/-Icons-/-Black-/-Inactive" mask="url(#mask-4)" fill="#000000" fill-opacity="0.54">
                <rect id="Rectangle" x="0" y="0" width="101" height="101"></rect>
            </g>
        </g>
        <g id="↳-Dark-Color" transform="translate(6.000000, 12.000000)">
            <mask id="mask-6" fill="white">
                <use xlink:href="#path-5"></use>
            </mask>
            <g id="Mask" fill-rule="nonzero"></g>
            <g id="✱-/-Color-/-Icons-/-Black-/-Inactive" mask="url(#mask-6)" fill="#000000" fill-opacity="0.54">
                <rect id="Rectangle" x="0" y="0" width="101" height="101"></rect>
            </g>
        </g>
        <g id="↳-Dark-Color" transform="translate(9.000000, 6.000000)">
            <mask id="mask-8" fill="white">
                <use xlink:href="#path-7"></use>
            </mask>
            <g id="Mask" fill-rule="nonzero"></g>
            <g id="✱-/-Color-/-Icons-/-Black-/-Inactive" mask="url(#mask-8)" fill="#000000" fill-opacity="0.54">
                <rect id="Rectangle" x="0" y="0" width="101" height="101"></rect>
            </g>
        </g>
    </g>
</svg>