<?xml version="1.0" encoding="UTF-8"?>
<svg width="24px" height="24px" viewBox="0 0 24 24" version="1.1" xmlns="http://www.w3.org/2000/svg" xmlns:xlink="http://www.w3.org/1999/xlink">
    <!-- Generator: Sketch 50 (54983) - http://www.bohemiancoding.com/sketch -->
    <title>icon/action/pets_24px_two_tone</title>
    <desc>Created with Sketch.</desc>
    <defs>
        <circle id="path-1" cx="2.5" cy="2.5" r="2.5"></circle>
        <circle id="path-3" cx="3" cy="2.5" r="2.5"></circle>
        <circle id="path-5" cx="3" cy="2.5" r="2.5"></circle>
        <circle id="path-7" cx="2.5" cy="2.5" r="2.5"></circle>
        <path d="M14.34,4.86 C13.47,3.84 12.74,2.97 11.86,1.95 C11.4,1.41 10.81,0.87 10.11,0.63 C10,0.59 9.89,0.56 9.78,0.54 C9.53,0.5 9.26,0.5 9,0.5 C8.74,0.5 8.47,0.5 8.21,0.55 C8.1,0.57 7.99,0.6 7.88,0.64 C7.18,0.88 6.6,1.42 6.13,1.96 C5.26,2.98 4.53,3.85 3.65,4.87 C2.34,6.18 0.73,7.63 1.03,9.66 C1.32,10.68 2.05,11.69 3.36,11.98 C4.09,12.13 6.42,11.54 8.9,11.54 L9.08,11.54 C11.56,11.54 13.89,12.12 14.62,11.98 C15.93,11.69 16.66,10.67 16.95,9.66 C17.26,7.62 15.65,6.17 14.34,4.86 Z" id="path-9"></path>
    </defs>
    <g id="icon/action/pets_24px" stroke="none" stroke-width="1" fill="none" fill-rule="evenodd">
        <g id="↳-Dark-Color" transform="translate(2.000000, 7.000000)">
            <mask id="mask-2" fill="white">
                <use xlink:href="#path-1"></use>
            </mask>
            <g id="Mask" fill-rule="nonzero"></g>
            <g id="✱-/-Color-/-Icons-/-Black-/-Inactive" mask="url(#mask-2)" fill="#000000" fill-opacity="0.54">
                <rect id="Rectangle" x="0" y="0" width="101" height="101"></rect>
            </g>
        </g>
        <g id="↳-Dark-Color" transform="translate(6.000000, 3.000000)">
            <mask id="mask-4" fill="white">
                <use xlink:href="#path-3"></use>
            </mask>
            <g id="Mask" fill-rule="nonzero"></g>
            <g id="✱-/-Color-/-Icons-/-Black-/-Inactive" mask="url(#mask-4)" fill="#000000" fill-opacity="0.54">
                <rect id="Rectangle" x="0" y="0" width="101" height="101"></rect>
            </g>
        </g>
        <g id="↳-Dark-Color" transform="translate(12.000000, 3.000000)">
            <mask id="mask-6" fill="white">
                <use xlink:href="#path-5"></use>
            </mask>
            <g id="Mask" fill-rule="nonzero"></g>
            <g id="✱-/-Color-/-Icons-/-Black-/-Inactive" mask="url(#mask-6)" fill="#000000" fill-opacity="0.54">
                <rect id="Rectangle" x="0" y="0" width="101" height="101"></rect>
            </g>
        </g>
        <g id="↳-Dark-Color" transform="translate(17.000000, 7.000000)">
            <mask id="mask-8" fill="white">
                <use xlink:href="#path-7"></use>
            </mask>
            <g id="Mask" fill-rule="nonzero"></g>
            <g id="✱-/-Color-/-Icons-/-Black-/-Inactive" mask="url(#mask-8)" fill="#000000" fill-opacity="0.54">
                <rect id="Rectangle" x="0" y="0" width="101" height="101"></rect>
            </g>
        </g>
        <g id="↳-Dark-Color" transform="translate(3.000000, 10.000000)">
            <mask id="mask-10" fill="white">
                <use xlink:href="#path-9"></use>
            </mask>
            <g id="Mask" fill-rule="nonzero"></g>
            <g id="✱-/-Color-/-Icons-/-Black-/-Inactive" mask="url(#mask-10)" fill="#000000" fill-opacity="0.54">
                <rect id="Rectangle" x="0" y="0" width="101" height="101"></rect>
            </g>
        </g>
    </g>
</svg>