<?xml version="1.0" encoding="UTF-8"?>
<svg width="24px" height="24px" viewBox="0 0 24 24" version="1.1" xmlns="http://www.w3.org/2000/svg" xmlns:xlink="http://www.w3.org/1999/xlink">
    <!-- Generator: Sketch 50 (54983) - http://www.bohemiancoding.com/sketch -->
    <title>icon/action/power_settings_new_24px_two_tone</title>
    <desc>Created with Sketch.</desc>
    <defs>
        <path d="M10,0 L8,0 L8,10 L10,10 L10,0 Z M14.83,2.17 L13.41,3.59 C14.99,4.86 16,6.81 16,9 C16,12.87 12.87,16 9,16 C5.13,16 2,12.87 2,9 C2,6.81 3.01,4.86 4.58,3.58 L3.17,2.17 C1.23,3.82 0,6.26 0,9 C0,13.97 4.03,18 9,18 C13.97,18 18,13.97 18,9 C18,6.26 16.77,3.82 14.83,2.17 Z" id="path-1"></path>
    </defs>
    <g id="icon/action/power_settings_new_24px" stroke="none" stroke-width="1" fill="none" fill-rule="evenodd">
        <g id="↳-Dark-Color" transform="translate(3.000000, 3.000000)">
            <mask id="mask-2" fill="white">
                <use xlink:href="#path-1"></use>
            </mask>
            <g id="Mask" fill-rule="nonzero"></g>
            <g id="✱-/-Color-/-Icons-/-Black-/-Inactive" mask="url(#mask-2)" fill="#000000" fill-opacity="0.54">
                <rect id="Rectangle" x="0" y="0" width="101" height="101"></rect>
            </g>
        </g>
    </g>
</svg>