<?xml version="1.0" encoding="UTF-8"?>
<svg width="24px" height="24px" viewBox="0 0 24 24" version="1.1" xmlns="http://www.w3.org/2000/svg" xmlns:xlink="http://www.w3.org/1999/xlink">
    <!-- Generator: Sketch 50 (54983) - http://www.bohemiancoding.com/sketch -->
    <title>icon/action/pregnant_woman_24px_two_tone</title>
    <desc>Created with Sketch.</desc>
    <defs>
        <path d="M1,2 C1,0.89 1.89,0 3,0 C4.11,0 5,0.89 5,2 C5,3.11 4.11,4 3,4 C1.89,4 1,3.11 1,2 Z M8,11 C7.99,9.66 7.17,8.49 6,8 C6,6.34 4.66,5 3,5 C1.34,5 0,6.34 0,8 L0,15 L2,15 L2,20 L5,20 L5,15 L8,15 L8,11 Z" id="path-1"></path>
    </defs>
    <g id="icon/action/pregnant_woman_24px" stroke="none" stroke-width="1" fill="none" fill-rule="evenodd">
        <g id="↳-Dark-Color" transform="translate(8.000000, 2.000000)">
            <mask id="mask-2" fill="white">
                <use xlink:href="#path-1"></use>
            </mask>
            <g id="Mask" fill-rule="nonzero"></g>
            <g id="✱-/-Color-/-Icons-/-Black-/-Inactive" mask="url(#mask-2)" fill="#000000" fill-opacity="0.54">
                <rect id="Rectangle" x="0" y="0" width="101" height="101"></rect>
            </g>
        </g>
    </g>
</svg>