<?xml version="1.0" encoding="UTF-8"?>
<svg width="24px" height="24px" viewBox="0 0 24 24" version="1.1" xmlns="http://www.w3.org/2000/svg" xmlns:xlink="http://www.w3.org/1999/xlink">
    <!-- Generator: Sketch 50 (54983) - http://www.bohemiancoding.com/sketch -->
    <title>icon/action/remove_shopping_cart_24px_two_tone</title>
    <desc>Created with Sketch.</desc>
    <defs>
        <path d="M1.41,0.13 L0,1.54 L4.39,5.93 L6.6,10.59 L5.25,13.04 C5.09,13.32 5,13.65 5,14 C5,15.1 5.9,16 7,16 L14.46,16 L15.84,17.38 C15.34,17.74 15.01,18.33 15.01,19 C15.01,20.1 15.9,21 17,21 C17.67,21 18.26,20.67 18.62,20.16 L21.46,23 L22.87,21.59 L1.41,0.13 Z M7,14 L8.1,12 L10.46,12 L12.46,14 L7,14 Z" id="path-1"></path>
        <polygon id="path-3" points="9.31 0 0.12 0 5.11 5 6.55 5"></polygon>
        <path d="M13,0 L0.12,0 L2.12,2 L11.31,2 L8.55,7 L7.11,7 L9.05,8.94 C9.59,8.8 10.04,8.45 10.3,7.97 L13.88,1.48 C14.25,0.82 13.76,0 13,0 Z" id="path-5"></path>
        <path d="M2,0 C0.9,0 0.01,0.9 0.01,2 C0.01,3.1 0.9,4 2,4 C3.1,4 4,3.1 4,2 C4,0.9 3.1,0 2,0 Z" id="path-7"></path>
    </defs>
    <g id="icon/action/remove_shopping_cart_24px" stroke="none" stroke-width="1" fill="none" fill-rule="evenodd">
        <g id="↳-Dark-Color" transform="translate(0.000000, 1.000000)">
            <mask id="mask-2" fill="white">
                <use xlink:href="#path-1"></use>
            </mask>
            <g id="Mask" fill-rule="nonzero"></g>
            <g id="✱-/-Color-/-Icons-/-Black-/-Inactive" mask="url(#mask-2)" fill="#000000" fill-opacity="0.54">
                <rect id="Rectangle" x="0" y="0" width="101" height="101"></rect>
            </g>
        </g>
        <g id="↳-Light-Color" transform="translate(9.000000, 6.000000)">
            <mask id="mask-4" fill="white">
                <use xlink:href="#path-3"></use>
            </mask>
            <g id="Mask" opacity="0.3" fill-rule="nonzero"></g>
            <g id="✱-/-Color-/-Icons-/-Black-/-Disabled" mask="url(#mask-4)" fill="#000000" fill-opacity="0.38">
                <rect id="Rectangle" x="0" y="0" width="101" height="101"></rect>
            </g>
        </g>
        <g id="↳-Dark-Color" transform="translate(7.000000, 4.000000)">
            <mask id="mask-6" fill="white">
                <use xlink:href="#path-5"></use>
            </mask>
            <g id="Mask" fill-rule="nonzero"></g>
            <g id="✱-/-Color-/-Icons-/-Black-/-Inactive" mask="url(#mask-6)" fill="#000000" fill-opacity="0.54">
                <rect id="Rectangle" x="0" y="0" width="101" height="101"></rect>
            </g>
        </g>
        <g id="↳-Dark-Color" transform="translate(5.000000, 18.000000)">
            <mask id="mask-8" fill="white">
                <use xlink:href="#path-7"></use>
            </mask>
            <g id="Mask" fill-rule="nonzero"></g>
            <g id="✱-/-Color-/-Icons-/-Black-/-Inactive" mask="url(#mask-8)" fill="#000000" fill-opacity="0.54">
                <rect id="Rectangle" x="0" y="0" width="101" height="101"></rect>
            </g>
        </g>
    </g>
</svg>