<?xml version="1.0" encoding="UTF-8"?>
<svg width="24px" height="24px" viewBox="0 0 24 24" version="1.1" xmlns="http://www.w3.org/2000/svg" xmlns:xlink="http://www.w3.org/1999/xlink">
    <!-- Generator: Sketch 50 (54983) - http://www.bohemiancoding.com/sketch -->
    <title>icon/action/settings_input_svideo_24px_two_tone</title>
    <desc>Created with Sketch.</desc>
    <defs>
        <path d="M9,0 C4.04,0 0,4.04 0,9 C0,13.96 4.04,18 9,18 C13.96,18 18,13.96 18,9 C18,4.04 13.96,0 9,0 Z M2,8.5 C2,7.67 2.67,7 3.5,7 C4.33,7 5,7.67 5,8.5 C5,9.33 4.33,10 3.5,10 C2.67,10 2,9.33 2,8.5 Z M5.5,15 C4.67,15 4,14.33 4,13.5 C4,12.67 4.67,12 5.5,12 C6.33,12 7,12.67 7,13.5 C7,14.33 6.33,15 5.5,15 Z M7.5,5 C6.67,5 6,4.33 6,3.5 C6,2.67 6.67,2 7.5,2 L10.5,2 C11.33,2 12,2.67 12,3.5 C12,4.33 11.33,5 10.5,5 L7.5,5 Z M12.5,15 C11.67,15 11,14.33 11,13.5 C11,12.67 11.67,12 12.5,12 C13.33,12 14,12.67 14,13.5 C14,14.33 13.33,15 12.5,15 Z M14.5,10 C13.67,10 13,9.33 13,8.5 C13,7.67 13.67,7 14.5,7 C15.33,7 16,7.67 16,8.5 C16,9.33 15.33,10 14.5,10 Z" id="path-1"></path>
        <path d="M6,1.5 C6,0.67 5.33,0 4.5,0 L1.5,0 C0.67,0 0,0.67 0,1.5 C0,2.33 0.67,3 1.5,3 L4.5,3 C5.33,3 6,2.33 6,1.5 Z" id="path-3"></path>
        <circle id="path-5" cx="1.5" cy="1.5" r="1.5"></circle>
        <circle id="path-7" cx="1.5" cy="1.5" r="1.5"></circle>
        <path d="M11,0 C4.93,0 0,4.93 0,11 C0,17.07 4.93,22 11,22 C17.07,22 22,17.07 22,11 C22,4.93 17.07,0 11,0 Z M11,20 C6.04,20 2,15.96 2,11 C2,6.04 6.04,2 11,2 C15.96,2 20,6.04 20,11 C20,15.96 15.96,20 11,20 Z" id="path-9"></path>
        <circle id="path-11" cx="1.5" cy="1.5" r="1.5"></circle>
        <circle id="path-13" cx="1.5" cy="1.5" r="1.5"></circle>
    </defs>
    <g id="icon/action/settings_input_svideo_24px" stroke="none" stroke-width="1" fill="none" fill-rule="evenodd">
        <g id="↳-Light-Color" transform="translate(3.000000, 3.000000)">
            <mask id="mask-2" fill="white">
                <use xlink:href="#path-1"></use>
            </mask>
            <g id="Mask" opacity="0.3" fill-rule="nonzero"></g>
            <g id="✱-/-Color-/-Icons-/-Black-/-Disabled" mask="url(#mask-2)" fill="#000000" fill-opacity="0.38">
                <rect id="Rectangle" x="0" y="0" width="101" height="101"></rect>
            </g>
        </g>
        <g id="↳-Dark-Color" transform="translate(9.000000, 5.000000)">
            <mask id="mask-4" fill="white">
                <use xlink:href="#path-3"></use>
            </mask>
            <g id="Mask" fill-rule="nonzero"></g>
            <g id="✱-/-Color-/-Icons-/-Black-/-Inactive" mask="url(#mask-4)" fill="#000000" fill-opacity="0.54">
                <rect id="Rectangle" x="0" y="0" width="101" height="101"></rect>
            </g>
        </g>
        <g id="↳-Dark-Color" transform="translate(14.000000, 15.000000)">
            <mask id="mask-6" fill="white">
                <use xlink:href="#path-5"></use>
            </mask>
            <g id="Mask" fill-rule="nonzero"></g>
            <g id="✱-/-Color-/-Icons-/-Black-/-Inactive" mask="url(#mask-6)" fill="#000000" fill-opacity="0.54">
                <rect id="Rectangle" x="0" y="0" width="101" height="101"></rect>
            </g>
        </g>
        <g id="↳-Dark-Color" transform="translate(16.000000, 10.000000)">
            <mask id="mask-8" fill="white">
                <use xlink:href="#path-7"></use>
            </mask>
            <g id="Mask" fill-rule="nonzero"></g>
            <g id="✱-/-Color-/-Icons-/-Black-/-Inactive" mask="url(#mask-8)" fill="#000000" fill-opacity="0.54">
                <rect id="Rectangle" x="0" y="0" width="101" height="101"></rect>
            </g>
        </g>
        <g id="↳-Dark-Color" transform="translate(1.000000, 1.000000)">
            <mask id="mask-10" fill="white">
                <use xlink:href="#path-9"></use>
            </mask>
            <g id="Mask" fill-rule="nonzero"></g>
            <g id="✱-/-Color-/-Icons-/-Black-/-Inactive" mask="url(#mask-10)" fill="#000000" fill-opacity="0.54">
                <rect id="Rectangle" x="0" y="0" width="101" height="101"></rect>
            </g>
        </g>
        <g id="↳-Dark-Color" transform="translate(5.000000, 10.000000)">
            <mask id="mask-12" fill="white">
                <use xlink:href="#path-11"></use>
            </mask>
            <g id="Mask" fill-rule="nonzero"></g>
            <g id="✱-/-Color-/-Icons-/-Black-/-Inactive" mask="url(#mask-12)" fill="#000000" fill-opacity="0.54">
                <rect id="Rectangle" x="0" y="0" width="101" height="101"></rect>
            </g>
        </g>
        <g id="↳-Dark-Color" transform="translate(7.000000, 15.000000)">
            <mask id="mask-14" fill="white">
                <use xlink:href="#path-13"></use>
            </mask>
            <g id="Mask" fill-rule="nonzero"></g>
            <g id="✱-/-Color-/-Icons-/-Black-/-Inactive" mask="url(#mask-14)" fill="#000000" fill-opacity="0.54">
                <rect id="Rectangle" x="0" y="0" width="101" height="101"></rect>
            </g>
        </g>
    </g>
</svg>