<?xml version="1.0" encoding="UTF-8"?>
<svg width="24px" height="24px" viewBox="0 0 24 24" version="1.1" xmlns="http://www.w3.org/2000/svg" xmlns:xlink="http://www.w3.org/1999/xlink">
    <!-- Generator: Sketch 50 (54983) - http://www.bohemiancoding.com/sketch -->
    <title>icon/action/settings_brightness_24px_two_tone</title>
    <desc>Created with Sketch.</desc>
    <defs>
        <path d="M0,15.01 L18,15.01 L18,0.99 L0,0.99 L0,15.01 Z M5,6.5 L5,4 L7.5,4 L9,2.5 L10.5,4 L13,4 L13,6.5 L14.5,8 L13,9.5 L13,12 L10.5,12 L9,13.5 L7.5,12 L5,12 L5,9.5 L3.5,8 L5,6.5 Z" id="path-1"></path>
        <path d="M2,10 L4.5,10 L6,11.5 L7.5,10 L10,10 L10,7.5 L11.5,6 L10,4.5 L10,2 L7.5,2 L6,0.5 L4.5,2 L2,2 L2,4.5 L0.5,6 L2,7.5 L2,10 Z M6,3 C7.66,3 9,4.34 9,6 C9,7.66 7.66,9 6,9 L6,3 Z" id="path-3"></path>
        <path d="M20,0 L2,0 C0.9,0 0,0.9 0,2 L0,16 C0,17.1 0.9,18 2,18 L20,18 C21.1,18 22,17.1 22,16 L22,2 C22,0.9 21.1,0 20,0 Z M20,16.01 L2,16.01 L2,1.99 L20,1.99 L20,16.01 Z" id="path-5"></path>
    </defs>
    <g id="icon/action/settings_brightness_24px" stroke="none" stroke-width="1" fill="none" fill-rule="evenodd">
        <g id="↳-Light-Color" transform="translate(3.000000, 4.000000)">
            <mask id="mask-2" fill="white">
                <use xlink:href="#path-1"></use>
            </mask>
            <g id="Mask" opacity="0.3" fill-rule="nonzero"></g>
            <g id="✱-/-Color-/-Icons-/-Black-/-Disabled" mask="url(#mask-2)" fill="#000000" fill-opacity="0.38">
                <rect id="Rectangle" x="0" y="0" width="101" height="101"></rect>
            </g>
        </g>
        <g id="↳-Dark-Color" transform="translate(6.000000, 6.000000)">
            <mask id="mask-4" fill="white">
                <use xlink:href="#path-3"></use>
            </mask>
            <g id="Mask" fill-rule="nonzero"></g>
            <g id="✱-/-Color-/-Icons-/-Black-/-Inactive" mask="url(#mask-4)" fill="#000000" fill-opacity="0.54">
                <rect id="Rectangle" x="0" y="0" width="101" height="101"></rect>
            </g>
        </g>
        <g id="↳-Dark-Color" transform="translate(1.000000, 3.000000)">
            <mask id="mask-6" fill="white">
                <use xlink:href="#path-5"></use>
            </mask>
            <g id="Mask" fill-rule="nonzero"></g>
            <g id="✱-/-Color-/-Icons-/-Black-/-Inactive" mask="url(#mask-6)" fill="#000000" fill-opacity="0.54">
                <rect id="Rectangle" x="0" y="0" width="101" height="101"></rect>
            </g>
        </g>
    </g>
</svg>