<?xml version="1.0" encoding="UTF-8"?>
<svg width="24px" height="24px" viewBox="0 0 24 24" version="1.1" xmlns="http://www.w3.org/2000/svg" xmlns:xlink="http://www.w3.org/1999/xlink">
    <!-- Generator: Sketch 50 (54983) - http://www.bohemiancoding.com/sketch -->
    <title>icon/action/settings_input_hdmi_24px_two_tone</title>
    <desc>Created with Sketch.</desc>
    <defs>
        <polygon id="path-1" points="1 0 0 0 0 3.53 2.79 9.11 3 9.53 3 10 3 11 7 11 7 10 7 9.53 7.21 9.11 10 3.53 10 0 9 0"></polygon>
        <path d="M13,5 L13,2 C13,0.9 12.1,0 11,0 L3,0 C1.9,0 1,0.9 1,2 L1,5 L0,5 L0,7 L0,11 L3,17 L3,20 L11,20 L11,17 L14,11 L14,7 L14,5 L13,5 Z M3,2 L11,2 L11,5 L8.99,5 L8.99,3 L7.99,3 L7.99,5 L6,5 L6,3 L5,3 L5,5 L3,5 L3,2 Z M12,10.53 L9,16.53 L9,18 L5,18 L5,16.53 L2,10.53 L2,7 L12,7 L12,10.53 Z" id="path-3"></path>
    </defs>
    <g id="icon/action/settings_input_hdmi_24px" stroke="none" stroke-width="1" fill="none" fill-rule="evenodd">
        <g id="↳-Light-Color" transform="translate(7.000000, 9.000000)">
            <mask id="mask-2" fill="white">
                <use xlink:href="#path-1"></use>
            </mask>
            <g id="Mask" opacity="0.3" fill-rule="nonzero"></g>
            <g id="✱-/-Color-/-Icons-/-Black-/-Disabled" mask="url(#mask-2)" fill="#000000" fill-opacity="0.38">
                <rect id="Rectangle" x="0" y="0" width="101" height="101"></rect>
            </g>
        </g>
        <g id="↳-Dark-Color" transform="translate(5.000000, 2.000000)">
            <mask id="mask-4" fill="white">
                <use xlink:href="#path-3"></use>
            </mask>
            <g id="Mask" fill-rule="nonzero"></g>
            <g id="✱-/-Color-/-Icons-/-Black-/-Inactive" mask="url(#mask-4)" fill="#000000" fill-opacity="0.54">
                <rect id="Rectangle" x="0" y="0" width="101" height="101"></rect>
            </g>
        </g>
    </g>
</svg>