<?xml version="1.0" encoding="UTF-8"?>
<svg width="24px" height="24px" viewBox="0 0 24 24" version="1.1" xmlns="http://www.w3.org/2000/svg" xmlns:xlink="http://www.w3.org/1999/xlink">
    <!-- Generator: Sketch 50 (54983) - http://www.bohemiancoding.com/sketch -->
    <title>icon/action/settings_power_24px_two_tone</title>
    <desc>Created with Sketch.</desc>
    <defs>
        <path d="M3,22 L5,22 L5,20 L3,20 L3,22 Z M7,22 L9,22 L9,20 L7,20 L7,22 Z M9,0 L7,0 L7,10 L9,10 L9,0 Z M12.56,2.44 L11.11,3.89 C12.84,4.94 14,6.83 14,9 C14,12.31 11.31,15 8,15 C4.69,15 2,12.31 2,9 C2,6.83 3.16,4.94 4.88,3.88 L3.44,2.44 C1.36,3.88 0,6.28 0,9 C0,13.42 3.58,17 8,17 C12.42,17 16,13.42 16,9 C16,6.28 14.64,3.88 12.56,2.44 Z M11,22 L13,22 L13,20 L11,20 L11,22 Z" id="path-1"></path>
    </defs>
    <g id="icon/action/settings_power_24px" stroke="none" stroke-width="1" fill="none" fill-rule="evenodd">
        <g id="↳-Dark-Color" transform="translate(4.000000, 2.000000)">
            <mask id="mask-2" fill="white">
                <use xlink:href="#path-1"></use>
            </mask>
            <g id="Mask" fill-rule="nonzero"></g>
            <g id="✱-/-Color-/-Icons-/-Black-/-Inactive" mask="url(#mask-2)" fill="#000000" fill-opacity="0.54">
                <rect id="Rectangle" x="0" y="0" width="101" height="101"></rect>
            </g>
        </g>
    </g>
</svg>