<?xml version="1.0" encoding="UTF-8"?>
<svg width="24px" height="24px" viewBox="0 0 24 24" version="1.1" xmlns="http://www.w3.org/2000/svg" xmlns:xlink="http://www.w3.org/1999/xlink">
    <!-- Generator: Sketch 50 (54983) - http://www.bohemiancoding.com/sketch -->
    <title>icon/action/settings_remote_24px_two_tone</title>
    <desc>Created with Sketch.</desc>
    <defs>
        <path d="M0,10 L4,10 L4,0 L0,0 L0,10 Z M2,1 C2.55,1 3,1.45 3,2 C3,2.55 2.55,3 2,3 C1.45,3 1,2.55 1,2 C1,1.45 1.45,1 2,1 Z" id="path-1"></path>
        <path d="M7,0 L1,0 C0.45,0 0,0.45 0,1 L0,13 C0,13.55 0.45,14 1,14 L7,14 C7.55,14 8,13.55 8,13 L8,1 C8,0.45 7.55,0 7,0 Z M6,12 L2,12 L2,2 L6,2 L6,12 Z" id="path-3"></path>
        <circle id="path-5" cx="1" cy="1" r="1"></circle>
        <path d="M0.05,2.05 L1.46,3.46 C2.37,2.56 3.62,2 5,2 C6.38,2 7.63,2.56 8.54,3.46 L9.95,2.05 C8.68,0.78 6.93,0 5,0 C3.07,0 1.32,0.78 0.05,2.05 Z" id="path-7"></path>
        <path d="M8,0 C4.96,0 2.21,1.23 0.22,3.22 L1.63,4.63 C3.26,3.01 5.51,2 8,2 C10.49,2 12.74,3.01 14.36,4.64 L15.77,3.23 C13.79,1.23 11.04,0 8,0 Z" id="path-9"></path>
    </defs>
    <g id="icon/action/settings_remote_24px" stroke="none" stroke-width="1" fill="none" fill-rule="evenodd">
        <g id="↳-Light-Color" transform="translate(10.000000, 11.000000)">
            <mask id="mask-2" fill="white">
                <use xlink:href="#path-1"></use>
            </mask>
            <g id="Mask" opacity="0.3" fill-rule="nonzero"></g>
            <g id="✱-/-Color-/-Icons-/-Black-/-Disabled" mask="url(#mask-2)" fill="#000000" fill-opacity="0.38">
                <rect id="Rectangle" x="0" y="0" width="101" height="101"></rect>
            </g>
        </g>
        <g id="↳-Dark-Color" transform="translate(8.000000, 9.000000)">
            <mask id="mask-4" fill="white">
                <use xlink:href="#path-3"></use>
            </mask>
            <g id="Mask" fill-rule="nonzero"></g>
            <g id="✱-/-Color-/-Icons-/-Black-/-Inactive" mask="url(#mask-4)" fill="#000000" fill-opacity="0.54">
                <rect id="Rectangle" x="0" y="0" width="101" height="101"></rect>
            </g>
        </g>
        <g id="↳-Dark-Color" transform="translate(11.000000, 12.000000)">
            <mask id="mask-6" fill="white">
                <use xlink:href="#path-5"></use>
            </mask>
            <g id="Mask" fill-rule="nonzero"></g>
            <g id="✱-/-Color-/-Icons-/-Black-/-Inactive" mask="url(#mask-6)" fill="#000000" fill-opacity="0.54">
                <rect id="Rectangle" x="0" y="0" width="101" height="101"></rect>
            </g>
        </g>
        <g id="↳-Dark-Color" transform="translate(7.000000, 4.000000)">
            <mask id="mask-8" fill="white">
                <use xlink:href="#path-7"></use>
            </mask>
            <g id="Mask" fill-rule="nonzero"></g>
            <g id="✱-/-Color-/-Icons-/-Black-/-Inactive" mask="url(#mask-8)" fill="#000000" fill-opacity="0.54">
                <rect id="Rectangle" x="0" y="0" width="101" height="101"></rect>
            </g>
        </g>
        <g id="↳-Dark-Color" transform="translate(4.000000, 0.000000)">
            <mask id="mask-10" fill="white">
                <use xlink:href="#path-9"></use>
            </mask>
            <g id="Mask" fill-rule="nonzero"></g>
            <g id="✱-/-Color-/-Icons-/-Black-/-Inactive" mask="url(#mask-10)" fill="#000000" fill-opacity="0.54">
                <rect id="Rectangle" x="0" y="0" width="101" height="101"></rect>
            </g>
        </g>
    </g>
</svg>