<?xml version="1.0" encoding="UTF-8"?>
<svg width="24px" height="24px" viewBox="0 0 24 24" version="1.1" xmlns="http://www.w3.org/2000/svg" xmlns:xlink="http://www.w3.org/1999/xlink">
    <!-- Generator: Sketch 50 (54983) - http://www.bohemiancoding.com/sketch -->
    <title>icon/action/settings_backup_restore_24px_two_tone</title>
    <desc>Created with Sketch.</desc>
    <defs>
        <path d="M14,9 C14,7.9 13.1,7 12,7 C10.9,7 10,7.9 10,9 C10,10.1 10.9,11 12,11 C13.1,11 14,10.1 14,9 Z M12,0 C7.03,0 3,4.03 3,9 L0,9 L4,13 L8,9 L5,9 C5,5.13 8.13,2 12,2 C15.87,2 19,5.13 19,9 C19,12.87 15.87,16 12,16 C10.49,16 9.09,15.51 7.94,14.7 L6.52,16.14 C8.04,17.3 9.94,18 12,18 C16.97,18 21,13.97 21,9 C21,4.03 16.97,0 12,0 Z" id="path-1"></path>
    </defs>
    <g id="icon/action/settings_backup_restore_24px" stroke="none" stroke-width="1" fill="none" fill-rule="evenodd">
        <g id="↳-Dark-Color" transform="translate(0.000000, 3.000000)">
            <mask id="mask-2" fill="white">
                <use xlink:href="#path-1"></use>
            </mask>
            <g id="Mask" fill-rule="nonzero"></g>
            <g id="✱-/-Color-/-Icons-/-Black-/-Inactive" mask="url(#mask-2)" fill="#000000" fill-opacity="0.54">
                <rect id="Rectangle" x="0" y="0" width="101" height="101"></rect>
            </g>
        </g>
    </g>
</svg>