<?xml version="1.0" encoding="UTF-8"?>
<svg width="24px" height="24px" viewBox="0 0 24 24" version="1.1" xmlns="http://www.w3.org/2000/svg" xmlns:xlink="http://www.w3.org/1999/xlink">
    <!-- Generator: Sketch 50 (54983) - http://www.bohemiancoding.com/sketch -->
    <title>icon/action/settings_input_composite_24px_two_tone</title>
    <desc>Created with Sketch.</desc>
    <defs>
        <path d="M0,2 C0,2.55 0.45,3 1,3 C1.55,3 2,2.55 2,2 L2,0 L0,0 L0,2 Z" id="path-1"></path>
        <path d="M0,2 C0,2.55 0.45,3 1,3 C1.55,3 2,2.55 2,2 L2,0 L0,0 L0,2 Z" id="path-3"></path>
        <path d="M0,2 C0,2.55 0.45,3 1,3 C1.55,3 2,2.55 2,2 L2,0 L0,0 L0,2 Z" id="path-5"></path>
        <path d="M4,1 C4,0.45 3.55,0 3,0 C2.45,0 2,0.45 2,1 L2,5 L0,5 L0,11 L0,13 L0,15 C0,16.3 0.84,17.4 2,17.82 L2,22 L4,22 L4,17.82 C5.16,17.4 6,16.3 6,15 L6,13 L6,11 L6,5 L4,5 L4,1 Z M4,15 C4,15.55 3.55,16 3,16 C2.45,16 2,15.55 2,15 L2,13 L4,13 L4,15 Z M4,11 L2,11 L2,7 L4,7 L4,11 Z" id="path-7"></path>
        <path d="M4,1 C4,0.45 3.55,0 3,0 C2.45,0 2,0.45 2,1 L2,5 L0,5 L0,11 L0,13 L0,15 C0,16.3 0.84,17.4 2,17.82 L2,22 L4,22 L4,17.82 C5.16,17.4 6,16.3 6,15 L6,13 L6,11 L6,5 L4,5 L4,1 Z M4,15 C4,15.55 3.55,16 3,16 C2.45,16 2,15.55 2,15 L2,13 L4,13 L4,15 Z M4,11 L2,11 L2,7 L4,7 L4,11 Z" id="path-9"></path>
        <path d="M4,5 L4,1 C4,0.45 3.55,0 3,0 C2.45,0 2,0.45 2,1 L2,5 L0,5 L0,11 L0,13 L0,15 C0,16.3 0.84,17.4 2,17.82 L2,22 L4,22 L4,17.82 C5.16,17.4 6,16.3 6,15 L6,13 L6,11 L6,5 L4,5 Z M4,15 C4,15.55 3.55,16 3,16 C2.45,16 2,15.55 2,15 L2,13 L4,13 L4,15 Z M4,11 L2,11 L2,7 L4,7 L4,11 Z" id="path-11"></path>
    </defs>
    <g id="icon/action/settings_input_composite_24px" stroke="none" stroke-width="1" fill="none" fill-rule="evenodd">
        <g id="↳-Light-Color" transform="translate(3.000000, 14.000000)">
            <mask id="mask-2" fill="white">
                <use xlink:href="#path-1"></use>
            </mask>
            <g id="Mask" opacity="0.3" fill-rule="nonzero"></g>
            <g id="✱-/-Color-/-Icons-/-Black-/-Disabled" mask="url(#mask-2)" fill="#000000" fill-opacity="0.38">
                <rect id="Rectangle" x="0" y="0" width="101" height="101"></rect>
            </g>
        </g>
        <g id="↳-Light-Color" transform="translate(11.000000, 14.000000)">
            <mask id="mask-4" fill="white">
                <use xlink:href="#path-3"></use>
            </mask>
            <g id="Mask" opacity="0.3" fill-rule="nonzero"></g>
            <g id="✱-/-Color-/-Icons-/-Black-/-Disabled" mask="url(#mask-4)" fill="#000000" fill-opacity="0.38">
                <rect id="Rectangle" x="0" y="0" width="101" height="101"></rect>
            </g>
        </g>
        <g id="↳-Light-Color" transform="translate(19.000000, 14.000000)">
            <mask id="mask-6" fill="white">
                <use xlink:href="#path-5"></use>
            </mask>
            <g id="Mask" opacity="0.3" fill-rule="nonzero"></g>
            <g id="✱-/-Color-/-Icons-/-Black-/-Disabled" mask="url(#mask-6)" fill="#000000" fill-opacity="0.38">
                <rect id="Rectangle" x="0" y="0" width="101" height="101"></rect>
            </g>
        </g>
        <g id="↳-Dark-Color" transform="translate(1.000000, 1.000000)">
            <mask id="mask-8" fill="white">
                <use xlink:href="#path-7"></use>
            </mask>
            <g id="Mask" fill-rule="nonzero"></g>
            <g id="✱-/-Color-/-Icons-/-Black-/-Inactive" mask="url(#mask-8)" fill="#000000" fill-opacity="0.54">
                <rect id="Rectangle" x="0" y="0" width="101" height="101"></rect>
            </g>
        </g>
        <g id="↳-Dark-Color" transform="translate(9.000000, 1.000000)">
            <mask id="mask-10" fill="white">
                <use xlink:href="#path-9"></use>
            </mask>
            <g id="Mask" fill-rule="nonzero"></g>
            <g id="✱-/-Color-/-Icons-/-Black-/-Inactive" mask="url(#mask-10)" fill="#000000" fill-opacity="0.54">
                <rect id="Rectangle" x="0" y="0" width="101" height="101"></rect>
            </g>
        </g>
        <g id="↳-Dark-Color" transform="translate(17.000000, 1.000000)">
            <mask id="mask-12" fill="white">
                <use xlink:href="#path-11"></use>
            </mask>
            <g id="Mask" fill-rule="nonzero"></g>
            <g id="✱-/-Color-/-Icons-/-Black-/-Inactive" mask="url(#mask-12)" fill="#000000" fill-opacity="0.54">
                <rect id="Rectangle" x="0" y="0" width="101" height="101"></rect>
            </g>
        </g>
    </g>
</svg>