<?xml version="1.0" encoding="UTF-8"?>
<svg width="24px" height="24px" viewBox="0 0 24 24" version="1.1" xmlns="http://www.w3.org/2000/svg" xmlns:xlink="http://www.w3.org/1999/xlink">
    <!-- Generator: Sketch 50 (54983) - http://www.bohemiancoding.com/sketch -->
    <title>icon/action/settings_applications_24px_two_tone</title>
    <desc>Created with Sketch.</desc>
    <defs>
        <path d="M0,14 L14,14 L14,0 L0,0 L0,14 Z M2.5,7 C2.5,6.8 2.52,6.61 2.54,6.42 L1.27,5.43 C1.16,5.34 1.12,5.17 1.2,5.04 L2.4,2.97 C2.48,2.84 2.63,2.79 2.77,2.84 L4.26,3.44 C4.57,3.19 4.92,3 5.28,2.84 L5.5,1.25 C5.53,1.11 5.65,1 5.8,1 L8.2,1 C8.35,1 8.47,1.11 8.5,1.25 L8.72,2.84 C9.09,2.99 9.42,3.19 9.73,3.43 L11.22,2.83 C11.36,2.78 11.51,2.83 11.59,2.96 L12.79,5.03 C12.87,5.16 12.83,5.32 12.72,5.42 L11.45,6.41 C11.48,6.61 11.49,6.8 11.49,7 C11.49,7.2 11.47,7.39 11.45,7.58 L12.72,8.57 C12.83,8.66 12.87,8.83 12.79,8.96 L11.59,11.03 C11.51,11.16 11.36,11.21 11.22,11.16 L9.73,10.56 C9.42,10.8 9.08,11 8.72,11.15 L8.5,12.74 C8.47,12.89 8.35,13 8.2,13 L5.8,13 C5.65,13 5.53,12.89 5.5,12.75 L5.28,11.16 C4.91,11.01 4.58,10.81 4.27,10.57 L2.78,11.17 C2.64,11.22 2.49,11.17 2.41,11.04 L1.21,8.97 C1.13,8.84 1.17,8.68 1.28,8.58 L2.55,7.59 C2.52,7.39 2.5,7.2 2.5,7 Z" id="path-1"></path>
        <path d="M0.21,7.97 L1.41,10.04 C1.49,10.17 1.64,10.22 1.78,10.17 L3.27,9.57 C3.58,9.81 3.91,10.01 4.28,10.16 L4.5,11.75 C4.53,11.89 4.65,12 4.8,12 L7.2,12 C7.35,12 7.47,11.89 7.5,11.74 L7.72,10.15 C8.08,10 8.42,9.8 8.73,9.56 L10.22,10.16 C10.36,10.21 10.51,10.16 10.59,10.03 L11.79,7.96 C11.87,7.83 11.83,7.67 11.72,7.57 L10.45,6.58 C10.48,6.39 10.49,6.19 10.49,6 C10.49,5.8 10.47,5.61 10.45,5.41 L11.72,4.42 C11.83,4.33 11.87,4.16 11.79,4.03 L10.59,1.96 C10.51,1.83 10.36,1.78 10.22,1.83 L8.73,2.43 C8.42,2.19 8.09,1.99 7.72,1.84 L7.5,0.25 C7.47,0.11 7.35,0 7.2,0 L4.8,0 C4.65,0 4.53,0.11 4.5,0.26 L4.28,1.85 C3.92,2 3.57,2.19 3.27,2.43 L1.78,1.83 C1.64,1.78 1.49,1.83 1.41,1.96 L0.21,4.03 C0.13,4.16 0.17,4.32 0.28,4.42 L1.55,5.41 C1.52,5.61 1.5,5.8 1.5,6 C1.5,6.2 1.52,6.39 1.54,6.59 L0.27,7.58 C0.16,7.68 0.13,7.84 0.21,7.97 Z M6,4.29 C6.94,4.29 7.71,5.06 7.71,6 C7.71,6.94 6.94,7.71 6,7.71 C5.06,7.71 4.29,6.94 4.29,6 C4.29,5.06 5.06,4.29 6,4.29 Z" id="path-3"></path>
        <path d="M16,0 L2,0 C0.89,0 0,0.9 0,2 L0,16 C0,17.1 0.89,18 2,18 L16,18 C17.11,18 18,17.1 18,16 L18,2 C18,0.9 17.11,0 16,0 Z M16,16 L2,16 L2,2 L16,2 L16,16 Z" id="path-5"></path>
    </defs>
    <g id="icon/action/settings_applications_24px" stroke="none" stroke-width="1" fill="none" fill-rule="evenodd">
        <g id="↳-Light-Color" transform="translate(5.000000, 5.000000)">
            <mask id="mask-2" fill="white">
                <use xlink:href="#path-1"></use>
            </mask>
            <g id="Mask" opacity="0.3" fill-rule="nonzero"></g>
            <g id="✱-/-Color-/-Icons-/-Black-/-Disabled" mask="url(#mask-2)" fill="#000000" fill-opacity="0.38">
                <rect id="Rectangle" x="0" y="0" width="101" height="101"></rect>
            </g>
        </g>
        <g id="↳-Dark-Color" transform="translate(6.000000, 6.000000)">
            <mask id="mask-4" fill="white">
                <use xlink:href="#path-3"></use>
            </mask>
            <g id="Mask" fill-rule="nonzero"></g>
            <g id="✱-/-Color-/-Icons-/-Black-/-Inactive" mask="url(#mask-4)" fill="#000000" fill-opacity="0.54">
                <rect id="Rectangle" x="0" y="0" width="101" height="101"></rect>
            </g>
        </g>
        <g id="↳-Dark-Color" transform="translate(3.000000, 3.000000)">
            <mask id="mask-6" fill="white">
                <use xlink:href="#path-5"></use>
            </mask>
            <g id="Mask" fill-rule="nonzero"></g>
            <g id="✱-/-Color-/-Icons-/-Black-/-Inactive" mask="url(#mask-6)" fill="#000000" fill-opacity="0.54">
                <rect id="Rectangle" x="0" y="0" width="101" height="101"></rect>
            </g>
        </g>
    </g>
</svg>