<?xml version="1.0" encoding="UTF-8"?>
<svg width="24px" height="24px" viewBox="0 0 24 24" version="1.1" xmlns="http://www.w3.org/2000/svg" xmlns:xlink="http://www.w3.org/1999/xlink">
    <!-- Generator: Sketch 50 (54983) - http://www.bohemiancoding.com/sketch -->
    <title>icon/action/settings_ethernet_24px_two_tone</title>
    <desc>Created with Sketch.</desc>
    <defs>
        <path d="M7.77,1.76 L6.23,0.48 L0.82,7 L6.23,13.52 L7.77,12.24 L3.42,7 L7.77,1.76 Z M7,8 L9,8 L9,6 L7,6 L7,8 Z M17,6 L15,6 L15,8 L17,8 L17,6 Z M11,8 L13,8 L13,6 L11,6 L11,8 Z M17.77,0.48 L16.23,1.76 L20.58,7 L16.23,12.24 L17.77,13.52 L23.18,7 L17.77,0.48 Z" id="path-1"></path>
    </defs>
    <g id="icon/action/settings_ethernet_24px" stroke="none" stroke-width="1" fill="none" fill-rule="evenodd">
        <g id="↳-Dark-Color" transform="translate(0.000000, 5.000000)">
            <mask id="mask-2" fill="white">
                <use xlink:href="#path-1"></use>
            </mask>
            <g id="Mask" fill-rule="nonzero"></g>
            <g id="✱-/-Color-/-Icons-/-Black-/-Inactive" mask="url(#mask-2)" fill="#000000" fill-opacity="0.54">
                <rect id="Rectangle" x="0" y="0" width="101" height="101"></rect>
            </g>
        </g>
    </g>
</svg>