<?xml version="1.0" encoding="UTF-8"?>
<svg width="24px" height="24px" viewBox="0 0 24 24" version="1.1" xmlns="http://www.w3.org/2000/svg" xmlns:xlink="http://www.w3.org/1999/xlink">
    <!-- Generator: Sketch 50 (54983) - http://www.bohemiancoding.com/sketch -->
    <title>icon/action/tab_unselected_24px_two_tone</title>
    <desc>Created with Sketch.</desc>
    <defs>
        <path d="M0,6 L2,6 L2,4 L0,4 L0,6 Z M0,10 L2,10 L2,8 L0,8 L0,10 Z M0,2 L2,2 L2,0 C0.9,0 0,0.9 0,2 Z M8,18 L10,18 L10,16 L8,16 L8,18 Z M0,14 L2,14 L2,12 L0,12 L0,14 Z M2,18 L2,16 L0,16 C0,17.1 0.9,18 2,18 Z M20,0 L12,0 L12,6 L22,6 L22,2 C22,0.9 21.1,0 20,0 Z M20,14 L22,14 L22,12 L20,12 L20,14 Z M8,2 L10,2 L10,0 L8,0 L8,2 Z M4,18 L6,18 L6,16 L4,16 L4,18 Z M4,2 L6,2 L6,0 L4,0 L4,2 Z M20,18 C21.1,18 22,17.1 22,16 L20,16 L20,18 Z M20,10 L22,10 L22,8 L20,8 L20,10 Z M12,18 L14,18 L14,16 L12,16 L12,18 Z M16,18 L18,18 L18,16 L16,16 L16,18 Z" id="path-1"></path>
    </defs>
    <g id="icon/action/tab_unselected_24px" stroke="none" stroke-width="1" fill="none" fill-rule="evenodd">
        <g id="↳-Dark-Color" transform="translate(1.000000, 3.000000)">
            <mask id="mask-2" fill="white">
                <use xlink:href="#path-1"></use>
            </mask>
            <g id="Mask" fill-rule="nonzero"></g>
            <g id="✱-/-Color-/-Icons-/-Black-/-Inactive" mask="url(#mask-2)" fill="#000000" fill-opacity="0.54">
                <rect id="Rectangle" x="0" y="0" width="101" height="101"></rect>
            </g>
        </g>
    </g>
</svg>