<?xml version="1.0" encoding="UTF-8"?>
<svg width="24px" height="24px" viewBox="0 0 24 24" version="1.1" xmlns="http://www.w3.org/2000/svg" xmlns:xlink="http://www.w3.org/1999/xlink">
    <!-- Generator: Sketch 50 (54983) - http://www.bohemiancoding.com/sketch -->
    <title>icon/action/thumbs_up_down_24px_two_tone</title>
    <desc>Created with Sketch.</desc>
    <defs>
        <path d="M12,6 C12,5.45 11.55,5 11,5 L5.82,5 L6.48,1.82 L6.5,1.59 C6.5,1.28 6.37,1 6.17,0.79 L5.38,0 L0.44,4.94 C0.17,5.21 0,5.59 0,6 L0,12.5 C0,13.33 0.67,14 1.5,14 L8.25,14 C8.87,14 9.4,13.62 9.63,13.09 L11.89,7.8 C11.96,7.63 12,7.44 12,7.25 L12,6 Z M10,7.13 L7.92,12 L2,12 L2,6.21 L3.93,4.28 L3.36,7 L10,7 L10,7.13 Z" id="path-1"></path>
        <path d="M10.5,0 L3.75,0 C3.13,0 2.6,0.38 2.37,0.91 L0.11,6.2 C0.04,6.37 0,6.56 0,6.75 L0,8 C0,8.55 0.45,9 1,9 L6.18,9 L5.52,12.18 L5.5,12.42 C5.5,12.73 5.63,13.01 5.83,13.22 L6.62,14 L11.56,9.06 C11.83,8.79 12,8.41 12,8 L12,1.5 C12,0.67 11.33,0 10.5,0 Z M10,7.79 L8.07,9.72 L8.64,7 L2,7 L2,6.87 L4.08,2 L10,2 L10,7.79 Z" id="path-3"></path>
        <polygon id="path-5" points="1.93 0.28 0 2.21 0 8 5.92 8 8 3.13 8 3 1.36 3"></polygon>
        <polygon id="path-7" points="0 4.87 0 5 6.64 5 6.07 7.72 8 5.79 8 0 2.08 0"></polygon>
    </defs>
    <g id="icon/action/thumbs_up_down_24px" stroke="none" stroke-width="1" fill="none" fill-rule="evenodd">
        <g id="↳-Dark-Color">
            <mask id="mask-2" fill="white">
                <use xlink:href="#path-1"></use>
            </mask>
            <g id="Mask" fill-rule="nonzero"></g>
            <g id="✱-/-Color-/-Icons-/-Black-/-Inactive" mask="url(#mask-2)" fill="#000000" fill-opacity="0.54">
                <rect id="Rectangle" x="0" y="0" width="101" height="101"></rect>
            </g>
        </g>
        <g id="↳-Dark-Color" transform="translate(12.000000, 10.000000)">
            <mask id="mask-4" fill="white">
                <use xlink:href="#path-3"></use>
            </mask>
            <g id="Mask" fill-rule="nonzero"></g>
            <g id="✱-/-Color-/-Icons-/-Black-/-Inactive" mask="url(#mask-4)" fill="#000000" fill-opacity="0.54">
                <rect id="Rectangle" x="0" y="0" width="101" height="101"></rect>
            </g>
        </g>
        <g id="↳-Light-Color" transform="translate(2.000000, 4.000000)">
            <mask id="mask-6" fill="white">
                <use xlink:href="#path-5"></use>
            </mask>
            <g id="Mask" opacity="0.3" fill-rule="nonzero"></g>
            <g id="✱-/-Color-/-Icons-/-Black-/-Disabled" mask="url(#mask-6)" fill="#000000" fill-opacity="0.38">
                <rect id="Rectangle" x="0" y="0" width="101" height="101"></rect>
            </g>
        </g>
        <g id="↳-Light-Color" transform="translate(14.000000, 12.000000)">
            <mask id="mask-8" fill="white">
                <use xlink:href="#path-7"></use>
            </mask>
            <g id="Mask" opacity="0.3" fill-rule="nonzero"></g>
            <g id="✱-/-Color-/-Icons-/-Black-/-Disabled" mask="url(#mask-8)" fill="#000000" fill-opacity="0.38">
                <rect id="Rectangle" x="0" y="0" width="101" height="101"></rect>
            </g>
        </g>
    </g>
</svg>