<?xml version="1.0" encoding="UTF-8"?>
<svg width="24px" height="24px" viewBox="0 0 24 24" version="1.1" xmlns="http://www.w3.org/2000/svg" xmlns:xlink="http://www.w3.org/1999/xlink">
    <!-- Generator: Sketch 50 (54983) - http://www.bohemiancoding.com/sketch -->
    <title>icon/action/timeline_24px_two_tone</title>
    <desc>Created with Sketch.</desc>
    <defs>
        <path d="M22,2 C22,3.1 21.1,4 20,4 C19.82,4 19.65,3.98 19.49,3.93 L15.93,7.48 C15.98,7.64 16,7.82 16,8 C16,9.1 15.1,10 14,10 C12.9,10 12,9.1 12,8 C12,7.82 12.02,7.64 12.07,7.48 L9.52,4.93 C9.36,4.98 9.18,5 9,5 C8.82,5 8.64,4.98 8.48,4.93 L3.93,9.49 C3.98,9.65 4,9.82 4,10 C4,11.1 3.1,12 2,12 C0.9,12 0,11.1 0,10 C0,8.9 0.9,8 2,8 C2.18,8 2.35,8.02 2.51,8.07 L7.07,3.52 C7.02,3.36 7,3.18 7,3 C7,1.9 7.9,1 9,1 C10.1,1 11,1.9 11,3 C11,3.18 10.98,3.36 10.93,3.52 L13.48,6.07 C13.64,6.02 13.82,6 14,6 C14.18,6 14.36,6.02 14.52,6.07 L18.07,2.51 C18.02,2.35 18,2.18 18,2 C18,0.9 18.9,0 20,0 C21.1,0 22,0.9 22,2 Z" id="path-1"></path>
    </defs>
    <g id="icon/action/timeline_24px" stroke="none" stroke-width="1" fill="none" fill-rule="evenodd">
        <g id="↳-Dark-Color" transform="translate(1.000000, 6.000000)">
            <mask id="mask-2" fill="white">
                <use xlink:href="#path-1"></use>
            </mask>
            <g id="Mask" fill-rule="nonzero"></g>
            <g id="✱-/-Color-/-Icons-/-Black-/-Inactive" mask="url(#mask-2)" fill="#000000" fill-opacity="0.54">
                <rect id="Rectangle" x="0" y="0" width="101" height="101"></rect>
            </g>
        </g>
    </g>
</svg>