<?xml version="1.0" encoding="UTF-8"?>
<svg width="24px" height="24px" viewBox="0 0 24 24" version="1.1" xmlns="http://www.w3.org/2000/svg" xmlns:xlink="http://www.w3.org/1999/xlink">
    <!-- Generator: Sketch 50 (54983) - http://www.bohemiancoding.com/sketch -->
    <title>icon/action/toc_24px_two_tone</title>
    <desc>Created with Sketch.</desc>
    <defs>
        <path d="M0,2 L14,2 L14,0 L0,0 L0,2 Z M0,6 L14,6 L14,4 L0,4 L0,6 Z M0,10 L14,10 L14,8 L0,8 L0,10 Z M16,10 L18,10 L18,8 L16,8 L16,10 Z M16,0 L16,2 L18,2 L18,0 L16,0 Z M16,6 L18,6 L18,4 L16,4 L16,6 Z" id="path-1"></path>
    </defs>
    <g id="icon/action/toc_24px" stroke="none" stroke-width="1" fill="none" fill-rule="evenodd">
        <g id="↳-Dark-Color" transform="translate(3.000000, 7.000000)">
            <mask id="mask-2" fill="white">
                <use xlink:href="#path-1"></use>
            </mask>
            <g id="Mask" fill-rule="nonzero"></g>
            <g id="✱-/-Color-/-Icons-/-Black-/-Inactive" mask="url(#mask-2)" fill="#000000" fill-opacity="0.54">
                <rect id="Rectangle" x="0" y="0" width="101" height="101"></rect>
            </g>
        </g>
    </g>
</svg>