<?xml version="1.0" encoding="UTF-8"?>
<svg width="24px" height="24px" viewBox="0 0 24 24" version="1.1" xmlns="http://www.w3.org/2000/svg" xmlns:xlink="http://www.w3.org/1999/xlink">
    <!-- Generator: Sketch 50 (54983) - http://www.bohemiancoding.com/sketch -->
    <title>icon/action/translate_24px_two_tone</title>
    <desc>Created with Sketch.</desc>
    <defs>
        <path d="M11.87,13.07 L9.33,10.56 L9.36,10.53 C11.1,8.59 12.34,6.36 13.07,4 L16,4 L16,2 L9,2 L9,0 L7,0 L7,2 L0,2 L0,3.99 L11.17,3.99 C10.5,5.92 9.44,7.75 8,9.35 C7.07,8.32 6.3,7.19 5.69,6 L3.69,6 C4.42,7.63 5.42,9.17 6.67,10.56 L1.58,15.58 L3,17 L8,12 L11.11,15.11 L11.87,13.07 Z M17.5,8 L15.5,8 L11,20 L13,20 L14.12,17 L18.87,17 L20,20 L22,20 L17.5,8 Z M14.88,15 L16.5,10.67 L18.12,15 L14.88,15 Z" id="path-1"></path>
    </defs>
    <g id="icon/action/translate_24px" stroke="none" stroke-width="1" fill="none" fill-rule="evenodd">
        <g id="↳-Dark-Color" transform="translate(1.000000, 2.000000)">
            <mask id="mask-2" fill="white">
                <use xlink:href="#path-1"></use>
            </mask>
            <g id="Mask" fill-rule="nonzero"></g>
            <g id="✱-/-Color-/-Icons-/-Black-/-Inactive" mask="url(#mask-2)" fill="#000000" fill-opacity="0.54">
                <rect id="Rectangle" x="0" y="0" width="101" height="101"></rect>
            </g>
        </g>
    </g>
</svg>