<?xml version="1.0" encoding="UTF-8"?>
<svg width="24px" height="24px" viewBox="0 0 24 24" version="1.1" xmlns="http://www.w3.org/2000/svg" xmlns:xlink="http://www.w3.org/1999/xlink">
    <!-- Generator: Sketch 50 (54983) - http://www.bohemiancoding.com/sketch -->
    <title>icon/action/verified_user_24px_two_tone</title>
    <desc>Created with Sketch.</desc>
    <defs>
        <path d="M9,0 L0,4 L0,10 C0,15.55 3.84,20.74 9,22 C14.16,20.74 18,15.55 18,10 L18,4 L9,0 Z M16,10 C16,14.52 13.02,18.69 9,19.93 C4.98,18.69 2,14.52 2,10 L2,5.3 L9,2.19 L16,5.3 L16,10 Z" id="path-1"></path>
        <polygon id="path-3" points="1.41 4.59 0 6 4 10 12 2 10.59 0.58 4 7.17"></polygon>
        <path d="M0,3.3 L0,8 C0,12.52 2.98,16.69 7,17.93 C11.02,16.7 14,12.52 14,8 L14,3.3 L7,0.19 L0,3.3 Z M13,6 L5,14 L1,10 L2.41,8.59 L5,11.17 L11.59,4.58 L13,6 Z" id="path-5"></path>
    </defs>
    <g id="icon/action/verified_user_24px" stroke="none" stroke-width="1" fill="none" fill-rule="evenodd">
        <g id="↳-Dark-Color" transform="translate(3.000000, 1.000000)">
            <mask id="mask-2" fill="white">
                <use xlink:href="#path-1"></use>
            </mask>
            <g id="Mask" fill-rule="nonzero"></g>
            <g id="✱-/-Color-/-Icons-/-Black-/-Inactive" mask="url(#mask-2)" fill="#000000" fill-opacity="0.54">
                <rect id="Rectangle" x="0" y="0" width="101" height="101"></rect>
            </g>
        </g>
        <g id="↳-Dark-Color" transform="translate(6.000000, 7.000000)">
            <mask id="mask-4" fill="white">
                <use xlink:href="#path-3"></use>
            </mask>
            <g id="Mask" fill-rule="nonzero"></g>
            <g id="✱-/-Color-/-Icons-/-Black-/-Inactive" mask="url(#mask-4)" fill="#000000" fill-opacity="0.54">
                <rect id="Rectangle" x="0" y="0" width="101" height="101"></rect>
            </g>
        </g>
        <g id="↳-Light-Color" transform="translate(5.000000, 3.000000)">
            <mask id="mask-6" fill="white">
                <use xlink:href="#path-5"></use>
            </mask>
            <g id="Mask" opacity="0.3" fill-rule="nonzero"></g>
            <g id="✱-/-Color-/-Icons-/-Black-/-Disabled" mask="url(#mask-6)" fill="#000000" fill-opacity="0.38">
                <rect id="Rectangle" x="0" y="0" width="101" height="101"></rect>
            </g>
        </g>
    </g>
</svg>