<?xml version="1.0" encoding="UTF-8"?>
<svg width="24px" height="24px" viewBox="0 0 24 24" version="1.1" xmlns="http://www.w3.org/2000/svg" xmlns:xlink="http://www.w3.org/1999/xlink">
    <!-- Generator: Sketch 50 (54983) - http://www.bohemiancoding.com/sketch -->
    <title>icon/action/visibility_off_24px_two_tone</title>
    <desc>Created with Sketch.</desc>
    <defs>
        <path d="M3,3 C3.04,3 3.08,2.99 3.12,2.99 L0.51,0.38 C0.51,0.42 0.5,0.46 0.5,0.5 C0.5,1.88 1.62,3 3,3 Z" id="path-1"></path>
        <path d="M0.01,0.21 L1.29,1.49 C1.03,0.92 0.58,0.46 0.01,0.21 Z" id="path-3"></path>
        <path d="M10.82,5.5 C9.17,2.13 5.79,0 2,0 C1.32,0 0.66,0.09 0.01,0.22 L0.93,1.14 C1.28,1.05 1.63,1 2,1 C4.48,1 6.5,3.02 6.5,5.5 C6.5,5.87 6.44,6.22 6.36,6.57 L8.41,8.62 C9.39,7.76 10.22,6.71 10.82,5.5 Z" id="path-5"></path>
        <path d="M9,10 C9.95,10 10.87,9.87 11.75,9.61 L10.77,8.63 C10.23,8.87 9.63,9 9,9 C6.52,9 4.5,6.98 4.5,4.5 C4.5,3.87 4.63,3.27 4.86,2.73 L3.11,0.97 C1.89,1.88 0.88,3.07 0.18,4.49 C1.83,7.86 5.21,10 9,10 Z" id="path-7"></path>
        <path d="M4,2 C7.79,2 11.17,4.13 12.82,7.5 C12.23,8.72 11.4,9.77 10.41,10.62 L11.82,12.03 C13.21,10.8 14.31,9.26 15,7.5 C13.27,3.11 9,0 4,0 C2.73,0 1.51,0.2 0.36,0.57 L2.01,2.22 C2.66,2.09 3.32,2 4,2 Z" id="path-9"></path>
        <path d="M4.28,3.49 L6.35,5.56 C6.43,5.22 6.49,4.86 6.49,4.49 C6.5,2.01 4.48,0 2,0 C1.63,0 1.28,0.06 0.93,0.14 L3,2.21 C3.58,2.46 4.03,2.92 4.28,3.49 Z" id="path-11"></path>
        <path d="M1.01,1.87 L3.69,4.55 C2.06,5.83 0.77,7.53 0,9.5 C1.73,13.89 6,17 11,17 C12.52,17 13.98,16.71 15.32,16.18 L18.74,19.6 L20.15,18.19 L2.42,0.45 L1.01,1.87 Z M8.51,9.37 L11.12,11.98 C11.08,11.99 11.04,12 11,12 C9.62,12 8.5,10.88 8.5,9.5 C8.5,9.45 8.51,9.42 8.51,9.37 Z M5.11,5.97 L6.86,7.72 C6.63,8.27 6.5,8.87 6.5,9.5 C6.5,11.98 8.52,14 11,14 C11.63,14 12.23,13.87 12.77,13.64 L13.75,14.62 C12.87,14.86 11.95,15 11,15 C7.21,15 3.83,12.87 2.18,9.5 C2.88,8.07 3.9,6.89 5.11,5.97 Z" id="path-13"></path>
    </defs>
    <g id="icon/action/visibility_off_24px" stroke="none" stroke-width="1" fill="none" fill-rule="evenodd">
        <g id="↳-Light-Color" transform="translate(9.000000, 11.000000)">
            <mask id="mask-2" fill="white">
                <use xlink:href="#path-1"></use>
            </mask>
            <g id="Mask" opacity="0.3" fill-rule="nonzero"></g>
            <g id="✱-/-Color-/-Icons-/-Black-/-Disabled" mask="url(#mask-2)" fill="#000000" fill-opacity="0.38">
                <rect id="Rectangle" x="0" y="0" width="101" height="101"></rect>
            </g>
        </g>
        <g id="↳-Light-Color" transform="translate(13.000000, 9.000000)">
            <mask id="mask-4" fill="white">
                <use xlink:href="#path-3"></use>
            </mask>
            <g id="Mask" opacity="0.3" fill-rule="nonzero"></g>
            <g id="✱-/-Color-/-Icons-/-Black-/-Disabled" mask="url(#mask-4)" fill="#000000" fill-opacity="0.38">
                <rect id="Rectangle" x="0" y="0" width="101" height="101"></rect>
            </g>
        </g>
        <g id="↳-Light-Color" transform="translate(10.000000, 6.000000)">
            <mask id="mask-6" fill="white">
                <use xlink:href="#path-5"></use>
            </mask>
            <g id="Mask" opacity="0.3" fill-rule="nonzero"></g>
            <g id="✱-/-Color-/-Icons-/-Black-/-Disabled" mask="url(#mask-6)" fill="#000000" fill-opacity="0.38">
                <rect id="Rectangle" x="0" y="0" width="101" height="101"></rect>
            </g>
        </g>
        <g id="↳-Light-Color" transform="translate(3.000000, 7.000000)">
            <mask id="mask-8" fill="white">
                <use xlink:href="#path-7"></use>
            </mask>
            <g id="Mask" opacity="0.3" fill-rule="nonzero"></g>
            <g id="✱-/-Color-/-Icons-/-Black-/-Disabled" mask="url(#mask-8)" fill="#000000" fill-opacity="0.38">
                <rect id="Rectangle" x="0" y="0" width="101" height="101"></rect>
            </g>
        </g>
        <g id="↳-Dark-Color" transform="translate(8.000000, 4.000000)">
            <mask id="mask-10" fill="white">
                <use xlink:href="#path-9"></use>
            </mask>
            <g id="Mask" fill-rule="nonzero"></g>
            <g id="✱-/-Color-/-Icons-/-Black-/-Inactive" mask="url(#mask-10)" fill="#000000" fill-opacity="0.54">
                <rect id="Rectangle" x="0" y="0" width="101" height="101"></rect>
            </g>
        </g>
        <g id="↳-Dark-Color" transform="translate(10.000000, 7.000000)">
            <mask id="mask-12" fill="white">
                <use xlink:href="#path-11"></use>
            </mask>
            <g id="Mask" fill-rule="nonzero"></g>
            <g id="✱-/-Color-/-Icons-/-Black-/-Inactive" mask="url(#mask-12)" fill="#000000" fill-opacity="0.54">
                <rect id="Rectangle" x="0" y="0" width="101" height="101"></rect>
            </g>
        </g>
        <g id="↳-Dark-Color" transform="translate(1.000000, 2.000000)">
            <mask id="mask-14" fill="white">
                <use xlink:href="#path-13"></use>
            </mask>
            <g id="Mask" fill-rule="nonzero"></g>
            <g id="✱-/-Color-/-Icons-/-Black-/-Inactive" mask="url(#mask-14)" fill="#000000" fill-opacity="0.54">
                <rect id="Rectangle" x="0" y="0" width="101" height="101"></rect>
            </g>
        </g>
    </g>
</svg>