<?xml version="1.0" encoding="UTF-8"?>
<svg width="24px" height="24px" viewBox="0 0 24 24" version="1.1" xmlns="http://www.w3.org/2000/svg" xmlns:xlink="http://www.w3.org/1999/xlink">
    <!-- Generator: Sketch 50 (54983) - http://www.bohemiancoding.com/sketch -->
    <title>icon/action/visibility_24px_two_tone</title>
    <desc>Created with Sketch.</desc>
    <defs>
        <path d="M9,0 C5.21,0 1.83,2.13 0.18,5.5 C1.83,8.87 5.21,11 9,11 C12.79,11 16.17,8.87 17.82,5.5 C16.17,2.13 12.79,0 9,0 Z M9,10 C6.52,10 4.5,7.98 4.5,5.5 C4.5,3.02 6.52,1 9,1 C11.48,1 13.5,3.02 13.5,5.5 C13.5,7.98 11.48,10 9,10 Z" id="path-1"></path>
        <path d="M11,0 C6,0 1.73,3.11 0,7.5 C1.73,11.89 6,15 11,15 C16,15 20.27,11.89 22,7.5 C20.27,3.11 16,0 11,0 Z M11,13 C7.21,13 3.83,10.87 2.18,7.5 C3.83,4.13 7.21,2 11,2 C14.79,2 18.17,4.13 19.82,7.5 C18.17,10.87 14.79,13 11,13 Z" id="path-3"></path>
        <path d="M5,0 C2.52,0 0.5,2.02 0.5,4.5 C0.5,6.98 2.52,9 5,9 C7.48,9 9.5,6.98 9.5,4.5 C9.5,2.02 7.48,0 5,0 Z M5,7 C3.62,7 2.5,5.88 2.5,4.5 C2.5,3.12 3.62,2 5,2 C6.38,2 7.5,3.12 7.5,4.5 C7.5,5.88 6.38,7 5,7 Z" id="path-5"></path>
    </defs>
    <g id="icon/action/visibility_24px" stroke="none" stroke-width="1" fill="none" fill-rule="evenodd">
        <g id="↳-Light-Color" transform="translate(3.000000, 6.000000)">
            <mask id="mask-2" fill="white">
                <use xlink:href="#path-1"></use>
            </mask>
            <g id="Mask" opacity="0.3" fill-rule="nonzero"></g>
            <g id="✱-/-Color-/-Icons-/-Black-/-Disabled" mask="url(#mask-2)" fill="#000000" fill-opacity="0.38">
                <rect id="Rectangle" x="0" y="0" width="101" height="101"></rect>
            </g>
        </g>
        <g id="↳-Dark-Color" transform="translate(1.000000, 4.000000)">
            <mask id="mask-4" fill="white">
                <use xlink:href="#path-3"></use>
            </mask>
            <g id="Mask" fill-rule="nonzero"></g>
            <g id="✱-/-Color-/-Icons-/-Black-/-Inactive" mask="url(#mask-4)" fill="#000000" fill-opacity="0.54">
                <rect id="Rectangle" x="0" y="0" width="101" height="101"></rect>
            </g>
        </g>
        <g id="↳-Dark-Color" transform="translate(7.000000, 7.000000)">
            <mask id="mask-6" fill="white">
                <use xlink:href="#path-5"></use>
            </mask>
            <g id="Mask" fill-rule="nonzero"></g>
            <g id="✱-/-Color-/-Icons-/-Black-/-Inactive" mask="url(#mask-6)" fill="#000000" fill-opacity="0.54">
                <rect id="Rectangle" x="0" y="0" width="101" height="101"></rect>
            </g>
        </g>
    </g>
</svg>