<?xml version="1.0" encoding="UTF-8"?>
<svg width="24px" height="24px" viewBox="0 0 24 24" version="1.1" xmlns="http://www.w3.org/2000/svg" xmlns:xlink="http://www.w3.org/1999/xlink">
    <!-- Generator: Sketch 50 (54983) - http://www.bohemiancoding.com/sketch -->
    <title>icon/social/location_city_24px_outlined</title>
    <desc>Created with Sketch.</desc>
    <defs>
        <path d="M15,11.5 L15,5.5 L12,2.5 L9,5.5 L9,7.5 L3,7.5 L3,21.5 L21,21.5 L21,11.5 L15,11.5 Z M7,19.5 L5,19.5 L5,17.5 L7,17.5 L7,19.5 Z M7,15.5 L5,15.5 L5,13.5 L7,13.5 L7,15.5 Z M7,11.5 L5,11.5 L5,9.5 L7,9.5 L7,11.5 Z M13,19.5 L11,19.5 L11,17.5 L13,17.5 L13,19.5 Z M13,15.5 L11,15.5 L11,13.5 L13,13.5 L13,15.5 Z M13,11.5 L11,11.5 L11,9.5 L13,9.5 L13,11.5 Z M13,7.5 L11,7.5 L11,5.5 L13,5.5 L13,7.5 Z M19,19.5 L17,19.5 L17,17.5 L19,17.5 L19,19.5 Z M19,15.5 L17,15.5 L17,13.5 L19,13.5 L19,15.5 Z" id="path-1"></path>
    </defs>
    <g id="icon/social/location_city_24px" stroke="none" stroke-width="1" fill="none" fill-rule="evenodd">
        <mask id="mask-2" fill="white">
            <use xlink:href="#path-1"></use>
        </mask>
        <g fill-rule="nonzero"></g>
        <g id="✱-/-Color-/-Icons-/-Black-/-Inactive" mask="url(#mask-2)" fill="#000000" fill-opacity="0.54">
            <rect id="Rectangle" x="0" y="0" width="24" height="24"></rect>
        </g>
    </g>
</svg>