<?xml version="1.0" encoding="UTF-8"?>
<svg width="24px" height="24px" viewBox="0 0 24 24" version="1.1" xmlns="http://www.w3.org/2000/svg" xmlns:xlink="http://www.w3.org/1999/xlink">
    <!-- Generator: Sketch 50 (54983) - http://www.bohemiancoding.com/sketch -->
    <title>icon/social/notifications_active_24px_outlined</title>
    <desc>Created with Sketch.</desc>
    <defs>
        <path d="M12,21.75 C13.1,21.75 14,20.85 14,19.75 L10,19.75 C10,20.85 10.9,21.75 12,21.75 Z M18,15.75 L18,10.75 C18,7.68 16.37,5.11 13.5,4.43 L13.5,3.75 C13.5,2.92 12.83,2.25 12,2.25 C11.17,2.25 10.5,2.92 10.5,3.75 L10.5,4.43 C7.64,5.11 6,7.67 6,10.75 L6,15.75 L4,17.75 L4,18.75 L20,18.75 L20,17.75 L18,15.75 Z M16,16.75 L8,16.75 L8,10.75 C8,8.27 9.51,6.25 12,6.25 C14.49,6.25 16,8.27 16,10.75 L16,16.75 Z M7.58,3.83 L6.15,2.4 C3.75,4.23 2.17,7.05 2.03,10.25 L4.03,10.25 C4.18,7.6 5.54,5.28 7.58,3.83 Z M19.97,10.25 L21.97,10.25 C21.82,7.05 20.24,4.23 17.85,2.4 L16.43,3.83 C18.45,5.28 19.82,7.6 19.97,10.25 Z" id="path-1"></path>
    </defs>
    <g id="icon/social/notifications_active_24px" stroke="none" stroke-width="1" fill="none" fill-rule="evenodd">
        <mask id="mask-2" fill="white">
            <use xlink:href="#path-1"></use>
        </mask>
        <g fill-rule="nonzero"></g>
        <g id="✱-/-Color-/-Icons-/-Black-/-Inactive" mask="url(#mask-2)" fill="#000000" fill-opacity="0.54">
            <rect id="Rectangle" x="0" y="0" width="24" height="24"></rect>
        </g>
    </g>
</svg>