<?xml version="1.0" encoding="UTF-8"?>
<svg width="24px" height="24px" viewBox="0 0 24 24" version="1.1" xmlns="http://www.w3.org/2000/svg" xmlns:xlink="http://www.w3.org/1999/xlink">
    <!-- Generator: Sketch 50 (54983) - http://www.bohemiancoding.com/sketch -->
    <title>icon/social/pages_24px_outlined</title>
    <desc>Created with Sketch.</desc>
    <defs>
        <path d="M19,3 L5,3 C3.9,3 3,3.9 3,5 L3,19 C3,20.1 3.9,21 5,21 L19,21 C20.1,21 21,20.1 21,19 L21,5 C21,3.9 20.1,3 19,3 Z M13,5 L19,5 L19,11 L16,11 L17,7 L13,8 L13,5 Z M5,5 L11,5 L11,8 L7,7 L8,11 L5,11 L5,5 Z M11,19 L5,19 L5,13 L8,13 L7,17 L11,16 L11,19 Z M19,19 L13,19 L13,16 L17,17 L16,13 L19,13 L19,19 Z M14.63,14.63 L12,13.72 L9.37,14.63 L10.28,12 L9.37,9.37 L12,10.28 L14.63,9.37 L13.72,12 L14.63,14.63 Z" id="path-1"></path>
    </defs>
    <g id="icon/social/pages_24px" stroke="none" stroke-width="1" fill="none" fill-rule="evenodd">
        <mask id="mask-2" fill="white">
            <use xlink:href="#path-1"></use>
        </mask>
        <g fill-rule="nonzero"></g>
        <g id="✱-/-Color-/-Icons-/-Black-/-Inactive" mask="url(#mask-2)" fill="#000000" fill-opacity="0.54">
            <rect id="Rectangle" x="0" y="0" width="24" height="24"></rect>
        </g>
    </g>
</svg>