<?xml version="1.0" encoding="UTF-8"?>
<svg width="24px" height="24px" viewBox="0 0 24 24" version="1.1" xmlns="http://www.w3.org/2000/svg" xmlns:xlink="http://www.w3.org/1999/xlink">
    <!-- Generator: Sketch 50 (54983) - http://www.bohemiancoding.com/sketch -->
    <title>icon/social/party_mode_24px_outlined</title>
    <desc>Created with Sketch.</desc>
    <defs>
        <path d="M20,5 L16.83,5 L15,3 L9,3 L7.17,5 L4,5 C2.9,5 2,5.9 2,7 L2,19 C2,20.1 2.9,21 4,21 L20,21 C21.1,21 22,20.1 22,19 L22,7 C22,5.9 21.1,5 20,5 Z M20,19 L4,19 L4,7 L8.05,7 L8.64,6.35 L9.88,5 L14.12,5 L15.36,6.35 L15.95,7 L20,7 L20,19 Z M9,13 C9,11.34 10.34,10 12,10 L15.98,10 C15.06,8.79 13.63,8 12,8 C9.24,8 7,10.24 7,13 C7,13.34 7.04,13.68 7.1,14 L9.18,14 C9.07,13.69 9,13.35 9,13 Z M15,13 C15,14.66 13.66,16 12,16 L8.02,16 C8.94,17.21 10.37,18 12,18 C14.76,18 17,15.76 17,13 C17,12.66 16.97,12.32 16.9,12 L14.82,12 C14.93,12.31 15,12.65 15,13 Z" id="path-1"></path>
    </defs>
    <g id="icon/social/party_mode_24px" stroke="none" stroke-width="1" fill="none" fill-rule="evenodd">
        <mask id="mask-2" fill="white">
            <use xlink:href="#path-1"></use>
        </mask>
        <g fill-rule="nonzero"></g>
        <g id="✱-/-Color-/-Icons-/-Black-/-Inactive" mask="url(#mask-2)" fill="#000000" fill-opacity="0.54">
            <rect id="Rectangle" x="0" y="0" width="24" height="24"></rect>
        </g>
    </g>
</svg>