<?xml version="1.0" encoding="UTF-8"?>
<svg width="24px" height="24px" viewBox="0 0 24 24" version="1.1" xmlns="http://www.w3.org/2000/svg" xmlns:xlink="http://www.w3.org/1999/xlink">
    <!-- Generator: Sketch 50 (54983) - http://www.bohemiancoding.com/sketch -->
    <title>icon/social/thumb_up_alt_24px_outlined</title>
    <desc>Created with Sketch.</desc>
    <defs>
        <path d="M21,9 L14.69,9 L15.64,4.43 L15.67,4.11 C15.67,3.7 15.5,3.32 15.23,3.05 L14.17,2 L7.59,8.59 C7.22,8.95 7,9.45 7,10 L7,20 C7,21.1 7.9,22 9,22 L18,22 C18.83,22 19.54,21.5 19.84,20.78 L22.86,13.73 C22.95,13.5 23,13.26 23,13 L23,11 C23,9.9 22.1,9 21,9 Z M21,13 L18,20 L9,20 L9,10 L13.34,5.66 L12.23,11 L21,11 L21,13 Z M1,10 L5,10 L5,22 L1,22 L1,10 Z" id="path-1"></path>
    </defs>
    <g id="icon/social/thumb_up_alt_24px" stroke="none" stroke-width="1" fill="none" fill-rule="evenodd">
        <mask id="mask-2" fill="white">
            <use xlink:href="#path-1"></use>
        </mask>
        <g fill-rule="nonzero"></g>
        <g id="✱-/-Color-/-Icons-/-Black-/-Inactive" mask="url(#mask-2)" fill="#000000" fill-opacity="0.54">
            <rect id="Rectangle" x="0" y="0" width="24" height="24"></rect>
        </g>
    </g>
</svg>