<?xml version="1.0" encoding="UTF-8"?>
<svg width="24px" height="24px" viewBox="0 0 24 24" version="1.1" xmlns="http://www.w3.org/2000/svg" xmlns:xlink="http://www.w3.org/1999/xlink">
    <!-- Generator: Sketch 50 (54983) - http://www.bohemiancoding.com/sketch -->
    <title>icon/navigation/refresh_24px_sharp</title>
    <desc>Created with Sketch.</desc>
    <defs>
        <path d="M17.645,6.35 C16.195,4.9 14.205,4 11.995,4 C7.575,4 4.005,7.58 4.005,12 C4.005,16.42 7.575,20 11.995,20 C15.725,20 18.835,17.45 19.725,14 L17.645,14 C16.825,16.33 14.605,18 11.995,18 C8.685,18 5.995,15.31 5.995,12 C5.995,8.69 8.685,6 11.995,6 C13.655,6 15.135,6.69 16.215,7.78 L12.995,11 L19.995,11 L19.995,4 L17.645,6.35 Z" id="path-1"></path>
    </defs>
    <g id="icon/navigation/refresh_24px" stroke="none" stroke-width="1" fill="none" fill-rule="evenodd">
        <mask id="mask-2" fill="white">
            <use xlink:href="#path-1"></use>
        </mask>
        <g fill-rule="nonzero"></g>
        <g id="✱-/-Color-/-Icons-/-Black-/-Inactive" mask="url(#mask-2)" fill="#000000" fill-opacity="0.54">
            <rect id="Rectangle" x="0" y="0" width="24" height="24"></rect>
        </g>
    </g>
</svg>