<?xml version="1.0" encoding="UTF-8"?>
<svg width="24px" height="24px" viewBox="0 0 24 24" version="1.1" xmlns="http://www.w3.org/2000/svg" xmlns:xlink="http://www.w3.org/1999/xlink">
    <!-- Generator: Sketch 50 (54983) - http://www.bohemiancoding.com/sketch -->
    <title>icon/notification/adb_24px_two_tone</title>
    <desc>Created with Sketch.</desc>
    <defs>
        <path d="M0,15 C0,18.87 3.13,22 7,22 C10.87,22 14,18.87 14,15 L14,11 L0,11 L0,15 Z M11.12,3.37 L13.22,1.27 L12.4,0.44 L10.1,2.75 C9.16,2.28 8.12,2 7,2 C5.88,2 4.84,2.28 3.91,2.75 L1.6,0.44 L0.78,1.27 L2.88,3.37 C1.14,4.64 0,6.68 0,9 L0,10 L14,10 L14,9 C14,6.68 12.86,4.64 11.12,3.37 Z M4,8 C3.45,8 3,7.55 3,7 C3,6.45 3.45,6 4,6 C4.55,6 5,6.45 5,7 C5,7.55 4.55,8 4,8 Z M10,8 C9.45,8 9,7.55 9,7 C9,6.45 9.45,6 10,6 C10.55,6 11,6.45 11,7 C11,7.55 10.55,8 10,8 Z" id="path-1"></path>
    </defs>
    <g id="icon/notification/adb_24px" stroke="none" stroke-width="1" fill="none" fill-rule="evenodd">
        <g id="↳-Dark-Color" transform="translate(5.000000, 1.000000)">
            <mask id="mask-2" fill="white">
                <use xlink:href="#path-1"></use>
            </mask>
            <g id="Mask" fill-rule="nonzero"></g>
            <g id="✱-/-Color-/-Icons-/-Black-/-Inactive" mask="url(#mask-2)" fill="#000000" fill-opacity="0.54">
                <rect id="Rectangle" x="0" y="0" width="101" height="101"></rect>
            </g>
        </g>
    </g>
</svg>