<?xml version="1.0" encoding="UTF-8"?>
<svg width="24px" height="24px" viewBox="0 0 24 24" version="1.1" xmlns="http://www.w3.org/2000/svg" xmlns:xlink="http://www.w3.org/1999/xlink">
    <!-- Generator: Sketch 50 (54983) - http://www.bohemiancoding.com/sketch -->
    <title>icon/notification/airline_seat_legroom_reduced_24px_two_tone</title>
    <desc>Created with Sketch.</desc>
    <defs>
        <path d="M16.97,16.2 C17.15,17.16 16.42,18 15.5,18 L11,18 L11,15 L12,11 L6,11 C4.35,11 3,9.65 3,8 L3,0 L9,0 L9,6 L14,6 C15.1,6 16,6.9 16,8 L14,15 L15.44,15 C16.17,15 16.83,15.49 16.97,16.2 Z M2,9 L2,0 L0,0 L0,9 C0,11.76 2.24,14 5,14 L9,14 L9,12 L5,12 C3.34,12 2,10.66 2,9 Z" id="path-1"></path>
    </defs>
    <g id="icon/notification/airline_seat_legroom_reduced_24px" stroke="none" stroke-width="1" fill="none" fill-rule="evenodd">
        <g id="↳-Dark-Color" transform="translate(3.000000, 3.000000)">
            <mask id="mask-2" fill="white">
                <use xlink:href="#path-1"></use>
            </mask>
            <g id="Mask" fill-rule="nonzero"></g>
            <g id="✱-/-Color-/-Icons-/-Black-/-Inactive" mask="url(#mask-2)" fill="#000000" fill-opacity="0.54">
                <rect id="Rectangle" x="0" y="0" width="101" height="101"></rect>
            </g>
        </g>
    </g>
</svg>