<?xml version="1.0" encoding="UTF-8"?>
<svg width="24px" height="24px" viewBox="0 0 24 24" version="1.1" xmlns="http://www.w3.org/2000/svg" xmlns:xlink="http://www.w3.org/1999/xlink">
    <!-- Generator: Sketch 50 (54983) - http://www.bohemiancoding.com/sketch -->
    <title>icon/notification/airline_seat_flat_24px_two_tone</title>
    <desc>Created with Sketch.</desc>
    <defs>
        <path d="M2,2 C2.27,2 2.52,1.89 2.71,1.7 C3.1,1.3 3.1,0.68 2.7,0.29 C2.51,0.11 2.26,0 2,0 C1.73,0 1.48,0.11 1.29,0.3 C0.9,0.7 0.9,1.32 1.3,1.71 C1.49,1.89 1.74,2 2,2 Z" id="path-1"></path>
        <path d="M7,0 L0,0 L0,2 L9,2 C9,0.9 8.1,0 7,0 Z" id="path-3"></path>
        <path d="M3,6 C3.78,6 4.55,5.7 5.14,5.1 C6.3,3.91 6.28,2.02 5.1,0.86 C4.51,0.29 3.75,0 3,0 C2.22,0 1.45,0.3 0.86,0.9 C-0.3,2.09 -0.28,3.98 0.9,5.14 C1.49,5.71 2.25,6 3,6 Z M2.29,2.3 C2.48,2.11 2.73,2 3,2 C3.26,2 3.51,2.1 3.7,2.28 C4.1,2.67 4.1,3.29 3.72,3.69 C3.52,3.89 3.27,4 3,4 C2.74,4 2.49,3.9 2.3,3.72 C1.9,3.32 1.9,2.7 2.29,2.3 Z" id="path-5"></path>
        <path d="M9,0 L0,0 L0,6 L13,6 L13,4 C13,1.79 11.21,0 9,0 Z M2,4 L2,2 L9,2 C10.1,2 11,2.9 11,4 L2,4 Z" id="path-7"></path>
        <polygon id="path-9" points="0 2 6 2 6 4 14 4 14 2 20 2 20 0 0 0"></polygon>
    </defs>
    <g id="icon/notification/airline_seat_flat_24px" stroke="none" stroke-width="1" fill="none" fill-rule="evenodd">
        <g id="↳-Light-Color" transform="translate(3.000000, 9.000000)">
            <mask id="mask-2" fill="white">
                <use xlink:href="#path-1"></use>
            </mask>
            <g id="Mask" opacity="0.3" fill-rule="nonzero"></g>
            <g id="✱-/-Color-/-Icons-/-Black-/-Disabled" mask="url(#mask-2)" fill="#000000" fill-opacity="0.38">
                <rect id="Rectangle" x="0" y="0" width="101" height="101"></rect>
            </g>
        </g>
        <g id="↳-Light-Color" transform="translate(11.000000, 9.000000)">
            <mask id="mask-4" fill="white">
                <use xlink:href="#path-3"></use>
            </mask>
            <g id="Mask" opacity="0.3" fill-rule="nonzero"></g>
            <g id="✱-/-Color-/-Icons-/-Black-/-Disabled" mask="url(#mask-4)" fill="#000000" fill-opacity="0.38">
                <rect id="Rectangle" x="0" y="0" width="101" height="101"></rect>
            </g>
        </g>
        <g id="↳-Dark-Color" transform="translate(2.000000, 7.000000)">
            <mask id="mask-6" fill="white">
                <use xlink:href="#path-5"></use>
            </mask>
            <g id="Mask" fill-rule="nonzero"></g>
            <g id="✱-/-Color-/-Icons-/-Black-/-Inactive" mask="url(#mask-6)" fill="#000000" fill-opacity="0.54">
                <rect id="Rectangle" x="0" y="0" width="101" height="101"></rect>
            </g>
        </g>
        <g id="↳-Dark-Color" transform="translate(9.000000, 7.000000)">
            <mask id="mask-8" fill="white">
                <use xlink:href="#path-7"></use>
            </mask>
            <g id="Mask" fill-rule="nonzero"></g>
            <g id="✱-/-Color-/-Icons-/-Black-/-Inactive" mask="url(#mask-8)" fill="#000000" fill-opacity="0.54">
                <rect id="Rectangle" x="0" y="0" width="101" height="101"></rect>
            </g>
        </g>
        <g id="↳-Dark-Color" transform="translate(2.000000, 14.000000)">
            <mask id="mask-10" fill="white">
                <use xlink:href="#path-9"></use>
            </mask>
            <g id="Mask" fill-rule="nonzero"></g>
            <g id="✱-/-Color-/-Icons-/-Black-/-Inactive" mask="url(#mask-10)" fill="#000000" fill-opacity="0.54">
                <rect id="Rectangle" x="0" y="0" width="101" height="101"></rect>
            </g>
        </g>
    </g>
</svg>