<?xml version="1.0" encoding="UTF-8"?>
<svg width="24px" height="24px" viewBox="0 0 24 24" version="1.1" xmlns="http://www.w3.org/2000/svg" xmlns:xlink="http://www.w3.org/1999/xlink">
    <!-- Generator: Sketch 50 (54983) - http://www.bohemiancoding.com/sketch -->
    <title>icon/notification/airline_seat_legroom_extra_24px_two_tone</title>
    <desc>Created with Sketch.</desc>
    <defs>
        <path d="M2,9 L2,0 L0,0 L0,9 C0,11.76 2.24,14 5,14 L11,14 L11,12 L5,12 C3.34,12 2,10.66 2,9 Z M20.83,14.24 C20.45,13.52 19.54,13.27 18.8,13.61 L17.71,14.11 L14.3,7.13 C13.96,6.45 13.27,6 12.51,6 L9,6 L9,0 L3,0 L3,8 C3,9.66 4.34,11 6,11 L13,11 L16.41,18 L20.13,16.3 C20.9,15.94 21.23,15 20.83,14.24 Z" id="path-1"></path>
    </defs>
    <g id="icon/notification/airline_seat_legroom_extra_24px" stroke="none" stroke-width="1" fill="none" fill-rule="evenodd">
        <g id="↳-Dark-Color" transform="translate(2.000000, 3.000000)">
            <mask id="mask-2" fill="white">
                <use xlink:href="#path-1"></use>
            </mask>
            <g id="Mask" fill-rule="nonzero"></g>
            <g id="✱-/-Color-/-Icons-/-Black-/-Inactive" mask="url(#mask-2)" fill="#000000" fill-opacity="0.54">
                <rect id="Rectangle" x="0" y="0" width="101" height="101"></rect>
            </g>
        </g>
    </g>
</svg>