<?xml version="1.0" encoding="UTF-8"?>
<svg width="24px" height="24px" viewBox="0 0 24 24" version="1.1" xmlns="http://www.w3.org/2000/svg" xmlns:xlink="http://www.w3.org/1999/xlink">
    <!-- Generator: Sketch 50 (54983) - http://www.bohemiancoding.com/sketch -->
    <title>icon/notification/do_disturb_alt_24px_two_tone</title>
    <desc>Created with Sketch.</desc>
    <defs>
        <path d="M10,0 C4.5,0 0,4.5 0,10 C0,15.5 4.5,20 10,20 C15.5,20 20,15.5 20,10 C20,4.5 15.5,0 10,0 Z M2,10 C2,5.6 5.6,2 10,2 C11.8,2 13.5,2.6 14.9,3.7 L3.7,14.9 C2.6,13.5 2,11.8 2,10 Z M10,18 C8.2,18 6.5,17.4 5.1,16.3 L16.3,5.1 C17.4,6.5 18,8.2 18,10 C18,14.4 14.4,18 10,18 Z" id="path-1"></path>
    </defs>
    <g id="icon/notification/do_disturb_alt_24px" stroke="none" stroke-width="1" fill="none" fill-rule="evenodd">
        <g id="↳-Dark-Color" transform="translate(2.000000, 2.000000)">
            <mask id="mask-2" fill="white">
                <use xlink:href="#path-1"></use>
            </mask>
            <g id="Mask" fill-rule="nonzero"></g>
            <g id="✱-/-Color-/-Icons-/-Black-/-Inactive" mask="url(#mask-2)" fill="#000000" fill-opacity="0.54">
                <rect id="Rectangle" x="0" y="0" width="101" height="101"></rect>
            </g>
        </g>
    </g>
</svg>