<?xml version="1.0" encoding="UTF-8"?>
<svg width="24px" height="24px" viewBox="0 0 24 24" version="1.1" xmlns="http://www.w3.org/2000/svg" xmlns:xlink="http://www.w3.org/1999/xlink">
    <!-- Generator: Sketch 50 (54983) - http://www.bohemiancoding.com/sketch -->
    <title>icon/notification/more_24px_two_tone</title>
    <desc>Created with Sketch.</desc>
    <defs>
        <path d="M5.06,0 L0.4,7 L5.07,14 L20,14 L20,0 L5.06,0 C5.07,0 5.07,0 5.06,0 Z M17,5.5 C17.83,5.5 18.5,6.17 18.5,7 C18.5,7.83 17.83,8.5 17,8.5 C16.17,8.5 15.5,7.83 15.5,7 C15.5,6.17 16.17,5.5 17,5.5 Z M12,5.5 C12.83,5.5 13.5,6.17 13.5,7 C13.5,7.83 12.83,8.5 12,8.5 C11.17,8.5 10.5,7.83 10.5,7 C10.5,6.17 11.17,5.5 12,5.5 Z M7,5.5 C7.83,5.5 8.5,6.17 8.5,7 C8.5,7.83 7.83,8.5 7,8.5 C6.17,8.5 5.5,7.83 5.5,7 C5.5,6.17 6.17,5.5 7,5.5 Z" id="path-1"></path>
        <path d="M22,0 L7,0 C6.31,0 5.77,0.35 5.41,0.88 L0,9 L5.41,17.11 C5.77,17.64 6.38,18 7.07,18 L22,18 C23.1,18 24,17.1 24,16 L24,2 C24,0.9 23.1,0 22,0 Z M22,16 L7.07,16 L2.4,9 L7.06,2 C7.06,2 7.06,2 7.06,2 L22,2 L22,16 Z" id="path-3"></path>
        <circle id="path-5" cx="2" cy="2" r="1.5"></circle>
        <circle id="path-7" cx="2" cy="2" r="1.5"></circle>
        <circle id="path-9" cx="2" cy="2" r="1.5"></circle>
    </defs>
    <g id="icon/notification/more_24px" stroke="none" stroke-width="1" fill="none" fill-rule="evenodd">
        <g id="↳-Light-Color" transform="translate(2.000000, 5.000000)">
            <mask id="mask-2" fill="white">
                <use xlink:href="#path-1"></use>
            </mask>
            <g id="Mask" opacity="0.3" fill-rule="nonzero"></g>
            <g id="✱-/-Color-/-Icons-/-Black-/-Disabled" mask="url(#mask-2)" fill="#000000" fill-opacity="0.38">
                <rect id="Rectangle" x="0" y="0" width="101" height="101"></rect>
            </g>
        </g>
        <g id="↳-Dark-Color" transform="translate(0.000000, 3.000000)">
            <mask id="mask-4" fill="white">
                <use xlink:href="#path-3"></use>
            </mask>
            <g id="Mask" fill-rule="nonzero"></g>
            <g id="✱-/-Color-/-Icons-/-Black-/-Inactive" mask="url(#mask-4)" fill="#000000" fill-opacity="0.54">
                <rect id="Rectangle" x="0" y="0" width="101" height="101"></rect>
            </g>
        </g>
        <g id="↳-Dark-Color" transform="translate(7.000000, 10.000000)">
            <mask id="mask-6" fill="white">
                <use xlink:href="#path-5"></use>
            </mask>
            <g id="Mask" fill-rule="nonzero"></g>
            <g id="✱-/-Color-/-Icons-/-Black-/-Inactive" mask="url(#mask-6)" fill="#000000" fill-opacity="0.54">
                <rect id="Rectangle" x="0" y="0" width="101" height="101"></rect>
            </g>
        </g>
        <g id="↳-Dark-Color" transform="translate(12.000000, 10.000000)">
            <mask id="mask-8" fill="white">
                <use xlink:href="#path-7"></use>
            </mask>
            <g id="Mask" fill-rule="nonzero"></g>
            <g id="✱-/-Color-/-Icons-/-Black-/-Inactive" mask="url(#mask-8)" fill="#000000" fill-opacity="0.54">
                <rect id="Rectangle" x="0" y="0" width="101" height="101"></rect>
            </g>
        </g>
        <g id="↳-Dark-Color" transform="translate(17.000000, 10.000000)">
            <mask id="mask-10" fill="white">
                <use xlink:href="#path-9"></use>
            </mask>
            <g id="Mask" fill-rule="nonzero"></g>
            <g id="✱-/-Color-/-Icons-/-Black-/-Inactive" mask="url(#mask-10)" fill="#000000" fill-opacity="0.54">
                <rect id="Rectangle" x="0" y="0" width="101" height="101"></rect>
            </g>
        </g>
    </g>
</svg>