<?xml version="1.0" encoding="UTF-8"?>
<svg width="24px" height="24px" viewBox="0 0 24 24" version="1.1" xmlns="http://www.w3.org/2000/svg" xmlns:xlink="http://www.w3.org/1999/xlink">
    <!-- Generator: Sketch 50 (54983) - http://www.bohemiancoding.com/sketch -->
    <title>icon/notification/network_locked_24px_two_tone</title>
    <desc>Created with Sketch.</desc>
    <defs>
        <path d="M6,3 L6,2.5 C6,1.12 4.88,0 3.5,0 C2.12,0 1,1.12 1,2.5 L1,3 C0.45,3 0,3.45 0,4 L0,8 C0,8.55 0.45,9 1,9 L6,9 C6.55,9 7,8.55 7,8 L7,4 C7,3.45 6.55,3 6,3 Z M5,3 L2,3 L2,2.5 C2,1.67 2.67,1 3.5,1 C4.33,1 5,1.67 5,2.5 L5,3 Z" id="path-1"></path>
        <path d="M17,4.83 L17,10.26 C17.47,10.1 17.97,10 18.5,10 C18.67,10 18.83,10.03 19,10.05 L19,0 L0,19 L13,19 L13,17 L4.83,17 L17,4.83 Z" id="path-3"></path>
    </defs>
    <g id="icon/notification/network_locked_24px" stroke="none" stroke-width="1" fill="none" fill-rule="evenodd">
        <g id="↳-Dark-Color" transform="translate(16.000000, 13.000000)">
            <mask id="mask-2" fill="white">
                <use xlink:href="#path-1"></use>
            </mask>
            <g id="Mask" fill-rule="nonzero"></g>
            <g id="✱-/-Color-/-Icons-/-Black-/-Inactive" mask="url(#mask-2)" fill="#000000" fill-opacity="0.54">
                <rect id="Rectangle" x="0" y="0" width="101" height="101"></rect>
            </g>
        </g>
        <g id="↳-Dark-Color" transform="translate(1.000000, 1.000000)">
            <mask id="mask-4" fill="white">
                <use xlink:href="#path-3"></use>
            </mask>
            <g id="Mask" fill-rule="nonzero"></g>
            <g id="✱-/-Color-/-Icons-/-Black-/-Inactive" mask="url(#mask-4)" fill="#000000" fill-opacity="0.54">
                <rect id="Rectangle" x="0" y="0" width="101" height="101"></rect>
            </g>
        </g>
    </g>
</svg>