<?xml version="1.0" encoding="UTF-8"?>
<svg width="24px" height="24px" viewBox="0 0 24 24" version="1.1" xmlns="http://www.w3.org/2000/svg" xmlns:xlink="http://www.w3.org/1999/xlink">
    <!-- Generator: Sketch 50 (54983) - http://www.bohemiancoding.com/sketch -->
    <title>icon/notification/phone_missed_24px_two_tone</title>
    <desc>Created with Sketch.</desc>
    <defs>
        <path d="M0.856,2.22 C1.4896,2.59 2.0848,3.01 2.6608,3.49 L3.688,2.42 C2.8144,1.67 1.864,1.03 0.856,0.52 L0.856,2.22 Z" id="path-1"></path>
        <path d="M1.3888,3.5 C1.9456,3.03 2.5504,2.61 3.184,2.23 L3.184,0.52 C2.176,1.03 1.2352,1.67 0.352,2.42 L1.3888,3.5 Z" id="path-3"></path>
        <path d="M22.7616,4.67 C19.8336,1.78 15.8784,0 11.52,0 C7.1616,0 3.2064,1.78 0.2784,4.67 C0.1056,4.85 0,5.1 0,5.38 C0,5.66 0.1056,5.91 0.2784,6.09 L2.6592,8.57 C2.832,8.75 3.072,8.86 3.3408,8.86 C3.6,8.86 3.84,8.75 4.0128,8.58 C4.7712,7.84 5.6352,7.22 6.5664,6.73 C6.8832,6.57 7.104,6.23 7.104,5.83 L7.104,2.73 C8.496,2.25 9.984,2 11.52,2 C13.056,2 14.544,2.25 15.936,2.72 L15.936,5.82 C15.936,6.21 16.1568,6.56 16.4736,6.72 C17.4144,7.21 18.2688,7.84 19.0368,8.57 C19.2096,8.75 19.4496,8.85 19.7088,8.85 C19.9776,8.85 20.2176,8.74 20.3904,8.56 L22.7712,6.08 C22.944,5.9 23.0496,5.65 23.0496,5.37 C23.0496,5.09 22.9344,4.85 22.7616,4.67 Z M5.184,5.23 C4.5504,5.6 3.9456,6.03 3.3888,6.5 L2.3616,5.43 C3.2352,4.68 4.1856,4.04 5.1936,3.53 L5.1936,5.23 L5.184,5.23 Z M19.6608,6.49 C19.0848,6.01 18.4896,5.59 17.856,5.22 L17.856,3.52 C18.864,4.03 19.8048,4.67 20.688,5.42 L19.6608,6.49 Z" id="path-5"></path>
        <polygon id="path-7" points="2.72 4.43 7.4624 9.37 14.2496 2.3 12.896 0.88 7.4624 6.54 4.064 3 6.56 3 6.56 1 0.8 1 0.8 7 2.72 7"></polygon>
    </defs>
    <g id="icon/notification/phone_missed_24px" stroke="none" stroke-width="1" fill="none" fill-rule="evenodd">
        <g id="↳-Light-Color" transform="translate(17.000000, 15.000000)">
            <mask id="mask-2" fill="white">
                <use xlink:href="#path-1"></use>
            </mask>
            <g id="Mask" opacity="0.3" fill-rule="nonzero"></g>
            <g id="✱-/-Color-/-Icons-/-Black-/-Disabled" mask="url(#mask-2)" fill="#000000" fill-opacity="0.38">
                <rect id="Rectangle" x="0" y="0" width="101" height="101"></rect>
            </g>
        </g>
        <g id="↳-Light-Color" transform="translate(2.000000, 15.000000)">
            <mask id="mask-4" fill="white">
                <use xlink:href="#path-3"></use>
            </mask>
            <g id="Mask" opacity="0.3" fill-rule="nonzero"></g>
            <g id="✱-/-Color-/-Icons-/-Black-/-Disabled" mask="url(#mask-4)" fill="#000000" fill-opacity="0.38">
                <rect id="Rectangle" x="0" y="0" width="101" height="101"></rect>
            </g>
        </g>
        <g id="↳-Dark-Color" transform="translate(0.000000, 12.000000)">
            <mask id="mask-6" fill="white">
                <use xlink:href="#path-5"></use>
            </mask>
            <g id="Mask" fill-rule="nonzero"></g>
            <g id="✱-/-Color-/-Icons-/-Black-/-Inactive" mask="url(#mask-6)" fill="#000000" fill-opacity="0.54">
                <rect id="Rectangle" x="0" y="0" width="101" height="101"></rect>
            </g>
        </g>
        <g id="↳-Dark-Color" transform="translate(4.000000, 2.000000)">
            <mask id="mask-8" fill="white">
                <use xlink:href="#path-7"></use>
            </mask>
            <g id="Mask" fill-rule="nonzero"></g>
            <g id="✱-/-Color-/-Icons-/-Black-/-Inactive" mask="url(#mask-8)" fill="#000000" fill-opacity="0.54">
                <rect id="Rectangle" x="0" y="0" width="101" height="101"></rect>
            </g>
        </g>
    </g>
</svg>