<?xml version="1.0" encoding="UTF-8"?>
<svg width="24px" height="24px" viewBox="0 0 24 24" version="1.1" xmlns="http://www.w3.org/2000/svg" xmlns:xlink="http://www.w3.org/1999/xlink">
    <!-- Generator: Sketch 50 (54983) - http://www.bohemiancoding.com/sketch -->
    <title>icon/notification/tap_and_play_24px_two_tone</title>
    <desc>Created with Sketch.</desc>
    <defs>
        <path d="M0,15 L0,17 C2.76,17 5,19.24 5,22 L7,22 C7,18.13 3.87,15 0,15 Z M0,19 L0,22 L3,22 C3,20.34 1.66,19 0,19 Z M0,11 L0,13 C4.97,13 9,17.03 9,22 L11,22 C11,15.92 6.08,11 0,11 Z M15,0.01 L5,0 C3.9,0 3,0.9 3,2 L3,9.37 C3.69,9.53 4.36,9.74 5,10.01 L5,4 L15,4 L15,17 L11.97,17 C12.49,18.25 12.81,19.59 12.92,21 L15,21 C16.1,21 17,20.1 17,19 L17,2 C17,0.9 16.1,0.01 15,0.01 Z" id="path-1"></path>
    </defs>
    <g id="icon/notification/tap_and_play_24px" stroke="none" stroke-width="1" fill="none" fill-rule="evenodd">
        <g id="↳-Dark-Color" transform="translate(2.000000, 1.000000)">
            <mask id="mask-2" fill="white">
                <use xlink:href="#path-1"></use>
            </mask>
            <g id="Mask" fill-rule="nonzero"></g>
            <g id="✱-/-Color-/-Icons-/-Black-/-Inactive" mask="url(#mask-2)" fill="#000000" fill-opacity="0.54">
                <rect id="Rectangle" x="0" y="0" width="101" height="101"></rect>
            </g>
        </g>
    </g>
</svg>