<?xml version="1.0" encoding="UTF-8"?>
<svg width="24px" height="24px" viewBox="0 0 24 24" version="1.1" xmlns="http://www.w3.org/2000/svg" xmlns:xlink="http://www.w3.org/1999/xlink">
    <!-- Generator: Sketch 50 (54983) - http://www.bohemiancoding.com/sketch -->
    <title>icon/notification/tv_off_24px_two_tone</title>
    <desc>Created with Sketch.</desc>
    <defs>
        <polygon id="path-1" points="0 12 13.46 12 1.46 0 0 0"></polygon>
        <polygon id="path-3" points="0.12 0 11 10.88 11 0"></polygon>
        <path d="M14,6 L14,16.88 L15.85,18.73 C15.94,18.5 16,18.26 16,18 L16,6 C16,4.89 15.11,4 14,4 L6.42,4 L9.71,0.7 L9,0 L5,4 L1,0 L0.3,0.7 L3.58,4 L1.12,4 L3.12,6 L14,6 Z" id="path-5"></path>
        <polygon id="path-7" points="0.46 2 1.72 0.73 0.46 1.99"></polygon>
        <path d="M1.41,0.13 L1.27,0.27 L0,1.54 L1.53,3.07 C0.65,3.28 0,4.06 0,5 L0,17 C0,18.1 0.9,19 2,19 L17.46,19 L19.45,20.99 L20.71,19.73 L20.86,19.58 L1.41,0.13 Z M2,17 L2,5 L3.46,5 L15.46,17 L2,17 Z" id="path-9"></path>
    </defs>
    <g id="icon/notification/tv_off_24px" stroke="none" stroke-width="1" fill="none" fill-rule="evenodd">
        <g id="↳-Light-Color" transform="translate(3.000000, 7.000000)">
            <mask id="mask-2" fill="white">
                <use xlink:href="#path-1"></use>
            </mask>
            <g id="Mask" opacity="0.3" fill-rule="nonzero"></g>
            <g id="✱-/-Color-/-Icons-/-Black-/-Disabled" mask="url(#mask-2)" fill="#000000" fill-opacity="0.38">
                <rect id="Rectangle" x="0" y="0" width="101" height="101"></rect>
            </g>
        </g>
        <g id="↳-Light-Color" transform="translate(10.000000, 7.000000)">
            <mask id="mask-4" fill="white">
                <use xlink:href="#path-3"></use>
            </mask>
            <g id="Mask" opacity="0.3" fill-rule="nonzero"></g>
            <g id="✱-/-Color-/-Icons-/-Black-/-Disabled" mask="url(#mask-4)" fill="#000000" fill-opacity="0.38">
                <rect id="Rectangle" x="0" y="0" width="101" height="101"></rect>
            </g>
        </g>
        <g id="↳-Dark-Color" transform="translate(7.000000, 1.000000)">
            <mask id="mask-6" fill="white">
                <use xlink:href="#path-5"></use>
            </mask>
            <g id="Mask" fill-rule="nonzero"></g>
            <g id="✱-/-Color-/-Icons-/-Black-/-Inactive" mask="url(#mask-6)" fill="#000000" fill-opacity="0.54">
                <rect id="Rectangle" x="0" y="0" width="101" height="101"></rect>
            </g>
        </g>
        <g id="↳-Dark-Color" transform="translate(20.000000, 21.000000)">
            <mask id="mask-8" fill="white">
                <use xlink:href="#path-7"></use>
            </mask>
            <g id="Mask" fill-rule="nonzero"></g>
            <g id="✱-/-Color-/-Icons-/-Black-/-Inactive" mask="url(#mask-8)" fill="#000000" fill-opacity="0.54">
                <rect id="Rectangle" x="0" y="0" width="101" height="101"></rect>
            </g>
        </g>
        <g id="↳-Dark-Color" transform="translate(1.000000, 2.000000)">
            <mask id="mask-10" fill="white">
                <use xlink:href="#path-9"></use>
            </mask>
            <g id="Mask" fill-rule="nonzero"></g>
            <g id="✱-/-Color-/-Icons-/-Black-/-Inactive" mask="url(#mask-10)" fill="#000000" fill-opacity="0.54">
                <rect id="Rectangle" x="0" y="0" width="101" height="101"></rect>
            </g>
        </g>
    </g>
</svg>