<?xml version="1.0" encoding="UTF-8"?>
<svg width="24px" height="24px" viewBox="0 0 24 24" version="1.1" xmlns="http://www.w3.org/2000/svg" xmlns:xlink="http://www.w3.org/1999/xlink">
    <!-- Generator: Sketch 50 (54983) - http://www.bohemiancoding.com/sketch -->
    <title>icon/notification/vpn_lock_24px_two_tone</title>
    <desc>Created with Sketch.</desc>
    <defs>
        <path d="M5,2 L3,2 L3,4 C3,4.55 2.55,5 2,5 L0,5 L0,7 L6,7 C6.55,7 7,7.45 7,8 L7,11 L8,11 C8.9,11 9.64,11.58 9.9,12.39 C11.2,10.97 12,9.08 12,7 C12,6.66 11.96,6.33 11.92,6 L10,6 C8.35,6 7,4.65 7,3 L7,0 C7,1.1 6.1,2 5,2 Z" id="path-1"></path>
        <path d="M5,6 L5,5 L0.21,0.21 C0.08,0.79 0,1.38 0,2 C0,6.08 3.05,9.44 7,9.93 L7,8 C5.9,8 5,7.1 5,6 Z" id="path-3"></path>
        <path d="M17.92,9 C17.96,9.33 18,9.66 18,10 C18,12.08 17.2,13.97 15.9,15.39 C15.64,14.58 14.9,14 14,14 L13,14 L13,11 C13,10.45 12.55,10 12,10 L6,10 L6,8 L8,8 C8.55,8 9,7.55 9,7 L9,5 L11,5 C12.1,5 13,4.1 13,3 L13,2 C13,1.52 13,0.93 13,0.46 C12.05,0.16 11.05,0 10,0 C4.48,0 0,4.48 0,10 C0,15.52 4.48,20 10,20 C15.52,20 20,15.52 20,10 C20,9.66 19.98,9.33 19.95,9 L17.92,9 Z M9,17.93 C5.05,17.44 2,14.08 2,10 C2,9.38 2.08,8.79 2.21,8.21 L7,13 L7,14 C7,15.1 7.9,16 9,16 L9,17.93 Z" id="path-5"></path>
        <path d="M6,3 L6,2.5 C6,1.12 4.88,0 3.5,0 C2.12,0 1,1.12 1,2.5 L1,3 C0.45,3 0,3.45 0,4 L0,8 C0,8.55 0.45,9 1,9 L6,9 C6.55,9 7,8.55 7,8 L7,4 C7,3.45 6.55,3 6,3 Z M5,3 L2,3 L2,2.5 C2,1.67 2.67,1 3.5,1 C4.33,1 5,1.67 5,2.5 L5,3 Z" id="path-7"></path>
    </defs>
    <g id="icon/notification/vpn_lock_24px" stroke="none" stroke-width="1" fill="none" fill-rule="evenodd">
        <g id="↳-Light-Color" transform="translate(7.000000, 6.000000)">
            <mask id="mask-2" fill="white">
                <use xlink:href="#path-1"></use>
            </mask>
            <g id="Mask" opacity="0.3" fill-rule="nonzero"></g>
            <g id="✱-/-Color-/-Icons-/-Black-/-Disabled" mask="url(#mask-2)" fill="#000000" fill-opacity="0.38">
                <rect id="Rectangle" x="0" y="0" width="101" height="101"></rect>
            </g>
        </g>
        <g id="↳-Light-Color" transform="translate(3.000000, 11.000000)">
            <mask id="mask-4" fill="white">
                <use xlink:href="#path-3"></use>
            </mask>
            <g id="Mask" opacity="0.3" fill-rule="nonzero"></g>
            <g id="✱-/-Color-/-Icons-/-Black-/-Disabled" mask="url(#mask-4)" fill="#000000" fill-opacity="0.38">
                <rect id="Rectangle" x="0" y="0" width="101" height="101"></rect>
            </g>
        </g>
        <g id="↳-Dark-Color" transform="translate(1.000000, 3.000000)">
            <mask id="mask-6" fill="white">
                <use xlink:href="#path-5"></use>
            </mask>
            <g id="Mask" fill-rule="nonzero"></g>
            <g id="✱-/-Color-/-Icons-/-Black-/-Inactive" mask="url(#mask-6)" fill="#000000" fill-opacity="0.54">
                <rect id="Rectangle" x="0" y="0" width="101" height="101"></rect>
            </g>
        </g>
        <g id="↳-Dark-Color" transform="translate(16.000000, 1.000000)">
            <mask id="mask-8" fill="white">
                <use xlink:href="#path-7"></use>
            </mask>
            <g id="Mask" fill-rule="nonzero"></g>
            <g id="✱-/-Color-/-Icons-/-Black-/-Inactive" mask="url(#mask-8)" fill="#000000" fill-opacity="0.54">
                <rect id="Rectangle" x="0" y="0" width="101" height="101"></rect>
            </g>
        </g>
    </g>
</svg>