<?xml version="1.0" encoding="UTF-8"?>
<svg width="24px" height="24px" viewBox="0 0 24 24" version="1.1" xmlns="http://www.w3.org/2000/svg" xmlns:xlink="http://www.w3.org/1999/xlink">
    <!-- Generator: Sketch 50 (54983) - http://www.bohemiancoding.com/sketch -->
    <title>icon/notification/wifi_off_24px_two_tone</title>
    <desc>Created with Sketch.</desc>
    <defs>
        <path d="M12,7 L14,5 C10.27,1.27 5.13,-0.15 0.3,0.69 L2.88,3.27 C6.18,3.25 9.49,4.49 12,7 Z" id="path-1"></path>
        <path d="M4,3 C2.92,1.92 1.64,1.15 0.28,0.67 L3.3,3.69 L4,3 Z" id="path-3"></path>
        <path d="M0,2 L3,5 L6,2 C4.35,0.34 1.66,0.34 0,2 Z" id="path-5"></path>
        <path d="M2.41,0.64 L1,2.05 L4.05,5.1 C2.59,5.83 1.22,6.79 0,8 L2,10 C3.23,8.77 4.65,7.84 6.17,7.22 L8.41,9.46 C6.79,9.89 5.27,10.74 4,12 L6,14 C7.35,12.65 9.11,11.96 10.89,11.94 L17.97,19.02 L19.38,17.61 L2.41,0.64 Z" id="path-7"></path>
    </defs>
    <g id="icon/notification/wifi_off_24px" stroke="none" stroke-width="1" fill="none" fill-rule="evenodd">
        <g id="↳-Dark-Color" transform="translate(9.000000, 4.000000)">
            <mask id="mask-2" fill="white">
                <use xlink:href="#path-1"></use>
            </mask>
            <g id="Mask" fill-rule="nonzero"></g>
            <g id="✱-/-Color-/-Icons-/-Black-/-Inactive" mask="url(#mask-2)" fill="#000000" fill-opacity="0.54">
                <rect id="Rectangle" x="0" y="0" width="101" height="101"></rect>
            </g>
        </g>
        <g id="↳-Dark-Color" transform="translate(15.000000, 10.000000)">
            <mask id="mask-4" fill="white">
                <use xlink:href="#path-3"></use>
            </mask>
            <g id="Mask" fill-rule="nonzero"></g>
            <g id="✱-/-Color-/-Icons-/-Black-/-Inactive" mask="url(#mask-4)" fill="#000000" fill-opacity="0.54">
                <rect id="Rectangle" x="0" y="0" width="101" height="101"></rect>
            </g>
        </g>
        <g id="↳-Dark-Color" transform="translate(9.000000, 15.000000)">
            <mask id="mask-6" fill="white">
                <use xlink:href="#path-5"></use>
            </mask>
            <g id="Mask" fill-rule="nonzero"></g>
            <g id="✱-/-Color-/-Icons-/-Black-/-Inactive" mask="url(#mask-6)" fill="#000000" fill-opacity="0.54">
                <rect id="Rectangle" x="0" y="0" width="101" height="101"></rect>
            </g>
        </g>
        <g id="↳-Dark-Color" transform="translate(1.000000, 1.000000)">
            <mask id="mask-8" fill="white">
                <use xlink:href="#path-7"></use>
            </mask>
            <g id="Mask" fill-rule="nonzero"></g>
            <g id="✱-/-Color-/-Icons-/-Black-/-Inactive" mask="url(#mask-8)" fill="#000000" fill-opacity="0.54">
                <rect id="Rectangle" x="0" y="0" width="101" height="101"></rect>
            </g>
        </g>
    </g>
</svg>