<?xml version="1.0" encoding="UTF-8"?>
<svg width="24px" height="24px" viewBox="0 0 24 24" version="1.1" xmlns="http://www.w3.org/2000/svg" xmlns:xlink="http://www.w3.org/1999/xlink">
    <!-- Generator: Sketch 50 (54983) - http://www.bohemiancoding.com/sketch -->
    <title>icon/image/add_a_photo_24px_rounded</title>
    <desc>Created with Sketch.</desc>
    <defs>
        <path d="M3.5,8.5 C3.5,9.05 3.95,9.5 4.5,9.5 C5.05,9.5 5.5,9.05 5.5,8.5 L5.5,6.5 L7.5,6.5 C8.05,6.5 8.5,6.05 8.5,5.5 C8.5,4.95 8.05,4.5 7.5,4.5 L5.5,4.5 L5.5,2.5 C5.5,1.95 5.05,1.5 4.5,1.5 C3.95,1.5 3.5,1.95 3.5,2.5 L3.5,4.5 L1.5,4.5 C0.95,4.5 0.5,4.95 0.5,5.5 C0.5,6.05 0.95,6.5 1.5,6.5 L3.5,6.5 L3.5,8.5 Z M13.5,11.5 C12.4282032,11.5 11.4378221,12.0717967 10.9019237,13 C10.3660253,13.9282032 10.3660253,15.0717968 10.9019237,16 C11.4378221,16.9282033 12.4282032,17.5 13.5,17.5 C14.5717968,17.5 15.5621779,16.9282033 16.0980763,16 C16.6339747,15.0717968 16.6339747,13.9282032 16.0980763,13 C15.5621779,12.0717967 14.5717968,11.5 13.5,11.5 Z M21.5,6.5 L18.33,6.5 L17.09,5.15 C16.72,4.74 16.18,4.5 15.62,4.5 L9.22,4.5 C9.39,4.8 9.5,5.13 9.5,5.5 C9.5,6.6 8.6,7.5 7.5,7.5 L6.5,7.5 L6.5,8.5 C6.5,9.6 5.6,10.5 4.5,10.5 C4.13,10.5 3.8,10.39 3.5,10.22 L3.5,20.5 C3.5,21.6 4.4,22.5 5.5,22.5 L21.5,22.5 C22.6,22.5 23.5,21.6 23.5,20.5 L23.5,8.5 C23.5,7.4 22.6,6.5 21.5,6.5 Z M13.5,19.5 C10.74,19.5 8.5,17.26 8.5,14.5 C8.5,11.74 10.74,9.5 13.5,9.5 C16.26,9.5 18.5,11.74 18.5,14.5 C18.5,17.26 16.26,19.5 13.5,19.5 Z" id="path-1"></path>
    </defs>
    <g id="icon/image/add_a_photo_24px" stroke="none" stroke-width="1" fill="none" fill-rule="evenodd">
        <mask id="mask-2" fill="white">
            <use xlink:href="#path-1"></use>
        </mask>
        <g fill-rule="nonzero"></g>
        <g id="✱-/-Color-/-Icons-/-Black-/-Inactive" mask="url(#mask-2)" fill="#000000" fill-opacity="0.54">
            <rect id="Rectangle" x="0" y="0" width="24" height="24"></rect>
        </g>
    </g>
</svg>