<?xml version="1.0" encoding="UTF-8"?>
<svg width="24px" height="24px" viewBox="0 0 24 24" version="1.1" xmlns="http://www.w3.org/2000/svg" xmlns:xlink="http://www.w3.org/1999/xlink">
    <!-- Generator: Sketch 50 (54983) - http://www.bohemiancoding.com/sketch -->
    <title>icon/image/brightness_7_24px_rounded</title>
    <desc>Created with Sketch.</desc>
    <defs>
        <path d="M20,8.6899928 L20,4.9999928 C20,4.4499928 19.55,3.9999928 19,3.9999928 L15.31,3.9999928 L12.71,1.3999928 C12.5231685,1.21274013 12.2695176,1.1075072 12.005,1.1075072 C11.7404824,1.1075072 11.4868315,1.21274013 11.3,1.3999928 L8.69,3.9999928 L5,3.9999928 C4.45,3.9999928 4,4.4499928 4,4.9999928 L4,8.6899928 L1.4,11.2899928 C1.01,11.6799928 1.01,12.3099928 1.4,12.6999928 L4,15.2999928 L4,18.9999928 C4,19.5499928 4.45,19.9999928 5,19.9999928 L8.69,19.9999928 L11.29,22.5999928 C11.68,22.9899928 12.31,22.9899928 12.7,22.5999928 L15.3,19.9999928 L19,19.9999928 C19.55,19.9999928 20,19.5499928 20,18.9999928 L20,15.3099928 L22.6,12.7099928 C22.99,12.3199928 22.99,11.6899928 22.6,11.2999928 L20,8.6899928 Z M12,17.9999928 C8.69,17.9999928 6,15.3099928 6,11.9999928 C6,8.6899928 8.69,5.9999928 12,5.9999928 C15.31,5.9999928 18,8.6899928 18,11.9999928 C18,15.3099928 15.31,17.9999928 12,17.9999928 Z M12,7.9999928 C9.79,7.9999928 8,9.7899928 8,11.9999928 C8,14.2099928 9.79,15.9999928 12,15.9999928 C14.21,15.9999928 16,14.2099928 16,11.9999928 C16,9.7899928 14.21,7.9999928 12,7.9999928 Z" id="path-1"></path>
    </defs>
    <g id="icon/image/brightness_7_24px" stroke="none" stroke-width="1" fill="none" fill-rule="evenodd">
        <mask id="mask-2" fill="white">
            <use xlink:href="#path-1"></use>
        </mask>
        <g fill-rule="nonzero"></g>
        <g id="✱-/-Color-/-Icons-/-Black-/-Inactive" mask="url(#mask-2)" fill="#000000" fill-opacity="0.54">
            <rect id="Rectangle" x="0" y="0" width="24" height="24"></rect>
        </g>
    </g>
</svg>