<?xml version="1.0" encoding="UTF-8"?>
<svg width="24px" height="24px" viewBox="0 0 24 24" version="1.1" xmlns="http://www.w3.org/2000/svg" xmlns:xlink="http://www.w3.org/1999/xlink">
    <!-- Generator: Sketch 50 (54983) - http://www.bohemiancoding.com/sketch -->
    <title>icon/image/camera_roll_24px_rounded</title>
    <desc>Created with Sketch.</desc>
    <defs>
        <path d="M14,5.5 C14,4.4 13.1,3.5 12,3.5 L11,3.5 L11,2.5 C11,1.95 10.55,1.5 10,1.5 L6,1.5 C5.45,1.5 5,1.95 5,2.5 L5,3.5 L4,3.5 C2.9,3.5 2,4.4 2,5.5 L2,20.5 C2,21.6 2.9,22.5 4,22.5 L12,22.5 C13.1,22.5 14,21.6 14,20.5 L20,20.5 C21.1,20.5 22,19.6 22,18.5 L22,7.5 C22,6.4 21.1,5.5 20,5.5 L14,5.5 Z M12,18.5 L10,18.5 L10,16.5 L12,16.5 L12,18.5 Z M12,9.5 L10,9.5 L10,7.5 L12,7.5 L12,9.5 Z M16,18.5 L14,18.5 L14,16.5 L16,16.5 L16,18.5 Z M16,9.5 L14,9.5 L14,7.5 L16,7.5 L16,9.5 Z M20,18.5 L18,18.5 L18,16.5 L20,16.5 L20,18.5 Z M20,9.5 L18,9.5 L18,7.5 L20,7.5 L20,9.5 Z" id="path-1"></path>
    </defs>
    <g id="icon/image/camera_roll_24px" stroke="none" stroke-width="1" fill="none" fill-rule="evenodd">
        <mask id="mask-2" fill="white">
            <use xlink:href="#path-1"></use>
        </mask>
        <g fill-rule="nonzero"></g>
        <g id="✱-/-Color-/-Icons-/-Black-/-Inactive" mask="url(#mask-2)" fill="#000000" fill-opacity="0.54">
            <rect id="Rectangle" x="0" y="0" width="24" height="24"></rect>
        </g>
    </g>
</svg>