<?xml version="1.0" encoding="UTF-8"?>
<svg width="24px" height="24px" viewBox="0 0 24 24" version="1.1" xmlns="http://www.w3.org/2000/svg" xmlns:xlink="http://www.w3.org/1999/xlink">
    <!-- Generator: Sketch 50 (54983) - http://www.bohemiancoding.com/sketch -->
    <title>icon/image/camera_24px_rounded</title>
    <desc>Created with Sketch.</desc>
    <defs>
        <path d="M13.8095788,2.855 C13.9795788,2.555 13.8095788,2.155 13.4595788,2.115 C10.8395788,1.745 8.15957881,2.395 6.01957881,3.975 C5.82957881,4.125 5.76957881,4.405 5.89957881,4.625 L8.90957881,9.845 C9.09957881,10.175 9.57957881,10.175 9.77957881,9.845 L13.8095788,2.855 Z M21.2995788,8.325 C20.3195788,5.855 18.3795788,3.865 15.9495788,2.825 C15.7195788,2.725 15.4495788,2.825 15.3195788,3.045 L12.3095788,8.255 C12.1195788,8.575 12.3595788,8.995 12.7495788,8.995 L20.8295788,8.995 C21.1795788,8.995 21.4295788,8.645 21.2995788,8.325 Z M21.3695788,9.995 L15.1695788,9.995 C14.7895788,9.995 14.5395788,10.415 14.7395788,10.745 L18.9995788,18.135 C19.1695788,18.435 19.5995788,18.485 19.8195788,18.215 C21.5595788,16.035 22.2995788,13.185 21.8695788,10.425 C21.8395788,10.175 21.6195788,9.995 21.3695788,9.995 Z M4.17957881,5.785 C2.44957881,7.975 1.69957881,10.805 2.12957881,13.575 C2.15957881,13.815 2.37957881,13.995 2.62957881,13.995 L8.82957881,13.995 C9.20957881,13.995 9.45957881,13.575 9.25957881,13.245 L4.99957881,5.865 C4.81957881,5.565 4.38957881,5.515 4.17957881,5.785 Z M2.69957881,15.665 C3.67957881,18.135 5.61957881,20.125 8.04957881,21.165 C8.27957881,21.265 8.54957881,21.165 8.67957881,20.945 L11.6895788,15.735 C11.8795788,15.405 11.6395788,14.985 11.2595788,14.985 L3.16957881,14.985 C2.81957881,14.995 2.56957881,15.345 2.69957881,15.665 Z M10.5295788,21.885 C13.1495788,22.255 15.8295788,21.605 17.9695788,20.025 C18.1695788,19.875 18.2295788,19.585 18.0995788,19.365 L15.0895788,14.145 C14.8995788,13.815 14.4195788,13.815 14.2195788,14.145 L10.1795788,21.135 C10.0095788,21.435 10.1895788,21.835 10.5295788,21.885 Z" id="path-1"></path>
    </defs>
    <g id="icon/image/camera_24px" stroke="none" stroke-width="1" fill="none" fill-rule="evenodd">
        <mask id="mask-2" fill="white">
            <use xlink:href="#path-1"></use>
        </mask>
        <g fill-rule="nonzero"></g>
        <g id="✱-/-Color-/-Icons-/-Black-/-Inactive" mask="url(#mask-2)" fill="#000000" fill-opacity="0.54">
            <rect id="Rectangle" x="0" y="0" width="24" height="24"></rect>
        </g>
    </g>
</svg>