<?xml version="1.0" encoding="UTF-8"?>
<svg width="24px" height="24px" viewBox="0 0 24 24" version="1.1" xmlns="http://www.w3.org/2000/svg" xmlns:xlink="http://www.w3.org/1999/xlink">
    <!-- Generator: Sketch 50 (54983) - http://www.bohemiancoding.com/sketch -->
    <title>icon/image/camera_front_24px_rounded</title>
    <desc>Created with Sketch.</desc>
    <defs>
        <path d="M17,0.354232794 L7,0.354232794 C5.9,0.354232794 5,1.25423279 5,2.35423279 L5,16.3542328 C5,17.4542328 5.9,18.3542328 7,18.3542328 L17,18.3542328 C18.1,18.3542328 19,17.4542328 19,16.3542328 L19,2.35423279 C19,1.25423279 18.1,0.354232794 17,0.354232794 Z M17,12.8542328 C17,11.1842328 13.67,10.3542328 12,10.3542328 C10.33,10.3542328 7,11.1842328 7,12.8542328 L7,3.35423279 C7,2.80423279 7.45,2.35423279 8,2.35423279 L16,2.35423279 C16.55,2.35423279 17,2.80423279 17,3.35423279 L17,12.8542328 Z M10.85,19.2042328 C10.54,18.8942328 10,19.1142328 10,19.5642328 L10,20.3542328 L6,20.3542328 C5.45,20.3542328 5,20.8042328 5,21.3542328 C5,21.9042328 5.45,22.3542328 6,22.3542328 L10,22.3542328 L10,23.1442328 C10,23.5942328 10.54,23.8142328 10.85,23.4942328 L12.64,21.7042328 C12.84,21.5042328 12.84,21.1942328 12.64,20.9942328 L10.85,19.2042328 Z M18,20.3542328 L15,20.3542328 C14.45,20.3542328 14,20.8042328 14,21.3542328 C14,21.9042328 14.45,22.3542328 15,22.3542328 L18,22.3542328 C18.55,22.3542328 19,21.9042328 19,21.3542328 C19,20.8042328 18.55,20.3542328 18,20.3542328 Z M12,8.35423279 C13.1,8.35423279 14,7.45423279 14,6.35423279 C14,5.25423279 13.1,4.35423279 12,4.35423279 C10.9,4.35423279 10.01,5.25423279 10.01,6.35423279 C10.01,7.45423279 10.9,8.35423279 12,8.35423279 Z" id="path-1"></path>
    </defs>
    <g id="icon/image/camera_front_24px" stroke="none" stroke-width="1" fill="none" fill-rule="evenodd">
        <mask id="mask-2" fill="white">
            <use xlink:href="#path-1"></use>
        </mask>
        <g fill-rule="nonzero"></g>
        <g id="✱-/-Color-/-Icons-/-Black-/-Inactive" mask="url(#mask-2)" fill="#000000" fill-opacity="0.54">
            <rect id="Rectangle" x="0" y="0" width="24" height="24"></rect>
        </g>
    </g>
</svg>