<?xml version="1.0" encoding="UTF-8"?>
<svg width="24px" height="24px" viewBox="0 0 24 24" version="1.1" xmlns="http://www.w3.org/2000/svg" xmlns:xlink="http://www.w3.org/1999/xlink">
    <!-- Generator: Sketch 50 (54983) - http://www.bohemiancoding.com/sketch -->
    <title>icon/image/colorize_24px_rounded</title>
    <desc>Created with Sketch.</desc>
    <defs>
        <path d="M20.7099766,5.6312428 L18.3699766,3.2912428 C18.183145,3.10399013 17.9294942,2.9987572 17.6649766,2.9987572 C17.4004589,2.9987572 17.1468081,3.10399013 16.9599766,3.2912428 L13.8399766,6.4112428 L12.6099766,5.2012428 C12.2199766,4.8112428 11.5899766,4.8212428 11.1999766,5.2012428 C10.8099766,5.5912428 10.8099766,6.2212428 11.1999766,6.6112428 L11.9199766,7.3312428 L3.14997656,16.1012428 C3.04997656,16.2012428 2.99997656,16.3212428 2.99997656,16.4612428 L2.99997656,20.5012428 C2.99997656,20.7812428 3.21997656,21.0012428 3.49997656,21.0012428 L7.53997656,21.0012428 C7.66997656,21.0012428 7.79997656,20.9512428 7.88997656,20.8512428 L16.6599766,12.0812428 L17.3799766,12.8012428 C17.7699766,13.1912428 18.3999766,13.1912428 18.7899766,12.8012428 C19.1799766,12.4112428 19.1799766,11.7812428 18.7899766,11.3912428 L17.5699766,10.1712428 L20.6899766,7.0512428 C21.0999766,6.6512428 21.0999766,6.0212428 20.7099766,5.6312428 Z M6.91997656,19.0012428 L4.99997656,17.0812428 L13.0599766,9.0212428 L14.9799766,10.9412428 L6.91997656,19.0012428 Z" id="path-1"></path>
    </defs>
    <g id="icon/image/colorize_24px" stroke="none" stroke-width="1" fill="none" fill-rule="evenodd">
        <mask id="mask-2" fill="white">
            <use xlink:href="#path-1"></use>
        </mask>
        <g fill-rule="nonzero"></g>
        <g id="✱-/-Color-/-Icons-/-Black-/-Inactive" mask="url(#mask-2)" fill="#000000" fill-opacity="0.54">
            <rect id="Rectangle" x="0" y="0" width="24" height="24"></rect>
        </g>
    </g>
</svg>