<?xml version="1.0" encoding="UTF-8"?>
<svg width="24px" height="24px" viewBox="0 0 24 24" version="1.1" xmlns="http://www.w3.org/2000/svg" xmlns:xlink="http://www.w3.org/1999/xlink">
    <!-- Generator: Sketch 50 (54983) - http://www.bohemiancoding.com/sketch -->
    <title>icon/image/control_point_24px_rounded</title>
    <desc>Created with Sketch.</desc>
    <defs>
        <path d="M12,7 C11.45,7 11,7.45 11,8 L11,11 L8,11 C7.45,11 7,11.45 7,12 C7,12.55 7.45,13 8,13 L11,13 L11,16 C11,16.55 11.45,17 12,17 C12.55,17 13,16.55 13,16 L13,13 L16,13 C16.55,13 17,12.55 17,12 C17,11.45 16.55,11 16,11 L13,11 L13,8 C13,7.45 12.55,7 12,7 Z M12,2 C6.49,2 2,6.49 2,12 C2,17.51 6.49,22 12,22 C17.51,22 22,17.51 22,12 C22,6.49 17.51,2 12,2 Z M12,20 C7.59,20 4,16.41 4,12 C4,7.59 7.59,4 12,4 C16.41,4 20,7.59 20,12 C20,16.41 16.41,20 12,20 Z" id="path-1"></path>
    </defs>
    <g id="icon/image/control_point_24px" stroke="none" stroke-width="1" fill="none" fill-rule="evenodd">
        <mask id="mask-2" fill="white">
            <use xlink:href="#path-1"></use>
        </mask>
        <g fill-rule="nonzero"></g>
        <g id="✱-/-Color-/-Icons-/-Black-/-Inactive" mask="url(#mask-2)" fill="#000000" fill-opacity="0.54">
            <rect id="Rectangle" x="0" y="0" width="24" height="24"></rect>
        </g>
    </g>
</svg>