<?xml version="1.0" encoding="UTF-8"?>
<svg width="24px" height="24px" viewBox="0 0 24 24" version="1.1" xmlns="http://www.w3.org/2000/svg" xmlns:xlink="http://www.w3.org/1999/xlink">
    <!-- Generator: Sketch 50 (54983) - http://www.bohemiancoding.com/sketch -->
    <title>icon/image/crop_portrait_24px_rounded</title>
    <desc>Created with Sketch.</desc>
    <defs>
        <path d="M17,3 L7,3 C5.9,3 5,3.9 5,5 L5,19 C5,20.1 5.9,21 7,21 L17,21 C18.1,21 19,20.1 19,19 L19,5 C19,3.9 18.1,3 17,3 Z M16,19 L8,19 C7.45,19 7,18.55 7,18 L7,6 C7,5.45 7.45,5 8,5 L16,5 C16.55,5 17,5.45 17,6 L17,18 C17,18.55 16.55,19 16,19 Z" id="path-1"></path>
    </defs>
    <g id="icon/image/crop_portrait_24px" stroke="none" stroke-width="1" fill="none" fill-rule="evenodd">
        <mask id="mask-2" fill="white">
            <use xlink:href="#path-1"></use>
        </mask>
        <g fill-rule="nonzero"></g>
        <g id="✱-/-Color-/-Icons-/-Black-/-Inactive" mask="url(#mask-2)" fill="#000000" fill-opacity="0.54">
            <rect id="Rectangle" x="0" y="0" width="24" height="24"></rect>
        </g>
    </g>
</svg>