<?xml version="1.0" encoding="UTF-8"?>
<svg width="24px" height="24px" viewBox="0 0 24 24" version="1.1" xmlns="http://www.w3.org/2000/svg" xmlns:xlink="http://www.w3.org/1999/xlink">
    <!-- Generator: Sketch 50 (54983) - http://www.bohemiancoding.com/sketch -->
    <title>icon/image/crop_7_5_24px_rounded</title>
    <desc>Created with Sketch.</desc>
    <defs>
        <path d="M19,7 L5,7 C3.9,7 3,7.9 3,9 L3,15 C3,16.1 3.9,17 5,17 L19,17 C20.1,17 21,16.1 21,15 L21,9 C21,7.9 20.1,7 19,7 Z M18,15 L6,15 C5.45,15 5,14.55 5,14 L5,10 C5,9.45 5.45,9 6,9 L18,9 C18.55,9 19,9.45 19,10 L19,14 C19,14.55 18.55,15 18,15 Z" id="path-1"></path>
    </defs>
    <g id="icon/image/crop_7_5_24px" stroke="none" stroke-width="1" fill="none" fill-rule="evenodd">
        <mask id="mask-2" fill="white">
            <use xlink:href="#path-1"></use>
        </mask>
        <g fill-rule="nonzero"></g>
        <g id="✱-/-Color-/-Icons-/-Black-/-Inactive" mask="url(#mask-2)" fill="#000000" fill-opacity="0.54">
            <rect id="Rectangle" x="0" y="0" width="24" height="24"></rect>
        </g>
    </g>
</svg>