<?xml version="1.0" encoding="UTF-8"?>
<svg width="24px" height="24px" viewBox="0 0 24 24" version="1.1" xmlns="http://www.w3.org/2000/svg" xmlns:xlink="http://www.w3.org/1999/xlink">
    <!-- Generator: Sketch 50 (54983) - http://www.bohemiancoding.com/sketch -->
    <title>icon/image/crop_rotate_24px_rounded</title>
    <desc>Created with Sketch.</desc>
    <defs>
        <path d="M16,8.9903011 L16,13.9898009 L18,13.9898009 L18,7.99040113 C18,6.89051117 17.1,5.9906012 16,5.9906012 L10,5.9906012 L10,7.99040113 L15,7.99040113 C15.55,7.99040113 16,8.44035612 16,8.9903011 Z M19,15.9896009 L9,15.9896009 C8.45,15.9896009 8,15.5396459 8,14.9897009 L8,4.99070123 C8,4.44075625 7.55,3.99080127 7,3.99080127 C6.45,3.99080127 6,4.44075625 6,4.99070123 L6,5.9906012 L5,5.9906012 C4.45,5.9906012 4,6.44055619 4,6.99050117 C4,7.54044615 4.45,7.99040113 5,7.99040113 L6,7.99040113 L6,15.9896009 C6,17.0894908 6.9,17.9894008 8,17.9894008 L16,17.9894008 L16,18.9893008 C16,19.5392457 16.45,19.9892007 17,19.9892007 C17.55,19.9892007 18,19.5392457 18,18.9893008 L18,17.9894008 L19,17.9894008 C19.55,17.9894008 20,17.5394458 20,16.9895008 C20,16.4395559 19.55,15.9896009 19,15.9896009 Z M17.66,1.39106135 C15.99,0.501150384 13.83,-0.118787595 11.39,0.0311973998 L15.2,3.84081627 L16.53,2.51094932 C19.62,3.97080327 21.87,6.88051217 22.42,10.3701631 C22.48,10.780122 22.86,11.060094 23.28,10.990101 C23.69,10.930107 23.97,10.540146 23.9,10.1301871 C23.3,6.33056719 20.94,3.1308873 17.66,1.39106135 Z M7.47,21.4790517 C4.38,20.0191977 2.13,17.1094888 1.58,13.6198379 C1.52,13.209879 1.14,12.929907 0.72,12.9999 C0.31,13.059894 0.03,13.449855 0.1,13.8598139 C0.7,17.6694328 3.06,20.8691127 6.34,22.6089386 C8.01,23.4988496 10.17,24.1187876 12.61,23.9688026 L8.8,20.1491847 L7.47,21.4790517 Z" id="path-1"></path>
    </defs>
    <g id="icon/image/crop_rotate_24px" stroke="none" stroke-width="1" fill="none" fill-rule="evenodd">
        <mask id="mask-2" fill="white">
            <use xlink:href="#path-1"></use>
        </mask>
        <g fill-rule="nonzero"></g>
        <g id="✱-/-Color-/-Icons-/-Black-/-Inactive" mask="url(#mask-2)" fill="#000000" fill-opacity="0.54">
            <rect id="Rectangle" x="0" y="0" width="24" height="24"></rect>
        </g>
    </g>
</svg>