<?xml version="1.0" encoding="UTF-8"?>
<svg width="24px" height="24px" viewBox="0 0 24 24" version="1.1" xmlns="http://www.w3.org/2000/svg" xmlns:xlink="http://www.w3.org/1999/xlink">
    <!-- Generator: Sketch 50 (54983) - http://www.bohemiancoding.com/sketch -->
    <title>icon/image/dehaze_24px_rounded</title>
    <desc>Created with Sketch.</desc>
    <defs>
        <path d="M2,17 C2,17.55 2.45,18 3,18 L21,18 C21.55,18 22,17.55 22,17 C22,16.45 21.55,16 21,16 L3,16 C2.45,16 2,16.45 2,17 Z M2,12 C2,12.55 2.45,13 3,13 L21,13 C21.55,13 22,12.55 22,12 C22,11.45 21.55,11 21,11 L3,11 C2.45,11 2,11.45 2,12 Z M2,7 C2,7.55 2.45,8 3,8 L21,8 C21.55,8 22,7.55 22,7 C22,6.45 21.55,6 21,6 L3,6 C2.45,6 2,6.45 2,7 Z" id="path-1"></path>
    </defs>
    <g id="icon/image/dehaze_24px" stroke="none" stroke-width="1" fill="none" fill-rule="evenodd">
        <mask id="mask-2" fill="white">
            <use xlink:href="#path-1"></use>
        </mask>
        <g fill-rule="nonzero"></g>
        <g id="✱-/-Color-/-Icons-/-Black-/-Inactive" mask="url(#mask-2)" fill="#000000" fill-opacity="0.54">
            <rect id="Rectangle" x="0" y="0" width="24" height="24"></rect>
        </g>
    </g>
</svg>