<?xml version="1.0" encoding="UTF-8"?>
<svg width="24px" height="24px" viewBox="0 0 24 24" version="1.1" xmlns="http://www.w3.org/2000/svg" xmlns:xlink="http://www.w3.org/1999/xlink">
    <!-- Generator: Sketch 50 (54983) - http://www.bohemiancoding.com/sketch -->
    <title>icon/image/edit_24px_rounded</title>
    <desc>Created with Sketch.</desc>
    <defs>
        <path d="M2.99875,17.4612428 L2.99875,20.5012428 C2.99875,20.7812428 3.21875,21.0012428 3.49875,21.0012428 L6.53875,21.0012428 C6.66875,21.0012428 6.79875,20.9512428 6.88875,20.8512428 L17.80875,9.9412428 L14.05875,6.1912428 L3.14875,17.1012428 C3.04875,17.2012428 2.99875,17.3212428 2.99875,17.4612428 Z M20.70875,7.0412428 C21.09875,6.6512428 21.09875,6.0212428 20.70875,5.6312428 L18.36875,3.2912428 C18.1819185,3.10399013 17.9282676,2.9987572 17.66375,2.9987572 C17.3992324,2.9987572 17.1455815,3.10399013 16.95875,3.2912428 L15.12875,5.1212428 L18.87875,8.8712428 L20.70875,7.0412428 Z" id="path-1"></path>
    </defs>
    <g id="icon/image/edit_24px" stroke="none" stroke-width="1" fill="none" fill-rule="evenodd">
        <mask id="mask-2" fill="white">
            <use xlink:href="#path-1"></use>
        </mask>
        <g fill-rule="nonzero"></g>
        <g id="✱-/-Color-/-Icons-/-Black-/-Inactive" mask="url(#mask-2)" fill="#000000" fill-opacity="0.54">
            <rect id="Rectangle" x="0" y="0" width="24" height="24"></rect>
        </g>
    </g>
</svg>