<?xml version="1.0" encoding="UTF-8"?>
<svg width="24px" height="24px" viewBox="0 0 24 24" version="1.1" xmlns="http://www.w3.org/2000/svg" xmlns:xlink="http://www.w3.org/1999/xlink">
    <!-- Generator: Sketch 50 (54983) - http://www.bohemiancoding.com/sketch -->
    <title>icon/image/exposure_zero_24px_rounded</title>
    <desc>Created with Sketch.</desc>
    <defs>
        <path d="M16.135,13 C16.135,14 16.035,14.85 15.835,15.55 C15.635,16.25 15.355,16.82 15.005,17.25 C14.645,17.69 14.215,18 13.705,18.2 C13.195,18.4 12.635,18.5 12.005,18.5 C11.385,18.5 10.825,18.4 10.315,18.2 C9.805,18 9.365,17.69 9.005,17.25 C8.645,16.81 8.355,16.24 8.155,15.55 C7.955,14.85 7.855,14 7.855,13 L7.855,10.96 C7.855,9.96 7.955,9.11 8.155,8.41 C8.355,7.71 8.635,7.15 8.995,6.72 C9.355,6.29 9.795,5.98 10.305,5.79 C10.805,5.6 11.375,5.5 11.995,5.5 C12.625,5.5 13.185,5.6 13.695,5.79 C14.205,5.98 14.645,6.29 15.005,6.72 C15.365,7.15 15.645,7.71 15.845,8.41 C16.045,9.11 16.145,9.95 16.145,10.96 L16.145,13 L16.135,13 Z M14.025,10.64 C14.025,10 13.975,9.46 13.895,9.02 C13.805,8.58 13.675,8.23 13.495,7.96 C13.325,7.69 13.105,7.5 12.855,7.38 C12.605,7.25 12.315,7.19 11.995,7.19 C11.675,7.19 11.385,7.25 11.135,7.37 C10.885,7.49 10.665,7.68 10.495,7.95 C10.325,8.22 10.185,8.57 10.095,9.01 C10.005,9.45 9.965,9.99 9.965,10.63 L9.965,13.3 C9.965,13.94 10.015,14.48 10.105,14.92 C10.195,15.37 10.335,15.73 10.505,16.01 C10.675,16.29 10.895,16.49 11.145,16.62 C11.395,16.75 11.685,16.81 12.015,16.81 C12.345,16.81 12.635,16.75 12.885,16.62 C13.135,16.49 13.345,16.29 13.515,16.01 C13.685,15.73 13.815,15.37 13.905,14.92 C13.995,14.47 14.035,13.93 14.035,13.3 L14.035,10.64 L14.025,10.64 Z" id="path-1"></path>
    </defs>
    <g id="icon/image/exposure_zero_24px" stroke="none" stroke-width="1" fill="none" fill-rule="evenodd">
        <mask id="mask-2" fill="white">
            <use xlink:href="#path-1"></use>
        </mask>
        <g fill-rule="nonzero"></g>
        <g id="✱-/-Color-/-Icons-/-Black-/-Inactive" mask="url(#mask-2)" fill="#000000" fill-opacity="0.54">
            <rect id="Rectangle" x="0" y="0" width="24" height="24"></rect>
        </g>
    </g>
</svg>