<?xml version="1.0" encoding="UTF-8"?>
<svg width="24px" height="24px" viewBox="0 0 24 24" version="1.1" xmlns="http://www.w3.org/2000/svg" xmlns:xlink="http://www.w3.org/1999/xlink">
    <!-- Generator: Sketch 50 (54983) - http://www.bohemiancoding.com/sketch -->
    <title>icon/image/exposure_neg_2_24px_rounded</title>
    <desc>Created with Sketch.</desc>
    <defs>
        <path d="M15.55,16.79 L18.41,13.72 C18.79,13.33 19.13,12.93 19.45,12.54 C19.77,12.15 20.04,11.76 20.27,11.37 C20.5,10.98 20.68,10.59 20.81,10.2 C20.94,9.81 21,9.41 21,9.02 C21,8.49 20.91,8 20.73,7.56 C20.55,7.12 20.29,6.75 19.95,6.45 C19.61,6.14 19.18,5.91 18.69,5.74 C18.18,5.58 17.61,5.5 16.97,5.5 C16.28,5.5 15.66,5.61 15.12,5.82 C14.58,6.03 14.12,6.33 13.76,6.7 C13.39,7.07 13.11,7.5 12.92,8 C12.74,8.47 12.65,8.97 12.64,9.5 L14.78,9.5 C14.79,9.19 14.83,8.9 14.91,8.63 C15,8.34 15.14,8.09 15.31,7.88 C15.49,7.67 15.72,7.51 15.99,7.39 C16.26,7.27 16.59,7.21 16.95,7.21 C17.26,7.21 17.53,7.26 17.76,7.36 C17.99,7.46 18.19,7.61 18.35,7.79 C18.51,7.97 18.63,8.19 18.72,8.44 C18.8,8.69 18.85,8.96 18.85,9.25 C18.85,9.47 18.82,9.68 18.77,9.9 C18.71,10.12 18.62,10.35 18.48,10.6 C18.34,10.85 18.16,11.13 17.92,11.43 C17.69,11.73 17.4,12.08 17.04,12.46 L12.87,17.01 L12.87,18.5 L21.5,18.5 L21.5,16.79 L15.55,16.79 Z M2.5,12.5 C2.5,13.05 2.95,13.5 3.5,13.5 L9.5,13.5 C10.05,13.5 10.5,13.05 10.5,12.5 C10.5,11.95 10.05,11.5 9.5,11.5 L3.5,11.5 C2.95,11.5 2.5,11.95 2.5,12.5 Z" id="path-1"></path>
    </defs>
    <g id="icon/image/exposure_neg_2_24px" stroke="none" stroke-width="1" fill="none" fill-rule="evenodd">
        <mask id="mask-2" fill="white">
            <use xlink:href="#path-1"></use>
        </mask>
        <g fill-rule="nonzero"></g>
        <g id="✱-/-Color-/-Icons-/-Black-/-Inactive" mask="url(#mask-2)" fill="#000000" fill-opacity="0.54">
            <rect id="Rectangle" x="0" y="0" width="24" height="24"></rect>
        </g>
    </g>
</svg>