<?xml version="1.0" encoding="UTF-8"?>
<svg width="24px" height="24px" viewBox="0 0 24 24" version="1.1" xmlns="http://www.w3.org/2000/svg" xmlns:xlink="http://www.w3.org/1999/xlink">
    <!-- Generator: Sketch 50 (54983) - http://www.bohemiancoding.com/sketch -->
    <title>icon/image/filter_5_24px_rounded</title>
    <desc>Created with Sketch.</desc>
    <defs>
        <path d="M21,1 L7,1 C5.9,1 5,1.9 5,3 L5,17 C5,18.1 5.9,19 7,19 L21,19 C22.1,19 23,18.1 23,17 L23,3 C23,1.9 22.1,1 21,1 Z M20,17 L8,17 C7.45,17 7,16.55 7,16 L7,4 C7,3.45 7.45,3 8,3 L20,3 C20.55,3 21,3.45 21,4 L21,16 C21,16.55 20.55,17 20,17 Z M2,5 C1.45,5 1,5.45 1,6 L1,21 C1,22.1 1.9,23 3,23 L18,23 C18.55,23 19,22.55 19,22 C19,21.45 18.55,21 18,21 L4,21 C3.45,21 3,20.55 3,20 L3,6 C3,5.45 2.55,5 2,5 Z M17,13 L17,11 C17,9.9 16.1,9 15,9 L13,9 L13,7 L16,7 C16.55,7 17,6.55 17,6 C17,5.45 16.55,5 16,5 L12,5 C11.45,5 11,5.45 11,6 L11,10 C11,10.55 11.45,11 12,11 L15,11 L15,13 L12,13 C11.45,13 11,13.45 11,14 C11,14.55 11.45,15 12,15 L15,15 C16.1,15 17,14.1 17,13 Z" id="path-1"></path>
    </defs>
    <g id="icon/image/filter_5_24px" stroke="none" stroke-width="1" fill="none" fill-rule="evenodd">
        <mask id="mask-2" fill="white">
            <use xlink:href="#path-1"></use>
        </mask>
        <g fill-rule="nonzero"></g>
        <g id="✱-/-Color-/-Icons-/-Black-/-Inactive" mask="url(#mask-2)" fill="#000000" fill-opacity="0.54">
            <rect id="Rectangle" x="0" y="0" width="24" height="24"></rect>
        </g>
    </g>
</svg>