<?xml version="1.0" encoding="UTF-8"?>
<svg width="24px" height="24px" viewBox="0 0 24 24" version="1.1" xmlns="http://www.w3.org/2000/svg" xmlns:xlink="http://www.w3.org/1999/xlink">
    <!-- Generator: Sketch 50 (54983) - http://www.bohemiancoding.com/sketch -->
    <title>icon/image/filter_frames_24px_rounded</title>
    <desc>Created with Sketch.</desc>
    <defs>
        <path d="M20,4.7912428 L16,4.7912428 L12.71,1.5012428 C12.5231685,1.31399013 12.2695176,1.2087572 12.005,1.2087572 C11.7404824,1.2087572 11.4868315,1.31399013 11.3,1.5012428 L8,4.7912428 L4,4.7912428 C2.9,4.7912428 2,5.6912428 2,6.7912428 L2,20.7912428 C2,21.8912428 2.9,22.7912428 4,22.7912428 L20,22.7912428 C21.1,22.7912428 22,21.8912428 22,20.7912428 L22,6.7912428 C22,5.6912428 21.1,4.7912428 20,4.7912428 Z M19,20.7912428 L5,20.7912428 C4.45,20.7912428 4,20.3412428 4,19.7912428 L4,7.7912428 C4,7.2412428 4.45,6.7912428 5,6.7912428 L8.52,6.7912428 L12.04,3.2912428 L15.52,6.7912428 L19,6.7912428 C19.55,6.7912428 20,7.2412428 20,7.7912428 L20,19.7912428 C20,20.3412428 19.55,20.7912428 19,20.7912428 Z M17,8.7912428 L7,8.7912428 C6.45,8.7912428 6,9.2412428 6,9.7912428 L6,17.7912428 C6,18.3412428 6.45,18.7912428 7,18.7912428 L17,18.7912428 C17.55,18.7912428 18,18.3412428 18,17.7912428 L18,9.7912428 C18,9.2412428 17.55,8.7912428 17,8.7912428 Z" id="path-1"></path>
    </defs>
    <g id="icon/image/filter_frames_24px" stroke="none" stroke-width="1" fill="none" fill-rule="evenodd">
        <mask id="mask-2" fill="white">
            <use xlink:href="#path-1"></use>
        </mask>
        <g fill-rule="nonzero"></g>
        <g id="✱-/-Color-/-Icons-/-Black-/-Inactive" mask="url(#mask-2)" fill="#000000" fill-opacity="0.54">
            <rect id="Rectangle" x="0" y="0" width="24" height="24"></rect>
        </g>
    </g>
</svg>