<?xml version="1.0" encoding="UTF-8"?>
<svg width="24px" height="24px" viewBox="0 0 24 24" version="1.1" xmlns="http://www.w3.org/2000/svg" xmlns:xlink="http://www.w3.org/1999/xlink">
    <!-- Generator: Sketch 50 (54983) - http://www.bohemiancoding.com/sketch -->
    <title>icon/image/filter_drama_24px_rounded</title>
    <desc>Created with Sketch.</desc>
    <defs>
        <path d="M19.35,10.04 C18.67,6.59 15.64,4 12,4 C9.11,4 6.61,5.64 5.36,8.04 C2.35,8.36 0,10.9 0,14 C0,17.31 2.69,20 6,20 L19,20 C21.76,20 24,17.76 24,15 C24,12.36 21.95,10.22 19.35,10.04 Z M19,18 L6.17,18 C4.08,18 2.22,16.47 2.02,14.39 C1.79,12.01 3.66,10 6,10 C7.92,10 9.53,11.36 9.91,13.17 C10.01,13.65 10.41,14 10.89,14 C11.5,14 12,13.45 11.88,12.85 C11.45,10.61 9.77,8.82 7.59,8.22 C8.69,6.76 10.48,5.85 12.48,6.02 C15.36,6.27 17.49,8.84 17.49,11.73 L17.49,12 L18.86,12 C20.31,12 21.65,12.97 21.93,14.4 C22.32,16.31 20.85,18 19,18 Z" id="path-1"></path>
    </defs>
    <g id="icon/image/filter_drama_24px" stroke="none" stroke-width="1" fill="none" fill-rule="evenodd">
        <mask id="mask-2" fill="white">
            <use xlink:href="#path-1"></use>
        </mask>
        <g fill-rule="nonzero"></g>
        <g id="✱-/-Color-/-Icons-/-Black-/-Inactive" mask="url(#mask-2)" fill="#000000" fill-opacity="0.54">
            <rect id="Rectangle" x="0" y="0" width="24" height="24"></rect>
        </g>
    </g>
</svg>