<?xml version="1.0" encoding="UTF-8"?>
<svg width="24px" height="24px" viewBox="0 0 24 24" version="1.1" xmlns="http://www.w3.org/2000/svg" xmlns:xlink="http://www.w3.org/1999/xlink">
    <!-- Generator: Sketch 50 (54983) - http://www.bohemiancoding.com/sketch -->
    <title>icon/image/filter_hdr_24px_rounded</title>
    <desc>Created with Sketch.</desc>
    <defs>
        <path d="M13.2,6.7375 L10.25,10.6675 L12.5,13.6675 C12.83,14.1075 12.74,14.7375 12.3,15.0675 C11.86,15.3975 11.23,15.3175 10.9,14.8675 C9.85,13.4675 8.59,11.7975 7.8,10.7275 C7.4,10.1975 6.6,10.1975 6.2,10.7275 L2.2,16.0575 C1.71,16.7275 2.18,17.6675 3,17.6675 L21,17.6675 C21.82,17.6675 22.29,16.7275 21.8,16.0675 L14.8,6.7375 C14.4,6.1975 13.6,6.1975 13.2,6.7375 Z" id="path-1"></path>
    </defs>
    <g id="icon/image/filter_hdr_24px" stroke="none" stroke-width="1" fill="none" fill-rule="evenodd">
        <mask id="mask-2" fill="white">
            <use xlink:href="#path-1"></use>
        </mask>
        <g fill-rule="nonzero"></g>
        <g id="✱-/-Color-/-Icons-/-Black-/-Inactive" mask="url(#mask-2)" fill="#000000" fill-opacity="0.54">
            <rect id="Rectangle" x="0" y="0" width="24" height="24"></rect>
        </g>
    </g>
</svg>