<?xml version="1.0" encoding="UTF-8"?>
<svg width="24px" height="24px" viewBox="0 0 24 24" version="1.1" xmlns="http://www.w3.org/2000/svg" xmlns:xlink="http://www.w3.org/1999/xlink">
    <!-- Generator: Sketch 50 (54983) - http://www.bohemiancoding.com/sketch -->
    <title>icon/image/flash_auto_24px_rounded</title>
    <desc>Created with Sketch.</desc>
    <defs>
        <path d="M2.58806911,3.17545155 L2.58806911,13.1754516 C2.58806911,13.7254516 3.03806911,14.1754516 3.58806911,14.1754516 L5.58806911,14.1754516 L5.58806911,21.3254516 C5.58806911,21.8354516 6.25806911,22.0154516 6.51806911,21.5754516 L11.7080691,12.6754516 C12.0980691,12.0054516 11.6180691,11.1754516 10.8480691,11.1754516 L8.58806911,11.1754516 L11.9680691,3.58545155 C12.2580691,2.91545155 11.7680691,2.17545155 11.0480691,2.17545155 L3.58806911,2.17545155 C3.03806911,2.17545155 2.58806911,2.62545155 2.58806911,3.17545155 Z M17.5880691,2.17545155 C16.9880691,2.17545155 16.4580691,2.55545155 16.2480691,3.11545155 L13.8080691,9.97545155 C13.6080691,10.5654516 14.0380691,11.1754516 14.6580691,11.1754516 C15.0380691,11.1754516 15.3780691,10.9354516 15.4980691,10.5754516 L15.9880691,9.17545155 L19.1880691,9.17545155 L19.6780691,10.5754516 C19.8080691,10.9354516 20.1380691,11.1754516 20.5180691,11.1754516 C21.1380691,11.1754516 21.5680691,10.5654516 21.3580691,9.98545155 L18.9180691,3.12545155 C18.7180691,2.55545155 18.1880691,2.17545155 17.5880691,2.17545155 Z M16.4380691,7.82545155 L17.5880691,4.17545155 L18.7380691,7.82545155 L16.4380691,7.82545155 Z" id="path-1"></path>
    </defs>
    <g id="icon/image/flash_auto_24px" stroke="none" stroke-width="1" fill="none" fill-rule="evenodd">
        <mask id="mask-2" fill="white">
            <use xlink:href="#path-1"></use>
        </mask>
        <g fill-rule="nonzero"></g>
        <g id="✱-/-Color-/-Icons-/-Black-/-Inactive" mask="url(#mask-2)" fill="#000000" fill-opacity="0.54">
            <rect id="Rectangle" x="0" y="0" width="24" height="24"></rect>
        </g>
    </g>
</svg>