<?xml version="1.0" encoding="UTF-8"?>
<svg width="24px" height="24px" viewBox="0 0 24 24" version="1.1" xmlns="http://www.w3.org/2000/svg" xmlns:xlink="http://www.w3.org/1999/xlink">
    <!-- Generator: Sketch 50 (54983) - http://www.bohemiancoding.com/sketch -->
    <title>icon/image/flash_off_24px_rounded</title>
    <desc>Created with Sketch.</desc>
    <defs>
        <path d="M17.5456191,12.1754516 C17.9356191,11.5054516 17.4556191,10.6754516 16.6856191,10.6754516 L14.8156191,10.6754516 L17.0956191,12.9554516 L17.5456191,12.1754516 Z M17.7056191,4.12545155 C18.0356191,3.45545155 17.5556191,2.67545155 16.8056191,2.67545155 L9.42561907,2.67545155 C8.87561907,2.67545155 8.42561907,3.12545155 8.42561907,3.67545155 L8.42561907,4.28545155 L14.5556191,10.4154516 L17.7056191,4.12545155 Z M19.8656191,18.5554516 L5.54561907,4.23545155 C5.35878754,4.04819888 5.10513671,3.94296595 4.84061907,3.94296595 C4.57610142,3.94296595 4.32245059,4.04819888 4.13561907,4.23545155 C3.74561907,4.62545155 3.74561907,5.25545155 4.13561907,5.64545155 L8.42561907,9.94545155 L8.42561907,12.6754516 C8.42561907,13.2254516 8.87561907,13.6754516 9.42561907,13.6754516 L11.4256191,13.6754516 L11.4256191,20.8254516 C11.4256191,21.3354516 12.0956191,21.5154516 12.3556191,21.0754516 L15.0056191,16.5254516 L18.4456191,19.9654516 C18.8356191,20.3554516 19.4656191,20.3554516 19.8556191,19.9654516 C20.2556191,19.5754516 20.2556191,18.9454516 19.8656191,18.5554516 Z" id="path-1"></path>
    </defs>
    <g id="icon/image/flash_off_24px" stroke="none" stroke-width="1" fill="none" fill-rule="evenodd">
        <mask id="mask-2" fill="white">
            <use xlink:href="#path-1"></use>
        </mask>
        <g fill-rule="nonzero"></g>
        <g id="✱-/-Color-/-Icons-/-Black-/-Inactive" mask="url(#mask-2)" fill="#000000" fill-opacity="0.54">
            <rect id="Rectangle" x="0" y="0" width="24" height="24"></rect>
        </g>
    </g>
</svg>