<?xml version="1.0" encoding="UTF-8"?>
<svg width="24px" height="24px" viewBox="0 0 24 24" version="1.1" xmlns="http://www.w3.org/2000/svg" xmlns:xlink="http://www.w3.org/1999/xlink">
    <!-- Generator: Sketch 50 (54983) - http://www.bohemiancoding.com/sketch -->
    <title>icon/image/flip_24px_rounded</title>
    <desc>Created with Sketch.</desc>
    <defs>
        <path d="M15,21 L17,21 L17,19 L15,19 L15,21 Z M19,9 L21,9 L21,7 L19,7 L19,9 Z M3,5 L3,19 C3,20.1 3.9,21 5,21 L8,21 C8.55,21 9,20.55 9,20 C9,19.45 8.55,19 8,19 L6,19 C5.45,19 5,18.55 5,18 L5,6 C5,5.45 5.45,5 6,5 L8,5 C8.55,5 9,4.55 9,4 C9,3.45 8.55,3 8,3 L5,3 C3.9,3 3,3.9 3,5 Z M19,3 L19,5 L21,5 C21,3.9 20.1,3 19,3 Z M12,23 C12.55,23 13,22.55 13,22 L13,2 C13,1.45 12.55,1 12,1 C11.45,1 11,1.45 11,2 L11,22 C11,22.55 11.45,23 12,23 Z M19,17 L21,17 L21,15 L19,15 L19,17 Z M15,5 L17,5 L17,3 L15,3 L15,5 Z M19,13 L21,13 L21,11 L19,11 L19,13 Z M19,21 C20.1,21 21,20.1 21,19 L19,19 L19,21 Z" id="path-1"></path>
    </defs>
    <g id="icon/image/flip_24px" stroke="none" stroke-width="1" fill="none" fill-rule="evenodd">
        <mask id="mask-2" fill="white">
            <use xlink:href="#path-1"></use>
        </mask>
        <g fill-rule="nonzero"></g>
        <g id="✱-/-Color-/-Icons-/-Black-/-Inactive" mask="url(#mask-2)" fill="#000000" fill-opacity="0.54">
            <rect id="Rectangle" x="0" y="0" width="24" height="24"></rect>
        </g>
    </g>
</svg>