<?xml version="1.0" encoding="UTF-8"?>
<svg width="24px" height="24px" viewBox="0 0 24 24" version="1.1" xmlns="http://www.w3.org/2000/svg" xmlns:xlink="http://www.w3.org/1999/xlink">
    <!-- Generator: Sketch 50 (54983) - http://www.bohemiancoding.com/sketch -->
    <title>icon/image/grid_off_24px_rounded</title>
    <desc>Created with Sketch.</desc>
    <defs>
        <path d="M8.565,3.4299928 L8.565,4.3199928 L10.565,6.3199928 L10.565,3.4299928 L14.565,3.4299928 L14.565,7.4299928 L11.675,7.4299928 L13.675,9.4299928 L14.565,9.4299928 L14.565,10.3199928 L16.565,12.3199928 L16.565,9.4299928 L20.565,9.4299928 L20.565,13.4299928 L17.675,13.4299928 L19.675,15.4299928 L20.565,15.4299928 L20.565,16.3199928 L22.565,18.3199928 L22.565,3.4299928 C22.565,2.3299928 21.665,1.4299928 20.565,1.4299928 L5.675,1.4299928 L7.675,3.4299928 L8.565,3.4299928 Z M16.565,3.4299928 L19.565,3.4299928 C20.115,3.4299928 20.565,3.8799928 20.565,4.4299928 L20.565,7.4299928 L16.565,7.4299928 L16.565,3.4299928 Z M22.725,21.3099928 L2.685,1.2699928 C2.49816847,1.08274013 2.24451764,0.977507197 1.98,0.977507197 C1.71548236,0.977507197 1.46183153,1.08274013 1.275,1.2699928 C0.885,1.6599928 0.885,2.2899928 1.275,2.6799928 L2.565,3.9799928 L2.565,19.4299928 C2.565,20.5299928 3.465,21.4299928 4.565,21.4299928 L20.015,21.4299928 L21.315,22.7299928 C21.705,23.1199928 22.335,23.1199928 22.725,22.7299928 C23.115,22.3399928 23.115,21.6999928 22.725,21.3099928 Z M10.565,11.9799928 L12.015,13.4299928 L10.565,13.4299928 L10.565,11.9799928 Z M4.565,5.9799928 L6.015,7.4299928 L4.565,7.4299928 L4.565,5.9799928 Z M8.565,19.4299928 L5.565,19.4299928 C5.015,19.4299928 4.565,18.9799928 4.565,18.4299928 L4.565,15.4299928 L8.565,15.4299928 L8.565,19.4299928 Z M8.565,13.4299928 L4.565,13.4299928 L4.565,9.4299928 L8.015,9.4299928 L8.565,9.9799928 L8.565,13.4299928 Z M14.565,19.4299928 L10.565,19.4299928 L10.565,15.4299928 L14.015,15.4299928 L14.565,15.9799928 L14.565,19.4299928 Z M16.565,19.4299928 L16.565,17.9799928 L18.015,19.4299928 L16.565,19.4299928 Z" id="path-1"></path>
    </defs>
    <g id="icon/image/grid_off_24px" stroke="none" stroke-width="1" fill="none" fill-rule="evenodd">
        <mask id="mask-2" fill="white">
            <use xlink:href="#path-1"></use>
        </mask>
        <g fill-rule="nonzero"></g>
        <g id="✱-/-Color-/-Icons-/-Black-/-Inactive" mask="url(#mask-2)" fill="#000000" fill-opacity="0.54">
            <rect id="Rectangle" x="0" y="0" width="24" height="24"></rect>
        </g>
    </g>
</svg>