<?xml version="1.0" encoding="UTF-8"?>
<svg width="24px" height="24px" viewBox="0 0 24 24" version="1.1" xmlns="http://www.w3.org/2000/svg" xmlns:xlink="http://www.w3.org/1999/xlink">
    <!-- Generator: Sketch 50 (54983) - http://www.bohemiancoding.com/sketch -->
    <title>icon/image/hdr_off_24px_rounded</title>
    <desc>Created with Sketch.</desc>
    <defs>
        <path d="M17.9993668,13.7 L17.9993668,12.45 L19.0993668,12.45 L19.8193668,14.04 C19.9293668,14.29 20.1793668,14.45 20.4493668,14.45 C20.9493668,14.45 21.2793668,13.94 21.0893668,13.49 L20.5993668,12.35 C21.0993668,12.05 21.4993668,11.55 21.4993668,10.95 L21.4993668,9.95 C21.4993668,9.12 20.8293668,8.45 19.9993668,8.45 L17.4993668,8.45 C16.9493668,8.45 16.4993668,8.9 16.4993668,9.45 L16.4993668,13.35 L17.5393668,14.39 C17.8093668,14.28 17.9993668,14.01 17.9993668,13.7 Z M17.9993668,9.95 L19.9993668,9.95 L19.9993668,10.95 L17.9993668,10.95 L17.9993668,9.95 Z M13.4993668,9.95 L13.4993668,10.35 L14.9993668,11.85 L14.9993668,9.95 C14.9993668,9.13 14.3193668,8.45 13.4993668,8.45 L11.5993668,8.45 L13.0993668,9.95 L13.4993668,9.95 Z M21.5293668,20.48 L3.52936678,2.48 C3.23936678,2.19 2.76936678,2.19 2.47936678,2.48 C2.18936678,2.77 2.18936678,3.24 2.47936678,3.53 L7.45936678,8.51 C7.18936678,8.62 6.99936678,8.89 6.99936678,9.2 L6.99936678,10.45 L4.99936678,10.45 L4.99936678,9.2 C4.99936678,8.79 4.65936678,8.45 4.24936678,8.45 C3.83936678,8.45 3.49936678,8.79 3.49936678,9.2 L3.49936678,13.7 C3.49936678,14.11 3.83936678,14.45 4.24936678,14.45 C4.65936678,14.45 4.99936678,14.11 4.99936678,13.7 L4.99936678,11.95 L6.99936678,11.95 L6.99936678,13.7 C6.99936678,14.11 7.33936678,14.45 7.74936678,14.45 C8.15936678,14.45 8.49936678,14.11 8.49936678,13.7 L8.49936678,9.55 L9.99936678,11.05 L9.99936678,13.95 C9.99936678,14.23 10.2193668,14.45 10.4993668,14.45 L12.9993668,14.45 C13.1193668,14.45 13.2393668,14.44 13.3593668,14.41 L20.4693668,21.52 C20.7593668,21.81 21.2293668,21.81 21.5193668,21.52 C21.8093668,21.24 21.8093668,20.77 21.5293668,20.48 Z" id="path-1"></path>
    </defs>
    <g id="icon/image/hdr_off_24px" stroke="none" stroke-width="1" fill="none" fill-rule="evenodd">
        <mask id="mask-2" fill="white">
            <use xlink:href="#path-1"></use>
        </mask>
        <g fill-rule="nonzero"></g>
        <g id="✱-/-Color-/-Icons-/-Black-/-Inactive" mask="url(#mask-2)" fill="#000000" fill-opacity="0.54">
            <rect id="Rectangle" x="0" y="0" width="24" height="24"></rect>
        </g>
    </g>
</svg>