<?xml version="1.0" encoding="UTF-8"?>
<svg width="24px" height="24px" viewBox="0 0 24 24" version="1.1" xmlns="http://www.w3.org/2000/svg" xmlns:xlink="http://www.w3.org/1999/xlink">
    <!-- Generator: Sketch 50 (54983) - http://www.bohemiancoding.com/sketch -->
    <title>icon/image/image_search_24px_rounded</title>
    <desc>Created with Sketch.</desc>
    <defs>
        <path d="M17.99875,14.9992369 L17.99875,18.9992369 C17.99875,19.5492369 17.54875,19.9992369 16.99875,19.9992369 L4.99875,19.9992369 C4.44875,19.9992369 3.99875,19.5492369 3.99875,18.9992369 L3.99875,6.99923688 C3.99875,6.44923688 4.44875,5.99923688 4.99875,5.99923688 L8.01875,5.99923688 C8.56875,5.99923688 9.01875,5.54923688 9.01875,4.99923688 C9.01875,4.44923688 8.56875,3.99923688 8.01875,3.99923688 L3.99875,3.99923688 C2.89875,3.99923688 1.99875,4.89923688 1.99875,5.99923688 L1.99875,19.9992369 C1.99875,21.0992369 2.89875,21.9992369 3.99875,21.9992369 L17.99875,21.9992369 C19.09875,21.9992369 19.99875,21.0992369 19.99875,19.9992369 L19.99875,14.9992369 C19.99875,14.4492369 19.54875,13.9992369 18.99875,13.9992369 C18.44875,13.9992369 17.99875,14.4492369 17.99875,14.9992369 Z M15.49875,17.9992369 L6.51875,17.9992369 C6.09875,17.9992369 5.86875,17.5192369 6.12875,17.1892369 L7.86875,14.9592369 C8.06875,14.7092369 8.44875,14.6992369 8.64875,14.9492369 L10.20875,16.8292369 L12.55875,13.8092369 C12.75875,13.5492369 13.15875,13.5492369 13.34875,13.8192369 L15.89875,17.2092369 C16.14875,17.5292369 15.90875,17.9992369 15.49875,17.9992369 Z M19.29875,8.88923688 C19.77875,8.11923688 20.04875,7.21923688 19.98875,6.22923688 C19.85875,4.07923688 18.14875,2.25923688 16.01875,2.02923688 C13.29875,1.72923688 10.99875,3.83923688 10.99875,6.49923688 C10.99875,8.98923688 13.00875,10.9992369 15.48875,10.9992369 C16.36875,10.9992369 17.18875,10.7392369 17.87875,10.2992369 L20.28875,12.7092369 C20.67875,13.0992369 21.31875,13.0992369 21.70875,12.7092369 C22.09875,12.3192369 22.09875,11.6792369 21.70875,11.2892369 L19.29875,8.88923688 Z M15.49875,8.99923688 C14.11875,8.99923688 12.99875,7.87923688 12.99875,6.49923688 C12.99875,5.11923688 14.11875,3.99923688 15.49875,3.99923688 C16.87875,3.99923688 17.99875,5.11923688 17.99875,6.49923688 C17.99875,7.87923688 16.87875,8.99923688 15.49875,8.99923688 Z" id="path-1"></path>
    </defs>
    <g id="icon/image/image_search_24px" stroke="none" stroke-width="1" fill="none" fill-rule="evenodd">
        <mask id="mask-2" fill="white">
            <use xlink:href="#path-1"></use>
        </mask>
        <g fill-rule="nonzero"></g>
        <g id="✱-/-Color-/-Icons-/-Black-/-Inactive" mask="url(#mask-2)" fill="#000000" fill-opacity="0.54">
            <rect id="Rectangle" x="0" y="0" width="24" height="24"></rect>
        </g>
    </g>
</svg>