<?xml version="1.0" encoding="UTF-8"?>
<svg width="24px" height="24px" viewBox="0 0 24 24" version="1.1" xmlns="http://www.w3.org/2000/svg" xmlns:xlink="http://www.w3.org/1999/xlink">
    <!-- Generator: Sketch 50 (54983) - http://www.bohemiancoding.com/sketch -->
    <title>icon/image/iso_24px_rounded</title>
    <desc>Created with Sketch.</desc>
    <defs>
        <path d="M19,3 L5,3 C3.9,3 3,3.9 3,5 L3,19 C3,20.1 3.9,21 5,21 L19,21 C20.1,21 21,20.1 21,19 L21,5 C21,3.9 20.1,3 19,3 Z M6.25,7.5 L7.5,7.5 L7.5,6.25 C7.5,5.84 7.84,5.5 8.25,5.5 C8.66,5.5 9,5.84 9,6.25 L9,7.5 L10.25,7.5 C10.66,7.5 11,7.84 11,8.25 C11,8.66 10.66,9 10.25,9 L9,9 L9,10.25 C9,10.66 8.66,11 8.25,11 C7.84,11 7.5,10.66 7.5,10.25 L7.5,9 L6.25,9 C5.84,9 5.5,8.66 5.5,8.25 C5.5,7.84 5.84,7.5 6.25,7.5 Z M18,19 L5,19 L19,5 L19,18 C19,18.55 18.55,19 18,19 Z M17,16.25 C17,15.84 16.66,15.5 16.25,15.5 L12.75,15.5 C12.34,15.5 12,15.84 12,16.25 C12,16.66 12.34,17 12.75,17 L16.25,17 C16.66,17 17,16.66 17,16.25 Z" id="path-1"></path>
    </defs>
    <g id="icon/image/iso_24px" stroke="none" stroke-width="1" fill="none" fill-rule="evenodd">
        <mask id="mask-2" fill="white">
            <use xlink:href="#path-1"></use>
        </mask>
        <g fill-rule="nonzero"></g>
        <g id="✱-/-Color-/-Icons-/-Black-/-Inactive" mask="url(#mask-2)" fill="#000000" fill-opacity="0.54">
            <rect id="Rectangle" x="0" y="0" width="24" height="24"></rect>
        </g>
    </g>
</svg>