<?xml version="1.0" encoding="UTF-8"?>
<svg width="24px" height="24px" viewBox="0 0 24 24" version="1.1" xmlns="http://www.w3.org/2000/svg" xmlns:xlink="http://www.w3.org/1999/xlink">
    <!-- Generator: Sketch 50 (54983) - http://www.bohemiancoding.com/sketch -->
    <title>icon/image/leak_remove_24px_rounded</title>
    <desc>Created with Sketch.</desc>
    <defs>
        <path d="M20.105,12.02 C20.605,11.97 20.985,11.54 20.985,11.03 C20.985,10.44 20.475,9.97 19.885,10.03 C18.385,10.18 16.985,10.64 15.725,11.33 L17.205,12.81 C18.105,12.4 19.075,12.12 20.105,12.02 Z M20.985,15.07 C20.985,14.46 20.445,13.98 19.845,14.07 C19.465,14.13 19.095,14.23 18.735,14.35 L20.355,15.97 C20.725,15.82 20.985,15.48 20.985,15.07 Z M13.955,4.12 C14.015,3.53 13.555,3.01 12.955,3.01 C12.455,3.01 12.015,3.38 11.965,3.88 C11.865,4.91 11.585,5.89 11.175,6.79 L12.655,8.27 C13.345,7.01 13.805,5.61 13.955,4.12 Z M9.915,4.14 C10.015,3.54 9.525,3 8.915,3 C8.505,3 8.165,3.26 8.015,3.62 L9.635,5.24 C9.765,4.89 9.855,4.52 9.915,4.14 Z M20.425,18.86 L5.105,3.54 C4.91816847,3.35274733 4.66451764,3.24751439 4.4,3.24751439 C4.13548236,3.24751439 3.88183153,3.35274733 3.695,3.54 C3.305,3.93 3.305,4.56 3.695,4.95 L5.845,7.1 C5.255,7.51 4.585,7.8 3.855,7.92 C3.375,8.02 3.015,8.42 3.015,8.92 C3.015,9.53 3.555,10.01 4.155,9.92 C5.325,9.73 6.385,9.24 7.285,8.55 L8.715,9.98 C7.375,11.08 5.715,11.8 3.905,11.97 C3.405,12.02 3.025,12.45 3.025,12.96 C3.025,13.55 3.535,14.02 4.125,13.96 C6.405,13.73 8.485,12.81 10.135,11.4 L12.615,13.88 C11.215,15.53 10.285,17.6 10.055,19.88 C9.995,20.47 10.455,20.99 11.055,20.99 C11.555,20.99 11.995,20.62 12.045,20.12 C12.225,18.3 12.945,16.64 14.035,15.3 L15.465,16.73 C14.775,17.63 14.285,18.69 14.095,19.86 C13.995,20.46 14.485,21 15.095,21 C15.585,21 15.995,20.64 16.075,20.15 C16.195,19.42 16.495,18.75 16.895,18.16 L19.025,20.29 C19.415,20.68 20.045,20.68 20.435,20.29 C20.815,19.88 20.815,19.25 20.425,18.86 Z" id="path-1"></path>
    </defs>
    <g id="icon/image/leak_remove_24px" stroke="none" stroke-width="1" fill="none" fill-rule="evenodd">
        <mask id="mask-2" fill="white">
            <use xlink:href="#path-1"></use>
        </mask>
        <g fill-rule="nonzero"></g>
        <g id="✱-/-Color-/-Icons-/-Black-/-Inactive" mask="url(#mask-2)" fill="#000000" fill-opacity="0.54">
            <rect id="Rectangle" x="0" y="0" width="24" height="24"></rect>
        </g>
    </g>
</svg>