<?xml version="1.0" encoding="UTF-8"?>
<svg width="24px" height="24px" viewBox="0 0 24 24" version="1.1" xmlns="http://www.w3.org/2000/svg" xmlns:xlink="http://www.w3.org/1999/xlink">
    <!-- Generator: Sketch 50 (54983) - http://www.bohemiancoding.com/sketch -->
    <title>icon/image/leak_add_24px_rounded</title>
    <desc>Created with Sketch.</desc>
    <defs>
        <path d="M11.04,20.99 C11.54,20.99 11.98,20.62 12.03,20.12 C12.44,15.85 15.84,12.45 20.11,12.04 C20.61,11.99 20.99,11.56 20.99,11.05 C20.99,10.46 20.48,9.99 19.89,10.05 C14.7,10.57 10.57,14.7 10.05,19.88 C9.99,20.47 10.45,20.99 11.04,20.99 Z M17.99,20.99 L20.99,20.99 L20.99,17.99 C19.33,17.99 17.99,19.33 17.99,20.99 Z M15.08,20.99 C15.57,20.99 15.98,20.63 16.06,20.14 C16.42,18.06 18.06,16.42 20.14,16.06 C20.63,15.98 20.99,15.57 20.99,15.08 C20.99,14.47 20.45,13.99 19.85,14.08 C16.89,14.56 14.56,16.89 14.08,19.85 C13.98,20.45 14.47,20.99 15.08,20.99 Z M12.96,3.01 C12.46,3.01 12.02,3.38 11.97,3.88 C11.56,8.15 8.16,11.55 3.89,11.96 C3.39,12.01 3.01,12.44 3.01,12.95 C3.01,13.54 3.52,14.01 4.11,13.95 C9.3,13.43 13.43,9.3 13.95,4.12 C14.02,3.54 13.56,3.01 12.96,3.01 Z M6.02,3.01 L3.02,3.01 L3.02,6.01 C4.68,6.01 6.02,4.67 6.02,3.01 Z M8.93,3.01 C8.44,3.01 8.03,3.37 7.95,3.86 C7.59,5.94 5.95,7.58 3.87,7.94 C3.38,8.03 3.02,8.43 3.02,8.93 C3.02,9.54 3.56,10.02 4.16,9.93 C7.12,9.45 9.45,7.12 9.93,4.16 C10.02,3.55 9.53,3.01 8.93,3.01 Z" id="path-1"></path>
    </defs>
    <g id="icon/image/leak_add_24px" stroke="none" stroke-width="1" fill="none" fill-rule="evenodd">
        <mask id="mask-2" fill="white">
            <use xlink:href="#path-1"></use>
        </mask>
        <g fill-rule="nonzero"></g>
        <g id="✱-/-Color-/-Icons-/-Black-/-Inactive" mask="url(#mask-2)" fill="#000000" fill-opacity="0.54">
            <rect id="Rectangle" x="0" y="0" width="24" height="24"></rect>
        </g>
    </g>
</svg>