<?xml version="1.0" encoding="UTF-8"?>
<svg width="24px" height="24px" viewBox="0 0 24 24" version="1.1" xmlns="http://www.w3.org/2000/svg" xmlns:xlink="http://www.w3.org/1999/xlink">
    <!-- Generator: Sketch 50 (54983) - http://www.bohemiancoding.com/sketch -->
    <title>icon/image/linked_camera_24px_rounded</title>
    <desc>Created with Sketch.</desc>
    <defs>
        <path d="M12,10.9775821 C10.9282032,10.977582 9.93782213,11.5493788 9.40192374,12.477582 C8.86602534,13.4057853 8.86602534,14.5493788 9.40192374,15.4775821 C9.93782213,16.4057853 10.9282032,16.9775821 12,16.9775821 C13.0717968,16.9775821 14.0621779,16.4057853 14.5980763,15.4775821 C15.1339747,14.5493788 15.1339747,13.4057853 14.5980763,12.477582 C14.0621779,11.5493788 13.0717968,10.977582 12,10.9775821 Z M16.6,3.34758207 C18.7,3.61758207 20.37,5.27758207 20.63,7.37758207 C20.67,7.71758207 20.95,7.97758207 21.29,7.97758207 C21.68,7.97758207 22,7.63758207 21.95,7.24758207 C21.62,4.52758207 19.45,2.35758207 16.73,2.02758207 C16.34,1.97758207 16,2.29758207 16,2.68758207 C16,3.02758207 16.26,3.30758207 16.6,3.34758207 Z M19.23,7.16758207 C18.9296937,5.97729302 18.000289,5.04788833 16.81,4.74758207 C16.4,4.64758207 16,4.96758207 16,5.39758207 C16,5.68758207 16.19,5.96758207 16.48,6.03758207 C17.2,6.21758207 17.77,6.77758207 17.94,7.49758207 C18.01,7.78758207 18.28,7.97758207 18.58,7.97758207 C19.01,7.97758207 19.33,7.57758207 19.23,7.16758207 Z M17,8.97758207 C17,7.87758207 16.1,6.97758207 15,6.97758207 L15,4.97758207 C15,4.42758207 14.55,3.97758207 14,3.97758207 L9.88,3.97758207 C9.32,3.97758207 8.78,4.21758207 8.4,4.62758207 L7.17,5.97758207 L4,5.97758207 C2.9,5.97758207 2,6.87758207 2,7.97758207 L2,19.9775821 C2,21.0775821 2.9,21.9775821 4,21.9775821 L20,21.9775821 C21.1,21.9775821 22,21.0775821 22,19.9775821 L22,10.9775821 C22,9.87758207 21.1,8.97758207 20,8.97758207 L17,8.97758207 Z M12,18.9775821 C9.24,18.9775821 7,16.7375821 7,13.9775821 C7,11.2175821 9.24,8.97758207 12,8.97758207 C14.76,8.97758207 17,11.2175821 17,13.9775821 C17,16.7375821 14.76,18.9775821 12,18.9775821 Z" id="path-1"></path>
    </defs>
    <g id="icon/image/linked_camera_24px" stroke="none" stroke-width="1" fill="none" fill-rule="evenodd">
        <mask id="mask-2" fill="white">
            <use xlink:href="#path-1"></use>
        </mask>
        <g fill-rule="nonzero"></g>
        <g id="✱-/-Color-/-Icons-/-Black-/-Inactive" mask="url(#mask-2)" fill="#000000" fill-opacity="0.54">
            <rect id="Rectangle" x="0" y="0" width="24" height="24"></rect>
        </g>
    </g>
</svg>