<?xml version="1.0" encoding="UTF-8"?>
<svg width="24px" height="24px" viewBox="0 0 24 24" version="1.1" xmlns="http://www.w3.org/2000/svg" xmlns:xlink="http://www.w3.org/1999/xlink">
    <!-- Generator: Sketch 50 (54983) - http://www.bohemiancoding.com/sketch -->
    <title>icon/image/looks_3_24px_rounded</title>
    <desc>Created with Sketch.</desc>
    <defs>
        <path d="M18.995,3 L5.005,3 C3.905,3 3.005,3.9 3.005,5 L3.005,19 C3.005,20.1 3.905,21 5.005,21 L18.995,21 C20.095,21 20.995,20.1 20.995,19 L20.995,5 C20.995,3.9 20.095,3 18.995,3 Z M15.005,10.5 C15.005,11.33 14.335,12 13.505,12 C14.335,12 15.005,12.67 15.005,13.5 L15.005,15 C15.005,16.11 14.105,17 13.005,17 L9.995,17 C9.445,17 8.995,16.55 8.995,16 C8.995,15.45 9.445,15 9.995,15 L13.005,15 L12.995,13 L11.995,13 C11.445,13 10.995,12.55 10.995,12 C10.995,11.45 11.445,11 11.995,11 L12.995,11 L13.005,9 L9.995,9 C9.445,9 9.005,8.55 9.005,8 C9.005,7.45 9.445,7 9.995,7 L13.005,7 C14.105,7 15.005,7.9 15.005,9 L15.005,10.5 Z" id="path-1"></path>
    </defs>
    <g id="icon/image/looks_3_24px" stroke="none" stroke-width="1" fill="none" fill-rule="evenodd">
        <mask id="mask-2" fill="white">
            <use xlink:href="#path-1"></use>
        </mask>
        <g fill-rule="nonzero"></g>
        <g id="✱-/-Color-/-Icons-/-Black-/-Inactive" mask="url(#mask-2)" fill="#000000" fill-opacity="0.54">
            <rect id="Rectangle" x="0" y="0" width="24" height="24"></rect>
        </g>
    </g>
</svg>