<?xml version="1.0" encoding="UTF-8"?>
<svg width="24px" height="24px" viewBox="0 0 24 24" version="1.1" xmlns="http://www.w3.org/2000/svg" xmlns:xlink="http://www.w3.org/1999/xlink">
    <!-- Generator: Sketch 50 (54983) - http://www.bohemiancoding.com/sketch -->
    <title>icon/image/movie_creation_24px_rounded</title>
    <desc>Created with Sketch.</desc>
    <defs>
        <path d="M18,4 L19.82,7.64 C19.9,7.8 19.78,8 19.6,8 L17.62,8 C17.24,8 16.89,7.79 16.73,7.45 L15,4 L13,4 L14.82,7.64 C14.9,7.8 14.78,8 14.6,8 L12.62,8 C12.24,8 11.89,7.79 11.73,7.45 L10,4 L8,4 L9.82,7.64 C9.9,7.8 9.78,8 9.6,8 L7.62,8 C7.24,8 6.89,7.79 6.72,7.45 L5,4 L4,4 C2.9,4 2,4.9 2,6 L2,18 C2,19.1 2.9,20 4,20 L20,20 C21.1,20 22,19.1 22,18 L22,5 C22,4.45 21.55,4 21,4 L18,4 Z" id="path-1"></path>
    </defs>
    <g id="icon/image/movie_creation_24px" stroke="none" stroke-width="1" fill="none" fill-rule="evenodd">
        <mask id="mask-2" fill="white">
            <use xlink:href="#path-1"></use>
        </mask>
        <g fill-rule="nonzero"></g>
        <g id="✱-/-Color-/-Icons-/-Black-/-Inactive" mask="url(#mask-2)" fill="#000000" fill-opacity="0.54">
            <rect id="Rectangle" x="0" y="0" width="24" height="24"></rect>
        </g>
    </g>
</svg>