<?xml version="1.0" encoding="UTF-8"?>
<svg width="24px" height="24px" viewBox="0 0 24 24" version="1.1" xmlns="http://www.w3.org/2000/svg" xmlns:xlink="http://www.w3.org/1999/xlink">
    <!-- Generator: Sketch 50 (54983) - http://www.bohemiancoding.com/sketch -->
    <title>icon/image/nature_people_24px_rounded</title>
    <desc>Created with Sketch.</desc>
    <defs>
        <path d="M4.415,7.91542157 C3.58657288,7.91542157 2.915,8.58699444 2.915,9.41542157 C2.915,10.2438487 3.58657288,10.9154216 4.415,10.9154216 C5.24342712,10.9154216 5.915,10.2438487 5.915,9.41542157 C5.915,8.58699444 5.24342712,7.91542157 4.415,7.91542157 Z M22.085,9.08542157 C22.085,5.17542157 18.895,2.02542157 14.975,2.08542157 C11.145,2.14542157 7.985,5.45542157 8.095,9.27542157 C8.185,12.6554216 10.675,15.4354216 13.925,15.9754216 L13.925,19.9154216 L5.915,19.9154216 L5.915,16.9154216 L6.415,16.9154216 C6.695,16.9154216 6.915,16.6954216 6.915,16.4154216 L6.915,12.9154216 C6.915,12.3654216 6.465,11.9154216 5.915,11.9154216 L2.915,11.9154216 C2.365,11.9154216 1.915,12.3654216 1.915,12.9154216 L1.915,16.4154216 C1.915,16.6954216 2.135,16.9154216 2.415,16.9154216 L2.915,16.9154216 L2.915,20.9154216 C2.915,21.4654216 3.365,21.9154216 3.915,21.9154216 L17.915,21.9154216 C18.465,21.9154216 18.915,21.4654216 18.915,20.9154216 C18.915,20.3654216 18.465,19.9154216 17.915,19.9154216 L15.915,19.9154216 L15.915,16.0354216 C19.385,15.6254216 22.085,12.6754216 22.085,9.08542157 Z" id="path-1"></path>
    </defs>
    <g id="icon/image/nature_people_24px" stroke="none" stroke-width="1" fill="none" fill-rule="evenodd">
        <mask id="mask-2" fill="white">
            <use xlink:href="#path-1"></use>
        </mask>
        <g fill-rule="nonzero"></g>
        <g id="✱-/-Color-/-Icons-/-Black-/-Inactive" mask="url(#mask-2)" fill="#000000" fill-opacity="0.54">
            <rect id="Rectangle" x="0" y="0" width="24" height="24"></rect>
        </g>
    </g>
</svg>