<?xml version="1.0" encoding="UTF-8"?>
<svg width="24px" height="24px" viewBox="0 0 24 24" version="1.1" xmlns="http://www.w3.org/2000/svg" xmlns:xlink="http://www.w3.org/1999/xlink">
    <!-- Generator: Sketch 50 (54983) - http://www.bohemiancoding.com/sketch -->
    <title>icon/image/photo_size_select_actual_24px_rounded</title>
    <desc>Created with Sketch.</desc>
    <defs>
        <path d="M21,3 L3,3 C2,3 1,4 1,5 L1,19 C1,20.1 1.9,21 3,21 L21,21 C22,21 23,20 23,19 L23,5 C23,4 22,3 21,3 Z M5.63,16.19 L8.12,12.99 C8.32,12.74 8.7,12.73 8.9,12.98 L11,15.51 L14.1,11.52 C14.3,11.26 14.7,11.26 14.9,11.53 L18.41,16.21 C18.66,16.54 18.42,17.01 18.01,17.01 L6.02,17.01 C5.61,17 5.37,16.52 5.63,16.19 Z" id="path-1"></path>
    </defs>
    <g id="icon/image/photo_size_select_actual_24px" stroke="none" stroke-width="1" fill="none" fill-rule="evenodd">
        <mask id="mask-2" fill="white">
            <use xlink:href="#path-1"></use>
        </mask>
        <g fill-rule="nonzero"></g>
        <g id="✱-/-Color-/-Icons-/-Black-/-Inactive" mask="url(#mask-2)" fill="#000000" fill-opacity="0.54">
            <rect id="Rectangle" x="0" y="0" width="24" height="24"></rect>
        </g>
    </g>
</svg>