<?xml version="1.0" encoding="UTF-8"?>
<svg width="24px" height="24px" viewBox="0 0 24 24" version="1.1" xmlns="http://www.w3.org/2000/svg" xmlns:xlink="http://www.w3.org/1999/xlink">
    <!-- Generator: Sketch 50 (54983) - http://www.bohemiancoding.com/sketch -->
    <title>icon/image/photo_24px_rounded</title>
    <desc>Created with Sketch.</desc>
    <defs>
        <path d="M21,19 L21,5 C21,3.9 20.1,3 19,3 L5,3 C3.9,3 3,3.9 3,5 L3,19 C3,20.1 3.9,21 5,21 L19,21 C20.1,21 21,20.1 21,19 Z M8.9,13.98 L11,16.51 L14.1,12.52 C14.3,12.26 14.7,12.26 14.9,12.53 L18.41,17.21 C18.66,17.54 18.42,18.01 18.01,18.01 L6.02,18.01 C5.6,18.01 5.37,17.53 5.63,17.2 L8.12,14 C8.31,13.74 8.69,13.73 8.9,13.98 Z" id="path-1"></path>
    </defs>
    <g id="icon/image/photo_24px" stroke="none" stroke-width="1" fill="none" fill-rule="evenodd">
        <mask id="mask-2" fill="white">
            <use xlink:href="#path-1"></use>
        </mask>
        <g fill-rule="nonzero"></g>
        <g id="✱-/-Color-/-Icons-/-Black-/-Inactive" mask="url(#mask-2)" fill="#000000" fill-opacity="0.54">
            <rect id="Rectangle" x="0" y="0" width="24" height="24"></rect>
        </g>
    </g>
</svg>