<?xml version="1.0" encoding="UTF-8"?>
<svg width="24px" height="24px" viewBox="0 0 24 24" version="1.1" xmlns="http://www.w3.org/2000/svg" xmlns:xlink="http://www.w3.org/1999/xlink">
    <!-- Generator: Sketch 50 (54983) - http://www.bohemiancoding.com/sketch -->
    <title>icon/image/photo_size_select_large_24px_rounded</title>
    <desc>Created with Sketch.</desc>
    <defs>
        <path d="M21,15 L23,15 L23,17 L21,17 L21,15 Z M21,11 L23,11 L23,13 L21,13 L21,11 Z M23,19 L21,19 L21,21 C22,21 23,20 23,19 Z M13,3 L15,3 L15,5 L13,5 L13,3 Z M21,7 L23,7 L23,9 L21,9 L21,7 Z M21,3 L21,5 L23,5 C23,4 22,3 21,3 Z M1,7 L3,7 L3,9 L1,9 L1,7 Z M17,3 L19,3 L19,5 L17,5 L17,3 Z M17,19 L19,19 L19,21 L17,21 L17,19 Z M3,3 C2,3 1,4 1,5 L3,5 L3,3 Z M9,3 L11,3 L11,5 L9,5 L9,3 Z M5,3 L7,3 L7,5 L5,5 L5,3 Z M1,11 L1,19 C1,20.1 1.9,21 3,21 L15,21 L15,13 C15,11.9 14.1,11 13,11 L1,11 Z M3.63,18.19 L5.12,16.28 C5.32,16.03 5.69,16.02 5.9,16.27 L7.29,17.94 L9.39,15.24 C9.59,14.98 9.99,14.98 10.18,15.25 L12.4,18.21 C12.65,18.54 12.41,19.01 12,19.01 L4.02,19.01 C3.61,19 3.37,18.52 3.63,18.19 Z" id="path-1"></path>
    </defs>
    <g id="icon/image/photo_size_select_large_24px" stroke="none" stroke-width="1" fill="none" fill-rule="evenodd">
        <mask id="mask-2" fill="white">
            <use xlink:href="#path-1"></use>
        </mask>
        <g fill-rule="nonzero"></g>
        <g id="✱-/-Color-/-Icons-/-Black-/-Inactive" mask="url(#mask-2)" fill="#000000" fill-opacity="0.54">
            <rect id="Rectangle" x="0" y="0" width="24" height="24"></rect>
        </g>
    </g>
</svg>