<?xml version="1.0" encoding="UTF-8"?>
<svg width="24px" height="24px" viewBox="0 0 24 24" version="1.1" xmlns="http://www.w3.org/2000/svg" xmlns:xlink="http://www.w3.org/1999/xlink">
    <!-- Generator: Sketch 50 (54983) - http://www.bohemiancoding.com/sketch -->
    <title>icon/image/photo_filter_24px_rounded</title>
    <desc>Created with Sketch.</desc>
    <defs>
        <path d="M19.01,10.99 L19.01,18 C19.01,18.55 18.56,19 18.01,19 L5.99,19 C5.44,19 4.99,18.55 4.99,18 L4.99,6 C4.99,5.45 5.44,5 5.99,5 L12.99,5 C13.54,5 13.99,4.55 13.99,4 C13.99,3.45 13.54,3 12.99,3 L5.01,3 C3.91,3 3.01,3.9 3.01,5 L3.01,19 C3.01,20.1 3.91,21 5.01,21 L18.99,21 C20.09,21 20.99,20.11 20.99,19 L20.99,10.99 C20.99,10.44 20.55,10 20,10 C19.45,10 19.01,10.44 19.01,10.99 Z M13.24,10.75 L12.45,9 C12.27,8.61 11.72,8.61 11.54,9 L10.75,10.75 L8.99,11.54 C8.6,11.72 8.6,12.27 8.99,12.45 L10.74,13.24 L11.53,15 C11.71,15.39 12.26,15.39 12.44,15 L13.23,13.25 L14.99,12.46 C15.38,12.28 15.38,11.73 14.99,11.55 L13.24,10.75 Z M17.93,6.06 L17.33,4.74 C17.2,4.45 16.78,4.45 16.64,4.74 L16.04,6.06 L14.72,6.66 C14.43,6.79 14.43,7.21 14.72,7.35 L16.04,7.95 L16.64,9.27 C16.77,9.56 17.19,9.56 17.33,9.27 L17.93,7.95 L19.25,7.35 C19.54,7.22 19.54,6.8 19.25,6.66 L17.93,6.06 Z" id="path-1"></path>
    </defs>
    <g id="icon/image/photo_filter_24px" stroke="none" stroke-width="1" fill="none" fill-rule="evenodd">
        <mask id="mask-2" fill="white">
            <use xlink:href="#path-1"></use>
        </mask>
        <g fill-rule="nonzero"></g>
        <g id="✱-/-Color-/-Icons-/-Black-/-Inactive" mask="url(#mask-2)" fill="#000000" fill-opacity="0.54">
            <rect id="Rectangle" x="0" y="0" width="24" height="24"></rect>
        </g>
    </g>
</svg>