<?xml version="1.0" encoding="UTF-8"?>
<svg width="24px" height="24px" viewBox="0 0 24 24" version="1.1" xmlns="http://www.w3.org/2000/svg" xmlns:xlink="http://www.w3.org/1999/xlink">
    <!-- Generator: Sketch 50 (54983) - http://www.bohemiancoding.com/sketch -->
    <title>icon/image/portrait_24px_rounded</title>
    <desc>Created with Sketch.</desc>
    <defs>
        <path d="M12,12.25 C13.24,12.25 14.25,11.24 14.25,10 C14.25,8.76 13.24,7.75 12,7.75 C10.76,7.75 9.75,8.76 9.75,10 C9.75,11.24 10.76,12.25 12,12.25 Z M16.5,16.25 C16.5,14.75 13.5,14 12,14 C10.5,14 7.5,14.75 7.5,16.25 L7.5,17 L16.5,17 L16.5,16.25 Z M19,3 L5,3 C3.9,3 3,3.9 3,5 L3,19 C3,20.1 3.9,21 5,21 L19,21 C20.1,21 21,20.1 21,19 L21,5 C21,3.9 20.1,3 19,3 Z M18,19 L6,19 C5.45,19 5,18.55 5,18 L5,6 C5,5.45 5.45,5 6,5 L18,5 C18.55,5 19,5.45 19,6 L19,18 C19,18.55 18.55,19 18,19 Z" id="path-1"></path>
    </defs>
    <g id="icon/image/portrait_24px" stroke="none" stroke-width="1" fill="none" fill-rule="evenodd">
        <mask id="mask-2" fill="white">
            <use xlink:href="#path-1"></use>
        </mask>
        <g fill-rule="nonzero"></g>
        <g id="✱-/-Color-/-Icons-/-Black-/-Inactive" mask="url(#mask-2)" fill="#000000" fill-opacity="0.54">
            <rect id="Rectangle" x="0" y="0" width="24" height="24"></rect>
        </g>
    </g>
</svg>