<?xml version="1.0" encoding="UTF-8"?>
<svg width="24px" height="24px" viewBox="0 0 24 24" version="1.1" xmlns="http://www.w3.org/2000/svg" xmlns:xlink="http://www.w3.org/1999/xlink">
    <!-- Generator: Sketch 50 (54983) - http://www.bohemiancoding.com/sketch -->
    <title>icon/image/rotate_left_24px_rounded</title>
    <desc>Created with Sketch.</desc>
    <defs>
        <path d="M6.41538822,8.91845692 C5.95538822,8.45845692 5.16538822,8.53845692 4.85538822,9.10845692 C4.57538822,9.61845692 4.35538822,10.1384569 4.18538822,10.6884569 C3.99538822,11.3184569 4.49538822,11.9384569 5.14538822,11.9384569 L5.15538822,11.9384569 C5.58538822,11.9384569 5.97538822,11.6584569 6.09538822,11.2384569 C6.21538822,10.8384569 6.37538822,10.4484569 6.57538822,10.0684569 C6.79538822,9.69845692 6.72538822,9.22845692 6.41538822,8.91845692 Z M5.16538822,13.9384569 L5.14538822,13.9384569 C4.49538822,13.9384569 3.99538822,14.5584569 4.18538822,15.1884569 C4.34538822,15.7284569 4.56538822,16.2584569 4.84538822,16.7684569 C5.15538822,17.3384569 5.95538822,17.4284569 6.41538822,16.9684569 C6.71538822,16.6584569 6.79538822,16.1984569 6.58538822,15.8184569 C6.38538822,15.4484569 6.22538822,15.0584569 6.10538822,14.6584569 C5.98538822,14.2184569 5.59538822,13.9384569 5.16538822,13.9384569 Z M8.01538822,19.9584569 C8.52538822,20.2384569 9.05538822,20.4584569 9.60538822,20.6184569 C10.2253882,20.7984569 10.8453882,20.2984569 10.8453882,19.6584569 L10.8453882,19.6284569 C10.8453882,19.1984569 10.5653882,18.8084569 10.1453882,18.6884569 C9.74538822,18.5684569 9.36538822,18.4084569 8.99538822,18.2084569 C8.61538822,17.9984569 8.13538822,18.0684569 7.83538822,18.3784569 L7.80538822,18.4084569 C7.35538822,18.8584569 7.44538822,19.6484569 8.01538822,19.9584569 Z M12.8553882,5.00845692 L12.8553882,4.34845692 C12.8553882,3.45845692 11.7753882,3.00845692 11.1453882,3.63845692 L9.02538822,5.76845692 C8.62538822,6.16845692 8.62538822,6.80845692 9.02538822,7.19845692 L11.1553882,9.27845692 C11.7853882,9.89845692 12.8553882,9.44845692 12.8553882,8.55845692 L12.8553882,7.02845692 C15.6953882,7.50845692 17.8553882,9.96845692 17.8553882,12.9384569 C17.8553882,15.6684569 16.0353882,17.9584569 13.5353882,18.6884569 C13.1253882,18.8084569 12.8553882,19.1984569 12.8553882,19.6284569 L12.8553882,19.6484569 C12.8553882,20.2984569 13.4653882,20.7884569 14.0853882,20.6084569 C17.4253882,19.6484569 19.8553882,16.5784569 19.8553882,12.9384569 C19.8553882,8.85845692 16.8053882,5.49845692 12.8553882,5.00845692 Z" id="path-1"></path>
    </defs>
    <g id="icon/image/rotate_left_24px" stroke="none" stroke-width="1" fill="none" fill-rule="evenodd">
        <mask id="mask-2" fill="white">
            <use xlink:href="#path-1"></use>
        </mask>
        <g fill-rule="nonzero"></g>
        <g id="✱-/-Color-/-Icons-/-Black-/-Inactive" mask="url(#mask-2)" fill="#000000" fill-opacity="0.54">
            <rect id="Rectangle" x="0" y="0" width="24" height="24"></rect>
        </g>
    </g>
</svg>