<?xml version="1.0" encoding="UTF-8"?>
<svg width="24px" height="24px" viewBox="0 0 24 24" version="1.1" xmlns="http://www.w3.org/2000/svg" xmlns:xlink="http://www.w3.org/1999/xlink">
    <!-- Generator: Sketch 50 (54983) - http://www.bohemiancoding.com/sketch -->
    <title>icon/image/rotate_90_degrees_ccw_24px_rounded</title>
    <desc>Created with Sketch.</desc>
    <defs>
        <path d="M6.0825,7.74700582 L2.4325,11.4070058 C1.6525,12.1870058 1.6525,13.4570058 2.4325,14.2370058 L6.0925,17.8970058 C6.8725,18.6770058 8.1425,18.6770058 8.9225,17.8970058 L12.5825,14.2470058 C13.3625,13.4670058 13.3625,12.1970058 12.5825,11.4170058 L8.9125,7.73700582 C8.1225,6.95700582 6.8625,6.95700582 6.0825,7.74700582 Z M4.5525,12.1070058 L6.8025,9.85700582 C7.1925,9.46700582 7.8225,9.46700582 8.2225,9.85700582 L10.4625,12.0970058 C10.8525,12.4870058 10.8525,13.1170058 10.4625,13.5070058 L8.2125,15.7570058 C7.8225,16.1470058 7.1925,16.1470058 6.7925,15.7570058 L4.5525,13.5270058 C4.1625,13.1370058 4.1625,12.4970058 4.5525,12.1070058 Z M19.5125,6.55700582 C17.7625,4.79700582 15.4525,3.91700582 13.1525,3.91700582 L13.1525,3.08700582 C13.1525,2.19700582 12.0725,1.74700582 11.4425,2.37700582 L9.6225,4.20700582 C9.2325,4.59700582 9.2325,5.22700582 9.6225,5.61700582 L11.4525,7.44700582 C12.0725,8.07700582 13.1525,7.63700582 13.1525,6.74700582 L13.1525,5.91700582 C15.1725,5.91700582 17.1825,6.77700582 18.6025,8.52700582 C20.6525,11.0470058 20.6525,14.7970058 18.6025,17.3170058 C17.1825,19.0570058 15.1725,19.9170058 13.1525,19.9170058 C12.3725,19.9170058 11.6025,19.7870058 10.8625,19.5270058 C10.5025,19.4070058 10.1125,19.5170058 9.8425,19.7870058 C9.3425,20.2870058 9.5025,21.1770058 10.1825,21.4070058 C11.1425,21.7470058 12.1425,21.9170058 13.1525,21.9170058 C15.4525,21.9170058 17.7625,21.0370058 19.5125,19.2770058 C23.0325,15.7670058 23.0325,10.0670058 19.5125,6.55700582 Z" id="path-1"></path>
    </defs>
    <g id="icon/image/rotate_90_degrees_ccw_24px" stroke="none" stroke-width="1" fill="none" fill-rule="evenodd">
        <mask id="mask-2" fill="white">
            <use xlink:href="#path-1"></use>
        </mask>
        <g fill-rule="nonzero"></g>
        <g id="✱-/-Color-/-Icons-/-Black-/-Inactive" mask="url(#mask-2)" fill="#000000" fill-opacity="0.54">
            <rect id="Rectangle" x="0" y="0" width="24" height="24"></rect>
        </g>
    </g>
</svg>