<?xml version="1.0" encoding="UTF-8"?>
<svg width="24px" height="24px" viewBox="0 0 24 24" version="1.1" xmlns="http://www.w3.org/2000/svg" xmlns:xlink="http://www.w3.org/1999/xlink">
    <!-- Generator: Sketch 50 (54983) - http://www.bohemiancoding.com/sketch -->
    <title>icon/image/rotate_right_24px_rounded</title>
    <desc>Created with Sketch.</desc>
    <defs>
        <path d="M14.9746118,5.7662365 L12.8446118,3.6362365 C12.2246118,3.0162365 11.1446118,3.4562365 11.1446118,4.3462365 L11.1446118,5.0062365 C7.20461178,5.4962365 4.14461178,8.8562365 4.14461178,12.9362365 C4.14461178,16.5762365 6.57461178,19.6462365 9.91461178,20.6162365 C10.5346118,20.7962365 11.1446118,20.2962365 11.1446118,19.6562365 L11.1446118,19.6262365 C11.1446118,19.1962365 10.8746118,18.8062365 10.4646118,18.6862365 C7.96461178,17.9662365 6.14461178,15.6662365 6.14461178,12.9362365 C6.14461178,9.9662365 8.30461178,7.5062365 11.1446118,7.0262365 L11.1446118,8.5562365 C11.1446118,9.4462365 12.2146118,9.8862365 12.8446118,9.2662365 L14.9746118,7.1862365 C15.3746118,6.8062365 15.3746118,6.1662365 14.9746118,5.7662365 Z M19.8146118,10.6962365 C19.6546118,10.1462365 19.4346118,9.6162365 19.1546118,9.1062365 C18.8446118,8.5362365 18.0546118,8.4462365 17.5946118,8.9062365 L17.5846118,8.9162365 C17.2746118,9.2262365 17.2046118,9.6962365 17.4146118,10.0762365 C17.6146118,10.4462365 17.7746118,10.8362365 17.8946118,11.2362365 C18.0146118,11.6562365 18.4046118,11.9362365 18.8346118,11.9362365 L18.8546118,11.9362365 C19.5046118,11.9362365 20.0046118,11.3162365 19.8146118,10.6962365 Z M13.1446118,19.6162365 L13.1446118,19.6362365 C13.1446118,20.2862365 13.7646118,20.7762365 14.3846118,20.5962365 C14.9346118,20.4362365 15.4646118,20.2162365 15.9746118,19.9362365 C16.5446118,19.6262365 16.6346118,18.8362365 16.1746118,18.3762365 L16.1546118,18.3562365 C15.8446118,18.0462365 15.3746118,17.9762365 14.9946118,18.1862365 C14.6246118,18.3962365 14.2346118,18.5562365 13.8346118,18.6762365 C13.4246118,18.7962365 13.1446118,19.1862365 13.1446118,19.6162365 Z M17.5846118,16.9662365 C18.0446118,17.4262365 18.8346118,17.3362365 19.1446118,16.7662365 C19.4246118,16.2562365 19.6446118,15.7262365 19.8146118,15.1762365 C19.9946118,14.5562365 19.5046118,13.9362365 18.8546118,13.9362365 L18.8346118,13.9362365 C18.3946118,13.9362365 18.0146118,14.2162365 17.8946118,14.6362365 C17.7746118,15.0362365 17.6146118,15.4262365 17.4146118,15.8062365 C17.2046118,16.1862365 17.2846118,16.6662365 17.5846118,16.9662365 Z" id="path-1"></path>
    </defs>
    <g id="icon/image/rotate_right_24px" stroke="none" stroke-width="1" fill="none" fill-rule="evenodd">
        <mask id="mask-2" fill="white">
            <use xlink:href="#path-1"></use>
        </mask>
        <g fill-rule="nonzero"></g>
        <g id="✱-/-Color-/-Icons-/-Black-/-Inactive" mask="url(#mask-2)" fill="#000000" fill-opacity="0.54">
            <rect id="Rectangle" x="0" y="0" width="24" height="24"></rect>
        </g>
    </g>
</svg>