<?xml version="1.0" encoding="UTF-8"?>
<svg width="24px" height="24px" viewBox="0 0 24 24" version="1.1" xmlns="http://www.w3.org/2000/svg" xmlns:xlink="http://www.w3.org/1999/xlink">
    <!-- Generator: Sketch 50 (54983) - http://www.bohemiancoding.com/sketch -->
    <title>icon/image/shutter_speed_24px_rounded</title>
    <desc>Created with Sketch.</desc>
    <defs>
        <path d="M10.0015149,3.5 L14.0015149,3.5 C14.5515149,3.5 15.0015149,3.05 15.0015149,2.5 C15.0015149,1.95 14.5515149,1.5 14.0015149,1.5 L10.0015149,1.5 C9.45151493,1.5 9.00151493,1.95 9.00151493,2.5 C9.00151493,3.05 9.45151493,3.5 10.0015149,3.5 Z M19.0315149,7.89 L19.7815149,7.14 C20.1615149,6.76 20.1715149,6.13 19.7815149,5.74 L19.7715149,5.73 C19.3815149,5.34 18.7615149,5.35 18.3715149,5.73 L17.6215149,6.48 C16.0715149,5.24 14.1215149,4.5 12.0015149,4.5 C7.20151493,4.5 3.12151493,8.46 3.00151493,13.26 C2.87151493,18.34 6.94151493,22.5 12.0015149,22.5 C16.9815149,22.5 21.0015149,18.47 21.0015149,13.5 C21.0015149,11.38 20.2615149,9.43 19.0315149,7.89 Z M12.0015149,20.5 C8.13151493,20.5 5.00151493,17.37 5.00151493,13.5 C5.00151493,9.63 8.13151493,6.5 12.0015149,6.5 C15.8715149,6.5 19.0015149,9.63 19.0015149,13.5 C19.0015149,17.37 15.8715149,20.5 12.0015149,20.5 Z M10.8115149,15.5 L7.11151493,15.5 C6.73151493,15.5 6.49151493,15.9 6.66151493,16.24 C7.22151493,17.36 8.10151493,18.25 9.23151493,18.81 C9.46151493,18.92 9.75151493,18.83 9.88151493,18.6 L11.2515149,16.25 C11.4415149,15.92 11.2015149,15.5 10.8115149,15.5 Z M14.7315149,8.15 C14.5015149,8.03 14.2115149,8.13 14.0815149,8.35 L12.7015149,10.74 C12.5015149,11.08 12.7415149,11.5 13.1315149,11.5 L16.8915149,11.5 C17.2715149,11.5 17.5115149,11.1 17.3415149,10.77 C16.7615149,9.64 15.8515149,8.73 14.7315149,8.15 Z M13.8815149,15.2 C13.6915149,14.86 13.2015149,14.85 13.0115149,15.19 L10.9715149,18.71 C10.7915149,19.03 10.9915149,19.43 11.3615149,19.46 C12.7015149,19.6 14.0515149,19.28 15.1915149,18.57 C15.4115149,18.43 15.4715149,18.14 15.3515149,17.91 L13.8815149,15.2 Z M10.3115149,13.73 L7.93151493,10.07 C7.73151493,9.77 7.29151493,9.77 7.09151493,10.07 C6.28151493,11.23 5.92151493,12.64 6.04151493,14.05 C6.06151493,14.31 6.28151493,14.5 6.54151493,14.5 L9.89151493,14.5 C10.2815149,14.5 10.5215149,14.06 10.3115149,13.73 Z M13.9715149,13.24 L15.9915149,16.98 C16.1715149,17.31 16.6315149,17.33 16.8515149,17.03 C17.7115149,15.85 18.0915149,14.41 17.9715149,12.95 C17.9515149,12.69 17.7215149,12.5 17.4715149,12.5 L14.4215149,12.5 C14.0315149,12.5 13.7915149,12.9 13.9715149,13.24 Z M10.1715149,11.67 C10.3715149,11.98 10.8315149,11.97 11.0215149,11.65 L12.9615149,8.3 C13.1515149,7.98 12.9315149,7.58 12.5615149,7.54 C11.2015149,7.42 9.83151493,7.75 8.68151493,8.51 C8.46151493,8.66 8.41151493,8.97 8.55151493,9.19 L10.1715149,11.67 Z" id="path-1"></path>
    </defs>
    <g id="icon/image/shutter_speed_24px" stroke="none" stroke-width="1" fill="none" fill-rule="evenodd">
        <mask id="mask-2" fill="white">
            <use xlink:href="#path-1"></use>
        </mask>
        <g fill-rule="nonzero"></g>
        <g id="✱-/-Color-/-Icons-/-Black-/-Inactive" mask="url(#mask-2)" fill="#000000" fill-opacity="0.54">
            <rect id="Rectangle" x="0" y="0" width="24" height="24"></rect>
        </g>
    </g>
</svg>