<?xml version="1.0" encoding="UTF-8"?>
<svg width="24px" height="24px" viewBox="0 0 24 24" version="1.1" xmlns="http://www.w3.org/2000/svg" xmlns:xlink="http://www.w3.org/1999/xlink">
    <!-- Generator: Sketch 50 (54983) - http://www.bohemiancoding.com/sketch -->
    <title>icon/image/timer_24px_rounded</title>
    <desc>Created with Sketch.</desc>
    <defs>
        <path d="M14.0015149,1.5 L10.0015149,1.5 C9.45151493,1.5 9.00151493,1.95 9.00151493,2.5 C9.00151493,3.05 9.45151493,3.5 10.0015149,3.5 L14.0015149,3.5 C14.5515149,3.5 15.0015149,3.05 15.0015149,2.5 C15.0015149,1.95 14.5515149,1.5 14.0015149,1.5 Z M12.0015149,14.5 C12.5515149,14.5 13.0015149,14.05 13.0015149,13.5 L13.0015149,9.5 C13.0015149,8.95 12.5515149,8.5 12.0015149,8.5 C11.4515149,8.5 11.0015149,8.95 11.0015149,9.5 L11.0015149,13.5 C11.0015149,14.05 11.4515149,14.5 12.0015149,14.5 Z M19.0315149,7.89 L19.7815149,7.14 C20.1615149,6.76 20.1715149,6.13 19.7815149,5.74 L19.7715149,5.73 C19.3815149,5.34 18.7615149,5.35 18.3715149,5.73 L17.6215149,6.48 C16.0715149,5.24 14.1215149,4.5 12.0015149,4.5 C7.20151493,4.5 3.12151493,8.46 3.00151493,13.26 C2.87151493,18.34 6.94151493,22.5 12.0015149,22.5 C16.9815149,22.5 21.0015149,18.47 21.0015149,13.5 C21.0015149,11.38 20.2615149,9.43 19.0315149,7.89 Z M12.0015149,20.5 C8.13151493,20.5 5.00151493,17.37 5.00151493,13.5 C5.00151493,9.63 8.13151493,6.5 12.0015149,6.5 C15.8715149,6.5 19.0015149,9.63 19.0015149,13.5 C19.0015149,17.37 15.8715149,20.5 12.0015149,20.5 Z" id="path-1"></path>
    </defs>
    <g id="icon/image/timer_24px" stroke="none" stroke-width="1" fill="none" fill-rule="evenodd">
        <mask id="mask-2" fill="white">
            <use xlink:href="#path-1"></use>
        </mask>
        <g fill-rule="nonzero"></g>
        <g id="✱-/-Color-/-Icons-/-Black-/-Inactive" mask="url(#mask-2)" fill="#000000" fill-opacity="0.54">
            <rect id="Rectangle" x="0" y="0" width="24" height="24"></rect>
        </g>
    </g>
</svg>