<?xml version="1.0" encoding="UTF-8"?>
<svg width="24px" height="24px" viewBox="0 0 24 24" version="1.1" xmlns="http://www.w3.org/2000/svg" xmlns:xlink="http://www.w3.org/1999/xlink">
    <!-- Generator: Sketch 50 (54983) - http://www.bohemiancoding.com/sketch -->
    <title>icon/image/timer_off_24px_rounded</title>
    <desc>Created with Sketch.</desc>
    <defs>
        <path d="M10.41625,3.20875 L14.41625,3.20875 C14.96625,3.20875 15.41625,2.75875 15.41625,2.20875 C15.41625,1.65875 14.96625,1.20875 14.41625,1.20875 L10.41625,1.20875 C9.86625,1.20875 9.41625,1.65875 9.41625,2.20875 C9.41625,2.75875 9.86625,3.20875 10.41625,3.20875 Z M12.41625,8.20875 C11.90625,8.20875 11.49625,8.59875 11.43625,9.09875 L13.41625,11.06875 L13.41625,9.20875 C13.41625,8.65875 12.96625,8.20875 12.41625,8.20875 Z M12.41625,6.20875 C16.28625,6.20875 19.41625,9.33875 19.41625,13.20875 C19.41625,14.32875 19.14625,15.38875 18.67625,16.32875 L20.14625,17.79875 C20.94625,16.45875 21.41625,14.88875 21.41625,13.20875 C21.41625,11.08875 20.67625,9.13875 19.44625,7.59875 L20.19625,6.84875 C20.57625,6.46875 20.58625,5.83875 20.19625,5.44875 L20.18625,5.43875 C19.79625,5.04875 19.17625,5.05875 18.78625,5.43875 L18.03625,6.18875 C16.48625,4.94875 14.53625,4.20875 12.41625,4.20875 C10.75625,4.20875 9.19625,4.68875 7.84625,5.49875 L9.29625,6.94875 C10.23625,6.47875 11.29625,6.20875 12.41625,6.20875 Z M20.60625,21.08875 L4.28625,4.76875 C4.09941847,4.58149733 3.84576764,4.47626439 3.58125,4.47626439 C3.31673236,4.47626439 3.06308153,4.58149733 2.87625,4.76875 C2.48625,5.15875 2.48625,5.78875 2.87625,6.17875 L4.94625,8.24875 C4.02625,9.62875 3.46625,11.23875 3.41625,12.96875 C3.28625,18.04875 7.35625,22.20875 12.41625,22.20875 C14.25625,22.20875 15.96625,21.65875 17.39625,20.70875 L19.18625,22.49875 C19.57625,22.88875 20.20625,22.88875 20.59625,22.49875 C20.99625,22.10875 20.99625,21.47875 20.60625,21.08875 Z M12.41625,20.20875 C8.54625,20.20875 5.41625,17.07875 5.41625,13.20875 C5.41625,11.91875 5.76625,10.71875 6.37625,9.68875 L15.94625,19.25875 C14.90625,19.85875 13.70625,20.20875 12.41625,20.20875 Z" id="path-1"></path>
    </defs>
    <g id="icon/image/timer_off_24px" stroke="none" stroke-width="1" fill="none" fill-rule="evenodd">
        <mask id="mask-2" fill="white">
            <use xlink:href="#path-1"></use>
        </mask>
        <g fill-rule="nonzero"></g>
        <g id="✱-/-Color-/-Icons-/-Black-/-Inactive" mask="url(#mask-2)" fill="#000000" fill-opacity="0.54">
            <rect id="Rectangle" x="0" y="0" width="24" height="24"></rect>
        </g>
    </g>
</svg>