<?xml version="1.0" encoding="UTF-8"?>
<svg width="24px" height="24px" viewBox="0 0 24 24" version="1.1" xmlns="http://www.w3.org/2000/svg" xmlns:xlink="http://www.w3.org/1999/xlink">
    <!-- Generator: Sketch 50 (54983) - http://www.bohemiancoding.com/sketch -->
    <title>icon/image/view_compact_24px_rounded</title>
    <desc>Created with Sketch.</desc>
    <defs>
        <path d="M4.5,19 L8.5,19 L8.5,12 L2.5,12 L2.5,17 C2.5,18.1 3.4,19 4.5,19 Z M9.5,19 L19.5,19 C20.6,19 21.5,18.1 21.5,17 L21.5,12 L9.5,12 L9.5,19 Z M2.5,7 L2.5,11 L21.5,11 L21.5,7 C21.5,5.9 20.6,5 19.5,5 L4.5,5 C3.4,5 2.5,5.9 2.5,7 Z" id="path-1"></path>
    </defs>
    <g id="icon/image/view_compact_24px" stroke="none" stroke-width="1" fill="none" fill-rule="evenodd">
        <mask id="mask-2" fill="white">
            <use xlink:href="#path-1"></use>
        </mask>
        <g fill-rule="nonzero"></g>
        <g id="✱-/-Color-/-Icons-/-Black-/-Inactive" mask="url(#mask-2)" fill="#000000" fill-opacity="0.54">
            <rect id="Rectangle" x="0" y="0" width="24" height="24"></rect>
        </g>
    </g>
</svg>