<?xml version="1.0" encoding="UTF-8"?>
<svg width="24px" height="24px" viewBox="0 0 24 24" version="1.1" xmlns="http://www.w3.org/2000/svg" xmlns:xlink="http://www.w3.org/1999/xlink">
    <!-- Generator: Sketch 50 (54983) - http://www.bohemiancoding.com/sketch -->
    <title>icon/image/view_comfy_24px_rounded</title>
    <desc>Created with Sketch.</desc>
    <defs>
        <path d="M2.5,9 L6.5,9 L6.5,5 L4.5,5 C3.4,5 2.5,5.9 2.5,7 L2.5,9 Z M2.5,14 L6.5,14 L6.5,10 L2.5,10 L2.5,14 Z M7.5,14 L11.5,14 L11.5,10 L7.5,10 L7.5,14 Z M12.5,14 L16.5,14 L16.5,10 L12.5,10 L12.5,14 Z M7.5,9 L11.5,9 L11.5,5 L7.5,5 L7.5,9 Z M12.5,5 L12.5,9 L16.5,9 L16.5,5 L12.5,5 Z M17.5,14 L21.5,14 L21.5,10 L17.5,10 L17.5,14 Z M4.5,19 L6.5,19 L6.5,15 L2.5,15 L2.5,17 C2.5,18.1 3.4,19 4.5,19 Z M7.5,19 L11.5,19 L11.5,15 L7.5,15 L7.5,19 Z M12.5,19 L16.5,19 L16.5,15 L12.5,15 L12.5,19 Z M17.5,19 L19.5,19 C20.6,19 21.5,18.1 21.5,17 L21.5,15 L17.5,15 L17.5,19 Z M17.5,5 L17.5,9 L21.5,9 L21.5,7 C21.5,5.9 20.6,5 19.5,5 L17.5,5 Z" id="path-1"></path>
    </defs>
    <g id="icon/image/view_comfy_24px" stroke="none" stroke-width="1" fill="none" fill-rule="evenodd">
        <mask id="mask-2" fill="white">
            <use xlink:href="#path-1"></use>
        </mask>
        <g fill-rule="nonzero"></g>
        <g id="✱-/-Color-/-Icons-/-Black-/-Inactive" mask="url(#mask-2)" fill="#000000" fill-opacity="0.54">
            <rect id="Rectangle" x="0" y="0" width="24" height="24"></rect>
        </g>
    </g>
</svg>