<?xml version="1.0" encoding="UTF-8"?>
<svg width="24px" height="24px" viewBox="0 0 24 24" version="1.1" xmlns="http://www.w3.org/2000/svg" xmlns:xlink="http://www.w3.org/1999/xlink">
    <!-- Generator: Sketch 50 (54983) - http://www.bohemiancoding.com/sketch -->
    <title>icon/image/wb_auto_24px_rounded</title>
    <desc>Created with Sketch.</desc>
    <defs>
        <path d="M7.06288943,12.65 L9.36288943,12.65 L8.21288943,9 L7.06288943,12.65 Z M22.9328894,7 C22.5128894,7 22.1628894,7.3 22.0828894,7.7 L21.0128894,13.29 L19.7028894,7.78 C19.5928894,7.32 19.1828894,7 18.7128894,7 C18.2428894,7 17.8328894,7.32 17.7328894,7.78 L16.4228894,13.29 L15.3528894,7.7 C15.2728894,7.3 14.9128894,7 14.5028894,7 C14.4928894,7 14.4728894,7.01 14.4628894,7.01 C12.9928894,5.18 10.7428894,4 8.21288943,4 C3.79288943,4 0.212889429,7.58 0.212889429,12 C0.212889429,16.42 3.79288943,20 8.21288943,20 C11.3828894,20 14.1128894,18.15 15.4128894,15.48 C15.6128894,15.8 15.9628894,16 16.3528894,16 C16.8628894,16 17.3028894,15.65 17.4228894,15.16 L18.7128894,9.9 L20.0028894,15.16 C20.1228894,15.65 20.5728894,16 21.0728894,16 C21.5928894,16 22.0328894,15.64 22.1528894,15.14 L23.7628894,8.06 C23.8928894,7.52 23.4828894,7 22.9328894,7 Z M11.1428894,16 C10.7628894,16 10.4228894,15.76 10.3028894,15.4 L9.81288943,14 L6.61288943,14 L6.12288943,15.4 C5.99288943,15.76 5.66288943,16 5.28288943,16 C4.66288943,16 4.23288943,15.39 4.44288943,14.81 L6.88288943,7.95 C7.08288943,7.38 7.61288943,7 8.21288943,7 C8.81288943,7 9.34288943,7.38 9.55288943,7.94 L11.9928894,14.8 C12.1928894,15.39 11.7628894,16 11.1428894,16 Z" id="path-1"></path>
    </defs>
    <g id="icon/image/wb_auto_24px" stroke="none" stroke-width="1" fill="none" fill-rule="evenodd">
        <mask id="mask-2" fill="white">
            <use xlink:href="#path-1"></use>
        </mask>
        <g fill-rule="nonzero"></g>
        <g id="✱-/-Color-/-Icons-/-Black-/-Inactive" mask="url(#mask-2)" fill="#000000" fill-opacity="0.54">
            <rect id="Rectangle" x="0" y="0" width="24" height="24"></rect>
        </g>
    </g>
</svg>