<?xml version="1.0" encoding="UTF-8"?>
<svg width="24px" height="24px" viewBox="0 0 24 24" version="1.1" xmlns="http://www.w3.org/2000/svg" xmlns:xlink="http://www.w3.org/1999/xlink">
    <!-- Generator: Sketch 50 (54983) - http://www.bohemiancoding.com/sketch -->
    <title>icon/image/wb_iridescent_24px_rounded</title>
    <desc>Created with Sketch.</desc>
    <defs>
        <path d="M5.99625,15 L17.99625,15 C18.54625,15 18.99625,14.55 18.99625,14 L18.99625,10.05 C18.99625,9.5 18.54625,9.05 17.99625,9.05 L5.99625,9.05 C5.44625,9.05 4.99625,9.5 4.99625,10.05 L4.99625,14 C4.99625,14.55 5.44625,15 5.99625,15 Z M10.99625,2 L10.99625,3.05 C10.99625,3.6 11.44625,4 11.99625,4 C12.54625,4 12.99625,3.6 12.99625,3.05 L12.99625,2 C12.99625,1.45 12.54625,1 11.99625,1 C11.44625,1 10.99625,1.45 10.99625,2 Z M18.33625,4.3 L17.95625,4.68 C17.56625,5.07 17.56625,5.7 17.95625,6.09 C18.34625,6.48 18.97625,6.48 19.36625,6.09 L19.74625,5.71 C20.13625,5.32 20.13625,4.69 19.74625,4.3 C19.5594185,4.11274733 19.3057676,4.00751439 19.04125,4.00751439 C18.7767324,4.00751439 18.5230815,4.11274733 18.33625,4.3 Z M12.99625,22 L12.99625,21.04 C12.99625,20.49 12.54625,20.04 11.99625,20.04 C11.44625,20.04 10.99625,20.49 10.99625,21.04 L10.99625,22 C10.99625,22.55 11.44625,23 11.99625,23 C12.54625,23 12.99625,22.55 12.99625,22 Z M19.73625,18.39 L19.34625,18 C19.1594185,17.8127473 18.9057676,17.7075144 18.64125,17.7075144 C18.3767324,17.7075144 18.1230815,17.8127473 17.93625,18 C17.54625,18.39 17.54625,19.02 17.93625,19.41 L18.31625,19.8 C18.70625,20.19 19.33625,20.19 19.72625,19.8 L19.73625,19.79 C20.12625,19.41 20.12625,18.77 19.73625,18.39 Z M4.24625,5.71 L4.63625,6.1 C5.02625,6.49 5.65625,6.49 6.04625,6.1 C6.43625,5.71 6.43625,5.08 6.04625,4.69 L5.65625,4.3 C5.46941847,4.11274733 5.21576764,4.00751439 4.95125,4.00751439 C4.68673236,4.00751439 4.43308153,4.11274733 4.24625,4.3 C3.86625,4.69 3.86625,5.33 4.24625,5.71 Z M5.66625,19.79 L6.04625,19.41 C6.43625,19.02 6.43625,18.39 6.04625,18 C5.85941847,17.8127473 5.60576764,17.7075144 5.34125,17.7075144 C5.07673236,17.7075144 4.82308153,17.8127473 4.63625,18 L4.25625,18.38 C3.86625,18.77 3.86625,19.4 4.25625,19.79 C4.63625,20.18 5.27625,20.18 5.66625,19.79 Z" id="path-1"></path>
    </defs>
    <g id="icon/image/wb_iridescent_24px" stroke="none" stroke-width="1" fill="none" fill-rule="evenodd">
        <mask id="mask-2" fill="white">
            <use xlink:href="#path-1"></use>
        </mask>
        <g fill-rule="nonzero"></g>
        <g id="✱-/-Color-/-Icons-/-Black-/-Inactive" mask="url(#mask-2)" fill="#000000" fill-opacity="0.54">
            <rect id="Rectangle" x="0" y="0" width="24" height="24"></rect>
        </g>
    </g>
</svg>