<?xml version="1.0" encoding="UTF-8"?>
<svg width="24px" height="24px" viewBox="0 0 24 24" version="1.1" xmlns="http://www.w3.org/2000/svg" xmlns:xlink="http://www.w3.org/1999/xlink">
    <!-- Generator: Sketch 50 (54983) - http://www.bohemiancoding.com/sketch -->
    <title>icon/image/wb_incandescent_24px_rounded</title>
    <desc>Created with Sketch.</desc>
    <defs>
        <path d="M4.255,19.265 C4.645,19.655 5.275,19.655 5.665,19.265 L6.055,18.875 C6.445,18.485 6.435,17.855 6.055,17.475 L6.045,17.465 C5.85816847,17.2777473 5.60451764,17.1725144 5.34,17.1725144 C5.07548236,17.1725144 4.82183153,17.2777473 4.635,17.465 L4.245,17.855 C3.865,18.255 3.865,18.875 4.255,19.265 Z M11.995,22.475 L12.005,22.475 C12.555,22.475 12.995,22.035 12.995,21.485 L12.995,20.525 C12.995,19.975 12.555,19.535 12.005,19.535 L11.995,19.535 C11.445,19.535 11.005,19.975 11.005,20.525 L11.005,21.485 C11.005,22.035 11.445,22.475 11.995,22.475 Z M3.015,10.525 L1.995,10.525 C1.445,10.525 1.005,10.965 1.005,11.515 L1.005,11.525 C1.005,12.075 1.445,12.515 1.995,12.515 L3.005,12.515 C3.555,12.515 3.995,12.075 3.995,11.525 L3.995,11.515 C4.005,10.965 3.565,10.525 3.015,10.525 Z M15.005,6.335 L15.005,2.525 C15.005,1.975 14.555,1.525 14.005,1.525 L10.005,1.525 C9.455,1.525 9.005,1.975 9.005,2.525 L9.005,6.335 C6.965,7.515 5.685,9.855 6.075,12.465 C6.475,15.075 8.635,17.165 11.255,17.485 C14.895,17.925 18.005,15.085 18.005,11.535 C18.005,9.305 16.795,7.375 15.005,6.335 Z M20.005,11.515 L20.005,11.525 C20.005,12.075 20.445,12.515 20.995,12.515 L22.005,12.515 C22.555,12.515 22.995,12.075 22.995,11.525 L22.995,11.515 C22.995,10.965 22.555,10.525 22.005,10.525 L20.995,10.525 C20.445,10.525 20.005,10.965 20.005,11.515 Z M17.945,18.885 L18.335,19.275 C18.725,19.665 19.355,19.665 19.745,19.275 C20.135,18.885 20.135,18.255 19.745,17.865 L19.355,17.475 C18.965,17.085 18.335,17.095 17.955,17.475 C17.555,17.875 17.555,18.495 17.945,18.885 Z" id="path-1"></path>
    </defs>
    <g id="icon/image/wb_incandescent_24px" stroke="none" stroke-width="1" fill="none" fill-rule="evenodd">
        <mask id="mask-2" fill="white">
            <use xlink:href="#path-1"></use>
        </mask>
        <g fill-rule="nonzero"></g>
        <g id="✱-/-Color-/-Icons-/-Black-/-Inactive" mask="url(#mask-2)" fill="#000000" fill-opacity="0.54">
            <rect id="Rectangle" x="0" y="0" width="24" height="24"></rect>
        </g>
    </g>
</svg>