<?xml version="1.0" encoding="UTF-8"?>
<svg width="24px" height="24px" viewBox="0 0 24 24" version="1.1" xmlns="http://www.w3.org/2000/svg" xmlns:xlink="http://www.w3.org/1999/xlink">
    <!-- Generator: Sketch 50 (54983) - http://www.bohemiancoding.com/sketch -->
    <title>icon/image/wb_sunny_24px_rounded</title>
    <desc>Created with Sketch.</desc>
    <defs>
        <path d="M6.055,4.64 L5.665,4.25 C5.275,3.86 4.645,3.87 4.265,4.25 L4.255,4.26 C3.865,4.65 3.865,5.28 4.255,5.66 L4.645,6.05 C5.035,6.44 5.655,6.44 6.045,6.05 L6.055,6.04 C6.445,5.66 6.445,5.02 6.055,4.64 Z M3.015,11 L1.995,11 C1.445,11 1.005,11.44 1.005,11.99 L1.005,12 C1.005,12.55 1.445,12.99 1.995,12.99 L3.005,12.99 C3.565,13 4.005,12.56 4.005,12.01 L4.005,12 C4.005,11.44 3.565,11 3.015,11 Z M12.015,1.05 L12.005,1.05 C11.445,1.05 11.005,1.49 11.005,2.04 L11.005,3 C11.005,3.55 11.445,3.99 11.995,3.99 L12.005,3.99 C12.565,4 13.005,3.56 13.005,3.01 L13.005,2.04 C13.005,1.49 12.565,1.05 12.015,1.05 Z M19.755,4.26 C19.365,3.87 18.735,3.87 18.345,4.25 L17.955,4.64 C17.565,5.03 17.565,5.66 17.955,6.04 L17.965,6.05 C18.355,6.44 18.985,6.44 19.365,6.05 L19.755,5.66 C20.145,5.27 20.145,4.65 19.755,4.26 Z M17.945,19.36 L18.335,19.75 C18.725,20.14 19.355,20.14 19.745,19.75 C20.135,19.36 20.135,18.73 19.745,18.34 L19.355,17.95 C18.965,17.56 18.335,17.57 17.955,17.95 C17.555,18.35 17.555,18.97 17.945,19.36 Z M20.005,11.99 L20.005,12 C20.005,12.55 20.445,12.99 20.995,12.99 L22.005,12.99 C22.555,12.99 22.995,12.55 22.995,12 L22.995,11.99 C22.995,11.44 22.555,11 22.005,11 L20.995,11 C20.445,11 20.005,11.44 20.005,11.99 Z M12.005,6 C8.695,6 6.005,8.69 6.005,12 C6.005,15.31 8.695,18 12.005,18 C15.315,18 18.005,15.31 18.005,12 C18.005,8.69 15.315,6 12.005,6 Z M11.995,22.95 L12.005,22.95 C12.555,22.95 12.995,22.51 12.995,21.96 L12.995,21 C12.995,20.45 12.555,20.01 12.005,20.01 L11.995,20.01 C11.445,20.01 11.005,20.45 11.005,21 L11.005,21.96 C11.005,22.51 11.445,22.95 11.995,22.95 Z M4.255,19.74 C4.645,20.13 5.275,20.13 5.665,19.74 L6.055,19.35 C6.445,18.96 6.435,18.33 6.055,17.95 L6.045,17.94 C5.85816847,17.7527473 5.60451764,17.6475144 5.34,17.6475144 C5.07548236,17.6475144 4.82183153,17.7527473 4.635,17.94 L4.245,18.33 C3.865,18.73 3.865,19.35 4.255,19.74 Z" id="path-1"></path>
    </defs>
    <g id="icon/image/wb_sunny_24px" stroke="none" stroke-width="1" fill="none" fill-rule="evenodd">
        <mask id="mask-2" fill="white">
            <use xlink:href="#path-1"></use>
        </mask>
        <g fill-rule="nonzero"></g>
        <g id="✱-/-Color-/-Icons-/-Black-/-Inactive" mask="url(#mask-2)" fill="#000000" fill-opacity="0.54">
            <rect id="Rectangle" x="0" y="0" width="24" height="24"></rect>
        </g>
    </g>
</svg>