<?xml version="1.0" encoding="UTF-8"?>
<svg width="24px" height="24px" viewBox="0 0 24 24" version="1.1" xmlns="http://www.w3.org/2000/svg" xmlns:xlink="http://www.w3.org/1999/xlink">
    <!-- Generator: Sketch 50 (54983) - http://www.bohemiancoding.com/sketch -->
    <title>icon/notification/airline_seat_recline_normal_24px_rounded</title>
    <desc>Created with Sketch.</desc>
    <defs>
        <path d="M7.8,5.87625 C7.02,5.09625 7.02,3.82625 7.8,3.04625 C8.58,2.26625 9.85,2.26625 10.63,3.04625 C11.41,3.82625 11.41,5.09625 10.63,5.87625 C9.84,6.66625 8.58,6.66625 7.8,5.87625 Z M6.21,16.46625 L6.21,8.46625 C6.21,7.91625 5.76,7.46625 5.21,7.46625 C4.66,7.46625 4.21,7.91625 4.21,8.46625 L4.21,16.46625 C4.21,19.22625 6.45,21.46625 9.21,21.46625 L14.21,21.46625 C14.76,21.46625 15.21,21.01625 15.21,20.46625 C15.21,19.91625 14.76,19.46625 14.21,19.46625 L9.21,19.46625 C7.55,19.46625 6.21,18.12625 6.21,16.46625 Z M19.49,19.81625 L15.72,16.04625 C15.35,15.67625 14.84,15.46625 14.31,15.46625 L11.71,15.46625 L11.71,11.78625 C12.8,12.67625 14.37,13.48625 15.91,13.80625 C16.58,13.94625 17.21,13.44625 17.21,12.76625 C17.21,12.23625 16.82,11.80625 16.29,11.71625 C14.87,11.47625 13.41,10.70625 12.54,9.74625 L11.14,8.19625 C10.95,7.98625 10.71,7.81625 10.45,7.69625 C10.16,7.55625 9.83,7.46625 9.49,7.46625 L9.46,7.46625 C8.22,7.46625 7.21,8.47625 7.21,9.71625 L7.21,15.46625 C7.21,17.12625 8.55,18.46625 10.21,18.46625 L15.28,18.46625 L18.06,21.24625 C18.45,21.63625 19.1,21.63625 19.49,21.24625 C19.89,20.85625 19.89,20.21625 19.49,19.81625 Z" id="path-1"></path>
    </defs>
    <g id="icon/notification/airline_seat_recline_normal_24px" stroke="none" stroke-width="1" fill="none" fill-rule="evenodd">
        <mask id="mask-2" fill="white">
            <use xlink:href="#path-1"></use>
        </mask>
        <g fill-rule="nonzero"></g>
        <g id="✱-/-Color-/-Icons-/-Black-/-Inactive" mask="url(#mask-2)" fill="#000000" fill-opacity="0.54">
            <rect id="Rectangle" x="0" y="0" width="24" height="24"></rect>
        </g>
    </g>
</svg>