<?xml version="1.0" encoding="UTF-8"?>
<svg width="24px" height="24px" viewBox="0 0 24 24" version="1.1" xmlns="http://www.w3.org/2000/svg" xmlns:xlink="http://www.w3.org/1999/xlink">
    <!-- Generator: Sketch 50 (54983) - http://www.bohemiancoding.com/sketch -->
    <title>icon/notification/airline_seat_legroom_extra_24px_rounded</title>
    <desc>Created with Sketch.</desc>
    <defs>
        <path d="M3.4994292,12.3139152 L3.4994292,4.31391515 C3.4994292,3.76391515 3.0494292,3.31391515 2.4994292,3.31391515 C1.9494292,3.31391515 1.4994292,3.76391515 1.4994292,4.31391515 L1.4994292,12.3139152 C1.4994292,15.0739152 3.7394292,17.3139152 6.4994292,17.3139152 L11.4994292,17.3139152 C12.0494292,17.3139152 12.4994292,16.8639152 12.4994292,16.3139152 C12.4994292,15.7639152 12.0494292,15.3139152 11.4994292,15.3139152 L6.4994292,15.3139152 C4.8394292,15.3139152 3.4994292,13.9739152 3.4994292,12.3139152 Z M22.3294292,17.5539152 C21.9494292,16.8339152 21.0394292,16.5839152 20.2994292,16.9239152 L19.2094292,17.4239152 L15.7994292,10.4439152 C15.4594292,9.76391515 14.7694292,9.31391515 14.0094292,9.31391515 L10.4994292,9.31391515 L10.4994292,3.31391515 L4.4994292,3.31391515 L4.4994292,11.3139152 C4.4994292,12.9739152 5.8394292,14.3139152 7.4994292,14.3139152 L14.4994292,14.3139152 L17.0594292,19.5639152 C17.5394292,20.5439152 18.6994292,20.9539152 19.6894292,20.5039152 L21.6394292,19.6139152 C22.3994292,19.2539152 22.7294292,18.3139152 22.3294292,17.5539152 Z" id="path-1"></path>
    </defs>
    <g id="icon/notification/airline_seat_legroom_extra_24px" stroke="none" stroke-width="1" fill="none" fill-rule="evenodd">
        <mask id="mask-2" fill="white">
            <use xlink:href="#path-1"></use>
        </mask>
        <g fill-rule="nonzero"></g>
        <g id="✱-/-Color-/-Icons-/-Black-/-Inactive" mask="url(#mask-2)" fill="#000000" fill-opacity="0.54">
            <rect id="Rectangle" x="0" y="0" width="24" height="24"></rect>
        </g>
    </g>
</svg>