<?xml version="1.0" encoding="UTF-8"?>
<svg width="24px" height="24px" viewBox="0 0 24 24" version="1.1" xmlns="http://www.w3.org/2000/svg" xmlns:xlink="http://www.w3.org/1999/xlink">
    <!-- Generator: Sketch 50 (54983) - http://www.bohemiancoding.com/sketch -->
    <title>icon/notification/airline_seat_flat_angled_24px_rounded</title>
    <desc>Created with Sketch.</desc>
    <defs>
        <path d="M22.1086464,14.53902 L21.4186464,16.42902 L9.05864641,11.95902 L10.4486464,8.16902005 C10.8286464,7.13902005 11.9686464,6.60902005 13.0086464,6.97902005 L19.6986464,9.38902005 C21.7986464,10.14902 22.8786464,12.44902 22.1086464,14.53902 Z M2.30864641,12.72902 L7.85864641,14.72902 L7.85864641,18.24902 C7.85864641,18.79902 8.30864641,19.24902 8.85864641,19.24902 L14.8586464,19.24902 C15.4086464,19.24902 15.8586464,18.79902 15.8586464,18.24902 L15.8586464,17.61902 L19.4386464,18.90902 C19.9586464,19.09902 20.5386464,18.82902 20.7286464,18.30902 C20.9186464,17.78902 20.6486464,17.20902 20.1286464,17.01902 L2.98864641,10.83902 C2.46864641,10.64902 1.88864641,10.91902 1.69864641,11.43902 C1.51864641,11.95902 1.78864641,12.53902 2.30864641,12.72902 Z M7.15864641,10.44902 C8.64864641,9.72902005 9.27864641,7.93902005 8.56864641,6.44902005 C7.84864641,4.95902005 6.05864641,4.32902005 4.55864641,5.04902005 C3.06864641,5.75902005 2.43864641,7.54902005 3.15864641,9.04902005 C3.86864641,10.53902 5.65864641,11.16902 7.15864641,10.44902 Z" id="path-1"></path>
    </defs>
    <g id="icon/notification/airline_seat_flat_angled_24px" stroke="none" stroke-width="1" fill="none" fill-rule="evenodd">
        <mask id="mask-2" fill="white">
            <use xlink:href="#path-1"></use>
        </mask>
        <g fill-rule="nonzero"></g>
        <g id="✱-/-Color-/-Icons-/-Black-/-Inactive" mask="url(#mask-2)" fill="#000000" fill-opacity="0.54">
            <rect id="Rectangle" x="0" y="0" width="24" height="24"></rect>
        </g>
    </g>
</svg>