<?xml version="1.0" encoding="UTF-8"?>
<svg width="24px" height="24px" viewBox="0 0 24 24" version="1.1" xmlns="http://www.w3.org/2000/svg" xmlns:xlink="http://www.w3.org/1999/xlink">
    <!-- Generator: Sketch 50 (54983) - http://www.bohemiancoding.com/sketch -->
    <title>icon/notification/airline_seat_recline_extra_24px_rounded</title>
    <desc>Created with Sketch.</desc>
    <defs>
        <path d="M5.5053233,6.13968902 C4.6053233,5.49968902 4.3853233,4.25968902 5.0153233,3.34968902 C5.6453233,2.44968902 6.8953233,2.22968902 7.8053233,2.85968902 C8.7053233,3.49968902 8.9253233,4.73968902 8.2953233,5.64968902 C7.6553233,6.54968902 6.4153233,6.76968902 5.5053233,6.13968902 Z M16.1553233,20.499689 C16.1553233,19.949689 15.7053233,19.499689 15.1553233,19.499689 L9.0853233,19.499689 C7.6053233,19.499689 6.3453233,18.419689 6.1253233,16.959689 L4.3153233,8.27968902 C4.2253233,7.82968902 3.8253233,7.49968902 3.3553233,7.49968902 C2.7353233,7.49968902 2.2753233,8.06968902 2.3953233,8.67968902 L4.1453233,17.259689 C4.5253233,19.699689 6.6253233,21.499689 9.0953233,21.499689 L15.1553233,21.499689 C15.7053233,21.499689 16.1553233,21.049689 16.1553233,20.499689 Z M15.6953233,15.499689 L11.5053233,15.499689 L10.4753233,11.399689 C11.7553233,12.119689 13.1053233,12.679689 14.5753233,12.699689 C15.1553233,12.709689 15.6253233,12.209689 15.6253233,11.629689 C15.6253233,11.039689 15.1353233,10.589689 14.5453233,10.569689 C13.2353233,10.529689 11.9153233,10.009689 10.9353233,9.23968902 L9.2953233,7.96968902 C9.0653233,7.78968902 8.8053233,7.66968902 8.5353233,7.58968902 C8.2153233,7.49968902 7.8753233,7.46968902 7.5453233,7.52968902 L7.5253233,7.52968902 C6.2953233,7.74968902 5.4753233,8.91968902 5.6853233,10.139689 L7.0353233,16.059689 C7.3153233,17.479689 8.5453233,18.499689 9.9853233,18.499689 L16.8353233,18.499689 L19.9253233,20.919689 C20.3453233,21.249689 20.9453233,21.209689 21.3153233,20.839689 C21.7653233,20.389689 21.7153233,19.659689 21.2153233,19.269689 L16.9253233,15.919689 C16.5753233,15.649689 16.1453233,15.499689 15.6953233,15.499689 Z" id="path-1"></path>
    </defs>
    <g id="icon/notification/airline_seat_recline_extra_24px" stroke="none" stroke-width="1" fill="none" fill-rule="evenodd">
        <mask id="mask-2" fill="white">
            <use xlink:href="#path-1"></use>
        </mask>
        <g fill-rule="nonzero"></g>
        <g id="✱-/-Color-/-Icons-/-Black-/-Inactive" mask="url(#mask-2)" fill="#000000" fill-opacity="0.54">
            <rect id="Rectangle" x="0" y="0" width="24" height="24"></rect>
        </g>
    </g>
</svg>