<?xml version="1.0" encoding="UTF-8"?>
<svg width="24px" height="24px" viewBox="0 0 24 24" version="1.1" xmlns="http://www.w3.org/2000/svg" xmlns:xlink="http://www.w3.org/1999/xlink">
    <!-- Generator: Sketch 50 (54983) - http://www.bohemiancoding.com/sketch -->
    <title>icon/notification/bluetooth_audio_24px_rounded</title>
    <desc>Created with Sketch.</desc>
    <defs>
        <path d="M15.78125,10.275 L14.40125,11.655 C14.20125,11.855 14.20125,12.165 14.40125,12.365 L15.78125,13.745 C16.06125,14.025 16.53125,13.895 16.63125,13.515 C16.74125,13.015 16.80125,12.515 16.80125,11.995 C16.80125,11.485 16.74125,10.985 16.62125,10.515 C16.53125,10.135 16.06125,9.995 15.78125,10.275 Z M19.90125,7.775 C19.65125,7.225 18.92125,7.105 18.50125,7.535 C18.24125,7.795 18.19125,8.175 18.33125,8.515 C18.79125,9.585 19.05125,10.755 19.05125,11.985 C19.05125,13.225 18.79125,14.405 18.32125,15.475 C18.18125,15.795 18.23125,16.165 18.48125,16.415 C18.89125,16.825 19.58125,16.705 19.83125,16.185 C20.46125,14.885 20.81125,13.425 20.81125,11.885 C20.80125,10.435 20.48125,9.035 19.90125,7.775 Z M11.19125,11.995 L14.78125,8.415 C15.17125,8.025 15.17125,7.395 14.78125,6.995 L10.49125,2.705 C9.86125,2.075 8.78125,2.525 8.78125,3.415 L8.78125,9.595 L4.89125,5.695 C4.70441847,5.50774733 4.45076764,5.40251439 4.18625,5.40251439 C3.92173236,5.40251439 3.66808153,5.50774733 3.48125,5.695 C3.09125,6.085 3.09125,6.715 3.48125,7.105 L8.37125,11.995 L3.48125,16.885 C3.09125,17.275 3.09125,17.905 3.48125,18.295 C3.87125,18.685 4.50125,18.685 4.89125,18.295 L8.78125,14.405 L8.78125,20.585 C8.78125,21.475 9.86125,21.925 10.49125,21.295 L14.79125,16.995 C15.18125,16.605 15.18125,15.975 14.79125,15.575 L11.19125,11.995 Z M10.78125,5.825 L12.66125,7.705 L10.78125,9.585 L10.78125,5.825 Z M10.78125,18.165 L10.78125,14.405 L12.66125,16.285 L10.78125,18.165 Z" id="path-1"></path>
    </defs>
    <g id="icon/notification/bluetooth_audio_24px" stroke="none" stroke-width="1" fill="none" fill-rule="evenodd">
        <mask id="mask-2" fill="white">
            <use xlink:href="#path-1"></use>
        </mask>
        <g fill-rule="nonzero"></g>
        <g id="✱-/-Color-/-Icons-/-Black-/-Inactive" mask="url(#mask-2)" fill="#000000" fill-opacity="0.54">
            <rect id="Rectangle" x="0" y="0" width="24" height="24"></rect>
        </g>
    </g>
</svg>