<?xml version="1.0" encoding="UTF-8"?>
<svg width="24px" height="24px" viewBox="0 0 24 24" version="1.1" xmlns="http://www.w3.org/2000/svg" xmlns:xlink="http://www.w3.org/1999/xlink">
    <!-- Generator: Sketch 50 (54983) - http://www.bohemiancoding.com/sketch -->
    <title>icon/notification/enhanced_encryption_24px_rounded</title>
    <desc>Created with Sketch.</desc>
    <defs>
        <path d="M18,8.5 L17,8.5 L17,6.5 C17,3.74 14.76,1.5 12,1.5 C9.24,1.5 7,3.74 7,6.5 L7,8.5 L6,8.5 C4.9,8.5 4,9.4 4,10.5 L4,20.5 C4,21.6 4.9,22.5 6,22.5 L18,22.5 C19.1,22.5 20,21.6 20,20.5 L20,10.5 C20,9.4 19.1,8.5 18,8.5 Z M8.9,6.5 C8.9,4.79 10.29,3.4 12,3.4 C13.71,3.4 15.1,4.79 15.1,6.5 L15.1,8.5 L8.9,8.5 L8.9,6.5 Z M15,16.5 L13,16.5 L13,18.5 C13,19.05 12.55,19.5 12,19.5 C11.45,19.5 11,19.05 11,18.5 L11,16.5 L9,16.5 C8.45,16.5 8,16.05 8,15.5 C8,14.95 8.45,14.5 9,14.5 L11,14.5 L11,12.5 C11,11.95 11.45,11.5 12,11.5 C12.55,11.5 13,11.95 13,12.5 L13,14.5 L15,14.5 C15.55,14.5 16,14.95 16,15.5 C16,16.05 15.55,16.5 15,16.5 Z" id="path-1"></path>
    </defs>
    <g id="icon/notification/enhanced_encryption_24px" stroke="none" stroke-width="1" fill="none" fill-rule="evenodd">
        <mask id="mask-2" fill="white">
            <use xlink:href="#path-1"></use>
        </mask>
        <g fill-rule="nonzero"></g>
        <g id="✱-/-Color-/-Icons-/-Black-/-Inactive" mask="url(#mask-2)" fill="#000000" fill-opacity="0.54">
            <rect id="Rectangle" x="0" y="0" width="24" height="24"></rect>
        </g>
    </g>
</svg>