<?xml version="1.0" encoding="UTF-8"?>
<svg width="24px" height="24px" viewBox="0 0 24 24" version="1.1" xmlns="http://www.w3.org/2000/svg" xmlns:xlink="http://www.w3.org/1999/xlink">
    <!-- Generator: Sketch 50 (54983) - http://www.bohemiancoding.com/sketch -->
    <title>icon/notification/event_note_24px_rounded</title>
    <desc>Created with Sketch.</desc>
    <defs>
        <path d="M16,11 L8,11 C7.45,11 7,11.45 7,12 C7,12.55 7.45,13 8,13 L16,13 C16.55,13 17,12.55 17,12 C17,11.45 16.55,11 16,11 Z M19,4 L18,4 L18,3 C18,2.45 17.55,2 17,2 C16.45,2 16,2.45 16,3 L16,4 L8,4 L8,3 C8,2.45 7.55,2 7,2 C6.45,2 6,2.45 6,3 L6,4 L5,4 C3.89,4 3,4.9 3,6 L3,20 C3,21.1 3.89,22 5,22 L19,22 C20.1,22 21,21.1 21,20 L21,6 C21,4.9 20.1,4 19,4 Z M18,20 L6,20 C5.45,20 5,19.55 5,19 L5,9 L19,9 L19,19 C19,19.55 18.55,20 18,20 Z M13,15 L8,15 C7.45,15 7,15.45 7,16 C7,16.55 7.45,17 8,17 L13,17 C13.55,17 14,16.55 14,16 C14,15.45 13.55,15 13,15 Z" id="path-1"></path>
    </defs>
    <g id="icon/notification/event_note_24px" stroke="none" stroke-width="1" fill="none" fill-rule="evenodd">
        <mask id="mask-2" fill="white">
            <use xlink:href="#path-1"></use>
        </mask>
        <g fill-rule="nonzero"></g>
        <g id="✱-/-Color-/-Icons-/-Black-/-Inactive" mask="url(#mask-2)" fill="#000000" fill-opacity="0.54">
            <rect id="Rectangle" x="0" y="0" width="24" height="24"></rect>
        </g>
    </g>
</svg>