<?xml version="1.0" encoding="UTF-8"?>
<svg width="24px" height="24px" viewBox="0 0 24 24" version="1.1" xmlns="http://www.w3.org/2000/svg" xmlns:xlink="http://www.w3.org/1999/xlink">
    <!-- Generator: Sketch 50 (54983) - http://www.bohemiancoding.com/sketch -->
    <title>icon/notification/event_available_24px_rounded</title>
    <desc>Created with Sketch.</desc>
    <defs>
        <path d="M16,11.53 C15.71,11.24 15.23,11.24 14.94,11.53 L10.59,15.88 L9,14.29 C8.71,14 8.23,14 7.94,14.29 C7.65,14.58 7.65,15.06 7.94,15.35 L9.88,17.29 C10.27,17.68 10.9,17.68 11.29,17.29 L15.99,12.59 C16.29,12.3 16.29,11.82 16,11.53 Z M19,4 L18,4 L18,3 C18,2.45 17.55,2 17,2 C16.45,2 16,2.45 16,3 L16,4 L8,4 L8,3 C8,2.45 7.55,2 7,2 C6.45,2 6,2.45 6,3 L6,4 L5,4 C3.89,4 3.01,4.9 3.01,6 L3,20 C3,21.1 3.89,22 5,22 L19,22 C20.1,22 21,21.1 21,20 L21,6 C21,4.9 20.1,4 19,4 Z M18,20 L6,20 C5.45,20 5,19.55 5,19 L5,9 L19,9 L19,19 C19,19.55 18.55,20 18,20 Z" id="path-1"></path>
    </defs>
    <g id="icon/notification/event_available_24px" stroke="none" stroke-width="1" fill="none" fill-rule="evenodd">
        <mask id="mask-2" fill="white">
            <use xlink:href="#path-1"></use>
        </mask>
        <g fill-rule="nonzero"></g>
        <g id="✱-/-Color-/-Icons-/-Black-/-Inactive" mask="url(#mask-2)" fill="#000000" fill-opacity="0.54">
            <rect id="Rectangle" x="0" y="0" width="24" height="24"></rect>
        </g>
    </g>
</svg>