<?xml version="1.0" encoding="UTF-8"?>
<svg width="24px" height="24px" viewBox="0 0 24 24" version="1.1" xmlns="http://www.w3.org/2000/svg" xmlns:xlink="http://www.w3.org/1999/xlink">
    <!-- Generator: Sketch 50 (54983) - http://www.bohemiancoding.com/sketch -->
    <title>icon/notification/live_tv_24px_rounded</title>
    <desc>Created with Sketch.</desc>
    <defs>
        <path d="M10.5,17.05 L14.48,14.77 C15.15,14.39 15.15,13.42 14.48,13.03 L10.5,10.75 C9.83,10.37 9,10.86 9,11.62 L9,16.17 C9,16.94 9.83,17.43 10.5,17.05 Z M21,5.9 L13.41,5.9 L16.35,2.96 C16.55,2.76 16.55,2.45 16.35,2.25 C16.15,2.05 15.84,2.05 15.64,2.25 L12,5.89 L8.36,2.25 C8.16,2.05 7.85,2.05 7.65,2.25 C7.45,2.45 7.45,2.76 7.65,2.96 L10.59,5.9 L3,5.9 C1.9,5.9 1,6.79 1,7.9 L1,19.9 C1,21 1.9,21.9 3,21.9 L21,21.9 C22.1,21.9 23,21 23,19.9 L23,7.9 C23,6.79 22.1,5.9 21,5.9 Z M20,19.9 L4,19.9 C3.45,19.9 3,19.45 3,18.9 L3,8.9 C3,8.35 3.45,7.9 4,7.9 L20,7.9 C20.55,7.9 21,8.35 21,8.9 L21,18.9 C21,19.45 20.55,19.9 20,19.9 Z" id="path-1"></path>
    </defs>
    <g id="icon/notification/live_tv_24px" stroke="none" stroke-width="1" fill="none" fill-rule="evenodd">
        <mask id="mask-2" fill="white">
            <use xlink:href="#path-1"></use>
        </mask>
        <g fill-rule="nonzero"></g>
        <g id="✱-/-Color-/-Icons-/-Black-/-Inactive" mask="url(#mask-2)" fill="#000000" fill-opacity="0.54">
            <rect id="Rectangle" x="0" y="0" width="24" height="24"></rect>
        </g>
    </g>
</svg>