<?xml version="1.0" encoding="UTF-8"?>
<svg width="24px" height="24px" viewBox="0 0 24 24" version="1.1" xmlns="http://www.w3.org/2000/svg" xmlns:xlink="http://www.w3.org/1999/xlink">
    <!-- Generator: Sketch 50 (54983) - http://www.bohemiancoding.com/sketch -->
    <title>icon/notification/network_check_24px_rounded</title>
    <desc>Created with Sketch.</desc>
    <defs>
        <path d="M15.9005281,4.76761524 C15.7305281,4.76761524 15.5805281,4.85761524 15.4905281,4.99761524 L15.4205281,5.14761524 L10.2405281,16.7976152 C10.0805281,17.0876152 9.98052808,17.4076152 9.98052808,17.7576152 C9.98052808,18.8676152 10.8805281,19.7676152 11.9905281,19.7676152 C12.9505281,19.7676152 13.7605281,19.0876152 13.9505281,18.1776152 L13.9605281,18.1476152 L16.4005281,5.26761524 C16.4005281,4.98761524 16.1805281,4.76761524 15.9005281,4.76761524 Z M2.06052808,9.82761524 C2.57052808,10.3376152 3.39052808,10.3776152 3.95052808,9.91761524 C6.71052808,7.65761524 10.1905281,6.73761524 13.5305281,7.15761524 L14.7205281,4.47761524 C10.3705281,3.69761524 5.76052808,4.77761524 2.15052808,7.72761524 C1.51052808,8.25761524 1.47052808,9.23761524 2.06052808,9.82761524 Z M21.9405281,9.82761524 C22.5305281,9.23761524 22.4905281,8.25761524 21.8405281,7.72761524 C20.4805281,6.61761524 18.9805281,5.77761524 17.4005281,5.19761524 L16.8705281,8.01761524 C18.0005281,8.48761524 19.0605281,9.10761524 20.0405281,9.90761524 C20.6205281,10.3676152 21.4305281,10.3376152 21.9405281,9.82761524 Z M17.9105281,13.8576152 C18.5105281,13.2576152 18.4705281,12.2276152 17.7705281,11.7376152 C17.3105281,11.4076152 16.8305281,11.1276152 16.3305281,10.8776152 L15.7805281,13.7976152 C15.8905281,13.8676152 16.0005281,13.9376152 16.1005281,14.0176152 C16.6705281,14.4176152 17.4305281,14.3376152 17.9105281,13.8576152 Z M6.08052808,13.8476152 C6.58052808,14.3476152 7.35052808,14.3876152 7.93052808,13.9776152 C8.87052808,13.3176152 9.94052808,12.9176152 11.0305281,12.7576152 L12.3105281,9.87761524 C10.1805281,9.81761524 8.03052808,10.4176152 6.22052808,11.7176152 C5.53052808,12.2276152 5.48052808,13.2476152 6.08052808,13.8476152 Z" id="path-1"></path>
    </defs>
    <g id="icon/notification/network_check_24px" stroke="none" stroke-width="1" fill="none" fill-rule="evenodd">
        <mask id="mask-2" fill="white">
            <use xlink:href="#path-1"></use>
        </mask>
        <g fill-rule="nonzero"></g>
        <g id="✱-/-Color-/-Icons-/-Black-/-Inactive" mask="url(#mask-2)" fill="#000000" fill-opacity="0.54">
            <rect id="Rectangle" x="0" y="0" width="24" height="24"></rect>
        </g>
    </g>
</svg>