<?xml version="1.0" encoding="UTF-8"?>
<svg width="24px" height="24px" viewBox="0 0 24 24" version="1.1" xmlns="http://www.w3.org/2000/svg" xmlns:xlink="http://www.w3.org/1999/xlink">
    <!-- Generator: Sketch 50 (54983) - http://www.bohemiancoding.com/sketch -->
    <title>icon/notification/network_locked_24px_rounded</title>
    <desc>Created with Sketch.</desc>
    <defs>
        <path d="M21.2932386,15.7970058 L21.2932386,15.2970058 C21.2932386,13.9170058 20.1732386,12.7970058 18.7932386,12.7970058 C17.4132386,12.7970058 16.2932386,13.9170058 16.2932386,15.2970058 L16.2932386,15.7970058 C15.7432386,15.7970058 15.2932386,16.2470058 15.2932386,16.7970058 L15.2932386,20.7970058 C15.2932386,21.3470058 15.7432386,21.7970058 16.2932386,21.7970058 L21.2932386,21.7970058 C21.8432386,21.7970058 22.2932386,21.3470058 22.2932386,20.7970058 L22.2932386,16.7970058 C22.2932386,16.2470058 21.8432386,15.7970058 21.2932386,15.7970058 Z M20.2932386,15.7970058 L17.2932386,15.7970058 L17.2932386,15.2970058 C17.2932386,14.4670058 17.9632386,13.7970058 18.7932386,13.7970058 C19.6232386,13.7970058 20.2932386,14.4670058 20.2932386,15.2970058 L20.2932386,15.7970058 Z M18.7932386,10.7970058 C18.9632386,10.7970058 19.1232386,10.8270058 19.2932386,10.8470058 L19.2932386,3.20700582 C19.2932386,2.31700582 18.2132386,1.86700582 17.5832386,2.49700582 L2.00323859,18.0870058 C1.37323859,18.7170058 1.81323859,19.7970058 2.70323859,19.7970058 L13.2932386,19.7970058 L13.2932386,16.7970058 C13.2932386,15.8770058 13.7132386,15.0570058 14.3632386,14.4970058 C14.7432386,12.3970058 16.5832386,10.7970058 18.7932386,10.7970058 Z" id="path-1"></path>
    </defs>
    <g id="icon/notification/network_locked_24px" stroke="none" stroke-width="1" fill="none" fill-rule="evenodd">
        <mask id="mask-2" fill="white">
            <use xlink:href="#path-1"></use>
        </mask>
        <g fill-rule="nonzero"></g>
        <g id="✱-/-Color-/-Icons-/-Black-/-Inactive" mask="url(#mask-2)" fill="#000000" fill-opacity="0.54">
            <rect id="Rectangle" x="0" y="0" width="24" height="24"></rect>
        </g>
    </g>
</svg>