<?xml version="1.0" encoding="UTF-8"?>
<svg width="24px" height="24px" viewBox="0 0 24 24" version="1.1" xmlns="http://www.w3.org/2000/svg" xmlns:xlink="http://www.w3.org/1999/xlink">
    <!-- Generator: Sketch 50 (54983) - http://www.bohemiancoding.com/sketch -->
    <title>icon/notification/phone_missed_24px_rounded</title>
    <desc>Created with Sketch.</desc>
    <defs>
        <path d="M23.0925,16.2915716 C16.7625,10.7015716 7.23250001,10.7015716 0.912500009,16.2915716 C0.072500009,17.0315716 0.072500009,18.3415716 0.862500009,19.1315716 L2.06250001,20.3315716 C2.77250001,21.0415716 3.90250001,21.1015716 4.68250001,20.4815716 L6.65250001,18.9115716 C7.12250001,18.5415716 7.40250001,17.9715716 7.40250001,17.3615716 L7.40250001,14.7915716 C10.3825,13.8215716 13.6125,13.8115716 16.6025,14.7915716 L16.6025,17.3715716 C16.6025,17.9715716 16.8825,18.5415716 17.3525,18.9215716 L19.3125,20.4815716 C20.1025,21.1015716 21.2225,21.0415716 21.9325,20.3315716 L23.1325,19.1315716 C23.9325,18.3415716 23.9225,17.0315716 23.0925,16.2915716 Z M6.00250001,9.09157165 C6.55250001,9.09157165 7.00250001,8.64157165 7.00250001,8.09157165 L7.00250001,6.52157165 L11.2425,10.7615716 C11.6325,11.1515716 12.2625,11.1515716 12.6525,10.7615716 L18.3125,5.10157165 C18.7025,4.71157165 18.7025,4.08157165 18.3125,3.69157165 C18.1256685,3.50431897 17.8720177,3.39908604 17.6075,3.39908604 C17.3429824,3.39908604 17.0893315,3.50431897 16.9025,3.69157165 L11.9525,8.64157165 L8.40250001,5.09157165 L10.0025,5.09157165 C10.5525,5.09157165 11.0025,4.64157165 11.0025,4.09157165 C11.0025,3.54157165 10.5525,3.09157165 10.0025,3.09157165 L6.00250001,3.09157165 C5.45250001,3.09157165 5.00250001,3.54157165 5.00250001,4.09157165 L5.00250001,8.09157165 C5.00250001,8.64157165 5.45250001,9.09157165 6.00250001,9.09157165 Z" id="path-1"></path>
    </defs>
    <g id="icon/notification/phone_missed_24px" stroke="none" stroke-width="1" fill="none" fill-rule="evenodd">
        <mask id="mask-2" fill="white">
            <use xlink:href="#path-1"></use>
        </mask>
        <g fill-rule="nonzero"></g>
        <g id="✱-/-Color-/-Icons-/-Black-/-Inactive" mask="url(#mask-2)" fill="#000000" fill-opacity="0.54">
            <rect id="Rectangle" x="0" y="0" width="24" height="24"></rect>
        </g>
    </g>
</svg>