<?xml version="1.0" encoding="UTF-8"?>
<svg width="24px" height="24px" viewBox="0 0 24 24" version="1.1" xmlns="http://www.w3.org/2000/svg" xmlns:xlink="http://www.w3.org/1999/xlink">
    <!-- Generator: Sketch 50 (54983) - http://www.bohemiancoding.com/sketch -->
    <title>icon/notification/phone_forwarded_24px_rounded</title>
    <desc>Created with Sketch.</desc>
    <defs>
        <path d="M21.7411997,6.30893047 L17.9511997,2.51893047 C17.6311997,2.19893047 17.0911997,2.41893047 17.0911997,2.86893047 L17.0911997,4.65893047 L13.5911997,4.65893047 C13.3111997,4.65893047 13.0911997,4.87893047 13.0911997,5.15893047 L13.0911997,8.15893047 C13.0911997,8.43893047 13.3111997,8.65893047 13.5911997,8.65893047 L17.0911997,8.65893047 L17.0911997,10.4489305 C17.0911997,10.8989305 17.6311997,11.1189305 17.9411997,10.7989305 L21.7311997,7.00893047 C21.9311997,6.81893047 21.9311997,6.49893047 21.7411997,6.30893047 Z M18.3211997,15.9189305 L15.7811997,15.6289305 C15.1711997,15.5589305 14.5711997,15.7689305 14.1411997,16.1989305 L12.3011997,18.0389305 C9.47119972,16.5989305 7.15119972,14.2889305 5.71119972,11.4489305 L7.56119972,9.59893047 C7.99119972,9.16893047 8.20119972,8.56893047 8.13119972,7.95893047 L7.84119972,5.43893047 C7.72119972,4.42893047 6.87119972,3.66893047 5.85119972,3.66893047 L4.12119972,3.66893047 C2.99119972,3.66893047 2.05119972,4.60893047 2.12119972,5.73893047 C2.65119972,14.2789305 9.48119972,21.0989305 18.0111997,21.6289305 C19.1411997,21.6989305 20.0811997,20.7589305 20.0811997,19.6289305 L20.0811997,17.8989305 C20.0911997,16.8889305 19.3311997,16.0389305 18.3211997,15.9189305 Z" id="path-1"></path>
    </defs>
    <g id="icon/notification/phone_forwarded_24px" stroke="none" stroke-width="1" fill="none" fill-rule="evenodd">
        <mask id="mask-2" fill="white">
            <use xlink:href="#path-1"></use>
        </mask>
        <g fill-rule="nonzero"></g>
        <g id="✱-/-Color-/-Icons-/-Black-/-Inactive" mask="url(#mask-2)" fill="#000000" fill-opacity="0.54">
            <rect id="Rectangle" x="0" y="0" width="24" height="24"></rect>
        </g>
    </g>
</svg>