<?xml version="1.0" encoding="UTF-8"?>
<svg width="24px" height="24px" viewBox="0 0 24 24" version="1.1" xmlns="http://www.w3.org/2000/svg" xmlns:xlink="http://www.w3.org/1999/xlink">
    <!-- Generator: Sketch 50 (54983) - http://www.bohemiancoding.com/sketch -->
    <title>icon/notification/phone_bluetooth_speaker_24px_rounded</title>
    <desc>Created with Sketch.</desc>
    <defs>
        <path d="M19.221788,16.2022532 L16.681788,15.9122532 C16.071788,15.8422532 15.471788,16.0522532 15.041788,16.4822532 L13.201788,18.3222532 C10.371788,16.8822532 8.05178797,14.5722532 6.61178797,11.7322532 L8.46178797,9.88225319 C8.89178797,9.45225319 9.10178797,8.85225319 9.03178797,8.24225319 L8.74178797,5.72225319 C8.62178797,4.71225319 7.77178797,3.95225319 6.75178797,3.95225319 L5.02178797,3.95225319 C3.89178797,3.95225319 2.95178797,4.89225319 3.02178797,6.02225319 C3.55178797,14.5622532 10.381788,21.3822532 18.911788,21.9122532 C20.041788,21.9822532 20.981788,21.0422532 20.981788,19.9122532 L20.981788,18.1822532 C20.991788,17.1722532 20.231788,16.3222532 19.221788,16.2022532 Z M16.781788,6.95225319 L14.331788,9.40225319 C14.131788,9.60225319 14.131788,9.92225319 14.331788,10.1122532 C14.531788,10.3122532 14.851788,10.3122532 15.041788,10.1122532 L16.991788,8.17225319 L16.991788,11.3222532 C16.991788,11.5222532 17.111788,11.7122532 17.301788,11.7922532 C17.361788,11.8222532 17.431788,11.8322532 17.491788,11.8322532 C17.621788,11.8322532 17.751788,11.7822532 17.851788,11.6822532 L20.031788,9.50225319 C20.231788,9.30225319 20.231788,8.98225319 20.031788,8.79225319 L18.201788,6.96225319 L20.031788,5.13225319 C20.121788,5.04225319 20.181788,4.91225319 20.181788,4.77225319 C20.181788,4.63225319 20.131788,4.51225319 20.031788,4.41225319 L17.851788,2.23225319 C17.711788,2.09225319 17.491788,2.04225319 17.301788,2.12225319 C17.111788,2.20225319 16.991788,2.38225319 16.991788,2.58225319 L16.991788,5.73225319 L15.041788,3.78225319 C14.841788,3.58225319 14.521788,3.58225319 14.331788,3.78225319 C14.131788,3.98225319 14.131788,4.30225319 14.331788,4.49225319 L16.781788,6.95225319 Z M18.001788,3.80225319 L18.961788,4.76225319 L18.001788,5.72225319 L18.001788,3.80225319 Z M18.001788,8.17225319 L18.961788,9.13225319 L18.001788,10.0922532 L18.001788,8.17225319 Z" id="path-1"></path>
    </defs>
    <g id="icon/notification/phone_bluetooth_speaker_24px" stroke="none" stroke-width="1" fill="none" fill-rule="evenodd">
        <mask id="mask-2" fill="white">
            <use xlink:href="#path-1"></use>
        </mask>
        <g fill-rule="nonzero"></g>
        <g id="✱-/-Color-/-Icons-/-Black-/-Inactive" mask="url(#mask-2)" fill="#000000" fill-opacity="0.54">
            <rect id="Rectangle" x="0" y="0" width="24" height="24"></rect>
        </g>
    </g>
</svg>