<?xml version="1.0" encoding="UTF-8"?>
<svg width="24px" height="24px" viewBox="0 0 24 24" version="1.1" xmlns="http://www.w3.org/2000/svg" xmlns:xlink="http://www.w3.org/1999/xlink">
    <!-- Generator: Sketch 50 (54983) - http://www.bohemiancoding.com/sketch -->
    <title>icon/notification/phone_in_talk_24px_rounded</title>
    <desc>Created with Sketch.</desc>
    <defs>
        <path d="M12.871788,5.05816326 C16.051788,5.45816326 18.541788,7.94816326 18.941788,11.1281633 C19.001788,11.6381633 19.431788,12.0081633 19.931788,12.0081633 C19.971788,12.0081633 20.011788,12.0081633 20.051788,11.9981633 C20.601788,11.9281633 20.991788,11.4281633 20.921788,10.8781633 C20.411788,6.78816326 17.201788,3.57816326 13.111788,3.06816326 C12.561788,3.00816326 12.061788,3.39816326 12.001788,3.94816326 C11.931788,4.49816326 12.321788,4.99816326 12.871788,5.05816326 Z M13.251788,7.16816326 C12.721788,7.02816326 12.171788,7.34816326 12.031788,7.88816326 C11.891788,8.42816326 12.211788,8.96816326 12.751788,9.10816326 C13.801788,9.37816326 14.621788,10.1981633 14.901788,11.2581633 C15.021788,11.7081633 15.421788,12.0081633 15.871788,12.0081633 C15.951788,12.0081633 16.041788,11.9981633 16.121788,11.9781633 C16.651788,11.8381633 16.971788,11.2881633 16.841788,10.7581633 C16.371788,8.98816326 15.001788,7.61816326 13.251788,7.16816326 Z M19.221788,15.2681633 L16.681788,14.9781633 C16.071788,14.9081633 15.471788,15.1181633 15.041788,15.5481633 L13.201788,17.3881633 C10.371788,15.9481633 8.05178797,13.6381633 6.61178797,10.7981633 L8.46178797,8.94816326 C8.89178797,8.51816326 9.10178797,7.91816326 9.03178797,7.30816326 L8.74178797,4.78816326 C8.62178797,3.77816326 7.77178797,3.01816326 6.75178797,3.01816326 L5.02178797,3.01816326 C3.89178797,3.01816326 2.95178797,3.95816326 3.02178797,5.08816326 C3.55178797,13.6281633 10.381788,20.4481633 18.911788,20.9781633 C20.041788,21.0481633 20.981788,20.1081633 20.981788,18.9781633 L20.981788,17.2481633 C20.991788,16.2381633 20.231788,15.3881633 19.221788,15.2681633 Z" id="path-1"></path>
    </defs>
    <g id="icon/notification/phone_in_talk_24px" stroke="none" stroke-width="1" fill="none" fill-rule="evenodd">
        <mask id="mask-2" fill="white">
            <use xlink:href="#path-1"></use>
        </mask>
        <g fill-rule="nonzero"></g>
        <g id="✱-/-Color-/-Icons-/-Black-/-Inactive" mask="url(#mask-2)" fill="#000000" fill-opacity="0.54">
            <rect id="Rectangle" x="0" y="0" width="24" height="24"></rect>
        </g>
    </g>
</svg>