<?xml version="1.0" encoding="UTF-8"?>
<svg width="24px" height="24px" viewBox="0 0 24 24" version="1.1" xmlns="http://www.w3.org/2000/svg" xmlns:xlink="http://www.w3.org/1999/xlink">
    <!-- Generator: Sketch 50 (54983) - http://www.bohemiancoding.com/sketch -->
    <title>icon/notification/phone_callback_24px_rounded</title>
    <desc>Created with Sketch.</desc>
    <defs>
        <path d="M19.221788,15.2794133 L16.681788,14.9894133 C16.071788,14.9194133 15.471788,15.1294133 15.041788,15.5594133 L13.201788,17.3994133 C10.371788,15.9594133 8.05178797,13.6494133 6.61178797,10.8094133 L8.46178797,8.95941326 C8.89178797,8.52941326 9.10178797,7.92941326 9.03178797,7.31941326 L8.74178797,4.79941326 C8.62178797,3.78941326 7.77178797,3.02941326 6.75178797,3.02941326 L5.02178797,3.02941326 C3.89178797,3.02941326 2.95178797,3.96941326 3.02178797,5.09941326 C3.55178797,13.6394133 10.381788,20.4594133 18.911788,20.9894133 C20.041788,21.0594133 20.981788,20.1194133 20.981788,18.9894133 L20.981788,17.2594133 C20.991788,16.2494133 20.231788,15.3994133 19.221788,15.2794133 Z M12.991788,11.0194133 L16.991788,11.0194133 C17.541788,11.0194133 17.991788,10.5694133 17.991788,10.0194133 C17.991788,9.46941326 17.541788,9.01941326 16.991788,9.01941326 L15.401788,9.01941326 L19.711788,4.70941326 C20.101788,4.31941326 20.101788,3.68941326 19.711788,3.29941326 C19.321788,2.90941326 18.691788,2.90941326 18.301788,3.29941326 L13.991788,7.60941326 L13.991788,6.01941326 C13.991788,5.46941326 13.541788,5.01941326 12.991788,5.01941326 C12.441788,5.01941326 11.991788,5.46941326 11.991788,6.01941326 L11.991788,10.0194133 C11.991788,10.5694133 12.441788,11.0194133 12.991788,11.0194133 Z" id="path-1"></path>
    </defs>
    <g id="icon/notification/phone_callback_24px" stroke="none" stroke-width="1" fill="none" fill-rule="evenodd">
        <mask id="mask-2" fill="white">
            <use xlink:href="#path-1"></use>
        </mask>
        <g fill-rule="nonzero"></g>
        <g id="✱-/-Color-/-Icons-/-Black-/-Inactive" mask="url(#mask-2)" fill="#000000" fill-opacity="0.54">
            <rect id="Rectangle" x="0" y="0" width="24" height="24"></rect>
        </g>
    </g>
</svg>