<?xml version="1.0" encoding="UTF-8"?>
<svg width="24px" height="24px" viewBox="0 0 24 24" version="1.1" xmlns="http://www.w3.org/2000/svg" xmlns:xlink="http://www.w3.org/1999/xlink">
    <!-- Generator: Sketch 50 (54983) - http://www.bohemiancoding.com/sketch -->
    <title>icon/notification/phone_paused_24px_rounded</title>
    <desc>Created with Sketch.</desc>
    <defs>
        <path d="M15.9868367,3.01316326 C15.4368367,3.01316326 14.9868367,3.46316326 14.9868367,4.01316326 L14.9868367,9.01316326 C14.9868367,9.56316326 15.4368367,10.0131633 15.9868367,10.0131633 C16.5368367,10.0131633 16.9868367,9.56316326 16.9868367,9.01316326 L16.9868367,4.01316326 C16.9868367,3.46316326 16.5368367,3.01316326 15.9868367,3.01316326 Z M18.9868367,4.01316326 L18.9868367,9.01316326 C18.9868367,9.56316326 19.4368367,10.0131633 19.9868367,10.0131633 C20.5368367,10.0131633 20.9868367,9.56316326 20.9868367,9.01316326 L20.9868367,4.01316326 C20.9868367,3.46316326 20.5368367,3.01316326 19.9868367,3.01316326 C19.4368367,3.01316326 18.9868367,3.46316326 18.9868367,4.01316326 Z M19.2168367,15.2731633 L16.6768367,14.9831633 C16.0668367,14.9131633 15.4668367,15.1231633 15.0368367,15.5531633 L13.1968367,17.3931633 C10.3668367,15.9531633 8.04683674,13.6431633 6.60683674,10.8031633 L8.45683674,8.95316326 C8.88683674,8.52316326 9.09683674,7.92316326 9.02683674,7.31316326 L8.73683674,4.79316326 C8.61683674,3.78316326 7.76683674,3.02316326 6.74683674,3.02316326 L5.01683674,3.02316326 C3.88683674,3.02316326 2.94683674,3.96316326 3.01683674,5.09316326 C3.54683674,13.6331633 10.3768367,20.4531633 18.9068367,20.9831633 C20.0368367,21.0531633 20.9768367,20.1131633 20.9768367,18.9831633 L20.9768367,17.2531633 C20.9868367,16.2431633 20.2268367,15.3931633 19.2168367,15.2731633 Z" id="path-1"></path>
    </defs>
    <g id="icon/notification/phone_paused_24px" stroke="none" stroke-width="1" fill="none" fill-rule="evenodd">
        <mask id="mask-2" fill="white">
            <use xlink:href="#path-1"></use>
        </mask>
        <g fill-rule="nonzero"></g>
        <g id="✱-/-Color-/-Icons-/-Black-/-Inactive" mask="url(#mask-2)" fill="#000000" fill-opacity="0.54">
            <rect id="Rectangle" x="0" y="0" width="24" height="24"></rect>
        </g>
    </g>
</svg>