<?xml version="1.0" encoding="UTF-8"?>
<svg width="24px" height="24px" viewBox="0 0 24 24" version="1.1" xmlns="http://www.w3.org/2000/svg" xmlns:xlink="http://www.w3.org/1999/xlink">
    <!-- Generator: Sketch 50 (54983) - http://www.bohemiancoding.com/sketch -->
    <title>icon/notification/phone_locked_24px_rounded</title>
    <desc>Created with Sketch.</desc>
    <defs>
        <path d="M19.2168367,16.2731633 L16.6768367,15.9831633 C16.0668367,15.9131633 15.4668367,16.1231633 15.0368367,16.5531633 L13.1968367,18.3931633 C10.3668367,16.9531633 8.04683674,14.6431633 6.60683674,11.8031633 L8.45683674,9.95316326 C8.88683674,9.52316326 9.09683674,8.92316326 9.02683674,8.31316326 L8.73683674,5.79316326 C8.61683674,4.78316326 7.76683674,4.02316326 6.74683674,4.02316326 L5.01683674,4.02316326 C3.88683674,4.02316326 2.94683674,4.96316326 3.01683674,6.09316326 C3.54683674,14.6331633 10.3768367,21.4531633 18.9068367,21.9831633 C20.0368367,22.0531633 20.9768367,21.1131633 20.9768367,19.9831633 L20.9768367,18.2531633 C20.9868367,17.2431633 20.2268367,16.3931633 19.2168367,16.2731633 Z M19.9868367,5.01316326 L19.9868367,4.51316326 C19.9868367,3.13316326 18.8668367,2.01316326 17.4868367,2.01316326 C16.1068367,2.01316326 14.9868367,3.13316326 14.9868367,4.51316326 L14.9868367,5.01316326 C14.4368367,5.01316326 13.9868367,5.46316326 13.9868367,6.01316326 L13.9868367,10.0131633 C13.9868367,10.5631633 14.4368367,11.0131633 14.9868367,11.0131633 L19.9868367,11.0131633 C20.5368367,11.0131633 20.9868367,10.5631633 20.9868367,10.0131633 L20.9868367,6.01316326 C20.9868367,5.46316326 20.5368367,5.01316326 19.9868367,5.01316326 Z M18.9868367,5.01316326 L15.9868367,5.01316326 L15.9868367,4.51316326 C15.9868367,3.68316326 16.6568367,3.01316326 17.4868367,3.01316326 C18.3168367,3.01316326 18.9868367,3.68316326 18.9868367,4.51316326 L18.9868367,5.01316326 Z" id="path-1"></path>
    </defs>
    <g id="icon/notification/phone_locked_24px" stroke="none" stroke-width="1" fill="none" fill-rule="evenodd">
        <mask id="mask-2" fill="white">
            <use xlink:href="#path-1"></use>
        </mask>
        <g fill-rule="nonzero"></g>
        <g id="✱-/-Color-/-Icons-/-Black-/-Inactive" mask="url(#mask-2)" fill="#000000" fill-opacity="0.54">
            <rect id="Rectangle" x="0" y="0" width="24" height="24"></rect>
        </g>
    </g>
</svg>