<?xml version="1.0" encoding="UTF-8"?>
<svg width="24px" height="24px" viewBox="0 0 24 24" version="1.1" xmlns="http://www.w3.org/2000/svg" xmlns:xlink="http://www.w3.org/1999/xlink">
    <!-- Generator: Sketch 50 (54983) - http://www.bohemiancoding.com/sketch -->
    <title>icon/notification/power_off_24px_rounded</title>
    <desc>Created with Sketch.</desc>
    <defs>
        <path d="M18.215,13.37375 L18.215,8.70375 C18.215,7.70375 17.205,6.70375 16.215,6.71375 L16.215,3.71375 C16.215,3.16375 15.765,2.71375 15.215,2.71375 C14.665,2.71375 14.215,3.16375 14.215,3.71375 L14.215,6.71375 L10.335,6.71375 L17.965,14.34375 C18.115,14.04375 18.215,13.71375 18.215,13.37375 Z M10.215,3.71375 C10.215,3.16375 9.765,2.71375 9.215,2.71375 C8.665,2.71375 8.215,3.16375 8.215,3.71375 L8.215,4.59375 L10.215,6.59375 L10.215,3.71375 Z M20.365,19.57375 L12.705,11.91375 L7.605,6.81375 L5.045,4.25375 C4.85816847,4.06649733 4.60451764,3.96126439 4.34,3.96126439 C4.07548236,3.96126439 3.82183153,4.06649733 3.635,4.25375 C3.245,4.64375 3.245,5.27375 3.635,5.66375 L6.265,8.29375 C6.235,8.42375 6.215,8.56375 6.215,8.70375 L6.215,13.36375 C6.215,13.89375 6.425,14.40375 6.795,14.77375 L9.715,17.71375 L9.715,19.71375 C9.715,20.26375 10.165,20.71375 10.715,20.71375 L13.715,20.71375 C14.265,20.71375 14.715,20.26375 14.715,19.71375 L14.715,17.71375 L15.195,17.23375 L18.955,20.99375 C19.345,21.38375 19.975,21.38375 20.365,20.99375 C20.755,20.60375 20.755,19.96375 20.365,19.57375 Z" id="path-1"></path>
    </defs>
    <g id="icon/notification/power_off_24px" stroke="none" stroke-width="1" fill="none" fill-rule="evenodd">
        <mask id="mask-2" fill="white">
            <use xlink:href="#path-1"></use>
        </mask>
        <g fill-rule="nonzero"></g>
        <g id="✱-/-Color-/-Icons-/-Black-/-Inactive" mask="url(#mask-2)" fill="#000000" fill-opacity="0.54">
            <rect id="Rectangle" x="0" y="0" width="24" height="24"></rect>
        </g>
    </g>
</svg>