<?xml version="1.0" encoding="UTF-8"?>
<svg width="24px" height="24px" viewBox="0 0 24 24" version="1.1" xmlns="http://www.w3.org/2000/svg" xmlns:xlink="http://www.w3.org/1999/xlink">
    <!-- Generator: Sketch 50 (54983) - http://www.bohemiancoding.com/sketch -->
    <title>icon/notification/power_24px_rounded</title>
    <desc>Created with Sketch.</desc>
    <defs>
        <path d="M16.01,7 L16,4 C16,3.45 15.55,3 15,3 C14.45,3 14,3.45 14,4 L14,7 L10,7 L10,4 C10,3.45 9.55,3 9,3 C8.45,3 8,3.45 8,4 L8,7 L7.99,7 C6.9,7 6,7.9 6,8.99 L6,13.65 C6,14.18 6.21,14.69 6.58,15.06 L9.5,18 L9.5,20 C9.5,20.55 9.95,21 10.5,21 L13.5,21 C14.05,21 14.5,20.55 14.5,20 L14.5,18 L17.42,15.08 C17.79,14.7 18,14.19 18,13.66 L18,8.99 C18,7.89 17.11,7 16.01,7 Z" id="path-1"></path>
    </defs>
    <g id="icon/notification/power_24px" stroke="none" stroke-width="1" fill="none" fill-rule="evenodd">
        <mask id="mask-2" fill="white">
            <use xlink:href="#path-1"></use>
        </mask>
        <g fill-rule="nonzero"></g>
        <g id="✱-/-Color-/-Icons-/-Black-/-Inactive" mask="url(#mask-2)" fill="#000000" fill-opacity="0.54">
            <rect id="Rectangle" x="0" y="0" width="24" height="24"></rect>
        </g>
    </g>
</svg>