<?xml version="1.0" encoding="UTF-8"?>
<svg width="24px" height="24px" viewBox="0 0 24 24" version="1.1" xmlns="http://www.w3.org/2000/svg" xmlns:xlink="http://www.w3.org/1999/xlink">
    <!-- Generator: Sketch 50 (54983) - http://www.bohemiancoding.com/sketch -->
    <title>icon/notification/priority_high_24px_rounded</title>
    <desc>Created with Sketch.</desc>
    <defs>
        <path d="M12,17 C10.8954305,17 10,17.8954305 10,19 C10,20.1045695 10.8954305,21 12,21 C13.1045695,21 14,20.1045695 14,19 C14,17.8954305 13.1045695,17 12,17 Z M12,3 C10.9,3 10,3.9 10,5 L10,13 C10,14.1 10.9,15 12,15 C13.1,15 14,14.1 14,13 L14,5 C14,3.9 13.1,3 12,3 Z" id="path-1"></path>
    </defs>
    <g id="icon/notification/priority_high_24px" stroke="none" stroke-width="1" fill="none" fill-rule="evenodd">
        <mask id="mask-2" fill="white">
            <use xlink:href="#path-1"></use>
        </mask>
        <g fill-rule="nonzero"></g>
        <g id="✱-/-Color-/-Icons-/-Black-/-Inactive" mask="url(#mask-2)" fill="#000000" fill-opacity="0.54">
            <rect id="Rectangle" x="0" y="0" width="24" height="24"></rect>
        </g>
    </g>
</svg>