<?xml version="1.0" encoding="UTF-8"?>
<svg width="24px" height="24px" viewBox="0 0 24 24" version="1.1" xmlns="http://www.w3.org/2000/svg" xmlns:xlink="http://www.w3.org/1999/xlink">
    <!-- Generator: Sketch 50 (54983) - http://www.bohemiancoding.com/sketch -->
    <title>icon/notification/rv_hookup_24px_rounded</title>
    <desc>Created with Sketch.</desc>
    <defs>
        <path d="M20,16.6473092 L19,16.6473092 L19,10.6473092 C19,9.5473092 18.1,8.6473092 17,8.6473092 L5.98,8.6473092 L5.98,7.8573092 C5.98,7.4073092 5.44,7.1873092 5.13,7.5073092 L3.34,9.2973092 C3.14,9.4973092 3.14,9.8073092 3.34,10.0073092 L5.13,11.7973092 C5.45,12.1173092 5.98,11.8873092 5.98,11.4473092 L5.98,10.6473092 L10,10.6473092 L10,13.6473092 L3,13.6473092 L3,16.6473092 C3,17.7473092 3.9,18.6473092 5,18.6473092 L7,18.6473092 C7,20.3073092 8.34,21.6473092 10,21.6473092 C11.66,21.6473092 13,20.3073092 13,18.6473092 L20,18.6473092 C20.55,18.6473092 21,18.1973092 21,17.6473092 C21,17.0973092 20.55,16.6473092 20,16.6473092 Z M10,19.6473092 C9.45,19.6473092 9,19.1973092 9,18.6473092 C9,18.0973092 9.45,17.6473092 10,17.6473092 C10.55,17.6473092 11,18.0973092 11,18.6473092 C11,19.1973092 10.55,19.6473092 10,19.6473092 Z M17,13.6473092 L13,13.6473092 L13,10.6473092 L17,10.6473092 L17,13.6473092 Z M9,5.6473092 L16,5.6473092 L16,6.4373092 C16,6.8873092 16.54,7.1073092 16.85,6.7873092 L18.64,4.9973092 C18.84,4.7973092 18.84,4.4873092 18.64,4.2873092 L16.85,2.4973092 C16.54,2.1873092 16,2.4073092 16,2.8573092 L16,3.6473092 L9,3.6473092 C8.45,3.6473092 8,4.0973092 8,4.6473092 C8,5.1973092 8.45,5.6473092 9,5.6473092 Z" id="path-1"></path>
    </defs>
    <g id="icon/notification/rv_hookup_24px" stroke="none" stroke-width="1" fill="none" fill-rule="evenodd">
        <mask id="mask-2" fill="white">
            <use xlink:href="#path-1"></use>
        </mask>
        <g fill-rule="nonzero"></g>
        <g id="✱-/-Color-/-Icons-/-Black-/-Inactive" mask="url(#mask-2)" fill="#000000" fill-opacity="0.54">
            <rect id="Rectangle" x="0" y="0" width="24" height="24"></rect>
        </g>
    </g>
</svg>