<?xml version="1.0" encoding="UTF-8"?>
<svg width="24px" height="24px" viewBox="0 0 24 24" version="1.1" xmlns="http://www.w3.org/2000/svg" xmlns:xlink="http://www.w3.org/1999/xlink">
    <!-- Generator: Sketch 50 (54983) - http://www.bohemiancoding.com/sketch -->
    <title>icon/notification/sync_24px_rounded</title>
    <desc>Created with Sketch.</desc>
    <defs>
        <path d="M12,4 L12,2.21 C12,1.76 11.46,1.54 11.15,1.86 L8.35,4.65 C8.15,4.85 8.15,5.16 8.35,5.36 L11.14,8.15 C11.46,8.46 12,8.24 12,7.79 L12,6 C15.31,6 18,8.69 18,12 C18,12.79 17.85,13.56 17.56,14.25 C17.41,14.61 17.52,15.02 17.79,15.29 C18.3,15.8 19.16,15.62 19.43,14.95 C19.8,14.04 20,13.04 20,12 C20,7.58 16.42,4 12,4 Z M12,18 C8.69,18 6,15.31 6,12 C6,11.21 6.15,10.44 6.44,9.75 C6.59,9.39 6.48,8.98 6.21,8.71 C5.7,8.2 4.84,8.38 4.57,9.05 C4.2,9.96 4,10.96 4,12 C4,16.42 7.58,20 12,20 L12,21.79 C12,22.24 12.54,22.46 12.85,22.14 L15.64,19.35 C15.84,19.15 15.84,18.84 15.64,18.64 L12.85,15.85 C12.54,15.54 12,15.76 12,16.21 L12,18 Z" id="path-1"></path>
    </defs>
    <g id="icon/notification/sync_24px" stroke="none" stroke-width="1" fill="none" fill-rule="evenodd">
        <mask id="mask-2" fill="white">
            <use xlink:href="#path-1"></use>
        </mask>
        <g fill-rule="nonzero"></g>
        <g id="✱-/-Color-/-Icons-/-Black-/-Inactive" mask="url(#mask-2)" fill="#000000" fill-opacity="0.54">
            <rect id="Rectangle" x="0" y="0" width="24" height="24"></rect>
        </g>
    </g>
</svg>