<?xml version="1.0" encoding="UTF-8"?>
<svg width="24px" height="24px" viewBox="0 0 24 24" version="1.1" xmlns="http://www.w3.org/2000/svg" xmlns:xlink="http://www.w3.org/1999/xlink">
    <!-- Generator: Sketch 50 (54983) - http://www.bohemiancoding.com/sketch -->
    <title>icon/notification/sync_disabled_24px_rounded</title>
    <desc>Created with Sketch.</desc>
    <defs>
        <path d="M10.36125,5.27375 L10.36125,5.08375 C10.36125,4.40375 9.65125,3.97375 9.04125,4.26375 C8.85125,4.35375 8.68125,4.46375 8.50125,4.56375 L9.96125,6.02375 C10.20125,5.84375 10.36125,5.57375 10.36125,5.27375 Z M20.36125,11.53375 C20.36125,9.32375 19.45125,7.33375 18.00125,5.89375 L19.51125,4.38375 C19.82125,4.07375 19.60125,3.53375 19.15125,3.53375 L14.36125,3.53375 L14.36125,8.32375 C14.36125,8.77375 14.90125,8.99375 15.21125,8.67375 L16.60125,7.28375 C17.68125,8.38375 18.36125,9.87375 18.36125,11.53375 C18.36125,12.38375 18.18125,13.19375 17.86125,13.92375 L19.34125,15.40375 C19.98125,14.25375 20.36125,12.94375 20.36125,11.53375 Z M3.93125,4.23375 C3.54125,4.62375 3.54125,5.25375 3.93125,5.64375 L5.58125,7.29375 C4.81125,8.53375 4.36125,9.97375 4.36125,11.53375 C4.36125,13.74375 5.27125,15.73375 6.72125,17.17375 L5.21125,18.68375 C4.90125,18.99375 5.12125,19.53375 5.57125,19.53375 L9.86125,19.53375 C10.14125,19.53375 10.36125,19.31375 10.36125,19.03375 L10.36125,14.74375 C10.36125,14.29375 9.82125,14.07375 9.51125,14.39375 L8.12125,15.78375 C7.04125,14.68375 6.36125,13.19375 6.36125,11.53375 C6.36125,10.53375 6.62125,9.60375 7.05125,8.77375 L15.12125,16.84375 C15.11125,16.86375 15.11125,16.86375 15.11125,16.88375 C14.68125,17.00375 14.36125,17.36375 14.36125,17.79375 L14.36125,17.97375 C14.36125,18.65375 15.07125,19.08375 15.68125,18.79375 C15.99125,18.65375 16.29125,18.48375 16.58125,18.30375 L18.45125,20.17375 C18.84125,20.56375 19.47125,20.56375 19.86125,20.17375 C20.25125,19.78375 20.25125,19.15375 19.86125,18.76375 L5.34125,4.23375 C5.15441847,4.04649733 4.90076764,3.94126439 4.63625,3.94126439 C4.37173236,3.94126439 4.11808153,4.04649733 3.93125,4.23375 Z" id="path-1"></path>
    </defs>
    <g id="icon/notification/sync_disabled_24px" stroke="none" stroke-width="1" fill="none" fill-rule="evenodd">
        <mask id="mask-2" fill="white">
            <use xlink:href="#path-1"></use>
        </mask>
        <g fill-rule="nonzero"></g>
        <g id="✱-/-Color-/-Icons-/-Black-/-Inactive" mask="url(#mask-2)" fill="#000000" fill-opacity="0.54">
            <rect id="Rectangle" x="0" y="0" width="24" height="24"></rect>
        </g>
    </g>
</svg>