<?xml version="1.0" encoding="UTF-8"?>
<svg width="24px" height="24px" viewBox="0 0 24 24" version="1.1" xmlns="http://www.w3.org/2000/svg" xmlns:xlink="http://www.w3.org/1999/xlink">
    <!-- Generator: Sketch 50 (54983) - http://www.bohemiancoding.com/sketch -->
    <title>icon/notification/system_update_24px_rounded</title>
    <desc>Created with Sketch.</desc>
    <defs>
        <path d="M17,1.01 L7,1 C5.9,1 5,1.9 5,3 L5,21 C5,22.1 5.9,23 7,23 L17,23 C18.1,23 19,22.1 19,21 L19,3 C19,1.9 18.1,1.01 17,1.01 Z M17,19 L7,19 L7,5 L17,5 L17,19 Z M14.79,13 L13,13 L13,9 C13,8.45 12.55,8 12,8 C11.45,8 11,8.45 11,9 L11,13 L9.21,13 C8.76,13 8.54,13.54 8.86,13.85 L11.65,16.64 C11.85,16.84 12.16,16.84 12.36,16.64 L15.15,13.85 C15.46,13.54 15.24,13 14.79,13 Z" id="path-1"></path>
    </defs>
    <g id="icon/notification/system_update_24px" stroke="none" stroke-width="1" fill="none" fill-rule="evenodd">
        <mask id="mask-2" fill="white">
            <use xlink:href="#path-1"></use>
        </mask>
        <g fill-rule="nonzero"></g>
        <g id="✱-/-Color-/-Icons-/-Black-/-Inactive" mask="url(#mask-2)" fill="#000000" fill-opacity="0.54">
            <rect id="Rectangle" x="0" y="0" width="24" height="24"></rect>
        </g>
    </g>
</svg>