<?xml version="1.0" encoding="UTF-8"?>
<svg width="24px" height="24px" viewBox="0 0 24 24" version="1.1" xmlns="http://www.w3.org/2000/svg" xmlns:xlink="http://www.w3.org/1999/xlink">
    <!-- Generator: Sketch 50 (54983) - http://www.bohemiancoding.com/sketch -->
    <title>icon/notification/tap_and_play_24px_rounded</title>
    <desc>Created with Sketch.</desc>
    <defs>
        <path d="M4.64,16.09 C4.04,15.99 3.5,16.48 3.5,17.09 C3.5,17.58 3.86,17.99 4.35,18.07 C6.43,18.43 8.07,20.07 8.43,22.15 C8.51,22.64 8.92,23 9.41,23 C10.02,23 10.5,22.46 10.41,21.86 C9.93,18.91 7.6,16.57 4.64,16.09 Z M3.5,20 L3.5,23 L6.5,23 C6.5,21.34 5.16,20 3.5,20 Z M4.61,12.06 C4.02,12 3.5,12.46 3.5,13.05 C3.5,13.55 3.87,13.99 4.37,14.04 C8.64,14.45 12.04,17.85 12.45,22.12 C12.5,22.62 12.93,23 13.44,23 C14.03,23 14.5,22.49 14.44,21.9 C13.93,16.7 9.81,12.58 4.61,12.06 Z M18.5,1.01 L8.5,1 C7.4,1 6.5,1.9 6.5,3 L6.5,10.37 C7.19,10.53 7.86,10.74 8.5,11.01 L8.5,5 L18.5,5 L18.5,18 L15.47,18 C15.99,19.25 16.31,20.59 16.42,22 L18.5,22 C19.6,22 20.5,21.1 20.5,20 L20.5,3 C20.5,1.9 19.6,1.01 18.5,1.01 Z" id="path-1"></path>
    </defs>
    <g id="icon/notification/tap_and_play_24px" stroke="none" stroke-width="1" fill="none" fill-rule="evenodd">
        <mask id="mask-2" fill="white">
            <use xlink:href="#path-1"></use>
        </mask>
        <g fill-rule="nonzero"></g>
        <g id="✱-/-Color-/-Icons-/-Black-/-Inactive" mask="url(#mask-2)" fill="#000000" fill-opacity="0.54">
            <rect id="Rectangle" x="0" y="0" width="24" height="24"></rect>
        </g>
    </g>
</svg>