<?xml version="1.0" encoding="UTF-8"?>
<svg width="24px" height="24px" viewBox="0 0 24 24" version="1.1" xmlns="http://www.w3.org/2000/svg" xmlns:xlink="http://www.w3.org/1999/xlink">
    <!-- Generator: Sketch 50 (54983) - http://www.bohemiancoding.com/sketch -->
    <title>icon/notification/time_to_leave_24px_rounded</title>
    <desc>Created with Sketch.</desc>
    <defs>
        <path d="M18.92,5.01 C18.72,4.42 18.16,4 17.5,4 L6.5,4 C5.84,4 5.29,4.42 5.08,5.01 L3.11,10.68 C3.04,10.89 3,11.11 3,11.34 L3,18.5 C3,19.33 3.67,20 4.5,20 C5.33,20 6,19.33 6,18.5 L6,18 L18,18 L18,18.5 C18,19.32 18.67,20 19.5,20 C20.32,20 21,19.33 21,18.5 L21,11.34 C21,11.12 20.96,10.89 20.89,10.68 L18.92,5.01 Z M6.5,15 C5.67,15 5,14.33 5,13.5 C5,12.67 5.67,12 6.5,12 C7.33,12 8,12.67 8,13.5 C8,14.33 7.33,15 6.5,15 Z M17.5,15 C16.67,15 16,14.33 16,13.5 C16,12.67 16.67,12 17.5,12 C18.33,12 19,12.67 19,13.5 C19,14.33 18.33,15 17.5,15 Z M5,10 L6.27,6.18 C6.41,5.78 6.79,5.5 7.22,5.5 L16.78,5.5 C17.21,5.5 17.59,5.78 17.73,6.18 L19,10 L5,10 Z" id="path-1"></path>
    </defs>
    <g id="icon/notification/time_to_leave_24px" stroke="none" stroke-width="1" fill="none" fill-rule="evenodd">
        <mask id="mask-2" fill="white">
            <use xlink:href="#path-1"></use>
        </mask>
        <g fill-rule="nonzero"></g>
        <g id="✱-/-Color-/-Icons-/-Black-/-Inactive" mask="url(#mask-2)" fill="#000000" fill-opacity="0.54">
            <rect id="Rectangle" x="0" y="0" width="24" height="24"></rect>
        </g>
    </g>
</svg>