<?xml version="1.0" encoding="UTF-8"?>
<svg width="24px" height="24px" viewBox="0 0 24 24" version="1.1" xmlns="http://www.w3.org/2000/svg" xmlns:xlink="http://www.w3.org/1999/xlink">
    <!-- Generator: Sketch 50 (54983) - http://www.bohemiancoding.com/sketch -->
    <title>icon/notification/tv_off_24px_rounded</title>
    <desc>Created with Sketch.</desc>
    <defs>
        <path d="M21,8.10875 L21,17.98875 L22.85,19.83875 C22.95,19.61875 23,19.36875 23,19.10875 L23,7.10875 C23,5.99875 22.1,5.10875 21,5.10875 L13.41,5.10875 L16.35,2.16875 C16.55,1.96875 16.55,1.65875 16.35,1.45875 C16.15,1.25875 15.84,1.25875 15.64,1.45875 L12,5.09875 L8.36,1.45875 C8.16,1.25875 7.85,1.25875 7.65,1.45875 C7.45,1.65875 7.45,1.96875 7.65,2.16875 L10.59,5.10875 L8.12,5.10875 L10.12,7.10875 L20,7.10875 C20.55,7.10875 21,7.55875 21,8.10875 Z M3.12,2.93875 C2.93316847,2.75149733 2.67951764,2.64626439 2.415,2.64626439 C2.15048236,2.64626439 1.89683153,2.75149733 1.71,2.93875 C1.32,3.32875 1.32,3.95875 1.71,4.34875 L2.53,5.16875 C1.65,5.38875 1,6.16875 1,7.10875 L1,19.10875 C1,20.20875 1.9,21.10875 3,21.10875 L18.46,21.10875 L19.75,22.39875 C20.14,22.78875 20.77,22.78875 21.16,22.39875 C21.52,22.03875 21.53,21.47875 21.23,21.08875 L21.26,21.08875 L3.12,2.93875 Z M3,18.10875 L3,8.10875 C3,7.55875 3.45,7.10875 4,7.10875 L4.46,7.10875 L16.46,19.10875 L4,19.10875 C3.45,19.10875 3,18.65875 3,18.10875 Z" id="path-1"></path>
    </defs>
    <g id="icon/notification/tv_off_24px" stroke="none" stroke-width="1" fill="none" fill-rule="evenodd">
        <mask id="mask-2" fill="white">
            <use xlink:href="#path-1"></use>
        </mask>
        <g fill-rule="nonzero"></g>
        <g id="✱-/-Color-/-Icons-/-Black-/-Inactive" mask="url(#mask-2)" fill="#000000" fill-opacity="0.54">
            <rect id="Rectangle" x="0" y="0" width="24" height="24"></rect>
        </g>
    </g>
</svg>