<?xml version="1.0" encoding="UTF-8"?>
<svg width="24px" height="24px" viewBox="0 0 24 24" version="1.1" xmlns="http://www.w3.org/2000/svg" xmlns:xlink="http://www.w3.org/1999/xlink">
    <!-- Generator: Sketch 50 (54983) - http://www.bohemiancoding.com/sketch -->
    <title>icon/notification/vibration_24px_rounded</title>
    <desc>Created with Sketch.</desc>
    <defs>
        <path d="M1,15 C1.55,15 2,14.55 2,14 L2,10 C2,9.45 1.55,9 1,9 C0.45,9 0,9.45 0,10 L0,14 C0,14.55 0.45,15 1,15 Z M4,17 C4.55,17 5,16.55 5,16 L5,8 C5,7.45 4.55,7 4,7 C3.45,7 3,7.45 3,8 L3,16 C3,16.55 3.45,17 4,17 Z M22,10 L22,14 C22,14.55 22.45,15 23,15 C23.55,15 24,14.55 24,14 L24,10 C24,9.45 23.55,9 23,9 C22.45,9 22,9.45 22,10 Z M20,17 C20.55,17 21,16.55 21,16 L21,8 C21,7.45 20.55,7 20,7 C19.45,7 19,7.45 19,8 L19,16 C19,16.55 19.45,17 20,17 Z M16.5,3 L7.5,3 C6.67,3 6,3.67 6,4.5 L6,19.5 C6,20.33 6.67,21 7.5,21 L16.5,21 C17.33,21 18,20.33 18,19.5 L18,4.5 C18,3.67 17.33,3 16.5,3 Z M16,19 L8,19 L8,5 L16,5 L16,19 Z" id="path-1"></path>
    </defs>
    <g id="icon/notification/vibration_24px" stroke="none" stroke-width="1" fill="none" fill-rule="evenodd">
        <mask id="mask-2" fill="white">
            <use xlink:href="#path-1"></use>
        </mask>
        <g fill-rule="nonzero"></g>
        <g id="✱-/-Color-/-Icons-/-Black-/-Inactive" mask="url(#mask-2)" fill="#000000" fill-opacity="0.54">
            <rect id="Rectangle" x="0" y="0" width="24" height="24"></rect>
        </g>
    </g>
</svg>