<?xml version="1.0" encoding="UTF-8"?>
<svg width="24px" height="24px" viewBox="0 0 24 24" version="1.1" xmlns="http://www.w3.org/2000/svg" xmlns:xlink="http://www.w3.org/1999/xlink">
    <!-- Generator: Sketch 50 (54983) - http://www.bohemiancoding.com/sketch -->
    <title>icon/notification/voice_chat_24px_rounded</title>
    <desc>Created with Sketch.</desc>
    <defs>
        <path d="M20,2 L4,2 C2.9,2 2.01,2.9 2.01,4 L2,22 L6,18 L20,18 C21.1,18 22,17.1 22,16 L22,4 C22,2.9 21.1,2 20,2 Z M16.38,12.7 L14,10.8 L14,13 C14,13.55 13.55,14 13,14 L7,14 C6.45,14 6,13.55 6,13 L6,7 C6,6.45 6.45,6 7,6 L13,6 C13.55,6 14,6.45 14,7 L14,9.2 L16.38,7.3 C17.03,6.78 18,7.24 18,8.08 L18,11.92 C18,12.76 17.03,13.22 16.38,12.7 Z" id="path-1"></path>
    </defs>
    <g id="icon/notification/voice_chat_24px" stroke="none" stroke-width="1" fill="none" fill-rule="evenodd">
        <mask id="mask-2" fill="white">
            <use xlink:href="#path-1"></use>
        </mask>
        <g fill-rule="nonzero"></g>
        <g id="✱-/-Color-/-Icons-/-Black-/-Inactive" mask="url(#mask-2)" fill="#000000" fill-opacity="0.54">
            <rect id="Rectangle" x="0" y="0" width="24" height="24"></rect>
        </g>
    </g>
</svg>