<?xml version="1.0" encoding="UTF-8"?>
<svg width="24px" height="24px" viewBox="0 0 24 24" version="1.1" xmlns="http://www.w3.org/2000/svg" xmlns:xlink="http://www.w3.org/1999/xlink">
    <!-- Generator: Sketch 50 (54983) - http://www.bohemiancoding.com/sketch -->
    <title>icon/notification/vpn_lock_24px_rounded</title>
    <desc>Created with Sketch.</desc>
    <defs>
        <path d="M18.92,12 C18.96,12.33 19,12.66 19,13 C19,15.08 18.2,16.97 16.9,18.39 C16.64,17.58 15.9,17 15,17 L14,17 L14,14 C14,13.45 13.55,13 13,13 L7,13 L7,11 L9,11 C9.55,11 10,10.55 10,10 L10,8 L12,8 C13.1,8 14,7.1 14,6 L14,3.46 C13.05,3.16 12.05,3 11,3 C5.48,3 1,7.48 1,13 C1,18.52 5.48,23 11,23 C16.52,23 21,18.52 21,13 C21,12.66 20.98,12.33 20.95,12 L18.92,12 Z M10,20.93 C6.05,20.44 3,17.08 3,13 C3,12.38 3.08,11.79 3.21,11.21 L8,16 L8,17 C8,18.1 8.9,19 10,19 L10,20.93 Z M22,4 L22,3.5 C22,2.12 20.88,1 19.5,1 C18.12,1 17,2.12 17,3.5 L17,4 C16.45,4 16,4.45 16,5 L16,9 C16,9.55 16.45,10 17,10 L22,10 C22.55,10 23,9.55 23,9 L23,5 C23,4.45 22.55,4 22,4 Z M21,4 L18,4 L18,3.5 C18,2.67 18.67,2 19.5,2 C20.33,2 21,2.67 21,3.5 L21,4 Z" id="path-1"></path>
    </defs>
    <g id="icon/notification/vpn_lock_24px" stroke="none" stroke-width="1" fill="none" fill-rule="evenodd">
        <mask id="mask-2" fill="white">
            <use xlink:href="#path-1"></use>
        </mask>
        <g fill-rule="nonzero"></g>
        <g id="✱-/-Color-/-Icons-/-Black-/-Inactive" mask="url(#mask-2)" fill="#000000" fill-opacity="0.54">
            <rect id="Rectangle" x="0" y="0" width="24" height="24"></rect>
        </g>
    </g>
</svg>