<?xml version="1.0" encoding="UTF-8"?>
<svg width="24px" height="24px" viewBox="0 0 24 24" version="1.1" xmlns="http://www.w3.org/2000/svg" xmlns:xlink="http://www.w3.org/1999/xlink">
    <!-- Generator: Sketch 50 (54983) - http://www.bohemiancoding.com/sketch -->
    <title>icon/notification/wc_24px_rounded</title>
    <desc>Created with Sketch.</desc>
    <defs>
        <path d="M5.19509061,21 L5.19509061,14.5 L4.69509061,14.5 C4.14509061,14.5 3.69509061,14.05 3.69509061,13.5 L3.69509061,9 C3.69509061,7.9 4.59509061,7 5.69509061,7 L8.69509061,7 C9.79509061,7 10.6950906,7.9 10.6950906,9 L10.6950906,13.5 C10.6950906,14.05 10.2450906,14.5 9.69509061,14.5 L9.19509061,14.5 L9.19509061,21 C9.19509061,21.55 8.74509061,22 8.19509061,22 L6.19509061,22 C5.64509061,22 5.19509061,21.55 5.19509061,21 Z M17.6950906,21 L17.6950906,16 L19.3050906,16 C19.9850906,16 20.4650906,15.33 20.2550906,14.68 L18.1550906,8.37 C17.8750906,7.55 17.1150906,7 16.2550906,7 L16.1350906,7 C15.2750906,7 14.5050906,7.55 14.2350906,8.37 L12.1350906,14.68 C11.9150906,15.33 12.3950906,16 13.0850906,16 L14.6950906,16 L14.6950906,21 C14.6950906,21.55 15.1450906,22 15.6950906,22 L16.6950906,22 C17.2450906,22 17.6950906,21.55 17.6950906,21 Z M7.19509061,6 C8.30509061,6 9.19509061,5.11 9.19509061,4 C9.19509061,2.89 8.30509061,2 7.19509061,2 C6.08509061,2 5.19509061,2.89 5.19509061,4 C5.19509061,5.11 6.08509061,6 7.19509061,6 Z M16.1950906,6 C17.3050906,6 18.1950906,5.11 18.1950906,4 C18.1950906,2.89 17.3050906,2 16.1950906,2 C15.0850906,2 14.1950906,2.89 14.1950906,4 C14.1950906,5.11 15.0850906,6 16.1950906,6 Z" id="path-1"></path>
    </defs>
    <g id="icon/notification/wc_24px" stroke="none" stroke-width="1" fill="none" fill-rule="evenodd">
        <mask id="mask-2" fill="white">
            <use xlink:href="#path-1"></use>
        </mask>
        <g fill-rule="nonzero"></g>
        <g id="✱-/-Color-/-Icons-/-Black-/-Inactive" mask="url(#mask-2)" fill="#000000" fill-opacity="0.54">
            <rect id="Rectangle" x="0" y="0" width="24" height="24"></rect>
        </g>
    </g>
</svg>