<?xml version="1.0" encoding="UTF-8"?>
<svg width="24px" height="24px" viewBox="0 0 24 24" version="1.1" xmlns="http://www.w3.org/2000/svg" xmlns:xlink="http://www.w3.org/1999/xlink">
    <!-- Generator: Sketch 50 (54983) - http://www.bohemiancoding.com/sketch -->
    <title>icon/notification/wifi_24px_rounded</title>
    <desc>Created with Sketch.</desc>
    <defs>
        <path d="M2.05697737,10.04 C2.56697737,10.55 3.37697737,10.6 3.92697737,10.14 C8.59697737,6.3 15.3769774,6.3 20.0569774,10.13 C20.6169774,10.59 21.4369774,10.55 21.9469774,10.04 C22.5369774,9.45 22.4969774,8.47 21.8469774,7.94 C16.1369774,3.27 7.87697737,3.27 2.15697737,7.94 C1.50697737,8.46 1.45697737,9.44 2.05697737,10.04 Z M9.81697737,17.8 L11.2869774,19.27 C11.6769774,19.66 12.3069774,19.66 12.6969774,19.27 L14.1669774,17.8 C14.6369774,17.33 14.5369774,16.52 13.9369774,16.21 C12.7169774,15.58 11.2569774,15.58 10.0269774,16.21 C9.45697737,16.52 9.34697737,17.33 9.81697737,17.8 Z M6.08697737,14.07 C6.57697737,14.56 7.34697737,14.61 7.91697737,14.2 C10.3569774,12.47 13.6369774,12.47 16.0769774,14.2 C16.6469774,14.6 17.4169774,14.56 17.9069774,14.07 L17.9169774,14.06 C18.5169774,13.46 18.4769774,12.44 17.7869774,11.95 C14.3469774,9.46 9.65697737,9.46 6.20697737,11.95 C5.51697737,12.45 5.47697737,13.46 6.08697737,14.07 Z" id="path-1"></path>
    </defs>
    <g id="icon/notification/wifi_24px" stroke="none" stroke-width="1" fill="none" fill-rule="evenodd">
        <mask id="mask-2" fill="white">
            <use xlink:href="#path-1"></use>
        </mask>
        <g fill-rule="nonzero"></g>
        <g id="✱-/-Color-/-Icons-/-Black-/-Inactive" mask="url(#mask-2)" fill="#000000" fill-opacity="0.54">
            <rect id="Rectangle" x="0" y="0" width="24" height="24"></rect>
        </g>
    </g>
</svg>