<?xml version="1.0" encoding="UTF-8"?>
<svg width="24px" height="24px" viewBox="0 0 24 24" version="1.1" xmlns="http://www.w3.org/2000/svg" xmlns:xlink="http://www.w3.org/1999/xlink">
    <!-- Generator: Sketch 50 (54983) - http://www.bohemiancoding.com/sketch -->
    <title>icon/notification/wifi_off_24px_rounded</title>
    <desc>Created with Sketch.</desc>
    <defs>
        <path d="M20.055,11.3249928 C20.615,11.7849928 21.435,11.7449928 21.945,11.2349928 C22.535,10.6449928 22.495,9.6649928 21.845,9.1349928 C18.255,6.1949928 13.645,5.1049928 9.295,5.8749928 L11.885,8.4649928 C14.775,8.4349928 17.685,9.3849928 20.055,11.3249928 Z M17.785,13.1549928 C17.005,12.5849928 16.155,12.1549928 15.265,11.8549928 L18.215,14.8049928 C18.455,14.2249928 18.315,13.5349928 17.785,13.1549928 Z M13.945,17.4149928 C12.725,16.7849928 11.265,16.7849928 10.035,17.4149928 C9.445,17.7249928 9.335,18.5349928 9.805,19.0049928 L11.275,20.4749928 C11.665,20.8649928 12.295,20.8649928 12.685,20.4749928 L14.155,19.0049928 C14.645,18.5349928 14.545,17.7249928 13.945,17.4149928 Z M19.675,19.0849928 L4.115,3.5249928 C3.92816847,3.33774013 3.67451764,3.2325072 3.41,3.2325072 C3.14548236,3.2325072 2.89183153,3.33774013 2.705,3.5249928 C2.315,3.9149928 2.315,4.5449928 2.705,4.9349928 L5.045,7.2849928 C4.035,7.7849928 3.055,8.3949928 2.155,9.1349928 C1.505,9.6649928 1.465,10.6449928 2.055,11.2349928 C2.565,11.7449928 3.375,11.7949928 3.925,11.3349928 C4.925,10.5149928 6.025,9.8749928 7.175,9.4049928 L9.405,11.6349928 C8.275,11.9349928 7.195,12.4349928 6.215,13.1449928 C5.525,13.6449928 5.485,14.6549928 6.085,15.2549928 L6.095,15.2649928 C6.585,15.7549928 7.355,15.8049928 7.925,15.3949928 C9.115,14.5549928 10.505,14.1349928 11.895,14.1049928 L18.265,20.4749928 C18.655,20.8649928 19.285,20.8649928 19.675,20.4749928 C20.065,20.1049928 20.065,19.4749928 19.675,19.0849928 Z" id="path-1"></path>
    </defs>
    <g id="icon/notification/wifi_off_24px" stroke="none" stroke-width="1" fill="none" fill-rule="evenodd">
        <mask id="mask-2" fill="white">
            <use xlink:href="#path-1"></use>
        </mask>
        <g fill-rule="nonzero"></g>
        <g id="✱-/-Color-/-Icons-/-Black-/-Inactive" mask="url(#mask-2)" fill="#000000" fill-opacity="0.54">
            <rect id="Rectangle" x="0" y="0" width="24" height="24"></rect>
        </g>
    </g>
</svg>