<?xml version="1.0" encoding="UTF-8"?>
<svg width="24px" height="24px" viewBox="0 0 24 24" version="1.1" xmlns="http://www.w3.org/2000/svg" xmlns:xlink="http://www.w3.org/1999/xlink">
    <!-- Generator: Sketch 50 (54983) - http://www.bohemiancoding.com/sketch -->
    <title>icon/file/folder_shared_24px_sharp</title>
    <desc>Created with Sketch.</desc>
    <defs>
        <path d="M22,6 L12,6 L10,4 L2,4 L2,20 L22,20 L22,6 Z M15,9 C16.1,9 17,9.9 17,11 C17,12.1 16.1,13 15,13 C13.9,13 13,12.1 13,11 C13,9.9 13.9,9 15,9 Z M19,17 L11,17 L11,16 C11,14.67 13.67,14 15,14 C16.33,14 19,14.67 19,16 L19,17 Z" id="path-1"></path>
    </defs>
    <g id="icon/file/folder_shared_24px" stroke="none" stroke-width="1" fill="none" fill-rule="evenodd">
        <mask id="mask-2" fill="white">
            <use xlink:href="#path-1"></use>
        </mask>
        <g fill-rule="nonzero"></g>
        <g id="✱-/-Color-/-Icons-/-Black-/-Inactive" mask="url(#mask-2)" fill="#000000" fill-opacity="0.54">
            <rect id="Rectangle" x="0" y="0" width="24" height="24"></rect>
        </g>
    </g>
</svg>