<?xml version="1.0" encoding="UTF-8"?>
<svg width="24px" height="24px" viewBox="0 0 24 24" version="1.1" xmlns="http://www.w3.org/2000/svg" xmlns:xlink="http://www.w3.org/1999/xlink">
    <!-- Generator: Sketch 50 (54983) - http://www.bohemiancoding.com/sketch -->
    <title>icon/content/backspace_24px_outlined</title>
    <desc>Created with Sketch.</desc>
    <defs>
        <path d="M22,3 L7,3 C6.31,3 5.77,3.35 5.41,3.88 L0,12 L5.41,20.11 C5.77,20.64 6.31,21 7,21 L22,21 C23.1,21 24,20.1 24,19 L24,5 C24,3.9 23.1,3 22,3 Z M22,19 L7.07,19 L2.4,12 L7.06,5 L22,5 L22,19 Z M10.41,17 L14,13.41 L17.59,17 L19,15.59 L15.41,12 L19,8.41 L17.59,7 L14,10.59 L10.41,7 L9,8.41 L12.59,12 L9,15.59 L10.41,17 Z" id="path-1"></path>
    </defs>
    <g id="icon/content/backspace_24px" stroke="none" stroke-width="1" fill="none" fill-rule="evenodd">
        <mask id="mask-2" fill="white">
            <use xlink:href="#path-1"></use>
        </mask>
        <g fill-rule="nonzero"></g>
        <g id="✱-/-Color-/-Icons-/-Black-/-Inactive" mask="url(#mask-2)" fill="#000000" fill-opacity="0.54">
            <rect id="Rectangle" x="0" y="0" width="24" height="24"></rect>
        </g>
    </g>
</svg>