<?xml version="1.0" encoding="UTF-8"?>
<svg width="24px" height="24px" viewBox="0 0 24 24" version="1.1" xmlns="http://www.w3.org/2000/svg" xmlns:xlink="http://www.w3.org/1999/xlink">
    <!-- Generator: Sketch 50 (54983) - http://www.bohemiancoding.com/sketch -->
    <title>icon/content/copy_24px_outlined</title>
    <desc>Created with Sketch.</desc>
    <defs>
        <path d="M16.5,1 L4.5,1 C3.4,1 2.5,1.9 2.5,3 L2.5,17 L4.5,17 L4.5,3 L16.5,3 L16.5,1 Z M19.5,5 L8.5,5 C7.4,5 6.5,5.9 6.5,7 L6.5,21 C6.5,22.1 7.4,23 8.5,23 L19.5,23 C20.6,23 21.5,22.1 21.5,21 L21.5,7 C21.5,5.9 20.6,5 19.5,5 Z M19.5,21 L8.5,21 L8.5,7 L19.5,7 L19.5,21 Z" id="path-1"></path>
    </defs>
    <g id="icon/content/copy_24px" stroke="none" stroke-width="1" fill="none" fill-rule="evenodd">
        <mask id="mask-2" fill="white">
            <use xlink:href="#path-1"></use>
        </mask>
        <g fill-rule="nonzero"></g>
        <g id="✱-/-Color-/-Icons-/-Black-/-Inactive" mask="url(#mask-2)" fill="#000000" fill-opacity="0.54">
            <rect id="Rectangle" x="0" y="0" width="24" height="24"></rect>
        </g>
    </g>
</svg>