<?xml version="1.0" encoding="UTF-8"?>
<svg width="24px" height="24px" viewBox="0 0 24 24" version="1.1" xmlns="http://www.w3.org/2000/svg" xmlns:xlink="http://www.w3.org/1999/xlink">
    <!-- Generator: Sketch 50 (54983) - http://www.bohemiancoding.com/sketch -->
    <title>icon/content/drafts_24px_outlined</title>
    <desc>Created with Sketch.</desc>
    <defs>
        <path d="M21.99,9.5 C21.99,8.78 21.62,8.15 21.05,7.8 L12,2.5 L2.95,7.8 C2.38,8.15 2,8.78 2,9.5 L2,19.5 C2,20.6 2.9,21.5 4,21.5 L20,21.5 C21.1,21.5 22,20.6 22,19.5 L21.99,9.5 Z M19.99,9.5 L19.99,9.51 L12,14.5 L4,9.5 L12,4.82 L19.99,9.5 Z M4,19.5 L4,11.84 L12,16.86 L19.99,11.87 L20,19.5 L4,19.5 Z" id="path-1"></path>
    </defs>
    <g id="icon/content/drafts_24px" stroke="none" stroke-width="1" fill="none" fill-rule="evenodd">
        <mask id="mask-2" fill="white">
            <use xlink:href="#path-1"></use>
        </mask>
        <g fill-rule="nonzero"></g>
        <g id="✱-/-Color-/-Icons-/-Black-/-Inactive" mask="url(#mask-2)" fill="#000000" fill-opacity="0.54">
            <rect id="Rectangle" x="0" y="0" width="24" height="24"></rect>
        </g>
    </g>
</svg>