<?xml version="1.0" encoding="UTF-8"?>
<svg width="24px" height="24px" viewBox="0 0 24 24" version="1.1" xmlns="http://www.w3.org/2000/svg" xmlns:xlink="http://www.w3.org/1999/xlink">
    <!-- Generator: Sketch 50 (54983) - http://www.bohemiancoding.com/sketch -->
    <title>icon/content/gesture_24px_outlined</title>
    <desc>Created with Sketch.</desc>
    <defs>
        <path d="M4.67,6.9 C5.37,6.19 6.07,5.55 6.38,5.68 C6.88,5.88 6.38,6.71 6.08,7.2 C5.83,7.62 3.22,11.09 3.22,13.51 C3.22,14.79 3.7,15.85 4.56,16.49 C5.31,17.05 6.3,17.22 7.2,16.95 C8.27,16.64 9.15,15.55 10.26,14.18 C11.47,12.69 13.09,10.74 14.34,10.74 C15.97,10.74 15.99,11.75 16.1,12.53 C12.32,13.17 10.72,16.2 10.72,17.9 C10.72,19.6 12.16,20.99 13.93,20.99 C15.56,20.99 18.22,19.66 18.62,14.89 L21.08,14.89 L21.08,12.39 L18.61,12.39 C18.46,10.74 17.52,8.19 14.58,8.19 C12.33,8.19 10.4,10.1 9.64,11.03 C9.06,11.76 7.58,13.51 7.35,13.75 C7.1,14.05 6.67,14.59 6.24,14.59 C5.79,14.59 5.52,13.76 5.88,12.67 C6.23,11.58 7.28,9.81 7.73,9.15 C8.51,8.01 9.03,7.23 9.03,5.87 C9.03,3.7 7.39,3.01 6.52,3.01 C5.2,3.01 4.05,4.01 3.8,4.26 C3.44,4.62 3.14,4.92 2.92,5.19 L4.67,6.9 Z M13.96,18.56 C13.65,18.56 13.22,18.3 13.22,17.84 C13.22,17.24 13.95,15.64 16.09,15.08 C15.79,17.77 14.66,18.56 13.96,18.56 Z" id="path-1"></path>
    </defs>
    <g id="icon/content/gesture_24px" stroke="none" stroke-width="1" fill="none" fill-rule="evenodd">
        <mask id="mask-2" fill="white">
            <use xlink:href="#path-1"></use>
        </mask>
        <g fill-rule="nonzero"></g>
        <g id="✱-/-Color-/-Icons-/-Black-/-Inactive" mask="url(#mask-2)" fill="#000000" fill-opacity="0.54">
            <rect id="Rectangle" x="0" y="0" width="24" height="24"></rect>
        </g>
    </g>
</svg>