<?xml version="1.0" encoding="UTF-8"?>
<svg width="24px" height="24px" viewBox="0 0 24 24" version="1.1" xmlns="http://www.w3.org/2000/svg" xmlns:xlink="http://www.w3.org/1999/xlink">
    <!-- Generator: Sketch 50 (54983) - http://www.bohemiancoding.com/sketch -->
    <title>icon/content/low_priority_24px_outlined</title>
    <desc>Created with Sketch.</desc>
    <defs>
        <path d="M14,4.5 L22,4.5 L22,6.5 L14,6.5 L14,4.5 Z M14,10 L22,10 L22,12 L14,12 L14,10 Z M14,15.5 L22,15.5 L22,17.5 L14,17.5 L14,15.5 Z M2,11 C2,14.58 4.92,17.5 8.5,17.5 L9,17.5 L9,19.5 L12,16.5 L9,13.5 L9,15.5 L8.5,15.5 C6.02,15.5 4,13.48 4,11 C4,8.52 6.02,6.5 8.5,6.5 L12,6.5 L12,4.5 L8.5,4.5 C4.92,4.5 2,7.42 2,11 Z" id="path-1"></path>
    </defs>
    <g id="icon/content/low_priority_24px" stroke="none" stroke-width="1" fill="none" fill-rule="evenodd">
        <mask id="mask-2" fill="white">
            <use xlink:href="#path-1"></use>
        </mask>
        <g fill-rule="nonzero"></g>
        <g id="✱-/-Color-/-Icons-/-Black-/-Inactive" mask="url(#mask-2)" fill="#000000" fill-opacity="0.54">
            <rect id="Rectangle" x="0" y="0" width="24" height="24"></rect>
        </g>
    </g>
</svg>