<?xml version="1.0" encoding="UTF-8"?>
<svg width="24px" height="24px" viewBox="0 0 24 24" version="1.1" xmlns="http://www.w3.org/2000/svg" xmlns:xlink="http://www.w3.org/1999/xlink">
    <!-- Generator: Sketch 50 (54983) - http://www.bohemiancoding.com/sketch -->
    <title>icon/content/weekend_24px_outlined</title>
    <desc>Created with Sketch.</desc>
    <defs>
        <path d="M21,9 L21,7 C21,5.35 19.65,4 18,4 L6,4 C4.35,4 3,5.35 3,7 L3,9 C1.35,9 0,10.35 0,12 L0,17 C0,18.65 1.35,20 3,20 L21,20 C22.65,20 24,18.65 24,17 L24,12 C24,10.35 22.65,9 21,9 Z M5,7 C5,6.45 5.45,6 6,6 L18,6 C18.55,6 19,6.45 19,7 L19,9.78 C18.39,10.33 18,11.12 18,12 L18,14 L6,14 L6,12 C6,11.12 5.61,10.33 5,9.78 L5,7 Z M22,17 C22,17.55 21.55,18 21,18 L3,18 C2.45,18 2,17.55 2,17 L2,12 C2,11.45 2.45,11 3,11 C3.55,11 4,11.45 4,12 L4,16 L20,16 L20,12 C20,11.45 20.45,11 21,11 C21.55,11 22,11.45 22,12 L22,17 Z" id="path-1"></path>
    </defs>
    <g id="icon/content/weekend_24px" stroke="none" stroke-width="1" fill="none" fill-rule="evenodd">
        <mask id="mask-2" fill="white">
            <use xlink:href="#path-1"></use>
        </mask>
        <g fill-rule="nonzero"></g>
        <g id="✱-/-Color-/-Icons-/-Black-/-Inactive" mask="url(#mask-2)" fill="#000000" fill-opacity="0.54">
            <rect id="Rectangle" x="0" y="0" width="24" height="24"></rect>
        </g>
    </g>
</svg>