<?xml version="1.0" encoding="UTF-8"?>
<svg width="24px" height="24px" viewBox="0 0 24 24" version="1.1" xmlns="http://www.w3.org/2000/svg" xmlns:xlink="http://www.w3.org/1999/xlink">
    <!-- Generator: Sketch 50 (54983) - http://www.bohemiancoding.com/sketch -->
    <title>icon/content/add_24px_rounded</title>
    <desc>Created with Sketch.</desc>
    <defs>
        <path d="M18,13 L13,13 L13,18 C13,18.55 12.55,19 12,19 C11.45,19 11,18.55 11,18 L11,13 L6,13 C5.45,13 5,12.55 5,12 C5,11.45 5.45,11 6,11 L11,11 L11,6 C11,5.45 11.45,5 12,5 C12.55,5 13,5.45 13,6 L13,11 L18,11 C18.55,11 19,11.45 19,12 C19,12.55 18.55,13 18,13 Z" id="path-1"></path>
    </defs>
    <g id="icon/content/add_24px" stroke="none" stroke-width="1" fill="none" fill-rule="evenodd">
        <mask id="mask-2" fill="white">
            <use xlink:href="#path-1"></use>
        </mask>
        <g fill-rule="nonzero"></g>
        <g id="✱-/-Color-/-Icons-/-Black-/-Inactive" mask="url(#mask-2)" fill="#000000" fill-opacity="0.54">
            <rect id="Rectangle" x="0" y="0" width="24" height="24"></rect>
        </g>
    </g>
</svg>