<?xml version="1.0" encoding="UTF-8"?>
<svg width="24px" height="24px" viewBox="0 0 24 24" version="1.1" xmlns="http://www.w3.org/2000/svg" xmlns:xlink="http://www.w3.org/1999/xlink">
    <!-- Generator: Sketch 50 (54983) - http://www.bohemiancoding.com/sketch -->
    <title>icon/content/cut_24px_rounded</title>
    <desc>Created with Sketch.</desc>
    <defs>
        <path d="M9.64109354,7.64016942 C9.93109354,7.02016942 10.0610935,6.31016942 9.98109354,5.55016942 C9.79109354,3.82016942 8.44109354,2.35016942 6.72109354,2.06016942 C3.95109354,1.58016942 1.58109354,3.95016942 2.06109354,6.71016942 C2.36109354,8.43016942 3.82109354,9.78016942 5.55109354,9.97016942 C6.31109354,10.0501694 7.01109354,9.92016942 7.64109354,9.63016942 L10.0010935,12.0001694 L7.64109354,14.3601694 C7.02109354,14.0701694 6.31109354,13.9401694 5.55109354,14.0201694 C3.82109354,14.2101694 2.35109354,15.5601694 2.06109354,17.2801694 C1.58109354,20.0501694 3.95109354,22.4101694 6.71109354,21.9301694 C8.43109354,21.6301694 9.78109354,20.1701694 9.97109354,18.4401694 C10.0510935,17.6801694 9.92109354,16.9801694 9.63109354,16.3501694 L12.0010935,14.0001694 L19.5910935,21.5901694 C20.4810935,22.4801694 22.0010935,21.8501694 22.0010935,20.5901694 L22.0010935,20.5801694 C22.0010935,20.2101694 21.8510935,19.8501694 21.5910935,19.5801694 L9.64109354,7.64016942 Z M6.00109354,8.00016942 C4.90109354,8.00016942 4.00109354,7.11016942 4.00109354,6.00016942 C4.00109354,4.89016942 4.90109354,4.00016942 6.00109354,4.00016942 C7.10109354,4.00016942 8.00109354,4.89016942 8.00109354,6.00016942 C8.00109354,7.11016942 7.10109354,8.00016942 6.00109354,8.00016942 Z M6.00109354,20.0001694 C4.90109354,20.0001694 4.00109354,19.1101694 4.00109354,18.0001694 C4.00109354,16.8901694 4.90109354,16.0001694 6.00109354,16.0001694 C7.10109354,16.0001694 8.00109354,16.8901694 8.00109354,18.0001694 C8.00109354,19.1101694 7.10109354,20.0001694 6.00109354,20.0001694 Z M12.0010935,12.5001694 C11.7210935,12.5001694 11.5010935,12.2801694 11.5010935,12.0001694 C11.5010935,11.7201694 11.7210935,11.5001694 12.0010935,11.5001694 C12.2810935,11.5001694 12.5010935,11.7201694 12.5010935,12.0001694 C12.5010935,12.2801694 12.2810935,12.5001694 12.0010935,12.5001694 Z M19.5910935,2.41016942 L13.0010935,9.00016942 L15.0010935,11.0001694 L21.5910935,4.41016942 C21.8510935,4.15016942 22.0010935,3.79016942 22.0010935,3.41016942 L22.0010935,3.40016942 C22.0010935,2.15016942 20.4810935,1.52016942 19.5910935,2.41016942 Z" id="path-1"></path>
    </defs>
    <g id="icon/content/cut_24px" stroke="none" stroke-width="1" fill="none" fill-rule="evenodd">
        <mask id="mask-2" fill="white">
            <use xlink:href="#path-1"></use>
        </mask>
        <g fill-rule="nonzero"></g>
        <g id="✱-/-Color-/-Icons-/-Black-/-Inactive" mask="url(#mask-2)" fill="#000000" fill-opacity="0.54">
            <rect id="Rectangle" x="0" y="0" width="24" height="24"></rect>
        </g>
    </g>
</svg>