<?xml version="1.0" encoding="UTF-8"?>
<svg width="24px" height="24px" viewBox="0 0 24 24" version="1.1" xmlns="http://www.w3.org/2000/svg" xmlns:xlink="http://www.w3.org/1999/xlink">
    <!-- Generator: Sketch 50 (54983) - http://www.bohemiancoding.com/sketch -->
    <title>icon/content/delete_sweep_24px_rounded</title>
    <desc>Created with Sketch.</desc>
    <defs>
        <path d="M16,16 L18,16 C18.55,16 19,16.45 19,17 C19,17.55 18.55,18 18,18 L16,18 C15.45,18 15,17.55 15,17 C15,16.45 15.45,16 16,16 Z M16,8 L21,8 C21.55,8 22,8.45 22,9 C22,9.55 21.55,10 21,10 L16,10 C15.45,10 15,9.55 15,9 C15,8.45 15.45,8 16,8 Z M16,12 L20,12 C20.55,12 21,12.45 21,13 C21,13.55 20.55,14 20,14 L16,14 C15.45,14 15,13.55 15,13 C15,12.45 15.45,12 16,12 Z M3,18 C3,19.1 3.9,20 5,20 L11,20 C12.1,20 13,19.1 13,18 L13,8 L3,8 L3,18 Z M13,5 L11,5 L10.29,4.29 C10.11,4.11 9.85,4 9.59,4 L6.41,4 C6.15,4 5.89,4.11 5.71,4.29 L5,5 L3,5 C2.45,5 2,5.45 2,6 C2,6.55 2.45,7 3,7 L13,7 C13.55,7 14,6.55 14,6 C14,5.45 13.55,5 13,5 Z" id="path-1"></path>
    </defs>
    <g id="icon/content/delete_sweep_24px" stroke="none" stroke-width="1" fill="none" fill-rule="evenodd">
        <mask id="mask-2" fill="white">
            <use xlink:href="#path-1"></use>
        </mask>
        <g fill-rule="nonzero"></g>
        <g id="✱-/-Color-/-Icons-/-Black-/-Inactive" mask="url(#mask-2)" fill="#000000" fill-opacity="0.54">
            <rect id="Rectangle" x="0" y="0" width="24" height="24"></rect>
        </g>
    </g>
</svg>