<?xml version="1.0" encoding="UTF-8"?>
<svg width="24px" height="24px" viewBox="0 0 24 24" version="1.1" xmlns="http://www.w3.org/2000/svg" xmlns:xlink="http://www.w3.org/1999/xlink">
    <!-- Generator: Sketch 50 (54983) - http://www.bohemiancoding.com/sketch -->
    <title>icon/content/drafts_24px_rounded</title>
    <desc>Created with Sketch.</desc>
    <defs>
        <path d="M21.99,9.34375 C21.99,8.62375 21.62,7.99375 21.05,7.64375 L13.01,2.93375 C12.39,2.56375 11.61,2.56375 10.99,2.93375 L2.95,7.64375 C2.38,7.99375 2,8.62375 2,9.34375 L2,19.34375 C2,20.44375 2.9,21.34375 4,21.34375 L20,21.34375 C21.1,21.34375 22,20.44375 22,19.34375 L21.99,9.34375 Z M10.94,13.68375 L3.74,9.18375 L10.99,4.93375 C11.61,4.56375 12.39,4.56375 13.01,4.93375 L20.26,9.18375 L13.06,13.68375 C12.41,14.08375 11.59,14.08375 10.94,13.68375 Z" id="path-1"></path>
    </defs>
    <g id="icon/content/drafts_24px" stroke="none" stroke-width="1" fill="none" fill-rule="evenodd">
        <mask id="mask-2" fill="white">
            <use xlink:href="#path-1"></use>
        </mask>
        <g fill-rule="nonzero"></g>
        <g id="✱-/-Color-/-Icons-/-Black-/-Inactive" mask="url(#mask-2)" fill="#000000" fill-opacity="0.54">
            <rect id="Rectangle" x="0" y="0" width="24" height="24"></rect>
        </g>
    </g>
</svg>