<?xml version="1.0" encoding="UTF-8"?>
<svg width="24px" height="24px" viewBox="0 0 24 24" version="1.1" xmlns="http://www.w3.org/2000/svg" xmlns:xlink="http://www.w3.org/1999/xlink">
    <!-- Generator: Sketch 50 (54983) - http://www.bohemiancoding.com/sketch -->
    <title>icon/content/font_download_24px_rounded</title>
    <desc>Created with Sketch.</desc>
    <defs>
        <path d="M9.93,13.5 L14.07,13.5 L12,7.98 L9.93,13.5 Z M20,2 L4,2 C2.9,2 2,2.9 2,4 L2,20 C2,21.1 2.9,22 4,22 L20,22 C21.1,22 22,21.1 22,20 L22,4 C22,2.9 21.1,2 20,2 Z M15.71,17.88 L14.81,15.5 L9.17,15.5 L8.28,17.87 C8.14,18.25 7.78,18.5 7.37,18.5 C6.69,18.5 6.22,17.81 6.47,17.18 L10.72,6.37 C10.94,5.84 11.44,5.5 12,5.5 C12.56,5.5 13.06,5.84 13.27,6.37 L17.52,17.18 C17.77,17.81 17.3,18.5 16.62,18.5 C16.22,18.5 15.86,18.25 15.71,17.88 Z" id="path-1"></path>
    </defs>
    <g id="icon/content/font_download_24px" stroke="none" stroke-width="1" fill="none" fill-rule="evenodd">
        <mask id="mask-2" fill="white">
            <use xlink:href="#path-1"></use>
        </mask>
        <g fill-rule="nonzero"></g>
        <g id="✱-/-Color-/-Icons-/-Black-/-Inactive" mask="url(#mask-2)" fill="#000000" fill-opacity="0.54">
            <rect id="Rectangle" x="0" y="0" width="24" height="24"></rect>
        </g>
    </g>
</svg>