<?xml version="1.0" encoding="UTF-8"?>
<svg width="24px" height="24px" viewBox="0 0 24 24" version="1.1" xmlns="http://www.w3.org/2000/svg" xmlns:xlink="http://www.w3.org/1999/xlink">
    <!-- Generator: Sketch 50 (54983) - http://www.bohemiancoding.com/sketch -->
    <title>icon/content/gesture_24px_rounded</title>
    <desc>Created with Sketch.</desc>
    <defs>
        <path d="M3.65,6.05 C4.12,6.51 4.86,6.53 5.36,6.11 C5.73,5.79 6.05,5.6 6.23,5.68 C6.73,5.88 6.23,6.71 5.93,7.2 C5.68,7.62 3.07,11.09 3.07,13.51 C3.07,14.79 3.55,15.85 4.41,16.49 C5.16,17.05 6.15,17.22 7.05,16.95 C8.12,16.64 9,15.55 10.11,14.18 C11.32,12.69 12.94,10.74 14.19,10.74 C15.82,10.74 15.84,11.75 15.95,12.53 C12.17,13.17 10.57,16.2 10.57,17.9 C10.57,19.6 12.01,20.99 13.78,20.99 C15.41,20.99 18.07,19.66 18.47,14.89 L19.68,14.89 C20.37,14.89 20.93,14.33 20.93,13.64 C20.93,12.95 20.37,12.39 19.68,12.39 L18.46,12.39 C18.31,10.74 17.37,8.19 14.43,8.19 C12.18,8.19 10.25,10.1 9.49,11.03 C8.91,11.76 7.43,13.51 7.2,13.75 C6.95,14.05 6.52,14.59 6.09,14.59 C5.64,14.59 5.37,13.76 5.73,12.67 C6.08,11.58 7.13,9.81 7.58,9.15 C8.36,8.01 8.88,7.23 8.88,5.87 C8.88,3.7 7.24,3.01 6.37,3.01 C5.28,3.01 4.33,3.64 3.67,4.23 C3.14,4.71 3.14,5.55 3.65,6.05 Z M13.81,18.56 C13.5,18.56 13.07,18.3 13.07,17.84 C13.07,17.24 13.8,15.64 15.94,15.08 C15.64,17.77 14.51,18.56 13.81,18.56 Z" id="path-1"></path>
    </defs>
    <g id="icon/content/gesture_24px" stroke="none" stroke-width="1" fill="none" fill-rule="evenodd">
        <mask id="mask-2" fill="white">
            <use xlink:href="#path-1"></use>
        </mask>
        <g fill-rule="nonzero"></g>
        <g id="✱-/-Color-/-Icons-/-Black-/-Inactive" mask="url(#mask-2)" fill="#000000" fill-opacity="0.54">
            <rect id="Rectangle" x="0" y="0" width="24" height="24"></rect>
        </g>
    </g>
</svg>