<?xml version="1.0" encoding="UTF-8"?>
<svg width="24px" height="24px" viewBox="0 0 24 24" version="1.1" xmlns="http://www.w3.org/2000/svg" xmlns:xlink="http://www.w3.org/1999/xlink">
    <!-- Generator: Sketch 50 (54983) - http://www.bohemiancoding.com/sketch -->
    <title>icon/content/link_off_24px_rounded</title>
    <desc>Created with Sketch.</desc>
    <defs>
        <path d="M21.9386222,11.3 C21.5686222,8.83 19.3186222,7.07 16.8186222,7.07 L13.9486222,7.07 C13.4286222,7.07 12.9986222,7.5 12.9986222,8.02 C12.9986222,8.54 13.4286222,8.97 13.9486222,8.97 L16.8486222,8.97 C18.4486222,8.97 19.8886222,10.11 20.0686222,11.7 C20.2386222,13.13 19.4286222,14.39 18.2186222,14.92 L19.6186222,16.32 C21.2486222,15.3 22.2586222,13.41 21.9386222,11.3 Z M4.11862219,3.63 C3.72862219,3.24 3.09862219,3.24 2.70862219,3.63 C2.31862219,4.02 2.31862219,4.65 2.70862219,5.04 L5.10862219,7.44 C3.16862219,8.24 1.83862219,10.21 2.01862219,12.48 C2.22862219,15.12 4.58862219,17.07 7.22862219,17.07 L10.0486222,17.07 C10.5686222,17.07 10.9986222,16.64 10.9986222,16.12 C10.9986222,15.6 10.5686222,15.17 10.0486222,15.17 L7.15862219,15.17 C5.52862219,15.17 4.05862219,13.98 3.90862219,12.35 C3.75862219,10.63 5.01862219,9.18 6.65862219,9 L8.75862219,11.1 C8.32862219,11.19 7.99862219,11.56 7.99862219,12.02 L7.99862219,12.12 C7.99862219,12.64 8.42862219,13.07 8.94862219,13.07 L10.7286222,13.07 L12.9986222,15.34 L12.9986222,17.07 L14.7286222,17.07 L18.0286222,20.37 C18.4186222,20.76 19.0486222,20.76 19.4386222,20.37 C19.8286222,19.98 19.8286222,19.35 19.4386222,18.96 L4.11862219,3.63 Z M15.9986222,12.02 C15.9986222,11.5 15.5686222,11.07 15.0486222,11.07 L14.3886222,11.07 L15.8786222,12.56 C15.9486222,12.43 15.9986222,12.28 15.9986222,12.12 L15.9986222,12.02 Z" id="path-1"></path>
    </defs>
    <g id="icon/content/link_off_24px" stroke="none" stroke-width="1" fill="none" fill-rule="evenodd">
        <mask id="mask-2" fill="white">
            <use xlink:href="#path-1"></use>
        </mask>
        <g fill-rule="nonzero"></g>
        <g id="✱-/-Color-/-Icons-/-Black-/-Inactive" mask="url(#mask-2)" fill="#000000" fill-opacity="0.54">
            <rect id="Rectangle" x="0" y="0" width="24" height="24"></rect>
        </g>
    </g>
</svg>