<?xml version="1.0" encoding="UTF-8"?>
<svg width="24px" height="24px" viewBox="0 0 24 24" version="1.1" xmlns="http://www.w3.org/2000/svg" xmlns:xlink="http://www.w3.org/1999/xlink">
    <!-- Generator: Sketch 50 (54983) - http://www.bohemiancoding.com/sketch -->
    <title>icon/content/low_priority_24px_rounded</title>
    <desc>Created with Sketch.</desc>
    <defs>
        <path d="M14.9985648,4.85252332 L20.9985648,4.85252332 C21.5485648,4.85252332 21.9985648,5.30252332 21.9985648,5.85252332 C21.9985648,6.40252332 21.5485648,6.85252332 20.9985648,6.85252332 L14.9985648,6.85252332 C14.4485648,6.85252332 13.9985648,6.40252332 13.9985648,5.85252332 C13.9985648,5.30252332 14.4485648,4.85252332 14.9985648,4.85252332 Z M14.9985648,10.3525233 L20.9985648,10.3525233 C21.5485648,10.3525233 21.9985648,10.8025233 21.9985648,11.3525233 C21.9985648,11.9025233 21.5485648,12.3525233 20.9985648,12.3525233 L14.9985648,12.3525233 C14.4485648,12.3525233 13.9985648,11.9025233 13.9985648,11.3525233 C13.9985648,10.8025233 14.4485648,10.3525233 14.9985648,10.3525233 Z M14.9985648,15.8525233 L20.9985648,15.8525233 C21.5485648,15.8525233 21.9985648,16.3025233 21.9985648,16.8525233 C21.9985648,17.4025233 21.5485648,17.8525233 20.9985648,17.8525233 L14.9985648,17.8525233 C14.4485648,17.8525233 13.9985648,17.4025233 13.9985648,16.8525233 C13.9985648,16.3025233 14.4485648,15.8525233 14.9985648,15.8525233 Z M9.84856479,19.0025233 L11.6385648,17.2125233 C11.8385648,17.0125233 11.8385648,16.7025233 11.6385648,16.5025233 L9.84856479,14.7125233 C9.53856479,14.3925233 8.99856479,14.6125233 8.99856479,15.0625233 L8.99856479,18.6525233 C8.99856479,19.0925233 9.53856479,19.3125233 9.84856479,19.0025233 Z M8.99856479,15.8525233 L8.69856479,15.8525233 C6.34856479,15.8525233 4.24856479,14.1425233 4.01856479,11.8025233 C3.75856479,9.12252332 5.86856479,6.85252332 8.49856479,6.85252332 L10.9985648,6.85252332 C11.5485648,6.85252332 11.9985648,6.40252332 11.9985648,5.85252332 C11.9985648,5.30252332 11.5485648,4.85252332 10.9985648,4.85252332 L8.49856479,4.85252332 C4.63856479,4.85252332 1.53856479,8.25252332 2.05856479,12.2125233 C2.47856479,15.4925233 5.42856479,17.8525233 8.72856479,17.8525233 L8.99856479,17.8525233 L8.99856479,15.8525233 Z" id="path-1"></path>
    </defs>
    <g id="icon/content/low_priority_24px" stroke="none" stroke-width="1" fill="none" fill-rule="evenodd">
        <mask id="mask-2" fill="white">
            <use xlink:href="#path-1"></use>
        </mask>
        <g fill-rule="nonzero"></g>
        <g id="✱-/-Color-/-Icons-/-Black-/-Inactive" mask="url(#mask-2)" fill="#000000" fill-opacity="0.54">
            <rect id="Rectangle" x="0" y="0" width="24" height="24"></rect>
        </g>
    </g>
</svg>