<?xml version="1.0" encoding="UTF-8"?>
<svg width="24px" height="24px" viewBox="0 0 24 24" version="1.1" xmlns="http://www.w3.org/2000/svg" xmlns:xlink="http://www.w3.org/1999/xlink">
    <!-- Generator: Sketch 50 (54983) - http://www.bohemiancoding.com/sketch -->
    <title>icon/content/outlined_flag_24px_rounded</title>
    <desc>Created with Sketch.</desc>
    <defs>
        <path d="M13.5,5.5 L12.78,4.05 C12.61,3.71 12.26,3.5 11.88,3.5 L5.5,3.5 C4.95,3.5 4.5,3.95 4.5,4.5 L4.5,19.5 C4.5,20.05 4.95,20.5 5.5,20.5 C6.05,20.5 6.5,20.05 6.5,19.5 L6.5,13.5 L11.5,13.5 L12.22,14.95 C12.39,15.29 12.74,15.5 13.11,15.5 L18.5,15.5 C19.05,15.5 19.5,15.05 19.5,14.5 L19.5,6.5 C19.5,5.95 19.05,5.5 18.5,5.5 L13.5,5.5 Z M17.5,13.5 L13.5,13.5 L12.5,11.5 L6.5,11.5 L6.5,5.5 L11.5,5.5 L12.5,7.5 L17.5,7.5 L17.5,13.5 Z" id="path-1"></path>
    </defs>
    <g id="icon/content/outlined_flag_24px" stroke="none" stroke-width="1" fill="none" fill-rule="evenodd">
        <mask id="mask-2" fill="white">
            <use xlink:href="#path-1"></use>
        </mask>
        <g fill-rule="nonzero"></g>
        <g id="✱-/-Color-/-Icons-/-Black-/-Inactive" mask="url(#mask-2)" fill="#000000" fill-opacity="0.54">
            <rect id="Rectangle" x="0" y="0" width="24" height="24"></rect>
        </g>
    </g>
</svg>