<?xml version="1.0" encoding="UTF-8"?>
<svg width="24px" height="24px" viewBox="0 0 24 24" version="1.1" xmlns="http://www.w3.org/2000/svg" xmlns:xlink="http://www.w3.org/1999/xlink">
    <!-- Generator: Sketch 50 (54983) - http://www.bohemiancoding.com/sketch -->
    <title>icon/content/report_gmailerrorred_24px_rounded</title>
    <desc>Created with Sketch.</desc>
    <defs>
        <path d="M20.7146857,7.98 L16.0346857,3.3 C15.8446857,3.11 15.5846857,3 15.3246857,3 L8.68468567,3 C8.42468567,3 8.16468567,3.11 7.98468567,3.29 L3.29468567,7.98 C3.11468567,8.16 3.00468567,8.42 3.00468567,8.68 L3.00468567,15.31 C3.00468567,15.58 3.11468567,15.83 3.29468567,16.02 L7.97468567,20.7 C8.16468567,20.89 8.42468567,21 8.68468567,21 L15.3146857,21 C15.5846857,21 15.8346857,20.89 16.0246857,20.71 L20.7046857,16.03 C20.8946857,15.84 20.9946857,15.59 20.9946857,15.32 L20.9946857,8.68 C21.0046857,8.42 20.8946857,8.16 20.7146857,7.98 Z M19.0046857,14.9 L14.9046857,19 L9.10468567,19 L5.00468567,14.9 L5.00468567,9.1 L9.10468567,5 L14.9046857,5 L19.0046857,9.1 L19.0046857,14.9 Z M12.0046857,15 C11.4524009,15 11.0046857,15.4477153 11.0046857,16 C11.0046857,16.5522847 11.4524009,17 12.0046857,17 C12.5569704,17 13.0046857,16.5522847 13.0046857,16 C13.0046857,15.4477153 12.5569704,15 12.0046857,15 Z M12.0046857,7 C11.4546857,7 11.0046857,7.45 11.0046857,8 L11.0046857,13 C11.0046857,13.55 11.4546857,14 12.0046857,14 C12.5546857,14 13.0046857,13.55 13.0046857,13 L13.0046857,8 C13.0046857,7.45 12.5546857,7 12.0046857,7 Z" id="path-1"></path>
    </defs>
    <g id="icon/content/report_gmailerrorred_24px" stroke="none" stroke-width="1" fill="none" fill-rule="evenodd">
        <mask id="mask-2" fill="white">
            <use xlink:href="#path-1"></use>
        </mask>
        <g fill-rule="nonzero"></g>
        <g id="✱-/-Color-/-Icons-/-Black-/-Inactive" mask="url(#mask-2)" fill="#000000" fill-opacity="0.54">
            <rect id="Rectangle" x="0" y="0" width="24" height="24"></rect>
        </g>
    </g>
</svg>