<?xml version="1.0" encoding="UTF-8"?>
<svg width="24px" height="24px" viewBox="0 0 24 24" version="1.1" xmlns="http://www.w3.org/2000/svg" xmlns:xlink="http://www.w3.org/1999/xlink">
    <!-- Generator: Sketch 50 (54983) - http://www.bohemiancoding.com/sketch -->
    <title>icon/content/report_off_24px_rounded</title>
    <desc>Created with Sketch.</desc>
    <defs>
        <path d="M12.29,6.71 C12.84,6.71 13.29,7.16 13.29,7.71 L13.29,9.04 L20.49,16.24 L21,15.73 C21.19,15.54 21.29,15.29 21.29,15.02 L21.29,8.39 C21.29,8.12 21.18,7.87 21,7.68 L16.32,3 C16.13,2.82 15.87,2.71 15.61,2.71 L8.97,2.71 C8.71,2.71 8.45,2.82 8.27,3 L7.76,3.51 L11.45,7.2 C11.62,6.91 11.93,6.71 12.29,6.71 Z M2.7,1.29 L1.29,2.7 L4.93,6.34 L3.58,7.69 C3.4,7.87 3.29,8.13 3.29,8.39 L3.29,15.02 C3.29,15.29 3.4,15.54 3.58,15.73 L8.26,20.41 C8.45,20.6 8.71,20.71 8.97,20.71 L15.6,20.71 C15.87,20.71 16.12,20.6 16.31,20.42 L17.66,19.07 L21.3,22.71 L22.71,21.3 L2.7,1.29 Z M12.29,17.01 C11.57,17.01 10.99,16.43 10.99,15.71 C10.99,14.99 11.57,14.41 12.29,14.41 C13.01,14.41 13.59,14.99 13.59,15.71 C13.59,16.43 13.01,17.01 12.29,17.01 Z" id="path-1"></path>
    </defs>
    <g id="icon/content/report_off_24px" stroke="none" stroke-width="1" fill="none" fill-rule="evenodd">
        <mask id="mask-2" fill="white">
            <use xlink:href="#path-1"></use>
        </mask>
        <g fill-rule="nonzero"></g>
        <g id="✱-/-Color-/-Icons-/-Black-/-Inactive" mask="url(#mask-2)" fill="#000000" fill-opacity="0.54">
            <rect id="Rectangle" x="0" y="0" width="24" height="24"></rect>
        </g>
    </g>
</svg>