<?xml version="1.0" encoding="UTF-8"?>
<svg width="24px" height="24px" viewBox="0 0 24 24" version="1.1" xmlns="http://www.w3.org/2000/svg" xmlns:xlink="http://www.w3.org/1999/xlink">
    <!-- Generator: Sketch 50 (54983) - http://www.bohemiancoding.com/sketch -->
    <title>icon/content/save_alt_24px_rounded</title>
    <desc>Created with Sketch.</desc>
    <defs>
        <path d="M19,13 L19,18 C19,18.55 18.55,19 18,19 L6,19 C5.45,19 5,18.55 5,18 L5,13 C5,12.45 4.55,12 4,12 C3.45,12 3,12.45 3,13 L3,19 C3,20.1 3.9,21 5,21 L19,21 C20.1,21 21,20.1 21,19 L21,13 C21,12.45 20.55,12 20,12 C19.45,12 19,12.45 19,13 Z M13,12.67 L14.88,10.79 C15.27,10.4 15.9,10.4 16.29,10.79 C16.68,11.18 16.68,11.81 16.29,12.2 L12.7,15.79 C12.31,16.18 11.68,16.18 11.29,15.79 L7.7,12.2 C7.51274733,12.0131685 7.40751439,11.7595176 7.40751439,11.495 C7.40751439,11.2304824 7.51274733,10.9768315 7.7,10.79 C8.09,10.4 8.72,10.4 9.11,10.79 L11,12.67 L11,4 C11,3.45 11.45,3 12,3 C12.55,3 13,3.45 13,4 L13,12.67 Z" id="path-1"></path>
    </defs>
    <g id="icon/content/save_alt_24px" stroke="none" stroke-width="1" fill="none" fill-rule="evenodd">
        <mask id="mask-2" fill="white">
            <use xlink:href="#path-1"></use>
        </mask>
        <g fill-rule="nonzero"></g>
        <g id="✱-/-Color-/-Icons-/-Black-/-Inactive" mask="url(#mask-2)" fill="#000000" fill-opacity="0.54">
            <rect id="Rectangle" x="0" y="0" width="24" height="24"></rect>
        </g>
    </g>
</svg>