<?xml version="1.0" encoding="UTF-8"?>
<svg width="24px" height="24px" viewBox="0 0 24 24" version="1.1" xmlns="http://www.w3.org/2000/svg" xmlns:xlink="http://www.w3.org/1999/xlink">
    <!-- Generator: Sketch 50 (54983) - http://www.bohemiancoding.com/sketch -->
    <title>icon/maps/add_location_24px_rounded</title>
    <desc>Created with Sketch.</desc>
    <defs>
        <path d="M12,2.265 C8.14,2.265 5,5.405 5,9.265 C5,13.435 9.42,19.185 11.24,21.375 C11.64,21.855 12.37,21.855 12.77,21.375 C14.58,19.185 19,13.435 19,9.265 C19,5.405 15.86,2.265 12,2.265 Z M15,10.265 L13,10.265 L13,12.265 C13,12.815 12.55,13.265 12,13.265 C11.45,13.265 11,12.815 11,12.265 L11,10.265 L9,10.265 C8.45,10.265 8,9.815 8,9.265 C8,8.715 8.45,8.265 9,8.265 L11,8.265 L11,6.265 C11,5.715 11.45,5.265 12,5.265 C12.55,5.265 13,5.715 13,6.265 L13,8.265 L15,8.265 C15.55,8.265 16,8.715 16,9.265 C16,9.815 15.55,10.265 15,10.265 Z" id="path-1"></path>
    </defs>
    <g id="icon/maps/add_location_24px" stroke="none" stroke-width="1" fill="none" fill-rule="evenodd">
        <mask id="mask-2" fill="white">
            <use xlink:href="#path-1"></use>
        </mask>
        <g fill-rule="nonzero"></g>
        <g id="✱-/-Color-/-Icons-/-Black-/-Inactive" mask="url(#mask-2)" fill="#000000" fill-opacity="0.54">
            <rect id="Rectangle" x="0" y="0" width="24" height="24"></rect>
        </g>
    </g>
</svg>