<?xml version="1.0" encoding="UTF-8"?>
<svg width="24px" height="24px" viewBox="0 0 24 24" version="1.1" xmlns="http://www.w3.org/2000/svg" xmlns:xlink="http://www.w3.org/1999/xlink">
    <!-- Generator: Sketch 50 (54983) - http://www.bohemiancoding.com/sketch -->
    <title>icon/maps/atm_24px_rounded</title>
    <desc>Created with Sketch.</desc>
    <defs>
        <path d="M8,9.75 C8,10.16 8.34,10.5 8.75,10.5 L10.25,10.5 L10.25,14.25 C10.25,14.66 10.59,15 11,15 C11.41,15 11.75,14.66 11.75,14.25 L11.75,10.5 L13.25,10.5 C13.66,10.5 14,10.16 14,9.75 C14,9.34 13.66,9 13.25,9 L8.75,9 C8.34,9 8,9.34 8,9.75 Z M6,9 L3,9 C2.45,9 2,9.45 2,10 L2,14.25 C2,14.66 2.34,15 2.75,15 C3.16,15 3.5,14.66 3.5,14.25 L3.5,13.5 L5.5,13.5 L5.5,14.25 C5.5,14.66 5.84,15 6.25,15 C6.66,15 7,14.66 7,14.25 L7,10 C7,9.45 6.55,9 6,9 Z M5.5,12 L3.5,12 L3.5,10.5 L5.5,10.5 L5.5,12 Z M21,9 L16.5,9 C15.95,9 15.5,9.45 15.5,10 L15.5,14.25 C15.5,14.66 15.84,15 16.25,15 C16.66,15 17,14.66 17,14.25 L17,10.5 L18,10.5 L18,13.25 C18,13.66 18.34,14 18.75,14 C19.16,14 19.5,13.66 19.5,13.25 L19.5,10.49 L20.5,10.49 L20.5,14.25 C20.5,14.66 20.84,15 21.25,15 C21.66,15 22,14.66 22,14.25 L22,10 C22,9.45 21.55,9 21,9 Z" id="path-1"></path>
    </defs>
    <g id="icon/maps/atm_24px" stroke="none" stroke-width="1" fill="none" fill-rule="evenodd">
        <mask id="mask-2" fill="white">
            <use xlink:href="#path-1"></use>
        </mask>
        <g fill-rule="nonzero"></g>
        <g id="✱-/-Color-/-Icons-/-Black-/-Inactive" mask="url(#mask-2)" fill="#000000" fill-opacity="0.54">
            <rect id="Rectangle" x="0" y="0" width="24" height="24"></rect>
        </g>
    </g>
</svg>