<?xml version="1.0" encoding="UTF-8"?>
<svg width="24px" height="24px" viewBox="0 0 24 24" version="1.1" xmlns="http://www.w3.org/2000/svg" xmlns:xlink="http://www.w3.org/1999/xlink">
    <!-- Generator: Sketch 50 (54983) - http://www.bohemiancoding.com/sketch -->
    <title>icon/maps/directions_boat_24px_rounded</title>
    <desc>Created with Sketch.</desc>
    <defs>
        <path d="M20.001165,21 C18.711165,21 17.421165,20.59 16.261165,19.86 C16.101165,19.76 15.891165,19.76 15.731165,19.86 C13.421165,21.33 10.571165,21.33 8.261165,19.86 C8.101165,19.76 7.891165,19.76 7.731165,19.86 C6.581165,20.59 5.291165,21 4.001165,21 L3.001165,21 C2.451165,21 2.001165,21.45 2.001165,22 C2.001165,22.55 2.451165,23 3.001165,23 L4.001165,23 C5.381165,23 6.741165,22.65 8.001165,22.01 C10.521165,23.3 13.481165,23.3 16.001165,22.01 C17.261165,22.66 18.621165,23 20.001165,23 L21.001165,23 C21.551165,23 22.001165,22.55 22.001165,22 C22.001165,21.45 21.551165,21 21.001165,21 L20.001165,21 Z M3.951165,19 L4.001165,19 C5.421165,19 6.701165,18.3 7.661165,17.36 C7.851165,17.18 8.161165,17.18 8.351165,17.36 C9.301165,18.3 10.581165,19 12.001165,19 C13.421165,19 14.701165,18.3 15.661165,17.36 C15.851165,17.17 16.151165,17.17 16.351165,17.36 C17.301165,18.3 18.581165,19 20.001165,19 L20.051165,19 L21.941165,12.32 C22.021165,12.06 22.001165,11.78 21.881165,11.54 C21.761165,11.3 21.541165,11.12 21.281165,11.04 L20.001165,10.62 L20.001165,6 C20.001165,4.9 19.101165,4 18.001165,4 L15.001165,4 L15.001165,2 C15.001165,1.45 14.551165,1 14.001165,1 L10.001165,1 C9.451165,1 9.001165,1.45 9.001165,2 L9.001165,4 L6.001165,4 C4.901165,4 4.001165,4.9 4.001165,6 L4.001165,10.62 L2.711165,11.04 C2.451165,11.12 2.231165,11.3 2.111165,11.54 C1.991165,11.78 1.961165,12.06 2.051165,12.32 L3.951165,19 Z M7.001165,6 L17.001165,6 C17.551165,6 18.001165,6.45 18.001165,7 L18.001165,9.97 L12.621165,8.2 C12.211165,8.07 11.781165,8.07 11.371165,8.2 L6.001165,9.97 L6.001165,7 C6.001165,6.45 6.451165,6 7.001165,6 Z" id="path-1"></path>
    </defs>
    <g id="icon/maps/directions_boat_24px" stroke="none" stroke-width="1" fill="none" fill-rule="evenodd">
        <mask id="mask-2" fill="white">
            <use xlink:href="#path-1"></use>
        </mask>
        <g fill-rule="nonzero"></g>
        <g id="✱-/-Color-/-Icons-/-Black-/-Inactive" mask="url(#mask-2)" fill="#000000" fill-opacity="0.54">
            <rect id="Rectangle" x="0" y="0" width="24" height="24"></rect>
        </g>
    </g>
</svg>