<?xml version="1.0" encoding="UTF-8"?>
<svg width="24px" height="24px" viewBox="0 0 24 24" version="1.1" xmlns="http://www.w3.org/2000/svg" xmlns:xlink="http://www.w3.org/1999/xlink">
    <!-- Generator: Sketch 50 (54983) - http://www.bohemiancoding.com/sketch -->
    <title>icon/maps/directions_walk_24px_rounded</title>
    <desc>Created with Sketch.</desc>
    <defs>
        <path d="M13,5.25 C14.1,5.25 15,4.35 15,3.25 C15,2.15 14.1,1.25 13,1.25 C11.9,1.25 11,2.15 11,3.25 C11,4.35 11.9,5.25 13,5.25 Z M9.3,8.65 L6.74,21.56 C6.61,22.17 7.09,22.75 7.72,22.75 L7.8,22.75 C8.27,22.75 8.67,22.43 8.78,21.97 L10.4,14.75 L12.5,16.75 L12.5,21.75 C12.5,22.3 12.95,22.75 13.5,22.75 C14.05,22.75 14.5,22.3 14.5,21.75 L14.5,16.11 C14.5,15.56 14.28,15.04 13.88,14.66 L12.4,13.25 L13,10.25 C14.07,11.49 15.62,12.38 17.36,12.66 C17.96,12.75 18.5,12.27 18.5,11.66 C18.5,11.17 18.14,10.76 17.65,10.68 C16.13,10.43 14.87,9.53 14.2,8.35 L13.2,6.75 C12.64,5.86 11.52,5.5 10.55,5.91 L6.72,7.53 C5.98,7.85 5.5,8.57 5.5,9.38 L5.5,11.75 C5.5,12.3 5.95,12.75 6.5,12.75 C7.05,12.75 7.5,12.3 7.5,11.75 L7.5,9.35 L9.3,8.65 Z" id="path-1"></path>
    </defs>
    <g id="icon/maps/directions_walk_24px" stroke="none" stroke-width="1" fill="none" fill-rule="evenodd">
        <mask id="mask-2" fill="white">
            <use xlink:href="#path-1"></use>
        </mask>
        <g fill-rule="nonzero"></g>
        <g id="✱-/-Color-/-Icons-/-Black-/-Inactive" mask="url(#mask-2)" fill="#000000" fill-opacity="0.54">
            <rect id="Rectangle" x="0" y="0" width="24" height="24"></rect>
        </g>
    </g>
</svg>