<?xml version="1.0" encoding="UTF-8"?>
<svg width="24px" height="24px" viewBox="0 0 24 24" version="1.1" xmlns="http://www.w3.org/2000/svg" xmlns:xlink="http://www.w3.org/1999/xlink">
    <!-- Generator: Sketch 50 (54983) - http://www.bohemiancoding.com/sketch -->
    <title>icon/maps/directions_run_24px_rounded</title>
    <desc>Created with Sketch.</desc>
    <defs>
        <path d="M14.460108,5.25 C15.560108,5.25 16.460108,4.35 16.460108,3.25 C16.460108,2.15 15.560108,1.25 14.460108,1.25 C13.360108,1.25 12.460108,2.15 12.460108,3.25 C12.460108,4.35 13.360108,5.25 14.460108,5.25 Z M11.290108,17.25 L11.860108,14.75 L13.960108,16.75 L13.960108,21.75 C13.960108,22.3 14.410108,22.75 14.960108,22.75 C15.510108,22.75 15.960108,22.3 15.960108,21.75 L15.960108,16.11 C15.960108,15.56 15.740108,15.04 15.340108,14.66 L13.860108,13.25 L14.460108,10.25 C15.530108,11.49 17.080108,12.38 18.820108,12.66 C19.420108,12.75 19.960108,12.27 19.960108,11.66 C19.960108,11.17 19.600108,10.76 19.110108,10.68 C17.590108,10.43 16.330108,9.53 15.660108,8.35 L14.660108,6.75 C14.260108,6.15 13.660108,5.75 12.960108,5.75 C12.660108,5.75 12.460108,5.85 12.160108,5.85 L8.18010796,7.53 C7.44010796,7.85 6.96010796,8.57 6.96010796,9.38 L6.96010796,11.75 C6.96010796,12.3 7.41010796,12.75 7.96010796,12.75 C8.51010796,12.75 8.96010796,12.3 8.96010796,11.75 L8.96010796,9.35 L10.760108,8.65 L9.16010796,16.75 L5.24010796,15.95 C4.70010796,15.84 4.17010796,16.19 4.06010796,16.73 L4.06010796,16.77 C3.95010796,17.31 4.30010796,17.84 4.84010796,17.95 L8.95010796,18.77 C10.010108,18.98 11.050108,18.31 11.290108,17.25 Z" id="path-1"></path>
    </defs>
    <g id="icon/maps/directions_run_24px" stroke="none" stroke-width="1" fill="none" fill-rule="evenodd">
        <mask id="mask-2" fill="white">
            <use xlink:href="#path-1"></use>
        </mask>
        <g fill-rule="nonzero"></g>
        <g id="✱-/-Color-/-Icons-/-Black-/-Inactive" mask="url(#mask-2)" fill="#000000" fill-opacity="0.54">
            <rect id="Rectangle" x="0" y="0" width="24" height="24"></rect>
        </g>
    </g>
</svg>