<?xml version="1.0" encoding="UTF-8"?>
<svg width="24px" height="24px" viewBox="0 0 24 24" version="1.1" xmlns="http://www.w3.org/2000/svg" xmlns:xlink="http://www.w3.org/1999/xlink">
    <!-- Generator: Sketch 50 (54983) - http://www.bohemiancoding.com/sketch -->
    <title>icon/maps/edit_attributes_24px_rounded</title>
    <desc>Created with Sketch.</desc>
    <defs>
        <path d="M17.63,7 L6.37,7 C3.96,7 2,9.24 2,12 C2,14.76 3.96,17 6.37,17 L17.63,17 C20.04,17 22,14.76 22,12 C22,9.24 20.04,7 17.63,7 Z M11.11,10.6 L7.6,14.11 C7.5,14.21 7.37,14.26 7.25,14.26 C7.13,14.26 6.99,14.21 6.9,14.11 L5.04,12.25 C4.84,12.05 4.84,11.74 5.04,11.54 C5.24,11.34 5.55,11.34 5.75,11.54 L7.26,13.05 L10.42,9.89 C10.62,9.69 10.93,9.69 11.13,9.89 C11.33,10.09 11.3,10.4 11.11,10.6 Z" id="path-1"></path>
    </defs>
    <g id="icon/maps/edit_attributes_24px" stroke="none" stroke-width="1" fill="none" fill-rule="evenodd">
        <mask id="mask-2" fill="white">
            <use xlink:href="#path-1"></use>
        </mask>
        <g fill-rule="nonzero"></g>
        <g id="✱-/-Color-/-Icons-/-Black-/-Inactive" mask="url(#mask-2)" fill="#000000" fill-opacity="0.54">
            <rect id="Rectangle" x="0" y="0" width="24" height="24"></rect>
        </g>
    </g>
</svg>