<?xml version="1.0" encoding="UTF-8"?>
<svg width="24px" height="24px" viewBox="0 0 24 24" version="1.1" xmlns="http://www.w3.org/2000/svg" xmlns:xlink="http://www.w3.org/1999/xlink">
    <!-- Generator: Sketch 50 (54983) - http://www.bohemiancoding.com/sketch -->
    <title>icon/maps/ev_station_24px_rounded</title>
    <desc>Created with Sketch.</desc>
    <defs>
        <path d="M19.52,7.22851118 L19.53,7.21851118 L16.34,4.02851118 C16.05,3.73851118 15.57,3.73851118 15.28,4.02851118 C14.99,4.31851118 14.99,4.79851118 15.28,5.08851118 L16.86,6.66851118 C15.81,7.06851118 15.1,8.13851118 15.28,9.37851118 C15.44,10.4785112 16.38,11.3685112 17.48,11.4885112 C17.95,11.5385112 18.36,11.4585112 18.75,11.2885112 L18.75,18.4985112 C18.75,19.0485112 18.3,19.4985112 17.75,19.4985112 C17.2,19.4985112 16.75,19.0485112 16.75,18.4985112 L16.75,13.9985112 C16.75,12.8985112 15.85,11.9985112 14.75,11.9985112 L13.75,11.9985112 L13.75,4.99851118 C13.75,3.89851118 12.85,2.99851118 11.75,2.99851118 L5.75,2.99851118 C4.65,2.99851118 3.75,3.89851118 3.75,4.99851118 L3.75,19.9985112 C3.75,20.5485112 4.2,20.9985112 4.75,20.9985112 L12.75,20.9985112 C13.3,20.9985112 13.75,20.5485112 13.75,19.9985112 L13.75,13.4985112 L15.25,13.4985112 L15.25,18.3585112 C15.25,19.6685112 16.19,20.8585112 17.49,20.9885112 C18.99,21.1385112 20.25,19.9685112 20.25,18.4985112 L20.25,8.99851118 C20.25,8.30851118 19.97,7.67851118 19.52,7.22851118 Z M17.75,9.99851118 C17.2,9.99851118 16.75,9.54851118 16.75,8.99851118 C16.75,8.44851118 17.2,7.99851118 17.75,7.99851118 C18.3,7.99851118 18.75,8.44851118 18.75,8.99851118 C18.75,9.54851118 18.3,9.99851118 17.75,9.99851118 Z M7.75,16.1185112 L7.75,13.4985112 L6.58,13.4985112 C6.2,13.4985112 5.96,13.0985112 6.14,12.7585112 L8.81,7.75851118 C9.05,7.30851118 9.75,7.47851118 9.75,7.99851118 L9.75,10.9985112 L10.89,10.9985112 C11.27,10.9985112 11.51,11.4085112 11.32,11.7485112 L8.68,16.3685112 C8.43,16.8085112 7.75,16.6285112 7.75,16.1185112 Z" id="path-1"></path>
    </defs>
    <g id="icon/maps/ev_station_24px" stroke="none" stroke-width="1" fill="none" fill-rule="evenodd">
        <mask id="mask-2" fill="white">
            <use xlink:href="#path-1"></use>
        </mask>
        <g fill-rule="nonzero"></g>
        <g id="✱-/-Color-/-Icons-/-Black-/-Inactive" mask="url(#mask-2)" fill="#000000" fill-opacity="0.54">
            <rect id="Rectangle" x="0" y="0" width="24" height="24"></rect>
        </g>
    </g>
</svg>