<?xml version="1.0" encoding="UTF-8"?>
<svg width="24px" height="24px" viewBox="0 0 24 24" version="1.1" xmlns="http://www.w3.org/2000/svg" xmlns:xlink="http://www.w3.org/1999/xlink">
    <!-- Generator: Sketch 50 (54983) - http://www.bohemiancoding.com/sketch -->
    <title>icon/maps/fastfood_24px_rounded</title>
    <desc>Created with Sketch.</desc>
    <defs>
        <path d="M21.9523651,5 L18.0523651,5 L18.0523651,2 C18.0523651,1.45 17.6023651,1 17.0523651,1 C16.5023651,1 16.0523651,1.45 16.0523651,2 L16.0523651,5 L12.1523651,5 C11.5623651,5 11.1023651,5.51 11.1523651,6.1 L11.2723651,7.31 C14.9523651,8.16 18.0523651,10.77 18.0523651,15 L18.0723651,23 L19.7723651,23 C20.6123651,23 21.3023651,22.35 21.4023651,21.53 L22.9423651,6.1 C23.0023651,5.51 22.5423651,5 21.9523651,5 Z M15.0523651,21 L2.05236513,21 C1.50236513,21 1.05236513,21.45 1.05236513,22 C1.05236513,22.55 1.50236513,23 2.05236513,23 L15.0523651,23 C15.6023651,23 16.0523651,22.55 16.0523651,22 C16.0523651,21.45 15.6023651,21 15.0523651,21 Z M2.15236513,15 L14.9523651,15 C15.5723651,15 16.0623651,14.44 15.9423651,13.84 C15.2923651,10.61 11.9223651,8.99 8.55236513,8.99 C5.18236513,8.99 1.82236513,10.61 1.16236513,13.84 C1.04236513,14.44 1.54236513,15 2.15236513,15 Z M15.0523651,17 L2.05236513,17 C1.50236513,17 1.05236513,17.45 1.05236513,18 C1.05236513,18.55 1.50236513,19 2.05236513,19 L15.0523651,19 C15.6023651,19 16.0523651,18.55 16.0523651,18 C16.0523651,17.45 15.6023651,17 15.0523651,17 Z" id="path-1"></path>
    </defs>
    <g id="icon/maps/fastfood_24px" stroke="none" stroke-width="1" fill="none" fill-rule="evenodd">
        <mask id="mask-2" fill="white">
            <use xlink:href="#path-1"></use>
        </mask>
        <g fill-rule="nonzero"></g>
        <g id="✱-/-Color-/-Icons-/-Black-/-Inactive" mask="url(#mask-2)" fill="#000000" fill-opacity="0.54">
            <rect id="Rectangle" x="0" y="0" width="24" height="24"></rect>
        </g>
    </g>
</svg>