<?xml version="1.0" encoding="UTF-8"?>
<svg width="24px" height="24px" viewBox="0 0 24 24" version="1.1" xmlns="http://www.w3.org/2000/svg" xmlns:xlink="http://www.w3.org/1999/xlink">
    <!-- Generator: Sketch 50 (54983) - http://www.bohemiancoding.com/sketch -->
    <title>icon/maps/layers_clear_24px_rounded</title>
    <desc>Created with Sketch.</desc>
    <defs>
        <path d="M19.9162266,10.8649928 C20.4262266,10.4649928 20.4262266,9.6849928 19.9162266,9.2849928 L13.1562266,4.0249928 C12.4362266,3.4649928 11.4262266,3.4649928 10.6962266,4.0249928 L9.33622656,5.0949928 L17.2162266,12.9749928 L19.9162266,10.8649928 Z M19.9162266,14.3549928 L19.9062266,14.3449928 C19.5477507,14.0650099 19.0447024,14.0650099 18.6862266,14.3449928 L18.6362266,14.3849928 L20.0362266,15.7849928 C20.4062266,15.3749928 20.3762266,14.7149928 19.9162266,14.3549928 Z M21.3662266,19.9549928 L4.04622656,2.6349928 C3.85939503,2.44774013 3.6057442,2.3425072 3.34122656,2.3425072 C3.07670892,2.3425072 2.82305809,2.44774013 2.63622656,2.6349928 C2.24622656,3.0249928 2.24622656,3.6549928 2.63622656,4.0449928 L6.15622656,7.5649928 L3.93622656,9.2849928 C3.42622656,9.6849928 3.42622656,10.4649928 3.93622656,10.8649928 L10.6962266,16.1249928 C11.4162266,16.6849928 12.4262266,16.6849928 13.1562266,16.1249928 L14.0262266,15.4449928 L15.4462266,16.8649928 L12.5262266,19.1349928 C12.1662266,19.4149928 11.6562266,19.4149928 11.2962266,19.1349928 L5.14622656,14.3549928 C4.78775074,14.0750099 4.28470238,14.0750099 3.92622656,14.3549928 C3.41622656,14.7549928 3.41622656,15.5249928 3.92622656,15.9249928 L10.6862266,21.1849928 C11.4062266,21.7449928 12.4162266,21.7449928 13.1462266,21.1849928 L16.8662266,18.2949928 L19.9362266,21.3649928 C20.3262266,21.7549928 20.9562266,21.7549928 21.3462266,21.3649928 C21.7562266,20.9749928 21.7562266,20.3449928 21.3662266,19.9549928 Z" id="path-1"></path>
    </defs>
    <g id="icon/maps/layers_clear_24px" stroke="none" stroke-width="1" fill="none" fill-rule="evenodd">
        <mask id="mask-2" fill="white">
            <use xlink:href="#path-1"></use>
        </mask>
        <g fill-rule="nonzero"></g>
        <g id="✱-/-Color-/-Icons-/-Black-/-Inactive" mask="url(#mask-2)" fill="#000000" fill-opacity="0.54">
            <rect id="Rectangle" x="0" y="0" width="24" height="24"></rect>
        </g>
    </g>
</svg>