<?xml version="1.0" encoding="UTF-8"?>
<svg width="24px" height="24px" viewBox="0 0 24 24" version="1.1" xmlns="http://www.w3.org/2000/svg" xmlns:xlink="http://www.w3.org/1999/xlink">
    <!-- Generator: Sketch 50 (54983) - http://www.bohemiancoding.com/sketch -->
    <title>icon/maps/local_laundry_service_24px_rounded</title>
    <desc>Created with Sketch.</desc>
    <defs>
        <path d="M9.55,16.45 C9.35,16.65 9.34,17 9.57,17.18 C11.14,18.38 13.4,18.26 14.83,16.83 C16.26,15.4 16.38,13.14 15.18,11.57 C15,11.34 14.65,11.34 14.45,11.55 L9.55,16.45 Z M18,2.01 L6,2 C4.89,2 4,2.89 4,4 L4,20 C4,21.11 4.89,22 6,22 L18,22 C19.11,22 20,21.11 20,20 L20,4 C20,2.89 19.11,2.01 18,2.01 Z M10,4 C10.55,4 11,4.45 11,5 C11,5.55 10.55,6 10,6 C9.45,6 9,5.55 9,5 C9,4.45 9.45,4 10,4 Z M7,4 C7.55,4 8,4.45 8,5 C8,5.55 7.55,6 7,6 C6.45,6 6,5.55 6,5 C6,4.45 6.45,4 7,4 Z M12,20 C8.69,20 6,17.31 6,14 C6,10.69 8.69,8 12,8 C15.31,8 18,10.69 18,14 C18,17.31 15.31,20 12,20 Z" id="path-1"></path>
    </defs>
    <g id="icon/maps/local_laundry_service_24px" stroke="none" stroke-width="1" fill="none" fill-rule="evenodd">
        <mask id="mask-2" fill="white">
            <use xlink:href="#path-1"></use>
        </mask>
        <g fill-rule="nonzero"></g>
        <g id="✱-/-Color-/-Icons-/-Black-/-Inactive" mask="url(#mask-2)" fill="#000000" fill-opacity="0.54">
            <rect id="Rectangle" x="0" y="0" width="24" height="24"></rect>
        </g>
    </g>
</svg>