<?xml version="1.0" encoding="UTF-8"?>
<svg width="24px" height="24px" viewBox="0 0 24 24" version="1.1" xmlns="http://www.w3.org/2000/svg" xmlns:xlink="http://www.w3.org/1999/xlink">
    <!-- Generator: Sketch 50 (54983) - http://www.bohemiancoding.com/sketch -->
    <title>icon/maps/local_bar_24px_rounded</title>
    <desc>Created with Sketch.</desc>
    <defs>
        <path d="M21,4.45 C21,3.65 20.35,3 19.55,3 L4.45,3 C3.65,3 3,3.65 3,4.45 C3,4.8 3.13,5.15 3.37,5.41 L11,14 L11,19 L7,19 C6.45,19 6,19.45 6,20 C6,20.55 6.45,21 7,21 L17,21 C17.55,21 18,20.55 18,20 C18,19.45 17.55,19 17,19 L13,19 L13,14 L20.63,5.41 C20.87,5.15 21,4.8 21,4.45 Z M7.43,7 L5.66,5 L18.35,5 L16.57,7 L7.43,7 Z" id="path-1"></path>
    </defs>
    <g id="icon/maps/local_bar_24px" stroke="none" stroke-width="1" fill="none" fill-rule="evenodd">
        <mask id="mask-2" fill="white">
            <use xlink:href="#path-1"></use>
        </mask>
        <g fill-rule="nonzero"></g>
        <g id="✱-/-Color-/-Icons-/-Black-/-Inactive" mask="url(#mask-2)" fill="#000000" fill-opacity="0.54">
            <rect id="Rectangle" x="0" y="0" width="24" height="24"></rect>
        </g>
    </g>
</svg>