<?xml version="1.0" encoding="UTF-8"?>
<svg width="24px" height="24px" viewBox="0 0 24 24" version="1.1" xmlns="http://www.w3.org/2000/svg" xmlns:xlink="http://www.w3.org/1999/xlink">
    <!-- Generator: Sketch 50 (54983) - http://www.bohemiancoding.com/sketch -->
    <title>icon/maps/local_dining_24px_rounded</title>
    <desc>Created with Sketch.</desc>
    <defs>
        <path d="M7.79942232,13.3320783 L10.6294223,10.5020783 L4.43942232,4.32207834 C3.95942232,3.84207834 3.12942232,3.97207834 2.82942232,4.59207834 C2.11942232,6.08207834 2.37942232,7.91207834 3.60942232,9.15207834 L7.79942232,13.3320783 Z M14.5794223,11.5220783 C16.1094223,12.2320783 18.2594223,11.7320783 19.8494223,10.1420783 C21.7594223,8.23207834 22.1294223,5.49207834 20.6594223,4.02207834 C19.1994223,2.56207834 16.4594223,2.92207834 14.5394223,4.83207834 C12.9494223,6.42207834 12.4494223,8.57207834 13.1594223,10.1020783 L4.10942232,19.1520783 C3.71942232,19.5420783 3.71942232,20.1720783 4.10942232,20.5620783 C4.49942232,20.9520783 5.12942232,20.9520783 5.51942232,20.5620783 L11.6994223,14.4020783 L17.8794223,20.5820783 C18.2694223,20.9720783 18.8994223,20.9720783 19.2894223,20.5820783 C19.6794223,20.1920783 19.6794223,19.5620783 19.2894223,19.1720783 L13.1094223,12.9920783 L14.5794223,11.5220783 Z" id="path-1"></path>
    </defs>
    <g id="icon/maps/local_dining_24px" stroke="none" stroke-width="1" fill="none" fill-rule="evenodd">
        <mask id="mask-2" fill="white">
            <use xlink:href="#path-1"></use>
        </mask>
        <g fill-rule="nonzero"></g>
        <g id="✱-/-Color-/-Icons-/-Black-/-Inactive" mask="url(#mask-2)" fill="#000000" fill-opacity="0.54">
            <rect id="Rectangle" x="0" y="0" width="24" height="24"></rect>
        </g>
    </g>
</svg>