<?xml version="1.0" encoding="UTF-8"?>
<svg width="24px" height="24px" viewBox="0 0 24 24" version="1.1" xmlns="http://www.w3.org/2000/svg" xmlns:xlink="http://www.w3.org/1999/xlink">
    <!-- Generator: Sketch 50 (54983) - http://www.bohemiancoding.com/sketch -->
    <title>icon/maps/local_mall_24px_rounded</title>
    <desc>Created with Sketch.</desc>
    <defs>
        <path d="M19,6.5 L17,6.5 C17,3.74 14.76,1.5 12,1.5 C9.24,1.5 7,3.74 7,6.5 L5,6.5 C3.9,6.5 3,7.4 3,8.5 L3,20.5 C3,21.6 3.9,22.5 5,22.5 L19,22.5 C20.1,22.5 21,21.6 21,20.5 L21,8.5 C21,7.4 20.1,6.5 19,6.5 Z M12,3.5 C13.66,3.5 15,4.84 15,6.5 L9,6.5 C9,4.84 10.34,3.5 12,3.5 Z M12,13.5 C9.67,13.5 7.71,11.91 7.16,9.75 C6.99,9.12 7.48,8.5 8.13,8.5 C8.6,8.5 8.98,8.84 9.11,9.3 C9.46,10.57 10.62,11.5 12,11.5 C13.38,11.5 14.54,10.57 14.89,9.3 C15.02,8.84 15.4,8.5 15.87,8.5 C16.52,8.5 17,9.12 16.84,9.75 C16.29,11.91 14.33,13.5 12,13.5 Z" id="path-1"></path>
    </defs>
    <g id="icon/maps/local_mall_24px" stroke="none" stroke-width="1" fill="none" fill-rule="evenodd">
        <mask id="mask-2" fill="white">
            <use xlink:href="#path-1"></use>
        </mask>
        <g fill-rule="nonzero"></g>
        <g id="✱-/-Color-/-Icons-/-Black-/-Inactive" mask="url(#mask-2)" fill="#000000" fill-opacity="0.54">
            <rect id="Rectangle" x="0" y="0" width="24" height="24"></rect>
        </g>
    </g>
</svg>