<?xml version="1.0" encoding="UTF-8"?>
<svg width="24px" height="24px" viewBox="0 0 24 24" version="1.1" xmlns="http://www.w3.org/2000/svg" xmlns:xlink="http://www.w3.org/1999/xlink">
    <!-- Generator: Sketch 50 (54983) - http://www.bohemiancoding.com/sketch -->
    <title>icon/maps/local_car_wash_24px_rounded</title>
    <desc>Created with Sketch.</desc>
    <defs>
        <path d="M17,4.9575 C17.83,4.9575 18.5,4.2875 18.5,3.4575 C18.5,2.7975 17.84,1.8175 17.39,1.2375 C17.19,0.9775 16.8,0.9775 16.6,1.2375 C16.16,1.8175 15.5,2.7975 15.5,3.4575 C15.5,4.2875 16.17,4.9575 17,4.9575 Z M12,4.9575 C12.83,4.9575 13.5,4.2875 13.5,3.4575 C13.5,2.7975 12.84,1.8175 12.39,1.2375 C12.19,0.9775 11.8,0.9775 11.6,1.2375 C11.16,1.8175 10.5,2.7975 10.5,3.4575 C10.5,4.2875 11.17,4.9575 12,4.9575 Z M7,4.9575 C7.83,4.9575 8.5,4.2875 8.5,3.4575 C8.5,2.7975 7.84,1.8175 7.39,1.2375 C7.19,0.9775 6.8,0.9775 6.6,1.2375 C6.16,1.8175 5.5,2.7975 5.5,3.4575 C5.5,4.2875 6.17,4.9575 7,4.9575 Z M18.92,7.9675 C18.72,7.3775 18.16,6.9575 17.5,6.9575 L6.5,6.9575 C5.84,6.9575 5.29,7.3775 5.08,7.9675 L3.11,13.6375 C3.04,13.8475 3,14.0675 3,14.2975 L3,21.4575 C3,22.2875 3.67,22.9575 4.5,22.9575 C5.33,22.9575 6,22.2875 6,21.4575 L6,20.9575 L18,20.9575 L18,21.4575 C18,22.2775 18.67,22.9575 19.5,22.9575 C20.32,22.9575 21,22.2875 21,21.4575 L21,14.2975 C21,14.0775 20.96,13.8475 20.89,13.6375 L18.92,7.9675 Z M6.5,17.9575 C5.67,17.9575 5,17.2875 5,16.4575 C5,15.6275 5.67,14.9575 6.5,14.9575 C7.33,14.9575 8,15.6275 8,16.4575 C8,17.2875 7.33,17.9575 6.5,17.9575 Z M17.5,17.9575 C16.67,17.9575 16,17.2875 16,16.4575 C16,15.6275 16.67,14.9575 17.5,14.9575 C18.33,14.9575 19,15.6275 19,16.4575 C19,17.2875 18.33,17.9575 17.5,17.9575 Z M5,12.9575 L6.27,9.1375 C6.41,8.7375 6.79,8.4575 7.22,8.4575 L16.78,8.4575 C17.21,8.4575 17.59,8.7375 17.73,9.1375 L19,12.9575 L5,12.9575 Z" id="path-1"></path>
    </defs>
    <g id="icon/maps/local_car_wash_24px" stroke="none" stroke-width="1" fill="none" fill-rule="evenodd">
        <mask id="mask-2" fill="white">
            <use xlink:href="#path-1"></use>
        </mask>
        <g fill-rule="nonzero"></g>
        <g id="✱-/-Color-/-Icons-/-Black-/-Inactive" mask="url(#mask-2)" fill="#000000" fill-opacity="0.54">
            <rect id="Rectangle" x="0" y="0" width="24" height="24"></rect>
        </g>
    </g>
</svg>