<?xml version="1.0" encoding="UTF-8"?>
<svg width="24px" height="24px" viewBox="0 0 24 24" version="1.1" xmlns="http://www.w3.org/2000/svg" xmlns:xlink="http://www.w3.org/1999/xlink">
    <!-- Generator: Sketch 50 (54983) - http://www.bohemiancoding.com/sketch -->
    <title>icon/maps/local_hospital_24px_rounded</title>
    <desc>Created with Sketch.</desc>
    <defs>
        <path d="M19,3 L5,3 C3.9,3 3.01,3.9 3.01,5 L3,19 C3,20.1 3.9,21 5,21 L19,21 C20.1,21 21,20.1 21,19 L21,5 C21,3.9 20.1,3 19,3 Z M17,14 L14,14 L14,17 C14,17.55 13.55,18 13,18 L11,18 C10.45,18 10,17.55 10,17 L10,14 L7,14 C6.45,14 6,13.55 6,13 L6,11 C6,10.45 6.45,10 7,10 L10,10 L10,7 C10,6.45 10.45,6 11,6 L13,6 C13.55,6 14,6.45 14,7 L14,10 L17,10 C17.55,10 18,10.45 18,11 L18,13 C18,13.55 17.55,14 17,14 Z" id="path-1"></path>
    </defs>
    <g id="icon/maps/local_hospital_24px" stroke="none" stroke-width="1" fill="none" fill-rule="evenodd">
        <mask id="mask-2" fill="white">
            <use xlink:href="#path-1"></use>
        </mask>
        <g fill-rule="nonzero"></g>
        <g id="✱-/-Color-/-Icons-/-Black-/-Inactive" mask="url(#mask-2)" fill="#000000" fill-opacity="0.54">
            <rect id="Rectangle" x="0" y="0" width="24" height="24"></rect>
        </g>
    </g>
</svg>