<?xml version="1.0" encoding="UTF-8"?>
<svg width="24px" height="24px" viewBox="0 0 24 24" version="1.1" xmlns="http://www.w3.org/2000/svg" xmlns:xlink="http://www.w3.org/1999/xlink">
    <!-- Generator: Sketch 50 (54983) - http://www.bohemiancoding.com/sketch -->
    <title>icon/maps/local_pharmacy_24px_rounded</title>
    <desc>Created with Sketch.</desc>
    <defs>
        <path d="M18.8999779,5.82353275 L18.3699779,5.82353275 L19.0799779,3.85353275 C19.3199779,3.20353275 18.9799779,2.48353275 18.3299779,2.25353275 C17.6799779,2.01353275 16.9599779,2.35353275 16.7199779,3.00353275 L15.6999779,5.82353275 L5.10997785,5.82353275 C3.73997785,5.82353275 2.77997785,7.16353275 3.20997785,8.45353275 L5.00997785,13.8235328 L3.21997785,19.1935328 C2.77997785,20.4835328 3.74997785,21.8235328 5.10997785,21.8235328 L18.8899779,21.8235328 C20.2499779,21.8235328 21.2199779,20.4835328 20.7899779,19.1935328 L19.0099779,13.8235328 L20.7899779,8.45353275 C21.2199779,7.16353275 20.2599779,5.82353275 18.8999779,5.82353275 Z M15.0099779,14.8235328 L13.0099779,14.8235328 L13.0099779,16.8235328 C13.0099779,17.3735328 12.5599779,17.8235328 12.0099779,17.8235328 C11.4599779,17.8235328 11.0099779,17.3735328 11.0099779,16.8235328 L11.0099779,14.8235328 L9.00997785,14.8235328 C8.45997785,14.8235328 8.00997785,14.3735328 8.00997785,13.8235328 C8.00997785,13.2735328 8.45997785,12.8235328 9.00997785,12.8235328 L11.0099779,12.8235328 L11.0099779,10.8235328 C11.0099779,10.2735328 11.4599779,9.82353275 12.0099779,9.82353275 C12.5599779,9.82353275 13.0099779,10.2735328 13.0099779,10.8235328 L13.0099779,12.8235328 L15.0099779,12.8235328 C15.5599779,12.8235328 16.0099779,13.2735328 16.0099779,13.8235328 C16.0099779,14.3735328 15.5599779,14.8235328 15.0099779,14.8235328 Z" id="path-1"></path>
    </defs>
    <g id="icon/maps/local_pharmacy_24px" stroke="none" stroke-width="1" fill="none" fill-rule="evenodd">
        <mask id="mask-2" fill="white">
            <use xlink:href="#path-1"></use>
        </mask>
        <g fill-rule="nonzero"></g>
        <g id="✱-/-Color-/-Icons-/-Black-/-Inactive" mask="url(#mask-2)" fill="#000000" fill-opacity="0.54">
            <rect id="Rectangle" x="0" y="0" width="24" height="24"></rect>
        </g>
    </g>
</svg>