<?xml version="1.0" encoding="UTF-8"?>
<svg width="24px" height="24px" viewBox="0 0 24 24" version="1.1" xmlns="http://www.w3.org/2000/svg" xmlns:xlink="http://www.w3.org/1999/xlink">
    <!-- Generator: Sketch 50 (54983) - http://www.bohemiancoding.com/sketch -->
    <title>icon/maps/local_convenience_store_24px_rounded</title>
    <desc>Created with Sketch.</desc>
    <defs>
        <path d="M21,7 L19,7 L19,5 C19,4.45 18.55,4 18,4 L6,4 C5.45,4 5,4.45 5,5 L5,7 L3,7 C2.45,7 2,7.45 2,8 L2,19 C2,19.55 2.45,20 3,20 L9,20 C9.55,20 10,19.55 10,19 L10,16 L14,16 L14,19 C14,19.55 14.45,20 15,20 L21,20 C21.55,20 22,19.55 22,19 L22,8 C22,7.45 21.55,7 21,7 Z M11,9 C11,9.55 10.55,10 10,10 L9,10 L9,11 L10.5,11 C10.78,11 11,11.22 11,11.5 C11,11.78 10.78,12 10.5,12 L9,12 C8.45,12 8,11.55 8,11 L8,10 C8,9.45 8.45,9 9,9 L10,9 L10,8 L8.5,8 C8.22,8 8,7.78 8,7.5 C8,7.22 8.22,7 8.5,7 L10,7 C10.55,7 11,7.45 11,8 L11,9 Z M16,11.5 C16,11.78 15.78,12 15.5,12 C15.22,12 15,11.78 15,11.5 L15,10 L14,10 C13.45,10 13,9.55 13,9 L13,7.5 C13,7.22 13.22,7 13.5,7 C13.78,7 14,7.22 14,7.5 L14,9 L15,9 L15,7.5 C15,7.22 15.22,7 15.5,7 C15.78,7 16,7.22 16,7.5 L16,11.5 Z" id="path-1"></path>
    </defs>
    <g id="icon/maps/local_convenience_store_24px" stroke="none" stroke-width="1" fill="none" fill-rule="evenodd">
        <mask id="mask-2" fill="white">
            <use xlink:href="#path-1"></use>
        </mask>
        <g fill-rule="nonzero"></g>
        <g id="✱-/-Color-/-Icons-/-Black-/-Inactive" mask="url(#mask-2)" fill="#000000" fill-opacity="0.54">
            <rect id="Rectangle" x="0" y="0" width="24" height="24"></rect>
        </g>
    </g>
</svg>