<?xml version="1.0" encoding="UTF-8"?>
<svg width="24px" height="24px" viewBox="0 0 24 24" version="1.1" xmlns="http://www.w3.org/2000/svg" xmlns:xlink="http://www.w3.org/1999/xlink">
    <!-- Generator: Sketch 50 (54983) - http://www.bohemiancoding.com/sketch -->
    <title>icon/maps/money_24px_rounded</title>
    <desc>Created with Sketch.</desc>
    <defs>
        <path d="M15,16 L18,16 C18.55,16 19,15.55 19,15 L19,9 C19,8.45 18.55,8 18,8 L15,8 C14.45,8 14,8.45 14,9 L14,15 C14,15.55 14.45,16 15,16 Z M16,10 L17,10 L17,14 L16,14 L16,10 Z M9,16 L12,16 C12.55,16 13,15.55 13,15 L13,9 C13,8.45 12.55,8 12,8 L9,8 C8.45,8 8,8.45 8,9 L8,15 C8,15.55 8.45,16 9,16 Z M10,10 L11,10 L11,14 L10,14 L10,10 Z M6,8 C5.45,8 5,8.45 5,9 L5,15 C5,15.55 5.45,16 6,16 C6.55,16 7,15.55 7,15 L7,9 C7,8.45 6.55,8 6,8 Z M2,6 L2,18 C2,19.1 2.9,20 4,20 L20,20 C21.1,20 22,19.1 22,18 L22,6 C22,4.9 21.1,4 20,4 L4,4 C2.9,4 2,4.9 2,6 Z M19,18 L5,18 C4.45,18 4,17.55 4,17 L4,7 C4,6.45 4.45,6 5,6 L19,6 C19.55,6 20,6.45 20,7 L20,17 C20,17.55 19.55,18 19,18 Z" id="path-1"></path>
    </defs>
    <g id="icon/maps/money_24px" stroke="none" stroke-width="1" fill="none" fill-rule="evenodd">
        <mask id="mask-2" fill="white">
            <use xlink:href="#path-1"></use>
        </mask>
        <g fill-rule="nonzero"></g>
        <g id="✱-/-Color-/-Icons-/-Black-/-Inactive" mask="url(#mask-2)" fill="#000000" fill-opacity="0.54">
            <rect id="Rectangle" x="0" y="0" width="24" height="24"></rect>
        </g>
    </g>
</svg>