<?xml version="1.0" encoding="UTF-8"?>
<svg width="24px" height="24px" viewBox="0 0 24 24" version="1.1" xmlns="http://www.w3.org/2000/svg" xmlns:xlink="http://www.w3.org/1999/xlink">
    <!-- Generator: Sketch 50 (54983) - http://www.bohemiancoding.com/sketch -->
    <title>icon/maps/pin_drop_24px_rounded</title>
    <desc>Created with Sketch.</desc>
    <defs>
        <path d="M18,8 C18,4.69 15.31,2 12,2 C8.69,2 6,4.69 6,8 C6,11.49 9.62,16.19 11.23,18.12 C11.63,18.6 12.36,18.6 12.76,18.12 C14.38,16.19 18,11.49 18,8 Z M10,8 C10,6.9 10.9,6 12,6 C13.1,6 14,6.9 14,8 C14,9.1 13.11,10 12,10 C10.9,10 10,9.1 10,8 Z M5,21 C5,21.55 5.45,22 6,22 L18,22 C18.55,22 19,21.55 19,21 C19,20.45 18.55,20 18,20 L6,20 C5.45,20 5,20.45 5,21 Z" id="path-1"></path>
    </defs>
    <g id="icon/maps/pin_drop_24px" stroke="none" stroke-width="1" fill="none" fill-rule="evenodd">
        <mask id="mask-2" fill="white">
            <use xlink:href="#path-1"></use>
        </mask>
        <g fill-rule="nonzero"></g>
        <g id="✱-/-Color-/-Icons-/-Black-/-Inactive" mask="url(#mask-2)" fill="#000000" fill-opacity="0.54">
            <rect id="Rectangle" x="0" y="0" width="24" height="24"></rect>
        </g>
    </g>
</svg>