<?xml version="1.0" encoding="UTF-8"?>
<svg width="24px" height="24px" viewBox="0 0 24 24" version="1.1" xmlns="http://www.w3.org/2000/svg" xmlns:xlink="http://www.w3.org/1999/xlink">
    <!-- Generator: Sketch 50 (54983) - http://www.bohemiancoding.com/sketch -->
    <title>icon/maps/subway_24px_rounded</title>
    <desc>Created with Sketch.</desc>
    <defs>
        <path d="M8.5,15 C7.94771525,15 7.5,15.4477153 7.5,16 C7.5,16.5522847 7.94771525,17 8.5,17 C9.05228475,17 9.5,16.5522847 9.5,16 C9.5,15.4477153 9.05228475,15 8.5,15 Z M15.5,15 C14.9477153,15 14.5,15.4477153 14.5,16 C14.5,16.5522847 14.9477153,17 15.5,17 C16.0522847,17 16.5,16.5522847 16.5,16 C16.5,15.4477153 16.0522847,15 15.5,15 Z M7.01,9 L17.01,9 L17.01,14 L7.01,14 L7.01,9 Z M17.8,2.8 C16,2.09 13.86,2 12,2 C10.14,2 8,2.09 6.2,2.8 C3.53,3.84 2,6.05 2,8.86 L2,22 L22,22 L22,8.86 C22,6.05 20.47,3.84 17.8,2.8 Z M18,15.5 C18,17.04 16.84,18.29 15.35,18.46 L16.5,19.62 L16.5,20 L14.83,20 L13.33,18.5 L10.67,18.5 L9.17,20 L7.5,20 L7.5,19.62 L8.65,18.46 C7.16,18.29 6,17.04 6,15.5 L6,9 C6,6.37 9,6 12,6 C15,6 18,6.37 18,9 L18,15.5 Z" id="path-1"></path>
    </defs>
    <g id="icon/maps/subway_24px" stroke="none" stroke-width="1" fill="none" fill-rule="evenodd">
        <mask id="mask-2" fill="white">
            <use xlink:href="#path-1"></use>
        </mask>
        <g fill-rule="nonzero"></g>
        <g id="✱-/-Color-/-Icons-/-Black-/-Inactive" mask="url(#mask-2)" fill="#000000" fill-opacity="0.54">
            <rect id="Rectangle" x="0" y="0" width="24" height="24"></rect>
        </g>
    </g>
</svg>