<?xml version="1.0" encoding="UTF-8"?>
<svg width="24px" height="24px" viewBox="0 0 24 24" version="1.1" xmlns="http://www.w3.org/2000/svg" xmlns:xlink="http://www.w3.org/1999/xlink">
    <!-- Generator: Sketch 50 (54983) - http://www.bohemiancoding.com/sketch -->
    <title>icon/maps/train_24px_rounded</title>
    <desc>Created with Sketch.</desc>
    <defs>
        <path d="M12,2.5 C8,2.5 4,3 4,6.5 L4,16 C4,17.93 5.57,19.5 7.5,19.5 L6.35,20.65 C6.04,20.96 6.26,21.5 6.71,21.5 L7.8,21.5 C7.93,21.5 8.06,21.45 8.15,21.35 L10,19.5 L14,19.5 L15.85,21.35 C15.94,21.44 16.07,21.5 16.2,21.5 L17.29,21.5 C17.74,21.5 17.96,20.96 17.64,20.65 L16.5,19.5 C18.43,19.5 20,17.93 20,16 L20,6.5 C20,3 16,2.5 12,2.5 Z M7.5,17.5 C6.67,17.5 6,16.83 6,16 C6,15.17 6.67,14.5 7.5,14.5 C8.33,14.5 9,15.17 9,16 C9,16.83 8.33,17.5 7.5,17.5 Z M11,10.5 L6,10.5 L6,6.5 L11,6.5 L11,10.5 Z M16.5,17.5 C15.67,17.5 15,16.83 15,16 C15,15.17 15.67,14.5 16.5,14.5 C17.33,14.5 18,15.17 18,16 C18,16.83 17.33,17.5 16.5,17.5 Z M18,10.5 L13,10.5 L13,6.5 L18,6.5 L18,10.5 Z" id="path-1"></path>
    </defs>
    <g id="icon/maps/train_24px" stroke="none" stroke-width="1" fill="none" fill-rule="evenodd">
        <mask id="mask-2" fill="white">
            <use xlink:href="#path-1"></use>
        </mask>
        <g fill-rule="nonzero"></g>
        <g id="✱-/-Color-/-Icons-/-Black-/-Inactive" mask="url(#mask-2)" fill="#000000" fill-opacity="0.54">
            <rect id="Rectangle" x="0" y="0" width="24" height="24"></rect>
        </g>
    </g>
</svg>