<?xml version="1.0" encoding="UTF-8"?>
<svg width="24px" height="24px" viewBox="0 0 24 24" version="1.1" xmlns="http://www.w3.org/2000/svg" xmlns:xlink="http://www.w3.org/1999/xlink">
    <!-- Generator: Sketch 50 (54983) - http://www.bohemiancoding.com/sketch -->
    <title>icon/maps/transfer_within_a_station_24px_rounded</title>
    <desc>Created with Sketch.</desc>
    <defs>
        <path d="M22,15.25 L16.48,15.25 L16.48,14.48 C16.48,14.12 16.04,13.94 15.79,14.19 L14.28,15.71 C14.12,15.87 14.12,16.12 14.28,16.28 L15.79,17.8 C16.05,18.06 16.48,17.88 16.48,17.51 L16.48,16.75 L22,16.75 L22,15.25 Z M21.72,19.96 L20.21,18.44 C19.95,18.18 19.52,18.36 19.52,18.73 L19.52,19.5 L14,19.5 L14,21 L19.52,21 L19.52,21.77 C19.52,22.13 19.96,22.31 20.21,22.06 L21.72,20.54 C21.88,20.38 21.88,20.12 21.72,19.96 Z M9.5,5.25 C10.6,5.25 11.5,4.35 11.5,3.25 C11.5,2.15 10.6,1.25 9.5,1.25 C8.4,1.25 7.5,2.15 7.5,3.25 C7.5,4.35 8.4,5.25 9.5,5.25 Z M5.75,8.65 L3.23,21.56 C3.11,22.18 3.58,22.75 4.21,22.75 L4.3,22.75 C4.77,22.75 5.18,22.42 5.28,21.96 L6.85,14.75 L9,16.75 L9,21.75 C9,22.3 9.45,22.75 10,22.75 C10.55,22.75 11,22.3 11,21.75 L11,16.03 C11,15.5 10.79,14.99 10.41,14.62 L8.95,13.15 L9.55,10.15 C10.62,11.47 12.13,12.38 13.86,12.66 C14.46,12.76 15,12.27 15,11.66 C15,11.17 14.64,10.76 14.16,10.68 C12.67,10.43 11.41,9.53 10.65,8.3 L9.7,6.7 C9.35,6.1 8.7,5.75 8,5.75 C7.75,5.75 7.5,5.8 7.25,5.9 L3.24,7.54 C2.49,7.85 2,8.58 2,9.39 L2,11.75 C2,12.3 2.45,12.75 3,12.75 C3.55,12.75 4,12.3 4,11.75 L4,9.4 L5.75,8.65 Z" id="path-1"></path>
    </defs>
    <g id="icon/maps/transfer_within_a_station_24px" stroke="none" stroke-width="1" fill="none" fill-rule="evenodd">
        <mask id="mask-2" fill="white">
            <use xlink:href="#path-1"></use>
        </mask>
        <g fill-rule="nonzero"></g>
        <g id="✱-/-Color-/-Icons-/-Black-/-Inactive" mask="url(#mask-2)" fill="#000000" fill-opacity="0.54">
            <rect id="Rectangle" x="0" y="0" width="24" height="24"></rect>
        </g>
    </g>
</svg>