<?xml version="1.0" encoding="UTF-8"?>
<svg width="24px" height="24px" viewBox="0 0 24 24" version="1.1" xmlns="http://www.w3.org/2000/svg" xmlns:xlink="http://www.w3.org/1999/xlink">
    <!-- Generator: Sketch 50 (54983) - http://www.bohemiancoding.com/sketch -->
    <title>icon/places/business_center_24px_sharp</title>
    <desc>Created with Sketch.</desc>
    <defs>
        <path d="M10,16 L10,15 L3.01,15 L3.01,21 L21,21 L21,15 L14,15 L14,16 L10,16 Z M22,7 L16,7 L16,5 L14,3 L10,3 L8,5 L8,7 L2,7 L2,14 L10,14 L10,12 L14,12 L14,14 L22,14 L22,7 Z M14,7 L10,7 L10,5 L14,5 L14,7 Z" id="path-1"></path>
    </defs>
    <g id="icon/places/business_center_24px" stroke="none" stroke-width="1" fill="none" fill-rule="evenodd">
        <mask id="mask-2" fill="white">
            <use xlink:href="#path-1"></use>
        </mask>
        <g fill-rule="nonzero"></g>
        <g id="✱-/-Color-/-Icons-/-Black-/-Inactive" mask="url(#mask-2)" fill="#000000" fill-opacity="0.54">
            <rect id="Rectangle" x="0" y="0" width="24" height="24"></rect>
        </g>
    </g>
</svg>