<?xml version="1.0" encoding="UTF-8"?>
<svg width="24px" height="24px" viewBox="0 0 24 24" version="1.1" xmlns="http://www.w3.org/2000/svg" xmlns:xlink="http://www.w3.org/1999/xlink">
    <!-- Generator: Sketch 50 (54983) - http://www.bohemiancoding.com/sketch -->
    <title>icon/places/casino_24px_sharp</title>
    <desc>Created with Sketch.</desc>
    <defs>
        <path d="M21,3 L3,3 L3,21 L21,21 L21,3 Z M7.5,18 C6.67,18 6,17.33 6,16.5 C6,15.67 6.67,15 7.5,15 C8.33,15 9,15.67 9,16.5 C9,17.33 8.33,18 7.5,18 Z M7.5,9 C6.67,9 6,8.33 6,7.5 C6,6.67 6.67,6 7.5,6 C8.33,6 9,6.67 9,7.5 C9,8.33 8.33,9 7.5,9 Z M12,13.5 C11.17,13.5 10.5,12.83 10.5,12 C10.5,11.17 11.17,10.5 12,10.5 C12.83,10.5 13.5,11.17 13.5,12 C13.5,12.83 12.83,13.5 12,13.5 Z M16.5,18 C15.67,18 15,17.33 15,16.5 C15,15.67 15.67,15 16.5,15 C17.33,15 18,15.67 18,16.5 C18,17.33 17.33,18 16.5,18 Z M16.5,9 C15.67,9 15,8.33 15,7.5 C15,6.67 15.67,6 16.5,6 C17.33,6 18,6.67 18,7.5 C18,8.33 17.33,9 16.5,9 Z" id="path-1"></path>
    </defs>
    <g id="icon/places/casino_24px" stroke="none" stroke-width="1" fill="none" fill-rule="evenodd">
        <mask id="mask-2" fill="white">
            <use xlink:href="#path-1"></use>
        </mask>
        <g fill-rule="nonzero"></g>
        <g id="✱-/-Color-/-Icons-/-Black-/-Inactive" mask="url(#mask-2)" fill="#000000" fill-opacity="0.54">
            <rect id="Rectangle" x="0" y="0" width="24" height="24"></rect>
        </g>
    </g>
</svg>