<?xml version="1.0" encoding="UTF-8"?>
<svg width="24px" height="24px" viewBox="0 0 24 24" version="1.1" xmlns="http://www.w3.org/2000/svg" xmlns:xlink="http://www.w3.org/1999/xlink">
    <!-- Generator: Sketch 50 (54983) - http://www.bohemiancoding.com/sketch -->
    <title>icon/places/child_friendly_24px_sharp</title>
    <desc>Created with Sketch.</desc>
    <defs>
        <path d="M13.5,2 L13.5,10 L21.5,10 C21.5,5.58 17.92,2 13.5,2 Z M19.82,15.89 C20.87,14.54 21.5,12.84 21.5,11 L6.94,11 L5.99,9 L2.5,9 L2.5,11 L4.72,11 C4.72,11 6.61,15.07 6.84,15.42 C5.74,16.01 5,17.17 5,18.5 C5,20.43 6.57,22 8.5,22 C10.26,22 11.72,20.7 11.96,19 L14.04,19 C14.28,20.7 15.74,22 17.5,22 C19.43,22 21,20.43 21,18.5 C21,17.46 20.54,16.53 19.82,15.89 Z M8.5,20 C7.67,20 7,19.33 7,18.5 C7,17.67 7.67,17 8.5,17 C9.33,17 10,17.67 10,18.5 C10,19.33 9.33,20 8.5,20 Z M17.5,20 C16.67,20 16,19.33 16,18.5 C16,17.67 16.67,17 17.5,17 C18.33,17 19,17.67 19,18.5 C19,19.33 18.33,20 17.5,20 Z" id="path-1"></path>
    </defs>
    <g id="icon/places/child_friendly_24px" stroke="none" stroke-width="1" fill="none" fill-rule="evenodd">
        <mask id="mask-2" fill="white">
            <use xlink:href="#path-1"></use>
        </mask>
        <g fill-rule="nonzero"></g>
        <g id="✱-/-Color-/-Icons-/-Black-/-Inactive" mask="url(#mask-2)" fill="#000000" fill-opacity="0.54">
            <rect id="Rectangle" x="0" y="0" width="24" height="24"></rect>
        </g>
    </g>
</svg>