<?xml version="1.0" encoding="UTF-8"?>
<svg width="24px" height="24px" viewBox="0 0 24 24" version="1.1" xmlns="http://www.w3.org/2000/svg" xmlns:xlink="http://www.w3.org/1999/xlink">
    <!-- Generator: Sketch 50 (54983) - http://www.bohemiancoding.com/sketch -->
    <title>icon/places/golf_course_24px_sharp</title>
    <desc>Created with Sketch.</desc>
    <defs>
        <path d="M19,18 C18.1715729,18 17.5,18.6715729 17.5,19.5 C17.5,20.3284271 18.1715729,21 19,21 C19.8284271,21 20.5,20.3284271 20.5,19.5 C20.5,18.6715729 19.8284271,18 19,18 Z M16.5,5.92 L8.5,2 L8.5,20 L6.5,20 L6.5,18.27 C4.71,18.62 3.5,19.26 3.5,20 C3.5,21.1 6.19,22 9.5,22 C12.81,22 15.5,21.1 15.5,20 C15.5,19.01 13.34,18.19 10.5,18.03 L10.5,8.98 L16.5,5.92 Z" id="path-1"></path>
    </defs>
    <g id="icon/places/golf_course_24px" stroke="none" stroke-width="1" fill="none" fill-rule="evenodd">
        <mask id="mask-2" fill="white">
            <use xlink:href="#path-1"></use>
        </mask>
        <g fill-rule="nonzero"></g>
        <g id="✱-/-Color-/-Icons-/-Black-/-Inactive" mask="url(#mask-2)" fill="#000000" fill-opacity="0.54">
            <rect id="Rectangle" x="0" y="0" width="24" height="24"></rect>
        </g>
    </g>
</svg>