<?xml version="1.0" encoding="UTF-8"?>
<svg width="24px" height="24px" viewBox="0 0 24 24" version="1.1" xmlns="http://www.w3.org/2000/svg" xmlns:xlink="http://www.w3.org/1999/xlink">
    <!-- Generator: Sketch 50 (54983) - http://www.bohemiancoding.com/sketch -->
    <title>icon/places/hot_tub_24px_sharp</title>
    <desc>Created with Sketch.</desc>
    <defs>
        <path d="M7,3.5 C5.8954305,3.5 5,4.3954305 5,5.5 C5,6.6045695 5.8954305,7.5 7,7.5 C8.1045695,7.5 9,6.6045695 9,5.5 C9,4.3954305 8.1045695,3.5 7,3.5 Z M11.15,11.5 C10.84,11.28 10.56,11.04 10.33,10.78 L8.93,9.23 C8.74,9.02 8.5,8.85 8.24,8.73 C7.95,8.59 7.62,8.5 7.28,8.5 L7.25,8.5 C6.01,8.5 5,9.51 5,10.75 L5,11.5 L2,11.5 L2,21.5 L22,21.5 L22,11.5 L11.15,11.5 Z M7,19.5 L5,19.5 L5,13.5 L7,13.5 L7,19.5 Z M11,19.5 L9,19.5 L9,13.5 L11,13.5 L11,19.5 Z M15,19.5 L13,19.5 L13,13.5 L15,13.5 L15,19.5 Z M19,19.5 L17,19.5 L17,13.5 L19,13.5 L19,19.5 Z M18.65,5.36 L18.58,5.29 C18.01,4.67 17.76,3.88 17.91,3.09 L18,2.5 L16.11,2.5 L16.05,2.93 C15.85,4.29 16.32,5.64 17.35,6.65 L17.42,6.71 C17.99,7.33 18.24,8.12 18.09,8.91 L17.98,9.5 L19.89,9.5 L19.95,9.07 C20.16,7.71 19.68,6.36 18.65,5.36 Z M14.65,5.36 L14.58,5.29 C14.01,4.67 13.76,3.88 13.91,3.09 L14,2.5 L12.11,2.5 L12.05,2.93 C11.85,4.29 12.32,5.64 13.35,6.65 L13.42,6.71 C13.99,7.33 14.24,8.12 14.09,8.91 L13.98,9.5 L15.89,9.5 L15.95,9.07 C16.16,7.71 15.68,6.36 14.65,5.36 Z" id="path-1"></path>
    </defs>
    <g id="icon/places/hot_tub_24px" stroke="none" stroke-width="1" fill="none" fill-rule="evenodd">
        <mask id="mask-2" fill="white">
            <use xlink:href="#path-1"></use>
        </mask>
        <g fill-rule="nonzero"></g>
        <g id="✱-/-Color-/-Icons-/-Black-/-Inactive" mask="url(#mask-2)" fill="#000000" fill-opacity="0.54">
            <rect id="Rectangle" x="0" y="0" width="24" height="24"></rect>
        </g>
    </g>
</svg>