<?xml version="1.0" encoding="UTF-8"?>
<svg width="24px" height="24px" viewBox="0 0 24 24" version="1.1" xmlns="http://www.w3.org/2000/svg" xmlns:xlink="http://www.w3.org/1999/xlink">
    <!-- Generator: Sketch 50 (54983) - http://www.bohemiancoding.com/sketch -->
    <title>icon/places/smoking_rooms_24px_sharp</title>
    <desc>Created with Sketch.</desc>
    <defs>
        <path d="M2,17.5 L17,17.5 L17,20.5 L2,20.5 L2,17.5 Z M20.5,17.5 L22,17.5 L22,20.5 L20.5,20.5 L20.5,17.5 Z M18,17.5 L19.5,17.5 L19.5,20.5 L18,20.5 L18,17.5 Z M18.85,9.23 C19.47,8.62 19.85,7.78 19.85,6.85 C19.85,5 18.35,3.5 16.5,3.5 L16.5,5 C17.52,5 18.35,5.83 18.35,6.85 C18.35,7.87 17.52,8.7 16.5,8.7 L16.5,10.2 C18.74,10.2 20.5,12.03 20.5,14.27 L20.5,16.5 L22,16.5 L22,14.26 C22,12.04 20.72,10.12 18.85,9.23 Z M16.03,11.7 L14.5,11.7 C13.48,11.7 12.65,10.72 12.65,9.7 C12.65,8.68 13.48,7.95 14.5,7.95 L14.5,6.45 C12.65,6.45 11.15,7.95 11.15,9.8 C11.15,11.65 12.65,13.15 14.5,13.15 L16.03,13.15 C17.08,13.15 18,13.89 18,15.2 L18,16.5 L19.5,16.5 L19.5,14.86 C19.5,13.05 17.9,11.7 16.03,11.7 Z" id="path-1"></path>
    </defs>
    <g id="icon/places/smoking_rooms_24px" stroke="none" stroke-width="1" fill="none" fill-rule="evenodd">
        <mask id="mask-2" fill="white">
            <use xlink:href="#path-1"></use>
        </mask>
        <g fill-rule="nonzero"></g>
        <g id="✱-/-Color-/-Icons-/-Black-/-Inactive" mask="url(#mask-2)" fill="#000000" fill-opacity="0.54">
            <rect id="Rectangle" x="0" y="0" width="24" height="24"></rect>
        </g>
    </g>
</svg>