<?xml version="1.0" encoding="UTF-8"?>
<svg width="24px" height="24px" viewBox="0 0 24 24" version="1.1" xmlns="http://www.w3.org/2000/svg" xmlns:xlink="http://www.w3.org/1999/xlink">
    <!-- Generator: Sketch 50 (54983) - http://www.bohemiancoding.com/sketch -->
    <title>icon/content/link_24px</title>
    <desc>Created with Sketch.</desc>
    <defs>
        <path d="M17,7 L13,7 L13,9 L17,9 C18.65,9 20,10.35 20,12 C20,13.65 18.65,15 17,15 L13,15 L13,17 L17,17 C19.76,17 22,14.76 22,12 C22,9.24 19.76,7 17,7 Z M11,15 L7,15 C5.35,15 4,13.65 4,12 C4,10.35 5.35,9 7,9 L11,9 L11,7 L7,7 C4.24,7 2,9.24 2,12 C2,14.76 4.24,17 7,17 L11,17 L11,15 Z M8,11 L16,11 L16,13 L8,13 L8,11 Z M17,7 L13,7 L13,9 L17,9 C18.65,9 20,10.35 20,12 C20,13.65 18.65,15 17,15 L13,15 L13,17 L17,17 C19.76,17 22,14.76 22,12 C22,9.24 19.76,7 17,7 Z M11,15 L7,15 C5.35,15 4,13.65 4,12 C4,10.35 5.35,9 7,9 L11,9 L11,7 L7,7 C4.24,7 2,9.24 2,12 C2,14.76 4.24,17 7,17 L11,17 L11,15 Z M8,11 L16,11 L16,13 L8,13 L8,11 Z" id="path-1"></path>
    </defs>
    <g id="icon/content/link_24px" stroke="none" stroke-width="1" fill="none" fill-rule="evenodd">
        <mask id="mask-2" fill="white">
            <use xlink:href="#path-1"></use>
        </mask>
        <g fill-rule="nonzero"></g>
        <g id="✱-/-Color-/-Icons-/-Black-/-Inactive" mask="url(#mask-2)" fill="#000000" fill-opacity="0.54">
            <rect id="Rectangle" x="0" y="0" width="24" height="24"></rect>
        </g>
    </g>
</svg>