<?xml version="1.0" encoding="UTF-8"?>
<svg width="24px" height="24px" viewBox="0 0 24 24" version="1.1" xmlns="http://www.w3.org/2000/svg" xmlns:xlink="http://www.w3.org/1999/xlink">
    <!-- Generator: Sketch 50 (54983) - http://www.bohemiancoding.com/sketch -->
    <title>icon/content/report_gmailerrorred_24px</title>
    <desc>Created with Sketch.</desc>
    <defs>
        <path d="M15.73,3 L8.27,3 L3,8.27 L3,15.73 L8.27,21 L15.73,21 L21,15.73 L21,8.27 L15.73,3 Z M19,14.9 L14.9,19 L9.1,19 L5,14.9 L5,9.1 L9.1,5 L14.9,5 L19,9.1 L19,14.9 Z M12,17 C12.5522847,17 13,16.5522847 13,16 C13,15.4477153 12.5522847,15 12,15 C11.4477153,15 11,15.4477153 11,16 C11,16.5522847 11.4477153,17 12,17 Z M11,7 L13,7 L13,14 L11,14 L11,7 Z" id="path-1"></path>
    </defs>
    <g id="icon/content/report_gmailerrorred_24px" stroke="none" stroke-width="1" fill="none" fill-rule="evenodd">
        <mask id="mask-2" fill="white">
            <use xlink:href="#path-1"></use>
        </mask>
        <g fill-rule="nonzero"></g>
        <g id="✱-/-Color-/-Icons-/-Black-/-Inactive" mask="url(#mask-2)" fill="#000000" fill-opacity="0.54">
            <rect id="Rectangle" x="0" y="0" width="24" height="24"></rect>
        </g>
    </g>
</svg>