<?xml version="1.0" encoding="UTF-8"?>
<svg width="24px" height="24px" viewBox="0 0 24 24" version="1.1" xmlns="http://www.w3.org/2000/svg" xmlns:xlink="http://www.w3.org/1999/xlink">
    <!-- Generator: Sketch 50 (54983) - http://www.bohemiancoding.com/sketch -->
    <title>icon/content/weekend_24px</title>
    <desc>Created with Sketch.</desc>
    <defs>
        <path d="M21,10 C19.9,10 19,10.9 19,12 L19,15 L5,15 L5,12 C5,10.9 4.1,10 3,10 C1.9,10 1,10.9 1,12 L1,17 C1,18.1 1.9,19 3,19 L21,19 C22.1,19 23,18.1 23,17 L23,12 C23,10.9 22.1,10 21,10 Z M18,5 L6,5 C4.9,5 4,5.9 4,7 L4,9.15 C5.16,9.56 6,10.66 6,11.97 L6,14 L18,14 L18,11.97 C18,10.67 18.84,9.57 20,9.15 L20,7 C20,5.9 19.1,5 18,5 Z" id="path-1"></path>
    </defs>
    <g id="icon/content/weekend_24px" stroke="none" stroke-width="1" fill="none" fill-rule="evenodd">
        <mask id="mask-2" fill="white">
            <use xlink:href="#path-1"></use>
        </mask>
        <g fill-rule="nonzero"></g>
        <g id="✱-/-Color-/-Icons-/-Black-/-Inactive" mask="url(#mask-2)" fill="#000000" fill-opacity="0.54">
            <rect id="Rectangle" x="0" y="0" width="24" height="24"></rect>
        </g>
    </g>
</svg>