<?xml version="1.0" encoding="UTF-8"?>
<svg width="24px" height="24px" viewBox="0 0 24 24" version="1.1" xmlns="http://www.w3.org/2000/svg" xmlns:xlink="http://www.w3.org/1999/xlink">
    <!-- Generator: Sketch 50 (54983) - http://www.bohemiancoding.com/sketch -->
    <title>icon/file/cloud_off_24px</title>
    <desc>Created with Sketch.</desc>
    <defs>
        <path d="M24,15 C24,12.36 21.95,10.22 19.35,10.04 C18.67,6.59 15.64,4 12,4 C10.67,4 9.43,4.36 8.35,4.97 L9.84,6.46 C10.51,6.17 11.23,6 12,6 C15.04,6 17.5,8.46 17.5,11.5 L17.5,12 L19,12 C20.66,12 22,13.34 22,15 C22,15.99 21.52,16.85 20.79,17.4 L22.2,18.81 C23.29,17.89 24,16.54 24,15 Z M4.41,3.86 L3,5.27 L5.77,8.04 L5.35,8.04 C2.34,8.36 0,10.91 0,14 C0,17.31 2.69,20 6,20 L17.73,20 L19.73,22 L21.14,20.59 L4.41,3.86 Z M6,18 C3.79,18 2,16.21 2,14 C2,11.79 3.79,10 6,10 L7.73,10 L15.73,18 L6,18 Z" id="path-1"></path>
    </defs>
    <g id="icon/file/cloud_off_24px" stroke="none" stroke-width="1" fill="none" fill-rule="evenodd">
        <mask id="mask-2" fill="white">
            <use xlink:href="#path-1"></use>
        </mask>
        <g fill-rule="nonzero"></g>
        <g id="✱-/-Color-/-Icons-/-Black-/-Inactive" mask="url(#mask-2)" fill="#000000" fill-opacity="0.54">
            <rect id="Rectangle" x="0" y="0" width="24" height="24"></rect>
        </g>
    </g>
</svg>