<?xml version="1.0" encoding="UTF-8"?>
<svg width="24px" height="24px" viewBox="0 0 24 24" version="1.1" xmlns="http://www.w3.org/2000/svg" xmlns:xlink="http://www.w3.org/1999/xlink">
    <!-- Generator: Sketch 50 (54983) - http://www.bohemiancoding.com/sketch -->
    <title>icon/social/publicon/social/24px_two_tone</title>
    <desc>Created with Sketch.</desc>
    <defs>
        <path d="M7.99,0.59 L7.99,1 C7.99,2.1 7.09,3 5.99,3 L3.99,3 L3.99,5 C3.99,5.55 3.54,6 2.99,6 L0.99,6 L0.99,8 L6.99,8 C7.54,8 7.99,8.45 7.99,9 L7.99,12 L8.99,12 C9.88,12 10.63,12.59 10.89,13.4 C12.19,11.98 13,10.08 13,8 C13,4.65 10.92,1.77 7.99,0.59 Z" id="path-1"></path>
        <path d="M4.99,6 L4.99,5 L0.21,0.22 C0.08,0.79 0,1.39 0,2 C0,6.07 3.06,9.43 6.99,9.93 L6.99,8 C5.89,8 4.99,7.1 4.99,6 Z" id="path-3"></path>
        <path d="M10,0 C4.48,0 0,4.48 0,10 C0,15.52 4.48,20 10,20 C15.52,20 20,15.52 20,10 C20,4.48 15.52,0 10,0 Z M8.99,17.93 C5.06,17.43 2,14.07 2,10 C2,9.39 2.08,8.79 2.21,8.22 L6.99,13 L6.99,14 C6.99,15.1 7.89,16 8.99,16 L8.99,17.93 Z M15.89,15.4 C15.63,14.59 14.89,14 13.99,14 L12.99,14 L12.99,11 C12.99,10.45 12.54,10 11.99,10 L5.99,10 L5.99,8 L7.99,8 C8.54,8 8.99,7.55 8.99,7 L8.99,5 L10.99,5 C12.09,5 12.99,4.1 12.99,3 L12.99,2.59 C15.92,3.77 18,6.65 18,10 C18,12.08 17.19,13.98 15.89,15.4 Z" id="path-5"></path>
    </defs>
    <g id="icon/social/publicon/social/24px" stroke="none" stroke-width="1" fill="none" fill-rule="evenodd">
        <g id="↳-Light-Color" transform="translate(7.000000, 4.000000)">
            <mask id="mask-2" fill="white">
                <use xlink:href="#path-1"></use>
            </mask>
            <g id="Mask" opacity="0.3" fill-rule="nonzero"></g>
            <g id="✱-/-Color-/-Icons-/-Black-/-Disabled" mask="url(#mask-2)" fill="#000000" fill-opacity="0.38">
                <rect id="Rectangle" x="0" y="0" width="101" height="101"></rect>
            </g>
        </g>
        <g id="↳-Light-Color" transform="translate(4.000000, 10.000000)">
            <mask id="mask-4" fill="white">
                <use xlink:href="#path-3"></use>
            </mask>
            <g id="Mask" opacity="0.3" fill-rule="nonzero"></g>
            <g id="✱-/-Color-/-Icons-/-Black-/-Disabled" mask="url(#mask-4)" fill="#000000" fill-opacity="0.38">
                <rect id="Rectangle" x="0" y="0" width="101" height="101"></rect>
            </g>
        </g>
        <g id="↳-Dark-Color" transform="translate(2.000000, 2.000000)">
            <mask id="mask-6" fill="white">
                <use xlink:href="#path-5"></use>
            </mask>
            <g id="Mask" fill-rule="nonzero"></g>
            <g id="✱-/-Color-/-Icons-/-Black-/-Inactive" mask="url(#mask-6)" fill="#000000" fill-opacity="0.54">
                <rect id="Rectangle" x="0" y="0" width="101" height="101"></rect>
            </g>
        </g>
    </g>
</svg>