<?xml version="1.0" encoding="UTF-8"?>
<svg width="24px" height="24px" viewBox="0 0 24 24" version="1.1" xmlns="http://www.w3.org/2000/svg" xmlns:xlink="http://www.w3.org/1999/xlink">
    <!-- Generator: Sketch 50 (54983) - http://www.bohemiancoding.com/sketch -->
    <title>icon/device/access_alarms_24px_two_tone</title>
    <desc>Created with Sketch.</desc>
    <defs>
        <path d="M7,0 C3.1,0 0,3.1 0,7 C0,10.9 3.1,14 7,14 C10.9,14 14,10.9 14,7 C14,3.1 10.9,0 7,0 Z M10.7,10.9 L6,8 L6,2 L7.5,2 L7.5,7.3 L11.5,9.7 L10.7,10.9 Z" id="path-1"></path>
        <polygon id="path-3" points="6 4.7 1.4 0.8 0.1 2.3 4.7 6.2"></polygon>
        <polygon id="path-5" points="1.5 0 0 0 0 6 4.7 8.9 5.5 7.7 1.5 5.3"></polygon>
        <path d="M9,0 C4,0 0,4 0,9 C0,14 4,18 9,18 C14,18 18,14 18,9 C18,4 14,0 9,0 Z M9,16 C5.1,16 2,12.9 2,9 C2,5.1 5.1,2 9,2 C12.9,2 16,5.1 16,9 C16,12.9 12.9,16 9,16 Z" id="path-7"></path>
        <polygon id="path-9" points="5.9 2.4 4.6 0.9 0 4.7 1.3 6.2"></polygon>
    </defs>
    <g id="icon/device/access_alarms_24px" stroke="none" stroke-width="1" fill="none" fill-rule="evenodd">
        <g id="↳-Light-Color" transform="translate(5.000000, 6.000000)">
            <mask id="mask-2" fill="white">
                <use xlink:href="#path-1"></use>
            </mask>
            <g id="Mask" opacity="0.3" fill-rule="nonzero"></g>
            <g id="✱-/-Color-/-Icons-/-Black-/-Disabled" mask="url(#mask-2)" fill="#000000" fill-opacity="0.38">
                <rect id="Rectangle" x="0" y="0" width="101" height="101"></rect>
            </g>
        </g>
        <g id="↳-Dark-Color" transform="translate(16.000000, 1.000000)">
            <mask id="mask-4" fill="white">
                <use xlink:href="#path-3"></use>
            </mask>
            <g id="Mask" fill-rule="nonzero"></g>
            <g id="✱-/-Color-/-Icons-/-Black-/-Inactive" mask="url(#mask-4)" fill="#000000" fill-opacity="0.54">
                <rect id="Rectangle" x="0" y="0" width="101" height="101"></rect>
            </g>
        </g>
        <g id="↳-Dark-Color" transform="translate(11.000000, 8.000000)">
            <mask id="mask-6" fill="white">
                <use xlink:href="#path-5"></use>
            </mask>
            <g id="Mask" fill-rule="nonzero"></g>
            <g id="✱-/-Color-/-Icons-/-Black-/-Inactive" mask="url(#mask-6)" fill="#000000" fill-opacity="0.54">
                <rect id="Rectangle" x="0" y="0" width="101" height="101"></rect>
            </g>
        </g>
        <g id="↳-Dark-Color" transform="translate(3.000000, 4.000000)">
            <mask id="mask-8" fill="white">
                <use xlink:href="#path-7"></use>
            </mask>
            <g id="Mask" fill-rule="nonzero"></g>
            <g id="✱-/-Color-/-Icons-/-Black-/-Inactive" mask="url(#mask-8)" fill="#000000" fill-opacity="0.54">
                <rect id="Rectangle" x="0" y="0" width="101" height="101"></rect>
            </g>
        </g>
        <g id="↳-Dark-Color" transform="translate(2.000000, 1.000000)">
            <mask id="mask-10" fill="white">
                <use xlink:href="#path-9"></use>
            </mask>
            <g id="Mask" fill-rule="nonzero"></g>
            <g id="✱-/-Color-/-Icons-/-Black-/-Inactive" mask="url(#mask-10)" fill="#000000" fill-opacity="0.54">
                <rect id="Rectangle" x="0" y="0" width="101" height="101"></rect>
            </g>
        </g>
    </g>
</svg>