<?xml version="1.0" encoding="UTF-8"?>
<svg width="24px" height="24px" viewBox="0 0 24 24" version="1.1" xmlns="http://www.w3.org/2000/svg" xmlns:xlink="http://www.w3.org/1999/xlink">
    <!-- Generator: Sketch 50 (54983) - http://www.bohemiancoding.com/sketch -->
    <title>icon/device/access_alarm_24px_two_tone</title>
    <desc>Created with Sketch.</desc>
    <defs>
        <path d="M7,0 C3.13,0 0,3.13 0,7 C0,10.87 3.13,14 7,14 C10.87,14 14,10.87 14,7 C14,3.13 10.87,0 7,0 Z M10.75,10.85 L6,8 L6,2 L7.5,2 L7.5,7.25 L11.5,9.62 L10.75,10.85 Z" id="path-1"></path>
        <path d="M9,0 C4.03,0 0,4.03 0,9 C0,13.97 4.02,18 9,18 C13.97,18 18,13.97 18,9 C18,4.03 13.97,0 9,0 Z M9,16 C5.13,16 2,12.87 2,9 C2,5.13 5.13,2 9,2 C12.87,2 16,5.13 16,9 C16,12.87 12.87,16 9,16 Z" id="path-3"></path>
        <polygon id="path-5" points="1.5 0 0 0 0 6 4.75 8.85 5.5 7.62 1.5 5.25"></polygon>
        <polygon id="path-7" points="6 4.72 1.4 0.86 0.11 2.39 4.71 6.25"></polygon>
        <polygon id="path-9" points="5.88 2.39 4.6 0.86 0 4.71 1.29 6.24"></polygon>
    </defs>
    <g id="icon/device/access_alarm_24px" stroke="none" stroke-width="1" fill="none" fill-rule="evenodd">
        <g id="↳-Light-Color" transform="translate(5.000000, 6.000000)">
            <mask id="mask-2" fill="white">
                <use xlink:href="#path-1"></use>
            </mask>
            <g id="Mask" opacity="0.3" fill-rule="nonzero"></g>
            <g id="✱-/-Color-/-Icons-/-Black-/-Disabled" mask="url(#mask-2)" fill="#000000" fill-opacity="0.38">
                <rect id="Rectangle" x="0" y="0" width="101" height="101"></rect>
            </g>
        </g>
        <g id="↳-Dark-Color" transform="translate(3.000000, 4.000000)">
            <mask id="mask-4" fill="white">
                <use xlink:href="#path-3"></use>
            </mask>
            <g id="Mask" fill-rule="nonzero"></g>
            <g id="✱-/-Color-/-Icons-/-Black-/-Inactive" mask="url(#mask-4)" fill="#000000" fill-opacity="0.54">
                <rect id="Rectangle" x="0" y="0" width="101" height="101"></rect>
            </g>
        </g>
        <g id="↳-Dark-Color" transform="translate(11.000000, 8.000000)">
            <mask id="mask-6" fill="white">
                <use xlink:href="#path-5"></use>
            </mask>
            <g id="Mask" fill-rule="nonzero"></g>
            <g id="✱-/-Color-/-Icons-/-Black-/-Inactive" mask="url(#mask-6)" fill="#000000" fill-opacity="0.54">
                <rect id="Rectangle" x="0" y="0" width="101" height="101"></rect>
            </g>
        </g>
        <g id="↳-Dark-Color" transform="translate(16.000000, 1.000000)">
            <mask id="mask-8" fill="white">
                <use xlink:href="#path-7"></use>
            </mask>
            <g id="Mask" fill-rule="nonzero"></g>
            <g id="✱-/-Color-/-Icons-/-Black-/-Inactive" mask="url(#mask-8)" fill="#000000" fill-opacity="0.54">
                <rect id="Rectangle" x="0" y="0" width="101" height="101"></rect>
            </g>
        </g>
        <g id="↳-Dark-Color" transform="translate(2.000000, 1.000000)">
            <mask id="mask-10" fill="white">
                <use xlink:href="#path-9"></use>
            </mask>
            <g id="Mask" fill-rule="nonzero"></g>
            <g id="✱-/-Color-/-Icons-/-Black-/-Inactive" mask="url(#mask-10)" fill="#000000" fill-opacity="0.54">
                <rect id="Rectangle" x="0" y="0" width="101" height="101"></rect>
            </g>
        </g>
    </g>
</svg>