<?xml version="1.0" encoding="UTF-8"?>
<svg width="24px" height="24px" viewBox="0 0 24 24" version="1.1" xmlns="http://www.w3.org/2000/svg" xmlns:xlink="http://www.w3.org/1999/xlink">
    <!-- Generator: Sketch 50 (54983) - http://www.bohemiancoding.com/sketch -->
    <title>icon/device/add_to_home_screen_24px_two_tone</title>
    <desc>Created with Sketch.</desc>
    <defs>
        <path d="M15,0.01 L5,0 C3.9,0 3,0.9 3,2 L3,5 L5,5 L5,4 L15,4 L15,18 L5,18 L5,17 L3,17 L3,20 C3,21.1 3.9,22 5,22 L15,22 C16.1,22 17,21.1 17,20 L17,2 C17,0.9 16.1,0.01 15,0.01 Z M7,14 L9,14 L9,7 L2,7 L2,9 L5.59,9 L0,14.59 L1.41,16 L7,10.41 L7,14 Z" id="path-1"></path>
    </defs>
    <g id="icon/device/add_to_home_screen_24px" stroke="none" stroke-width="1" fill="none" fill-rule="evenodd">
        <g id="↳-Dark-Color" transform="translate(3.000000, 1.000000)">
            <mask id="mask-2" fill="white">
                <use xlink:href="#path-1"></use>
            </mask>
            <g id="Mask" fill-rule="nonzero"></g>
            <g id="✱-/-Color-/-Icons-/-Black-/-Inactive" mask="url(#mask-2)" fill="#000000" fill-opacity="0.54">
                <rect id="Rectangle" x="0" y="0" width="101" height="101"></rect>
            </g>
        </g>
    </g>
</svg>