<?xml version="1.0" encoding="UTF-8"?>
<svg width="24px" height="24px" viewBox="0 0 24 24" version="1.1" xmlns="http://www.w3.org/2000/svg" xmlns:xlink="http://www.w3.org/1999/xlink">
    <!-- Generator: Sketch 50 (54983) - http://www.bohemiancoding.com/sketch -->
    <title>icon/device/airplanemode_inactive_24px_two_tone</title>
    <desc>Created with Sketch.</desc>
    <defs>
        <path d="M11,14 L11,12 L3,7 L3,1.5 C3,0.67 2.33,0 1.5,0 C0.67,0 0,0.67 0,1.5 L0,4.61 L8.65,13.26 L11,14 Z" id="path-1"></path>
        <polygon id="path-3" points="16.73 18 18.14 16.59 2.41 0.86 1 2.27 5.99 7.26 0 11 0 13 8 10.5 8 16 6 17.5 6 19 9.5 18 13 19 13 17.5 11 16 11 12.27"></polygon>
    </defs>
    <g id="icon/device/airplanemode_inactive_24px" stroke="none" stroke-width="1" fill="none" fill-rule="evenodd">
        <g id="↳-Dark-Color" transform="translate(10.000000, 2.000000)">
            <mask id="mask-2" fill="white">
                <use xlink:href="#path-1"></use>
            </mask>
            <g id="Mask" fill-rule="nonzero"></g>
            <g id="✱-/-Color-/-Icons-/-Black-/-Inactive" mask="url(#mask-2)" fill="#000000" fill-opacity="0.54">
                <rect id="Rectangle" x="0" y="0" width="101" height="101"></rect>
            </g>
        </g>
        <g id="↳-Dark-Color" transform="translate(2.000000, 3.000000)">
            <mask id="mask-4" fill="white">
                <use xlink:href="#path-3"></use>
            </mask>
            <g id="Mask" fill-rule="nonzero"></g>
            <g id="✱-/-Color-/-Icons-/-Black-/-Inactive" mask="url(#mask-4)" fill="#000000" fill-opacity="0.54">
                <rect id="Rectangle" x="0" y="0" width="101" height="101"></rect>
            </g>
        </g>
    </g>
</svg>