<?xml version="1.0" encoding="UTF-8"?>
<svg width="24px" height="24px" viewBox="0 0 24 24" version="1.1" xmlns="http://www.w3.org/2000/svg" xmlns:xlink="http://www.w3.org/1999/xlink">
    <!-- Generator: Sketch 50 (54983) - http://www.bohemiancoding.com/sketch -->
    <title>icon/device/bluetooth_connected_24px_two_tone</title>
    <desc>Created with Sketch.</desc>
    <defs>
        <path d="M4,10 L2,8 L0,10 L2,12 L4,10 Z M14.71,5.71 L9,0 L8,0 L8,7.59 L3.41,3 L2,4.41 L7.59,10 L2,15.59 L3.41,17 L8,12.41 L8,20 L9,20 L14.71,14.29 L10.41,10 L14.71,5.71 Z M10,3.83 L11.88,5.71 L10,7.59 L10,3.83 Z M11.88,14.29 L10,16.17 L10,12.41 L11.88,14.29 Z M16,8 L14,10 L16,12 L18,10 L16,8 Z" id="path-1"></path>
    </defs>
    <g id="icon/device/bluetooth_connected_24px" stroke="none" stroke-width="1" fill="none" fill-rule="evenodd">
        <g id="↳-Dark-Color" transform="translate(3.000000, 2.000000)">
            <mask id="mask-2" fill="white">
                <use xlink:href="#path-1"></use>
            </mask>
            <g id="Mask" fill-rule="nonzero"></g>
            <g id="✱-/-Color-/-Icons-/-Black-/-Inactive" mask="url(#mask-2)" fill="#000000" fill-opacity="0.54">
                <rect id="Rectangle" x="0" y="0" width="101" height="101"></rect>
            </g>
        </g>
    </g>
</svg>