<?xml version="1.0" encoding="UTF-8"?>
<svg width="24px" height="24px" viewBox="0 0 24 24" version="1.1" xmlns="http://www.w3.org/2000/svg" xmlns:xlink="http://www.w3.org/1999/xlink">
    <!-- Generator: Sketch 50 (54983) - http://www.bohemiancoding.com/sketch -->
    <title>icon/device/bluetooth_disabled_24px_two_tone</title>
    <desc>Created with Sketch.</desc>
    <defs>
        <path d="M9,3.83 L10.88,5.71 L9.28,7.31 L10.69,8.72 L13.71,5.7 L8,0 L7,0 L7,5.03 L9,7.03 L9,3.83 Z M1.41,2 L0,3.41 L6.59,10 L1,15.59 L2.41,17 L7,12.41 L7,20 L8,20 L12.29,15.71 L14.59,18 L16,16.59 L1.41,2 Z M9,16.17 L9,12.41 L10.88,14.29 L9,16.17 Z" id="path-1"></path>
    </defs>
    <g id="icon/device/bluetooth_disabled_24px" stroke="none" stroke-width="1" fill="none" fill-rule="evenodd">
        <g id="↳-Dark-Color" transform="translate(4.000000, 2.000000)">
            <mask id="mask-2" fill="white">
                <use xlink:href="#path-1"></use>
            </mask>
            <g id="Mask" fill-rule="nonzero"></g>
            <g id="✱-/-Color-/-Icons-/-Black-/-Inactive" mask="url(#mask-2)" fill="#000000" fill-opacity="0.54">
                <rect id="Rectangle" x="0" y="0" width="101" height="101"></rect>
            </g>
        </g>
    </g>
</svg>