<?xml version="1.0" encoding="UTF-8"?>
<svg width="24px" height="24px" viewBox="0 0 24 24" version="1.1" xmlns="http://www.w3.org/2000/svg" xmlns:xlink="http://www.w3.org/1999/xlink">
    <!-- Generator: Sketch 50 (54983) - http://www.bohemiancoding.com/sketch -->
    <title>icon/device/data_usage_24px_two_tone</title>
    <desc>Created with Sketch.</desc>
    <defs>
        <path d="M11,0.05 L11,3.08 C14.39,3.57 17,6.47 17,10 C17,10.9 16.82,11.75 16.52,12.54 L19.12,14.07 C19.68,12.83 20,11.45 20,10 C20,4.82 16.05,0.55 11,0.05 Z M10,17 C6.13,17 3,13.87 3,10 C3,6.47 5.61,3.57 9,3.08 L9,0.05 C3.94,0.55 0,4.81 0,10 C0,15.52 4.47,20 9.99,20 C13.3,20 16.23,18.39 18.05,15.91 L15.45,14.38 C14.17,15.98 12.21,17 10,17 Z" id="path-1"></path>
    </defs>
    <g id="icon/device/data_usage_24px" stroke="none" stroke-width="1" fill="none" fill-rule="evenodd">
        <g id="↳-Dark-Color" transform="translate(2.000000, 2.000000)">
            <mask id="mask-2" fill="white">
                <use xlink:href="#path-1"></use>
            </mask>
            <g id="Mask" fill-rule="nonzero"></g>
            <g id="✱-/-Color-/-Icons-/-Black-/-Inactive" mask="url(#mask-2)" fill="#000000" fill-opacity="0.54">
                <rect id="Rectangle" x="0" y="0" width="101" height="101"></rect>
            </g>
        </g>
    </g>
</svg>