<?xml version="1.0" encoding="UTF-8"?>
<svg width="24px" height="24px" viewBox="0 0 24 24" version="1.1" xmlns="http://www.w3.org/2000/svg" xmlns:xlink="http://www.w3.org/1999/xlink">
    <!-- Generator: Sketch 50 (54983) - http://www.bohemiancoding.com/sketch -->
    <title>icon/device/developer_mode_24px_two_tone</title>
    <desc>Created with Sketch.</desc>
    <defs>
        <path d="M3,4 L13,4 L13,6 L15,6 L15,2 C15,0.9 14.1,0.01 13,0.01 L3,0 C1.9,0 1,0.9 1,2 L1,6 L3,6 L3,4 Z M11.41,15.59 L16,11 L11.41,6.41 L10,7.83 L13.17,11 L10,14.17 L11.41,15.59 Z M6,14.17 L2.83,11 L6,7.83 L4.59,6.41 L0,11 L4.59,15.59 L6,14.17 Z M13,18 L3,18 L3,16 L1,16 L1,20 C1,21.1 1.9,22 3,22 L13,22 C14.1,22 15,21.1 15,20 L15,16 L13,16 L13,18 Z" id="path-1"></path>
    </defs>
    <g id="icon/device/developer_mode_24px" stroke="none" stroke-width="1" fill="none" fill-rule="evenodd">
        <g id="↳-Dark-Color" transform="translate(4.000000, 1.000000)">
            <mask id="mask-2" fill="white">
                <use xlink:href="#path-1"></use>
            </mask>
            <g id="Mask" fill-rule="nonzero"></g>
            <g id="✱-/-Color-/-Icons-/-Black-/-Inactive" mask="url(#mask-2)" fill="#000000" fill-opacity="0.54">
                <rect id="Rectangle" x="0" y="0" width="101" height="101"></rect>
            </g>
        </g>
    </g>
</svg>