<?xml version="1.0" encoding="UTF-8"?>
<svg width="24px" height="24px" viewBox="0 0 24 24" version="1.1" xmlns="http://www.w3.org/2000/svg" xmlns:xlink="http://www.w3.org/1999/xlink">
    <!-- Generator: Sketch 50 (54983) - http://www.bohemiancoding.com/sketch -->
    <title>icon/device/location_disabled_24px_two_tone</title>
    <desc>Created with Sketch.</desc>
    <defs>
        <path d="M15,12 L15,10 L12.94,10 C12.48,5.83 9.17,2.52 5,2.06 L5,0 L3,0 L3,2.06 C2.02,2.17 1.09,2.44 0.23,2.84 L1.76,4.37 C2.46,4.13 3.22,4 4,4 C7.87,4 11,7.13 11,11 C11,11.79 10.87,12.54 10.63,13.24 L12.16,14.77 C12.56,13.91 12.83,12.98 12.94,12 L15,12 Z" id="path-1"></path>
        <path d="M3.41,0.86 L2,2.27 L4.04,4.31 C2.97,5.62 2.26,7.23 2.06,9 L0,9 L0,11 L2.06,11 C2.52,15.17 5.83,18.48 10,18.94 L10,21 L12,21 L12,18.94 C13.77,18.74 15.38,18.03 16.69,16.96 L18.73,19 L20.14,17.59 L3.41,0.86 Z M11,17 C7.13,17 4,13.87 4,10 C4,8.39 4.55,6.91 5.46,5.73 L15.27,15.54 C14.09,16.45 12.61,17 11,17 Z" id="path-3"></path>
    </defs>
    <g id="icon/device/location_disabled_24px" stroke="none" stroke-width="1" fill="none" fill-rule="evenodd">
        <g id="↳-Dark-Color" transform="translate(8.000000, 1.000000)">
            <mask id="mask-2" fill="white">
                <use xlink:href="#path-1"></use>
            </mask>
            <g id="Mask" fill-rule="nonzero"></g>
            <g id="✱-/-Color-/-Icons-/-Black-/-Inactive" mask="url(#mask-2)" fill="#000000" fill-opacity="0.54">
                <rect id="Rectangle" x="0" y="0" width="101" height="101"></rect>
            </g>
        </g>
        <g id="↳-Dark-Color" transform="translate(1.000000, 2.000000)">
            <mask id="mask-4" fill="white">
                <use xlink:href="#path-3"></use>
            </mask>
            <g id="Mask" fill-rule="nonzero"></g>
            <g id="✱-/-Color-/-Icons-/-Black-/-Inactive" mask="url(#mask-4)" fill="#000000" fill-opacity="0.54">
                <rect id="Rectangle" x="0" y="0" width="101" height="101"></rect>
            </g>
        </g>
    </g>
</svg>