<?xml version="1.0" encoding="UTF-8"?>
<svg width="24px" height="24px" viewBox="0 0 24 24" version="1.1" xmlns="http://www.w3.org/2000/svg" xmlns:xlink="http://www.w3.org/1999/xlink">
    <!-- Generator: Sketch 50 (54983) - http://www.bohemiancoding.com/sketch -->
    <title>icon/device/mobile_off_24px_two_tone</title>
    <desc>Created with Sketch.</desc>
    <defs>
        <path d="M12,4 L12,12.61 L14,14.61 L14,2 C14,0.9 13.1,0 12,0 L2,0 C1.29,0 0.67,0.37 0.32,0.93 L3.39,4 L12,4 Z" id="path-1"></path>
        <path d="M0.49,1.76 L4,5.27 L4,19 C4,20.1 4.9,21 6,21 L16,21 C17.02,21 17.85,20.23 17.98,19.25 L19.7,20.97 L21.11,19.56 L1.9,0.35 L0.49,1.76 Z M6,7.27 L15.73,17 L6,17 L6,7.27 Z" id="path-3"></path>
    </defs>
    <g id="icon/device/mobile_off_24px" stroke="none" stroke-width="1" fill="none" fill-rule="evenodd">
        <g id="↳-Dark-Color" transform="translate(5.000000, 1.000000)">
            <mask id="mask-2" fill="white">
                <use xlink:href="#path-1"></use>
            </mask>
            <g id="Mask" fill-rule="nonzero"></g>
            <g id="✱-/-Color-/-Icons-/-Black-/-Inactive" mask="url(#mask-2)" fill="#000000" fill-opacity="0.54">
                <rect id="Rectangle" x="0" y="0" width="101" height="101"></rect>
            </g>
        </g>
        <g id="↳-Dark-Color" transform="translate(1.000000, 2.000000)">
            <mask id="mask-4" fill="white">
                <use xlink:href="#path-3"></use>
            </mask>
            <g id="Mask" fill-rule="nonzero"></g>
            <g id="✱-/-Color-/-Icons-/-Black-/-Inactive" mask="url(#mask-4)" fill="#000000" fill-opacity="0.54">
                <rect id="Rectangle" x="0" y="0" width="101" height="101"></rect>
            </g>
        </g>
    </g>
</svg>