<?xml version="1.0" encoding="UTF-8"?>
<svg width="24px" height="24px" viewBox="0 0 24 24" version="1.1" xmlns="http://www.w3.org/2000/svg" xmlns:xlink="http://www.w3.org/1999/xlink">
    <!-- Generator: Sketch 50 (54983) - http://www.bohemiancoding.com/sketch -->
    <title>icon/device/nfc_24px_two_tone</title>
    <desc>Created with Sketch.</desc>
    <defs>
        <path d="M18,0 L2,0 C0.9,0 0,0.9 0,2 L0,18 C0,19.1 0.9,20 2,20 L18,20 C19.1,20 20,19.1 20,18 L20,2 C20,0.9 19.1,0 18,0 Z M18,18 L2,18 L2,2 L18,2 L18,18 Z M16,4 L11,4 C9.9,4 9,4.9 9,6 L9,8.28 C8.4,8.63 8,9.26 8,10 C8,11.1 8.9,12 10,12 C11.1,12 12,11.1 12,10 C12,9.26 11.6,8.62 11,8.28 L11,6 L14,6 L14,14 L6,14 L6,6 L8,6 L8,4 L4,4 L4,16 L16,16 L16,4 Z" id="path-1"></path>
    </defs>
    <g id="icon/device/nfc_24px" stroke="none" stroke-width="1" fill="none" fill-rule="evenodd">
        <g id="↳-Dark-Color" transform="translate(2.000000, 2.000000)">
            <mask id="mask-2" fill="white">
                <use xlink:href="#path-1"></use>
            </mask>
            <g id="Mask" fill-rule="nonzero"></g>
            <g id="✱-/-Color-/-Icons-/-Black-/-Inactive" mask="url(#mask-2)" fill="#000000" fill-opacity="0.54">
                <rect id="Rectangle" x="0" y="0" width="101" height="101"></rect>
            </g>
        </g>
    </g>
</svg>