<?xml version="1.0" encoding="UTF-8"?>
<svg width="24px" height="24px" viewBox="0 0 24 24" version="1.1" xmlns="http://www.w3.org/2000/svg" xmlns:xlink="http://www.w3.org/1999/xlink">
    <!-- Generator: Sketch 50 (54983) - http://www.bohemiancoding.com/sketch -->
    <title>icon/device/screen_lock_portrait_24px_two_tone</title>
    <desc>Created with Sketch.</desc>
    <defs>
        <path d="M3.2,2 C3.2,1.34 2.66,0.8 2,0.8 C1.34,0.8 0.8,1.34 0.8,2 L0.8,3 L3.2,3 L3.2,2 Z" id="path-1"></path>
        <path d="M0,14 L10,14 L10,0 L0,0 L0,14 Z M2,7 C2,6.45 2.45,6 3,6 L3,5 C3,3.9 3.89,3 5,3 C6.1,3 7,3.89 7,5 L7,6 C7.55,6 8,6.45 8,7 L8,10 C8,10.55 7.55,11 7,11 L3,11 C2.45,11 2,10.55 2,10 L2,7 Z" id="path-3"></path>
        <path d="M1,8 L5,8 C5.55,8 6,7.55 6,7 L6,4 C6,3.45 5.55,3 5,3 L5,2 C5,0.89 4.1,0 3,0 C1.89,0 1,0.9 1,2 L1,3 C0.45,3 0,3.45 0,4 L0,7 C0,7.55 0.45,8 1,8 Z M1.8,2 C1.8,1.34 2.34,0.8 3,0.8 C3.66,0.8 4.2,1.34 4.2,2 L4.2,3 L1.8,3 L1.8,2 Z" id="path-5"></path>
        <path d="M12,0 L2,0 C0.9,0 0,0.9 0,2 L0,20 C0,21.1 0.9,22 2,22 L12,22 C13.1,22 14,21.1 14,20 L14,2 C14,0.9 13.1,0 12,0 Z M12,18 L2,18 L2,4 L12,4 L12,18 Z" id="path-7"></path>
    </defs>
    <g id="icon/device/screen_lock_portrait_24px" stroke="none" stroke-width="1" fill="none" fill-rule="evenodd">
        <g id="↳-Light-Color" transform="translate(10.000000, 8.000000)">
            <mask id="mask-2" fill="white">
                <use xlink:href="#path-1"></use>
            </mask>
            <g id="Mask" opacity="0.3" fill-rule="nonzero"></g>
            <g id="✱-/-Color-/-Icons-/-Black-/-Disabled" mask="url(#mask-2)" fill="#000000" fill-opacity="0.38">
                <rect id="Rectangle" x="0" y="0" width="101" height="101"></rect>
            </g>
        </g>
        <g id="↳-Light-Color" transform="translate(7.000000, 5.000000)">
            <mask id="mask-4" fill="white">
                <use xlink:href="#path-3"></use>
            </mask>
            <g id="Mask" opacity="0.3" fill-rule="nonzero"></g>
            <g id="✱-/-Color-/-Icons-/-Black-/-Disabled" mask="url(#mask-4)" fill="#000000" fill-opacity="0.38">
                <rect id="Rectangle" x="0" y="0" width="101" height="101"></rect>
            </g>
        </g>
        <g id="↳-Dark-Color" transform="translate(9.000000, 8.000000)">
            <mask id="mask-6" fill="white">
                <use xlink:href="#path-5"></use>
            </mask>
            <g id="Mask" fill-rule="nonzero"></g>
            <g id="✱-/-Color-/-Icons-/-Black-/-Inactive" mask="url(#mask-6)" fill="#000000" fill-opacity="0.54">
                <rect id="Rectangle" x="0" y="0" width="101" height="101"></rect>
            </g>
        </g>
        <g id="↳-Dark-Color" transform="translate(5.000000, 1.000000)">
            <mask id="mask-8" fill="white">
                <use xlink:href="#path-7"></use>
            </mask>
            <g id="Mask" fill-rule="nonzero"></g>
            <g id="✱-/-Color-/-Icons-/-Black-/-Inactive" mask="url(#mask-8)" fill="#000000" fill-opacity="0.54">
                <rect id="Rectangle" x="0" y="0" width="101" height="101"></rect>
            </g>
        </g>
    </g>
</svg>