<?xml version="1.0" encoding="UTF-8"?>
<svg width="24px" height="24px" viewBox="0 0 24 24" version="1.1" xmlns="http://www.w3.org/2000/svg" xmlns:xlink="http://www.w3.org/1999/xlink">
    <!-- Generator: Sketch 50 (54983) - http://www.bohemiancoding.com/sketch -->
    <title>icon/device/settings_system_daydream_24px_two_tone</title>
    <desc>Created with Sketch.</desc>
    <defs>
        <path d="M2,6 L8.5,6 C9.33,6 10,5.33 10,4.5 C10,3.67 9.33,3 8.5,3 L7.63,3 L7.46,2.14 C7.29,0.92 6.23,0 5,0 C4.04,0 3.16,0.57 2.74,1.45 L2.47,2.02 L1.74,2.02 C0.74,2.15 0,2.99 0,4 C0,5.1 0.9,6 2,6 Z" id="path-1"></path>
        <path d="M4,10 L10.5,10 C12.43,10 14,8.43 14,6.5 C14,4.84 12.84,3.45 11.26,3.09 C10.66,1.28 8.95,0 7,0 C5.47,0 4.04,0.8 3.22,2.08 C1.36,2.44 0,4.07 0,6 C0,8.21 1.79,10 4,10 Z M3.74,4.02 L4.48,4.02 L4.75,3.45 C5.16,2.57 6.04,2 7,2 C8.23,2 9.29,2.92 9.46,4.14 L9.63,5 L10.5,5 C11.33,5 12,5.67 12,6.5 C12,7.33 11.33,8 10.5,8 L4,8 C2.9,8 2,7.1 2,6 C2,4.99 2.74,4.15 3.74,4.02 Z" id="path-3"></path>
        <path d="M20,0 L2,0 C0.9,0 0,0.9 0,2 L0,16 C0,17.1 0.9,18 2,18 L20,18 C21.1,18 22,17.1 22,16 L22,2 C22,0.9 21.1,0 20,0 Z M20,16.01 L2,16.01 L2,1.99 L20,1.99 L20,16.01 Z" id="path-5"></path>
    </defs>
    <g id="icon/device/settings_system_daydream_24px" stroke="none" stroke-width="1" fill="none" fill-rule="evenodd">
        <g id="↳-Light-Color" transform="translate(7.000000, 9.000000)">
            <mask id="mask-2" fill="white">
                <use xlink:href="#path-1"></use>
            </mask>
            <g id="Mask" opacity="0.3" fill-rule="nonzero"></g>
            <g id="✱-/-Color-/-Icons-/-Black-/-Disabled" mask="url(#mask-2)" fill="#000000" fill-opacity="0.38">
                <rect id="Rectangle" x="0" y="0" width="101" height="101"></rect>
            </g>
        </g>
        <g id="↳-Dark-Color" transform="translate(5.000000, 7.000000)">
            <mask id="mask-4" fill="white">
                <use xlink:href="#path-3"></use>
            </mask>
            <g id="Mask" fill-rule="nonzero"></g>
            <g id="✱-/-Color-/-Icons-/-Black-/-Inactive" mask="url(#mask-4)" fill="#000000" fill-opacity="0.54">
                <rect id="Rectangle" x="0" y="0" width="101" height="101"></rect>
            </g>
        </g>
        <g id="↳-Dark-Color" transform="translate(1.000000, 3.000000)">
            <mask id="mask-6" fill="white">
                <use xlink:href="#path-5"></use>
            </mask>
            <g id="Mask" fill-rule="nonzero"></g>
            <g id="✱-/-Color-/-Icons-/-Black-/-Inactive" mask="url(#mask-6)" fill="#000000" fill-opacity="0.54">
                <rect id="Rectangle" x="0" y="0" width="101" height="101"></rect>
            </g>
        </g>
    </g>
</svg>