<?xml version="1.0" encoding="UTF-8"?>
<svg width="24px" height="24px" viewBox="0 0 24 24" version="1.1" xmlns="http://www.w3.org/2000/svg" xmlns:xlink="http://www.w3.org/1999/xlink">
    <!-- Generator: Sketch 50 (54983) - http://www.bohemiancoding.com/sketch -->
    <title>icon/device/thermostat_24px_two_tone</title>
    <desc>Created with Sketch.</desc>
    <defs>
        <path d="M8,11 L8,3 C8,1.34 6.66,0 5,0 C3.34,0 2,1.34 2,3 L2,11 C0.79,11.91 0,13.37 0,15 C0,17.76 2.24,20 5,20 C7.76,20 10,17.76 10,15 C10,13.37 9.21,11.91 8,11 Z M4,3 C4,2.45 4.45,2 5,2 C5.55,2 6,2.45 6,3 L5,3 L5,4 L6,4 L6,6 L5,6 L5,7 L6,7 L6,9 L4,9 L4,3 Z" id="path-1"></path>
    </defs>
    <g id="icon/device/thermostat_24px" stroke="none" stroke-width="1" fill="none" fill-rule="evenodd">
        <g id="↳-Dark-Color" transform="translate(7.000000, 2.000000)">
            <mask id="mask-2" fill="white">
                <use xlink:href="#path-1"></use>
            </mask>
            <g id="Mask" fill-rule="nonzero"></g>
            <g id="✱-/-Color-/-Icons-/-Black-/-Inactive" mask="url(#mask-2)" fill="#000000" fill-opacity="0.54">
                <rect id="Rectangle" x="0" y="0" width="101" height="101"></rect>
            </g>
        </g>
    </g>
</svg>