<?xml version="1.0" encoding="UTF-8"?>
<svg width="24px" height="24px" viewBox="0 0 24 24" version="1.1" xmlns="http://www.w3.org/2000/svg" xmlns:xlink="http://www.w3.org/1999/xlink">
    <!-- Generator: Sketch 50 (54983) - http://www.bohemiancoding.com/sketch -->
    <title>icon/device/usb_24px_two_tone</title>
    <desc>Created with Sketch.</desc>
    <defs>
        <path d="M11,6 L11,10 L12,10 L12,12 L9,12 L9,4 L11,4 L8,0 L5,4 L7,4 L7,12 L4,12 L4,9.93 C4.7,9.56 5.2,8.85 5.2,8 C5.2,6.79 4.21,5.8 3,5.8 C1.79,5.8 0.8,6.79 0.8,8 C0.8,8.85 1.3,9.56 2,9.93 L2,12 C2,13.11 2.89,14 4,14 L7,14 L7,17.05 C6.29,17.42 5.8,18.15 5.8,19 C5.8,20.22 6.79,21.2 8,21.2 C9.21,21.2 10.2,20.22 10.2,19 C10.2,18.15 9.71,17.42 9,17.05 L9,14 L12,14 C13.11,14 14,13.11 14,12 L14,10 L15,10 L15,6 L11,6 Z" id="path-1"></path>
    </defs>
    <g id="icon/device/usb_24px" stroke="none" stroke-width="1" fill="none" fill-rule="evenodd">
        <g id="↳-Dark-Color" transform="translate(4.000000, 1.000000)">
            <mask id="mask-2" fill="white">
                <use xlink:href="#path-1"></use>
            </mask>
            <g id="Mask" fill-rule="nonzero"></g>
            <g id="✱-/-Color-/-Icons-/-Black-/-Inactive" mask="url(#mask-2)" fill="#000000" fill-opacity="0.54">
                <rect id="Rectangle" x="0" y="0" width="101" height="101"></rect>
            </g>
        </g>
    </g>
</svg>