<?xml version="1.0" encoding="UTF-8"?>
<svg width="24px" height="24px" viewBox="0 0 24 24" version="1.1" xmlns="http://www.w3.org/2000/svg" xmlns:xlink="http://www.w3.org/1999/xlink">
    <!-- Generator: Sketch 50 (54983) - http://www.bohemiancoding.com/sketch -->
    <title>icon/device/wallpaper_24px_two_tone</title>
    <desc>Created with Sketch.</desc>
    <defs>
        <path d="M2,2 L9,2 L9,0 L2,0 C0.9,0 0,0.9 0,2 L0,9 L2,9 L2,2 Z M8,11 L4,16 L16,16 L13,12 L10.97,14.71 L8,11 Z M15,6.5 C15,5.67 14.33,5 13.5,5 C12.67,5 12,5.67 12,6.5 C12,7.33 12.67,8 13.5,8 C14.33,8 15,7.33 15,6.5 Z M18,0 L11,0 L11,2 L18,2 L18,9 L20,9 L20,2 C20,0.9 19.1,0 18,0 Z M18,18 L11,18 L11,20 L18,20 C19.1,20 20,19.1 20,18 L20,11 L18,11 L18,18 Z M2,11 L0,11 L0,18 C0,19.1 0.9,20 2,20 L9,20 L9,18 L2,18 L2,11 Z" id="path-1"></path>
    </defs>
    <g id="icon/device/wallpaper_24px" stroke="none" stroke-width="1" fill="none" fill-rule="evenodd">
        <g id="↳-Dark-Color" transform="translate(2.000000, 2.000000)">
            <mask id="mask-2" fill="white">
                <use xlink:href="#path-1"></use>
            </mask>
            <g id="Mask" fill-rule="nonzero"></g>
            <g id="✱-/-Color-/-Icons-/-Black-/-Inactive" mask="url(#mask-2)" fill="#000000" fill-opacity="0.54">
                <rect id="Rectangle" x="0" y="0" width="101" height="101"></rect>
            </g>
        </g>
    </g>
</svg>