<?xml version="1.0" encoding="UTF-8"?>
<svg width="24px" height="24px" viewBox="0 0 24 24" version="1.1" xmlns="http://www.w3.org/2000/svg" xmlns:xlink="http://www.w3.org/1999/xlink">
    <!-- Generator: Sketch 50 (54983) - http://www.bohemiancoding.com/sketch -->
    <title>icon/device/wifi_lock_24px_two_tone</title>
    <desc>Created with Sketch.</desc>
    <defs>
        <path d="M21.31,7.58 L24,4 C20.66,1.49 16.5,0 12,0 C7.5,0 3.34,1.49 0,4 L12,20 L15.5,15.33 L15.5,12.5 C15.5,9.74 17.74,7.5 20.5,7.5 C20.78,7.5 21.05,7.54 21.31,7.58 Z" id="path-1"></path>
        <path d="M6,4 L6,2.5 C6,1.12 4.88,0 3.5,0 C2.12,0 1,1.12 1,2.5 L1,4 C0.45,4 0,4.45 0,5 L0,9 C0,9.55 0.45,10 1,10 L6,10 C6.55,10 7,9.55 7,9 L7,5 C7,4.45 6.55,4 6,4 Z M5,4 L2,4 L2,2.5 C2,1.67 2.67,1 3.5,1 C4.33,1 5,1.67 5,2.5 L5,4 Z" id="path-3"></path>
    </defs>
    <g id="icon/device/wifi_lock_24px" stroke="none" stroke-width="1" fill="none" fill-rule="evenodd">
        <g id="↳-Dark-Color" transform="translate(0.000000, 2.000000)">
            <mask id="mask-2" fill="white">
                <use xlink:href="#path-1"></use>
            </mask>
            <g id="Mask" fill-rule="nonzero"></g>
            <g id="✱-/-Color-/-Icons-/-Black-/-Inactive" mask="url(#mask-2)" fill="#000000" fill-opacity="0.54">
                <rect id="Rectangle" x="0" y="0" width="101" height="101"></rect>
            </g>
        </g>
        <g id="↳-Dark-Color" transform="translate(17.000000, 12.000000)">
            <mask id="mask-4" fill="white">
                <use xlink:href="#path-3"></use>
            </mask>
            <g id="Mask" fill-rule="nonzero"></g>
            <g id="✱-/-Color-/-Icons-/-Black-/-Inactive" mask="url(#mask-4)" fill="#000000" fill-opacity="0.54">
                <rect id="Rectangle" x="0" y="0" width="101" height="101"></rect>
            </g>
        </g>
    </g>
</svg>