<?xml version="1.0" encoding="UTF-8"?>
<svg width="24px" height="24px" viewBox="0 0 24 24" version="1.1" xmlns="http://www.w3.org/2000/svg" xmlns:xlink="http://www.w3.org/1999/xlink">
    <!-- Generator: Sketch 50 (54983) - http://www.bohemiancoding.com/sketch -->
    <title>icon/device/wifi_tethering_24px_two_tone</title>
    <desc>Created with Sketch.</desc>
    <defs>
        <path d="M10,8 C8.9,8 8,8.9 8,10 C8,11.1 8.9,12 10,12 C11.1,12 12,11.1 12,10 C12,8.9 11.1,8 10,8 Z M16,10 C16,6.69 13.31,4 10,4 C6.69,4 4,6.69 4,10 C4,12.22 5.21,14.15 7,15.19 L8,13.45 C6.81,12.75 6,11.48 6,10 C6,7.79 7.79,6 10,6 C12.21,6 14,7.79 14,10 C14,11.48 13.19,12.75 12,13.45 L13,15.19 C14.79,14.15 16,12.22 16,10 Z M10,0 C4.48,0 0,4.48 0,10 C0,13.7 2.01,16.92 4.99,18.65 L5.99,16.92 C3.61,15.53 2,12.96 2,10 C2,5.58 5.58,2 10,2 C14.42,2 18,5.58 18,10 C18,12.96 16.39,15.53 14,16.92 L15,18.65 C17.99,16.92 20,13.7 20,10 C20,4.48 15.52,0 10,0 Z" id="path-1"></path>
    </defs>
    <g id="icon/device/wifi_tethering_24px" stroke="none" stroke-width="1" fill="none" fill-rule="evenodd">
        <g id="↳-Dark-Color" transform="translate(2.000000, 3.000000)">
            <mask id="mask-2" fill="white">
                <use xlink:href="#path-1"></use>
            </mask>
            <g id="Mask" fill-rule="nonzero"></g>
            <g id="✱-/-Color-/-Icons-/-Black-/-Inactive" mask="url(#mask-2)" fill="#000000" fill-opacity="0.54">
                <rect id="Rectangle" x="0" y="0" width="101" height="101"></rect>
            </g>
        </g>
    </g>
</svg>