<?xml version="1.0" encoding="UTF-8"?>
<svg width="24px" height="24px" viewBox="0 0 24 24" version="1.1" xmlns="http://www.w3.org/2000/svg" xmlns:xlink="http://www.w3.org/1999/xlink">
    <!-- Generator: Sketch 50 (54983) - http://www.bohemiancoding.com/sketch -->
    <title>icon/image/add_a_photo_24px_two_tone</title>
    <desc>Created with Sketch.</desc>
    <defs>
        <path d="M1,1 L1,4 L0,4 L0,14 L16,14 L16,2 L11.95,2 L10.12,0 L4,0 L4,1 L1,1 Z M8,3 C10.76,3 13,5.24 13,8 C13,10.76 10.76,13 8,13 C5.24,13 3,10.76 3,8 C3,5.24 5.24,3 8,3 Z" id="path-1"></path>
        <path d="M18,2 L14.83,2 L13,0 L6,0 L6,2 L12.12,2 L13.95,4 L18,4 L18,16 L2,16 L2,6 L0,6 L0,16 C0,17.1 0.9,18 2,18 L18,18 C19.1,18 20,17.1 20,16 L20,4 C20,2.9 19.1,2 18,2 Z" id="path-3"></path>
        <path d="M0,5 C0,7.76 2.24,10 5,10 C7.76,10 10,7.76 10,5 C10,2.24 7.76,0 5,0 C2.24,0 0,2.24 0,5 Z M5,2 C6.65,2 8,3.35 8,5 C8,6.65 6.65,8 5,8 C3.35,8 2,6.65 2,5 C2,3.35 3.35,2 5,2 Z" id="path-5"></path>
        <polygon id="path-7" points="5 8 5 5 8 5 8 3 5 3 5 0 3 0 3 3 0 3 0 5 3 5 3 8"></polygon>
    </defs>
    <g id="icon/image/add_a_photo_24px" stroke="none" stroke-width="1" fill="none" fill-rule="evenodd">
        <g id="↳-Light-Color" transform="translate(5.000000, 6.000000)">
            <mask id="mask-2" fill="white">
                <use xlink:href="#path-1"></use>
            </mask>
            <g id="Mask" opacity="0.3" fill-rule="nonzero"></g>
            <g id="✱-/-Color-/-Icons-/-Black-/-Disabled" mask="url(#mask-2)" fill="#000000" fill-opacity="0.38">
                <rect id="Rectangle" x="0" y="0" width="101" height="101"></rect>
            </g>
        </g>
        <g id="↳-Dark-Color" transform="translate(3.000000, 4.000000)">
            <mask id="mask-4" fill="white">
                <use xlink:href="#path-3"></use>
            </mask>
            <g id="Mask" fill-rule="nonzero"></g>
            <g id="✱-/-Color-/-Icons-/-Black-/-Inactive" mask="url(#mask-4)" fill="#000000" fill-opacity="0.54">
                <rect id="Rectangle" x="0" y="0" width="101" height="101"></rect>
            </g>
        </g>
        <g id="↳-Dark-Color" transform="translate(8.000000, 9.000000)">
            <mask id="mask-6" fill="white">
                <use xlink:href="#path-5"></use>
            </mask>
            <g id="Mask" fill-rule="nonzero"></g>
            <g id="✱-/-Color-/-Icons-/-Black-/-Inactive" mask="url(#mask-6)" fill="#000000" fill-opacity="0.54">
                <rect id="Rectangle" x="0" y="0" width="101" height="101"></rect>
            </g>
        </g>
        <g id="↳-Dark-Color" transform="translate(0.000000, 1.000000)">
            <mask id="mask-8" fill="white">
                <use xlink:href="#path-7"></use>
            </mask>
            <g id="Mask" fill-rule="nonzero"></g>
            <g id="✱-/-Color-/-Icons-/-Black-/-Inactive" mask="url(#mask-8)" fill="#000000" fill-opacity="0.54">
                <rect id="Rectangle" x="0" y="0" width="101" height="101"></rect>
            </g>
        </g>
    </g>
</svg>