<?xml version="1.0" encoding="UTF-8"?>
<svg width="24px" height="24px" viewBox="0 0 24 24" version="1.1" xmlns="http://www.w3.org/2000/svg" xmlns:xlink="http://www.w3.org/1999/xlink">
    <!-- Generator: Sketch 50 (54983) - http://www.bohemiancoding.com/sketch -->
    <title>icon/image/assistant_24px_two_tone</title>
    <desc>Created with Sketch.</desc>
    <defs>
        <path d="M4.83,14 L5.42,14.59 L7,16.17 L8.59,14.58 L9.17,14 L10,14 L14,14 L14,0 L0,0 L0,14 L4,14 L4.83,14 Z M5.12,5.12 L7,1 L8.88,5.12 L13,7 L8.88,8.88 L7,13 L5.12,8.88 L1,7 L5.12,5.12 Z" id="path-1"></path>
        <path d="M2,18 L6,18 L9,21 L12,18 L16,18 C17.1,18 18,17.1 18,16 L18,2 C18,0.9 17.1,0 16,0 L2,0 C0.9,0 0,0.9 0,2 L0,16 C0,17.1 0.9,18 2,18 Z M2,2 L16,2 L16,16 L12,16 L11.17,16 L10.58,16.59 L9,18.17 L7.41,16.58 L6.83,16 L6,16 L2,16 L2,2 Z" id="path-3"></path>
        <polygon id="path-5" points="6 12 7.88 7.88 12 6 7.88 4.12 6 0 4.12 4.12 0 6 4.12 7.88"></polygon>
    </defs>
    <g id="icon/image/assistant_24px" stroke="none" stroke-width="1" fill="none" fill-rule="evenodd">
        <g id="↳-Light-Color" transform="translate(5.000000, 4.000000)">
            <mask id="mask-2" fill="white">
                <use xlink:href="#path-1"></use>
            </mask>
            <g id="Mask" opacity="0.3" fill-rule="nonzero"></g>
            <g id="✱-/-Color-/-Icons-/-Black-/-Disabled" mask="url(#mask-2)" fill="#000000" fill-opacity="0.38">
                <rect id="Rectangle" x="0" y="0" width="101" height="101"></rect>
            </g>
        </g>
        <g id="↳-Dark-Color" transform="translate(3.000000, 2.000000)">
            <mask id="mask-4" fill="white">
                <use xlink:href="#path-3"></use>
            </mask>
            <g id="Mask" fill-rule="nonzero"></g>
            <g id="✱-/-Color-/-Icons-/-Black-/-Inactive" mask="url(#mask-4)" fill="#000000" fill-opacity="0.54">
                <rect id="Rectangle" x="0" y="0" width="101" height="101"></rect>
            </g>
        </g>
        <g id="↳-Dark-Color" transform="translate(6.000000, 5.000000)">
            <mask id="mask-6" fill="white">
                <use xlink:href="#path-5"></use>
            </mask>
            <g id="Mask" fill-rule="nonzero"></g>
            <g id="✱-/-Color-/-Icons-/-Black-/-Inactive" mask="url(#mask-6)" fill="#000000" fill-opacity="0.54">
                <rect id="Rectangle" x="0" y="0" width="101" height="101"></rect>
            </g>
        </g>
    </g>
</svg>