<?xml version="1.0" encoding="UTF-8"?>
<svg width="24px" height="24px" viewBox="0 0 24 24" version="1.1" xmlns="http://www.w3.org/2000/svg" xmlns:xlink="http://www.w3.org/1999/xlink">
    <!-- Generator: Sketch 50 (54983) - http://www.bohemiancoding.com/sketch -->
    <title>icon/image/brightness_4_24px_two_tone</title>
    <desc>Created with Sketch.</desc>
    <defs>
        <path d="M15,6.52 L15,3 L11.48,3 L9,0.52 L6.52,3 L3,3 L3,6.52 L0.52,9 L3,11.48 L3,15 L6.52,15 L9,17.48 L11.48,15 L15,15 L15,11.48 L17.48,9 L15,6.52 Z M9.29,14 C8.55,14 7.84,13.83 7.21,13.54 C8.93,12.75 10.13,11.02 10.13,9 C10.13,6.98 8.93,5.25 7.21,4.46 C7.84,4.17 8.55,4 9.29,4 C12.05,4 14.29,6.24 14.29,9 C14.29,11.76 12.05,14 9.29,14 Z" id="path-1"></path>
        <path d="M20,8.69 L20,4 L15.31,4 L12,0.69 L8.69,4 L4,4 L4,8.69 L0.69,12 L4,15.31 L4,20 L8.69,20 L12,23.31 L15.31,20 L20,20 L20,15.31 L23.31,12 L20,8.69 Z M18,14.48 L18,18 L14.48,18 L12,20.48 L9.52,18 L6,18 L6,14.48 L3.52,12 L6,9.52 L6,6 L9.52,6 L12,3.52 L14.48,6 L18,6 L18,9.52 L20.48,12 L18,14.48 Z" id="path-3"></path>
        <path d="M2.29,0 C1.55,0 0.84,0.17 0.21,0.46 C1.93,1.25 3.13,2.99 3.13,5 C3.13,7.01 1.93,8.75 0.21,9.54 C0.84,9.83 1.55,10 2.29,10 C5.05,10 7.29,7.76 7.29,5 C7.29,2.24 5.05,0 2.29,0 Z" id="path-5"></path>
    </defs>
    <g id="icon/image/brightness_4_24px" stroke="none" stroke-width="1" fill="none" fill-rule="evenodd">
        <g id="↳-Light-Color" transform="translate(3.000000, 3.000000)">
            <mask id="mask-2" fill="white">
                <use xlink:href="#path-1"></use>
            </mask>
            <g id="Mask" opacity="0.3" fill-rule="nonzero"></g>
            <g id="✱-/-Color-/-Icons-/-Black-/-Disabled" mask="url(#mask-2)" fill="#000000" fill-opacity="0.38">
                <rect id="Rectangle" x="0" y="0" width="101" height="101"></rect>
            </g>
        </g>
        <g id="↳-Dark-Color">
            <mask id="mask-4" fill="white">
                <use xlink:href="#path-3"></use>
            </mask>
            <g id="Mask" fill-rule="nonzero"></g>
            <g id="✱-/-Color-/-Icons-/-Black-/-Inactive" mask="url(#mask-4)" fill="#000000" fill-opacity="0.54">
                <rect id="Rectangle" x="0" y="0" width="101" height="101"></rect>
            </g>
        </g>
        <g id="↳-Dark-Color" transform="translate(10.000000, 7.000000)">
            <mask id="mask-6" fill="white">
                <use xlink:href="#path-5"></use>
            </mask>
            <g id="Mask" fill-rule="nonzero"></g>
            <g id="✱-/-Color-/-Icons-/-Black-/-Inactive" mask="url(#mask-6)" fill="#000000" fill-opacity="0.54">
                <rect id="Rectangle" x="0" y="0" width="101" height="101"></rect>
            </g>
        </g>
    </g>
</svg>