<?xml version="1.0" encoding="UTF-8"?>
<svg width="24px" height="24px" viewBox="0 0 24 24" version="1.1" xmlns="http://www.w3.org/2000/svg" xmlns:xlink="http://www.w3.org/1999/xlink">
    <!-- Generator: Sketch 50 (54983) - http://www.bohemiancoding.com/sketch -->
    <title>icon/image/brightness_7_24px_two_tone</title>
    <desc>Created with Sketch.</desc>
    <defs>
        <path d="M15,6.52 L15,3 L11.48,3 L9,0.52 L6.52,3 L3,3 L3,6.52 L0.52,9 L3,11.48 L3,15 L6.52,15 L9,17.48 L11.48,15 L15,15 L15,11.48 L17.48,9 L15,6.52 Z M9,14.5 C5.97,14.5 3.5,12.03 3.5,9 C3.5,5.97 5.97,3.5 9,3.5 C12.03,3.5 14.5,5.97 14.5,9 C14.5,12.03 12.03,14.5 9,14.5 Z" id="path-1"></path>
        <path d="M20,8.69 L20,4 L15.31,4 L12,0.69 L8.69,4 L4,4 L4,8.69 L0.69,12 L4,15.31 L4,20 L8.69,20 L12,23.31 L15.31,20 L20,20 L20,15.31 L23.31,12 L20,8.69 Z M18,14.48 L18,18 L14.48,18 L12,20.48 L9.52,18 L6,18 L6,14.48 L3.52,12 L6,9.52 L6,6 L9.52,6 L12,3.52 L14.48,6 L18,6 L18,9.52 L20.48,12 L18,14.48 Z" id="path-3"></path>
        <path d="M6,0.5 C2.97,0.5 0.5,2.97 0.5,6 C0.5,9.03 2.97,11.5 6,11.5 C9.03,11.5 11.5,9.03 11.5,6 C11.5,2.97 9.03,0.5 6,0.5 Z M6,9.5 C4.07,9.5 2.5,7.93 2.5,6 C2.5,4.07 4.07,2.5 6,2.5 C7.93,2.5 9.5,4.07 9.5,6 C9.5,7.93 7.93,9.5 6,9.5 Z" id="path-5"></path>
        <circle id="path-7" cx="2" cy="2" r="2"></circle>
    </defs>
    <g id="icon/image/brightness_7_24px" stroke="none" stroke-width="1" fill="none" fill-rule="evenodd">
        <g id="↳-Light-Color" transform="translate(3.000000, 3.000000)">
            <mask id="mask-2" fill="white">
                <use xlink:href="#path-1"></use>
            </mask>
            <g id="Mask" opacity="0.3" fill-rule="nonzero"></g>
            <g id="✱-/-Color-/-Icons-/-Black-/-Disabled" mask="url(#mask-2)" fill="#000000" fill-opacity="0.38">
                <rect id="Rectangle" x="0" y="0" width="101" height="101"></rect>
            </g>
        </g>
        <g id="↳-Dark-Color">
            <mask id="mask-4" fill="white">
                <use xlink:href="#path-3"></use>
            </mask>
            <g id="Mask" fill-rule="nonzero"></g>
            <g id="✱-/-Color-/-Icons-/-Black-/-Inactive" mask="url(#mask-4)" fill="#000000" fill-opacity="0.54">
                <rect id="Rectangle" x="0" y="0" width="101" height="101"></rect>
            </g>
        </g>
        <g id="↳-Dark-Color" transform="translate(6.000000, 6.000000)">
            <mask id="mask-6" fill="white">
                <use xlink:href="#path-5"></use>
            </mask>
            <g id="Mask" fill-rule="nonzero"></g>
            <g id="✱-/-Color-/-Icons-/-Black-/-Inactive" mask="url(#mask-6)" fill="#000000" fill-opacity="0.54">
                <rect id="Rectangle" x="0" y="0" width="101" height="101"></rect>
            </g>
        </g>
        <g id="↳-Dark-Color" transform="translate(10.000000, 10.000000)">
            <mask id="mask-8" fill="white">
                <use xlink:href="#path-7"></use>
            </mask>
            <g id="Mask" fill-rule="nonzero"></g>
            <g id="✱-/-Color-/-Icons-/-Black-/-Inactive" mask="url(#mask-8)" fill="#000000" fill-opacity="0.54">
                <rect id="Rectangle" x="0" y="0" width="101" height="101"></rect>
            </g>
        </g>
    </g>
</svg>