<?xml version="1.0" encoding="UTF-8"?>
<svg width="24px" height="24px" viewBox="0 0 24 24" version="1.1" xmlns="http://www.w3.org/2000/svg" xmlns:xlink="http://www.w3.org/1999/xlink">
    <!-- Generator: Sketch 50 (54983) - http://www.bohemiancoding.com/sketch -->
    <title>icon/image/brightness_3_24px_two_tone</title>
    <desc>Created with Sketch.</desc>
    <defs>
        <path d="M0.7,0.91 C2.16,2.91 3,5.37 3,8 C3,10.63 2.16,13.09 0.7,15.09 C3.25,13.76 5,11.08 5,8 C5,4.92 3.25,2.24 0.7,0.91 Z" id="path-1"></path>
        <path d="M3,0 C1.95,0 0.95,0.16 0,0.46 C4.06,1.73 7,5.52 7,10 C7,14.48 4.06,18.27 0,19.54 C0.95,19.84 1.95,20 3,20 C8.52,20 13,15.52 13,10 C13,4.48 8.52,0 3,0 Z M6.7,17.09 C8.16,15.09 9,12.63 9,10 C9,7.37 8.16,4.91 6.7,2.91 C9.25,4.24 11,6.92 11,10 C11,13.08 9.25,15.76 6.7,17.09 Z" id="path-3"></path>
    </defs>
    <g id="icon/image/brightness_3_24px" stroke="none" stroke-width="1" fill="none" fill-rule="evenodd">
        <g id="↳-Light-Color" transform="translate(12.000000, 4.000000)">
            <mask id="mask-2" fill="white">
                <use xlink:href="#path-1"></use>
            </mask>
            <g id="Mask" opacity="0.3" fill-rule="nonzero"></g>
            <g id="✱-/-Color-/-Icons-/-Black-/-Disabled" mask="url(#mask-2)" fill="#000000" fill-opacity="0.38">
                <rect id="Rectangle" x="0" y="0" width="101" height="101"></rect>
            </g>
        </g>
        <g id="↳-Dark-Color" transform="translate(6.000000, 2.000000)">
            <mask id="mask-4" fill="white">
                <use xlink:href="#path-3"></use>
            </mask>
            <g id="Mask" fill-rule="nonzero"></g>
            <g id="✱-/-Color-/-Icons-/-Black-/-Inactive" mask="url(#mask-4)" fill="#000000" fill-opacity="0.54">
                <rect id="Rectangle" x="0" y="0" width="101" height="101"></rect>
            </g>
        </g>
    </g>
</svg>