<?xml version="1.0" encoding="UTF-8"?>
<svg width="24px" height="24px" viewBox="0 0 24 24" version="1.1" xmlns="http://www.w3.org/2000/svg" xmlns:xlink="http://www.w3.org/1999/xlink">
    <!-- Generator: Sketch 50 (54983) - http://www.bohemiancoding.com/sketch -->
    <title>icon/image/brush_24px_two_tone</title>
    <desc>Created with Sketch.</desc>
    <defs>
        <path d="M3,1 C3,0.45 2.55,0 2,0 C1.45,0 1,0.45 1,1 C1,1.74 0.81,2.4 0.5,2.95 C0.67,2.98 0.83,3 1,3 C2.1,3 3,2.1 3,1 Z" id="path-1"></path>
        <path d="M2.75,12 L11.71,3.04 C12.1,2.65 12.1,2.02 11.71,1.63 L10.37,0.29 C10.17,0.09 9.92,0 9.67,0 C9.42,0 9.16,0.1 8.96,0.29 L0,9.25 L2.75,12 Z" id="path-3"></path>
        <path d="M4,7 C6.21,7 8,5.21 8,3 C8,1.34 6.66,0 5,0 C3.34,0 2,1.34 2,3 C2,4.31 0.84,5 0,5 C0.92,6.22 2.49,7 4,7 Z M4,3 C4,2.45 4.45,2 5,2 C5.55,2 6,2.45 6,3 C6,4.1 5.1,5 4,5 C3.83,5 3.67,4.98 3.5,4.95 C3.81,4.4 4,3.74 4,3 Z" id="path-5"></path>
    </defs>
    <g id="icon/image/brush_24px" stroke="none" stroke-width="1" fill="none" fill-rule="evenodd">
        <g id="↳-Light-Color" transform="translate(5.000000, 16.000000)">
            <mask id="mask-2" fill="white">
                <use xlink:href="#path-1"></use>
            </mask>
            <g id="Mask" opacity="0.3" fill-rule="nonzero"></g>
            <g id="✱-/-Color-/-Icons-/-Black-/-Disabled" mask="url(#mask-2)" fill="#000000" fill-opacity="0.38">
                <rect id="Rectangle" x="0" y="0" width="101" height="101"></rect>
            </g>
        </g>
        <g id="↳-Dark-Color" transform="translate(9.000000, 3.000000)">
            <mask id="mask-4" fill="white">
                <use xlink:href="#path-3"></use>
            </mask>
            <g id="Mask" fill-rule="nonzero"></g>
            <g id="✱-/-Color-/-Icons-/-Black-/-Inactive" mask="url(#mask-4)" fill="#000000" fill-opacity="0.54">
                <rect id="Rectangle" x="0" y="0" width="101" height="101"></rect>
            </g>
        </g>
        <g id="↳-Dark-Color" transform="translate(2.000000, 14.000000)">
            <mask id="mask-6" fill="white">
                <use xlink:href="#path-5"></use>
            </mask>
            <g id="Mask" fill-rule="nonzero"></g>
            <g id="✱-/-Color-/-Icons-/-Black-/-Inactive" mask="url(#mask-6)" fill="#000000" fill-opacity="0.54">
                <rect id="Rectangle" x="0" y="0" width="101" height="101"></rect>
            </g>
        </g>
    </g>
</svg>