<?xml version="1.0" encoding="UTF-8"?>
<svg width="24px" height="24px" viewBox="0 0 24 24" version="1.1" xmlns="http://www.w3.org/2000/svg" xmlns:xlink="http://www.w3.org/1999/xlink">
    <!-- Generator: Sketch 50 (54983) - http://www.bohemiancoding.com/sketch -->
    <title>icon/image/camera_24px_two_tone</title>
    <desc>Created with Sketch.</desc>
    <defs>
        <path d="M0.9,6.91 C1.26,6.96 1.62,7 2,7 C4.18,7 6.16,6.12 7.61,4.7 L4.89,0 L0.9,6.91 Z" id="path-1"></path>
        <path d="M5.86,4.7 L8.57,0 L6.27,0 L0.59,0 C1.52,2.28 3.46,4.03 5.86,4.7 Z" id="path-3"></path>
        <path d="M4.54,5 L1.7,0.09 C0.64,1.45 0,3.15 0,5 C0,5.69 0.1,6.36 0.26,7 L5.69,7 L4.54,5 Z" id="path-5"></path>
        <path d="M4.3,6.91 C5.36,5.55 6,3.85 6,2 C6,1.31 5.9,0.64 5.74,0 L0.31,0 L4.3,6.91 Z" id="path-7"></path>
        <path d="M2.73,5 L8.41,5 C7.48,2.72 5.53,0.96 3.13,0.3 L0.42,5 L2.73,5 Z" id="path-9"></path>
        <path d="M4.27,5 L7.1,0.08 C6.74,0.03 6.37,0 6,0 C3.82,0 1.84,0.88 0.4,2.3 L3.12,7 L4.27,5 Z" id="path-11"></path>
        <path d="M10,20 C15.52,20 20,15.52 20,10 C20,5.25 16.69,1.28 12.25,0.26 L12.17,0.22 L12.16,0.24 C11.46,0.09 10.74,0 10,0 C4.48,0 0,4.48 0,10 C0,15.52 4.48,20 10,20 Z M10,18 C9.62,18 9.26,17.96 8.9,17.91 L12.89,11 L15.61,15.7 C14.16,17.12 12.18,18 10,18 Z M18,10 C18,11.85 17.36,13.55 16.3,14.91 L12.3,8 L17.73,8 C17.9,8.64 18,9.31 18,10 Z M17.41,7 L11.73,7 L9.42,7 L12.13,2.3 C14.53,2.96 16.48,4.72 17.41,7 Z M10,2 C10.37,2 10.74,2.03 11.1,2.08 L8.27,7 L7.12,9 L4.4,4.3 C5.84,2.88 7.82,2 10,2 Z M2,10 C2,8.15 2.64,6.45 3.7,5.09 L6.54,10 L7.69,12 L2.26,12 C2.1,11.36 2,10.69 2,10 Z M8.27,13 L10.57,13 L7.86,17.7 C5.46,17.03 3.51,15.28 2.58,13 L8.27,13 Z" id="path-13"></path>
    </defs>
    <g id="icon/image/camera_24px" stroke="none" stroke-width="1" fill="none" fill-rule="evenodd">
        <g id="↳-Light-Color" transform="translate(10.000000, 13.000000)">
            <mask id="mask-2" fill="white">
                <use xlink:href="#path-1"></use>
            </mask>
            <g id="Mask" opacity="0.3" fill-rule="nonzero"></g>
            <g id="✱-/-Color-/-Icons-/-Black-/-Disabled" mask="url(#mask-2)" fill="#000000" fill-opacity="0.38">
                <rect id="Rectangle" x="0" y="0" width="101" height="101"></rect>
            </g>
        </g>
        <g id="↳-Light-Color" transform="translate(4.000000, 15.000000)">
            <mask id="mask-4" fill="white">
                <use xlink:href="#path-3"></use>
            </mask>
            <g id="Mask" opacity="0.3" fill-rule="nonzero"></g>
            <g id="✱-/-Color-/-Icons-/-Black-/-Disabled" mask="url(#mask-4)" fill="#000000" fill-opacity="0.38">
                <rect id="Rectangle" x="0" y="0" width="101" height="101"></rect>
            </g>
        </g>
        <g id="↳-Light-Color" transform="translate(4.000000, 7.000000)">
            <mask id="mask-6" fill="white">
                <use xlink:href="#path-5"></use>
            </mask>
            <g id="Mask" opacity="0.3" fill-rule="nonzero"></g>
            <g id="✱-/-Color-/-Icons-/-Black-/-Disabled" mask="url(#mask-6)" fill="#000000" fill-opacity="0.38">
                <rect id="Rectangle" x="0" y="0" width="101" height="101"></rect>
            </g>
        </g>
        <g id="↳-Light-Color" transform="translate(14.000000, 10.000000)">
            <mask id="mask-8" fill="white">
                <use xlink:href="#path-7"></use>
            </mask>
            <g id="Mask" opacity="0.3" fill-rule="nonzero"></g>
            <g id="✱-/-Color-/-Icons-/-Black-/-Disabled" mask="url(#mask-8)" fill="#000000" fill-opacity="0.38">
                <rect id="Rectangle" x="0" y="0" width="101" height="101"></rect>
            </g>
        </g>
        <g id="↳-Light-Color" transform="translate(11.000000, 4.000000)">
            <mask id="mask-10" fill="white">
                <use xlink:href="#path-9"></use>
            </mask>
            <g id="Mask" opacity="0.3" fill-rule="nonzero"></g>
            <g id="✱-/-Color-/-Icons-/-Black-/-Disabled" mask="url(#mask-10)" fill="#000000" fill-opacity="0.38">
                <rect id="Rectangle" x="0" y="0" width="101" height="101"></rect>
            </g>
        </g>
        <g id="↳-Light-Color" transform="translate(6.000000, 4.000000)">
            <mask id="mask-12" fill="white">
                <use xlink:href="#path-11"></use>
            </mask>
            <g id="Mask" opacity="0.3" fill-rule="nonzero"></g>
            <g id="✱-/-Color-/-Icons-/-Black-/-Disabled" mask="url(#mask-12)" fill="#000000" fill-opacity="0.38">
                <rect id="Rectangle" x="0" y="0" width="101" height="101"></rect>
            </g>
        </g>
        <g id="↳-Dark-Color" transform="translate(2.000000, 2.000000)">
            <mask id="mask-14" fill="white">
                <use xlink:href="#path-13"></use>
            </mask>
            <g id="Mask" fill-rule="nonzero"></g>
            <g id="✱-/-Color-/-Icons-/-Black-/-Inactive" mask="url(#mask-14)" fill="#000000" fill-opacity="0.54">
                <rect id="Rectangle" x="0" y="0" width="101" height="101"></rect>
            </g>
        </g>
    </g>
</svg>