<?xml version="1.0" encoding="UTF-8"?>
<svg width="24px" height="24px" viewBox="0 0 24 24" version="1.1" xmlns="http://www.w3.org/2000/svg" xmlns:xlink="http://www.w3.org/1999/xlink">
    <!-- Generator: Sketch 50 (54983) - http://www.bohemiancoding.com/sketch -->
    <title>icon/image/colorize_24px_two_tone</title>
    <desc>Created with Sketch.</desc>
    <defs>
        <rect id="path-1" x="2.13356573" y="0.311682769" width="1.29998753" height="3.80996346"></rect>
        <path d="M17.71,2.63 L15.37,0.29 C15.17,0.09 14.92,0 14.66,0 C14.4,0 14.15,0.1 13.96,0.29 L10.84,3.41 L8.91,1.5 L7.5,2.91 L8.92,4.33 L0,13.25 L0,18 L4.75,18 L13.67,9.08 L15.09,10.5 L16.5,9.09 L14.58,7.17 L17.7,4.05 C18.1,3.65 18.1,3.02 17.71,2.63 Z M3.92,16 L2,14.08 L10.06,6.02 L11.98,7.94 L3.92,16 Z M12.9,6.03 L11.97,5.1 L14.66,2.41 L15.58,3.33 L12.9,6.03 Z" id="path-3"></path>
    </defs>
    <g id="icon/image/colorize_24px" stroke="none" stroke-width="1" fill="none" fill-rule="evenodd">
        <g id="↳-Light-Color" transform="translate(14.000000, 5.000000)">
            <mask id="mask-2" fill="white">
                <use xlink:href="#path-1"></use>
            </mask>
            <g id="Mask" opacity="0.3" fill-rule="nonzero" transform="translate(2.783559, 2.216664) rotate(-135.000000) translate(-2.783559, -2.216664) "></g>
            <g id="✱-/-Color-/-Icons-/-Black-/-Disabled" mask="url(#mask-2)" fill="#000000" fill-opacity="0.38">
                <rect id="Rectangle" x="0" y="0" width="101" height="101"></rect>
            </g>
        </g>
        <g id="↳-Dark-Color" transform="translate(3.000000, 3.000000)">
            <mask id="mask-4" fill="white">
                <use xlink:href="#path-3"></use>
            </mask>
            <g id="Mask" fill-rule="nonzero"></g>
            <g id="✱-/-Color-/-Icons-/-Black-/-Inactive" mask="url(#mask-4)" fill="#000000" fill-opacity="0.54">
                <rect id="Rectangle" x="0" y="0" width="101" height="101"></rect>
            </g>
        </g>
    </g>
</svg>