<?xml version="1.0" encoding="UTF-8"?>
<svg width="24px" height="24px" viewBox="0 0 24 24" version="1.1" xmlns="http://www.w3.org/2000/svg" xmlns:xlink="http://www.w3.org/1999/xlink">
    <!-- Generator: Sketch 50 (54983) - http://www.bohemiancoding.com/sketch -->
    <title>icon/image/color_lens_24px_two_tone</title>
    <desc>Created with Sketch.</desc>
    <defs>
        <path d="M8,0 C3.59,0 0,3.59 0,8 C0,12.41 3.59,16 8,16 C8.28,16 8.5,15.78 8.5,15.5 C8.5,15.34 8.42,15.22 8.36,15.15 C7.95,14.69 7.73,14.1 7.73,13.5 C7.73,12.12 8.85,11 10.23,11 L12,11 C14.21,11 16,9.21 16,7 C16,3.14 12.41,0 8,0 Z M2.5,9 C1.67,9 1,8.33 1,7.5 C1,6.67 1.67,6 2.5,6 C3.33,6 4,6.67 4,7.5 C4,8.33 3.33,9 2.5,9 Z M5.5,5 C4.67,5 4,4.33 4,3.5 C4,2.67 4.67,2 5.5,2 C6.33,2 7,2.67 7,3.5 C7,4.33 6.33,5 5.5,5 Z M10.5,5 C9.67,5 9,4.33 9,3.5 C9,2.67 9.67,2 10.5,2 C11.33,2 12,2.67 12,3.5 C12,4.33 11.33,5 10.5,5 Z M15,7.5 C15,8.33 14.33,9 13.5,9 C12.67,9 12,8.33 12,7.5 C12,6.67 12.67,6 13.5,6 C14.33,6 15,6.67 15,7.5 Z" id="path-1"></path>
        <path d="M10,0 C4.49,0 0,4.49 0,10 C0,15.51 4.49,20 10,20 C11.38,20 12.5,18.88 12.5,17.5 C12.5,16.89 12.27,16.29 11.86,15.83 C11.78,15.74 11.73,15.62 11.73,15.5 C11.73,15.22 11.95,15 12.23,15 L14,15 C17.31,15 20,12.31 20,9 C20,4.04 15.51,0 10,0 Z M14,13 L12.23,13 C10.85,13 9.73,14.12 9.73,15.5 C9.73,16.11 9.95,16.69 10.36,17.15 C10.42,17.22 10.5,17.34 10.5,17.5 C10.5,17.78 10.28,18 10,18 C5.59,18 2,14.41 2,10 C2,5.59 5.59,2 10,2 C14.41,2 18,5.14 18,9 C18,11.21 16.21,13 14,13 Z" id="path-3"></path>
        <circle id="path-5" cx="1.5" cy="1.5" r="1.5"></circle>
        <circle id="path-7" cx="1.5" cy="1.5" r="1.5"></circle>
        <circle id="path-9" cx="1.5" cy="1.5" r="1.5"></circle>
        <circle id="path-11" cx="1.5" cy="1.5" r="1.5"></circle>
    </defs>
    <g id="icon/image/color_lens_24px" stroke="none" stroke-width="1" fill="none" fill-rule="evenodd">
        <g id="↳-Light-Color" transform="translate(4.000000, 4.000000)">
            <mask id="mask-2" fill="white">
                <use xlink:href="#path-1"></use>
            </mask>
            <g id="Mask" opacity="0.3" fill-rule="nonzero"></g>
            <g id="✱-/-Color-/-Icons-/-Black-/-Disabled" mask="url(#mask-2)" fill="#000000" fill-opacity="0.38">
                <rect id="Rectangle" x="0" y="0" width="101" height="101"></rect>
            </g>
        </g>
        <g id="↳-Dark-Color" transform="translate(2.000000, 2.000000)">
            <mask id="mask-4" fill="white">
                <use xlink:href="#path-3"></use>
            </mask>
            <g id="Mask" fill-rule="nonzero"></g>
            <g id="✱-/-Color-/-Icons-/-Black-/-Inactive" mask="url(#mask-4)" fill="#000000" fill-opacity="0.54">
                <rect id="Rectangle" x="0" y="0" width="101" height="101"></rect>
            </g>
        </g>
        <g id="↳-Dark-Color" transform="translate(5.000000, 10.000000)">
            <mask id="mask-6" fill="white">
                <use xlink:href="#path-5"></use>
            </mask>
            <g id="Mask" fill-rule="nonzero"></g>
            <g id="✱-/-Color-/-Icons-/-Black-/-Inactive" mask="url(#mask-6)" fill="#000000" fill-opacity="0.54">
                <rect id="Rectangle" x="0" y="0" width="101" height="101"></rect>
            </g>
        </g>
        <g id="↳-Dark-Color" transform="translate(8.000000, 6.000000)">
            <mask id="mask-8" fill="white">
                <use xlink:href="#path-7"></use>
            </mask>
            <g id="Mask" fill-rule="nonzero"></g>
            <g id="✱-/-Color-/-Icons-/-Black-/-Inactive" mask="url(#mask-8)" fill="#000000" fill-opacity="0.54">
                <rect id="Rectangle" x="0" y="0" width="101" height="101"></rect>
            </g>
        </g>
        <g id="↳-Dark-Color" transform="translate(13.000000, 6.000000)">
            <mask id="mask-10" fill="white">
                <use xlink:href="#path-9"></use>
            </mask>
            <g id="Mask" fill-rule="nonzero"></g>
            <g id="✱-/-Color-/-Icons-/-Black-/-Inactive" mask="url(#mask-10)" fill="#000000" fill-opacity="0.54">
                <rect id="Rectangle" x="0" y="0" width="101" height="101"></rect>
            </g>
        </g>
        <g id="↳-Dark-Color" transform="translate(16.000000, 10.000000)">
            <mask id="mask-12" fill="white">
                <use xlink:href="#path-11"></use>
            </mask>
            <g id="Mask" fill-rule="nonzero"></g>
            <g id="✱-/-Color-/-Icons-/-Black-/-Inactive" mask="url(#mask-12)" fill="#000000" fill-opacity="0.54">
                <rect id="Rectangle" x="0" y="0" width="101" height="101"></rect>
            </g>
        </g>
    </g>
</svg>