<?xml version="1.0" encoding="UTF-8"?>
<svg width="24px" height="24px" viewBox="0 0 24 24" version="1.1" xmlns="http://www.w3.org/2000/svg" xmlns:xlink="http://www.w3.org/1999/xlink">
    <!-- Generator: Sketch 50 (54983) - http://www.bohemiancoding.com/sketch -->
    <title>icon/image/crop_rotate_24px_two_tone</title>
    <desc>Created with Sketch.</desc>
    <defs>
        <path d="M11.95,11 C12.18,11 12.39,10.98 12.61,10.97 L8.8,7.15 L7.47,8.49 C4.2,6.93 1.86,3.76 1.5,0 L0,0 C0.51,6.16 5.66,11 11.95,11 Z" id="path-1"></path>
        <path d="M1.05,0 C0.82,0 0.61,0.02 0.39,0.04 L4.2,3.85 L5.53,2.52 C8.8,4.07 11.14,7.24 11.5,11 L13,11 C12.49,4.84 7.34,0 1.05,0 Z" id="path-3"></path>
        <path d="M6,0 L0,0 L0,2 L6,2 L6,8 L8,8 L8,2 C8,0.89 7.1,0 6,0 Z" id="path-5"></path>
        <path d="M14,14 L16,14 L16,12 L4,12 L4,0 L2,0 L2,2 L0,2 L0,4 L2,4 L2,12 C2,13.1 2.89,14 4,14 L12,14 L12,16 L14,16 L14,14 Z" id="path-7"></path>
    </defs>
    <g id="icon/image/crop_rotate_24px" stroke="none" stroke-width="1" fill="none" fill-rule="evenodd">
        <g id="↳-Dark-Color" transform="translate(0.000000, 13.000000)">
            <mask id="mask-2" fill="white">
                <use xlink:href="#path-1"></use>
            </mask>
            <g id="Mask" fill-rule="nonzero"></g>
            <g id="✱-/-Color-/-Icons-/-Black-/-Inactive" mask="url(#mask-2)" fill="#000000" fill-opacity="0.54">
                <rect id="Rectangle" x="0" y="0" width="101" height="101"></rect>
            </g>
        </g>
        <g id="↳-Dark-Color" transform="translate(11.000000, 0.000000)">
            <mask id="mask-4" fill="white">
                <use xlink:href="#path-3"></use>
            </mask>
            <g id="Mask" fill-rule="nonzero"></g>
            <g id="✱-/-Color-/-Icons-/-Black-/-Inactive" mask="url(#mask-4)" fill="#000000" fill-opacity="0.54">
                <rect id="Rectangle" x="0" y="0" width="101" height="101"></rect>
            </g>
        </g>
        <g id="↳-Dark-Color" transform="translate(10.000000, 6.000000)">
            <mask id="mask-6" fill="white">
                <use xlink:href="#path-5"></use>
            </mask>
            <g id="Mask" fill-rule="nonzero"></g>
            <g id="✱-/-Color-/-Icons-/-Black-/-Inactive" mask="url(#mask-6)" fill="#000000" fill-opacity="0.54">
                <rect id="Rectangle" x="0" y="0" width="101" height="101"></rect>
            </g>
        </g>
        <g id="↳-Dark-Color" transform="translate(4.000000, 4.000000)">
            <mask id="mask-8" fill="white">
                <use xlink:href="#path-7"></use>
            </mask>
            <g id="Mask" fill-rule="nonzero"></g>
            <g id="✱-/-Color-/-Icons-/-Black-/-Inactive" mask="url(#mask-8)" fill="#000000" fill-opacity="0.54">
                <rect id="Rectangle" x="0" y="0" width="101" height="101"></rect>
            </g>
        </g>
    </g>
</svg>