<?xml version="1.0" encoding="UTF-8"?>
<svg width="24px" height="24px" viewBox="0 0 24 24" version="1.1" xmlns="http://www.w3.org/2000/svg" xmlns:xlink="http://www.w3.org/1999/xlink">
    <!-- Generator: Sketch 50 (54983) - http://www.bohemiancoding.com/sketch -->
    <title>icon/image/exposure_neg_2_24px_two_tone</title>
    <desc>Created with Sketch.</desc>
    <defs>
        <path d="M5.98,5.1 C5.84,5.35 5.66,5.63 5.42,5.93 C5.19,6.23 4.9,6.58 4.54,6.96 L0.37,11.51 L0.37,13 L9,13 L9,11.29 L3.05,11.29 L5.91,8.22 C6.29,7.83 6.63,7.43 6.95,7.04 C7.27,6.65 7.54,6.26 7.77,5.87 C8,5.48 8.18,5.09 8.31,4.7 C8.44,4.31 8.5,3.91 8.5,3.52 C8.5,2.99 8.41,2.5 8.23,2.06 C8.05,1.62 7.79,1.25 7.45,0.95 C7.11,0.64 6.68,0.41 6.19,0.24 C5.68,0.08 5.11,0 4.47,0 C3.78,0 3.16,0.11 2.62,0.32 C2.08,0.53 1.62,0.83 1.26,1.2 C0.89,1.57 0.61,2 0.42,2.5 C0.24,2.97 0.15,3.47 0.14,4 L2.28,4 C2.29,3.69 2.33,3.4 2.41,3.13 C2.5,2.84 2.64,2.59 2.81,2.38 C2.99,2.17 3.22,2.01 3.49,1.89 C3.76,1.77 4.09,1.71 4.45,1.71 C4.76,1.71 5.03,1.76 5.26,1.86 C5.49,1.96 5.69,2.11 5.85,2.29 C6.01,2.47 6.13,2.69 6.22,2.94 C6.3,3.19 6.35,3.46 6.35,3.75 C6.35,3.97 6.32,4.18 6.27,4.4 C6.21,4.62 6.12,4.85 5.98,5.1 Z" id="path-1"></path>
        <rect id="path-3" x="0" y="0" width="8" height="2"></rect>
    </defs>
    <g id="icon/image/exposure_neg_2_24px" stroke="none" stroke-width="1" fill="none" fill-rule="evenodd">
        <g id="↳-Dark-Color" transform="translate(12.000000, 5.000000)">
            <mask id="mask-2" fill="white">
                <use xlink:href="#path-1"></use>
            </mask>
            <g id="Mask" fill-rule="nonzero"></g>
            <g id="✱-/-Color-/-Icons-/-Black-/-Inactive" mask="url(#mask-2)" fill="#000000" fill-opacity="0.54">
                <rect id="Rectangle" x="0" y="0" width="101" height="101"></rect>
            </g>
        </g>
        <g id="↳-Dark-Color" transform="translate(2.000000, 11.000000)">
            <mask id="mask-4" fill="white">
                <use xlink:href="#path-3"></use>
            </mask>
            <g id="Mask" fill-rule="nonzero"></g>
            <g id="✱-/-Color-/-Icons-/-Black-/-Inactive" mask="url(#mask-4)" fill="#000000" fill-opacity="0.54">
                <rect id="Rectangle" x="0" y="0" width="101" height="101"></rect>
            </g>
        </g>
    </g>
</svg>