<?xml version="1.0" encoding="UTF-8"?>
<svg width="24px" height="24px" viewBox="0 0 24 24" version="1.1" xmlns="http://www.w3.org/2000/svg" xmlns:xlink="http://www.w3.org/1999/xlink">
    <!-- Generator: Sketch 50 (54983) - http://www.bohemiancoding.com/sketch -->
    <title>icon/image/exposure_zero_24px_two_tone</title>
    <desc>Created with Sketch.</desc>
    <defs>
        <path d="M8.01,1.22 C7.65,0.79 7.21,0.48 6.7,0.29 C6.19,0.1 5.63,0 5,0 C4.38,0 3.81,0.1 3.31,0.29 C2.8,0.48 2.36,0.79 2,1.22 C1.64,1.65 1.36,2.21 1.16,2.91 C0.96,3.61 0.86,4.46 0.86,5.46 L0.86,7.5 C0.86,8.5 0.96,9.35 1.16,10.05 C1.36,10.74 1.65,11.31 2.01,11.75 C2.37,12.19 2.81,12.5 3.32,12.7 C3.83,12.9 4.39,13 5.01,13 C5.64,13 6.2,12.9 6.71,12.7 C7.22,12.5 7.65,12.19 8.01,11.75 C8.36,11.32 8.64,10.75 8.84,10.05 C9.04,9.35 9.14,8.5 9.14,7.5 L9.15,7.5 L9.15,5.46 C9.15,4.45 9.05,3.61 8.85,2.91 C8.65,2.21 8.37,1.65 8.01,1.22 Z M7.04,7.8 C7.04,8.43 7,8.97 6.91,9.42 C6.82,9.87 6.69,10.23 6.52,10.51 C6.35,10.79 6.14,10.99 5.89,11.12 C5.64,11.25 5.35,11.31 5.02,11.31 C4.69,11.31 4.4,11.25 4.15,11.12 C3.9,10.99 3.68,10.79 3.51,10.51 C3.34,10.23 3.2,9.87 3.11,9.42 C3.02,8.98 2.97,8.44 2.97,7.8 L2.97,5.13 C2.97,4.49 3.01,3.95 3.1,3.51 C3.19,3.07 3.33,2.72 3.5,2.45 C3.67,2.18 3.89,1.99 4.14,1.87 C4.39,1.75 4.68,1.69 5,1.69 C5.32,1.69 5.61,1.75 5.86,1.88 C6.11,2 6.33,2.19 6.5,2.46 C6.68,2.73 6.81,3.08 6.9,3.52 C6.98,3.96 7.03,4.5 7.03,5.14 L7.04,5.14 L7.04,7.8 Z" id="path-1"></path>
    </defs>
    <g id="icon/image/exposure_zero_24px" stroke="none" stroke-width="1" fill="none" fill-rule="evenodd">
        <g id="↳-Dark-Color" transform="translate(7.000000, 5.000000)">
            <mask id="mask-2" fill="white">
                <use xlink:href="#path-1"></use>
            </mask>
            <g id="Mask" fill-rule="nonzero"></g>
            <g id="✱-/-Color-/-Icons-/-Black-/-Inactive" mask="url(#mask-2)" fill="#000000" fill-opacity="0.54">
                <rect id="Rectangle" x="0" y="0" width="101" height="101"></rect>
            </g>
        </g>
    </g>
</svg>