<?xml version="1.0" encoding="UTF-8"?>
<svg width="24px" height="24px" viewBox="0 0 24 24" version="1.1" xmlns="http://www.w3.org/2000/svg" xmlns:xlink="http://www.w3.org/1999/xlink">
    <!-- Generator: Sketch 50 (54983) - http://www.bohemiancoding.com/sketch -->
    <title>icon/image/filter_tilt_shift_24px_two_tone</title>
    <desc>Created with Sketch.</desc>
    <defs>
        <path d="M0,0.05 L0,2.07 C1.46,2.25 2.79,2.83 3.9,3.69 L5.32,2.26 C3.84,1.05 2.01,0.25 0,0.05 Z" id="path-1"></path>
        <path d="M0,1.93 L0,3.95 C2.01,3.75 3.84,2.95 5.32,1.74 L3.89,0.31 C2.79,1.17 1.46,1.75 0,1.93 Z" id="path-3"></path>
        <path d="M2.26,5.32 L3.69,3.89 C2.83,2.79 2.25,1.46 2.07,0 L0.05,0 C0.25,2.01 1.05,3.84 2.26,5.32 Z" id="path-5"></path>
        <path d="M0.05,6 L2.07,6 C2.25,4.54 2.83,3.21 3.69,2.1 L2.26,0.68 C1.05,2.16 0.25,3.99 0.05,6 Z" id="path-7"></path>
        <path d="M0.31,2.1 C1.17,3.21 1.75,4.54 1.93,6 L3.95,6 C3.75,3.99 2.95,2.16 1.74,0.68 L0.31,2.1 Z" id="path-9"></path>
        <path d="M2.1,3.69 C3.21,2.83 4.54,2.25 6,2.07 L6,0.05 C3.99,0.25 2.16,1.05 0.68,2.26 L2.1,3.69 Z" id="path-11"></path>
        <path d="M0.68,1.74 C2.16,2.95 4,3.75 6,3.95 L6,1.93 C4.54,1.75 3.21,1.17 2.1,0.31 L0.68,1.74 Z" id="path-13"></path>
        <path d="M3.95,0.01 L1.93,0.01 C1.75,1.46 1.17,2.79 0.31,3.9 L1.74,5.33 C2.95,3.85 3.75,2.01 3.95,0.01 Z" id="path-15"></path>
        <path d="M0,3 C0,4.66 1.34,6 3,6 C4.66,6 6,4.66 6,3 C6,1.34 4.66,0 3,0 C1.34,0 0,1.34 0,3 Z" id="path-17"></path>
    </defs>
    <g id="icon/image/filter_tilt_shift_24px" stroke="none" stroke-width="1" fill="none" fill-rule="evenodd">
        <g id="↳-Dark-Color" transform="translate(13.000000, 2.000000)">
            <mask id="mask-2" fill="white">
                <use xlink:href="#path-1"></use>
            </mask>
            <g id="Mask" fill-rule="nonzero"></g>
            <g id="✱-/-Color-/-Icons-/-Black-/-Inactive" mask="url(#mask-2)" fill="#000000" fill-opacity="0.54">
                <rect id="Rectangle" x="0" y="0" width="101" height="101"></rect>
            </g>
        </g>
        <g id="↳-Dark-Color" transform="translate(13.000000, 18.000000)">
            <mask id="mask-4" fill="white">
                <use xlink:href="#path-3"></use>
            </mask>
            <g id="Mask" fill-rule="nonzero"></g>
            <g id="✱-/-Color-/-Icons-/-Black-/-Inactive" mask="url(#mask-4)" fill="#000000" fill-opacity="0.54">
                <rect id="Rectangle" x="0" y="0" width="101" height="101"></rect>
            </g>
        </g>
        <g id="↳-Dark-Color" transform="translate(2.000000, 13.000000)">
            <mask id="mask-6" fill="white">
                <use xlink:href="#path-5"></use>
            </mask>
            <g id="Mask" fill-rule="nonzero"></g>
            <g id="✱-/-Color-/-Icons-/-Black-/-Inactive" mask="url(#mask-6)" fill="#000000" fill-opacity="0.54">
                <rect id="Rectangle" x="0" y="0" width="101" height="101"></rect>
            </g>
        </g>
        <g id="↳-Dark-Color" transform="translate(2.000000, 5.000000)">
            <mask id="mask-8" fill="white">
                <use xlink:href="#path-7"></use>
            </mask>
            <g id="Mask" fill-rule="nonzero"></g>
            <g id="✱-/-Color-/-Icons-/-Black-/-Inactive" mask="url(#mask-8)" fill="#000000" fill-opacity="0.54">
                <rect id="Rectangle" x="0" y="0" width="101" height="101"></rect>
            </g>
        </g>
        <g id="↳-Dark-Color" transform="translate(18.000000, 5.000000)">
            <mask id="mask-10" fill="white">
                <use xlink:href="#path-9"></use>
            </mask>
            <g id="Mask" fill-rule="nonzero"></g>
            <g id="✱-/-Color-/-Icons-/-Black-/-Inactive" mask="url(#mask-10)" fill="#000000" fill-opacity="0.54">
                <rect id="Rectangle" x="0" y="0" width="101" height="101"></rect>
            </g>
        </g>
        <g id="↳-Dark-Color" transform="translate(5.000000, 2.000000)">
            <mask id="mask-12" fill="white">
                <use xlink:href="#path-11"></use>
            </mask>
            <g id="Mask" fill-rule="nonzero"></g>
            <g id="✱-/-Color-/-Icons-/-Black-/-Inactive" mask="url(#mask-12)" fill="#000000" fill-opacity="0.54">
                <rect id="Rectangle" x="0" y="0" width="101" height="101"></rect>
            </g>
        </g>
        <g id="↳-Dark-Color" transform="translate(5.000000, 18.000000)">
            <mask id="mask-14" fill="white">
                <use xlink:href="#path-13"></use>
            </mask>
            <g id="Mask" fill-rule="nonzero"></g>
            <g id="✱-/-Color-/-Icons-/-Black-/-Inactive" mask="url(#mask-14)" fill="#000000" fill-opacity="0.54">
                <rect id="Rectangle" x="0" y="0" width="101" height="101"></rect>
            </g>
        </g>
        <g id="↳-Dark-Color" transform="translate(18.000000, 13.000000)">
            <mask id="mask-16" fill="white">
                <use xlink:href="#path-15"></use>
            </mask>
            <g id="Mask" fill-rule="nonzero"></g>
            <g id="✱-/-Color-/-Icons-/-Black-/-Inactive" mask="url(#mask-16)" fill="#000000" fill-opacity="0.54">
                <rect id="Rectangle" x="0" y="0" width="101" height="101"></rect>
            </g>
        </g>
        <g id="↳-Dark-Color" transform="translate(9.000000, 9.000000)">
            <mask id="mask-18" fill="white">
                <use xlink:href="#path-17"></use>
            </mask>
            <g id="Mask" fill-rule="nonzero"></g>
            <g id="✱-/-Color-/-Icons-/-Black-/-Inactive" mask="url(#mask-18)" fill="#000000" fill-opacity="0.54">
                <rect id="Rectangle" x="0" y="0" width="101" height="101"></rect>
            </g>
        </g>
    </g>
</svg>