<?xml version="1.0" encoding="UTF-8"?>
<svg width="24px" height="24px" viewBox="0 0 24 24" version="1.1" xmlns="http://www.w3.org/2000/svg" xmlns:xlink="http://www.w3.org/1999/xlink">
    <!-- Generator: Sketch 50 (54983) - http://www.bohemiancoding.com/sketch -->
    <title>icon/image/filter_drama_24px_two_tone</title>
    <desc>Created with Sketch.</desc>
    <defs>
        <path d="M17,6 L15.5,6 L15.5,5.5 C15.5,2.47 13.03,0 10,0 C8.2,0 6.61,0.88 5.6,2.22 C8.14,2.92 10,5.24 10,8 L8,8 C8,5.79 6.21,4 4,4 C1.79,4 0,5.79 0,8 C0,10.21 1.79,12 4,12 L17,12 C18.65,12 20,10.65 20,9 C20,7.35 18.65,6 17,6 Z" id="path-1"></path>
        <path d="M19.35,6.04 C18.67,2.59 15.64,0 12,0 C9.11,0 6.61,1.64 5.36,4.04 C2.35,4.36 0,6.9 0,10 C0,13.31 2.69,16 6,16 L19,16 C21.76,16 24,13.76 24,11 C24,8.36 21.95,6.22 19.35,6.04 Z M19,14 L6,14 C3.79,14 2,12.21 2,10 C2,7.79 3.79,6 6,6 C8.21,6 10,7.79 10,10 L12,10 C12,7.24 10.14,4.92 7.6,4.22 C8.61,2.88 10.2,2 12,2 C15.03,2 17.5,4.47 17.5,7.5 L17.5,8 L19,8 C20.65,8 22,9.35 22,11 C22,12.65 20.65,14 19,14 Z" id="path-3"></path>
    </defs>
    <g id="icon/image/filter_drama_24px" stroke="none" stroke-width="1" fill="none" fill-rule="evenodd">
        <g id="↳-Light-Color" transform="translate(2.000000, 6.000000)">
            <mask id="mask-2" fill="white">
                <use xlink:href="#path-1"></use>
            </mask>
            <g id="Mask" opacity="0.3" fill-rule="nonzero"></g>
            <g id="✱-/-Color-/-Icons-/-Black-/-Disabled" mask="url(#mask-2)" fill="#000000" fill-opacity="0.38">
                <rect id="Rectangle" x="0" y="0" width="101" height="101"></rect>
            </g>
        </g>
        <g id="↳-Dark-Color" transform="translate(0.000000, 4.000000)">
            <mask id="mask-4" fill="white">
                <use xlink:href="#path-3"></use>
            </mask>
            <g id="Mask" fill-rule="nonzero"></g>
            <g id="✱-/-Color-/-Icons-/-Black-/-Inactive" mask="url(#mask-4)" fill="#000000" fill-opacity="0.54">
                <rect id="Rectangle" x="0" y="0" width="101" height="101"></rect>
            </g>
        </g>
    </g>
</svg>