<?xml version="1.0" encoding="UTF-8"?>
<svg width="24px" height="24px" viewBox="0 0 24 24" version="1.1" xmlns="http://www.w3.org/2000/svg" xmlns:xlink="http://www.w3.org/1999/xlink">
    <!-- Generator: Sketch 50 (54983) - http://www.bohemiancoding.com/sketch -->
    <title>icon/image/filter_vintage_24px_two_tone</title>
    <desc>Created with Sketch.</desc>
    <defs>
        <path d="M3.69,0.61 C2.99,0.61 2.3,0.8 1.69,1.15 C1.53,1.24 1.37,1.36 1.15,1.52 L0.02,2.42 C0.33,2.78 0.58,3.2 0.74,3.66 L2.12,3.14 C2.34,3.06 2.53,2.97 2.7,2.87 C3.54,2.38 4.17,1.6 4.48,0.69 C4.22,0.63 3.96,0.61 3.69,0.61 Z" id="path-1"></path>
        <path d="M2.13,0.87 L0.75,0.35 C0.59,0.8 0.35,1.2 0.05,1.56 L1.2,2.52 C1.35,2.64 1.51,2.76 1.69,2.86 C2.3,3.21 2.99,3.4 3.68,3.4 C3.95,3.4 4.21,3.37 4.48,3.32 C4.17,2.41 3.54,1.63 2.7,1.14 C2.54,1.04 2.35,0.95 2.13,0.87 Z" id="path-3"></path>
        <path d="M0,3 C0,3.19 0.02,3.41 0.05,3.63 L0.28,5.07 C0.52,5.03 0.76,5 1,5 C1.24,5 1.48,5.03 1.71,5.07 L1.94,3.63 C1.98,3.41 2,3.19 2,3 C2,2.02 1.63,1.09 1,0.37 C0.37,1.09 0,2.02 0,3 Z" id="path-5"></path>
        <path d="M1.71,0.93 C1.48,0.97 1.24,1 1,1 C0.75,1 0.51,0.97 0.28,0.93 L0.06,2.35 C0.02,2.59 0,2.8 0,3 C0,3.98 0.37,4.91 1,5.63 C1.63,4.91 2,3.97 2,3 C2,2.81 1.98,2.59 1.95,2.37 L1.71,0.93 Z" id="path-7"></path>
        <path d="M2.87,3.12 L4.25,3.64 C4.41,3.2 4.65,2.79 4.95,2.44 L3.8,1.49 C3.63,1.34 3.46,1.22 3.31,1.14 C2.69,0.78 2.01,0.6 1.31,0.6 C1.04,0.6 0.77,0.63 0.5,0.68 C0.8,1.59 1.43,2.36 2.29,2.86 C2.46,2.95 2.65,3.04 2.87,3.12 Z" id="path-9"></path>
        <path d="M2.87,0.86 C2.65,0.94 2.46,1.03 2.29,1.13 C1.45,1.62 0.82,2.4 0.51,3.31 C0.77,3.36 1.03,3.39 1.3,3.39 C2,3.39 2.69,3.2 3.3,2.85 C3.46,2.76 3.62,2.64 3.84,2.48 L4.97,1.59 C4.66,1.23 4.41,0.81 4.25,0.35 L2.87,0.86 Z" id="path-11"></path>
        <path d="M16.7,12.4 C16.42,12.24 16.13,12.11 15.84,12 C16.13,11.89 16.42,11.76 16.7,11.6 C18.62,10.49 19.69,8.48 19.7,6.41 C18.79,5.89 17.75,5.61 16.69,5.61 C15.67,5.61 14.64,5.87 13.7,6.41 C13.42,6.57 13.16,6.76 12.92,6.95 C12.97,6.64 13,6.32 13,6 C13,3.78 11.79,1.85 10,0.81 C8.21,1.85 7,3.78 7,6 C7,6.32 7.03,6.64 7.08,6.95 C6.84,6.75 6.58,6.56 6.3,6.4 C5.36,5.86 4.33,5.6 3.31,5.6 C2.26,5.6 1.21,5.88 0.3,6.4 C0.3,8.47 1.37,10.48 3.3,11.59 C3.58,11.75 3.87,11.88 4.16,11.99 C3.87,12.1 3.58,12.23 3.3,12.39 C1.38,13.5 0.31,15.51 0.3,17.58 C1.21,18.1 2.25,18.38 3.31,18.38 C4.33,18.38 5.36,18.12 6.3,17.58 C6.58,17.42 6.84,17.23 7.08,17.04 C7.03,17.36 7,17.68 7,18 C7,20.22 8.21,22.15 10,23.19 C11.79,22.15 13,20.22 13,18 C13,17.68 12.97,17.36 12.92,17.05 C13.16,17.25 13.42,17.43 13.7,17.59 C14.64,18.13 15.67,18.39 16.69,18.39 C17.74,18.39 18.79,18.11 19.7,17.59 C19.69,15.52 18.62,13.51 16.7,12.4 Z M2.51,7.68 C2.77,7.62 3.04,7.6 3.31,7.6 C4,7.6 4.69,7.78 5.3,8.14 C5.45,8.23 5.62,8.34 5.79,8.49 L6.94,9.45 C6.64,9.81 6.41,10.21 6.24,10.65 L4.86,10.13 C4.65,10.04 4.46,9.95 4.3,9.86 C3.43,9.36 2.81,8.59 2.51,7.68 Z M5.84,15.47 C5.63,15.64 5.46,15.76 5.3,15.84 C4.69,16.19 4,16.38 3.3,16.38 C3.03,16.38 2.77,16.35 2.51,16.3 C2.82,15.39 3.45,14.61 4.29,14.12 C4.46,14.02 4.65,13.94 4.87,13.85 L6.25,13.33 C6.41,13.79 6.66,14.21 6.97,14.57 L5.84,15.47 Z M10,3.37 C10.63,4.09 11,5.03 11,6 C11,6.19 10.98,6.41 10.95,6.63 L10.72,8.07 C10.48,8.03 10.24,8 10,8 C9.76,8 9.52,8.03 9.29,8.07 L9.06,6.63 C9.02,6.41 9,6.19 9,6 C9,5.02 9.37,4.09 10,3.37 Z M10,20.63 C9.37,19.91 9,18.97 9,18 C9,17.8 9.02,17.59 9.06,17.35 L9.28,15.93 C9.51,15.97 9.75,16 10,16 C10.24,16 10.48,15.97 10.71,15.93 L10.94,17.37 C10.98,17.59 11,17.81 11,18 C11,18.98 10.63,19.91 10,20.63 Z M10,14 C8.9,14 8,13.1 8,12 C8,10.9 8.9,10 10,10 C11.1,10 12,10.9 12,12 C12,13.1 11.1,14 10,14 Z M14.16,8.52 C14.37,8.35 14.54,8.23 14.7,8.15 C15.31,7.8 16,7.61 16.7,7.61 C16.97,7.61 17.23,7.64 17.49,7.69 C17.18,8.6 16.55,9.38 15.71,9.87 C15.54,9.97 15.35,10.05 15.13,10.14 L13.75,10.66 C13.58,10.2 13.34,9.79 13.03,9.42 L14.16,8.52 Z M16.69,16.39 C16,16.39 15.31,16.21 14.7,15.85 C14.52,15.75 14.36,15.63 14.21,15.51 L13.06,14.55 C13.36,14.19 13.6,13.79 13.76,13.34 L15.14,13.86 C15.36,13.94 15.55,14.03 15.71,14.12 C16.56,14.61 17.18,15.39 17.49,16.3 C17.22,16.37 16.95,16.39 16.69,16.39 Z" id="path-13"></path>
    </defs>
    <g id="icon/image/filter_vintage_24px" stroke="none" stroke-width="1" fill="none" fill-rule="evenodd">
        <g id="↳-Light-Color" transform="translate(15.000000, 7.000000)">
            <mask id="mask-2" fill="white">
                <use xlink:href="#path-1"></use>
            </mask>
            <g id="Mask" opacity="0.3" fill-rule="nonzero"></g>
            <g id="✱-/-Color-/-Icons-/-Black-/-Disabled" mask="url(#mask-2)" fill="#000000" fill-opacity="0.38">
                <rect id="Rectangle" x="0" y="0" width="101" height="101"></rect>
            </g>
        </g>
        <g id="↳-Light-Color" transform="translate(15.000000, 13.000000)">
            <mask id="mask-4" fill="white">
                <use xlink:href="#path-3"></use>
            </mask>
            <g id="Mask" opacity="0.3" fill-rule="nonzero"></g>
            <g id="✱-/-Color-/-Icons-/-Black-/-Disabled" mask="url(#mask-4)" fill="#000000" fill-opacity="0.38">
                <rect id="Rectangle" x="0" y="0" width="101" height="101"></rect>
            </g>
        </g>
        <g id="↳-Light-Color" transform="translate(11.000000, 3.000000)">
            <mask id="mask-6" fill="white">
                <use xlink:href="#path-5"></use>
            </mask>
            <g id="Mask" opacity="0.3" fill-rule="nonzero"></g>
            <g id="✱-/-Color-/-Icons-/-Black-/-Disabled" mask="url(#mask-6)" fill="#000000" fill-opacity="0.38">
                <rect id="Rectangle" x="0" y="0" width="101" height="101"></rect>
            </g>
        </g>
        <g id="↳-Light-Color" transform="translate(11.000000, 15.000000)">
            <mask id="mask-8" fill="white">
                <use xlink:href="#path-7"></use>
            </mask>
            <g id="Mask" opacity="0.3" fill-rule="nonzero"></g>
            <g id="✱-/-Color-/-Icons-/-Black-/-Disabled" mask="url(#mask-8)" fill="#000000" fill-opacity="0.38">
                <rect id="Rectangle" x="0" y="0" width="101" height="101"></rect>
            </g>
        </g>
        <g id="↳-Light-Color" transform="translate(4.000000, 7.000000)">
            <mask id="mask-10" fill="white">
                <use xlink:href="#path-9"></use>
            </mask>
            <g id="Mask" opacity="0.3" fill-rule="nonzero"></g>
            <g id="✱-/-Color-/-Icons-/-Black-/-Disabled" mask="url(#mask-10)" fill="#000000" fill-opacity="0.38">
                <rect id="Rectangle" x="0" y="0" width="101" height="101"></rect>
            </g>
        </g>
        <g id="↳-Light-Color" transform="translate(4.000000, 13.000000)">
            <mask id="mask-12" fill="white">
                <use xlink:href="#path-11"></use>
            </mask>
            <g id="Mask" opacity="0.3" fill-rule="nonzero"></g>
            <g id="✱-/-Color-/-Icons-/-Black-/-Disabled" mask="url(#mask-12)" fill="#000000" fill-opacity="0.38">
                <rect id="Rectangle" x="0" y="0" width="101" height="101"></rect>
            </g>
        </g>
        <g id="↳-Dark-Color" transform="translate(2.000000, 0.000000)">
            <mask id="mask-14" fill="white">
                <use xlink:href="#path-13"></use>
            </mask>
            <g id="Mask" fill-rule="nonzero"></g>
            <g id="✱-/-Color-/-Icons-/-Black-/-Inactive" mask="url(#mask-14)" fill="#000000" fill-opacity="0.54">
                <rect id="Rectangle" x="0" y="0" width="101" height="101"></rect>
            </g>
        </g>
    </g>
</svg>