<?xml version="1.0" encoding="UTF-8"?>
<svg width="24px" height="24px" viewBox="0 0 24 24" version="1.1" xmlns="http://www.w3.org/2000/svg" xmlns:xlink="http://www.w3.org/1999/xlink">
    <!-- Generator: Sketch 50 (54983) - http://www.bohemiancoding.com/sketch -->
    <title>icon/image/looks_3_24px_two_tone</title>
    <desc>Created with Sketch.</desc>
    <defs>
        <path d="M0,14 L14,14 L14,0 L0,0 L0,14 Z M4,10 L8,10 L8,8 L6,8 L6,6 L8,6 L8,4 L4,4 L4,2 L8,2 C9.1,2 10,2.89 10,4 L10,5.5 C10,6.33 9.33,7 8.5,7 C9.33,7 10,7.67 10,8.5 L10,10 C10,11.11 9.1,12 8,12 L4,12 L4,10 Z" id="path-1"></path>
        <path d="M16,0 L2,0 C0.9,0 0,0.9 0,2 L0,16 C0,17.1 0.9,18 2,18 L16,18 C17.1,18 18,17.1 18,16 L18,2 C18,0.9 17.1,0 16,0 Z M16,16 L2,16 L2,2 L16,2 L16,16 Z" id="path-3"></path>
        <path d="M6,8 L6,6.5 C6,5.67 5.33,5 4.5,5 C5.33,5 6,4.33 6,3.5 L6,2 C6,0.89 5.1,0 4,0 L0,0 L0,2 L4,2 L4,4 L2,4 L2,6 L4,6 L4,8 L0,8 L0,10 L4,10 C5.1,10 6,9.11 6,8 Z" id="path-5"></path>
    </defs>
    <g id="icon/image/looks_3_24px" stroke="none" stroke-width="1" fill="none" fill-rule="evenodd">
        <g id="↳-Light-Color" transform="translate(5.000000, 5.000000)">
            <mask id="mask-2" fill="white">
                <use xlink:href="#path-1"></use>
            </mask>
            <g id="Mask" opacity="0.3" fill-rule="nonzero"></g>
            <g id="✱-/-Color-/-Icons-/-Black-/-Disabled" mask="url(#mask-2)" fill="#000000" fill-opacity="0.38">
                <rect id="Rectangle" x="0" y="0" width="101" height="101"></rect>
            </g>
        </g>
        <g id="↳-Dark-Color" transform="translate(3.000000, 3.000000)">
            <mask id="mask-4" fill="white">
                <use xlink:href="#path-3"></use>
            </mask>
            <g id="Mask" fill-rule="nonzero"></g>
            <g id="✱-/-Color-/-Icons-/-Black-/-Inactive" mask="url(#mask-4)" fill="#000000" fill-opacity="0.54">
                <rect id="Rectangle" x="0" y="0" width="101" height="101"></rect>
            </g>
        </g>
        <g id="↳-Dark-Color" transform="translate(9.000000, 7.000000)">
            <mask id="mask-6" fill="white">
                <use xlink:href="#path-5"></use>
            </mask>
            <g id="Mask" fill-rule="nonzero"></g>
            <g id="✱-/-Color-/-Icons-/-Black-/-Inactive" mask="url(#mask-6)" fill="#000000" fill-opacity="0.54">
                <rect id="Rectangle" x="0" y="0" width="101" height="101"></rect>
            </g>
        </g>
    </g>
</svg>