<?xml version="1.0" encoding="UTF-8"?>
<svg width="24px" height="24px" viewBox="0 0 24 24" version="1.1" xmlns="http://www.w3.org/2000/svg" xmlns:xlink="http://www.w3.org/1999/xlink">
    <!-- Generator: Sketch 50 (54983) - http://www.bohemiancoding.com/sketch -->
    <title>icon/image/music_off_24px_two_tone</title>
    <desc>Created with Sketch.</desc>
    <defs>
        <circle id="path-1" cx="2" cy="2" r="2"></circle>
        <polygon id="path-3" points="2 4 6 4 6 0 0 0 0 4.61 2 6.61"></polygon>
        <path d="M9,8.44 L1.41,0.86 L0,2.27 L9,11.27 L9,11.55 C8.06,11.01 6.9,10.8 5.67,11.23 C4.33,11.71 3.3,12.9 3.06,14.3 C2.6,17.04 4.92,19.38 7.65,18.95 C9.61,18.64 11,16.84 11,14.85 L11,13.27 L16.73,19 L18.14,17.59 L9,8.44 Z M7,17 C5.9,17 5,16.1 5,15 C5,13.9 5.9,13 7,13 C8.1,13 9,13.9 9,15 C9,16.1 8.1,17 7,17 Z" id="path-5"></path>
    </defs>
    <g id="icon/image/music_off_24px" stroke="none" stroke-width="1" fill="none" fill-rule="evenodd">
        <g id="↳-Light-Color" transform="translate(8.000000, 15.000000)">
            <mask id="mask-2" fill="white">
                <use xlink:href="#path-1"></use>
            </mask>
            <g id="Mask" opacity="0.3" fill-rule="nonzero"></g>
            <g id="✱-/-Color-/-Icons-/-Black-/-Disabled" mask="url(#mask-2)" fill="#000000" fill-opacity="0.38">
                <rect id="Rectangle" x="0" y="0" width="101" height="101"></rect>
            </g>
        </g>
        <g id="↳-Dark-Color" transform="translate(12.000000, 3.000000)">
            <mask id="mask-4" fill="white">
                <use xlink:href="#path-3"></use>
            </mask>
            <g id="Mask" fill-rule="nonzero"></g>
            <g id="✱-/-Color-/-Icons-/-Black-/-Inactive" mask="url(#mask-4)" fill="#000000" fill-opacity="0.54">
                <rect id="Rectangle" x="0" y="0" width="101" height="101"></rect>
            </g>
        </g>
        <g id="↳-Dark-Color" transform="translate(3.000000, 2.000000)">
            <mask id="mask-6" fill="white">
                <use xlink:href="#path-5"></use>
            </mask>
            <g id="Mask" fill-rule="nonzero"></g>
            <g id="✱-/-Color-/-Icons-/-Black-/-Inactive" mask="url(#mask-6)" fill="#000000" fill-opacity="0.54">
                <rect id="Rectangle" x="0" y="0" width="101" height="101"></rect>
            </g>
        </g>
    </g>
</svg>