<?xml version="1.0" encoding="UTF-8"?>
<svg width="24px" height="24px" viewBox="0 0 24 24" version="1.1" xmlns="http://www.w3.org/2000/svg" xmlns:xlink="http://www.w3.org/1999/xlink">
    <!-- Generator: Sketch 50 (54983) - http://www.bohemiancoding.com/sketch -->
    <title>icon/image/nature_people_24px_two_tone</title>
    <desc>Created with Sketch.</desc>
    <defs>
        <circle id="path-1" cx="5.17" cy="5.17" r="5"></circle>
        <circle id="path-3" cx="1.5" cy="1.5" r="1.5"></circle>
        <path d="M13.17,0.17 C9.3,0.17 6.17,3.3 6.17,7.17 C6.17,10.64 8.69,13.51 12,14.06 L12,18 L4,18 L4,15 L5,15 L5,11 C5,10.45 4.55,10 4,10 L1,10 C0.45,10 0,10.45 0,11 L0,15 L1,15 L1,20 L17,20 L17,18 L14,18 L14,14.12 C17.47,13.71 20.17,10.76 20.17,7.17 C20.17,3.3 17.04,0.17 13.17,0.17 Z M13.17,12.17 C10.41,12.17 8.17,9.93 8.17,7.17 C8.17,4.41 10.41,2.17 13.17,2.17 C15.93,2.17 18.17,4.41 18.17,7.17 C18.17,9.93 15.93,12.17 13.17,12.17 Z" id="path-5"></path>
    </defs>
    <g id="icon/image/nature_people_24px" stroke="none" stroke-width="1" fill="none" fill-rule="evenodd">
        <g id="↳-Light-Color" transform="translate(10.000000, 4.000000)">
            <mask id="mask-2" fill="white">
                <use xlink:href="#path-1"></use>
            </mask>
            <g id="Mask" opacity="0.3" fill-rule="nonzero"></g>
            <g id="✱-/-Color-/-Icons-/-Black-/-Disabled" mask="url(#mask-2)" fill="#000000" fill-opacity="0.38">
                <rect id="Rectangle" x="0" y="0" width="101" height="101"></rect>
            </g>
        </g>
        <g id="↳-Dark-Color" transform="translate(3.000000, 8.000000)">
            <mask id="mask-4" fill="white">
                <use xlink:href="#path-3"></use>
            </mask>
            <g id="Mask" fill-rule="nonzero"></g>
            <g id="✱-/-Color-/-Icons-/-Black-/-Inactive" mask="url(#mask-4)" fill="#000000" fill-opacity="0.54">
                <rect id="Rectangle" x="0" y="0" width="101" height="101"></rect>
            </g>
        </g>
        <g id="↳-Dark-Color" transform="translate(2.000000, 2.000000)">
            <mask id="mask-6" fill="white">
                <use xlink:href="#path-5"></use>
            </mask>
            <g id="Mask" fill-rule="nonzero"></g>
            <g id="✱-/-Color-/-Icons-/-Black-/-Inactive" mask="url(#mask-6)" fill="#000000" fill-opacity="0.54">
                <rect id="Rectangle" x="0" y="0" width="101" height="101"></rect>
            </g>
        </g>
    </g>
</svg>