<?xml version="1.0" encoding="UTF-8"?>
<svg width="24px" height="24px" viewBox="0 0 24 24" version="1.1" xmlns="http://www.w3.org/2000/svg" xmlns:xlink="http://www.w3.org/1999/xlink">
    <!-- Generator: Sketch 50 (54983) - http://www.bohemiancoding.com/sketch -->
    <title>icon/image/panorama_horizontal_24px_two_tone</title>
    <desc>Created with Sketch.</desc>
    <defs>
        <path d="M0,0.54 L0,11.45 C2.6,10.68 5.28,10.29 8,10.29 C10.72,10.29 13.4,10.68 16,11.45 L16,0.54 C13.4,1.32 10.72,1.71 8,1.7 C5.28,1.7 2.6,1.31 0,0.54 Z" id="path-1"></path>
        <path d="M19.43,0 C19.33,0 19.23,0.02 19.12,0.06 C16.18,1.16 13.09,1.7 10,1.7 C6.91,1.7 3.82,1.15 0.88,0.06 C0.77,0.02 0.66,0 0.57,0 C0.23,0 0,0.23 0,0.63 L0,15.38 C0,15.77 0.23,16 0.57,16 C0.67,16 0.77,15.98 0.88,15.94 C3.82,14.84 6.91,14.3 10,14.3 C13.09,14.3 16.18,14.85 19.12,15.94 C19.23,15.98 19.33,16 19.43,16 C19.76,16 20,15.77 20,15.37 L20,0.63 C20,0.23 19.76,0 19.43,0 Z M18,13.45 C15.4,12.68 12.72,12.29 10,12.29 C7.28,12.29 4.6,12.68 2,13.45 L2,2.54 C4.6,3.31 7.28,3.7 10,3.7 C12.72,3.71 15.4,3.32 18,2.54 L18,13.45 Z" id="path-3"></path>
    </defs>
    <g id="icon/image/panorama_horizontal_24px" stroke="none" stroke-width="1" fill="none" fill-rule="evenodd">
        <g id="↳-Light-Color" transform="translate(4.000000, 6.000000)">
            <mask id="mask-2" fill="white">
                <use xlink:href="#path-1"></use>
            </mask>
            <g id="Mask" opacity="0.3" fill-rule="nonzero"></g>
            <g id="✱-/-Color-/-Icons-/-Black-/-Disabled" mask="url(#mask-2)" fill="#000000" fill-opacity="0.38">
                <rect id="Rectangle" x="0" y="0" width="101" height="101"></rect>
            </g>
        </g>
        <g id="↳-Dark-Color" transform="translate(2.000000, 4.000000)">
            <mask id="mask-4" fill="white">
                <use xlink:href="#path-3"></use>
            </mask>
            <g id="Mask" fill-rule="nonzero"></g>
            <g id="✱-/-Color-/-Icons-/-Black-/-Inactive" mask="url(#mask-4)" fill="#000000" fill-opacity="0.54">
                <rect id="Rectangle" x="0" y="0" width="101" height="101"></rect>
            </g>
        </g>
    </g>
</svg>