<?xml version="1.0" encoding="UTF-8"?>
<svg width="24px" height="24px" viewBox="0 0 24 24" version="1.1" xmlns="http://www.w3.org/2000/svg" xmlns:xlink="http://www.w3.org/1999/xlink">
    <!-- Generator: Sketch 50 (54983) - http://www.bohemiancoding.com/sketch -->
    <title>icon/image/remove_red_eye_24px_two_tone</title>
    <desc>Created with Sketch.</desc>
    <defs>
        <path d="M9,0.5 C5.21,0.5 1.83,2.63 0.18,6 C1.83,9.37 5.2,11.5 9,11.5 C12.8,11.5 16.17,9.37 17.82,6 C16.17,2.63 12.79,0.5 9,0.5 Z M9,10.5 C6.52,10.5 4.5,8.48 4.5,6 C4.5,3.52 6.52,1.5 9,1.5 C11.48,1.5 13.5,3.52 13.5,6 C13.5,8.48 11.48,10.5 9,10.5 Z" id="path-1"></path>
        <path d="M11,0.5 C6,0.5 1.73,3.61 0,8 C1.73,12.39 6,15.5 11,15.5 C16,15.5 20.27,12.39 22,8 C20.27,3.61 16,0.5 11,0.5 Z M11,13.5 C7.21,13.5 3.83,11.37 2.18,8 C3.83,4.63 7.21,2.5 11,2.5 C14.79,2.5 18.17,4.63 19.82,8 C18.17,11.37 14.79,13.5 11,13.5 Z" id="path-3"></path>
        <path d="M5,0.5 C2.52,0.5 0.5,2.52 0.5,5 C0.5,7.48 2.52,9.5 5,9.5 C7.48,9.5 9.5,7.48 9.5,5 C9.5,2.52 7.48,0.5 5,0.5 Z M5,7.5 C3.62,7.5 2.5,6.38 2.5,5 C2.5,3.62 3.62,2.5 5,2.5 C6.38,2.5 7.5,3.62 7.5,5 C7.5,6.38 6.38,7.5 5,7.5 Z" id="path-5"></path>
    </defs>
    <g id="icon/image/remove_red_eye_24px" stroke="none" stroke-width="1" fill="none" fill-rule="evenodd">
        <g id="↳-Light-Color" transform="translate(3.000000, 6.000000)">
            <mask id="mask-2" fill="white">
                <use xlink:href="#path-1"></use>
            </mask>
            <g id="Mask" opacity="0.3" fill-rule="nonzero"></g>
            <g id="✱-/-Color-/-Icons-/-Black-/-Disabled" mask="url(#mask-2)" fill="#000000" fill-opacity="0.38">
                <rect id="Rectangle" x="0" y="0" width="101" height="101"></rect>
            </g>
        </g>
        <g id="↳-Dark-Color" transform="translate(1.000000, 4.000000)">
            <mask id="mask-4" fill="white">
                <use xlink:href="#path-3"></use>
            </mask>
            <g id="Mask" fill-rule="nonzero"></g>
            <g id="✱-/-Color-/-Icons-/-Black-/-Inactive" mask="url(#mask-4)" fill="#000000" fill-opacity="0.54">
                <rect id="Rectangle" x="0" y="0" width="101" height="101"></rect>
            </g>
        </g>
        <g id="↳-Dark-Color" transform="translate(7.000000, 7.000000)">
            <mask id="mask-6" fill="white">
                <use xlink:href="#path-5"></use>
            </mask>
            <g id="Mask" fill-rule="nonzero"></g>
            <g id="✱-/-Color-/-Icons-/-Black-/-Inactive" mask="url(#mask-6)" fill="#000000" fill-opacity="0.54">
                <rect id="Rectangle" x="0" y="0" width="101" height="101"></rect>
            </g>
        </g>
    </g>
</svg>