<?xml version="1.0" encoding="UTF-8"?>
<svg width="24px" height="24px" viewBox="0 0 24 24" version="1.1" xmlns="http://www.w3.org/2000/svg" xmlns:xlink="http://www.w3.org/1999/xlink">
    <!-- Generator: Sketch 50 (54983) - http://www.bohemiancoding.com/sketch -->
    <title>icon/image/rotate_90_degrees_ccw_24px_two_tone</title>
    <desc>Created with Sketch.</desc>
    <defs>
        <polygon id="path-1" points="4.35 0.24 0.69 3.9 4.34 7.56 8 3.9"></polygon>
        <path d="M7.34,0.41 L0.86,6.9 L7.35,13.38 L13.84,6.9 L7.34,0.41 Z M7.34,10.56 L3.69,6.9 L7.35,3.24 L11,6.9 L7.34,10.56 Z" id="path-3"></path>
        <path d="M11.36,6.64 C9.61,4.88 7.3,4 5,4 L5,0.76 L0.76,5 L5,9.24 L5,6 C6.79,6 8.58,6.68 9.95,8.05 C12.68,10.78 12.68,15.22 9.95,17.95 C8.58,19.32 6.79,20 5,20 C4.03,20 3.06,19.79 2.16,19.39 L0.67,20.88 C2.02,21.62 3.51,22 5,22 C7.3,22 9.61,21.12 11.36,19.36 C14.88,15.85 14.88,10.15 11.36,6.64 Z" id="path-5"></path>
    </defs>
    <g id="icon/image/rotate_90_degrees_ccw_24px" stroke="none" stroke-width="1" fill="none" fill-rule="evenodd">
        <g id="↳-Light-Color" transform="translate(3.000000, 9.000000)">
            <mask id="mask-2" fill="white">
                <use xlink:href="#path-1"></use>
            </mask>
            <g id="Mask" opacity="0.3" fill-rule="nonzero"></g>
            <g id="✱-/-Color-/-Icons-/-Black-/-Disabled" mask="url(#mask-2)" fill="#000000" fill-opacity="0.38">
                <rect id="Rectangle" x="0" y="0" width="101" height="101"></rect>
            </g>
        </g>
        <g id="↳-Dark-Color" transform="translate(0.000000, 6.000000)">
            <mask id="mask-4" fill="white">
                <use xlink:href="#path-3"></use>
            </mask>
            <g id="Mask" fill-rule="nonzero"></g>
            <g id="✱-/-Color-/-Icons-/-Black-/-Inactive" mask="url(#mask-4)" fill="#000000" fill-opacity="0.54">
                <rect id="Rectangle" x="0" y="0" width="101" height="101"></rect>
            </g>
        </g>
        <g id="↳-Dark-Color" transform="translate(8.000000, 0.000000)">
            <mask id="mask-6" fill="white">
                <use xlink:href="#path-5"></use>
            </mask>
            <g id="Mask" fill-rule="nonzero"></g>
            <g id="✱-/-Color-/-Icons-/-Black-/-Inactive" mask="url(#mask-6)" fill="#000000" fill-opacity="0.54">
                <rect id="Rectangle" x="0" y="0" width="101" height="101"></rect>
            </g>
        </g>
    </g>
</svg>