<?xml version="1.0" encoding="UTF-8"?>
<svg width="24px" height="24px" viewBox="0 0 24 24" version="1.1" xmlns="http://www.w3.org/2000/svg" xmlns:xlink="http://www.w3.org/1999/xlink">
    <!-- Generator: Sketch 50 (54983) - http://www.bohemiancoding.com/sketch -->
    <title>icon/image/rotate_left_24px_two_tone</title>
    <desc>Created with Sketch.</desc>
    <defs>
        <path d="M5,16.91 L5,18.93 C8.95,18.44 12,15.08 12,11 C12,6.92 8.95,3.56 5,3.07 L5,0 L0.45,4.55 L5,9 L5,5.09 C7.84,5.57 10,8.03 10,11 C10,13.97 7.84,16.43 5,16.91 Z" id="path-1"></path>
        <path d="M1.69,3.89 L3.1,2.47 C2.58,1.72 2.23,0.88 2.09,0 L0.07,0 C0.24,1.39 0.79,2.73 1.69,3.89 Z" id="path-3"></path>
        <path d="M3.11,1.53 L1.7,0.11 C0.8,1.27 0.24,2.61 0.07,4 L2.09,4 C2.23,3.13 2.58,2.28 3.11,1.53 Z" id="path-5"></path>
        <path d="M4,1.9 C3.13,1.75 2.29,1.41 1.54,0.87 L0.1,2.32 C1.26,3.22 2.61,3.76 4,3.93 L4,1.9 Z" id="path-7"></path>
    </defs>
    <g id="icon/image/rotate_left_24px" stroke="none" stroke-width="1" fill="none" fill-rule="evenodd">
        <g id="↳-Dark-Color" transform="translate(8.000000, 1.000000)">
            <mask id="mask-2" fill="white">
                <use xlink:href="#path-1"></use>
            </mask>
            <g id="Mask" fill-rule="nonzero"></g>
            <g id="✱-/-Color-/-Icons-/-Black-/-Inactive" mask="url(#mask-2)" fill="#000000" fill-opacity="0.54">
                <rect id="Rectangle" x="0" y="0" width="101" height="101"></rect>
            </g>
        </g>
        <g id="↳-Dark-Color" transform="translate(4.000000, 13.000000)">
            <mask id="mask-4" fill="white">
                <use xlink:href="#path-3"></use>
            </mask>
            <g id="Mask" fill-rule="nonzero"></g>
            <g id="✱-/-Color-/-Icons-/-Black-/-Inactive" mask="url(#mask-4)" fill="#000000" fill-opacity="0.54">
                <rect id="Rectangle" x="0" y="0" width="101" height="101"></rect>
            </g>
        </g>
        <g id="↳-Dark-Color" transform="translate(4.000000, 7.000000)">
            <mask id="mask-6" fill="white">
                <use xlink:href="#path-5"></use>
            </mask>
            <g id="Mask" fill-rule="nonzero"></g>
            <g id="✱-/-Color-/-Icons-/-Black-/-Inactive" mask="url(#mask-6)" fill="#000000" fill-opacity="0.54">
                <rect id="Rectangle" x="0" y="0" width="101" height="101"></rect>
            </g>
        </g>
        <g id="↳-Dark-Color" transform="translate(7.000000, 16.000000)">
            <mask id="mask-8" fill="white">
                <use xlink:href="#path-7"></use>
            </mask>
            <g id="Mask" fill-rule="nonzero"></g>
            <g id="✱-/-Color-/-Icons-/-Black-/-Inactive" mask="url(#mask-8)" fill="#000000" fill-opacity="0.54">
                <rect id="Rectangle" x="0" y="0" width="101" height="101"></rect>
            </g>
        </g>
    </g>
</svg>