<?xml version="1.0" encoding="UTF-8"?>
<svg width="24px" height="24px" viewBox="0 0 24 24" version="1.1" xmlns="http://www.w3.org/2000/svg" xmlns:xlink="http://www.w3.org/1999/xlink">
    <!-- Generator: Sketch 50 (54983) - http://www.bohemiancoding.com/sketch -->
    <title>icon/image/rotate_right_24px_two_tone</title>
    <desc>Created with Sketch.</desc>
    <defs>
        <path d="M3.93,4 C3.76,2.61 3.21,1.27 2.31,0.11 L0.89,1.53 C1.43,2.28 1.77,3.13 1.91,4 L3.93,4 Z" id="path-1"></path>
        <path d="M7,0 L7,3.07 C3.06,3.56 0,6.92 0,11 C0,15.08 3.05,18.44 7,18.93 L7,16.91 C4.16,16.43 2,13.97 2,11 C2,8.03 4.16,5.57 7,5.09 L7,9 L11.55,4.55 L7,0 Z" id="path-3"></path>
        <path d="M2.46,0.87 C1.71,1.41 0.87,1.76 0,1.9 L0,3.92 C1.39,3.75 2.74,3.21 3.9,2.31 L2.46,0.87 Z" id="path-5"></path>
        <path d="M2.31,3.89 C3.21,2.73 3.76,1.39 3.93,0 L1.91,0 C1.77,0.87 1.43,1.72 0.89,2.48 L2.31,3.89 Z" id="path-7"></path>
    </defs>
    <g id="icon/image/rotate_right_24px" stroke="none" stroke-width="1" fill="none" fill-rule="evenodd">
        <g id="↳-Dark-Color" transform="translate(16.000000, 7.000000)">
            <mask id="mask-2" fill="white">
                <use xlink:href="#path-1"></use>
            </mask>
            <g id="Mask" fill-rule="nonzero"></g>
            <g id="✱-/-Color-/-Icons-/-Black-/-Inactive" mask="url(#mask-2)" fill="#000000" fill-opacity="0.54">
                <rect id="Rectangle" x="0" y="0" width="101" height="101"></rect>
            </g>
        </g>
        <g id="↳-Dark-Color" transform="translate(4.000000, 1.000000)">
            <mask id="mask-4" fill="white">
                <use xlink:href="#path-3"></use>
            </mask>
            <g id="Mask" fill-rule="nonzero"></g>
            <g id="✱-/-Color-/-Icons-/-Black-/-Inactive" mask="url(#mask-4)" fill="#000000" fill-opacity="0.54">
                <rect id="Rectangle" x="0" y="0" width="101" height="101"></rect>
            </g>
        </g>
        <g id="↳-Dark-Color" transform="translate(13.000000, 16.000000)">
            <mask id="mask-6" fill="white">
                <use xlink:href="#path-5"></use>
            </mask>
            <g id="Mask" fill-rule="nonzero"></g>
            <g id="✱-/-Color-/-Icons-/-Black-/-Inactive" mask="url(#mask-6)" fill="#000000" fill-opacity="0.54">
                <rect id="Rectangle" x="0" y="0" width="101" height="101"></rect>
            </g>
        </g>
        <g id="↳-Dark-Color" transform="translate(16.000000, 13.000000)">
            <mask id="mask-8" fill="white">
                <use xlink:href="#path-7"></use>
            </mask>
            <g id="Mask" fill-rule="nonzero"></g>
            <g id="✱-/-Color-/-Icons-/-Black-/-Inactive" mask="url(#mask-8)" fill="#000000" fill-opacity="0.54">
                <rect id="Rectangle" x="0" y="0" width="101" height="101"></rect>
            </g>
        </g>
    </g>
</svg>