<?xml version="1.0" encoding="UTF-8"?>
<svg width="24px" height="24px" viewBox="0 0 24 24" version="1.1" xmlns="http://www.w3.org/2000/svg" xmlns:xlink="http://www.w3.org/1999/xlink">
    <!-- Generator: Sketch 50 (54983) - http://www.bohemiancoding.com/sketch -->
    <title>icon/image/shutter_speed_24px_two_tone</title>
    <desc>Created with Sketch.</desc>
    <defs>
        <path d="M7,0 C3.13,0 0,3.13 0,7 C0,10.87 3.13,14 7,14 C10.87,14 14,10.87 14,7 C14,3.13 10.87,0 7,0 Z M7,1 C7.46,1 7.9,1.06 8.33,1.15 L5.61,5.85 L3.29,2.29 C4.31,1.49 5.6,1 7,1 Z M1,7 C1,5.46 1.59,4.05 2.55,2.99 L5.81,8 L1.09,8 C1.04,7.67 1,7.34 1,7 Z M1.35,9 L6.68,9 L4.65,12.5 L4.76,12.56 C3.17,11.92 1.92,10.62 1.35,9 Z M7,13 C6.52,13 6.06,12.94 5.61,12.83 L8.46,7.91 L10.57,11.81 C9.57,12.55 8.34,13 7,13 Z M13,7 C13,8.6 12.37,10.06 11.34,11.13 L8.57,6 L12.91,6 C12.96,6.33 13,6.66 13,7 Z M7.26,5 L9.31,1.46 C10.87,2.11 12.08,3.4 12.65,5 L7.26,5 Z" id="path-1"></path>
        <path d="M1.55,0.99 C0.59,2.05 0,3.46 0,5 C0,5.34 0.04,5.67 0.09,6 L4.81,6 L1.55,0.99 Z" id="path-3"></path>
        <path d="M2.31,0.46 L0.26,4 L5.65,4 C5.08,2.4 3.87,1.11 2.31,0.46 Z" id="path-5"></path>
        <path d="M5.33,0.15 C4.9,0.06 4.46,0 4,0 C2.6,0 1.31,0.49 0.29,1.29 L2.61,4.85 L5.33,0.15 Z" id="path-7"></path>
        <path d="M5.68,0 L0.35,0 C0.92,1.62 2.17,2.92 3.76,3.56 L3.65,3.5 L5.68,0 Z" id="path-9"></path>
        <path d="M16.03,3.39 L17.45,1.97 C17.02,1.46 16.55,0.98 16.04,0.56 L14.62,1.98 C13.07,0.74 11.12,0 9,0 C4.03,0 0,4.03 0,9 C0,13.97 4.02,18 9,18 C13.98,18 18,13.97 18,9 C18,6.88 17.26,4.93 16.03,3.39 Z M9,16 C5.13,16 2,12.87 2,9 C2,5.13 5.13,2 9,2 C12.87,2 16,5.13 16,9 C16,12.87 12.87,16 9,16 Z" id="path-11"></path>
        <rect id="path-13" x="0" y="0" width="6" height="2"></rect>
        <path d="M3.34,5.13 C4.37,4.06 5,2.6 5,1 C5,0.66 4.96,0.33 4.91,0 L0.57,0 L3.34,5.13 Z" id="path-15"></path>
        <path d="M0.61,5.83 C1.06,5.94 1.52,6 2,6 C3.34,6 4.57,5.55 5.57,4.81 L3.46,0.91 L0.61,5.83 Z" id="path-17"></path>
    </defs>
    <g id="icon/image/shutter_speed_24px" stroke="none" stroke-width="1" fill="none" fill-rule="evenodd">
        <g id="↳-Light-Color" transform="translate(5.000000, 6.000000)">
            <mask id="mask-2" fill="white">
                <use xlink:href="#path-1"></use>
            </mask>
            <g id="Mask" opacity="0.3" fill-rule="nonzero"></g>
            <g id="✱-/-Color-/-Icons-/-Black-/-Disabled" mask="url(#mask-2)" fill="#000000" fill-opacity="0.38">
                <rect id="Rectangle" x="0" y="0" width="101" height="101"></rect>
            </g>
        </g>
        <g id="↳-Dark-Color" transform="translate(6.000000, 8.000000)">
            <mask id="mask-4" fill="white">
                <use xlink:href="#path-3"></use>
            </mask>
            <g id="Mask" fill-rule="nonzero"></g>
            <g id="✱-/-Color-/-Icons-/-Black-/-Inactive" mask="url(#mask-4)" fill="#000000" fill-opacity="0.54">
                <rect id="Rectangle" x="0" y="0" width="101" height="101"></rect>
            </g>
        </g>
        <g id="↳-Dark-Color" transform="translate(12.000000, 7.000000)">
            <mask id="mask-6" fill="white">
                <use xlink:href="#path-5"></use>
            </mask>
            <g id="Mask" fill-rule="nonzero"></g>
            <g id="✱-/-Color-/-Icons-/-Black-/-Inactive" mask="url(#mask-6)" fill="#000000" fill-opacity="0.54">
                <rect id="Rectangle" x="0" y="0" width="101" height="101"></rect>
            </g>
        </g>
        <g id="↳-Dark-Color" transform="translate(8.000000, 7.000000)">
            <mask id="mask-8" fill="white">
                <use xlink:href="#path-7"></use>
            </mask>
            <g id="Mask" fill-rule="nonzero"></g>
            <g id="✱-/-Color-/-Icons-/-Black-/-Inactive" mask="url(#mask-8)" fill="#000000" fill-opacity="0.54">
                <rect id="Rectangle" x="0" y="0" width="101" height="101"></rect>
            </g>
        </g>
        <g id="↳-Dark-Color" transform="translate(6.000000, 15.000000)">
            <mask id="mask-10" fill="white">
                <use xlink:href="#path-9"></use>
            </mask>
            <g id="Mask" fill-rule="nonzero"></g>
            <g id="✱-/-Color-/-Icons-/-Black-/-Inactive" mask="url(#mask-10)" fill="#000000" fill-opacity="0.54">
                <rect id="Rectangle" x="0" y="0" width="101" height="101"></rect>
            </g>
        </g>
        <g id="↳-Dark-Color" transform="translate(3.000000, 4.000000)">
            <mask id="mask-12" fill="white">
                <use xlink:href="#path-11"></use>
            </mask>
            <g id="Mask" fill-rule="nonzero"></g>
            <g id="✱-/-Color-/-Icons-/-Black-/-Inactive" mask="url(#mask-12)" fill="#000000" fill-opacity="0.54">
                <rect id="Rectangle" x="0" y="0" width="101" height="101"></rect>
            </g>
        </g>
        <g id="↳-Dark-Color" transform="translate(9.000000, 1.000000)">
            <mask id="mask-14" fill="white">
                <use xlink:href="#path-13"></use>
            </mask>
            <g id="Mask" fill-rule="nonzero"></g>
            <g id="✱-/-Color-/-Icons-/-Black-/-Inactive" mask="url(#mask-14)" fill="#000000" fill-opacity="0.54">
                <rect id="Rectangle" x="0" y="0" width="101" height="101"></rect>
            </g>
        </g>
        <g id="↳-Dark-Color" transform="translate(13.000000, 12.000000)">
            <mask id="mask-16" fill="white">
                <use xlink:href="#path-15"></use>
            </mask>
            <g id="Mask" fill-rule="nonzero"></g>
            <g id="✱-/-Color-/-Icons-/-Black-/-Inactive" mask="url(#mask-16)" fill="#000000" fill-opacity="0.54">
                <rect id="Rectangle" x="0" y="0" width="101" height="101"></rect>
            </g>
        </g>
        <g id="↳-Dark-Color" transform="translate(10.000000, 13.000000)">
            <mask id="mask-18" fill="white">
                <use xlink:href="#path-17"></use>
            </mask>
            <g id="Mask" fill-rule="nonzero"></g>
            <g id="✱-/-Color-/-Icons-/-Black-/-Inactive" mask="url(#mask-18)" fill="#000000" fill-opacity="0.54">
                <rect id="Rectangle" x="0" y="0" width="101" height="101"></rect>
            </g>
        </g>
    </g>
</svg>