<?xml version="1.0" encoding="UTF-8"?>
<svg width="24px" height="24px" viewBox="0 0 24 24" version="1.1" xmlns="http://www.w3.org/2000/svg" xmlns:xlink="http://www.w3.org/1999/xlink">
    <!-- Generator: Sketch 50 (54983) - http://www.bohemiancoding.com/sketch -->
    <title>icon/image/switch_camera_24px_two_tone</title>
    <desc>Created with Sketch.</desc>
    <defs>
        <path d="M10.12,0 L5.88,0 L4.05,2 L0,2 L0,14 L16,14 L16,2 L11.95,2 L10.12,0 Z M11,11.5 L11,9 L5,9 L5,11.5 L1.5,8 L5,4.5 L5,7 L11,7 L11,4.5 L14.5,8 L11,11.5 Z" id="path-1"></path>
        <path d="M18,2 L14.83,2 L13,0 L7,0 L5.17,2 L2,2 C0.9,2 0,2.9 0,4 L0,16 C0,17.1 0.9,18 2,18 L18,18 C19.1,18 20,17.1 20,16 L20,4 C20,2.9 19.1,2 18,2 Z M18,16 L2,16 L2,4 L6.05,4 L7.88,2 L12.12,2 L13.95,4 L18,4 L18,16 Z" id="path-3"></path>
        <polygon id="path-5" points="10 3 4 3 4 0.5 0.5 4 4 7.5 4 5 10 5 10 7.5 13.5 4 10 0.5"></polygon>
    </defs>
    <g id="icon/image/switch_camera_24px" stroke="none" stroke-width="1" fill="none" fill-rule="evenodd">
        <g id="↳-Light-Color" transform="translate(4.000000, 4.000000)">
            <mask id="mask-2" fill="white">
                <use xlink:href="#path-1"></use>
            </mask>
            <g id="Mask" opacity="0.3" fill-rule="nonzero"></g>
            <g id="✱-/-Color-/-Icons-/-Black-/-Disabled" mask="url(#mask-2)" fill="#000000" fill-opacity="0.38">
                <rect id="Rectangle" x="0" y="0" width="101" height="101"></rect>
            </g>
        </g>
        <g id="↳-Dark-Color" transform="translate(2.000000, 2.000000)">
            <mask id="mask-4" fill="white">
                <use xlink:href="#path-3"></use>
            </mask>
            <g id="Mask" fill-rule="nonzero"></g>
            <g id="✱-/-Color-/-Icons-/-Black-/-Inactive" mask="url(#mask-4)" fill="#000000" fill-opacity="0.54">
                <rect id="Rectangle" x="0" y="0" width="101" height="101"></rect>
            </g>
        </g>
        <g id="↳-Dark-Color" transform="translate(5.000000, 8.000000)">
            <mask id="mask-6" fill="white">
                <use xlink:href="#path-5"></use>
            </mask>
            <g id="Mask" fill-rule="nonzero"></g>
            <g id="✱-/-Color-/-Icons-/-Black-/-Inactive" mask="url(#mask-6)" fill="#000000" fill-opacity="0.54">
                <rect id="Rectangle" x="0" y="0" width="101" height="101"></rect>
            </g>
        </g>
    </g>
</svg>