<?xml version="1.0" encoding="UTF-8"?>
<svg width="24px" height="24px" viewBox="0 0 24 24" version="1.1" xmlns="http://www.w3.org/2000/svg" xmlns:xlink="http://www.w3.org/1999/xlink">
    <!-- Generator: Sketch 50 (54983) - http://www.bohemiancoding.com/sketch -->
    <title>icon/image/timer_10_24px_two_tone</title>
    <desc>Created with Sketch.</desc>
    <defs>
        <polygon id="path-1" points="3.68307692 12.4583333 5.52923077 12.4583333 5.52923077 0.958333333 5.29846154 0.958333333 0.913846154 2.60666667 0.913846154 4.21666667 3.68307692 3.25833333"></polygon>
        <path d="M5.53538462,1.12125 C5.10153846,0.94875 4.60307692,0.8625 4.06769231,0.8625 C3.53230769,0.8625 3.04307692,0.94875 2.6,1.12125 C2.15692308,1.29375 1.77846154,1.57166667 1.46461538,1.96458333 C1.15076923,2.3575 0.910769231,2.85583333 0.735384615,3.48833333 C0.569230769,4.11125 0.476923077,4.87791667 0.476923077,5.77875 L0.476923077,7.61875 C0.476923077,8.51958333 0.56,9.28625 0.735384615,9.90916667 C0.910769231,10.5416667 1.15076923,11.0495833 1.47384615,11.4425 C1.78769231,11.8354167 2.16615385,12.1229167 2.60923077,12.2954167 C3.05230769,12.4679167 3.54153846,12.56375 4.07692308,12.56375 C4.62153846,12.56375 5.11076923,12.4775 5.54461538,12.2954167 C5.98769231,12.1229167 6.35692308,11.8354167 6.67076923,11.4425 C6.98461538,11.0495833 7.22461538,10.5416667 7.39076923,9.90916667 C7.55692308,9.28625 7.64923077,8.51958333 7.64923077,7.61875 L7.64923077,5.77875 C7.64923077,4.87791667 7.56615385,4.11125 7.39076923,3.48833333 C7.22461538,2.85583333 6.98461538,2.34791667 6.67076923,1.96458333 C6.35692308,1.58125 5.97846154,1.29375 5.53538462,1.12125 Z M5.83076923,7.8775 L5.82153846,7.8775 C5.82153846,8.4525 5.78461538,8.94125 5.71076923,9.34375 C5.63692308,9.74625 5.52615385,10.0720833 5.37846154,10.32125 C5.23076923,10.5704167 5.04615385,10.7525 4.83384615,10.8675 C4.62153846,10.9825 4.36307692,11.04 4.07692308,11.04 C3.8,11.04 3.54153846,10.9825 3.32,10.8675 C3.09846154,10.7525 2.91384615,10.5704167 2.76615385,10.32125 C2.61846154,10.0720833 2.49846154,9.74625 2.41538462,9.34375 C2.33230769,8.94125 2.29538462,8.4525 2.29538462,7.8775 L2.29538462,5.48166667 C2.29538462,4.90666667 2.33230769,4.41791667 2.41538462,4.025 C2.49846154,3.63208333 2.60923077,3.31583333 2.76615385,3.06666667 C2.91384615,2.82708333 3.09846154,2.65458333 3.32,2.53958333 C3.54153846,2.43416667 3.79076923,2.37666667 4.06769231,2.37666667 C4.35384615,2.37666667 4.60307692,2.43416667 4.81538462,2.53958333 C5.03692308,2.645 5.22153846,2.8175 5.36923077,3.06666667 C5.51692308,3.30625 5.63692308,3.6225 5.71076923,4.01541667 C5.78461538,4.40833333 5.83076923,4.89708333 5.83076923,5.47208333 L5.83076923,7.8775 Z" id="path-3"></path>
        <path d="M6.28307692,5.27041667 C6.02461538,5.06916667 5.72,4.89666667 5.35076923,4.7625 C4.98153846,4.62833333 4.56615385,4.50375 4.10461538,4.39833333 C3.78153846,4.33125 3.51384615,4.25458333 3.30153846,4.17791667 C3.08923077,4.10125 2.92307692,4.02458333 2.79384615,3.93833333 C2.66461538,3.85208333 2.58153846,3.75625 2.53538462,3.65083333 C2.48923077,3.54541667 2.46153846,3.42083333 2.46153846,3.27708333 C2.46153846,3.14291667 2.48923077,3.00875 2.54461538,2.88416667 C2.6,2.75958333 2.68307692,2.64458333 2.79384615,2.55833333 C2.90461538,2.4625 3.04307692,2.38583333 3.20923077,2.32833333 C3.37538462,2.27083333 3.57846154,2.24208333 3.8,2.24208333 C4.03076923,2.24208333 4.23384615,2.28041667 4.40923077,2.3475 C4.58461538,2.41458333 4.73230769,2.51041667 4.85230769,2.62541667 C4.97230769,2.74041667 5.05538462,2.87458333 5.12,3.02791667 C5.17538462,3.18125 5.21230769,3.33458333 5.21230769,3.4975 L7.01230769,3.4975 C7.01230769,3.12375 6.93846154,2.77875 6.79076923,2.45291667 C6.64307692,2.12708333 6.43076923,1.84916667 6.15384615,1.60958333 C5.87692308,1.37 5.54461538,1.18791667 5.14769231,1.04416667 C4.75076923,0.900416667 4.29846154,0.833333333 3.8,0.833333333 C3.32923077,0.833333333 2.89538462,0.900416667 2.51692308,1.03458333 C2.13846154,1.16875 1.80615385,1.35083333 1.53846154,1.58083333 C1.27076923,1.81083333 1.06769231,2.07916667 0.92,2.38583333 C0.772307692,2.6925 0.707692308,3.00875 0.707692308,3.35375 C0.707692308,3.69875 0.781538462,4.015 0.92,4.27375 C1.05846154,4.54208333 1.25230769,4.77208333 1.51076923,4.97333333 C1.76,5.17458333 2.06461538,5.3375 2.41538462,5.48125 C2.76615385,5.61541667 3.16307692,5.73041667 3.58769231,5.82625 C3.94769231,5.90291667 4.24307692,5.98916667 4.46461538,6.07541667 C4.68615385,6.16166667 4.86153846,6.2575 4.99076923,6.35333333 C5.11076923,6.44916667 5.19384615,6.56416667 5.24,6.67916667 C5.28615385,6.79416667 5.30461538,6.91875 5.30461538,7.05291667 C5.30461538,7.35958333 5.18461538,7.59916667 4.93538462,7.79083333 C4.68615385,7.9825 4.32615385,8.06875 3.85538462,8.06875 C3.65230769,8.06875 3.45846154,8.04958333 3.26461538,7.99208333 C3.07076923,7.94416667 2.89538462,7.8675 2.74769231,7.76208333 C2.59076923,7.65666667 2.47076923,7.51291667 2.36923077,7.34041667 C2.26769231,7.16791667 2.21230769,6.9475 2.20307692,6.69833333 L0.458461538,6.69833333 C0.458461538,7.04333333 0.532307692,7.37875 0.68,7.70458333 C0.827692308,8.03041667 1.04,8.3275 1.32615385,8.59583333 C1.61230769,8.85458333 1.96307692,9.06541667 2.38769231,9.22833333 C2.81230769,9.39125 3.29230769,9.46791667 3.84615385,9.46791667 C4.33538462,9.46791667 4.77846154,9.41041667 5.17538462,9.28583333 C5.57230769,9.16125 5.91384615,8.98875 6.2,8.76833333 C6.48615385,8.54791667 6.69846154,8.27958333 6.85538462,7.97291667 C7.01230769,7.66625 7.08615385,7.33083333 7.08615385,6.95708333 C7.06769231,6.57375 7.00307692,6.24791667 6.86461538,5.97958333 C6.73538462,5.71125 6.54153846,5.47166667 6.28307692,5.27041667 Z" id="path-5"></path>
    </defs>
    <g id="icon/image/timer_10_24px" stroke="none" stroke-width="1" fill="none" fill-rule="evenodd">
        <g id="↳-Dark-Color" transform="translate(0.000000, 5.291667)">
            <mask id="mask-2" fill="white">
                <use xlink:href="#path-1"></use>
            </mask>
            <g id="Mask" fill-rule="nonzero"></g>
            <g id="✱-/-Color-/-Icons-/-Black-/-Inactive" mask="url(#mask-2)" fill="#000000" fill-opacity="0.54">
                <rect id="Rectangle" x="0" y="0" width="101" height="101"></rect>
            </g>
        </g>
        <g id="↳-Dark-Color" transform="translate(7.000000, 5.291667)">
            <mask id="mask-4" fill="white">
                <use xlink:href="#path-3"></use>
            </mask>
            <g id="Mask" fill-rule="nonzero"></g>
            <g id="✱-/-Color-/-Icons-/-Black-/-Inactive" mask="url(#mask-4)" fill="#000000" fill-opacity="0.54">
                <rect id="Rectangle" x="0" y="0" width="101" height="101"></rect>
            </g>
        </g>
        <g id="↳-Dark-Color" transform="translate(16.000000, 8.291667)">
            <mask id="mask-6" fill="white">
                <use xlink:href="#path-5"></use>
            </mask>
            <g id="Mask" fill-rule="nonzero"></g>
            <g id="✱-/-Color-/-Icons-/-Black-/-Inactive" mask="url(#mask-6)" fill="#000000" fill-opacity="0.54">
                <rect id="Rectangle" x="0" y="0" width="101" height="101"></rect>
            </g>
        </g>
    </g>
</svg>