<?xml version="1.0" encoding="UTF-8"?>
<svg width="24px" height="24px" viewBox="0 0 24 24" version="1.1" xmlns="http://www.w3.org/2000/svg" xmlns:xlink="http://www.w3.org/1999/xlink">
    <!-- Generator: Sketch 50 (54983) - http://www.bohemiancoding.com/sketch -->
    <title>icon/image/timer_off_24px_two_tone</title>
    <desc>Created with Sketch.</desc>
    <defs>
        <path d="M4,0 C2.88,0 1.82,0.27 0.88,0.74 L3,2.86 L3,2 L5,2 L5,4.86 L10.26,10.12 C10.73,9.18 11,8.12 11,7 C11,3.13 7.87,0 4,0 Z" id="path-1"></path>
        <path d="M7,11 C8.29,11 9.49,10.65 10.52,10.04 L0.96,0.48 C0.35,1.51 0,2.71 0,4 C0,7.87 3.13,11 7,11 Z" id="path-3"></path>
        <path d="M5,2 C8.87,2 12,5.13 12,9 C12,10.12 11.73,11.18 11.26,12.12 L12.73,13.59 C13.53,12.25 14,10.68 14,9 C14,6.88 13.26,4.93 12.03,3.39 L13.45,1.97 C13.02,1.46 12.55,0.98 12.04,0.56 L10.62,1.98 C9.07,0.74 7.12,0 5,0 C3.32,0 1.75,0.47 0.41,1.27 L1.88,2.74 C2.82,2.27 3.88,2 5,2 Z" id="path-5"></path>
        <polygon id="path-7" points="0 0 0 0.86 2 2.86 2 0"></polygon>
        <rect id="path-9" x="0" y="0" width="6" height="2"></rect>
        <path d="M2.16,0.86 L0.75,2.27 L3.5,5.02 C2.56,6.45 2,8.16 2,10 C2,14.97 6.02,19 11,19 C12.84,19 14.55,18.45 15.98,17.5 L18.48,20 L19.89,18.59 L2.16,0.86 Z M11,17 C7.13,17 4,13.87 4,10 C4,8.71 4.35,7.51 4.96,6.48 L14.53,16.05 C13.49,16.65 12.29,17 11,17 Z" id="path-11"></path>
    </defs>
    <g id="icon/image/timer_off_24px" stroke="none" stroke-width="1" fill="none" fill-rule="evenodd">
        <g id="↳-Light-Color" transform="translate(8.000000, 6.000000)">
            <mask id="mask-2" fill="white">
                <use xlink:href="#path-1"></use>
            </mask>
            <g id="Mask" opacity="0.3" fill-rule="nonzero"></g>
            <g id="✱-/-Color-/-Icons-/-Black-/-Disabled" mask="url(#mask-2)" fill="#000000" fill-opacity="0.38">
                <rect id="Rectangle" x="0" y="0" width="101" height="101"></rect>
            </g>
        </g>
        <g id="↳-Light-Color" transform="translate(5.000000, 9.000000)">
            <mask id="mask-4" fill="white">
                <use xlink:href="#path-3"></use>
            </mask>
            <g id="Mask" opacity="0.3" fill-rule="nonzero"></g>
            <g id="✱-/-Color-/-Icons-/-Black-/-Disabled" mask="url(#mask-4)" fill="#000000" fill-opacity="0.38">
                <rect id="Rectangle" x="0" y="0" width="101" height="101"></rect>
            </g>
        </g>
        <g id="↳-Dark-Color" transform="translate(7.000000, 4.000000)">
            <mask id="mask-6" fill="white">
                <use xlink:href="#path-5"></use>
            </mask>
            <g id="Mask" fill-rule="nonzero"></g>
            <g id="✱-/-Color-/-Icons-/-Black-/-Inactive" mask="url(#mask-6)" fill="#000000" fill-opacity="0.54">
                <rect id="Rectangle" x="0" y="0" width="101" height="101"></rect>
            </g>
        </g>
        <g id="↳-Dark-Color" transform="translate(11.000000, 8.000000)">
            <mask id="mask-8" fill="white">
                <use xlink:href="#path-7"></use>
            </mask>
            <g id="Mask" fill-rule="nonzero"></g>
            <g id="✱-/-Color-/-Icons-/-Black-/-Inactive" mask="url(#mask-8)" fill="#000000" fill-opacity="0.54">
                <rect id="Rectangle" x="0" y="0" width="101" height="101"></rect>
            </g>
        </g>
        <g id="↳-Dark-Color" transform="translate(9.000000, 1.000000)">
            <mask id="mask-10" fill="white">
                <use xlink:href="#path-9"></use>
            </mask>
            <g id="Mask" fill-rule="nonzero"></g>
            <g id="✱-/-Color-/-Icons-/-Black-/-Inactive" mask="url(#mask-10)" fill="#000000" fill-opacity="0.54">
                <rect id="Rectangle" x="0" y="0" width="101" height="101"></rect>
            </g>
        </g>
        <g id="↳-Dark-Color" transform="translate(1.000000, 3.000000)">
            <mask id="mask-12" fill="white">
                <use xlink:href="#path-11"></use>
            </mask>
            <g id="Mask" fill-rule="nonzero"></g>
            <g id="✱-/-Color-/-Icons-/-Black-/-Inactive" mask="url(#mask-12)" fill="#000000" fill-opacity="0.54">
                <rect id="Rectangle" x="0" y="0" width="101" height="101"></rect>
            </g>
        </g>
    </g>
</svg>