<?xml version="1.0" encoding="UTF-8"?>
<svg width="24px" height="24px" viewBox="0 0 24 24" version="1.1" xmlns="http://www.w3.org/2000/svg" xmlns:xlink="http://www.w3.org/1999/xlink">
    <!-- Generator: Sketch 50 (54983) - http://www.bohemiancoding.com/sketch -->
    <title>icon/image/timer_24px_two_tone</title>
    <desc>Created with Sketch.</desc>
    <defs>
        <path d="M7.07,0.01 C3.2,0.01 0.07,3.14 0.07,7.01 C0.07,10.88 3.2,14.01 7.07,14.01 C10.94,14.01 14.07,10.88 14.07,7.01 C14.07,3.14 10.94,0.01 7.07,0.01 Z M8.07,8.01 L6.07,8.01 L6.07,2.01 L8.07,2.01 L8.07,8.01 Z" id="path-1"></path>
        <rect id="path-3" x="0.07" y="0.01" width="6" height="2"></rect>
        <rect id="path-5" x="0.07" y="0.01" width="2" height="6"></rect>
        <path d="M16.1,3.39 L17.52,1.97 C17.09,1.46 16.62,0.98 16.11,0.56 L14.69,1.98 C13.14,0.74 11.19,0 9.07,0 C4.1,0 0.07,4.03 0.07,9 C0.07,13.97 4.09,18 9.07,18 C14.05,18 18.07,13.97 18.07,9 C18.07,6.89 17.33,4.93 16.1,3.39 Z M9.07,16.01 C5.2,16.01 2.07,12.88 2.07,9.01 C2.07,5.14 5.2,2.01 9.07,2.01 C12.94,2.01 16.07,5.14 16.07,9.01 C16.07,12.88 12.94,16.01 9.07,16.01 Z" id="path-7"></path>
    </defs>
    <g id="icon/image/timer_24px" stroke="none" stroke-width="1" fill="none" fill-rule="evenodd">
        <g id="↳-Light-Color" transform="translate(5.000000, 6.000000)">
            <mask id="mask-2" fill="white">
                <use xlink:href="#path-1"></use>
            </mask>
            <g id="Mask" opacity="0.3" fill-rule="nonzero"></g>
            <g id="✱-/-Color-/-Icons-/-Black-/-Disabled" mask="url(#mask-2)" fill="#000000" fill-opacity="0.38">
                <rect id="Rectangle" x="0" y="0" width="101" height="101"></rect>
            </g>
        </g>
        <g id="↳-Dark-Color" transform="translate(9.000000, 1.000000)">
            <mask id="mask-4" fill="white">
                <use xlink:href="#path-3"></use>
            </mask>
            <g id="Mask" fill-rule="nonzero"></g>
            <g id="✱-/-Color-/-Icons-/-Black-/-Inactive" mask="url(#mask-4)" fill="#000000" fill-opacity="0.54">
                <rect id="Rectangle" x="0" y="0" width="101" height="101"></rect>
            </g>
        </g>
        <g id="↳-Dark-Color" transform="translate(11.000000, 8.000000)">
            <mask id="mask-6" fill="white">
                <use xlink:href="#path-5"></use>
            </mask>
            <g id="Mask" fill-rule="nonzero"></g>
            <g id="✱-/-Color-/-Icons-/-Black-/-Inactive" mask="url(#mask-6)" fill="#000000" fill-opacity="0.54">
                <rect id="Rectangle" x="0" y="0" width="101" height="101"></rect>
            </g>
        </g>
        <g id="↳-Dark-Color" transform="translate(3.000000, 4.000000)">
            <mask id="mask-8" fill="white">
                <use xlink:href="#path-7"></use>
            </mask>
            <g id="Mask" fill-rule="nonzero"></g>
            <g id="✱-/-Color-/-Icons-/-Black-/-Inactive" mask="url(#mask-8)" fill="#000000" fill-opacity="0.54">
                <rect id="Rectangle" x="0" y="0" width="101" height="101"></rect>
            </g>
        </g>
    </g>
</svg>