<?xml version="1.0" encoding="UTF-8"?>
<svg width="24px" height="24px" viewBox="0 0 24 24" version="1.1" xmlns="http://www.w3.org/2000/svg" xmlns:xlink="http://www.w3.org/1999/xlink">
    <!-- Generator: Sketch 50 (54983) - http://www.bohemiancoding.com/sketch -->
    <title>icon/image/timelapse_24px_two_tone</title>
    <desc>Created with Sketch.</desc>
    <defs>
        <path d="M8,0.99 C3.58,0.99 0,4.57 0,8.99 C0,13.41 3.58,16.99 8,16.99 C12.42,16.99 16,13.41 16,8.99 C16,4.57 12.42,0.99 8,0.99 Z M12.25,13.23 C9.9,15.57 6.1,15.57 3.76,13.23 L8,8.99 L8,2.99 C9.54,2.99 11.07,3.58 12.24,4.75 C14.59,7.09 14.59,10.89 12.25,13.23 Z" id="path-1"></path>
        <path d="M9.24,2.75 C8.07,1.58 6.54,0.99 5,0.99 L5,6.99 L0.76,11.23 C3.1,13.57 6.9,13.57 9.25,11.23 C11.59,8.89 11.59,5.09 9.24,2.75 Z" id="path-3"></path>
        <path d="M10,0.99 C4.48,0.99 0,5.47 0,10.99 C0,16.51 4.48,20.99 10,20.99 C15.52,20.99 20,16.51 20,10.99 C20,5.47 15.52,0.99 10,0.99 Z M10,18.99 C5.58,18.99 2,15.41 2,10.99 C2,6.57 5.58,2.99 10,2.99 C14.42,2.99 18,6.57 18,10.99 C18,15.41 14.42,18.99 10,18.99 Z" id="path-5"></path>
    </defs>
    <g id="icon/image/timelapse_24px" stroke="none" stroke-width="1" fill="none" fill-rule="evenodd">
        <g id="↳-Light-Color" transform="translate(4.000000, 3.000000)">
            <mask id="mask-2" fill="white">
                <use xlink:href="#path-1"></use>
            </mask>
            <g id="Mask" opacity="0.3" fill-rule="nonzero"></g>
            <g id="✱-/-Color-/-Icons-/-Black-/-Disabled" mask="url(#mask-2)" fill="#000000" fill-opacity="0.38">
                <rect id="Rectangle" x="0" y="0" width="101" height="101"></rect>
            </g>
        </g>
        <g id="↳-Dark-Color" transform="translate(7.000000, 5.000000)">
            <mask id="mask-4" fill="white">
                <use xlink:href="#path-3"></use>
            </mask>
            <g id="Mask" fill-rule="nonzero"></g>
            <g id="✱-/-Color-/-Icons-/-Black-/-Inactive" mask="url(#mask-4)" fill="#000000" fill-opacity="0.54">
                <rect id="Rectangle" x="0" y="0" width="101" height="101"></rect>
            </g>
        </g>
        <g id="↳-Dark-Color" transform="translate(2.000000, 1.000000)">
            <mask id="mask-6" fill="white">
                <use xlink:href="#path-5"></use>
            </mask>
            <g id="Mask" fill-rule="nonzero"></g>
            <g id="✱-/-Color-/-Icons-/-Black-/-Inactive" mask="url(#mask-6)" fill="#000000" fill-opacity="0.54">
                <rect id="Rectangle" x="0" y="0" width="101" height="101"></rect>
            </g>
        </g>
    </g>
</svg>