<?xml version="1.0" encoding="UTF-8"?>
<svg width="24px" height="24px" viewBox="0 0 24 24" version="1.1" xmlns="http://www.w3.org/2000/svg" xmlns:xlink="http://www.w3.org/1999/xlink">
    <!-- Generator: Sketch 50 (54983) - http://www.bohemiancoding.com/sketch -->
    <title>icon/image/timer_3_24px_two_tone</title>
    <desc>Created with Sketch.</desc>
    <defs>
        <path d="M3.46,1.8 C3.58,1.7 3.73,1.62 3.91,1.56 C4.09,1.5 4.31,1.47 4.55,1.47 C4.8,1.47 5.02,1.51 5.21,1.58 C5.4,1.65 5.56,1.75 5.69,1.87 C5.82,1.99 5.91,2.13 5.98,2.29 C6.04,2.45 6.08,2.61 6.08,2.78 L8.03,2.78 C8.03,2.39 7.95,2.03 7.79,1.69 C7.63,1.35 7.4,1.06 7.1,0.81 C6.8,0.56 6.44,0.37 6.01,0.22 C5.58,0.07 5.09,0 4.55,0 C4.04,0 3.57,0.07 3.16,0.21 C2.75,0.35 2.39,0.54 2.1,0.78 C1.81,1.02 1.59,1.3 1.43,1.62 C1.27,1.94 1.2,2.27 1.2,2.63 C1.2,2.99 1.28,3.31 1.43,3.59 C1.58,3.87 1.8,4.11 2.07,4.32 C2.34,4.53 2.67,4.7 3.05,4.85 C3.43,4.99 3.86,5.11 4.32,5.21 C4.71,5.29 5.03,5.38 5.27,5.47 C5.51,5.56 5.7,5.66 5.84,5.76 C5.97,5.86 6.06,5.98 6.11,6.1 C6.16,6.22 6.18,6.35 6.18,6.49 C6.18,6.81 6.05,7.06 5.78,7.26 C5.51,7.46 5.12,7.55 4.61,7.55 C4.39,7.55 4.18,7.53 3.97,7.47 C3.76,7.42 3.57,7.34 3.41,7.23 C3.24,7.12 3.11,6.97 3,6.79 C2.89,6.61 2.83,6.38 2.82,6.12 L0.93,6.12 C0.93,6.48 1.01,6.83 1.17,7.17 C1.33,7.51 1.56,7.82 1.87,8.1 C2.18,8.37 2.56,8.59 3.02,8.76 C3.48,8.93 4,9.01 4.6,9.01 C5.13,9.01 5.61,8.95 6.04,8.82 C6.47,8.69 6.84,8.51 7.15,8.28 C7.46,8.05 7.69,7.77 7.86,7.45 C8.03,7.13 8.11,6.78 8.11,6.39 C8.09,5.99 8.02,5.65 7.87,5.37 C7.73,5.09 7.52,4.84 7.24,4.63 C6.96,4.42 6.63,4.24 6.23,4.1 C5.83,3.96 5.38,3.83 4.88,3.72 C4.53,3.65 4.24,3.57 4.01,3.49 C3.78,3.41 3.6,3.33 3.46,3.24 C3.32,3.15 3.23,3.05 3.18,2.94 C3.13,2.83 3.1,2.7 3.1,2.55 C3.1,2.4 3.13,2.27 3.19,2.14 C3.25,2.01 3.34,1.89 3.46,1.8 Z" id="path-1"></path>
        <path d="M4.12,11.51 C3.83,11.51 3.56,11.47 3.32,11.38 C3.08,11.3 2.88,11.18 2.71,11.02 C2.54,10.86 2.41,10.68 2.32,10.46 C2.23,10.24 2.18,10 2.18,9.74 L0.19,9.74 C0.19,10.29 0.3,10.77 0.51,11.19 C0.72,11.61 1.01,11.96 1.37,12.24 C1.73,12.52 2.14,12.73 2.61,12.87 C3.08,13.01 3.57,13.08 4.09,13.08 C4.66,13.08 5.18,13 5.67,12.85 C6.16,12.7 6.58,12.47 6.93,12.17 C7.29,11.87 7.57,11.51 7.77,11.07 C7.97,10.64 8.07,10.14 8.07,9.59 C8.07,9.3 8.03,9.01 7.96,8.73 C7.88,8.48 7.77,8.22 7.61,7.97 C7.45,7.73 7.25,7.51 6.99,7.32 C6.74,7.13 6.43,6.97 6.06,6.84 C6.36,6.7 6.63,6.54 6.86,6.34 C7.09,6.14 7.28,5.93 7.43,5.7 C7.58,5.47 7.7,5.24 7.77,4.99 C7.85,4.75 7.88,4.5 7.88,4.26 C7.88,3.71 7.79,3.22 7.6,2.8 C7.42,2.38 7.16,2.03 6.82,1.74 C6.49,1.46 6.09,1.24 5.62,1.1 C5.17,0.97 4.65,0.9 4.09,0.9 C3.54,0.9 3.03,0.98 2.57,1.14 C2.1,1.31 1.7,1.54 1.37,1.83 C1.04,2.12 0.77,2.46 0.59,2.86 C0.39,3.25 0.3,3.69 0.3,4.15 L2.28,4.15 C2.28,3.89 2.33,3.66 2.42,3.46 C2.51,3.26 2.64,3.08 2.8,2.94 C2.97,2.8 3.16,2.69 3.38,2.61 C3.6,2.53 3.84,2.49 4.11,2.49 C4.72,2.49 5.17,2.65 5.47,2.96 C5.77,3.27 5.91,3.71 5.91,4.28 C5.91,4.55 5.87,4.8 5.79,5.02 C5.71,5.24 5.58,5.43 5.41,5.59 C5.24,5.75 5.03,5.87 4.78,5.96 C4.53,6.05 4.23,6.09 3.89,6.09 L2.72,6.09 L2.72,7.66 L3.9,7.66 C4.24,7.66 4.54,7.7 4.81,7.77 C5.08,7.85 5.31,7.96 5.5,8.12 C5.69,8.28 5.84,8.48 5.94,8.73 C6.04,8.97 6.1,9.27 6.1,9.6 C6.1,10.22 5.92,10.69 5.57,11.02 C5.22,11.35 4.73,11.51 4.12,11.51 Z" id="path-3"></path>
    </defs>
    <g id="icon/image/timer_3_24px" stroke="none" stroke-width="1" fill="none" fill-rule="evenodd">
        <g id="↳-Dark-Color" transform="translate(13.000000, 9.000000)">
            <mask id="mask-2" fill="white">
                <use xlink:href="#path-1"></use>
            </mask>
            <g id="Mask" fill-rule="nonzero"></g>
            <g id="✱-/-Color-/-Icons-/-Black-/-Inactive" mask="url(#mask-2)" fill="#000000" fill-opacity="0.54">
                <rect id="Rectangle" x="0" y="0" width="101" height="101"></rect>
            </g>
        </g>
        <g id="↳-Dark-Color" transform="translate(4.000000, 5.000000)">
            <mask id="mask-4" fill="white">
                <use xlink:href="#path-3"></use>
            </mask>
            <g id="Mask" fill-rule="nonzero"></g>
            <g id="✱-/-Color-/-Icons-/-Black-/-Inactive" mask="url(#mask-4)" fill="#000000" fill-opacity="0.54">
                <rect id="Rectangle" x="0" y="0" width="101" height="101"></rect>
            </g>
        </g>
    </g>
</svg>