<?xml version="1.0" encoding="UTF-8"?>
<svg width="24px" height="24px" viewBox="0 0 24 24" version="1.1" xmlns="http://www.w3.org/2000/svg" xmlns:xlink="http://www.w3.org/1999/xlink">
    <!-- Generator: Sketch 50 (54983) - http://www.bohemiancoding.com/sketch -->
    <title>icon/image/transform_24px_two_tone</title>
    <desc>Created with Sketch.</desc>
    <defs>
        <path d="M6,3 L8,3 L5,0 L2,3 L4,3 L4,5 L0,5 L0,7 L4,7 L4,15 C4,16.1 4.9,17 6,17 L14,17 L14,19 L12,19 L15,22 L18,19 L16,19 L16,17 L20,17 L20,15 L6,15 L6,3 Z" id="path-1"></path>
        <path d="M8,8 L8,2 C8,0.9 7.1,0 6,0 L0,0 L0,2 L6,2 L6,8 L8,8 Z" id="path-3"></path>
    </defs>
    <g id="icon/image/transform_24px" stroke="none" stroke-width="1" fill="none" fill-rule="evenodd">
        <g id="↳-Dark-Color" transform="translate(2.000000, 1.000000)">
            <mask id="mask-2" fill="white">
                <use xlink:href="#path-1"></use>
            </mask>
            <g id="Mask" fill-rule="nonzero"></g>
            <g id="✱-/-Color-/-Icons-/-Black-/-Inactive" mask="url(#mask-2)" fill="#000000" fill-opacity="0.54">
                <rect id="Rectangle" x="0" y="0" width="101" height="101"></rect>
            </g>
        </g>
        <g id="↳-Dark-Color" transform="translate(10.000000, 6.000000)">
            <mask id="mask-4" fill="white">
                <use xlink:href="#path-3"></use>
            </mask>
            <g id="Mask" fill-rule="nonzero"></g>
            <g id="✱-/-Color-/-Icons-/-Black-/-Inactive" mask="url(#mask-4)" fill="#000000" fill-opacity="0.54">
                <rect id="Rectangle" x="0" y="0" width="101" height="101"></rect>
            </g>
        </g>
    </g>
</svg>