<?xml version="1.0" encoding="UTF-8"?>
<svg width="24px" height="24px" viewBox="0 0 24 24" version="1.1" xmlns="http://www.w3.org/2000/svg" xmlns:xlink="http://www.w3.org/1999/xlink">
    <!-- Generator: Sketch 50 (54983) - http://www.bohemiancoding.com/sketch -->
    <title>icon/image/wb_auto_24px_two_tone</title>
    <desc>Created with Sketch.</desc>
    <defs>
        <path d="M6,0 C2.69,0 0,2.69 0,6 C0,9.31 2.69,12 6,12 C8.35,12 10.38,10.64 11.36,8.68 L11.37,8.67 C11.77,7.86 12,6.96 12,6 C12,2.69 9.31,0 6,0 Z M8.3,10 L7.6,8 L4.4,8 L3.7,10 L1.8,10 L5,1 L7,1 L10.2,10 L8.3,10 Z" id="path-1"></path>
        <polygon id="path-3" points="0.85 3.65 3.15 3.65 2 0"></polygon>
        <path d="M4,0 L0.8,9 L2.7,9 L3.4,7 L6.6,7 L7.3,9 L9.2,9 L6,0 L4,0 Z M3.85,5.65 L5,2 L6.15,5.65 L3.85,5.65 Z" id="path-5"></path>
        <path d="M20.8,9.29 L19.3,3 L17.7,3 L16.21,9.29 L15,3 L14.24,3 L14.23,3.01 C12.76,1.18 10.53,0 8,0 C3.58,0 0,3.58 0,8 C0,12.42 3.58,16 8,16 C10.96,16 13.55,14.39 14.93,12 C14.96,11.94 14.98,11.88 15.01,11.82 C15.06,11.74 15.1,11.65 15.15,11.57 L15.25,12 L17,12 L18.5,5.9 L20,12 L21.75,12 L23.8,3 L22,3 L20.8,9.29 Z M13.37,10.67 C12.38,12.64 10.35,14 8,14 C4.69,14 2,11.31 2,8 C2,4.69 4.69,2 8,2 C11.31,2 14,4.69 14,8 C14,8.96 13.77,9.86 13.37,10.67 Z" id="path-7"></path>
    </defs>
    <g id="icon/image/wb_auto_24px" stroke="none" stroke-width="1" fill="none" fill-rule="evenodd">
        <g id="↳-Light-Color" transform="translate(2.000000, 6.000000)">
            <mask id="mask-2" fill="white">
                <use xlink:href="#path-1"></use>
            </mask>
            <g id="Mask" opacity="0.3" fill-rule="nonzero"></g>
            <g id="✱-/-Color-/-Icons-/-Black-/-Disabled" mask="url(#mask-2)" fill="#000000" fill-opacity="0.38">
                <rect id="Rectangle" x="0" y="0" width="101" height="101"></rect>
            </g>
        </g>
        <g id="↳-Light-Color" transform="translate(6.000000, 9.000000)">
            <mask id="mask-4" fill="white">
                <use xlink:href="#path-3"></use>
            </mask>
            <g id="Mask" opacity="0.3" fill-rule="nonzero"></g>
            <g id="✱-/-Color-/-Icons-/-Black-/-Disabled" mask="url(#mask-4)" fill="#000000" fill-opacity="0.38">
                <rect id="Rectangle" x="0" y="0" width="101" height="101"></rect>
            </g>
        </g>
        <g id="↳-Dark-Color" transform="translate(3.000000, 7.000000)">
            <mask id="mask-6" fill="white">
                <use xlink:href="#path-5"></use>
            </mask>
            <g id="Mask" fill-rule="nonzero"></g>
            <g id="✱-/-Color-/-Icons-/-Black-/-Inactive" mask="url(#mask-6)" fill="#000000" fill-opacity="0.54">
                <rect id="Rectangle" x="0" y="0" width="101" height="101"></rect>
            </g>
        </g>
        <g id="↳-Dark-Color" transform="translate(0.000000, 4.000000)">
            <mask id="mask-8" fill="white">
                <use xlink:href="#path-7"></use>
            </mask>
            <g id="Mask" fill-rule="nonzero"></g>
            <g id="✱-/-Color-/-Icons-/-Black-/-Inactive" mask="url(#mask-8)" fill="#000000" fill-opacity="0.54">
                <rect id="Rectangle" x="0" y="0" width="101" height="101"></rect>
            </g>
        </g>
    </g>
</svg>