<?xml version="1.0" encoding="UTF-8"?>
<svg width="24px" height="24px" viewBox="0 0 24 24" version="1.1" xmlns="http://www.w3.org/2000/svg" xmlns:xlink="http://www.w3.org/1999/xlink">
    <!-- Generator: Sketch 50 (54983) - http://www.bohemiancoding.com/sketch -->
    <title>icon/image/wb_incandescent_24px_two_tone</title>
    <desc>Created with Sketch.</desc>
    <defs>
        <path d="M6,4.59 L5,4.01 L5,2.86 L5,0.05 L3,0.05 L3,2.86 L3,4.01 L2,4.59 C0.76,5.31 0,6.63 0,8.05 C0,10.26 1.79,12.05 4,12.05 C6.21,12.05 8,10.26 8,8.05 C8,6.63 7.23,5.31 6,4.59 Z" id="path-1"></path>
        <polygon id="path-3" points="0.55 2.09 1.96 3.5 3.75 1.7 2.34 0.29"></polygon>
        <rect id="path-5" x="0" y="0" width="2" height="3"></rect>
        <rect id="path-7" x="0" y="0" width="3" height="2"></rect>
        <path d="M9,4.86 L9,0.05 L3,0.05 L3,4.86 C1.21,5.9 0,7.83 0,10.05 C0,13.36 2.69,16.05 6,16.05 C9.31,16.05 12,13.36 12,10.05 C12,7.83 10.79,5.9 9,4.86 Z M6,14.05 C3.79,14.05 2,12.26 2,10.05 C2,8.63 2.77,7.31 4,6.59 L5,6.01 L5,4.86 L5,2.05 L7,2.05 L7,4.86 L7,6.01 L8,6.59 C9.24,7.31 10,8.63 10,10.05 C10,12.26 8.21,14.05 6,14.05 Z" id="path-9"></path>
        <rect id="path-11" x="0" y="0" width="3" height="2"></rect>
        <polygon id="path-13" points="0.24 1.71 2.03 3.51 3.44 2.1 1.64 0.31"></polygon>
    </defs>
    <g id="icon/image/wb_incandescent_24px" stroke="none" stroke-width="1" fill="none" fill-rule="evenodd">
        <g id="↳-Light-Color" transform="translate(8.000000, 4.000000)">
            <mask id="mask-2" fill="white">
                <use xlink:href="#path-1"></use>
            </mask>
            <g id="Mask" opacity="0.3" fill-rule="nonzero"></g>
            <g id="✱-/-Color-/-Icons-/-Black-/-Disabled" mask="url(#mask-2)" fill="#000000" fill-opacity="0.38">
                <rect id="Rectangle" x="0" y="0" width="101" height="101"></rect>
            </g>
        </g>
        <g id="↳-Dark-Color" transform="translate(3.000000, 17.000000)">
            <mask id="mask-4" fill="white">
                <use xlink:href="#path-3"></use>
            </mask>
            <g id="Mask" fill-rule="nonzero"></g>
            <g id="✱-/-Color-/-Icons-/-Black-/-Inactive" mask="url(#mask-4)" fill="#000000" fill-opacity="0.54">
                <rect id="Rectangle" x="0" y="0" width="101" height="101"></rect>
            </g>
        </g>
        <g id="↳-Dark-Color" transform="translate(11.000000, 20.000000)">
            <mask id="mask-6" fill="white">
                <use xlink:href="#path-5"></use>
            </mask>
            <g id="Mask" fill-rule="nonzero"></g>
            <g id="✱-/-Color-/-Icons-/-Black-/-Inactive" mask="url(#mask-6)" fill="#000000" fill-opacity="0.54">
                <rect id="Rectangle" x="0" y="0" width="101" height="101"></rect>
            </g>
        </g>
        <g id="↳-Dark-Color" transform="translate(1.000000, 11.000000)">
            <mask id="mask-8" fill="white">
                <use xlink:href="#path-7"></use>
            </mask>
            <g id="Mask" fill-rule="nonzero"></g>
            <g id="✱-/-Color-/-Icons-/-Black-/-Inactive" mask="url(#mask-8)" fill="#000000" fill-opacity="0.54">
                <rect id="Rectangle" x="0" y="0" width="101" height="101"></rect>
            </g>
        </g>
        <g id="↳-Dark-Color" transform="translate(6.000000, 2.000000)">
            <mask id="mask-10" fill="white">
                <use xlink:href="#path-9"></use>
            </mask>
            <g id="Mask" fill-rule="nonzero"></g>
            <g id="✱-/-Color-/-Icons-/-Black-/-Inactive" mask="url(#mask-10)" fill="#000000" fill-opacity="0.54">
                <rect id="Rectangle" x="0" y="0" width="101" height="101"></rect>
            </g>
        </g>
        <g id="↳-Dark-Color" transform="translate(20.000000, 11.000000)">
            <mask id="mask-12" fill="white">
                <use xlink:href="#path-11"></use>
            </mask>
            <g id="Mask" fill-rule="nonzero"></g>
            <g id="✱-/-Color-/-Icons-/-Black-/-Inactive" mask="url(#mask-12)" fill="#000000" fill-opacity="0.54">
                <rect id="Rectangle" x="0" y="0" width="101" height="101"></rect>
            </g>
        </g>
        <g id="↳-Dark-Color" transform="translate(17.000000, 17.000000)">
            <mask id="mask-14" fill="white">
                <use xlink:href="#path-13"></use>
            </mask>
            <g id="Mask" fill-rule="nonzero"></g>
            <g id="✱-/-Color-/-Icons-/-Black-/-Inactive" mask="url(#mask-14)" fill="#000000" fill-opacity="0.54">
                <rect id="Rectangle" x="0" y="0" width="101" height="101"></rect>
            </g>
        </g>
    </g>
</svg>