<?xml version="1.0" encoding="UTF-8"?>
<svg width="24px" height="24px" viewBox="0 0 24 24" version="1.1" xmlns="http://www.w3.org/2000/svg" xmlns:xlink="http://www.w3.org/1999/xlink">
    <!-- Generator: Sketch 50 (54983) - http://www.bohemiancoding.com/sketch -->
    <title>icon/hardware/cast_for_education_24px_two_tone</title>
    <desc>Created with Sketch.</desc>
    <defs>
        <path d="M20,0 L2,0 C0.9,0 0,0.9 0,2 L0,5 L2,5 L2,2 L20,2 L20,16 L13,16 L13,18 L20,18 C21.1,18 22,17.1 22,16 L22,2 C22,0.9 21.1,0 20,0 Z M0,15 L0,18 L3,18 C3,16.34 1.66,15 0,15 Z M0,11 L0,13 C2.76,13 5,15.24 5,18 L7,18 C7,14.13 3.87,11 0,11 Z M0,7 L0,9 C4.97,9 9,13.03 9,18 L11,18 C11,11.92 6.07,7 0,7 Z M10,8.09 L10,10.09 L13.5,12 L17,10.09 L17,8.09 L13.5,10 L10,8.09 Z M13.5,3 L8,6 L13.5,9 L19,6 L13.5,3 Z" id="path-1"></path>
    </defs>
    <g id="icon/hardware/cast_for_education_24px" stroke="none" stroke-width="1" fill="none" fill-rule="evenodd">
        <g id="↳-Dark-Color" transform="translate(1.000000, 3.000000)">
            <mask id="mask-2" fill="white">
                <use xlink:href="#path-1"></use>
            </mask>
            <g id="Mask" fill-rule="nonzero"></g>
            <g id="✱-/-Color-/-Icons-/-Black-/-Inactive" mask="url(#mask-2)" fill="#000000" fill-opacity="0.54">
                <rect id="Rectangle" x="0" y="0" width="101" height="101"></rect>
            </g>
        </g>
    </g>
</svg>