<?xml version="1.0" encoding="UTF-8"?>
<svg width="24px" height="24px" viewBox="0 0 24 24" version="1.1" xmlns="http://www.w3.org/2000/svg" xmlns:xlink="http://www.w3.org/1999/xlink">
    <!-- Generator: Sketch 50 (54983) - http://www.bohemiancoding.com/sketch -->
    <title>icon/hardware/device_hub_24px_two_tone</title>
    <desc>Created with Sketch.</desc>
    <defs>
        <path d="M14,13 L10,9 L10,5.82 C11.16,5.4 12,4.3 12,3 C12,1.34 10.66,0 9,0 C7.34,0 6,1.34 6,3 C6,4.3 6.84,5.4 8,5.82 L8,9 L4,13 L0,13 L0,18 L5,18 L5,14.95 L9,10.75 L13,14.95 L13,18 L18,18 L18,13 L14,13 Z" id="path-1"></path>
    </defs>
    <g id="icon/hardware/device_hub_24px" stroke="none" stroke-width="1" fill="none" fill-rule="evenodd">
        <g id="↳-Dark-Color" transform="translate(3.000000, 3.000000)">
            <mask id="mask-2" fill="white">
                <use xlink:href="#path-1"></use>
            </mask>
            <g id="Mask" fill-rule="nonzero"></g>
            <g id="✱-/-Color-/-Icons-/-Black-/-Inactive" mask="url(#mask-2)" fill="#000000" fill-opacity="0.54">
                <rect id="Rectangle" x="0" y="0" width="101" height="101"></rect>
            </g>
        </g>
    </g>
</svg>