<?xml version="1.0" encoding="UTF-8"?>
<svg width="24px" height="24px" viewBox="0 0 24 24" version="1.1" xmlns="http://www.w3.org/2000/svg" xmlns:xlink="http://www.w3.org/1999/xlink">
    <!-- Generator: Sketch 50 (54983) - http://www.bohemiancoding.com/sketch -->
    <title>icon/hardware/headset_mic_24px_two_tone</title>
    <desc>Created with Sketch.</desc>
    <defs>
        <path d="M0,3 C0,3.55 0.45,4 1,4 L2,4 L2,0 L0,0 L0,3 Z" id="path-1"></path>
        <rect id="path-3" x="0" y="0" width="2" height="4"></rect>
        <path d="M9,0 C4.03,0 0,4.03 0,9 L0,16 C0,17.66 1.34,19 3,19 L6,19 L6,11 L2,11 L2,9 C2,5.13 5.13,2 9,2 C12.87,2 16,5.13 16,9 L16,11 L12,11 L12,19 L16,19 L16,20 L9,20 L9,22 L15,22 C16.66,22 18,20.66 18,19 L18,9 C18,4.03 13.97,0 9,0 Z M4,13 L4,17 L3,17 C2.45,17 2,16.55 2,16 L2,13 L4,13 Z M16,17 L14,17 L14,13 L16,13 L16,17 Z" id="path-5"></path>
    </defs>
    <g id="icon/hardware/headset_mic_24px" stroke="none" stroke-width="1" fill="none" fill-rule="evenodd">
        <g id="↳-Light-Color" transform="translate(5.000000, 14.000000)">
            <mask id="mask-2" fill="white">
                <use xlink:href="#path-1"></use>
            </mask>
            <g id="Mask" opacity="0.3" fill-rule="nonzero"></g>
            <g id="✱-/-Color-/-Icons-/-Black-/-Disabled" mask="url(#mask-2)" fill="#000000" fill-opacity="0.38">
                <rect id="Rectangle" x="0" y="0" width="101" height="101"></rect>
            </g>
        </g>
        <g id="↳-Light-Color" transform="translate(17.000000, 14.000000)">
            <mask id="mask-4" fill="white">
                <use xlink:href="#path-3"></use>
            </mask>
            <g id="Mask" opacity="0.3" fill-rule="nonzero"></g>
            <g id="✱-/-Color-/-Icons-/-Black-/-Disabled" mask="url(#mask-4)" fill="#000000" fill-opacity="0.38">
                <rect id="Rectangle" x="0" y="0" width="101" height="101"></rect>
            </g>
        </g>
        <g id="↳-Dark-Color" transform="translate(3.000000, 1.000000)">
            <mask id="mask-6" fill="white">
                <use xlink:href="#path-5"></use>
            </mask>
            <g id="Mask" fill-rule="nonzero"></g>
            <g id="✱-/-Color-/-Icons-/-Black-/-Inactive" mask="url(#mask-6)" fill="#000000" fill-opacity="0.54">
                <rect id="Rectangle" x="0" y="0" width="101" height="101"></rect>
            </g>
        </g>
    </g>
</svg>