<?xml version="1.0" encoding="UTF-8"?>
<svg width="24px" height="24px" viewBox="0 0 24 24" version="1.1" xmlns="http://www.w3.org/2000/svg" xmlns:xlink="http://www.w3.org/1999/xlink">
    <!-- Generator: Sketch 50 (54983) - http://www.bohemiancoding.com/sketch -->
    <title>icon/hardware/keyboard_voice_24px_two_tone</title>
    <desc>Created with Sketch.</desc>
    <defs>
        <path d="M2,9.3 C2.66,9.3 3.19,8.76 3.19,8.1 L3.2,1.9 C3.2,1.24 2.66,0.7 2,0.7 C1.34,0.7 0.8,1.24 0.8,1.9 L0.8,8.1 C0.8,8.76 1.34,9.3 2,9.3 Z" id="path-1"></path>
        <path d="M3,12 C4.66,12 5.99,10.66 5.99,9 L6,3 C6,1.34 4.66,0 3,0 C1.34,0 0,1.34 0,3 L0,9 C0,10.66 1.34,12 3,12 Z M1.8,2.9 C1.8,2.24 2.34,1.7 3,1.7 C3.66,1.7 4.2,2.24 4.2,2.9 L4.19,9.1 C4.19,9.76 3.66,10.3 3,10.3 C2.34,10.3 1.8,9.76 1.8,9.1 L1.8,2.9 Z" id="path-3"></path>
        <path d="M12.3,0 C12.3,3 9.76,5.1 7,5.1 C4.24,5.1 1.7,3 1.7,0 L0,0 C0,3.41 2.72,6.23 6,6.72 L6,10 L8,10 L8,6.72 C11.28,6.24 14,3.42 14,0 L12.3,0 Z" id="path-5"></path>
    </defs>
    <g id="icon/hardware/keyboard_voice_24px" stroke="none" stroke-width="1" fill="none" fill-rule="evenodd">
        <g id="↳-Light-Color" transform="translate(10.000000, 4.000000)">
            <mask id="mask-2" fill="white">
                <use xlink:href="#path-1"></use>
            </mask>
            <g id="Mask" opacity="0.3" fill-rule="nonzero"></g>
            <g id="✱-/-Color-/-Icons-/-Black-/-Disabled" mask="url(#mask-2)" fill="#000000" fill-opacity="0.38">
                <rect id="Rectangle" x="0" y="0" width="101" height="101"></rect>
            </g>
        </g>
        <g id="↳-Dark-Color" transform="translate(9.000000, 3.000000)">
            <mask id="mask-4" fill="white">
                <use xlink:href="#path-3"></use>
            </mask>
            <g id="Mask" fill-rule="nonzero"></g>
            <g id="✱-/-Color-/-Icons-/-Black-/-Inactive" mask="url(#mask-4)" fill="#000000" fill-opacity="0.54">
                <rect id="Rectangle" x="0" y="0" width="101" height="101"></rect>
            </g>
        </g>
        <g id="↳-Dark-Color" transform="translate(5.000000, 12.000000)">
            <mask id="mask-6" fill="white">
                <use xlink:href="#path-5"></use>
            </mask>
            <g id="Mask" fill-rule="nonzero"></g>
            <g id="✱-/-Color-/-Icons-/-Black-/-Inactive" mask="url(#mask-6)" fill="#000000" fill-opacity="0.54">
                <rect id="Rectangle" x="0" y="0" width="101" height="101"></rect>
            </g>
        </g>
    </g>
</svg>