<?xml version="1.0" encoding="UTF-8"?>
<svg width="24px" height="24px" viewBox="0 0 24 24" version="1.1" xmlns="http://www.w3.org/2000/svg" xmlns:xlink="http://www.w3.org/1999/xlink">
    <!-- Generator: Sketch 50 (54983) - http://www.bohemiancoding.com/sketch -->
    <title>icon/hardware/laptop_mac_24px_two_tone</title>
    <desc>Created with Sketch.</desc>
    <defs>
        <rect id="path-1" x="0" y="0" width="16" height="11"></rect>
        <path d="M20,15 C21.1,15 21.99,14.1 21.99,13 L22,2 C22,0.9 21.1,0 20,0 L4,0 C2.9,0 2,0.9 2,2 L2,13 C2,14.1 2.9,15 4,15 L0,15 C0,16.1 0.9,17 2,17 L22,17 C23.1,17 24,16.1 24,15 L20,15 Z M4,2 L20,2 L20,13 L4,13 L4,2 Z M12,16 C11.45,16 11,15.55 11,15 C11,14.45 11.45,14 12,14 C12.55,14 13,14.45 13,15 C13,15.55 12.55,16 12,16 Z" id="path-3"></path>
    </defs>
    <g id="icon/hardware/laptop_mac_24px" stroke="none" stroke-width="1" fill="none" fill-rule="evenodd">
        <g id="↳-Light-Color" transform="translate(4.000000, 5.000000)">
            <mask id="mask-2" fill="white">
                <use xlink:href="#path-1"></use>
            </mask>
            <g id="Mask" opacity="0.3" fill-rule="nonzero"></g>
            <g id="✱-/-Color-/-Icons-/-Black-/-Disabled" mask="url(#mask-2)" fill="#000000" fill-opacity="0.38">
                <rect id="Rectangle" x="0" y="0" width="101" height="101"></rect>
            </g>
        </g>
        <g id="↳-Dark-Color" transform="translate(0.000000, 3.000000)">
            <mask id="mask-4" fill="white">
                <use xlink:href="#path-3"></use>
            </mask>
            <g id="Mask" fill-rule="nonzero"></g>
            <g id="✱-/-Color-/-Icons-/-Black-/-Inactive" mask="url(#mask-4)" fill="#000000" fill-opacity="0.54">
                <rect id="Rectangle" x="0" y="0" width="101" height="101"></rect>
            </g>
        </g>
    </g>
</svg>