<?xml version="1.0" encoding="UTF-8"?>
<svg width="24px" height="24px" viewBox="0 0 24 24" version="1.1" xmlns="http://www.w3.org/2000/svg" xmlns:xlink="http://www.w3.org/1999/xlink">
    <!-- Generator: Sketch 50 (54983) - http://www.bohemiancoding.com/sketch -->
    <title>icon/hardware/memory_24px_two_tone</title>
    <desc>Created with Sketch.</desc>
    <defs>
        <path d="M0,10 L10,10 L10,0 L0,0 L0,10 Z M2,2 L8,2 L8,8 L2,8 L2,2 Z" id="path-1"></path>
        <path d="M18,8 L18,6 L16,6 L16,4 C16,2.9 15.1,2 14,2 L12,2 L12,0 L10,0 L10,2 L8,2 L8,0 L6,0 L6,2 L4,2 C2.9,2 2,2.9 2,4 L2,6 L0,6 L0,8 L2,8 L2,10 L0,10 L0,12 L2,12 L2,14 C2,15.1 2.9,16 4,16 L6,16 L6,18 L8,18 L8,16 L10,16 L10,18 L12,18 L12,16 L14,16 C15.1,16 16,15.1 16,14 L16,12 L18,12 L18,10 L16,10 L16,8 L18,8 Z M14,14 L4,14 L4,4 L14,4 L14,14 Z" id="path-3"></path>
        <path d="M6,0 L0,0 L0,6 L6,6 L6,0 Z M4,4 L2,4 L2,2 L4,2 L4,4 Z" id="path-5"></path>
    </defs>
    <g id="icon/hardware/memory_24px" stroke="none" stroke-width="1" fill="none" fill-rule="evenodd">
        <g id="↳-Light-Color" transform="translate(7.000000, 7.000000)">
            <mask id="mask-2" fill="white">
                <use xlink:href="#path-1"></use>
            </mask>
            <g id="Mask" opacity="0.3" fill-rule="nonzero"></g>
            <g id="✱-/-Color-/-Icons-/-Black-/-Disabled" mask="url(#mask-2)" fill="#000000" fill-opacity="0.38">
                <rect id="Rectangle" x="0" y="0" width="101" height="101"></rect>
            </g>
        </g>
        <g id="↳-Dark-Color" transform="translate(3.000000, 3.000000)">
            <mask id="mask-4" fill="white">
                <use xlink:href="#path-3"></use>
            </mask>
            <g id="Mask" fill-rule="nonzero"></g>
            <g id="✱-/-Color-/-Icons-/-Black-/-Inactive" mask="url(#mask-4)" fill="#000000" fill-opacity="0.54">
                <rect id="Rectangle" x="0" y="0" width="101" height="101"></rect>
            </g>
        </g>
        <g id="↳-Dark-Color" transform="translate(9.000000, 9.000000)">
            <mask id="mask-6" fill="white">
                <use xlink:href="#path-5"></use>
            </mask>
            <g id="Mask" fill-rule="nonzero"></g>
            <g id="✱-/-Color-/-Icons-/-Black-/-Inactive" mask="url(#mask-6)" fill="#000000" fill-opacity="0.54">
                <rect id="Rectangle" x="0" y="0" width="101" height="101"></rect>
            </g>
        </g>
    </g>
</svg>