<?xml version="1.0" encoding="UTF-8"?>
<svg width="24px" height="24px" viewBox="0 0 24 24" version="1.1" xmlns="http://www.w3.org/2000/svg" xmlns:xlink="http://www.w3.org/1999/xlink">
    <!-- Generator: Sketch 50 (54983) - http://www.bohemiancoding.com/sketch -->
    <title>icon/hardware/mouse_24px_two_tone</title>
    <desc>Created with Sketch.</desc>
    <defs>
        <path d="M0,0.16 L0,6 L5,6 C4.96,3.06 2.81,0.63 0,0.16 Z" id="path-1"></path>
        <path d="M5,0.16 C2.19,0.63 0.04,3.06 0,6 L5,6 L5,0.16 Z" id="path-3"></path>
        <path d="M5,0 L0,0 L0,4 C0,7.31 2.69,10 6,10 C9.31,10 12,7.31 12,4 L12,0 L7,0 L5,0 Z" id="path-5"></path>
        <path d="M16,8 C15.96,3.61 12.4,0.07 8,0.07 C3.6,0.07 0.04,3.61 0,8 L0,8.07 L0,10 L0,14 C0,18.42 3.58,22 8,22 C12.42,22 16,18.42 16,14 L16,10 L16,8.07 L16,8 Z M9,2.16 C11.81,2.63 13.96,5.06 14,8 L9,8 L9,2.16 Z M7,2.16 L7,8 L2,8 C2.04,5.06 4.19,2.63 7,2.16 Z M14,14 C14,17.31 11.31,20 8,20 C4.69,20 2,17.31 2,14 L2,10 L7,10 L9,10 L14,10 L14,14 Z" id="path-7"></path>
    </defs>
    <g id="icon/hardware/mouse_24px" stroke="none" stroke-width="1" fill="none" fill-rule="evenodd">
        <g id="↳-Light-Color" transform="translate(13.000000, 3.000000)">
            <mask id="mask-2" fill="white">
                <use xlink:href="#path-1"></use>
            </mask>
            <g id="Mask" opacity="0.3" fill-rule="nonzero"></g>
            <g id="✱-/-Color-/-Icons-/-Black-/-Disabled" mask="url(#mask-2)" fill="#000000" fill-opacity="0.38">
                <rect id="Rectangle" x="0" y="0" width="101" height="101"></rect>
            </g>
        </g>
        <g id="↳-Light-Color" transform="translate(6.000000, 3.000000)">
            <mask id="mask-4" fill="white">
                <use xlink:href="#path-3"></use>
            </mask>
            <g id="Mask" opacity="0.3" fill-rule="nonzero"></g>
            <g id="✱-/-Color-/-Icons-/-Black-/-Disabled" mask="url(#mask-4)" fill="#000000" fill-opacity="0.38">
                <rect id="Rectangle" x="0" y="0" width="101" height="101"></rect>
            </g>
        </g>
        <g id="↳-Light-Color" transform="translate(6.000000, 11.000000)">
            <mask id="mask-6" fill="white">
                <use xlink:href="#path-5"></use>
            </mask>
            <g id="Mask" opacity="0.3" fill-rule="nonzero"></g>
            <g id="✱-/-Color-/-Icons-/-Black-/-Disabled" mask="url(#mask-6)" fill="#000000" fill-opacity="0.38">
                <rect id="Rectangle" x="0" y="0" width="101" height="101"></rect>
            </g>
        </g>
        <g id="↳-Dark-Color" transform="translate(4.000000, 1.000000)">
            <mask id="mask-8" fill="white">
                <use xlink:href="#path-7"></use>
            </mask>
            <g id="Mask" fill-rule="nonzero"></g>
            <g id="✱-/-Color-/-Icons-/-Black-/-Inactive" mask="url(#mask-8)" fill="#000000" fill-opacity="0.54">
                <rect id="Rectangle" x="0" y="0" width="101" height="101"></rect>
            </g>
        </g>
    </g>
</svg>