<?xml version="1.0" encoding="UTF-8"?>
<svg width="24px" height="24px" viewBox="0 0 24 24" version="1.1" xmlns="http://www.w3.org/2000/svg" xmlns:xlink="http://www.w3.org/1999/xlink">
    <!-- Generator: Sketch 50 (54983) - http://www.bohemiancoding.com/sketch -->
    <title>icon/hardware/router_24px_two_tone</title>
    <desc>Created with Sketch.</desc>
    <defs>
        <path d="M10,0 L0,0 L0,4 L14,4 L14,0 L12,0 L10,0 Z M3,3 L1,3 L1,1 L3,1 L3,3 Z M6.5,3 L4.5,3 L4.5,1 L6.5,1 L6.5,3 Z M10,3 L8,3 L8,1 L10,1 L10,3 Z" id="path-1"></path>
        <path d="M5,1.2 C6.5,1.2 8,1.8 9.2,2.9 L10,2.1 C8.6,0.7 6.8,0 5,0 C3.2,0 1.4,0.7 0,2.1 L0.8,2.9 C2,1.8 3.5,1.2 5,1.2 Z" id="path-3"></path>
        <path d="M0.7,1.7 L1.5,2.5 C2.2,1.8 3.1,1.5 4,1.5 C4.9,1.5 5.8,1.8 6.5,2.5 L7.3,1.7 C6.4,0.8 5.2,0.3 4,0.3 C2.8,0.3 1.6,0.8 0.7,1.7 Z" id="path-5"></path>
        <path d="M16,4 L14,4 L14,0 L12,0 L12,4 L2,4 C0.9,4 0,4.9 0,6 L0,10 C0,11.1 0.9,12 2,12 L16,12 C17.1,12 18,11.1 18,10 L18,6 C18,4.9 17.1,4 16,4 Z M16,10 L2,10 L2,6 L12,6 L14,6 L16,6 L16,10 Z" id="path-7"></path>
        <rect id="path-9" x="0" y="0" width="2" height="2"></rect>
        <rect id="path-11" x="0.5" y="0" width="2" height="2"></rect>
        <rect id="path-13" x="0" y="0" width="2" height="2"></rect>
    </defs>
    <g id="icon/hardware/router_24px" stroke="none" stroke-width="1" fill="none" fill-rule="evenodd">
        <g id="↳-Light-Color" transform="translate(5.000000, 15.000000)">
            <mask id="mask-2" fill="white">
                <use xlink:href="#path-1"></use>
            </mask>
            <g id="Mask" opacity="0.3" fill-rule="nonzero"></g>
            <g id="✱-/-Color-/-Icons-/-Black-/-Disabled" mask="url(#mask-2)" fill="#000000" fill-opacity="0.38">
                <rect id="Rectangle" x="0" y="0" width="101" height="101"></rect>
            </g>
        </g>
        <g id="↳-Dark-Color" transform="translate(11.000000, 3.000000)">
            <mask id="mask-4" fill="white">
                <use xlink:href="#path-3"></use>
            </mask>
            <g id="Mask" fill-rule="nonzero"></g>
            <g id="✱-/-Color-/-Icons-/-Black-/-Inactive" mask="url(#mask-4)" fill="#000000" fill-opacity="0.54">
                <rect id="Rectangle" x="0" y="0" width="101" height="101"></rect>
            </g>
        </g>
        <g id="↳-Dark-Color" transform="translate(12.000000, 5.000000)">
            <mask id="mask-6" fill="white">
                <use xlink:href="#path-5"></use>
            </mask>
            <g id="Mask" fill-rule="nonzero"></g>
            <g id="✱-/-Color-/-Icons-/-Black-/-Inactive" mask="url(#mask-6)" fill="#000000" fill-opacity="0.54">
                <rect id="Rectangle" x="0" y="0" width="101" height="101"></rect>
            </g>
        </g>
        <g id="↳-Dark-Color" transform="translate(3.000000, 9.000000)">
            <mask id="mask-8" fill="white">
                <use xlink:href="#path-7"></use>
            </mask>
            <g id="Mask" fill-rule="nonzero"></g>
            <g id="✱-/-Color-/-Icons-/-Black-/-Inactive" mask="url(#mask-8)" fill="#000000" fill-opacity="0.54">
                <rect id="Rectangle" x="0" y="0" width="101" height="101"></rect>
            </g>
        </g>
        <g id="↳-Dark-Color" transform="translate(6.000000, 16.000000)">
            <mask id="mask-10" fill="white">
                <use xlink:href="#path-9"></use>
            </mask>
            <g id="Mask" fill-rule="nonzero"></g>
            <g id="✱-/-Color-/-Icons-/-Black-/-Inactive" mask="url(#mask-10)" fill="#000000" fill-opacity="0.54">
                <rect id="Rectangle" x="0" y="0" width="101" height="101"></rect>
            </g>
        </g>
        <g id="↳-Dark-Color" transform="translate(9.000000, 16.000000)">
            <mask id="mask-12" fill="white">
                <use xlink:href="#path-11"></use>
            </mask>
            <g id="Mask" fill-rule="nonzero"></g>
            <g id="✱-/-Color-/-Icons-/-Black-/-Inactive" mask="url(#mask-12)" fill="#000000" fill-opacity="0.54">
                <rect id="Rectangle" x="0" y="0" width="101" height="101"></rect>
            </g>
        </g>
        <g id="↳-Dark-Color" transform="translate(13.000000, 16.000000)">
            <mask id="mask-14" fill="white">
                <use xlink:href="#path-13"></use>
            </mask>
            <g id="Mask" fill-rule="nonzero"></g>
            <g id="✱-/-Color-/-Icons-/-Black-/-Inactive" mask="url(#mask-14)" fill="#000000" fill-opacity="0.54">
                <rect id="Rectangle" x="0" y="0" width="101" height="101"></rect>
            </g>
        </g>
    </g>
</svg>