<?xml version="1.0" encoding="UTF-8"?>
<svg width="24px" height="24px" viewBox="0 0 24 24" version="1.1" xmlns="http://www.w3.org/2000/svg" xmlns:xlink="http://www.w3.org/1999/xlink">
    <!-- Generator: Sketch 50 (54983) - http://www.bohemiancoding.com/sketch -->
    <title>icon/hardware/security_24px_two_tone</title>
    <desc>Created with Sketch.</desc>
    <defs>
        <path d="M7,0.19 L0,3.3 L0,9 L7,9 L7,17.93 C10.72,16.78 13.47,13.11 14,8.99 L7,8.99 L7,0.19 Z" id="path-1"></path>
        <path d="M9,0 L0,4 L0,10 C0,15.55 3.84,20.74 9,22 C14.16,20.74 18,15.55 18,10 L18,4 L9,0 Z M9,19.93 L9,11 L2,11 L2,5.3 L9,2.19 L9,10.99 L16,10.99 C15.47,15.11 12.72,18.78 9,19.93 Z" id="path-3"></path>
    </defs>
    <g id="icon/hardware/security_24px" stroke="none" stroke-width="1" fill="none" fill-rule="evenodd">
        <g id="↳-Light-Color" transform="translate(5.000000, 3.000000)">
            <mask id="mask-2" fill="white">
                <use xlink:href="#path-1"></use>
            </mask>
            <g id="Mask" opacity="0.3" fill-rule="nonzero"></g>
            <g id="✱-/-Color-/-Icons-/-Black-/-Disabled" mask="url(#mask-2)" fill="#000000" fill-opacity="0.38">
                <rect id="Rectangle" x="0" y="0" width="101" height="101"></rect>
            </g>
        </g>
        <g id="↳-Dark-Color" transform="translate(3.000000, 1.000000)">
            <mask id="mask-4" fill="white">
                <use xlink:href="#path-3"></use>
            </mask>
            <g id="Mask" fill-rule="nonzero"></g>
            <g id="✱-/-Color-/-Icons-/-Black-/-Inactive" mask="url(#mask-4)" fill="#000000" fill-opacity="0.54">
                <rect id="Rectangle" x="0" y="0" width="101" height="101"></rect>
            </g>
        </g>
    </g>
</svg>