<?xml version="1.0" encoding="UTF-8"?>
<svg width="24px" height="24px" viewBox="0 0 24 24" version="1.1" xmlns="http://www.w3.org/2000/svg" xmlns:xlink="http://www.w3.org/1999/xlink">
    <!-- Generator: Sketch 50 (54983) - http://www.bohemiancoding.com/sketch -->
    <title>icon/hardware/speaker_24px_two_tone</title>
    <desc>Created with Sketch.</desc>
    <defs>
        <path d="M0,0 L0,16 L10,16 L10,0 L0,0 Z M5,1 C6.1,1 7,1.9 7,3 C7,4.1 6.1,5 5,5 C3.89,5 3,4.1 3,3 C3,1.9 3.89,1 5,1 Z M5,15 C2.79,15 1,13.21 1,11 C1,8.79 2.79,7 5,7 C7.21,7 9,8.79 9,11 C9,13.21 7.21,15 5,15 Z" id="path-1"></path>
        <path d="M12,0 L2,0 C0.9,0 0,0.9 0,2 L0,18 C0,19.1 0.9,19.99 2,19.99 L12,20 C13.1,20 14,19.1 14,18 L14,2 C14,0.9 13.1,0 12,0 Z M2,18 L2,2 L12,2 L12,18 L2,18 Z" id="path-3"></path>
        <path d="M2,4 C3.1,4 4,3.1 4,2 C4,0.9 3.1,0 2,0 C0.89,0 0,0.9 0,2 C0,3.1 0.89,4 2,4 Z" id="path-5"></path>
        <path d="M4,0 C1.79,0 0,1.79 0,4 C0,6.21 1.79,8 4,8 C6.21,8 8,6.21 8,4 C8,1.79 6.21,0 4,0 Z M4,6 C2.9,6 2,5.1 2,4 C2,2.9 2.9,2 4,2 C5.1,2 6,2.9 6,4 C6,5.1 5.1,6 4,6 Z" id="path-7"></path>
    </defs>
    <g id="icon/hardware/speaker_24px" stroke="none" stroke-width="1" fill="none" fill-rule="evenodd">
        <g id="↳-Light-Color" transform="translate(7.000000, 4.000000)">
            <mask id="mask-2" fill="white">
                <use xlink:href="#path-1"></use>
            </mask>
            <g id="Mask" opacity="0.3" fill-rule="nonzero"></g>
            <g id="✱-/-Color-/-Icons-/-Black-/-Disabled" mask="url(#mask-2)" fill="#000000" fill-opacity="0.38">
                <rect id="Rectangle" x="0" y="0" width="101" height="101"></rect>
            </g>
        </g>
        <g id="↳-Dark-Color" transform="translate(5.000000, 2.000000)">
            <mask id="mask-4" fill="white">
                <use xlink:href="#path-3"></use>
            </mask>
            <g id="Mask" fill-rule="nonzero"></g>
            <g id="✱-/-Color-/-Icons-/-Black-/-Inactive" mask="url(#mask-4)" fill="#000000" fill-opacity="0.54">
                <rect id="Rectangle" x="0" y="0" width="101" height="101"></rect>
            </g>
        </g>
        <g id="↳-Dark-Color" transform="translate(10.000000, 5.000000)">
            <mask id="mask-6" fill="white">
                <use xlink:href="#path-5"></use>
            </mask>
            <g id="Mask" fill-rule="nonzero"></g>
            <g id="✱-/-Color-/-Icons-/-Black-/-Inactive" mask="url(#mask-6)" fill="#000000" fill-opacity="0.54">
                <rect id="Rectangle" x="0" y="0" width="101" height="101"></rect>
            </g>
        </g>
        <g id="↳-Dark-Color" transform="translate(8.000000, 11.000000)">
            <mask id="mask-8" fill="white">
                <use xlink:href="#path-7"></use>
            </mask>
            <g id="Mask" fill-rule="nonzero"></g>
            <g id="✱-/-Color-/-Icons-/-Black-/-Inactive" mask="url(#mask-8)" fill="#000000" fill-opacity="0.54">
                <rect id="Rectangle" x="0" y="0" width="101" height="101"></rect>
            </g>
        </g>
    </g>
</svg>