<?xml version="1.0" encoding="UTF-8"?>
<svg width="24px" height="24px" viewBox="0 0 24 24" version="1.1" xmlns="http://www.w3.org/2000/svg" xmlns:xlink="http://www.w3.org/1999/xlink">
    <!-- Generator: Sketch 50 (54983) - http://www.bohemiancoding.com/sketch -->
    <title>icon/hardware/toys_24px_two_tone</title>
    <desc>Created with Sketch.</desc>
    <defs>
        <path d="M4,3 C5.82,3 7.41,1.7 7.87,0 L0.13,0 C0.59,1.7 2.18,3 4,3 Z" id="path-1"></path>
        <path d="M0,4 C0,5.82 1.3,7.41 3,7.87 L3,0.13 C1.3,0.59 0,2.18 0,4 Z" id="path-3"></path>
        <path d="M4,0 C2.18,0 0.59,1.3 0.13,3 L7.87,3 C7.41,1.3 5.82,0 4,0 Z" id="path-5"></path>
        <path d="M0,0.13 L0,7.87 C1.7,7.41 3,5.83 3,4 C3,2.17 1.7,0.59 0,0.13 Z" id="path-7"></path>
        <path d="M22,11 C22,7.75 19.25,5 16,5 C14.48,5 13.07,5.6 12,6.57 L12,0 L11,0 C7.75,0 5,2.75 5,6 C5,7.52 5.6,8.93 6.57,10 L0,10 L0,11 C0,14.25 2.75,17 6,17 C7.52,17 8.93,16.4 10,15.43 L10,22 L11,22 C14.25,22 17,19.25 17,16 C17,14.48 16.4,13.07 15.43,12 L22,12 L22,11 Z M6,15 C4.18,15 2.59,13.7 2.13,12 L9.87,12 C9.41,13.7 7.82,15 6,15 Z M10,9.87 C8.3,9.41 7,7.82 7,6 C7,4.18 8.3,2.59 10,2.13 L10,9.87 Z M12,19.87 L12,12.13 C13.7,12.59 15,14.17 15,16 C15,17.83 13.7,19.41 12,19.87 Z M12.13,10 C12.59,8.3 14.17,7 16,7 C17.83,7 19.41,8.3 19.87,10 L12.13,10 Z" id="path-9"></path>
    </defs>
    <g id="icon/hardware/toys_24px" stroke="none" stroke-width="1" fill="none" fill-rule="evenodd">
        <g id="↳-Light-Color" transform="translate(3.000000, 13.000000)">
            <mask id="mask-2" fill="white">
                <use xlink:href="#path-1"></use>
            </mask>
            <g id="Mask" opacity="0.3" fill-rule="nonzero"></g>
            <g id="✱-/-Color-/-Icons-/-Black-/-Disabled" mask="url(#mask-2)" fill="#000000" fill-opacity="0.38">
                <rect id="Rectangle" x="0" y="0" width="101" height="101"></rect>
            </g>
        </g>
        <g id="↳-Light-Color" transform="translate(8.000000, 3.000000)">
            <mask id="mask-4" fill="white">
                <use xlink:href="#path-3"></use>
            </mask>
            <g id="Mask" opacity="0.3" fill-rule="nonzero"></g>
            <g id="✱-/-Color-/-Icons-/-Black-/-Disabled" mask="url(#mask-4)" fill="#000000" fill-opacity="0.38">
                <rect id="Rectangle" x="0" y="0" width="101" height="101"></rect>
            </g>
        </g>
        <g id="↳-Light-Color" transform="translate(13.000000, 8.000000)">
            <mask id="mask-6" fill="white">
                <use xlink:href="#path-5"></use>
            </mask>
            <g id="Mask" opacity="0.3" fill-rule="nonzero"></g>
            <g id="✱-/-Color-/-Icons-/-Black-/-Disabled" mask="url(#mask-6)" fill="#000000" fill-opacity="0.38">
                <rect id="Rectangle" x="0" y="0" width="101" height="101"></rect>
            </g>
        </g>
        <g id="↳-Light-Color" transform="translate(13.000000, 13.000000)">
            <mask id="mask-8" fill="white">
                <use xlink:href="#path-7"></use>
            </mask>
            <g id="Mask" opacity="0.3" fill-rule="nonzero"></g>
            <g id="✱-/-Color-/-Icons-/-Black-/-Disabled" mask="url(#mask-8)" fill="#000000" fill-opacity="0.38">
                <rect id="Rectangle" x="0" y="0" width="101" height="101"></rect>
            </g>
        </g>
        <g id="↳-Dark-Color" transform="translate(1.000000, 1.000000)">
            <mask id="mask-10" fill="white">
                <use xlink:href="#path-9"></use>
            </mask>
            <g id="Mask" fill-rule="nonzero"></g>
            <g id="✱-/-Color-/-Icons-/-Black-/-Inactive" mask="url(#mask-10)" fill="#000000" fill-opacity="0.54">
                <rect id="Rectangle" x="0" y="0" width="101" height="101"></rect>
            </g>
        </g>
    </g>
</svg>