<?xml version="1.0" encoding="UTF-8"?>
<svg width="24px" height="24px" viewBox="0 0 24 24" version="1.1" xmlns="http://www.w3.org/2000/svg" xmlns:xlink="http://www.w3.org/1999/xlink">
    <!-- Generator: Sketch 50 (54983) - http://www.bohemiancoding.com/sketch -->
    <title>icon/hardware/watch_24px_two_tone</title>
    <desc>Created with Sketch.</desc>
    <defs>
        <path d="M5.72,2.48 L5.31,0 L0.7,0 L0.29,2.47 C1.13,2.17 2.05,2 3,2 C3.96,2 4.87,2.17 5.72,2.48 Z" id="path-1"></path>
        <path d="M0.29,0.53 L0.7,3 L5.31,3 L5.72,0.52 C4.87,0.83 3.96,1 3,1 C2.05,1 1.13,0.83 0.29,0.53 Z" id="path-3"></path>
        <path d="M12.96,5.73 L12,0 L4,0 L3.05,5.73 C1.19,7.19 0,9.45 0,12 C0,14.55 1.19,16.81 3.05,18.27 L4,24 L12,24 L12.96,18.27 C14.81,16.81 16,14.54 16,12 C16,9.46 14.81,7.19 12.96,5.73 Z M5.7,2 L10.31,2 L10.72,4.48 C9.87,4.17 8.96,4 8,4 C7.05,4 6.13,4.17 5.29,4.47 L5.7,2 Z M10.31,22 L5.7,22 L5.29,19.53 C6.13,19.83 7.05,20 8,20 C8.96,20 9.87,19.83 10.72,19.52 L10.31,22 Z M8,18 C4.69,18 2,15.31 2,12 C2,8.69 4.69,6 8,6 C11.31,6 14,8.69 14,12 C14,15.31 11.31,18 8,18 Z" id="path-5"></path>
    </defs>
    <g id="icon/hardware/watch_24px" stroke="none" stroke-width="1" fill="none" fill-rule="evenodd">
        <g id="↳-Light-Color" transform="translate(9.000000, 2.000000)">
            <mask id="mask-2" fill="white">
                <use xlink:href="#path-1"></use>
            </mask>
            <g id="Mask" opacity="0.3" fill-rule="nonzero"></g>
            <g id="✱-/-Color-/-Icons-/-Black-/-Disabled" mask="url(#mask-2)" fill="#000000" fill-opacity="0.38">
                <rect id="Rectangle" x="0" y="0" width="101" height="101"></rect>
            </g>
        </g>
        <g id="↳-Light-Color" transform="translate(9.000000, 19.000000)">
            <mask id="mask-4" fill="white">
                <use xlink:href="#path-3"></use>
            </mask>
            <g id="Mask" opacity="0.3" fill-rule="nonzero"></g>
            <g id="✱-/-Color-/-Icons-/-Black-/-Disabled" mask="url(#mask-4)" fill="#000000" fill-opacity="0.38">
                <rect id="Rectangle" x="0" y="0" width="101" height="101"></rect>
            </g>
        </g>
        <g id="↳-Dark-Color" transform="translate(4.000000, 0.000000)">
            <mask id="mask-6" fill="white">
                <use xlink:href="#path-5"></use>
            </mask>
            <g id="Mask" fill-rule="nonzero"></g>
            <g id="✱-/-Color-/-Icons-/-Black-/-Inactive" mask="url(#mask-6)" fill="#000000" fill-opacity="0.54">
                <rect id="Rectangle" x="0" y="0" width="101" height="101"></rect>
            </g>
        </g>
    </g>
</svg>