<?xml version="1.0" encoding="UTF-8"?>
<svg width="24px" height="24px" viewBox="0 0 24 24" version="1.1" xmlns="http://www.w3.org/2000/svg" xmlns:xlink="http://www.w3.org/1999/xlink">
    <!-- Generator: Sketch 50 (54983) - http://www.bohemiancoding.com/sketch -->
    <title>icon/maps/360_24px_sharp</title>
    <desc>Created with Sketch.</desc>
    <defs>
        <path d="M12,5.5 C6.48,5.5 2,7.74 2,10.5 C2,12.74 4.94,14.63 9,15.27 L9,18.5 L13,14.5 L9,10.5 L9,13.23 C5.85,12.67 4,11.33 4,10.5 C4,9.44 7.04,7.5 12,7.5 C16.96,7.5 20,9.44 20,10.5 C20,11.23 18.54,12.39 16,13.03 L16,15.08 C19.53,14.31 22,12.55 22,10.5 C22,7.74 17.52,5.5 12,5.5 Z" id="path-1"></path>
    </defs>
    <g id="icon/maps/360_24px" stroke="none" stroke-width="1" fill="none" fill-rule="evenodd">
        <mask id="mask-2" fill="white">
            <use xlink:href="#path-1"></use>
        </mask>
        <g fill-rule="nonzero"></g>
        <g id="✱-/-Color-/-Icons-/-Black-/-Inactive" mask="url(#mask-2)" fill="#000000" fill-opacity="0.54">
            <rect id="Rectangle" x="0" y="0" width="24" height="24"></rect>
        </g>
    </g>
</svg>