<?xml version="1.0" encoding="UTF-8"?>
<svg width="24px" height="24px" viewBox="0 0 24 24" version="1.1" xmlns="http://www.w3.org/2000/svg" xmlns:xlink="http://www.w3.org/1999/xlink">
    <!-- Generator: Sketch 50 (54983) - http://www.bohemiancoding.com/sketch -->
    <title>icon/maps/atm_24px_sharp</title>
    <desc>Created with Sketch.</desc>
    <defs>
        <path d="M8,9 L8,10.5 L10.25,10.5 L10.25,15 L11.75,15 L11.75,10.5 L14,10.5 L14,9 L8,9 Z M7,9 L2,9 L2,15 L3.5,15 L3.5,13.5 L5.5,13.5 L5.5,15 L7,15 L7,9 Z M5.5,12 L3.5,12 L3.5,10.5 L5.5,10.5 L5.5,12 Z M22,9 L15.5,9 L15.5,15 L17,15 L17,10.5 L18,10.5 L18,14 L19.5,14 L19.5,10.49 L20.5,10.49 L20.5,15 L22,15 L22,9 Z" id="path-1"></path>
    </defs>
    <g id="icon/maps/atm_24px" stroke="none" stroke-width="1" fill="none" fill-rule="evenodd">
        <mask id="mask-2" fill="white">
            <use xlink:href="#path-1"></use>
        </mask>
        <g fill-rule="nonzero"></g>
        <g id="✱-/-Color-/-Icons-/-Black-/-Inactive" mask="url(#mask-2)" fill="#000000" fill-opacity="0.54">
            <rect id="Rectangle" x="0" y="0" width="24" height="24"></rect>
        </g>
    </g>
</svg>