<?xml version="1.0" encoding="UTF-8"?>
<svg width="24px" height="24px" viewBox="0 0 24 24" version="1.1" xmlns="http://www.w3.org/2000/svg" xmlns:xlink="http://www.w3.org/1999/xlink">
    <!-- Generator: Sketch 50 (54983) - http://www.bohemiancoding.com/sketch -->
    <title>icon/maps/compass_calibration_24px_sharp</title>
    <desc>Created with Sketch.</desc>
    <defs>
        <path d="M12,13 C9.790861,13 8,14.790861 8,17 C8,19.209139 9.790861,21 12,21 C14.209139,21 16,19.209139 16,17 C16,14.790861 14.209139,13 12,13 Z M12,3 C8.1,3 4.56,4.59 2,7.15 L7,12.15 C8.28,10.87 10.05,10.07 12,10.07 C13.95,10.07 15.72,10.86 17,12.14 L22,7.14 C19.44,4.59 15.9,3 12,3 Z" id="path-1"></path>
    </defs>
    <g id="icon/maps/compass_calibration_24px" stroke="none" stroke-width="1" fill="none" fill-rule="evenodd">
        <mask id="mask-2" fill="white">
            <use xlink:href="#path-1"></use>
        </mask>
        <g fill-rule="nonzero"></g>
        <g id="✱-/-Color-/-Icons-/-Black-/-Inactive" mask="url(#mask-2)" fill="#000000" fill-opacity="0.54">
            <rect id="Rectangle" x="0" y="0" width="24" height="24"></rect>
        </g>
    </g>
</svg>