<?xml version="1.0" encoding="UTF-8"?>
<svg width="24px" height="24px" viewBox="0 0 24 24" version="1.1" xmlns="http://www.w3.org/2000/svg" xmlns:xlink="http://www.w3.org/1999/xlink">
    <!-- Generator: Sketch 50 (54983) - http://www.bohemiancoding.com/sketch -->
    <title>icon/maps/departure_board_24px_sharp</title>
    <desc>Created with Sketch.</desc>
    <defs>
        <path d="M17.3416387,1.12803032 C14.4016387,0.578030324 11.7116387,1.87803032 10.2216387,4.04803032 C10.2316387,4.03803032 10.2316387,4.02803032 10.2416387,4.01803032 C9.84163869,3.99803032 9.42163869,3.99803032 9.00163869,3.99803032 C4.58163869,3.99803032 1.00163869,4.49803032 1.00163869,7.99803032 L1.00163869,17.9980303 C1.00163869,18.8780303 1.39163869,19.6680303 2.00163869,20.2180303 L2.00163869,22.9980303 L5.00163869,22.9980303 L5.00163869,20.9980303 L13.0016387,20.9980303 L13.0016387,22.9980303 L16.0016387,22.9980303 L16.0016387,20.2180303 C16.6116387,19.6680303 17.0016387,18.8780303 17.0016387,17.9980303 L17.0016387,14.9180303 C20.7216387,14.3780303 23.5016387,10.9380303 22.9216387,6.94803032 C22.5016387,4.04803032 20.2216387,1.65803032 17.3416387,1.12803032 Z M4.50163869,18.9980303 C3.67163869,18.9980303 3.00163869,18.3280303 3.00163869,17.4980303 C3.00163869,16.6680303 3.67163869,15.9980303 4.50163869,15.9980303 C5.33163869,15.9980303 6.00163869,16.6680303 6.00163869,17.4980303 C6.00163869,18.3280303 5.33163869,18.9980303 4.50163869,18.9980303 Z M3.00163869,12.9980303 L3.00163869,7.99803032 L9.00163869,7.99803032 C9.00163869,9.95803032 9.81163869,11.7280303 11.1116387,12.9980303 L3.00163869,12.9980303 Z M13.5016387,18.9980303 C12.6716387,18.9980303 12.0016387,18.3280303 12.0016387,17.4980303 C12.0016387,16.6680303 12.6716387,15.9980303 13.5016387,15.9980303 C14.3316387,15.9980303 15.0016387,16.6680303 15.0016387,17.4980303 C15.0016387,18.3280303 14.3316387,18.9980303 13.5016387,18.9980303 Z M16.0016387,12.9980303 C13.2416387,12.9980303 11.0016387,10.7580303 11.0016387,7.99803032 C11.0016387,5.23803032 13.2416387,2.99803032 16.0016387,2.99803032 C18.7616387,2.99803032 21.0016387,5.23803032 21.0016387,7.99803032 C21.0016387,10.7580303 18.7616387,12.9980303 16.0016387,12.9980303 Z M16.5016387,3.99803032 L15.0016387,3.99803032 L15.0016387,8.99803032 L18.6216387,11.1580303 L19.3716387,9.92803032 L16.5016387,8.24803032 L16.5016387,3.99803032 Z" id="path-1"></path>
    </defs>
    <g id="icon/maps/departure_board_24px" stroke="none" stroke-width="1" fill="none" fill-rule="evenodd">
        <mask id="mask-2" fill="white">
            <use xlink:href="#path-1"></use>
        </mask>
        <g fill-rule="nonzero"></g>
        <g id="✱-/-Color-/-Icons-/-Black-/-Inactive" mask="url(#mask-2)" fill="#000000" fill-opacity="0.54">
            <rect id="Rectangle" x="0" y="0" width="24" height="24"></rect>
        </g>
    </g>
</svg>