<?xml version="1.0" encoding="UTF-8"?>
<svg width="24px" height="24px" viewBox="0 0 24 24" version="1.1" xmlns="http://www.w3.org/2000/svg" xmlns:xlink="http://www.w3.org/1999/xlink">
    <!-- Generator: Sketch 50 (54983) - http://www.bohemiancoding.com/sketch -->
    <title>icon/maps/directions_railway_24px_sharp</title>
    <desc>Created with Sketch.</desc>
    <defs>
        <path d="M4,16.5 C4,18.43 5.57,20 7.5,20 L6,21.5 L6,22 L18,22 L18,21.5 L16.5,20 C18.43,20 20,18.43 20,16.5 L20,6 C20,2.5 16.42,2 12,2 C7.58,2 4,2.5 4,6 L4,16.5 Z M12,18 C10.9,18 10,17.1 10,16 C10,14.9 10.9,14 12,14 C13.1,14 14,14.9 14,16 C14,17.1 13.1,18 12,18 Z M18,11 L6,11 L6,6 L18,6 L18,11 Z" id="path-1"></path>
    </defs>
    <g id="icon/maps/directions_railway_24px" stroke="none" stroke-width="1" fill="none" fill-rule="evenodd">
        <mask id="mask-2" fill="white">
            <use xlink:href="#path-1"></use>
        </mask>
        <g fill-rule="nonzero"></g>
        <g id="✱-/-Color-/-Icons-/-Black-/-Inactive" mask="url(#mask-2)" fill="#000000" fill-opacity="0.54">
            <rect id="Rectangle" x="0" y="0" width="24" height="24"></rect>
        </g>
    </g>
</svg>