<?xml version="1.0" encoding="UTF-8"?>
<svg width="24px" height="24px" viewBox="0 0 24 24" version="1.1" xmlns="http://www.w3.org/2000/svg" xmlns:xlink="http://www.w3.org/1999/xlink">
    <!-- Generator: Sketch 50 (54983) - http://www.bohemiancoding.com/sketch -->
    <title>icon/maps/local_atm_24px_sharp</title>
    <desc>Created with Sketch.</desc>
    <defs>
        <path d="M11,17 L13,17 L13,16 L15,16 L15,11 L11,11 L11,10 L15,10 L15,8 L13,8 L13,7 L11,7 L11,8 L9,8 L9,13 L13,13 L13,14 L9,14 L9,16 L11,16 L11,17 Z M22,4 L2.01,4 L2,20 L22,20 L22,4 Z M20,18 L4,18 L4,6 L20,6 L20,18 Z" id="path-1"></path>
    </defs>
    <g id="icon/maps/local_atm_24px" stroke="none" stroke-width="1" fill="none" fill-rule="evenodd">
        <mask id="mask-2" fill="white">
            <use xlink:href="#path-1"></use>
        </mask>
        <g fill-rule="nonzero"></g>
        <g id="✱-/-Color-/-Icons-/-Black-/-Inactive" mask="url(#mask-2)" fill="#000000" fill-opacity="0.54">
            <rect id="Rectangle" x="0" y="0" width="24" height="24"></rect>
        </g>
    </g>
</svg>