<?xml version="1.0" encoding="UTF-8"?>
<svg width="24px" height="24px" viewBox="0 0 24 24" version="1.1" xmlns="http://www.w3.org/2000/svg" xmlns:xlink="http://www.w3.org/1999/xlink">
    <!-- Generator: Sketch 50 (54983) - http://www.bohemiancoding.com/sketch -->
    <title>icon/maps/local_shipping_24px_sharp</title>
    <desc>Created with Sketch.</desc>
    <defs>
        <path d="M20,8 L17,8 L17,4 L1,4 L1,17 L3,17 C3,18.66 4.34,20 6,20 C7.66,20 9,18.66 9,17 L15,17 C15,18.66 16.34,20 18,20 C19.66,20 21,18.66 21,17 L23,17 L23,12 L20,8 Z M6,18 C5.45,18 5,17.55 5,17 C5,16.45 5.45,16 6,16 C6.55,16 7,16.45 7,17 C7,17.55 6.55,18 6,18 Z M19.5,9.5 L21.46,12 L17,12 L17,9.5 L19.5,9.5 Z M18,18 C17.45,18 17,17.55 17,17 C17,16.45 17.45,16 18,16 C18.55,16 19,16.45 19,17 C19,17.55 18.55,18 18,18 Z" id="path-1"></path>
    </defs>
    <g id="icon/maps/local_shipping_24px" stroke="none" stroke-width="1" fill="none" fill-rule="evenodd">
        <mask id="mask-2" fill="white">
            <use xlink:href="#path-1"></use>
        </mask>
        <g fill-rule="nonzero"></g>
        <g id="✱-/-Color-/-Icons-/-Black-/-Inactive" mask="url(#mask-2)" fill="#000000" fill-opacity="0.54">
            <rect id="Rectangle" x="0" y="0" width="24" height="24"></rect>
        </g>
    </g>
</svg>