<?xml version="1.0" encoding="UTF-8"?>
<svg width="24px" height="24px" viewBox="0 0 24 24" version="1.1" xmlns="http://www.w3.org/2000/svg" xmlns:xlink="http://www.w3.org/1999/xlink">
    <!-- Generator: Sketch 50 (54983) - http://www.bohemiancoding.com/sketch -->
    <title>icon/maps/local_see_24px_sharp</title>
    <desc>Created with Sketch.</desc>
    <defs>
        <path d="M12,9.8 C10.2326888,9.8 8.8,11.2326888 8.8,13 C8.8,14.7673112 10.2326888,16.2 12,16.2 C13.7673112,16.2 15.2,14.7673112 15.2,13 C15.2,11.2326888 13.7673112,9.8 12,9.8 Z M22,5 L16.83,5 L15,3 L9,3 L7.17,5 L2,5 L2,21 L22,21 L22,5 Z M12,18 C9.24,18 7,15.76 7,13 C7,10.24 9.24,8 12,8 C14.76,8 17,10.24 17,13 C17,15.76 14.76,18 12,18 Z" id="path-1"></path>
    </defs>
    <g id="icon/maps/local_see_24px" stroke="none" stroke-width="1" fill="none" fill-rule="evenodd">
        <mask id="mask-2" fill="white">
            <use xlink:href="#path-1"></use>
        </mask>
        <g fill-rule="nonzero"></g>
        <g id="✱-/-Color-/-Icons-/-Black-/-Inactive" mask="url(#mask-2)" fill="#000000" fill-opacity="0.54">
            <rect id="Rectangle" x="0" y="0" width="24" height="24"></rect>
        </g>
    </g>
</svg>