<?xml version="1.0" encoding="UTF-8"?>
<svg width="24px" height="24px" viewBox="0 0 24 24" version="1.1" xmlns="http://www.w3.org/2000/svg" xmlns:xlink="http://www.w3.org/1999/xlink">
    <!-- Generator: Sketch 50 (54983) - http://www.bohemiancoding.com/sketch -->
    <title>icon/maps/local_laundry_service_24px_sharp</title>
    <desc>Created with Sketch.</desc>
    <defs>
        <path d="M9.17,16.83 C10.73,18.39 13.27,18.39 14.83,16.83 C16.39,15.27 16.39,12.73 14.83,11.17 L9.17,16.83 Z M20,2.01 L4,2 L4,22 L20,22 L20,2.01 Z M10,4 C10.55,4 11,4.45 11,5 C11,5.55 10.55,6 10,6 C9.45,6 9,5.55 9,5 C9,4.45 9.45,4 10,4 Z M7,4 C7.55,4 8,4.45 8,5 C8,5.55 7.55,6 7,6 C6.45,6 6,5.55 6,5 C6,4.45 6.45,4 7,4 Z M12,20 C8.69,20 6,17.31 6,14 C6,10.69 8.69,8 12,8 C15.31,8 18,10.69 18,14 C18,17.31 15.31,20 12,20 Z" id="path-1"></path>
    </defs>
    <g id="icon/maps/local_laundry_service_24px" stroke="none" stroke-width="1" fill="none" fill-rule="evenodd">
        <mask id="mask-2" fill="white">
            <use xlink:href="#path-1"></use>
        </mask>
        <g fill-rule="nonzero"></g>
        <g id="✱-/-Color-/-Icons-/-Black-/-Inactive" mask="url(#mask-2)" fill="#000000" fill-opacity="0.54">
            <rect id="Rectangle" x="0" y="0" width="24" height="24"></rect>
        </g>
    </g>
</svg>