<?xml version="1.0" encoding="UTF-8"?>
<svg width="24px" height="24px" viewBox="0 0 24 24" version="1.1" xmlns="http://www.w3.org/2000/svg" xmlns:xlink="http://www.w3.org/1999/xlink">
    <!-- Generator: Sketch 50 (54983) - http://www.bohemiancoding.com/sketch -->
    <title>icon/maps/local_play_24px_sharp</title>
    <desc>Created with Sketch.</desc>
    <defs>
        <path d="M20,12 C20,10.9 20.9,10 22,10 L22,4 L2.01,4 L2.01,10 C3.11,10 4,10.9 4,12 C4,13.1 3.11,14 2,14 L2,20 L22,20 L22,14 C20.9,14 20,13.1 20,12 Z M15.58,16.8 L12,14.5 L8.42,16.8 L9.5,12.68 L6.21,9.99 L10.45,9.74 L12,5.8 L13.54,9.75 L17.78,10 L14.49,12.69 L15.58,16.8 Z" id="path-1"></path>
    </defs>
    <g id="icon/maps/local_play_24px" stroke="none" stroke-width="1" fill="none" fill-rule="evenodd">
        <mask id="mask-2" fill="white">
            <use xlink:href="#path-1"></use>
        </mask>
        <g fill-rule="nonzero"></g>
        <g id="✱-/-Color-/-Icons-/-Black-/-Inactive" mask="url(#mask-2)" fill="#000000" fill-opacity="0.54">
            <rect id="Rectangle" x="0" y="0" width="24" height="24"></rect>
        </g>
    </g>
</svg>