<?xml version="1.0" encoding="UTF-8"?>
<svg width="24px" height="24px" viewBox="0 0 24 24" version="1.1" xmlns="http://www.w3.org/2000/svg" xmlns:xlink="http://www.w3.org/1999/xlink">
    <!-- Generator: Sketch 50 (54983) - http://www.bohemiancoding.com/sketch -->
    <title>icon/maps/local_mall_24px_sharp</title>
    <desc>Created with Sketch.</desc>
    <defs>
        <path d="M21,6.5 L17,6.5 C17,3.74 14.76,1.5 12,1.5 C9.24,1.5 7,3.74 7,6.5 L3,6.5 L3,22.5 L21,22.5 L21,6.5 Z M12,3.5 C13.66,3.5 15,4.84 15,6.5 L9,6.5 C9,4.84 10.34,3.5 12,3.5 Z M12,13.5 C9.24,13.5 7,11.26 7,8.5 L9,8.5 C9,10.16 10.34,11.5 12,11.5 C13.66,11.5 15,10.16 15,8.5 L17,8.5 C17,11.26 14.76,13.5 12,13.5 Z" id="path-1"></path>
    </defs>
    <g id="icon/maps/local_mall_24px" stroke="none" stroke-width="1" fill="none" fill-rule="evenodd">
        <mask id="mask-2" fill="white">
            <use xlink:href="#path-1"></use>
        </mask>
        <g fill-rule="nonzero"></g>
        <g id="✱-/-Color-/-Icons-/-Black-/-Inactive" mask="url(#mask-2)" fill="#000000" fill-opacity="0.54">
            <rect id="Rectangle" x="0" y="0" width="24" height="24"></rect>
        </g>
    </g>
</svg>