<?xml version="1.0" encoding="UTF-8"?>
<svg width="24px" height="24px" viewBox="0 0 24 24" version="1.1" xmlns="http://www.w3.org/2000/svg" xmlns:xlink="http://www.w3.org/1999/xlink">
    <!-- Generator: Sketch 50 (54983) - http://www.bohemiancoding.com/sketch -->
    <title>icon/maps/local_florist_24px_sharp</title>
    <desc>Created with Sketch.</desc>
    <defs>
        <path d="M12,22.5 C16.97,22.5 21,18.47 21,13.5 C16.03,13.5 12,17.53 12,22.5 Z M5.6,10.75 C5.6,12.13 6.72,13.25 8.1,13.25 C8.63,13.25 9.11,13.09 9.52,12.81 L9.5,13 C9.5,14.38 10.62,15.5 12,15.5 C13.38,15.5 14.5,14.38 14.5,13 L14.48,12.81 C14.88,13.09 15.37,13.25 15.9,13.25 C17.28,13.25 18.4,12.13 18.4,10.75 C18.4,9.75 17.81,8.9 16.97,8.5 C17.81,8.1 18.4,7.25 18.4,6.25 C18.4,4.87 17.28,3.75 15.9,3.75 C15.37,3.75 14.89,3.91 14.48,4.19 L14.5,4 C14.5,2.62 13.38,1.5 12,1.5 C10.62,1.5 9.5,2.62 9.5,4 L9.52,4.19 C9.12,3.91 8.63,3.75 8.1,3.75 C6.72,3.75 5.6,4.87 5.6,6.25 C5.6,7.25 6.19,8.1 7.03,8.5 C6.19,8.9 5.6,9.75 5.6,10.75 Z M12,6 C13.38,6 14.5,7.12 14.5,8.5 C14.5,9.88 13.38,11 12,11 C10.62,11 9.5,9.88 9.5,8.5 C9.5,7.12 10.62,6 12,6 Z M3,13.5 C3,18.47 7.03,22.5 12,22.5 C12,17.53 7.97,13.5 3,13.5 Z" id="path-1"></path>
    </defs>
    <g id="icon/maps/local_florist_24px" stroke="none" stroke-width="1" fill="none" fill-rule="evenodd">
        <mask id="mask-2" fill="white">
            <use xlink:href="#path-1"></use>
        </mask>
        <g fill-rule="nonzero"></g>
        <g id="✱-/-Color-/-Icons-/-Black-/-Inactive" mask="url(#mask-2)" fill="#000000" fill-opacity="0.54">
            <rect id="Rectangle" x="0" y="0" width="24" height="24"></rect>
        </g>
    </g>
</svg>