<?xml version="1.0" encoding="UTF-8"?>
<svg width="24px" height="24px" viewBox="0 0 24 24" version="1.1" xmlns="http://www.w3.org/2000/svg" xmlns:xlink="http://www.w3.org/1999/xlink">
    <!-- Generator: Sketch 50 (54983) - http://www.bohemiancoding.com/sketch -->
    <title>icon/maps/money_24px_sharp</title>
    <desc>Created with Sketch.</desc>
    <defs>
        <path d="M14,16 L19,16 L19,8 L14,8 L14,16 Z M16,10 L17,10 L17,14 L16,14 L16,10 Z M8,16 L13,16 L13,8 L8,8 L8,16 Z M10,10 L11,10 L11,14 L10,14 L10,10 Z M5,8 L7,8 L7,16 L5,16 L5,8 Z M2,4 L2,20 L22,20 L22,4 L2,4 Z M20,18 L4,18 L4,6 L20,6 L20,18 Z" id="path-1"></path>
    </defs>
    <g id="icon/maps/money_24px" stroke="none" stroke-width="1" fill="none" fill-rule="evenodd">
        <mask id="mask-2" fill="white">
            <use xlink:href="#path-1"></use>
        </mask>
        <g fill-rule="nonzero"></g>
        <g id="✱-/-Color-/-Icons-/-Black-/-Inactive" mask="url(#mask-2)" fill="#000000" fill-opacity="0.54">
            <rect id="Rectangle" x="0" y="0" width="24" height="24"></rect>
        </g>
    </g>
</svg>