<?xml version="1.0" encoding="UTF-8"?>
<svg width="24px" height="24px" viewBox="0 0 24 24" version="1.1" xmlns="http://www.w3.org/2000/svg" xmlns:xlink="http://www.w3.org/1999/xlink">
    <!-- Generator: Sketch 50 (54983) - http://www.bohemiancoding.com/sketch -->
    <title>icon/maps/not_listed_location_24px_sharp</title>
    <desc>Created with Sketch.</desc>
    <defs>
        <path d="M12,2 C8.14,2 5,5.14 5,9 C5,14.25 12,22 12,22 C12,22 19,14.25 19,9 C19,5.14 15.86,2 12,2 Z M12.88,15.75 L11.13,15.75 L11.13,14 L12.88,14 L12.88,15.75 Z M12.88,12.88 L11.13,12.88 C11.13,10.04 13.75,10.26 13.75,8.5 C13.75,7.54 12.96,6.75 12,6.75 C11.04,6.75 10.25,7.54 10.25,8.5 L8.5,8.5 C8.5,6.57 10.07,5 12,5 C13.93,5 15.5,6.57 15.5,8.5 C15.5,10.69 12.88,10.91 12.88,12.88 Z" id="path-1"></path>
    </defs>
    <g id="icon/maps/not_listed_location_24px" stroke="none" stroke-width="1" fill="none" fill-rule="evenodd">
        <mask id="mask-2" fill="white">
            <use xlink:href="#path-1"></use>
        </mask>
        <g fill-rule="nonzero"></g>
        <g id="✱-/-Color-/-Icons-/-Black-/-Inactive" mask="url(#mask-2)" fill="#000000" fill-opacity="0.54">
            <rect id="Rectangle" x="0" y="0" width="24" height="24"></rect>
        </g>
    </g>
</svg>