<?xml version="1.0" encoding="UTF-8"?>
<svg width="24px" height="24px" viewBox="0 0 24 24" version="1.1" xmlns="http://www.w3.org/2000/svg" xmlns:xlink="http://www.w3.org/1999/xlink">
    <!-- Generator: Sketch 50 (54983) - http://www.bohemiancoding.com/sketch -->
    <title>icon/maps/person_pin_24px_sharp</title>
    <desc>Created with Sketch.</desc>
    <defs>
        <path d="M21,1.5 L3,1.5 L3,19.5 L9,19.5 L12,22.5 L15,19.5 L21,19.5 L21,1.5 Z M12,4.8 C13.49,4.8 14.7,6.01 14.7,7.5 C14.7,8.99 13.49,10.2 12,10.2 C10.51,10.2 9.3,8.99 9.3,7.5 C9.3,6.01 10.51,4.8 12,4.8 Z M18,15.5 L6,15.5 L6,14.6 C6,12.6 10,11.5 12,11.5 C14,11.5 18,12.6 18,14.6 L18,15.5 Z" id="path-1"></path>
    </defs>
    <g id="icon/maps/person_pin_24px" stroke="none" stroke-width="1" fill="none" fill-rule="evenodd">
        <mask id="mask-2" fill="white">
            <use xlink:href="#path-1"></use>
        </mask>
        <g fill-rule="nonzero"></g>
        <g id="✱-/-Color-/-Icons-/-Black-/-Inactive" mask="url(#mask-2)" fill="#000000" fill-opacity="0.54">
            <rect id="Rectangle" x="0" y="0" width="24" height="24"></rect>
        </g>
    </g>
</svg>