<?xml version="1.0" encoding="UTF-8"?>
<svg width="24px" height="24px" viewBox="0 0 24 24" version="1.1" xmlns="http://www.w3.org/2000/svg" xmlns:xlink="http://www.w3.org/1999/xlink">
    <!-- Generator: Sketch 50 (54983) - http://www.bohemiancoding.com/sketch -->
    <title>icon/maps/person_pin_circle_24px_sharp</title>
    <desc>Created with Sketch.</desc>
    <defs>
        <path d="M12,2 C8.14,2 5,5.14 5,9 C5,14.25 12,22 12,22 C12,22 19,14.25 19,9 C19,5.14 15.86,2 12,2 Z M12,4 C13.1,4 14,4.9 14,6 C14,7.11 13.1,8 12,8 C10.9,8 10,7.11 10,6 C10,4.9 10.9,4 12,4 Z M12,14 C10.33,14 8.86,13.15 8,11.85 C8.02,10.53 10.67,9.8 12,9.8 C13.33,9.8 15.98,10.53 16,11.85 C15.14,13.15 13.67,14 12,14 Z" id="path-1"></path>
    </defs>
    <g id="icon/maps/person_pin_circle_24px" stroke="none" stroke-width="1" fill="none" fill-rule="evenodd">
        <mask id="mask-2" fill="white">
            <use xlink:href="#path-1"></use>
        </mask>
        <g fill-rule="nonzero"></g>
        <g id="✱-/-Color-/-Icons-/-Black-/-Inactive" mask="url(#mask-2)" fill="#000000" fill-opacity="0.54">
            <rect id="Rectangle" x="0" y="0" width="24" height="24"></rect>
        </g>
    </g>
</svg>