<?xml version="1.0" encoding="UTF-8"?>
<svg width="24px" height="24px" viewBox="0 0 24 24" version="1.1" xmlns="http://www.w3.org/2000/svg" xmlns:xlink="http://www.w3.org/1999/xlink">
    <!-- Generator: Sketch 50 (54983) - http://www.bohemiancoding.com/sketch -->
    <title>icon/maps/streetview_24px_sharp</title>
    <desc>Created with Sketch.</desc>
    <defs>
        <path d="M11.56,15.33 C11.22,15.6 11,16.03 11,16.5 L11,22 L18,22 C19.1,22 20,21.1 20,20 L20,14.02 C19.06,13.69 18.05,13.5 17,13.5 C14.97,13.5 13.07,14.2 11.56,15.33 Z M17,2 C14.2385763,2 12,4.23857625 12,7 C12,9.76142375 14.2385763,12 17,12 C19.7614237,12 22,9.76142375 22,7 C22,4.23857625 19.7614237,2 17,2 Z M10.5,7 C10.5,5.92 10.77,4.9 11.24,4 L4,4 C2.9,4 2,4.9 2,6 L2,20 C2,20.55 2.23,21.05 2.59,21.41 L12.41,11.59 C11.23,10.42 10.5,8.8 10.5,7 Z" id="path-1"></path>
    </defs>
    <g id="icon/maps/streetview_24px" stroke="none" stroke-width="1" fill="none" fill-rule="evenodd">
        <mask id="mask-2" fill="white">
            <use xlink:href="#path-1"></use>
        </mask>
        <g fill-rule="nonzero"></g>
        <g id="✱-/-Color-/-Icons-/-Black-/-Inactive" mask="url(#mask-2)" fill="#000000" fill-opacity="0.54">
            <rect id="Rectangle" x="0" y="0" width="24" height="24"></rect>
        </g>
    </g>
</svg>