<?xml version="1.0" encoding="UTF-8"?>
<svg width="24px" height="24px" viewBox="0 0 24 24" version="1.1" xmlns="http://www.w3.org/2000/svg" xmlns:xlink="http://www.w3.org/1999/xlink">
    <!-- Generator: Sketch 50 (54983) - http://www.bohemiancoding.com/sketch -->
    <title>icon/file/attachment_24px_rounded</title>
    <desc>Created with Sketch.</desc>
    <defs>
        <path d="M17.2523797,16 L6.67237967,16 C4.58237967,16 2.72237967,14.47 2.52237967,12.39 C2.29237967,10.01 4.16237967,8 6.50237967,8 L18.8623797,8 C20.1723797,8 21.3623797,8.94 21.4923797,10.24 C21.6423797,11.74 20.4723797,13 19.0023797,13 L8.50237967,13 C7.95237967,13 7.50237967,12.55 7.50237967,12 C7.50237967,11.45 7.95237967,11 8.50237967,11 L17.2523797,11 C17.6623797,11 18.0023797,10.66 18.0023797,10.25 C18.0023797,9.84 17.6623797,9.5 17.2523797,9.5 L8.64237967,9.5 C7.33237967,9.5 6.14237967,10.44 6.01237967,11.74 C5.86237967,13.24 7.03237967,14.5 8.50237967,14.5 L18.8323797,14.5 C20.9223797,14.5 22.7823797,12.97 22.9823797,10.89 C23.2123797,8.5 21.3423797,6.5 19.0023797,6.5 L6.73237967,6.5 C3.86237967,6.5 1.29237967,8.6 1.02237967,11.46 C0.722379673,14.75 3.28237967,17.5 6.50237967,17.5 L17.2523797,17.5 C17.6623797,17.5 18.0023797,17.16 18.0023797,16.75 C18.0023797,16.34 17.6623797,16 17.2523797,16 Z" id="path-1"></path>
    </defs>
    <g id="icon/file/attachment_24px" stroke="none" stroke-width="1" fill="none" fill-rule="evenodd">
        <mask id="mask-2" fill="white">
            <use xlink:href="#path-1"></use>
        </mask>
        <g fill-rule="nonzero"></g>
        <g id="✱-/-Color-/-Icons-/-Black-/-Inactive" mask="url(#mask-2)" fill="#000000" fill-opacity="0.54">
            <rect id="Rectangle" x="0" y="0" width="24" height="24"></rect>
        </g>
    </g>
</svg>