<?xml version="1.0" encoding="UTF-8"?>
<svg width="24px" height="24px" viewBox="0 0 24 24" version="1.1" xmlns="http://www.w3.org/2000/svg" xmlns:xlink="http://www.w3.org/1999/xlink">
    <!-- Generator: Sketch 50 (54983) - http://www.bohemiancoding.com/sketch -->
    <title>icon/file/cloud_off_24px_rounded</title>
    <desc>Created with Sketch.</desc>
    <defs>
        <path d="M23.9986491,14.20875 C23.9986491,11.56875 21.9486491,9.42875 19.3486491,9.24875 C18.6686491,5.79875 15.6386491,3.20875 11.9986491,3.20875 C10.6686491,3.20875 9.42864908,3.56875 8.34864908,4.17875 L9.83864908,5.66875 C10.5086491,5.37875 11.2286491,5.20875 11.9986491,5.20875 C15.0386491,5.20875 17.4986491,7.66875 17.4986491,10.70875 L17.4986491,11.20875 L18.9986491,11.20875 C20.6586491,11.20875 21.9986491,12.54875 21.9986491,14.20875 C21.9986491,15.19875 21.5186491,16.05875 20.7886491,16.60875 L22.1986491,18.01875 C23.2886491,17.09875 23.9986491,15.74875 23.9986491,14.20875 Z M3.70864908,3.76875 C3.31864908,4.15875 3.31864908,4.78875 3.70864908,5.17875 L5.76864908,7.23875 L5.34864908,7.23875 C2.06864908,7.58875 -0.411350921,10.57875 0.0586490789,14.02875 C0.458649079,17.04875 3.18864908,19.20875 6.21864908,19.20875 L17.7286491,19.20875 L19.0186491,20.49875 C19.4086491,20.88875 20.0386491,20.88875 20.4286491,20.49875 C20.8186491,20.10875 20.8186491,19.47875 20.4286491,19.08875 L5.11864908,3.76875 C4.93181755,3.58149733 4.67816672,3.47626439 4.41364908,3.47626439 C4.14913144,3.47626439 3.89548061,3.58149733 3.70864908,3.76875 Z M5.99864908,17.20875 C3.78864908,17.20875 1.99864908,15.41875 1.99864908,13.20875 C1.99864908,10.99875 3.78864908,9.20875 5.99864908,9.20875 L7.72864908,9.20875 L15.7286491,17.20875 L5.99864908,17.20875 Z" id="path-1"></path>
    </defs>
    <g id="icon/file/cloud_off_24px" stroke="none" stroke-width="1" fill="none" fill-rule="evenodd">
        <mask id="mask-2" fill="white">
            <use xlink:href="#path-1"></use>
        </mask>
        <g fill-rule="nonzero"></g>
        <g id="✱-/-Color-/-Icons-/-Black-/-Inactive" mask="url(#mask-2)" fill="#000000" fill-opacity="0.54">
            <rect id="Rectangle" x="0" y="0" width="24" height="24"></rect>
        </g>
    </g>
</svg>