<?xml version="1.0" encoding="UTF-8"?>
<svg width="24px" height="24px" viewBox="0 0 24 24" version="1.1" xmlns="http://www.w3.org/2000/svg" xmlns:xlink="http://www.w3.org/1999/xlink">
    <!-- Generator: Sketch 50 (54983) - http://www.bohemiancoding.com/sketch -->
    <title>icon/file/create_new_folder_24px_rounded</title>
    <desc>Created with Sketch.</desc>
    <defs>
        <path d="M20,6 L12,6 L10.59,4.59 C10.21,4.21 9.7,4 9.17,4 L4,4 C2.89,4 2.01,4.89 2.01,6 L2,18 C2,19.11 2.89,20 4,20 L20,20 C21.1,20 22,19.1 22,18 L22,8 C22,6.9 21.1,6 20,6 Z M18,14 L16,14 L16,16 C16,16.55 15.55,17 15,17 C14.45,17 14,16.55 14,16 L14,14 L12,14 C11.45,14 11,13.55 11,13 C11,12.45 11.45,12 12,12 L14,12 L14,10 C14,9.45 14.45,9 15,9 C15.55,9 16,9.45 16,10 L16,12 L18,12 C18.55,12 19,12.45 19,13 C19,13.55 18.55,14 18,14 Z" id="path-1"></path>
    </defs>
    <g id="icon/file/create_new_folder_24px" stroke="none" stroke-width="1" fill="none" fill-rule="evenodd">
        <mask id="mask-2" fill="white">
            <use xlink:href="#path-1"></use>
        </mask>
        <g fill-rule="nonzero"></g>
        <g id="✱-/-Color-/-Icons-/-Black-/-Inactive" mask="url(#mask-2)" fill="#000000" fill-opacity="0.54">
            <rect id="Rectangle" x="0" y="0" width="24" height="24"></rect>
        </g>
    </g>
</svg>