<?xml version="1.0" encoding="UTF-8"?>
<svg width="24px" height="24px" viewBox="0 0 24 24" version="1.1" xmlns="http://www.w3.org/2000/svg" xmlns:xlink="http://www.w3.org/1999/xlink">
    <!-- Generator: Sketch 50 (54983) - http://www.bohemiancoding.com/sketch -->
    <title>icon/file/upload_24px_rounded</title>
    <desc>Created with Sketch.</desc>
    <defs>
        <path d="M10,16.2962428 L14,16.2962428 C14.55,16.2962428 15,15.8462428 15,15.2962428 L15,10.2962428 L16.59,10.2962428 C17.48,10.2962428 17.93,9.2162428 17.3,8.5862428 L12.71,3.9962428 C12.5231685,3.80899013 12.2695176,3.7037572 12.005,3.7037572 C11.7404824,3.7037572 11.4868315,3.80899013 11.3,3.9962428 L6.71,8.5862428 C6.08,9.2162428 6.52,10.2962428 7.41,10.2962428 L9,10.2962428 L9,15.2962428 C9,15.8462428 9.45,16.2962428 10,16.2962428 Z M6,18.2962428 L18,18.2962428 C18.55,18.2962428 19,18.7462428 19,19.2962428 C19,19.8462428 18.55,20.2962428 18,20.2962428 L6,20.2962428 C5.45,20.2962428 5,19.8462428 5,19.2962428 C5,18.7462428 5.45,18.2962428 6,18.2962428 Z" id="path-1"></path>
    </defs>
    <g id="icon/file/upload_24px" stroke="none" stroke-width="1" fill="none" fill-rule="evenodd">
        <mask id="mask-2" fill="white">
            <use xlink:href="#path-1"></use>
        </mask>
        <g fill-rule="nonzero"></g>
        <g id="✱-/-Color-/-Icons-/-Black-/-Inactive" mask="url(#mask-2)" fill="#000000" fill-opacity="0.54">
            <rect id="Rectangle" x="0" y="0" width="24" height="24"></rect>
        </g>
    </g>
</svg>