<?xml version="1.0" encoding="UTF-8"?>
<svg width="24px" height="24px" viewBox="0 0 24 24" version="1.1" xmlns="http://www.w3.org/2000/svg" xmlns:xlink="http://www.w3.org/1999/xlink">
    <!-- Generator: Sketch 50 (54983) - http://www.bohemiancoding.com/sketch -->
    <title>icon/alert/notification_important_24px_two_tone</title>
    <desc>Created with Sketch.</desc>
    <defs>
        <path d="M5,0 C2.24,0 0,2.24 0,5 L0,12 L10,12 L10,5 C10,2.24 7.76,0 5,0 Z M6,10 L4,10 L4,8 L6,8 L6,10 Z M6,6 L4,6 L4,2 L6,2 L6,6 Z" id="path-1"></path>
        <path d="M2,2 C3.1,2 3.99,1.11 3.99,0.01 L0.01,0.01 C0.01,1.11 0.9,2 2,2 Z" id="path-3"></path>
        <path d="M16,16 L16,10 C16,6.65 13.64,3.85 10.5,3.17 L10.5,2 C10.5,1.17 9.83,0.5 9,0.5 C8.17,0.5 7.5,1.17 7.5,2 L7.5,3.17 C4.36,3.85 2,6.65 2,10 L2,16 L0,18 L0,19 L18,19 L18,18 L16,16 Z M14,17 L4,17 L4,10 C4,7.24 6.24,5 9,5 C11.76,5 14,7.24 14,10 L14,17 Z" id="path-5"></path>
        <rect id="path-7" x="0" y="0" width="2" height="4"></rect>
        <rect id="path-9" x="0" y="0" width="2" height="2"></rect>
    </defs>
    <g id="icon/alert/notification_important_24px" stroke="none" stroke-width="1" fill="none" fill-rule="evenodd">
        <g id="↳-Light-Color" transform="translate(7.000000, 6.000000)">
            <mask id="mask-2" fill="white">
                <use xlink:href="#path-1"></use>
            </mask>
            <g id="Mask" opacity="0.3" fill-rule="nonzero"></g>
            <g id="✱-/-Color-/-Icons-/-Black-/-Disabled" mask="url(#mask-2)" fill="#000000" fill-opacity="0.38">
                <rect id="Rectangle" x="0" y="0" width="101" height="101"></rect>
            </g>
        </g>
        <g id="↳-Dark-Color" transform="translate(10.000000, 21.000000)">
            <mask id="mask-4" fill="white">
                <use xlink:href="#path-3"></use>
            </mask>
            <g id="Mask" fill-rule="nonzero"></g>
            <g id="✱-/-Color-/-Icons-/-Black-/-Inactive" mask="url(#mask-4)" fill="#000000" fill-opacity="0.54">
                <rect id="Rectangle" x="0" y="0" width="101" height="101"></rect>
            </g>
        </g>
        <g id="↳-Dark-Color" transform="translate(3.000000, 1.000000)">
            <mask id="mask-6" fill="white">
                <use xlink:href="#path-5"></use>
            </mask>
            <g id="Mask" fill-rule="nonzero"></g>
            <g id="✱-/-Color-/-Icons-/-Black-/-Inactive" mask="url(#mask-6)" fill="#000000" fill-opacity="0.54">
                <rect id="Rectangle" x="0" y="0" width="101" height="101"></rect>
            </g>
        </g>
        <g id="↳-Dark-Color" transform="translate(11.000000, 8.000000)">
            <mask id="mask-8" fill="white">
                <use xlink:href="#path-7"></use>
            </mask>
            <g id="Mask" fill-rule="nonzero"></g>
            <g id="✱-/-Color-/-Icons-/-Black-/-Inactive" mask="url(#mask-8)" fill="#000000" fill-opacity="0.54">
                <rect id="Rectangle" x="0" y="0" width="101" height="101"></rect>
            </g>
        </g>
        <g id="↳-Dark-Color" transform="translate(11.000000, 14.000000)">
            <mask id="mask-10" fill="white">
                <use xlink:href="#path-9"></use>
            </mask>
            <g id="Mask" fill-rule="nonzero"></g>
            <g id="✱-/-Color-/-Icons-/-Black-/-Inactive" mask="url(#mask-10)" fill="#000000" fill-opacity="0.54">
                <rect id="Rectangle" x="0" y="0" width="101" height="101"></rect>
            </g>
        </g>
    </g>
</svg>