<?xml version="1.0" encoding="UTF-8"?>
<svg width="24px" height="24px" viewBox="0 0 24 24" version="1.1" xmlns="http://www.w3.org/2000/svg" xmlns:xlink="http://www.w3.org/1999/xlink">
    <!-- Generator: Sketch 50 (54983) - http://www.bohemiancoding.com/sketch -->
    <title>icon/toggle/star_24px_two_tone</title>
    <desc>Created with Sketch.</desc>
    <defs>
        <polygon id="path-1" points="7 9.4 3.24 11.67 4.24 7.39 0.92 4.51 5.3 4.13 7 0.1 8.71 4.14 13.09 4.52 9.77 7.4 10.77 11.68"></polygon>
        <path d="M20,7.24 L12.81,6.62 L10,0 L7.19,6.63 L0,7.24 L5.46,11.97 L3.82,19 L10,15.27 L16.18,19 L14.55,11.97 L20,7.24 Z M10,13.4 L6.24,15.67 L7.24,11.39 L3.92,8.51 L8.3,8.13 L10,4.1 L11.71,8.14 L16.09,8.52 L12.77,11.4 L13.77,15.68 L10,13.4 Z" id="path-3"></path>
    </defs>
    <g id="icon/toggle/star_24px" stroke="none" stroke-width="1" fill="none" fill-rule="evenodd">
        <g id="↳-Light-Color" transform="translate(5.000000, 6.000000)">
            <mask id="mask-2" fill="white">
                <use xlink:href="#path-1"></use>
            </mask>
            <g id="Mask" opacity="0.3" fill-rule="nonzero"></g>
            <g id="✱-/-Color-/-Icons-/-Black-/-Disabled" mask="url(#mask-2)" fill="#000000" fill-opacity="0.38">
                <rect id="Rectangle" x="0" y="0" width="101" height="101"></rect>
            </g>
        </g>
        <g id="↳-Dark-Color" transform="translate(2.000000, 2.000000)">
            <mask id="mask-4" fill="white">
                <use xlink:href="#path-3"></use>
            </mask>
            <g id="Mask" fill-rule="nonzero"></g>
            <g id="✱-/-Color-/-Icons-/-Black-/-Inactive" mask="url(#mask-4)" fill="#000000" fill-opacity="0.54">
                <rect id="Rectangle" x="0" y="0" width="101" height="101"></rect>
            </g>
        </g>
    </g>
</svg>