<?xml version="1.0" encoding="UTF-8"?>
<svg width="24px" height="24px" viewBox="0 0 24 24" version="1.1" xmlns="http://www.w3.org/2000/svg" xmlns:xlink="http://www.w3.org/1999/xlink">
    <!-- Generator: Sketch 50 (54983) - http://www.bohemiancoding.com/sketch -->
    <title>icon/toggle/toggle_on_24px_two_tone</title>
    <desc>Created with Sketch.</desc>
    <defs>
        <path d="M14,0 L4,0 C1.79,0 0,1.79 0,4 C0,6.21 1.79,8 4,8 L14,8 C16.21,8 18,6.21 18,4 C18,1.79 16.21,0 14,0 Z M14,7 C12.34,7 11,5.66 11,4 C11,2.34 12.34,1 14,1 C15.66,1 17,2.34 17,4 C17,5.66 15.66,7 14,7 Z" id="path-1"></path>
        <path d="M16,0 L6,0 C2.69,0 0,2.69 0,6 C0,9.31 2.69,12 6,12 L16,12 C19.31,12 22,9.31 22,6 C22,2.69 19.31,0 16,0 Z M16,10 L6,10 C3.79,10 2,8.21 2,6 C2,3.79 3.79,2 6,2 L16,2 C18.21,2 20,3.79 20,6 C20,8.21 18.21,10 16,10 Z" id="path-3"></path>
        <path d="M3,0 C1.34,0 0,1.34 0,3 C0,4.66 1.34,6 3,6 C4.66,6 6,4.66 6,3 C6,1.34 4.66,0 3,0 Z" id="path-5"></path>
    </defs>
    <g id="icon/toggle/toggle_on_24px" stroke="none" stroke-width="1" fill="none" fill-rule="evenodd">
        <g id="↳-Light-Color" transform="translate(3.000000, 8.000000)">
            <mask id="mask-2" fill="white">
                <use xlink:href="#path-1"></use>
            </mask>
            <g id="Mask" opacity="0.3" fill-rule="nonzero"></g>
            <g id="✱-/-Color-/-Icons-/-Black-/-Disabled" mask="url(#mask-2)" fill="#000000" fill-opacity="0.38">
                <rect id="Rectangle" x="0" y="0" width="101" height="101"></rect>
            </g>
        </g>
        <g id="↳-Dark-Color" transform="translate(1.000000, 6.000000)">
            <mask id="mask-4" fill="white">
                <use xlink:href="#path-3"></use>
            </mask>
            <g id="Mask" fill-rule="nonzero"></g>
            <g id="✱-/-Color-/-Icons-/-Black-/-Inactive" mask="url(#mask-4)" fill="#000000" fill-opacity="0.54">
                <rect id="Rectangle" x="0" y="0" width="101" height="101"></rect>
            </g>
        </g>
        <g id="↳-Dark-Color" transform="translate(14.000000, 9.000000)">
            <mask id="mask-6" fill="white">
                <use xlink:href="#path-5"></use>
            </mask>
            <g id="Mask" fill-rule="nonzero"></g>
            <g id="✱-/-Color-/-Icons-/-Black-/-Inactive" mask="url(#mask-6)" fill="#000000" fill-opacity="0.54">
                <rect id="Rectangle" x="0" y="0" width="101" height="101"></rect>
            </g>
        </g>
    </g>
</svg>