<?xml version="1.0" encoding="UTF-8"?>
<svg width="24px" height="24px" viewBox="0 0 24 24" version="1.1" xmlns="http://www.w3.org/2000/svg" xmlns:xlink="http://www.w3.org/1999/xlink">
    <!-- Generator: Sketch 50 (54983) - http://www.bohemiancoding.com/sketch -->
    <title>icon/av/queue_musicon/av/24px</title>
    <desc>Created with Sketch.</desc>
    <defs>
        <path d="M15,6 L3,6 L3,8 L15,8 L15,6 Z M15,10 L3,10 L3,12 L15,12 L15,10 Z M3,16 L11,16 L11,14 L3,14 L3,16 Z M17,6 L17,14.18 C16.69,14.07 16.35,14 16,14 C14.34,14 13,15.34 13,17 C13,18.66 14.34,20 16,20 C17.66,20 19,18.66 19,17 L19,8 L22,8 L22,6 L17,6 Z" id="path-1"></path>
    </defs>
    <g id="icon/av/queue_musicon/av/24px" stroke="none" stroke-width="1" fill="none" fill-rule="evenodd">
        <mask id="mask-2" fill="white">
            <use xlink:href="#path-1"></use>
        </mask>
        <g fill-rule="nonzero"></g>
        <g id="✱-/-Color-/-Icons-/-Black-/-Inactive" mask="url(#mask-2)" fill="#000000" fill-opacity="0.54">
            <rect id="Rectangle" x="0" y="0" width="24" height="24"></rect>
        </g>
    </g>
</svg>