<?xml version="1.0" encoding="UTF-8"?>
<svg width="24px" height="24px" viewBox="0 0 24 24" version="1.1" xmlns="http://www.w3.org/2000/svg" xmlns:xlink="http://www.w3.org/1999/xlink">
    <!-- Generator: Sketch 50 (54983) - http://www.bohemiancoding.com/sketch -->
    <title>icon/action/account_box_24px_outlined</title>
    <desc>Created with Sketch.</desc>
    <defs>
        <path d="M19,5 L19,19 L5,19 L5,5 L19,5 Z M19,3 L5,3 C3.89,3 3,3.9 3,5 L3,19 C3,20.1 3.89,21 5,21 L19,21 C20.1,21 21,20.1 21,19 L21,5 C21,3.9 20.1,3 19,3 Z M12,12 C10.35,12 9,10.65 9,9 C9,7.35 10.35,6 12,6 C13.65,6 15,7.35 15,9 C15,10.65 13.65,12 12,12 Z M12,8 C11.45,8 11,8.45 11,9 C11,9.55 11.45,10 12,10 C12.55,10 13,9.55 13,9 C13,8.45 12.55,8 12,8 Z M18,18 L6,18 L6,16.47 C6,13.97 9.97,12.89 12,12.89 C14.03,12.89 18,13.97 18,16.47 L18,18 Z M8.31,16 L15.69,16 C15,15.44 13.31,14.88 12,14.88 C10.69,14.88 8.99,15.44 8.31,16 Z" id="path-1"></path>
    </defs>
    <g id="icon/action/account_box_24px" stroke="none" stroke-width="1" fill="none" fill-rule="evenodd">
        <mask id="mask-2" fill="white">
            <use xlink:href="#path-1"></use>
        </mask>
        <g fill-rule="nonzero"></g>
        <g id="✱-/-Color-/-Icons-/-Black-/-Inactive" mask="url(#mask-2)" fill="#000000" fill-opacity="0.54">
            <rect id="Rectangle" x="0" y="0" width="24" height="24"></rect>
        </g>
    </g>
</svg>