<?xml version="1.0" encoding="UTF-8"?>
<svg width="24px" height="24px" viewBox="0 0 24 24" version="1.1" xmlns="http://www.w3.org/2000/svg" xmlns:xlink="http://www.w3.org/1999/xlink">
    <!-- Generator: Sketch 50 (54983) - http://www.bohemiancoding.com/sketch -->
    <title>icon/action/account_balance_24px_outlined</title>
    <desc>Created with Sketch.</desc>
    <defs>
        <path d="M7,11 L5,11 L5,18 L7,18 L7,11 Z M13,11 L11,11 L11,18 L13,18 L13,11 Z M21.5,20 L2.5,20 L2.5,22 L21.5,22 L21.5,20 Z M19,11 L17,11 L17,18 L19,18 L19,11 Z M12,4.26 L17.21,7 L6.79,7 L12,4.26 Z M12,2 L2.5,7 L2.5,9 L21.5,9 L21.5,7 L12,2 Z" id="path-1"></path>
    </defs>
    <g id="icon/action/account_balance_24px" stroke="none" stroke-width="1" fill="none" fill-rule="evenodd">
        <mask id="mask-2" fill="white">
            <use xlink:href="#path-1"></use>
        </mask>
        <g fill-rule="nonzero"></g>
        <g id="✱-/-Color-/-Icons-/-Black-/-Inactive" mask="url(#mask-2)" fill="#000000" fill-opacity="0.54">
            <rect id="Rectangle" x="0" y="0" width="24" height="24"></rect>
        </g>
    </g>
</svg>