<?xml version="1.0" encoding="UTF-8"?>
<svg width="24px" height="24px" viewBox="0 0 24 24" version="1.1" xmlns="http://www.w3.org/2000/svg" xmlns:xlink="http://www.w3.org/1999/xlink">
    <!-- Generator: Sketch 50 (54983) - http://www.bohemiancoding.com/sketch -->
    <title>icon/action/add_shopping_cart_24px_outlined</title>
    <desc>Created with Sketch.</desc>
    <defs>
        <path d="M11.92,9.5 L13.92,9.5 L13.92,6.5 L16.92,6.5 L16.92,4.5 L13.92,4.5 L13.92,1.5 L11.92,1.5 L11.92,4.5 L8.92,4.5 L8.92,6.5 L11.92,6.5 L11.92,9.5 Z M7.92,18.5 C6.82,18.5 5.93,19.4 5.93,20.5 C5.93,21.6 6.82,22.5 7.92,22.5 C9.02,22.5 9.92,21.6 9.92,20.5 C9.92,19.4 9.02,18.5 7.92,18.5 Z M17.92,18.5 C16.82,18.5 15.93,19.4 15.93,20.5 C15.93,21.6 16.82,22.5 17.92,22.5 C19.02,22.5 19.92,21.6 19.92,20.5 C19.92,19.4 19.02,18.5 17.92,18.5 Z M9.02,13.5 L16.47,13.5 C17.22,13.5 17.88,13.09 18.22,12.47 L22.08,5.46 L20.34,4.5 L16.47,11.5 L9.45,11.5 L5.19,2.5 L1.92,2.5 L1.92,4.5 L3.92,4.5 L7.52,12.09 L6.17,14.53 C5.44,15.87 6.4,17.5 7.92,17.5 L19.92,17.5 L19.92,15.5 L7.92,15.5 L9.02,13.5 Z" id="path-1"></path>
    </defs>
    <g id="icon/action/add_shopping_cart_24px" stroke="none" stroke-width="1" fill="none" fill-rule="evenodd">
        <mask id="mask-2" fill="white">
            <use xlink:href="#path-1"></use>
        </mask>
        <g fill-rule="nonzero"></g>
        <g id="✱-/-Color-/-Icons-/-Black-/-Inactive" mask="url(#mask-2)" fill="#000000" fill-opacity="0.54">
            <rect id="Rectangle" x="0" y="0" width="24" height="24"></rect>
        </g>
    </g>
</svg>