<?xml version="1.0" encoding="UTF-8"?>
<svg width="24px" height="24px" viewBox="0 0 24 24" version="1.1" xmlns="http://www.w3.org/2000/svg" xmlns:xlink="http://www.w3.org/1999/xlink">
    <!-- Generator: Sketch 50 (54983) - http://www.bohemiancoding.com/sketch -->
    <title>icon/action/assignment_ind_24px_outlined</title>
    <desc>Created with Sketch.</desc>
    <defs>
        <path d="M19,4 L14.82,4 C14.4,2.84 13.3,2 12,2 C10.7,2 9.6,2.84 9.18,4 L5,4 C3.9,4 3,4.9 3,6 L3,20 C3,21.1 3.9,22 5,22 L19,22 C20.1,22 21,21.1 21,20 L21,6 C21,4.9 20.1,4 19,4 Z M12,3.75 C12.22,3.75 12.41,3.85 12.55,4 C12.67,4.13 12.75,4.31 12.75,4.5 C12.75,4.91 12.41,5.25 12,5.25 C11.59,5.25 11.25,4.91 11.25,4.5 C11.25,4.31 11.33,4.13 11.45,4 C11.59,3.85 11.78,3.75 12,3.75 Z M19,20 L5,20 L5,6 L19,6 L19,20 Z M12,7 C10.35,7 9,8.35 9,10 C9,11.65 10.35,13 12,13 C13.65,13 15,11.65 15,10 C15,8.35 13.65,7 12,7 Z M12,11 C11.45,11 11,10.55 11,10 C11,9.45 11.45,9 12,9 C12.55,9 13,9.45 13,10 C13,10.55 12.55,11 12,11 Z M6,17.47 L6,19 L18,19 L18,17.47 C18,14.97 14.03,13.89 12,13.89 C9.97,13.89 6,14.96 6,17.47 Z M8.31,17 C9,16.44 10.69,15.88 12,15.88 C13.31,15.88 15.01,16.44 15.69,17 L8.31,17 Z" id="path-1"></path>
    </defs>
    <g id="icon/action/assignment_ind_24px" stroke="none" stroke-width="1" fill="none" fill-rule="evenodd">
        <mask id="mask-2" fill="white">
            <use xlink:href="#path-1"></use>
        </mask>
        <g fill-rule="nonzero"></g>
        <g id="✱-/-Color-/-Icons-/-Black-/-Inactive" mask="url(#mask-2)" fill="#000000" fill-opacity="0.54">
            <rect id="Rectangle" x="0" y="0" width="24" height="24"></rect>
        </g>
    </g>
</svg>