<?xml version="1.0" encoding="UTF-8"?>
<svg width="24px" height="24px" viewBox="0 0 24 24" version="1.1" xmlns="http://www.w3.org/2000/svg" xmlns:xlink="http://www.w3.org/1999/xlink">
    <!-- Generator: Sketch 50 (54983) - http://www.bohemiancoding.com/sketch -->
    <title>icon/action/assignment_24px_outlined</title>
    <desc>Created with Sketch.</desc>
    <defs>
        <path d="M7,16 L14,16 L14,18 L7,18 L7,16 Z M7,12 L17,12 L17,14 L7,14 L7,12 Z M7,8 L17,8 L17,10 L7,10 L7,8 Z M19,4 L14.82,4 C14.4,2.84 13.3,2 12,2 C10.7,2 9.6,2.84 9.18,4 L5,4 C4.86,4 4.73,4.01 4.6,4.04 C4.21,4.12 3.86,4.32 3.59,4.59 C3.41,4.77 3.26,4.99 3.16,5.23 C3.06,5.46 3,5.72 3,6 L3,20 C3,20.27 3.06,20.54 3.16,20.78 C3.26,21.02 3.41,21.23 3.59,21.42 C3.86,21.69 4.21,21.89 4.6,21.97 C4.73,21.99 4.86,22 5,22 L19,22 C20.1,22 21,21.1 21,20 L21,6 C21,4.9 20.1,4 19,4 Z M12,3.75 C12.41,3.75 12.75,4.09 12.75,4.5 C12.75,4.91 12.41,5.25 12,5.25 C11.59,5.25 11.25,4.91 11.25,4.5 C11.25,4.09 11.59,3.75 12,3.75 Z M19,20 L5,20 L5,6 L19,6 L19,20 Z" id="path-1"></path>
    </defs>
    <g id="icon/action/assignment_24px" stroke="none" stroke-width="1" fill="none" fill-rule="evenodd">
        <mask id="mask-2" fill="white">
            <use xlink:href="#path-1"></use>
        </mask>
        <g fill-rule="nonzero"></g>
        <g id="✱-/-Color-/-Icons-/-Black-/-Inactive" mask="url(#mask-2)" fill="#000000" fill-opacity="0.54">
            <rect id="Rectangle" x="0" y="0" width="24" height="24"></rect>
        </g>
    </g>
</svg>