<?xml version="1.0" encoding="UTF-8"?>
<svg width="24px" height="24px" viewBox="0 0 24 24" version="1.1" xmlns="http://www.w3.org/2000/svg" xmlns:xlink="http://www.w3.org/1999/xlink">
    <!-- Generator: Sketch 50 (54983) - http://www.bohemiancoding.com/sketch -->
    <title>icon/action/build_24px_outlined</title>
    <desc>Created with Sketch.</desc>
    <defs>
        <path d="M22.6558352,18.9895852 L13.5758352,9.90958522 C14.5058352,7.56958522 14.0258352,4.80958522 12.1358352,2.90958522 C9.83583522,0.609585215 6.25583522,0.399585215 3.70583522,2.25958522 L7.54583522,6.10958522 L6.12583522,7.51958522 L2.29583522,3.68958522 C0.435835215,6.22958522 0.645835215,9.81958522 2.94583522,12.1095852 C4.80583522,13.9695852 7.51583522,14.4595852 9.83583522,13.5895852 L18.9458352,22.6995852 C19.3358352,23.0895852 19.9658352,23.0895852 20.3558352,22.6995852 L22.6558352,20.3995852 C23.0558352,20.0195852 23.0558352,19.3895852 22.6558352,18.9895852 Z M19.6558352,20.5895852 L10.1958352,11.1295852 C9.58583522,11.5795852 8.90583522,11.8495852 8.19583522,11.9495852 C6.83583522,12.1495852 5.40583522,11.7395852 4.36583522,10.6995852 C3.41583522,9.75958522 2.97583522,8.49958522 3.04583522,7.25958522 L6.13583522,10.3495852 L10.3758352,6.10958522 L7.28583522,3.01958522 C8.52583522,2.94958522 9.77583522,3.38958522 10.7258352,4.32958522 C11.8058352,5.40958522 12.2158352,6.89958522 11.9658352,8.28958522 C11.8458352,8.99958522 11.5458352,9.65958522 11.0858352,10.2495852 L20.5358352,19.6995852 L19.6558352,20.5895852 Z" id="path-1"></path>
    </defs>
    <g id="icon/action/build_24px" stroke="none" stroke-width="1" fill="none" fill-rule="evenodd">
        <mask id="mask-2" fill="white">
            <use xlink:href="#path-1"></use>
        </mask>
        <g fill-rule="nonzero"></g>
        <g id="✱-/-Color-/-Icons-/-Black-/-Inactive" mask="url(#mask-2)" fill="#000000" fill-opacity="0.54">
            <rect id="Rectangle" x="0" y="0" width="24" height="24"></rect>
        </g>
    </g>
</svg>