<?xml version="1.0" encoding="UTF-8"?>
<svg width="24px" height="24px" viewBox="0 0 24 24" version="1.1" xmlns="http://www.w3.org/2000/svg" xmlns:xlink="http://www.w3.org/1999/xlink">
    <!-- Generator: Sketch 50 (54983) - http://www.bohemiancoding.com/sketch -->
    <title>icon/action/chrome_reader_mode_24px_outlined</title>
    <desc>Created with Sketch.</desc>
    <defs>
        <path d="M21,3.5 L3,3.5 C1.9,3.5 1,4.4 1,5.5 L1,18.5 C1,19.6 1.9,20.5 3,20.5 L21,20.5 C22.1,20.5 23,19.6 23,18.5 L23,5.5 C23,4.4 22.1,3.5 21,3.5 Z M3,18.5 L3,5.5 L11,5.5 L11,18.5 L3,18.5 Z M21,18.5 L13,18.5 L13,5.5 L21,5.5 L21,18.5 Z M14,9 L20,9 L20,10.5 L14,10.5 L14,9 Z M14,11.5 L20,11.5 L20,13 L14,13 L14,11.5 Z M14,14 L20,14 L20,15.5 L14,15.5 L14,14 Z" id="path-1"></path>
    </defs>
    <g id="icon/action/chrome_reader_mode_24px" stroke="none" stroke-width="1" fill="none" fill-rule="evenodd">
        <mask id="mask-2" fill="white">
            <use xlink:href="#path-1"></use>
        </mask>
        <g fill-rule="nonzero"></g>
        <g id="✱-/-Color-/-Icons-/-Black-/-Inactive" mask="url(#mask-2)" fill="#000000" fill-opacity="0.54">
            <rect id="Rectangle" x="0" y="0" width="24" height="24"></rect>
        </g>
    </g>
</svg>