<?xml version="1.0" encoding="UTF-8"?>
<svg width="24px" height="24px" viewBox="0 0 24 24" version="1.1" xmlns="http://www.w3.org/2000/svg" xmlns:xlink="http://www.w3.org/1999/xlink">
    <!-- Generator: Sketch 50 (54983) - http://www.bohemiancoding.com/sketch -->
    <title>icon/action/dashboard_24px_outlined</title>
    <desc>Created with Sketch.</desc>
    <defs>
        <path d="M19,5 L19,7 L15,7 L15,5 L19,5 Z M9,5 L9,11 L5,11 L5,5 L9,5 Z M19,13 L19,19 L15,19 L15,13 L19,13 Z M9,17 L9,19 L5,19 L5,17 L9,17 Z M21,3 L13,3 L13,9 L21,9 L21,3 Z M11,3 L3,3 L3,13 L11,13 L11,3 Z M21,11 L13,11 L13,21 L21,21 L21,11 Z M11,15 L3,15 L3,21 L11,21 L11,15 Z" id="path-1"></path>
    </defs>
    <g id="icon/action/dashboard_24px" stroke="none" stroke-width="1" fill="none" fill-rule="evenodd">
        <mask id="mask-2" fill="white">
            <use xlink:href="#path-1"></use>
        </mask>
        <g fill-rule="nonzero"></g>
        <g id="✱-/-Color-/-Icons-/-Black-/-Inactive" mask="url(#mask-2)" fill="#000000" fill-opacity="0.54">
            <rect id="Rectangle" x="0" y="0" width="24" height="24"></rect>
        </g>
    </g>
</svg>