<?xml version="1.0" encoding="UTF-8"?>
<svg width="24px" height="24px" viewBox="0 0 24 24" version="1.1" xmlns="http://www.w3.org/2000/svg" xmlns:xlink="http://www.w3.org/1999/xlink">
    <!-- Generator: Sketch 50 (54983) - http://www.bohemiancoding.com/sketch -->
    <title>icon/action/donut_small_24px_outlined</title>
    <desc>Created with Sketch.</desc>
    <defs>
        <path d="M14.845,11 L21.975,11 C21.505,6.28 17.745,2.52 13.025,2.05 L13.025,9.18 C13.875,9.49 14.535,10.15 14.845,11 Z M15.025,4.58 C17.025,5.4 18.625,7 19.445,9 L16.015,9 C15.735,8.63 15.395,8.29 15.025,8.01 L15.025,4.58 Z M2.025,12 C2.025,17.19 5.975,21.45 11.025,21.95 L11.025,14.82 C9.865,14.4 9.025,13.3 9.025,12 C9.025,10.7 9.865,9.6 11.025,9.18 L11.025,2.05 C5.975,2.55 2.025,6.81 2.025,12 Z M9.025,4.58 L9.025,8.02 C7.795,8.94 7.025,10.41 7.025,12 C7.025,13.59 7.795,15.06 9.025,15.99 L9.025,19.43 C6.065,18.24 4.025,15.35 4.025,12 C4.025,8.65 6.065,5.76 9.025,4.58 Z M13.025,14.82 L13.025,21.95 C17.745,21.48 21.505,17.72 21.975,13 L14.845,13 C14.535,13.85 13.875,14.51 13.025,14.82 Z M15.025,15.99 C15.395,15.71 15.735,15.38 16.015,15 L19.445,15 C18.625,17 17.025,18.6 15.025,19.42 L15.025,15.99 Z" id="path-1"></path>
    </defs>
    <g id="icon/action/donut_small_24px" stroke="none" stroke-width="1" fill="none" fill-rule="evenodd">
        <mask id="mask-2" fill="white">
            <use xlink:href="#path-1"></use>
        </mask>
        <g fill-rule="nonzero"></g>
        <g id="✱-/-Color-/-Icons-/-Black-/-Inactive" mask="url(#mask-2)" fill="#000000" fill-opacity="0.54">
            <rect id="Rectangle" x="0" y="0" width="24" height="24"></rect>
        </g>
    </g>
</svg>