<?xml version="1.0" encoding="UTF-8"?>
<svg width="24px" height="24px" viewBox="0 0 24 24" version="1.1" xmlns="http://www.w3.org/2000/svg" xmlns:xlink="http://www.w3.org/1999/xlink">
    <!-- Generator: Sketch 50 (54983) - http://www.bohemiancoding.com/sketch -->
    <title>icon/action/extension_24px_outlined</title>
    <desc>Created with Sketch.</desc>
    <defs>
        <path d="M10.75,4.25 C11.03,4.25 11.25,4.47 11.25,4.75 L11.25,6.75 L17.25,6.75 L17.25,12.75 L19.25,12.75 C19.53,12.75 19.75,12.97 19.75,13.25 C19.75,13.53 19.53,13.75 19.25,13.75 L17.25,13.75 L17.25,19.75 L15.13,19.75 C14.45,18 12.74,16.75 10.75,16.75 C8.76,16.75 7.05,18 6.37,19.75 L4.25,19.75 L4.25,17.63 C6,16.95 7.25,15.24 7.25,13.25 C7.25,11.26 6.01,9.55 4.26,8.87 L4.25,6.75 L10.25,6.75 L10.25,4.75 C10.25,4.47 10.47,4.25 10.75,4.25 Z M10.75,2.25 C9.37,2.25 8.25,3.37 8.25,4.75 L4.25,4.75 C3.15,4.75 2.26,5.65 2.26,6.75 L2.26,10.55 L2.55,10.55 C4.04,10.55 5.25,11.76 5.25,13.25 C5.25,14.74 4.04,15.95 2.55,15.95 L2.25,15.95 L2.25,19.75 C2.25,20.85 3.15,21.75 4.25,21.75 L8.05,21.75 L8.05,21.45 C8.05,19.96 9.26,18.75 10.75,18.75 C12.24,18.75 13.45,19.96 13.45,21.45 L13.45,21.75 L17.25,21.75 C18.35,21.75 19.25,20.85 19.25,19.75 L19.25,15.75 C20.63,15.75 21.75,14.63 21.75,13.25 C21.75,11.87 20.63,10.75 19.25,10.75 L19.25,6.75 C19.25,5.65 18.35,4.75 17.25,4.75 L13.25,4.75 C13.25,3.37 12.13,2.25 10.75,2.25 Z" id="path-1"></path>
    </defs>
    <g id="icon/action/extension_24px" stroke="none" stroke-width="1" fill="none" fill-rule="evenodd">
        <mask id="mask-2" fill="white">
            <use xlink:href="#path-1"></use>
        </mask>
        <g fill-rule="nonzero"></g>
        <g id="✱-/-Color-/-Icons-/-Black-/-Inactive" mask="url(#mask-2)" fill="#000000" fill-opacity="0.54">
            <rect id="Rectangle" x="0" y="0" width="24" height="24"></rect>
        </g>
    </g>
</svg>