<?xml version="1.0" encoding="UTF-8"?>
<svg width="24px" height="24px" viewBox="0 0 24 24" version="1.1" xmlns="http://www.w3.org/2000/svg" xmlns:xlink="http://www.w3.org/1999/xlink">
    <!-- Generator: Sketch 50 (54983) - http://www.bohemiancoding.com/sketch -->
    <title>icon/action/flip_to_front_24px_outlined</title>
    <desc>Created with Sketch.</desc>
    <defs>
        <path d="M3,13 L5,13 L5,11 L3,11 L3,13 Z M3,17 L5,17 L5,15 L3,15 L3,17 Z M5,21 L5,19 L3,19 C3,20.1 3.89,21 5,21 Z M3,9 L5,9 L5,7 L3,7 L3,9 Z M15,21 L17,21 L17,19 L15,19 L15,21 Z M19,3 L9,3 C7.89,3 7,3.9 7,5 L7,15 C7,16.1 7.89,17 9,17 L19,17 C20.1,17 21,16.1 21,15 L21,5 C21,3.9 20.1,3 19,3 Z M19,15 L9,15 L9,5 L19,5 L19,15 Z M11,21 L13,21 L13,19 L11,19 L11,21 Z M7,21 L9,21 L9,19 L7,19 L7,21 Z" id="path-1"></path>
    </defs>
    <g id="icon/action/flip_to_front_24px" stroke="none" stroke-width="1" fill="none" fill-rule="evenodd">
        <mask id="mask-2" fill="white">
            <use xlink:href="#path-1"></use>
        </mask>
        <g fill-rule="nonzero"></g>
        <g id="✱-/-Color-/-Icons-/-Black-/-Inactive" mask="url(#mask-2)" fill="#000000" fill-opacity="0.54">
            <rect id="Rectangle" x="0" y="0" width="24" height="24"></rect>
        </g>
    </g>
</svg>