<?xml version="1.0" encoding="UTF-8"?>
<svg width="24px" height="24px" viewBox="0 0 24 24" version="1.1" xmlns="http://www.w3.org/2000/svg" xmlns:xlink="http://www.w3.org/1999/xlink">
    <!-- Generator: Sketch 50 (54983) - http://www.bohemiancoding.com/sketch -->
    <title>icon/action/invert_colors_24px_outlined</title>
    <desc>Created with Sketch.</desc>
    <defs>
        <path d="M17.66,8.005 L12,2.345 L6.34,8.005 C3.22,11.125 3.22,16.195 6.34,19.315 C7.9,20.875 9.95,21.655 12,21.655 C14.05,21.655 16.1,20.875 17.66,19.315 C20.78,16.195 20.78,11.125 17.66,8.005 Z M12,19.665 C10.4,19.665 8.89,19.045 7.76,17.905 C6.62,16.765 6,15.265 6,13.665 C6,12.065 6.62,10.555 7.76,9.425 L12,5.175 L12,19.665 Z" id="path-1"></path>
    </defs>
    <g id="icon/action/invert_colors_24px" stroke="none" stroke-width="1" fill="none" fill-rule="evenodd">
        <mask id="mask-2" fill="white">
            <use xlink:href="#path-1"></use>
        </mask>
        <g fill-rule="nonzero"></g>
        <g id="✱-/-Color-/-Icons-/-Black-/-Inactive" mask="url(#mask-2)" fill="#000000" fill-opacity="0.54">
            <rect id="Rectangle" x="0" y="0" width="24" height="24"></rect>
        </g>
    </g>
</svg>