<?xml version="1.0" encoding="UTF-8"?>
<svg width="24px" height="24px" viewBox="0 0 24 24" version="1.1" xmlns="http://www.w3.org/2000/svg" xmlns:xlink="http://www.w3.org/1999/xlink">
    <!-- Generator: Sketch 50 (54983) - http://www.bohemiancoding.com/sketch -->
    <title>icon/action/label_off_24px_outlined</title>
    <desc>Created with Sketch.</desc>
    <defs>
        <path d="M16,7.19 L19.55,12.19 L17.92,14.48 L19.35,15.91 L22,12.19 L17.63,6.03 C17.27,5.52 16.67,5.19 16,5.19 L8.63,5.2 L10.63,7.19 L16,7.19 Z M2,4.22 L3.58,5.8 C3.22,6.15 3,6.65 3,7.19 L3,17.19 C3,18.29 3.9,19.18 5,19.18 L16,19.19 C16.28,19.19 16.55,19.12 16.79,19.01 L18.97,21.19 L20.38,19.78 L3.41,2.81 L2,4.22 Z M14.97,17.19 L5,17.19 L5,7.22 L14.97,17.19 Z" id="path-1"></path>
    </defs>
    <g id="icon/action/label_off_24px" stroke="none" stroke-width="1" fill="none" fill-rule="evenodd">
        <mask id="mask-2" fill="white">
            <use xlink:href="#path-1"></use>
        </mask>
        <g fill-rule="nonzero"></g>
        <g id="✱-/-Color-/-Icons-/-Black-/-Inactive" mask="url(#mask-2)" fill="#000000" fill-opacity="0.54">
            <rect id="Rectangle" x="0" y="0" width="24" height="24"></rect>
        </g>
    </g>
</svg>