<?xml version="1.0" encoding="UTF-8"?>
<svg width="24px" height="24px" viewBox="0 0 24 24" version="1.1" xmlns="http://www.w3.org/2000/svg" xmlns:xlink="http://www.w3.org/1999/xlink">
    <!-- Generator: Sketch 50 (54983) - http://www.bohemiancoding.com/sketch -->
    <title>icon/action/list_24px_outlined</title>
    <desc>Created with Sketch.</desc>
    <defs>
        <path d="M3,13 L5,13 L5,11 L3,11 L3,13 Z M3,17 L5,17 L5,15 L3,15 L3,17 Z M3,9 L5,9 L5,7 L3,7 L3,9 Z M7,13 L21,13 L21,11 L7,11 L7,13 Z M7,17 L21,17 L21,15 L7,15 L7,17 Z M7,7 L7,9 L21,9 L21,7 L7,7 Z M3,13 L5,13 L5,11 L3,11 L3,13 Z M3,17 L5,17 L5,15 L3,15 L3,17 Z M3,9 L5,9 L5,7 L3,7 L3,9 Z M7,13 L21,13 L21,11 L7,11 L7,13 Z M7,17 L21,17 L21,15 L7,15 L7,17 Z M7,7 L7,9 L21,9 L21,7 L7,7 Z" id="path-1"></path>
    </defs>
    <g id="icon/action/list_24px" stroke="none" stroke-width="1" fill="none" fill-rule="evenodd">
        <mask id="mask-2" fill="white">
            <use xlink:href="#path-1"></use>
        </mask>
        <g fill-rule="nonzero"></g>
        <g id="✱-/-Color-/-Icons-/-Black-/-Inactive" mask="url(#mask-2)" fill="#000000" fill-opacity="0.54">
            <rect id="Rectangle" x="0" y="0" width="24" height="24"></rect>
        </g>
    </g>
</svg>