<?xml version="1.0" encoding="UTF-8"?>
<svg width="24px" height="24px" viewBox="0 0 24 24" version="1.1" xmlns="http://www.w3.org/2000/svg" xmlns:xlink="http://www.w3.org/1999/xlink">
    <!-- Generator: Sketch 50 (54983) - http://www.bohemiancoding.com/sketch -->
    <title>icon/action/lock_24px 2_outlined</title>
    <desc>Created with Sketch.</desc>
    <defs>
        <path d="M18,8.5 L17,8.5 L17,6.5 C17,3.74 14.76,1.5 12,1.5 C9.24,1.5 7,3.74 7,6.5 L7,8.5 L6,8.5 C4.9,8.5 4,9.4 4,10.5 L4,20.5 C4,21.6 4.9,22.5 6,22.5 L18,22.5 C19.1,22.5 20,21.6 20,20.5 L20,10.5 C20,9.4 19.1,8.5 18,8.5 Z M9,6.5 C9,4.84 10.34,3.5 12,3.5 C13.66,3.5 15,4.84 15,6.5 L15,8.5 L9,8.5 L9,6.5 Z M18,20.5 L6,20.5 L6,10.5 L18,10.5 L18,20.5 Z M12,17.5 C13.1,17.5 14,16.6 14,15.5 C14,14.4 13.1,13.5 12,13.5 C10.9,13.5 10,14.4 10,15.5 C10,16.6 10.9,17.5 12,17.5 Z" id="path-1"></path>
    </defs>
    <g id="icon/action/lock_24px-2" stroke="none" stroke-width="1" fill="none" fill-rule="evenodd">
        <mask id="mask-2" fill="white">
            <use xlink:href="#path-1"></use>
        </mask>
        <g fill-rule="nonzero"></g>
        <g id="✱-/-Color-/-Icons-/-Black-/-Inactive" mask="url(#mask-2)" fill="#000000" fill-opacity="0.54">
            <rect id="Rectangle" x="0" y="0" width="24" height="24"></rect>
        </g>
    </g>
</svg>