<?xml version="1.0" encoding="UTF-8"?>
<svg width="24px" height="24px" viewBox="0 0 24 24" version="1.1" xmlns="http://www.w3.org/2000/svg" xmlns:xlink="http://www.w3.org/1999/xlink">
    <!-- Generator: Sketch 50 (54983) - http://www.bohemiancoding.com/sketch -->
    <title>icon/action/loyalty_24px_outlined</title>
    <desc>Created with Sketch.</desc>
    <defs>
        <path d="M21.41,11.58 L12.41,2.58 C12.05,2.22 11.55,2 11,2 L4,2 C2.9,2 2,2.9 2,4 L2,11 C2,11.55 2.22,12.05 2.59,12.42 L11.59,21.42 C11.95,21.78 12.45,22 13,22 C13.55,22 14.05,21.78 14.41,21.41 L21.41,14.41 C21.78,14.05 22,13.55 22,13 C22,12.45 21.77,11.94 21.41,11.58 Z M13,20.01 L4,11 L4,4 L11,4 L11,3.99 L20,12.99 L13,20.01 Z M6.5,5 C5.67157288,5 5,5.67157288 5,6.5 C5,7.32842712 5.67157288,8 6.5,8 C7.32842712,8 8,7.32842712 8,6.5 C8,5.67157288 7.32842712,5 6.5,5 Z M8.9,12.55 C8.9,13.12 9.13,13.62 9.5,14 L13,17.5 L16.5,14 C16.87,13.63 17.1,13.11 17.1,12.55 C17.1,11.42 16.18,10.5 15.05,10.5 C14.48,10.5 13.97,10.73 13.6,11.1 L13,11.7 L12.4,11.11 C12.03,10.73 11.51,10.5 10.95,10.5 C9.82,10.5 8.9,11.42 8.9,12.55 Z" id="path-1"></path>
    </defs>
    <g id="icon/action/loyalty_24px" stroke="none" stroke-width="1" fill="none" fill-rule="evenodd">
        <mask id="mask-2" fill="white">
            <use xlink:href="#path-1"></use>
        </mask>
        <g fill-rule="nonzero"></g>
        <g id="✱-/-Color-/-Icons-/-Black-/-Inactive" mask="url(#mask-2)" fill="#000000" fill-opacity="0.54">
            <rect id="Rectangle" x="0" y="0" width="24" height="24"></rect>
        </g>
    </g>
</svg>