<?xml version="1.0" encoding="UTF-8"?>
<svg width="24px" height="24px" viewBox="0 0 24 24" version="1.1" xmlns="http://www.w3.org/2000/svg" xmlns:xlink="http://www.w3.org/1999/xlink">
    <!-- Generator: Sketch 50 (54983) - http://www.bohemiancoding.com/sketch -->
    <title>icon/action/offline_bolt_24px_outlined</title>
    <desc>Created with Sketch.</desc>
    <defs>
        <path d="M12,2.02 C6.49,2.02 2.02,6.49 2.02,12 C2.02,17.51 6.49,21.98 12,21.98 C17.51,21.98 21.98,17.51 21.98,12 C21.98,6.49 17.51,2.02 12,2.02 Z M12,19.98 C7.6,19.98 4.02,16.4 4.02,12 C4.02,7.6 7.6,4.02 12,4.02 C16.4,4.02 19.98,7.6 19.98,12 C19.98,16.4 16.4,19.98 12,19.98 Z M12.75,5 L8.25,13.5 L11.39,13.5 L11.39,19 L15.75,10.5 L12.75,10.5 L12.75,5 Z" id="path-1"></path>
    </defs>
    <g id="icon/action/offline_bolt_24px" stroke="none" stroke-width="1" fill="none" fill-rule="evenodd">
        <mask id="mask-2" fill="white">
            <use xlink:href="#path-1"></use>
        </mask>
        <g fill-rule="nonzero"></g>
        <g id="✱-/-Color-/-Icons-/-Black-/-Inactive" mask="url(#mask-2)" fill="#000000" fill-opacity="0.54">
            <rect id="Rectangle" x="0" y="0" width="24" height="24"></rect>
        </g>
    </g>
</svg>