<?xml version="1.0" encoding="UTF-8"?>
<svg width="24px" height="24px" viewBox="0 0 24 24" version="1.1" xmlns="http://www.w3.org/2000/svg" xmlns:xlink="http://www.w3.org/1999/xlink">
    <!-- Generator: Sketch 50 (54983) - http://www.bohemiancoding.com/sketch -->
    <title>icon/action/pan_tool_24px_outlined</title>
    <desc>Created with Sketch.</desc>
    <defs>
        <path d="M18.37,23.995 L11.82,23.995 C10.74,23.995 9.68,23.545 8.93,22.765 L1.63,15.155 L3.7,13.325 C4.32,12.775 5.23,12.665 5.96,13.055 L8.37,14.335 L8.37,4.785 C8.37,3.405 9.49,2.285 10.87,2.285 C11.04,2.285 11.21,2.305 11.38,2.335 C11.47,1.035 12.55,0.005 13.87,0.005 C14.73,0.005 15.48,0.435 15.93,1.095 C16.22,0.975 16.54,0.915 16.87,0.915 C18.25,0.915 19.37,2.035 19.37,3.415 L19.37,3.695 C19.53,3.665 19.7,3.645 19.87,3.645 C21.25,3.645 22.37,4.765 22.37,6.145 L22.37,19.995 C22.37,22.205 20.58,23.995 18.37,23.995 Z M4.51,15.275 L10.37,21.375 C10.75,21.765 11.27,21.995 11.81,21.995 L18.37,21.995 C19.47,21.995 20.37,21.095 20.37,19.995 L20.37,6.145 C20.37,5.865 20.15,5.645 19.87,5.645 C19.59,5.645 19.37,5.865 19.37,6.145 L19.37,11.995 L17.37,11.995 L17.37,3.415 C17.37,3.135 17.15,2.915 16.87,2.915 C16.59,2.915 16.37,3.135 16.37,3.415 L16.37,11.995 L14.37,11.995 L14.37,2.505 C14.37,2.225 14.15,2.005 13.87,2.005 C13.59,2.005 13.37,2.225 13.37,2.505 L13.37,11.995 L11.37,11.995 L11.37,4.785 C11.37,4.505 11.15,4.285 10.87,4.285 C10.59,4.285 10.37,4.515 10.37,4.785 L10.37,17.655 L5.02,14.825 L4.51,15.275 Z" id="path-1"></path>
    </defs>
    <g id="icon/action/pan_tool_24px" stroke="none" stroke-width="1" fill="none" fill-rule="evenodd">
        <mask id="mask-2" fill="white">
            <use xlink:href="#path-1"></use>
        </mask>
        <g fill-rule="nonzero"></g>
        <g id="✱-/-Color-/-Icons-/-Black-/-Inactive" mask="url(#mask-2)" fill="#000000" fill-opacity="0.54">
            <rect id="Rectangle" x="0" y="0" width="24" height="24"></rect>
        </g>
    </g>
</svg>