<?xml version="1.0" encoding="UTF-8"?>
<svg width="24px" height="24px" viewBox="0 0 24 24" version="1.1" xmlns="http://www.w3.org/2000/svg" xmlns:xlink="http://www.w3.org/1999/xlink">
    <!-- Generator: Sketch 50 (54983) - http://www.bohemiancoding.com/sketch -->
    <title>icon/action/perm_contact_calendar_24px_outlined</title>
    <desc>Created with Sketch.</desc>
    <defs>
        <path d="M20.84,5.22 C20.79,5.1 20.73,4.99 20.66,4.88 C20.52,4.67 20.33,4.48 20.12,4.34 C20.01,4.27 19.9,4.21 19.78,4.16 C19.54,4.06 19.28,4 19,4 L18,4 L18,2 L16,2 L16,4 L8,4 L8,2 L6,2 L6,4 L5,4 C4.58,4 4.2,4.13 3.88,4.34 C3.67,4.48 3.48,4.67 3.34,4.88 C3.27,4.99 3.21,5.1 3.16,5.22 C3.06,5.46 3,5.72 3,6 L3,20 C3,21.1 3.89,22 5,22 L19,22 C19.28,22 19.54,21.94 19.78,21.84 C19.9,21.79 20.01,21.73 20.12,21.66 C20.33,21.52 20.52,21.33 20.66,21.12 C20.87,20.8 21,20.41 21,20 L21,6 C21,5.72 20.94,5.46 20.84,5.22 Z M5,20 L5,6 L19,6 L19,20 L5,20 Z M12,13.88 C9.97,13.88 6,14.96 6,17.46 L6,19 L18,19 L18,17.47 C18,14.96 14.03,13.88 12,13.88 Z M8.31,17 C9,16.44 10.69,15.88 12,15.88 C13.31,15.88 15.01,16.44 15.69,17 L8.31,17 Z M12,13 C13.65,13 15,11.65 15,10 C15,8.35 13.65,7 12,7 C10.35,7 9,8.35 9,10 C9,11.65 10.35,13 12,13 Z M12,9 C12.55,9 13,9.45 13,10 C13,10.55 12.55,11 12,11 C11.45,11 11,10.55 11,10 C11,9.45 11.45,9 12,9 Z" id="path-1"></path>
    </defs>
    <g id="icon/action/perm_contact_calendar_24px" stroke="none" stroke-width="1" fill="none" fill-rule="evenodd">
        <mask id="mask-2" fill="white">
            <use xlink:href="#path-1"></use>
        </mask>
        <g fill-rule="nonzero"></g>
        <g id="✱-/-Color-/-Icons-/-Black-/-Inactive" mask="url(#mask-2)" fill="#000000" fill-opacity="0.54">
            <rect id="Rectangle" x="0" y="0" width="24" height="24"></rect>
        </g>
    </g>
</svg>