<?xml version="1.0" encoding="UTF-8"?>
<svg width="24px" height="24px" viewBox="0 0 24 24" version="1.1" xmlns="http://www.w3.org/2000/svg" xmlns:xlink="http://www.w3.org/1999/xlink">
    <!-- Generator: Sketch 50 (54983) - http://www.bohemiancoding.com/sketch -->
    <title>icon/action/pets_24px_outlined</title>
    <desc>Created with Sketch.</desc>
    <defs>
        <path d="M4.5,6.49778902 C3.11928813,6.49778902 2,7.61707715 2,8.99778902 C2,10.3785009 3.11928813,11.497789 4.5,11.497789 C5.88071187,11.497789 7,10.3785009 7,8.99778902 C7,7.61707715 5.88071187,6.49778902 4.5,6.49778902 Z M9,2.49778902 C7.61928813,2.49778902 6.5,3.61707715 6.5,4.99778902 C6.5,6.3785009 7.61928813,7.49778902 9,7.49778902 C10.3807119,7.49778902 11.5,6.3785009 11.5,4.99778902 C11.5,3.61707715 10.3807119,2.49778902 9,2.49778902 Z M15,2.49778902 C13.6192881,2.49778902 12.5,3.61707715 12.5,4.99778902 C12.5,6.3785009 13.6192881,7.49778902 15,7.49778902 C16.3807119,7.49778902 17.5,6.3785009 17.5,4.99778902 C17.5,3.61707715 16.3807119,2.49778902 15,2.49778902 Z M19.5,6.49778902 C18.1192881,6.49778902 17,7.61707715 17,8.99778902 C17,10.3785009 18.1192881,11.497789 19.5,11.497789 C20.8807119,11.497789 22,10.3785009 22,8.99778902 C22,7.61707715 20.8807119,6.49778902 19.5,6.49778902 Z M17.34,14.357789 C16.47,13.337789 15.74,12.467789 14.86,11.447789 C14.4,10.907789 13.81,10.367789 13.11,10.127789 C13,10.087789 12.89,10.057789 12.78,10.037789 C12.53,9.99778902 12.26,9.99778902 12,9.99778902 C11.74,9.99778902 11.47,9.99778902 11.21,10.047789 C11.1,10.067789 10.99,10.097789 10.88,10.137789 C10.18,10.377789 9.6,10.917789 9.13,11.457789 C8.26,12.477789 7.53,13.347789 6.65,14.367789 C5.34,15.677789 3.73,17.127789 4.03,19.157789 C4.32,20.177789 5.05,21.187789 6.36,21.477789 C7.09,21.627789 9.42,21.037789 11.9,21.037789 L12.08,21.037789 C14.56,21.037789 16.89,21.617789 17.62,21.477789 C18.93,21.187789 19.66,20.167789 19.95,19.157789 C20.26,17.117789 18.65,15.667789 17.34,14.357789 Z" id="path-1"></path>
    </defs>
    <g id="icon/action/pets_24px" stroke="none" stroke-width="1" fill="none" fill-rule="evenodd">
        <mask id="mask-2" fill="white">
            <use xlink:href="#path-1"></use>
        </mask>
        <g fill-rule="nonzero"></g>
        <g id="✱-/-Color-/-Icons-/-Black-/-Inactive" mask="url(#mask-2)" fill="#000000" fill-opacity="0.54">
            <rect id="Rectangle" x="0" y="0" width="24" height="24"></rect>
        </g>
    </g>
</svg>