<?xml version="1.0" encoding="UTF-8"?>
<svg width="24px" height="24px" viewBox="0 0 24 24" version="1.1" xmlns="http://www.w3.org/2000/svg" xmlns:xlink="http://www.w3.org/1999/xlink">
    <!-- Generator: Sketch 50 (54983) - http://www.bohemiancoding.com/sketch -->
    <title>icon/action/picture_in_picture_24px_outlined</title>
    <desc>Created with Sketch.</desc>
    <defs>
        <path d="M19,7.01 L11,7.01 L11,13.01 L19,13.01 L19,7.01 Z M17,11.01 L13,11.01 L13,9.01 L17,9.01 L17,11.01 Z M21,3.01 L3,3.01 C1.9,3.01 1,3.91 1,5.01 L1,19.01 C1,20.11 1.9,20.99 3,20.99 L21,20.99 C22.1,20.99 23,20.11 23,19.01 L23,5.01 C23,3.91 22.1,3.01 21,3.01 Z M21,19.02 L3,19.02 L3,4.99 L21,4.99 L21,19.02 Z" id="path-1"></path>
    </defs>
    <g id="icon/action/picture_in_picture_24px" stroke="none" stroke-width="1" fill="none" fill-rule="evenodd">
        <mask id="mask-2" fill="white">
            <use xlink:href="#path-1"></use>
        </mask>
        <g fill-rule="nonzero"></g>
        <g id="✱-/-Color-/-Icons-/-Black-/-Inactive" mask="url(#mask-2)" fill="#000000" fill-opacity="0.54">
            <rect id="Rectangle" x="0" y="0" width="24" height="24"></rect>
        </g>
    </g>
</svg>