<?xml version="1.0" encoding="UTF-8"?>
<svg width="24px" height="24px" viewBox="0 0 24 24" version="1.1" xmlns="http://www.w3.org/2000/svg" xmlns:xlink="http://www.w3.org/1999/xlink">
    <!-- Generator: Sketch 50 (54983) - http://www.bohemiancoding.com/sketch -->
    <title>icon/action/rowing_24px_outlined</title>
    <desc>Created with Sketch.</desc>
    <defs>
        <path d="M8,14 L3.5,18.5 L5,20 L8.5,16.5 L10.5,16.5 L8,14 Z M14.5,0.5 C13.4,0.5 12.5,1.4 12.5,2.5 C12.5,3.6 13.4,4.5 14.5,4.5 C15.6,4.5 16.5,3.6 16.5,2.5 C16.5,1.4 15.6,0.5 14.5,0.5 Z M20.5,20.51 L17.5,23.5 L14.51,20.49 L14.51,19 L7.41,11.91 C7.1,11.96 6.8,11.98 6.5,11.98 L6.5,9.82 C8.16,9.85 10.11,8.95 11.17,7.78 L12.57,6.23 C12.76,6.02 13,5.85 13.26,5.73 C13.55,5.59 13.88,5.5 14.22,5.5 L14.25,5.5 C15.49,5.51 16.5,6.52 16.5,7.76 L16.5,13.51 C16.5,14.35 16.15,15.12 15.58,15.67 L12,12.09 L12,9.82 C11.37,10.34 10.57,10.84 9.71,11.21 L16,17.5 L17.5,17.5 L20.5,20.51 Z" id="path-1"></path>
    </defs>
    <g id="icon/action/rowing_24px" stroke="none" stroke-width="1" fill="none" fill-rule="evenodd">
        <mask id="mask-2" fill="white">
            <use xlink:href="#path-1"></use>
        </mask>
        <g fill-rule="nonzero"></g>
        <g id="✱-/-Color-/-Icons-/-Black-/-Inactive" mask="url(#mask-2)" fill="#000000" fill-opacity="0.54">
            <rect id="Rectangle" x="0" y="0" width="24" height="24"></rect>
        </g>
    </g>
</svg>