<?xml version="1.0" encoding="UTF-8"?>
<svg width="24px" height="24px" viewBox="0 0 24 24" version="1.1" xmlns="http://www.w3.org/2000/svg" xmlns:xlink="http://www.w3.org/1999/xlink">
    <!-- Generator: Sketch 50 (54983) - http://www.bohemiancoding.com/sketch -->
    <title>icon/action/settings_24px_outlined</title>
    <desc>Created with Sketch.</desc>
    <defs>
        <path d="M19.4322087,12.98 C19.4722087,12.66 19.5022087,12.34 19.5022087,12 C19.5022087,11.66 19.4722087,11.34 19.4322087,11.02 L21.5422087,9.37 C21.7322087,9.22 21.7822087,8.95 21.6622087,8.73 L19.6622087,5.27 C19.5722087,5.11 19.4022087,5.02 19.2222087,5.02 C19.1622087,5.02 19.1022087,5.03 19.0522087,5.05 L16.5622087,6.05 C16.0422087,5.65 15.4822087,5.32 14.8722087,5.07 L14.4922087,2.42 C14.4622087,2.18 14.2522087,2 14.0022087,2 L10.0022087,2 C9.75220874,2 9.54220874,2.18 9.51220874,2.42 L9.13220874,5.07 C8.52220874,5.32 7.96220874,5.66 7.44220874,6.05 L4.95220874,5.05 C4.89220874,5.03 4.83220874,5.02 4.77220874,5.02 C4.60220874,5.02 4.43220874,5.11 4.34220874,5.27 L2.34220874,8.73 C2.21220874,8.95 2.27220874,9.22 2.46220874,9.37 L4.57220874,11.02 C4.53220874,11.34 4.50220874,11.67 4.50220874,12 C4.50220874,12.33 4.53220874,12.66 4.57220874,12.98 L2.46220874,14.63 C2.27220874,14.78 2.22220874,15.05 2.34220874,15.27 L4.34220874,18.73 C4.43220874,18.89 4.60220874,18.98 4.78220874,18.98 C4.84220874,18.98 4.90220874,18.97 4.95220874,18.95 L7.44220874,17.95 C7.96220874,18.35 8.52220874,18.68 9.13220874,18.93 L9.51220874,21.58 C9.54220874,21.82 9.75220874,22 10.0022087,22 L14.0022087,22 C14.2522087,22 14.4622087,21.82 14.4922087,21.58 L14.8722087,18.93 C15.4822087,18.68 16.0422087,18.34 16.5622087,17.95 L19.0522087,18.95 C19.1122087,18.97 19.1722087,18.98 19.2322087,18.98 C19.4022087,18.98 19.5722087,18.89 19.6622087,18.73 L21.6622087,15.27 C21.7822087,15.05 21.7322087,14.78 21.5422087,14.63 L19.4322087,12.98 Z M17.4522087,11.27 C17.4922087,11.58 17.5022087,11.79 17.5022087,12 C17.5022087,12.21 17.4822087,12.43 17.4522087,12.73 L17.3122087,13.86 L18.2022087,14.56 L19.2822087,15.4 L18.5822087,16.61 L17.3122087,16.1 L16.2722087,15.68 L15.3722087,16.36 C14.9422087,16.68 14.5322087,16.92 14.1222087,17.09 L13.0622087,17.52 L12.9022087,18.65 L12.7022087,20 L11.3022087,20 L11.1122087,18.65 L10.9522087,17.52 L9.89220874,17.09 C9.46220874,16.91 9.06220874,16.68 8.66220874,16.38 L7.75220874,15.68 L6.69220874,16.11 L5.42220874,16.62 L4.72220874,15.41 L5.80220874,14.57 L6.69220874,13.87 L6.55220874,12.74 C6.52220874,12.43 6.50220874,12.2 6.50220874,12 C6.50220874,11.8 6.52220874,11.57 6.55220874,11.27 L6.69220874,10.14 L5.80220874,9.44 L4.72220874,8.6 L5.42220874,7.39 L6.69220874,7.9 L7.73220874,8.32 L8.63220874,7.64 C9.06220874,7.32 9.47220874,7.08 9.88220874,6.91 L10.9422087,6.48 L11.1022087,5.35 L11.3022087,4 L12.6922087,4 L12.8822087,5.35 L13.0422087,6.48 L14.1022087,6.91 C14.5322087,7.09 14.9322087,7.32 15.3322087,7.62 L16.2422087,8.32 L17.3022087,7.89 L18.5722087,7.38 L19.2722087,8.59 L18.2022087,9.44 L17.3122087,10.14 L17.4522087,11.27 Z M12.0022087,8 C9.79220874,8 8.00220874,9.79 8.00220874,12 C8.00220874,14.21 9.79220874,16 12.0022087,16 C14.2122087,16 16.0022087,14.21 16.0022087,12 C16.0022087,9.79 14.2122087,8 12.0022087,8 Z M12.0022087,14 C10.9022087,14 10.0022087,13.1 10.0022087,12 C10.0022087,10.9 10.9022087,10 12.0022087,10 C13.1022087,10 14.0022087,10.9 14.0022087,12 C14.0022087,13.1 13.1022087,14 12.0022087,14 Z" id="path-1"></path>
    </defs>
    <g id="icon/action/settings_24px" stroke="none" stroke-width="1" fill="none" fill-rule="evenodd">
        <mask id="mask-2" fill="white">
            <use xlink:href="#path-1"></use>
        </mask>
        <g fill-rule="nonzero"></g>
        <g id="✱-/-Color-/-Icons-/-Black-/-Inactive" mask="url(#mask-2)" fill="#000000" fill-opacity="0.54">
            <rect id="Rectangle" x="0" y="0" width="24" height="24"></rect>
        </g>
    </g>
</svg>