<?xml version="1.0" encoding="UTF-8"?>
<svg width="24px" height="24px" viewBox="0 0 24 24" version="1.1" xmlns="http://www.w3.org/2000/svg" xmlns:xlink="http://www.w3.org/1999/xlink">
    <!-- Generator: Sketch 50 (54983) - http://www.bohemiancoding.com/sketch -->
    <title>icon/action/settings_remote_24px_outlined</title>
    <desc>Created with Sketch.</desc>
    <defs>
        <path d="M15.005,9.5 L9.005,9.5 C8.455,9.5 8.005,9.95 8.005,10.5 L8.005,22.5 C8.005,23.05 8.455,23.5 9.005,23.5 L15.005,23.5 C15.555,23.5 16.005,23.05 16.005,22.5 L16.005,10.5 C16.005,9.95 15.555,9.5 15.005,9.5 Z M14.005,21.5 L10.005,21.5 L10.005,11.5 L14.005,11.5 L14.005,21.5 Z M12.005,12.5 C11.4527153,12.5 11.005,12.9477153 11.005,13.5 C11.005,14.0522847 11.4527153,14.5 12.005,14.5 C12.5572847,14.5 13.005,14.0522847 13.005,13.5 C13.005,12.9477153 12.5572847,12.5 12.005,12.5 Z M7.055,6.55 L8.465,7.96 C9.375,7.06 10.625,6.5 12.005,6.5 C13.385,6.5 14.635,7.06 15.545,7.96 L16.955,6.55 C15.685,5.28 13.935,4.5 12.005,4.5 C10.075,4.5 8.325,5.28 7.055,6.55 Z M12.005,0.5 C8.965,0.5 6.215,1.73 4.225,3.72 L5.635,5.13 C7.265,3.51 9.515,2.5 12.005,2.5 C14.495,2.5 16.745,3.51 18.365,5.14 L19.775,3.73 C17.795,1.73 15.045,0.5 12.005,0.5 Z" id="path-1"></path>
    </defs>
    <g id="icon/action/settings_remote_24px" stroke="none" stroke-width="1" fill="none" fill-rule="evenodd">
        <mask id="mask-2" fill="white">
            <use xlink:href="#path-1"></use>
        </mask>
        <g fill-rule="nonzero"></g>
        <g id="✱-/-Color-/-Icons-/-Black-/-Inactive" mask="url(#mask-2)" fill="#000000" fill-opacity="0.54">
            <rect id="Rectangle" x="0" y="0" width="24" height="24"></rect>
        </g>
    </g>
</svg>