<?xml version="1.0" encoding="UTF-8"?>
<svg width="24px" height="24px" viewBox="0 0 24 24" version="1.1" xmlns="http://www.w3.org/2000/svg" xmlns:xlink="http://www.w3.org/1999/xlink">
    <!-- Generator: Sketch 50 (54983) - http://www.bohemiancoding.com/sketch -->
    <title>icon/action/settings_overscan_24px_outlined</title>
    <desc>Created with Sketch.</desc>
    <defs>
        <path d="M12.01,5.5 L10,8 L14,8 L12.01,5.5 Z M18,10 L18,14 L20.5,12.01 L18,10 Z M6,10 L3.5,12.01 L6,14 L6,10 Z M14,16 L10,16 L12.01,18.5 L14,16 Z M21,3 L3,3 C1.9,3 1,3.9 1,5 L1,19 C1,20.1 1.9,21 3,21 L21,21 C22.1,21 23,20.1 23,19 L23,5 C23,3.9 22.1,3 21,3 Z M21,19.01 L3,19.01 L3,4.99 L21,4.99 L21,19.01 Z" id="path-1"></path>
    </defs>
    <g id="icon/action/settings_overscan_24px" stroke="none" stroke-width="1" fill="none" fill-rule="evenodd">
        <mask id="mask-2" fill="white">
            <use xlink:href="#path-1"></use>
        </mask>
        <g fill-rule="nonzero"></g>
        <g id="✱-/-Color-/-Icons-/-Black-/-Inactive" mask="url(#mask-2)" fill="#000000" fill-opacity="0.54">
            <rect id="Rectangle" x="0" y="0" width="24" height="24"></rect>
        </g>
    </g>
</svg>