<?xml version="1.0" encoding="UTF-8"?>
<svg width="24px" height="24px" viewBox="0 0 24 24" version="1.1" xmlns="http://www.w3.org/2000/svg" xmlns:xlink="http://www.w3.org/1999/xlink">
    <!-- Generator: Sketch 50 (54983) - http://www.bohemiancoding.com/sketch -->
    <title>icon/action/settings_power_24px_outlined</title>
    <desc>Created with Sketch.</desc>
    <defs>
        <path d="M7,23 L9,23 L9,21 L7,21 L7,23 Z M11,23 L13,23 L13,21 L11,21 L11,23 Z M13,1 L11,1 L11,11 L13,11 L13,1 Z M16.56,3.44 L15.11,4.89 C16.84,5.94 18,7.83 18,10 C18,13.31 15.31,16 12,16 C8.69,16 6,13.31 6,10 C6,7.83 7.16,5.94 8.88,4.88 L7.44,3.44 C5.36,4.88 4,7.28 4,10 C4,14.42 7.58,18 12,18 C16.42,18 20,14.42 20,10 C20,7.28 18.64,4.88 16.56,3.44 Z M15,23 L17,23 L17,21 L15,21 L15,23 Z" id="path-1"></path>
    </defs>
    <g id="icon/action/settings_power_24px" stroke="none" stroke-width="1" fill="none" fill-rule="evenodd">
        <mask id="mask-2" fill="white">
            <use xlink:href="#path-1"></use>
        </mask>
        <g fill-rule="nonzero"></g>
        <g id="✱-/-Color-/-Icons-/-Black-/-Inactive" mask="url(#mask-2)" fill="#000000" fill-opacity="0.54">
            <rect id="Rectangle" x="0" y="0" width="24" height="24"></rect>
        </g>
    </g>
</svg>