<?xml version="1.0" encoding="UTF-8"?>
<svg width="24px" height="24px" viewBox="0 0 24 24" version="1.1" xmlns="http://www.w3.org/2000/svg" xmlns:xlink="http://www.w3.org/1999/xlink">
    <!-- Generator: Sketch 50 (54983) - http://www.bohemiancoding.com/sketch -->
    <title>icon/action/shopping_basket_24px_outlined</title>
    <desc>Created with Sketch.</desc>
    <defs>
        <path d="M22,9.49 L17.21,9.49 L12.83,2.93 C12.64,2.65 12.32,2.51 12,2.51 C11.68,2.51 11.36,2.65 11.17,2.94 L6.79,9.49 L2,9.49 C1.45,9.49 1,9.94 1,10.49 C1,10.58 1.01,10.67 1.04,10.76 L3.58,20.03 C3.81,20.87 4.58,21.49 5.5,21.49 L18.5,21.49 C19.42,21.49 20.19,20.87 20.43,20.03 L22.97,10.76 L23,10.49 C23,9.94 22.55,9.49 22,9.49 Z M12,5.29 L14.8,9.49 L9.2,9.49 L12,5.29 Z M18.5,19.49 L5.51,19.5 L3.31,11.49 L20.7,11.49 L18.5,19.49 Z M12,13.49 C10.9,13.49 10,14.39 10,15.49 C10,16.59 10.9,17.49 12,17.49 C13.1,17.49 14,16.59 14,15.49 C14,14.39 13.1,13.49 12,13.49 Z" id="path-1"></path>
    </defs>
    <g id="icon/action/shopping_basket_24px" stroke="none" stroke-width="1" fill="none" fill-rule="evenodd">
        <mask id="mask-2" fill="white">
            <use xlink:href="#path-1"></use>
        </mask>
        <g fill-rule="nonzero"></g>
        <g id="✱-/-Color-/-Icons-/-Black-/-Inactive" mask="url(#mask-2)" fill="#000000" fill-opacity="0.54">
            <rect id="Rectangle" x="0" y="0" width="24" height="24"></rect>
        </g>
    </g>
</svg>