<?xml version="1.0" encoding="UTF-8"?>
<svg width="24px" height="24px" viewBox="0 0 24 24" version="1.1" xmlns="http://www.w3.org/2000/svg" xmlns:xlink="http://www.w3.org/1999/xlink">
    <!-- Generator: Sketch 50 (54983) - http://www.bohemiancoding.com/sketch -->
    <title>icon/action/shopping_cart_24px_outlined</title>
    <desc>Created with Sketch.</desc>
    <defs>
        <path d="M16.5462861,13 C17.2962861,13 17.9562861,12.59 18.2962861,11.97 L21.8762861,5.48 C22.2462861,4.82 21.7662861,4 21.0062861,4 L6.20628613,4 L5.26628613,2 L1.99628613,2 L1.99628613,4 L3.99628613,4 L7.59628613,11.59 L6.24628613,14.03 C5.51628613,15.37 6.47628613,17 7.99628613,17 L19.9962861,17 L19.9962861,15 L7.99628613,15 L9.09628613,13 L16.5462861,13 Z M7.15628613,6 L19.3062861,6 L16.5462861,11 L9.52628613,11 L7.15628613,6 Z M7.99628613,18 C6.89628613,18 6.00628613,18.9 6.00628613,20 C6.00628613,21.1 6.89628613,22 7.99628613,22 C9.09628613,22 9.99628613,21.1 9.99628613,20 C9.99628613,18.9 9.09628613,18 7.99628613,18 Z M17.9962861,18 C16.8962861,18 16.0062861,18.9 16.0062861,20 C16.0062861,21.1 16.8962861,22 17.9962861,22 C19.0962861,22 19.9962861,21.1 19.9962861,20 C19.9962861,18.9 19.0962861,18 17.9962861,18 Z" id="path-1"></path>
    </defs>
    <g id="icon/action/shopping_cart_24px" stroke="none" stroke-width="1" fill="none" fill-rule="evenodd">
        <mask id="mask-2" fill="white">
            <use xlink:href="#path-1"></use>
        </mask>
        <g fill-rule="nonzero"></g>
        <g id="✱-/-Color-/-Icons-/-Black-/-Inactive" mask="url(#mask-2)" fill="#000000" fill-opacity="0.54">
            <rect id="Rectangle" x="0" y="0" width="24" height="24"></rect>
        </g>
    </g>
</svg>