<?xml version="1.0" encoding="UTF-8"?>
<svg width="24px" height="24px" viewBox="0 0 24 24" version="1.1" xmlns="http://www.w3.org/2000/svg" xmlns:xlink="http://www.w3.org/1999/xlink">
    <!-- Generator: Sketch 50 (54983) - http://www.bohemiancoding.com/sketch -->
    <title>icon/action/shop_two_24px_outlined</title>
    <desc>Created with Sketch.</desc>
    <defs>
        <path d="M3,9.5 L1,9.5 L1,20.5 C1,21.61 1.89,22.5 3,22.5 L17,22.5 C18.11,22.5 19,21.61 19,20.5 L3,20.5 L3,9.5 Z M18,5.5 L18,3.5 C18,2.39 17.11,1.5 16,1.5 L12,1.5 C10.89,1.5 10,2.39 10,3.5 L10,5.5 L5,5.5 L5,16.5 C5,17.61 5.89,18.5 7,18.5 L21,18.5 C22.11,18.5 23,17.61 23,16.5 L23,5.5 L18,5.5 Z M12,3.5 L16,3.5 L16,5.5 L12,5.5 L12,3.5 Z M21,16.5 L7,16.5 L7,7.5 L21,7.5 L21,16.5 Z M12,15.5 L17.5,11.5 L12,8.5 L12,15.5 Z" id="path-1"></path>
    </defs>
    <g id="icon/action/shop_two_24px" stroke="none" stroke-width="1" fill="none" fill-rule="evenodd">
        <mask id="mask-2" fill="white">
            <use xlink:href="#path-1"></use>
        </mask>
        <g fill-rule="nonzero"></g>
        <g id="✱-/-Color-/-Icons-/-Black-/-Inactive" mask="url(#mask-2)" fill="#000000" fill-opacity="0.54">
            <rect id="Rectangle" x="0" y="0" width="24" height="24"></rect>
        </g>
    </g>
</svg>