<?xml version="1.0" encoding="UTF-8"?>
<svg width="24px" height="24px" viewBox="0 0 24 24" version="1.1" xmlns="http://www.w3.org/2000/svg" xmlns:xlink="http://www.w3.org/1999/xlink">
    <!-- Generator: Sketch 50 (54983) - http://www.bohemiancoding.com/sketch -->
    <title>icon/action/speaker_notes_off_24px_outlined</title>
    <desc>Created with Sketch.</desc>
    <defs>
        <path d="M20.93,3.34 L20.93,15.34 L19.59,15.34 L21.5,17.25 C22.32,17 22.93,16.24 22.93,15.34 L22.93,3.34 C22.93,2.24 22.03,1.34 20.93,1.34 L5.59,1.34 L7.59,3.34 L20.93,3.34 Z M6.93,11.34 L8.93,11.34 L8.93,13.34 L6.93,13.34 L6.93,11.34 Z M18.93,8.34 L12.59,8.34 L14.59,10.34 L18.93,10.34 L18.93,8.34 Z M18.93,5.34 L10.93,5.34 L10.93,6.68 L11.59,7.34 L18.93,7.34 L18.93,5.34 Z M2.34,0.93 L0.93,2.34 L2.94,4.35 L2.93,21.34 L6.93,17.34 L15.93,17.34 L21.66,23.07 L23.07,21.66 L2.34,0.93 Z M6.1,15.34 L4.93,16.51 L4.93,6.34 L6.93,8.34 L6.93,10.34 L8.93,10.34 L13.93,15.34 L6.1,15.34 Z" id="path-1"></path>
    </defs>
    <g id="icon/action/speaker_notes_off_24px" stroke="none" stroke-width="1" fill="none" fill-rule="evenodd">
        <mask id="mask-2" fill="white">
            <use xlink:href="#path-1"></use>
        </mask>
        <g fill-rule="nonzero"></g>
        <g id="✱-/-Color-/-Icons-/-Black-/-Inactive" mask="url(#mask-2)" fill="#000000" fill-opacity="0.54">
            <rect id="Rectangle" x="0" y="0" width="24" height="24"></rect>
        </g>
    </g>
</svg>