<?xml version="1.0" encoding="UTF-8"?>
<svg width="24px" height="24px" viewBox="0 0 24 24" version="1.1" xmlns="http://www.w3.org/2000/svg" xmlns:xlink="http://www.w3.org/1999/xlink">
    <!-- Generator: Sketch 50 (54983) - http://www.bohemiancoding.com/sketch -->
    <title>icon/action/toc_24px_outlined</title>
    <desc>Created with Sketch.</desc>
    <defs>
        <path d="M3,9 L17,9 L17,7 L3,7 L3,9 Z M3,13 L17,13 L17,11 L3,11 L3,13 Z M3,17 L17,17 L17,15 L3,15 L3,17 Z M19,17 L21,17 L21,15 L19,15 L19,17 Z M19,7 L19,9 L21,9 L21,7 L19,7 Z M19,13 L21,13 L21,11 L19,11 L19,13 Z" id="path-1"></path>
    </defs>
    <g id="icon/action/toc_24px" stroke="none" stroke-width="1" fill="none" fill-rule="evenodd">
        <mask id="mask-2" fill="white">
            <use xlink:href="#path-1"></use>
        </mask>
        <g fill-rule="nonzero"></g>
        <g id="✱-/-Color-/-Icons-/-Black-/-Inactive" mask="url(#mask-2)" fill="#000000" fill-opacity="0.54">
            <rect id="Rectangle" x="0" y="0" width="24" height="24"></rect>
        </g>
    </g>
</svg>