<?xml version="1.0" encoding="UTF-8"?>
<svg width="24px" height="24px" viewBox="0 0 24 24" version="1.1" xmlns="http://www.w3.org/2000/svg" xmlns:xlink="http://www.w3.org/1999/xlink">
    <!-- Generator: Sketch 50 (54983) - http://www.bohemiancoding.com/sketch -->
    <title>icon/action/touch_app_24px_outlined</title>
    <desc>Created with Sketch.</desc>
    <defs>
        <path d="M18.2637918,12.94 L15.0237918,11.32 C16.3137918,10.32 17.1437918,8.76 17.1437918,7 C17.1437918,3.97 14.6737918,1.5 11.6437918,1.5 C8.61379182,1.5 6.14379182,3.97 6.14379182,7 C6.14379182,9.13 7.36379182,10.98 9.14379182,11.89 L9.14379182,15.15 L7.30379182,14.76 L7.20379182,14.74 C7.10379182,14.72 7.00379182,14.71 6.88379182,14.71 C6.35379182,14.71 5.85379182,14.92 5.47379182,15.3 L4.07379182,16.72 L9.16379182,21.81 C9.59379182,22.25 10.1937918,22.5 10.8137918,22.5 L17.1137918,22.5 C18.0937918,22.5 18.9237918,21.8 19.0837918,20.83 L19.8837918,16.12 C20.1037918,14.82 19.4537918,13.54 18.2637918,12.94 Z M17.9137918,15.79 L17.1137918,20.5 L10.8137918,20.5 C10.7237918,20.5 10.6437918,20.46 10.5737918,20.4 L6.89379182,16.72 L11.1437918,17.61 L11.1437918,7 C11.1437918,6.72 11.3637918,6.5 11.6437918,6.5 C11.9237918,6.5 12.1437918,6.72 12.1437918,7 L12.1437918,13 L13.9037918,13 L17.3637918,14.73 C17.7637918,14.93 17.9837918,15.36 17.9137918,15.79 Z M8.14379182,7 C8.14379182,5.07 9.71379182,3.5 11.6437918,3.5 C13.5737918,3.5 15.1437918,5.07 15.1437918,7 C15.1437918,7.95 14.7637918,8.81 14.1437918,9.44 L14.1437918,7 C14.1437918,5.62 13.0237918,4.5 11.6437918,4.5 C10.2637918,4.5 9.14379182,5.62 9.14379182,7 L9.14379182,9.44 C8.52379182,8.81 8.14379182,7.95 8.14379182,7 Z" id="path-1"></path>
    </defs>
    <g id="icon/action/touch_app_24px" stroke="none" stroke-width="1" fill="none" fill-rule="evenodd">
        <mask id="mask-2" fill="white">
            <use xlink:href="#path-1"></use>
        </mask>
        <g fill-rule="nonzero"></g>
        <g id="✱-/-Color-/-Icons-/-Black-/-Inactive" mask="url(#mask-2)" fill="#000000" fill-opacity="0.54">
            <rect id="Rectangle" x="0" y="0" width="24" height="24"></rect>
        </g>
    </g>
</svg>