<?xml version="1.0" encoding="UTF-8"?>
<svg width="24px" height="24px" viewBox="0 0 24 24" version="1.1" xmlns="http://www.w3.org/2000/svg" xmlns:xlink="http://www.w3.org/1999/xlink">
    <!-- Generator: Sketch 50 (54983) - http://www.bohemiancoding.com/sketch -->
    <title>icon/action/view_list_24px_outlined</title>
    <desc>Created with Sketch.</desc>
    <defs>
        <path d="M3.5,5 L3.5,19 L20.5,19 L20.5,5 L3.5,5 Z M7.5,7 L7.5,9 L5.5,9 L5.5,7 L7.5,7 Z M5.5,13 L5.5,11 L7.5,11 L7.5,13 L5.5,13 Z M5.5,15 L7.5,15 L7.5,17 L5.5,17 L5.5,15 Z M18.5,17 L9.5,17 L9.5,15 L18.5,15 L18.5,17 Z M18.5,13 L9.5,13 L9.5,11 L18.5,11 L18.5,13 Z M18.5,9 L9.5,9 L9.5,7 L18.5,7 L18.5,9 Z" id="path-1"></path>
    </defs>
    <g id="icon/action/view_list_24px" stroke="none" stroke-width="1" fill="none" fill-rule="evenodd">
        <mask id="mask-2" fill="white">
            <use xlink:href="#path-1"></use>
        </mask>
        <g fill-rule="nonzero"></g>
        <g id="✱-/-Color-/-Icons-/-Black-/-Inactive" mask="url(#mask-2)" fill="#000000" fill-opacity="0.54">
            <rect id="Rectangle" x="0" y="0" width="24" height="24"></rect>
        </g>
    </g>
</svg>