<?xml version="1.0" encoding="UTF-8"?>
<svg width="24px" height="24px" viewBox="0 0 24 24" version="1.1" xmlns="http://www.w3.org/2000/svg" xmlns:xlink="http://www.w3.org/1999/xlink">
    <!-- Generator: Sketch 50 (54983) - http://www.bohemiancoding.com/sketch -->
    <title>icon/action/view_agenda_24px_outlined</title>
    <desc>Created with Sketch.</desc>
    <defs>
        <path d="M19.5,5 L19.5,9 L4.5,9 L4.5,5 L19.5,5 Z M19.5,15 L19.5,19 L4.5,19 L4.5,15 L19.5,15 Z M20.5,3 L3.5,3 C2.95,3 2.5,3.45 2.5,4 L2.5,10 C2.5,10.55 2.95,11 3.5,11 L20.5,11 C21.05,11 21.5,10.55 21.5,10 L21.5,4 C21.5,3.45 21.05,3 20.5,3 Z M20.5,13 L3.5,13 C2.95,13 2.5,13.45 2.5,14 L2.5,20 C2.5,20.55 2.95,21 3.5,21 L20.5,21 C21.05,21 21.5,20.55 21.5,20 L21.5,14 C21.5,13.45 21.05,13 20.5,13 Z" id="path-1"></path>
    </defs>
    <g id="icon/action/view_agenda_24px" stroke="none" stroke-width="1" fill="none" fill-rule="evenodd">
        <mask id="mask-2" fill="white">
            <use xlink:href="#path-1"></use>
        </mask>
        <g fill-rule="nonzero"></g>
        <g id="✱-/-Color-/-Icons-/-Black-/-Inactive" mask="url(#mask-2)" fill="#000000" fill-opacity="0.54">
            <rect id="Rectangle" x="0" y="0" width="24" height="24"></rect>
        </g>
    </g>
</svg>