<?xml version="1.0" encoding="UTF-8"?>
<svg width="24px" height="24px" viewBox="0 0 24 24" version="1.1" xmlns="http://www.w3.org/2000/svg" xmlns:xlink="http://www.w3.org/1999/xlink">
    <!-- Generator: Sketch 50 (54983) - http://www.bohemiancoding.com/sketch -->
    <title>icon/action/view_day_24px_outlined</title>
    <desc>Created with Sketch.</desc>
    <defs>
        <path d="M21.5,18 L2.5,18 L2.5,20 L21.5,20 L21.5,18 Z M19.5,10 L19.5,14 L4.5,14 L4.5,10 L19.5,10 Z M20.5,8 L3.5,8 C2.95,8 2.5,8.45 2.5,9 L2.5,15 C2.5,15.55 2.95,16 3.5,16 L20.5,16 C21.05,16 21.5,15.55 21.5,15 L21.5,9 C21.5,8.45 21.05,8 20.5,8 Z M21.5,4 L2.5,4 L2.5,6 L21.5,6 L21.5,4 Z" id="path-1"></path>
    </defs>
    <g id="icon/action/view_day_24px" stroke="none" stroke-width="1" fill="none" fill-rule="evenodd">
        <mask id="mask-2" fill="white">
            <use xlink:href="#path-1"></use>
        </mask>
        <g fill-rule="nonzero"></g>
        <g id="✱-/-Color-/-Icons-/-Black-/-Inactive" mask="url(#mask-2)" fill="#000000" fill-opacity="0.54">
            <rect id="Rectangle" x="0" y="0" width="24" height="24"></rect>
        </g>
    </g>
</svg>