<?xml version="1.0" encoding="UTF-8"?>
<svg width="24px" height="24px" viewBox="0 0 24 24" version="1.1" xmlns="http://www.w3.org/2000/svg" xmlns:xlink="http://www.w3.org/1999/xlink">
    <!-- Generator: Sketch 50 (54983) - http://www.bohemiancoding.com/sketch -->
    <title>icon/action/visibility_off_24px_outlined</title>
    <desc>Created with Sketch.</desc>
    <defs>
        <path d="M12,5.975 C15.79,5.975 19.17,8.105 20.82,11.475 C20.23,12.695 19.4,13.745 18.41,14.595 L19.82,16.005 C21.21,14.775 22.31,13.235 23,11.475 C21.27,7.085 17,3.975 12,3.975 C10.73,3.975 9.51,4.175 8.36,4.545 L10.01,6.195 C10.66,6.065 11.32,5.975 12,5.975 Z M10.93,7.115 L13,9.185 C13.57,9.435 14.03,9.895 14.28,10.465 L16.35,12.535 C16.43,12.195 16.49,11.835 16.49,11.465 C16.5,8.985 14.48,6.975 12,6.975 C11.63,6.975 11.28,7.025 10.93,7.115 Z M2.01,3.845 L4.69,6.525 C3.06,7.805 1.77,9.505 1,11.475 C2.73,15.865 7,18.975 12,18.975 C13.52,18.975 14.98,18.685 16.32,18.155 L19.74,21.575 L21.15,20.165 L3.42,2.425 L2.01,3.845 Z M9.51,11.345 L12.12,13.955 C12.08,13.965 12.04,13.975 12,13.975 C10.62,13.975 9.5,12.855 9.5,11.475 C9.5,11.425 9.51,11.395 9.51,11.345 Z M6.11,7.945 L7.86,9.695 C7.63,10.245 7.5,10.845 7.5,11.475 C7.5,13.955 9.52,15.975 12,15.975 C12.63,15.975 13.23,15.845 13.77,15.615 L14.75,16.595 C13.87,16.835 12.95,16.975 12,16.975 C8.21,16.975 4.83,14.845 3.18,11.475 C3.88,10.045 4.9,8.865 6.11,7.945 Z" id="path-1"></path>
    </defs>
    <g id="icon/action/visibility_off_24px" stroke="none" stroke-width="1" fill="none" fill-rule="evenodd">
        <mask id="mask-2" fill="white">
            <use xlink:href="#path-1"></use>
        </mask>
        <g fill-rule="nonzero"></g>
        <g id="✱-/-Color-/-Icons-/-Black-/-Inactive" mask="url(#mask-2)" fill="#000000" fill-opacity="0.54">
            <rect id="Rectangle" x="0" y="0" width="24" height="24"></rect>
        </g>
    </g>
</svg>