<?xml version="1.0" encoding="UTF-8"?>
<svg width="24px" height="24px" viewBox="0 0 24 24" version="1.1" xmlns="http://www.w3.org/2000/svg" xmlns:xlink="http://www.w3.org/1999/xlink">
    <!-- Generator: Sketch 50 (54983) - http://www.bohemiancoding.com/sketch -->
    <title>icon/navigation/arrow_upward_24px_rounded</title>
    <desc>Created with Sketch.</desc>
    <defs>
        <path d="M13,18.7912428 L13,7.6212428 L17.88,12.5012428 C18.27,12.8912428 18.91,12.8912428 19.3,12.5012428 C19.69,12.1112428 19.69,11.4812428 19.3,11.0912428 L12.71,4.5012428 C12.5231685,4.31399013 12.2695176,4.2087572 12.005,4.2087572 C11.7404824,4.2087572 11.4868315,4.31399013 11.3,4.5012428 L4.7,11.0812428 C4.31,11.4712428 4.31,12.1012428 4.7,12.4912428 C5.09,12.8812428 5.72,12.8812428 6.11,12.4912428 L11,7.6212428 L11,18.7912428 C11,19.3412428 11.45,19.7912428 12,19.7912428 C12.55,19.7912428 13,19.3412428 13,18.7912428 Z" id="path-1"></path>
    </defs>
    <g id="icon/navigation/arrow_upward_24px" stroke="none" stroke-width="1" fill="none" fill-rule="evenodd">
        <mask id="mask-2" fill="white">
            <use xlink:href="#path-1"></use>
        </mask>
        <g fill-rule="nonzero"></g>
        <g id="✱-/-Color-/-Icons-/-Black-/-Inactive" mask="url(#mask-2)" fill="#000000" fill-opacity="0.54">
            <rect id="Rectangle" x="0" y="0" width="24" height="24"></rect>
        </g>
    </g>
</svg>