<?xml version="1.0" encoding="UTF-8"?>
<svg width="24px" height="24px" viewBox="0 0 24 24" version="1.1" xmlns="http://www.w3.org/2000/svg" xmlns:xlink="http://www.w3.org/1999/xlink">
    <!-- Generator: Sketch 50 (54983) - http://www.bohemiancoding.com/sketch -->
    <title>icon/navigation/cancel_24px_rounded</title>
    <desc>Created with Sketch.</desc>
    <defs>
        <path d="M12,2 C6.47,2 2,6.47 2,12 C2,17.53 6.47,22 12,22 C17.53,22 22,17.53 22,12 C22,6.47 17.53,2 12,2 Z M16.3,16.3 C15.91,16.69 15.28,16.69 14.89,16.3 L12,13.41 L9.11,16.3 C8.72,16.69 8.09,16.69 7.7,16.3 C7.51274733,16.1131685 7.40751439,15.8595176 7.40751439,15.595 C7.40751439,15.3304824 7.51274733,15.0768315 7.7,14.89 L10.59,12 L7.7,9.11 C7.51274733,8.92316847 7.40751439,8.66951764 7.40751439,8.405 C7.40751439,8.14048236 7.51274733,7.88683153 7.7,7.7 C8.09,7.31 8.72,7.31 9.11,7.7 L12,10.59 L14.89,7.7 C15.28,7.31 15.91,7.31 16.3,7.7 C16.69,8.09 16.69,8.72 16.3,9.11 L13.41,12 L16.3,14.89 C16.68,15.27 16.68,15.91 16.3,16.3 Z" id="path-1"></path>
    </defs>
    <g id="icon/navigation/cancel_24px" stroke="none" stroke-width="1" fill="none" fill-rule="evenodd">
        <mask id="mask-2" fill="white">
            <use xlink:href="#path-1"></use>
        </mask>
        <g fill-rule="nonzero"></g>
        <g id="✱-/-Color-/-Icons-/-Black-/-Inactive" mask="url(#mask-2)" fill="#000000" fill-opacity="0.54">
            <rect id="Rectangle" x="0" y="0" width="24" height="24"></rect>
        </g>
    </g>
</svg>