<?xml version="1.0" encoding="UTF-8"?>
<svg width="24px" height="24px" viewBox="0 0 24 24" version="1.1" xmlns="http://www.w3.org/2000/svg" xmlns:xlink="http://www.w3.org/1999/xlink">
    <!-- Generator: Sketch 50 (54983) - http://www.bohemiancoding.com/sketch -->
    <title>icon/navigation/first_page_24px_rounded</title>
    <desc>Created with Sketch.</desc>
    <defs>
        <path d="M17.69875,15.89 L13.81875,12 L17.70875,8.11 C18.09875,7.72 18.09875,7.09 17.70875,6.7 C17.5219185,6.51274733 17.2682676,6.40751439 17.00375,6.40751439 C16.7392324,6.40751439 16.4855815,6.51274733 16.29875,6.7 L11.70875,11.29 C11.31875,11.68 11.31875,12.31 11.70875,12.7 L16.29875,17.29 C16.68875,17.68 17.31875,17.68 17.70875,17.29 C18.08875,16.91 18.08875,16.27 17.69875,15.89 Z M6.99875,6 C7.54875,6 7.99875,6.45 7.99875,7 L7.99875,17 C7.99875,17.55 7.54875,18 6.99875,18 C6.44875,18 5.99875,17.55 5.99875,17 L5.99875,7 C5.99875,6.45 6.44875,6 6.99875,6 Z" id="path-1"></path>
    </defs>
    <g id="icon/navigation/first_page_24px" stroke="none" stroke-width="1" fill="none" fill-rule="evenodd">
        <mask id="mask-2" fill="white">
            <use xlink:href="#path-1"></use>
        </mask>
        <g fill-rule="nonzero"></g>
        <g id="✱-/-Color-/-Icons-/-Black-/-Inactive" mask="url(#mask-2)" fill="#000000" fill-opacity="0.54">
            <rect id="Rectangle" x="0" y="0" width="24" height="24"></rect>
        </g>
    </g>
</svg>