<?xml version="1.0" encoding="UTF-8"?>
<svg width="24px" height="24px" viewBox="0 0 24 24" version="1.1" xmlns="http://www.w3.org/2000/svg" xmlns:xlink="http://www.w3.org/1999/xlink">
    <!-- Generator: Sketch 50 (54983) - http://www.bohemiancoding.com/sketch -->
    <title>icon/navigation/refresh_24px_rounded</title>
    <desc>Created with Sketch.</desc>
    <defs>
        <path d="M17.6418319,6.35146095 C16.0118319,4.72146095 13.7018319,3.78146095 11.1618319,4.04146095 C7.49183195,4.41146095 4.47183195,7.39146095 4.06183195,11.061461 C3.51183195,15.911461 7.26183195,20.001461 11.9918319,20.001461 C15.1818319,20.001461 17.9218319,18.131461 19.2018319,15.441461 C19.5218319,14.771461 19.0418319,14.001461 18.3018319,14.001461 C17.9318319,14.001461 17.5818319,14.201461 17.4218319,14.531461 C16.2918319,16.961461 13.5818319,18.501461 10.6218319,17.841461 C8.40183195,17.351461 6.61183195,15.541461 6.14183195,13.321461 C5.30183195,9.44146095 8.25183195,6.00146095 11.9918319,6.00146095 C13.6518319,6.00146095 15.1318319,6.69146095 16.2118319,7.78146095 L14.7018319,9.29146095 C14.0718319,9.92146095 14.5118319,11.001461 15.4018319,11.001461 L18.9918319,11.001461 C19.5418319,11.001461 19.9918319,10.551461 19.9918319,10.001461 L19.9918319,6.41146095 C19.9918319,5.52146095 18.9118319,5.07146095 18.2818319,5.70146095 L17.6418319,6.35146095 Z" id="path-1"></path>
    </defs>
    <g id="icon/navigation/refresh_24px" stroke="none" stroke-width="1" fill="none" fill-rule="evenodd">
        <mask id="mask-2" fill="white">
            <use xlink:href="#path-1"></use>
        </mask>
        <g fill-rule="nonzero"></g>
        <g id="✱-/-Color-/-Icons-/-Black-/-Inactive" mask="url(#mask-2)" fill="#000000" fill-opacity="0.54">
            <rect id="Rectangle" x="0" y="0" width="24" height="24"></rect>
        </g>
    </g>
</svg>