<?xml version="1.0" encoding="UTF-8"?>
<svg width="24px" height="24px" viewBox="0 0 24 24" version="1.1" xmlns="http://www.w3.org/2000/svg" xmlns:xlink="http://www.w3.org/1999/xlink">
    <!-- Generator: Sketch 50 (54983) - http://www.bohemiancoding.com/sketch -->
    <title>icon/places/all_inclusive_24px_rounded</title>
    <desc>Created with Sketch.</desc>
    <defs>
        <path d="M20.2254505,6.86 C18.2254505,6.26 16.1654505,6.82 14.8354505,8.15 L12.0054505,10.66 L10.4854505,12 L10.4954505,12 L7.80545052,14.39 C6.99545052,15.2 5.85545052,15.54 4.68545052,15.31 C3.43545052,15.06 2.40545052,14.06 2.11545052,12.82 C1.59545052,10.59 3.27545052,8.62 5.40545052,8.62 C6.31545052,8.62 7.16545052,8.97 7.84545052,9.65 L8.31545052,10.06 C8.69545052,10.4 9.26545052,10.4 9.64545052,10.06 C10.0954505,9.66 10.0954505,8.96 9.64545052,8.56 L9.22545052,8.2 C8.20545052,7.18 6.84545052,6.62 5.40545052,6.62 C2.42545052,6.62 0.00545051765,9.04 0.00545051765,12 C0.00545051765,14.96 2.42545052,17.38 5.40545052,17.38 C6.84545052,17.38 8.20545052,16.82 9.17545052,15.85 L12.0054505,13.35 L12.0154505,13.36 L13.5254505,12 L13.5154505,12 L16.2054505,9.61 C17.0154505,8.8 18.1554505,8.46 19.3254505,8.69 C20.5754505,8.94 21.6054505,9.94 21.8954505,11.18 C22.4154505,13.41 20.7354505,15.38 18.6054505,15.38 C17.7054505,15.38 16.8454505,15.03 16.1654505,14.35 L15.6854505,13.93 C15.3054505,13.59 14.7354505,13.59 14.3554505,13.93 C13.9054505,14.33 13.9054505,15.03 14.3554505,15.43 L14.7754505,15.8 C15.7954505,16.81 17.1454505,17.37 18.5954505,17.37 C21.8654505,17.37 24.4554505,14.47 23.9254505,11.12 C23.6254505,9.13 22.1554505,7.43 20.2254505,6.86 Z" id="path-1"></path>
    </defs>
    <g id="icon/places/all_inclusive_24px" stroke="none" stroke-width="1" fill="none" fill-rule="evenodd">
        <mask id="mask-2" fill="white">
            <use xlink:href="#path-1"></use>
        </mask>
        <g fill-rule="nonzero"></g>
        <g id="✱-/-Color-/-Icons-/-Black-/-Inactive" mask="url(#mask-2)" fill="#000000" fill-opacity="0.54">
            <rect id="Rectangle" x="0" y="0" width="24" height="24"></rect>
        </g>
    </g>
</svg>