<?xml version="1.0" encoding="UTF-8"?>
<svg width="24px" height="24px" viewBox="0 0 24 24" version="1.1" xmlns="http://www.w3.org/2000/svg" xmlns:xlink="http://www.w3.org/1999/xlink">
    <!-- Generator: Sketch 50 (54983) - http://www.bohemiancoding.com/sketch -->
    <title>icon/places/beach_access_24px_rounded</title>
    <desc>Created with Sketch.</desc>
    <defs>
        <path d="M13.3398764,14.768872 L14.7698764,13.338872 L20.4998764,19.068872 C20.8898764,19.458872 20.8898764,20.098872 20.4998764,20.498872 C20.1098764,20.888872 19.4698764,20.888872 19.0698764,20.498872 L13.3398764,14.768872 Z M17.6298764,9.03887195 L18.8998764,7.76887195 C19.7898764,6.87887195 19.6698764,5.33887195 18.5898764,4.68887195 C14.6998764,2.30887195 9.55987638,2.79887195 6.18987638,6.15887195 C10.1198764,4.85887195 14.4998764,5.90887195 17.6298764,9.03887195 Z M6.15987638,6.18887195 C2.79987638,9.55887195 2.30987638,14.698872 4.67987638,18.588872 C5.33987638,19.668872 6.86987638,19.798872 7.75987638,18.898872 L9.02987638,17.628872 C5.90987638,14.498872 4.85987638,10.118872 6.15987638,6.18887195 Z M6.17987638,6.16887195 L6.16987638,6.17887195 C5.78987638,9.18887195 7.33987638,13.058872 10.4698764,16.198872 L16.1998764,10.468872 C13.0698764,7.33887195 9.18987638,5.78887195 6.17987638,6.16887195 Z" id="path-1"></path>
    </defs>
    <g id="icon/places/beach_access_24px" stroke="none" stroke-width="1" fill="none" fill-rule="evenodd">
        <mask id="mask-2" fill="white">
            <use xlink:href="#path-1"></use>
        </mask>
        <g fill-rule="nonzero"></g>
        <g id="✱-/-Color-/-Icons-/-Black-/-Inactive" mask="url(#mask-2)" fill="#000000" fill-opacity="0.54">
            <rect id="Rectangle" x="0" y="0" width="24" height="24"></rect>
        </g>
    </g>
</svg>