<?xml version="1.0" encoding="UTF-8"?>
<svg width="24px" height="24px" viewBox="0 0 24 24" version="1.1" xmlns="http://www.w3.org/2000/svg" xmlns:xlink="http://www.w3.org/1999/xlink">
    <!-- Generator: Sketch 50 (54983) - http://www.bohemiancoding.com/sketch -->
    <title>icon/places/child_friendly_24px_rounded</title>
    <desc>Created with Sketch.</desc>
    <defs>
        <path d="M13.5,3.04522397 L13.5,9.96522397 L21.5,9.96522397 C21.5,5.93522397 18.52,2.59522397 14.64,2.04522397 C14.04,1.95522397 13.5,2.43522397 13.5,3.04522397 Z M19.82,15.855224 C20.87,14.505224 21.5,12.805224 21.5,10.965224 L6.94,10.965224 L6.26,9.53522397 C6.1,9.18522397 5.74,8.96522397 5.36,8.96522397 L3.5,8.96522397 C2.95,8.96522397 2.5,9.41522397 2.5,9.96522397 C2.5,10.515224 2.95,10.965224 3.5,10.965224 L4.72,10.965224 C4.72,10.965224 6.61,15.035224 6.84,15.385224 C5.51,16.095224 4.7,17.655224 5.1,19.325224 C5.4,20.585224 6.44,21.595224 7.7,21.875224 C9.8,22.335224 11.68,20.915224 11.95,18.965224 L14.03,18.965224 C14.3,20.905224 16.17,22.325224 18.25,21.885224 C19.52,21.615224 20.56,20.615224 20.88,19.355224 C21.23,17.965224 20.74,16.675224 19.82,15.855224 Z M8.5,19.965224 C7.67,19.965224 7,19.295224 7,18.465224 C7,17.635224 7.67,16.965224 8.5,16.965224 C9.33,16.965224 10,17.635224 10,18.465224 C10,19.295224 9.33,19.965224 8.5,19.965224 Z M17.5,19.965224 C16.67,19.965224 16,19.295224 16,18.465224 C16,17.635224 16.67,16.965224 17.5,16.965224 C18.33,16.965224 19,17.635224 19,18.465224 C19,19.295224 18.33,19.965224 17.5,19.965224 Z" id="path-1"></path>
    </defs>
    <g id="icon/places/child_friendly_24px" stroke="none" stroke-width="1" fill="none" fill-rule="evenodd">
        <mask id="mask-2" fill="white">
            <use xlink:href="#path-1"></use>
        </mask>
        <g fill-rule="nonzero"></g>
        <g id="✱-/-Color-/-Icons-/-Black-/-Inactive" mask="url(#mask-2)" fill="#000000" fill-opacity="0.54">
            <rect id="Rectangle" x="0" y="0" width="24" height="24"></rect>
        </g>
    </g>
</svg>