<?xml version="1.0" encoding="UTF-8"?>
<svg width="24px" height="24px" viewBox="0 0 24 24" version="1.1" xmlns="http://www.w3.org/2000/svg" xmlns:xlink="http://www.w3.org/1999/xlink">
    <!-- Generator: Sketch 50 (54983) - http://www.bohemiancoding.com/sketch -->
    <title>icon/places/fitness_center_24px_rounded</title>
    <desc>Created with Sketch.</desc>
    <defs>
        <path d="M20.57,14.86 L21.29,14.14 C21.68,13.75 21.68,13.12 21.29,12.73 L21.27,12.71 C21.0831685,12.5227473 20.8295176,12.4175144 20.565,12.4175144 C20.3004824,12.4175144 20.0468315,12.5227473 19.86,12.71 L17,15.57 L8.43,7 L11.29,4.14 C11.68,3.75 11.68,3.12 11.29,2.73 L11.27,2.71 C11.0831685,2.52274733 10.8295176,2.41751439 10.565,2.41751439 C10.3004824,2.41751439 10.0468315,2.52274733 9.86,2.71 L9.14,3.43 L8.42,2.71 C8.03,2.32 7.39,2.32 7,2.71 L5.57,4.14 L4.85,3.42 C4.46,3.03 3.81,3.03 3.42,3.42 C3.03,3.81 3.03,4.46 3.42,4.85 L4.14,5.57 L2.71,7 C2.32,7.39 2.32,8.02 2.71,8.41 L3.43,9.13 L2.71,9.86 C2.32,10.25 2.32,10.88 2.71,11.27 L2.73,11.29 C3.12,11.68 3.75,11.68 4.14,11.29 L7,8.43 L15.57,17 L12.71,19.86 C12.32,20.25 12.32,20.88 12.71,21.27 L12.73,21.29 C13.12,21.68 13.75,21.68 14.14,21.29 L14.86,20.57 L15.58,21.29 C15.97,21.68 16.6,21.68 16.99,21.29 L18.42,19.86 L19.14,20.58 C19.53,20.97 20.18,20.97 20.57,20.58 C20.96,20.19 20.96,19.54 20.57,19.15 L19.85,18.43 L21.29,17 C21.68,16.61 21.68,15.98 21.29,15.59 L20.57,14.86 Z" id="path-1"></path>
    </defs>
    <g id="icon/places/fitness_center_24px" stroke="none" stroke-width="1" fill="none" fill-rule="evenodd">
        <mask id="mask-2" fill="white">
            <use xlink:href="#path-1"></use>
        </mask>
        <g fill-rule="nonzero"></g>
        <g id="✱-/-Color-/-Icons-/-Black-/-Inactive" mask="url(#mask-2)" fill="#000000" fill-opacity="0.54">
            <rect id="Rectangle" x="0" y="0" width="24" height="24"></rect>
        </g>
    </g>
</svg>