<?xml version="1.0" encoding="UTF-8"?>
<svg width="24px" height="24px" viewBox="0 0 24 24" version="1.1" xmlns="http://www.w3.org/2000/svg" xmlns:xlink="http://www.w3.org/1999/xlink">
    <!-- Generator: Sketch 50 (54983) - http://www.bohemiancoding.com/sketch -->
    <title>icon/places/free_breakfast_24px_rounded</title>
    <desc>Created with Sketch.</desc>
    <defs>
        <path d="M19,3 L5,3 C3.9,3 3,3.9 3,5 L3,13 C3,15.21 4.79,17 7,17 L13,17 C15.21,17 17,15.21 17,13 L17,10 L19,10 C20.11,10 21,9.1 21,8 L21,5 C21,3.9 20.1,3 19,3 Z M19,8 L17,8 L17,5 L19,5 L19,8 Z M4,19 L18,19 C18.55,19 19,19.45 19,20 C19,20.55 18.55,21 18,21 L4,21 C3.45,21 3,20.55 3,20 C3,19.45 3.45,19 4,19 Z" id="path-1"></path>
    </defs>
    <g id="icon/places/free_breakfast_24px" stroke="none" stroke-width="1" fill="none" fill-rule="evenodd">
        <mask id="mask-2" fill="white">
            <use xlink:href="#path-1"></use>
        </mask>
        <g fill-rule="nonzero"></g>
        <g id="✱-/-Color-/-Icons-/-Black-/-Inactive" mask="url(#mask-2)" fill="#000000" fill-opacity="0.54">
            <rect id="Rectangle" x="0" y="0" width="24" height="24"></rect>
        </g>
    </g>
</svg>