<?xml version="1.0" encoding="UTF-8"?>
<svg width="24px" height="24px" viewBox="0 0 24 24" version="1.1" xmlns="http://www.w3.org/2000/svg" xmlns:xlink="http://www.w3.org/1999/xlink">
    <!-- Generator: Sketch 50 (54983) - http://www.bohemiancoding.com/sketch -->
    <title>icon/places/hot_tub_24px_rounded</title>
    <desc>Created with Sketch.</desc>
    <defs>
        <path d="M7,3.5 C5.8954305,3.5 5,4.3954305 5,5.5 C5,6.6045695 5.8954305,7.5 7,7.5 C8.1045695,7.5 9,6.6045695 9,5.5 C9,4.3954305 8.1045695,3.5 7,3.5 Z M21,11.5 L11.15,11.5 C10.84,11.28 10.56,11.04 10.33,10.78 L8.93,9.23 C8.74,9.02 8.5,8.85 8.24,8.73 C7.95,8.59 7.62,8.5 7.28,8.5 L7.25,8.5 C6.01,8.5 5,9.51 5,10.75 L5,11.5 L3,11.5 C2.45,11.5 2,11.95 2,12.5 L2,19.5 C2,20.6 2.9,21.5 4,21.5 L20,21.5 C21.1,21.5 22,20.6 22,19.5 L22,12.5 C22,11.95 21.55,11.5 21,11.5 Z M7,18.5 C7,19.05 6.55,19.5 6,19.5 C5.45,19.5 5,19.05 5,18.5 L5,14.5 C5,13.95 5.45,13.5 6,13.5 C6.55,13.5 7,13.95 7,14.5 L7,18.5 Z M11,18.5 C11,19.05 10.55,19.5 10,19.5 C9.45,19.5 9,19.05 9,18.5 L9,14.5 C9,13.95 9.45,13.5 10,13.5 C10.55,13.5 11,13.95 11,14.5 L11,18.5 Z M15,18.5 C15,19.05 14.55,19.5 14,19.5 C13.45,19.5 13,19.05 13,18.5 L13,14.5 C13,13.95 13.45,13.5 14,13.5 C14.55,13.5 15,13.95 15,14.5 L15,18.5 Z M19,18.5 C19,19.05 18.55,19.5 18,19.5 C17.45,19.5 17,19.05 17,18.5 L17,14.5 C17,13.95 17.45,13.5 18,13.5 C18.55,13.5 19,13.95 19,14.5 L19,18.5 Z M15.06,9.5 C15.56,9.5 15.99,9.11 16,8.61 C16.04,7.21 15.42,6.13 14.65,5.36 C14,4.64 13.85,4.09 13.88,3.45 C13.9,2.93 13.47,2.5 12.94,2.5 C12.44,2.5 12.01,2.9 12,3.4 C11.97,4.69 12.5,5.83 13.35,6.65 C13.96,7.24 14.13,7.92 14.13,8.54 C14.12,9.06 14.53,9.5 15.06,9.5 Z M19.06,9.5 C19.56,9.5 19.99,9.11 20,8.61 C20.04,7.21 19.42,6.13 18.65,5.36 C18,4.64 17.85,4.09 17.88,3.45 C17.9,2.93 17.47,2.5 16.94,2.5 C16.44,2.5 16.01,2.9 16,3.4 C15.97,4.69 16.5,5.83 17.35,6.65 C17.96,7.24 18.13,7.92 18.13,8.54 C18.12,9.06 18.53,9.5 19.06,9.5 Z" id="path-1"></path>
    </defs>
    <g id="icon/places/hot_tub_24px" stroke="none" stroke-width="1" fill="none" fill-rule="evenodd">
        <mask id="mask-2" fill="white">
            <use xlink:href="#path-1"></use>
        </mask>
        <g fill-rule="nonzero"></g>
        <g id="✱-/-Color-/-Icons-/-Black-/-Inactive" mask="url(#mask-2)" fill="#000000" fill-opacity="0.54">
            <rect id="Rectangle" x="0" y="0" width="24" height="24"></rect>
        </g>
    </g>
</svg>