<?xml version="1.0" encoding="UTF-8"?>
<svg width="24px" height="24px" viewBox="0 0 24 24" version="1.1" xmlns="http://www.w3.org/2000/svg" xmlns:xlink="http://www.w3.org/1999/xlink">
    <!-- Generator: Sketch 50 (54983) - http://www.bohemiancoding.com/sketch -->
    <title>icon/places/meeting_room_24px_rounded</title>
    <desc>Created with Sketch.</desc>
    <defs>
        <path d="M20,19 L19,19 L19,5 C19,4.45 18.55,4 18,4 L14,4 C14,3.45 13.55,3 13,3 L6,3 C5.45,3 5,3.45 5,4 L5,19 L4,19 C3.45,19 3,19.45 3,20 C3,20.55 3.45,21 4,21 L13,21 C13.55,21 14,20.55 14,20 L14,6 L17,6 L17,20 C17,20.55 17.45,21 18,21 L20,21 C20.55,21 21,20.55 21,20 C21,19.45 20.55,19 20,19 Z M12,13 L10,13 L10,11 L12,11 L12,13 Z" id="path-1"></path>
    </defs>
    <g id="icon/places/meeting_room_24px" stroke="none" stroke-width="1" fill="none" fill-rule="evenodd">
        <mask id="mask-2" fill="white">
            <use xlink:href="#path-1"></use>
        </mask>
        <g fill-rule="nonzero"></g>
        <g id="✱-/-Color-/-Icons-/-Black-/-Inactive" mask="url(#mask-2)" fill="#000000" fill-opacity="0.54">
            <rect id="Rectangle" x="0" y="0" width="24" height="24"></rect>
        </g>
    </g>
</svg>