<?xml version="1.0" encoding="UTF-8"?>
<svg width="24px" height="24px" viewBox="0 0 24 24" version="1.1" xmlns="http://www.w3.org/2000/svg" xmlns:xlink="http://www.w3.org/1999/xlink">
    <!-- Generator: Sketch 50 (54983) - http://www.bohemiancoding.com/sketch -->
    <title>icon/places/no_meeting_room_24px_rounded</title>
    <desc>Created with Sketch.</desc>
    <defs>
        <path d="M14.5606191,5.4399928 L17.5606191,5.4399928 L17.5606191,13.3199928 L19.5606191,15.3199928 L19.5606191,4.4399928 C19.5606191,3.8899928 19.1106191,3.4399928 18.5606191,3.4399928 L14.5606191,3.4399928 C14.5606191,2.8899928 14.1106191,2.4399928 13.5606191,2.4399928 L6.68061907,2.4399928 L14.5606191,10.3199928 L14.5606191,5.4399928 Z M21.7306191,20.3199928 L12.5606191,11.1499928 L12.5606191,12.4399928 L10.5606191,12.4399928 L10.5606191,10.4399928 L11.8506191,10.4399928 L3.68061907,2.2699928 C3.49378754,2.08274013 3.24013671,1.9775072 2.97561907,1.9775072 C2.71110142,1.9775072 2.45745059,2.08274013 2.27061907,2.2699928 C1.88061907,2.6599928 1.88061907,3.2899928 2.27061907,3.6799928 L5.56061907,6.9799928 L5.56061907,18.4399928 L4.56061907,18.4399928 C4.01061907,18.4399928 3.56061907,18.8899928 3.56061907,19.4399928 C3.56061907,19.9899928 4.01061907,20.4399928 4.56061907,20.4399928 L13.5606191,20.4399928 C14.1106191,20.4399928 14.5606191,19.9899928 14.5606191,19.4399928 L14.5606191,15.9799928 L20.3106191,21.7299928 C20.7006191,22.1199928 21.3306191,22.1199928 21.7206191,21.7299928 C22.1206191,21.3399928 22.1206191,20.7099928 21.7306191,20.3199928 Z" id="path-1"></path>
    </defs>
    <g id="icon/places/no_meeting_room_24px" stroke="none" stroke-width="1" fill="none" fill-rule="evenodd">
        <mask id="mask-2" fill="white">
            <use xlink:href="#path-1"></use>
        </mask>
        <g fill-rule="nonzero"></g>
        <g id="✱-/-Color-/-Icons-/-Black-/-Inactive" mask="url(#mask-2)" fill="#000000" fill-opacity="0.54">
            <rect id="Rectangle" x="0" y="0" width="24" height="24"></rect>
        </g>
    </g>
</svg>