<?xml version="1.0" encoding="UTF-8"?>
<svg width="24px" height="24px" viewBox="0 0 24 24" version="1.1" xmlns="http://www.w3.org/2000/svg" xmlns:xlink="http://www.w3.org/1999/xlink">
    <!-- Generator: Sketch 50 (54983) - http://www.bohemiancoding.com/sketch -->
    <title>icon/places/rv_hookup_24px_rounded</title>
    <desc>Created with Sketch.</desc>
    <defs>
        <path d="M20,16.6326425 L19,16.6326425 L19,10.6326425 C19,9.53264253 18.1,8.63264253 17,8.63264253 L6,8.63264253 L6,7.89264253 C6,7.43264253 5.44,7.19264253 5.11,7.52264253 L3.37,9.26264253 C3.17,9.46264253 3.17,9.79264253 3.37,10.0026425 L5.11,11.7426425 C5.44,12.0726425 6,11.8426425 6,11.3726425 L6,10.6326425 L10,10.6326425 L10,13.6326425 L4,13.6326425 C3.45,13.6326425 3,14.0826425 3,14.6326425 L3,16.6326425 C3,17.7326425 3.9,18.6326425 5,18.6326425 L7,18.6326425 C7,20.2926425 8.34,21.6326425 10,21.6326425 C11.66,21.6326425 13,20.2926425 13,18.6326425 L20,18.6326425 C20.55,18.6326425 21,18.1826425 21,17.6326425 C21,17.0826425 20.55,16.6326425 20,16.6326425 Z M10,19.6326425 C9.45,19.6326425 9,19.1826425 9,18.6326425 C9,18.0826425 9.45,17.6326425 10,17.6326425 C10.55,17.6326425 11,18.0826425 11,18.6326425 C11,19.1826425 10.55,19.6326425 10,19.6326425 Z M17,13.6326425 L13,13.6326425 L13,10.6326425 L16,10.6326425 C16.55,10.6326425 17,11.0826425 17,11.6326425 L17,13.6326425 Z M9,5.63264253 L16,5.63264253 L16,6.37264253 C16,6.83264253 16.56,7.07264253 16.89,6.74264253 L18.63,5.00264253 C18.83,4.80264253 18.83,4.47264253 18.63,4.26264253 L16.89,2.52264253 C16.56,2.19264253 16,2.42264253 16,2.89264253 L16,3.63264253 L9,3.63264253 C8.45,3.63264253 8,4.08264253 8,4.63264253 C8,5.18264253 8.45,5.63264253 9,5.63264253 Z" id="path-1"></path>
    </defs>
    <g id="icon/places/rv_hookup_24px" stroke="none" stroke-width="1" fill="none" fill-rule="evenodd">
        <mask id="mask-2" fill="white">
            <use xlink:href="#path-1"></use>
        </mask>
        <g fill-rule="nonzero"></g>
        <g id="✱-/-Color-/-Icons-/-Black-/-Inactive" mask="url(#mask-2)" fill="#000000" fill-opacity="0.54">
            <rect id="Rectangle" x="0" y="0" width="24" height="24"></rect>
        </g>
    </g>
</svg>