<?xml version="1.0" encoding="UTF-8"?>
<svg width="24px" height="24px" viewBox="0 0 24 24" version="1.1" xmlns="http://www.w3.org/2000/svg" xmlns:xlink="http://www.w3.org/1999/xlink">
    <!-- Generator: Sketch 50 (54983) - http://www.bohemiancoding.com/sketch -->
    <title>icon/places/smoke_free_24px_rounded</title>
    <desc>Created with Sketch.</desc>
    <defs>
        <path d="M20.5,12.6837104 L22,12.6837104 L22,15.6837104 L20.5,15.6837104 L20.5,12.6837104 Z M18,12.6837104 L19.5,12.6837104 L19.5,15.6837104 L18,15.6837104 L18,12.6837104 Z M17,14.1837104 C17,13.3537104 16.33,12.6837104 15.5,12.6837104 L14.66,12.6837104 L16.84,14.8637104 C16.94,14.6537104 17,14.4237104 17,14.1837104 Z M18.96,2.03371043 L19,2.03371043 L18.96,2.03371043 Z M18.85,4.41371043 C19.23,4.03371043 19.52,3.57371043 19.69,3.06371043 C19.85,2.56371043 19.5,2.05371043 18.98,2.04371043 C18.64,2.05371043 18.37,2.29371043 18.26,2.62371043 C18.08,3.17371043 17.64,3.61371043 17.09,3.79371043 C16.75,3.90371043 16.5,4.18371043 16.5,4.53371043 L16.5,4.68371043 C16.5,5.05371043 16.77,5.37371043 17.14,5.43371043 C19.07,5.74371043 20.5,7.43371043 20.5,9.45371043 L20.5,10.9337104 C20.5,11.3437104 20.84,11.6837104 21.25,11.6837104 C21.66,11.6837104 22,11.3437104 22,10.9337104 L22,9.44371043 C22,7.22371043 20.72,5.30371043 18.85,4.41371043 Z M14.61,8.33371043 L16.03,8.33371043 C17.08,8.33371043 18,9.07371043 18,10.3837104 L18,10.9337104 C18,11.3437104 18.33,11.6837104 18.75,11.6837104 L18.76,11.6837104 C19.17,11.6837104 19.51,11.3537104 19.51,10.9337104 L19.51,10.0437104 C19.51,8.23371043 17.91,6.88371043 16.04,6.88371043 L14.74,6.88371043 C13.72,6.88371043 12.8,6.15371043 12.67,5.13371043 C12.55,4.18371043 13.13,3.43371043 13.97,3.20371043 C14.29,3.11371043 14.51,2.82371043 14.51,2.48371043 C14.51,1.99371043 14.05,1.62371043 13.58,1.76371043 C12.16,2.17371043 11.13,3.49371043 11.16,5.04371043 C11.18,6.89371043 12.77,8.33371043 14.61,8.33371043 Z M4.12,4.97371043 C3.93316847,4.78645776 3.67951764,4.68122483 3.415,4.68122483 C3.15048236,4.68122483 2.89683153,4.78645776 2.71,4.97371043 C2.32,5.36371043 2.32,5.99371043 2.71,6.38371043 L9,12.6837104 L3.5,12.6837104 C2.67,12.6837104 2,13.3537104 2,14.1837104 C2,15.0137104 2.67,15.6837104 3.5,15.6837104 L12,15.6837104 L18.29,21.9737104 C18.68,22.3637104 19.31,22.3637104 19.7,21.9737104 C20.09,21.5837104 20.09,20.9537104 19.7,20.5637104 L4.12,4.97371043 Z" id="path-1"></path>
    </defs>
    <g id="icon/places/smoke_free_24px" stroke="none" stroke-width="1" fill="none" fill-rule="evenodd">
        <mask id="mask-2" fill="white">
            <use xlink:href="#path-1"></use>
        </mask>
        <g fill-rule="nonzero"></g>
        <g id="✱-/-Color-/-Icons-/-Black-/-Inactive" mask="url(#mask-2)" fill="#000000" fill-opacity="0.54">
            <rect id="Rectangle" x="0" y="0" width="24" height="24"></rect>
        </g>
    </g>
</svg>