<?xml version="1.0" encoding="UTF-8"?>
<svg width="24px" height="24px" viewBox="0 0 24 24" version="1.1" xmlns="http://www.w3.org/2000/svg" xmlns:xlink="http://www.w3.org/1999/xlink">
    <!-- Generator: Sketch 50 (54983) - http://www.bohemiancoding.com/sketch -->
    <title>icon/places/smoking_rooms_24px_rounded</title>
    <desc>Created with Sketch.</desc>
    <defs>
        <path d="M15.5,17.4452355 L3.5,17.4452355 C2.67,17.4452355 2,18.1152355 2,18.9452355 C2,19.7752355 2.67,20.4452355 3.5,20.4452355 L15.5,20.4452355 C16.33,20.4452355 17,19.7752355 17,18.9452355 C17,18.1152355 16.33,17.4452355 15.5,17.4452355 Z M18.85,9.17523553 C19.47,8.56523553 19.85,7.72523553 19.85,6.79523553 C19.85,5.28523553 18.85,4.00523553 17.47,3.58523553 C16.99,3.44523553 16.5,3.80523553 16.5,4.30523553 C16.5,4.63523553 16.71,4.92523553 17.02,5.01523553 C17.79,5.24523553 18.35,5.95523553 18.35,6.79523553 C18.35,7.61523553 17.82,8.30523553 17.08,8.55523553 C16.75,8.66523553 16.5,8.94523553 16.5,9.29523553 L16.5,9.44523553 C16.5,9.81523553 16.77,10.1352355 17.14,10.1952355 C19.07,10.5052355 20.5,12.1952355 20.5,14.2152355 L20.5,15.6952355 C20.5,16.1052355 20.84,16.4452355 21.25,16.4452355 C21.66,16.4452355 22,16.1052355 22,15.6952355 L22,14.2052355 C22,11.9852355 20.72,10.0652355 18.85,9.17523553 Z M16.03,11.6452355 L14.73,11.6452355 C13.71,11.6452355 12.79,10.9152355 12.66,9.89523553 C12.54,8.94523553 13.12,8.19523553 13.96,7.96523553 C14.28,7.87523553 14.5,7.58523553 14.5,7.24523553 C14.5,6.75523553 14.04,6.38523553 13.57,6.52523553 C12.15,6.93523553 11.12,8.25523553 11.15,9.80523553 C11.18,11.6452355 12.77,13.0952355 14.61,13.0952355 L16.03,13.0952355 C17.08,13.0952355 18,13.8352355 18,15.1452355 L18,15.6952355 C18,16.1052355 18.33,16.4452355 18.75,16.4452355 L18.76,16.4452355 C19.17,16.4452355 19.51,16.1152355 19.51,15.6952355 L19.51,14.8052355 C19.5,12.9952355 17.9,11.6452355 16.03,11.6452355 Z M18,17.4452355 L19.5,17.4452355 L19.5,20.4452355 L18,20.4452355 L18,17.4452355 Z M20.5,17.4452355 L22,17.4452355 L22,20.4452355 L20.5,20.4452355 L20.5,17.4452355 Z" id="path-1"></path>
    </defs>
    <g id="icon/places/smoking_rooms_24px" stroke="none" stroke-width="1" fill="none" fill-rule="evenodd">
        <mask id="mask-2" fill="white">
            <use xlink:href="#path-1"></use>
        </mask>
        <g fill-rule="nonzero"></g>
        <g id="✱-/-Color-/-Icons-/-Black-/-Inactive" mask="url(#mask-2)" fill="#000000" fill-opacity="0.54">
            <rect id="Rectangle" x="0" y="0" width="24" height="24"></rect>
        </g>
    </g>
</svg>