<?xml version="1.0" encoding="UTF-8"?>
<svg width="24px" height="24px" viewBox="0 0 24 24" version="1.1" xmlns="http://www.w3.org/2000/svg" xmlns:xlink="http://www.w3.org/1999/xlink">
    <!-- Generator: Sketch 50 (54983) - http://www.bohemiancoding.com/sketch -->
    <title>icon/places/spa_24px_rounded</title>
    <desc>Created with Sketch.</desc>
    <defs>
        <path d="M15.4800378,9.3775 C15.3200378,6.9575 14.4500378,4.5875 12.8400378,2.6175 C12.4300378,2.1175 11.6800378,2.1175 11.2700378,2.6175 C9.62003777,4.5975 8.70003777,6.9675 8.50003777,9.3775 C9.78003777,10.0575 10.9600378,10.9375 11.9900378,12.0075 C13.0200378,10.9475 14.2000378,10.0675 15.4800378,9.3775 Z M8.98003777,12.0275 C8.84003777,11.9275 8.68003777,11.8375 8.53003777,11.7375 C8.68003777,11.8475 8.84003777,11.9275 8.98003777,12.0275 Z M15.4000378,11.7775 C15.2700378,11.8675 15.1300378,11.9375 15.0000378,12.0375 C15.1300378,11.9375 15.2700378,11.8675 15.4000378,11.7775 Z M11.9900378,15.1975 C10.0400378,12.2275 6.85003777,10.1675 3.16003777,9.8075 C2.52003777,9.7475 1.99003777,10.2775 2.05003777,10.9175 C2.50003777,15.7175 5.70003777,19.6975 10.0300378,21.2475 C10.6600378,21.4775 11.3200378,21.6475 12.0000378,21.7575 C12.6800378,21.6375 13.3300378,21.4675 13.9700378,21.2475 C18.3000378,19.6975 21.5000378,15.7275 21.9500378,10.9175 C22.0100378,10.2775 21.4700378,9.7475 20.8400378,9.8075 C17.1300378,10.1675 13.9400378,12.2275 11.9900378,15.1975 Z" id="path-1"></path>
    </defs>
    <g id="icon/places/spa_24px" stroke="none" stroke-width="1" fill="none" fill-rule="evenodd">
        <mask id="mask-2" fill="white">
            <use xlink:href="#path-1"></use>
        </mask>
        <g fill-rule="nonzero"></g>
        <g id="✱-/-Color-/-Icons-/-Black-/-Inactive" mask="url(#mask-2)" fill="#000000" fill-opacity="0.54">
            <rect id="Rectangle" x="0" y="0" width="24" height="24"></rect>
        </g>
    </g>
</svg>