<?xml version="1.0" encoding="UTF-8"?>
<svg width="24px" height="24px" viewBox="0 0 24 24" version="1.1" xmlns="http://www.w3.org/2000/svg" xmlns:xlink="http://www.w3.org/1999/xlink">
    <!-- Generator: Sketch 50 (54983) - http://www.bohemiancoding.com/sketch -->
    <title>icon/editor/border_left_24px_outlined</title>
    <desc>Created with Sketch.</desc>
    <defs>
        <path d="M11,21 L13,21 L13,19 L11,19 L11,21 Z M11,17 L13,17 L13,15 L11,15 L11,17 Z M11,5 L13,5 L13,3 L11,3 L11,5 Z M11,9 L13,9 L13,7 L11,7 L11,9 Z M11,13 L13,13 L13,11 L11,11 L11,13 Z M7,21 L9,21 L9,19 L7,19 L7,21 Z M7,5 L9,5 L9,3 L7,3 L7,5 Z M7,13 L9,13 L9,11 L7,11 L7,13 Z M3,21 L5,21 L5,3 L3,3 L3,21 Z M19,9 L21,9 L21,7 L19,7 L19,9 Z M15,21 L17,21 L17,19 L15,19 L15,21 Z M19,17 L21,17 L21,15 L19,15 L19,17 Z M19,3 L19,5 L21,5 L21,3 L19,3 Z M19,13 L21,13 L21,11 L19,11 L19,13 Z M19,21 L21,21 L21,19 L19,19 L19,21 Z M15,13 L17,13 L17,11 L15,11 L15,13 Z M15,5 L17,5 L17,3 L15,3 L15,5 Z" id="path-1"></path>
    </defs>
    <g id="icon/editor/border_left_24px" stroke="none" stroke-width="1" fill="none" fill-rule="evenodd">
        <mask id="mask-2" fill="white">
            <use xlink:href="#path-1"></use>
        </mask>
        <g fill-rule="nonzero"></g>
        <g id="✱-/-Color-/-Icons-/-Black-/-Inactive" mask="url(#mask-2)" fill="#000000" fill-opacity="0.54">
            <rect id="Rectangle" x="0" y="0" width="24" height="24"></rect>
        </g>
    </g>
</svg>