<?xml version="1.0" encoding="UTF-8"?>
<svg width="24px" height="24px" viewBox="0 0 24 24" version="1.1" xmlns="http://www.w3.org/2000/svg" xmlns:xlink="http://www.w3.org/1999/xlink">
    <!-- Generator: Sketch 50 (54983) - http://www.bohemiancoding.com/sketch -->
    <title>icon/editor/border_color_24px_outlined</title>
    <desc>Created with Sketch.</desc>
    <defs>
        <path d="M14,3.25214879 L4,13.2511132 L4,17.0007249 L7.75,17.0007249 L17.75,7.00176046 L14,3.25214879 Z M6.92,15.000932 L6,15.000932 L6,14.0810273 L14,6.08185573 L14.92,7.00176046 L6.92,15.000932 Z M20.71,4.04206698 C21.1,3.65210737 21.1,3.02217261 20.71,2.632213 L18.37,0.292455317 C18.1831685,0.105222035 17.9295176,1.60445305e-17 17.665,0 C17.4004824,-1.64781664e-17 17.1468315,0.105222035 16.96,0.292455317 L15,2.25225235 L18.75,6.00186401 L20.71,4.04206698 Z M0,20.0004142 L24,20.0004142 L24,24 L0,24 L0,20.0004142 Z" id="path-1"></path>
    </defs>
    <g id="icon/editor/border_color_24px" stroke="none" stroke-width="1" fill="none" fill-rule="evenodd">
        <mask id="mask-2" fill="white">
            <use xlink:href="#path-1"></use>
        </mask>
        <g fill-rule="nonzero"></g>
        <g id="✱-/-Color-/-Icons-/-Black-/-Inactive" mask="url(#mask-2)" fill="#000000" fill-opacity="0.54">
            <rect id="Rectangle" x="0" y="0" width="24" height="24"></rect>
        </g>
    </g>
</svg>