<?xml version="1.0" encoding="UTF-8"?>
<svg width="24px" height="24px" viewBox="0 0 24 24" version="1.1" xmlns="http://www.w3.org/2000/svg" xmlns:xlink="http://www.w3.org/1999/xlink">
    <!-- Generator: Sketch 50 (54983) - http://www.bohemiancoding.com/sketch -->
    <title>icon/editor/bubble_chart_24px_outlined</title>
    <desc>Created with Sketch.</desc>
    <defs>
        <path d="M6.5,10 C4.29,10 2.5,11.79 2.5,14 C2.5,16.21 4.29,18 6.5,18 C8.71,18 10.5,16.21 10.5,14 C10.5,11.79 8.71,10 6.5,10 Z M6.5,16 C5.4,16 4.5,15.1 4.5,14 C4.5,12.9 5.4,12 6.5,12 C7.6,12 8.5,12.9 8.5,14 C8.5,15.1 7.6,16 6.5,16 Z M14.51,15 C12.86,15 11.51,16.35 11.51,18 C11.51,19.65 12.86,21 14.51,21 C16.16,21 17.51,19.65 17.51,18 C17.51,16.35 16.16,15 14.51,15 Z M14.51,19 C13.96,19 13.51,18.55 13.51,18 C13.51,17.45 13.96,17 14.51,17 C15.06,17 15.51,17.45 15.51,18 C15.51,18.55 15.06,19 14.51,19 Z M16,3 C12.97,3 10.5,5.47 10.5,8.5 C10.5,11.53 12.97,14 16,14 C19.03,14 21.5,11.53 21.5,8.5 C21.5,5.47 19.03,3 16,3 Z M16,12 C14.07,12 12.5,10.43 12.5,8.5 C12.5,6.57 14.07,5 16,5 C17.93,5 19.5,6.57 19.5,8.5 C19.5,10.43 17.93,12 16,12 Z" id="path-1"></path>
    </defs>
    <g id="icon/editor/bubble_chart_24px" stroke="none" stroke-width="1" fill="none" fill-rule="evenodd">
        <mask id="mask-2" fill="white">
            <use xlink:href="#path-1"></use>
        </mask>
        <g fill-rule="nonzero"></g>
        <g id="✱-/-Color-/-Icons-/-Black-/-Inactive" mask="url(#mask-2)" fill="#000000" fill-opacity="0.54">
            <rect id="Rectangle" x="0" y="0" width="24" height="24"></rect>
        </g>
    </g>
</svg>