<?xml version="1.0" encoding="UTF-8"?>
<svg width="24px" height="24px" viewBox="0 0 24 24" version="1.1" xmlns="http://www.w3.org/2000/svg" xmlns:xlink="http://www.w3.org/1999/xlink">
    <!-- Generator: Sketch 50 (54983) - http://www.bohemiancoding.com/sketch -->
    <title>icon/editor/format_indent_decrease_24px_outlined</title>
    <desc>Created with Sketch.</desc>
    <defs>
        <path d="M11,17 L21,17 L21,15 L11,15 L11,17 Z M3,12 L7,16 L7,8 L3,12 Z M3,21 L21,21 L21,19 L3,19 L3,21 Z M3,3 L3,5 L21,5 L21,3 L3,3 Z M11,9 L21,9 L21,7 L11,7 L11,9 Z M11,13 L21,13 L21,11 L11,11 L11,13 Z" id="path-1"></path>
    </defs>
    <g id="icon/editor/format_indent_decrease_24px" stroke="none" stroke-width="1" fill="none" fill-rule="evenodd">
        <mask id="mask-2" fill="white">
            <use xlink:href="#path-1"></use>
        </mask>
        <g fill-rule="nonzero"></g>
        <g id="✱-/-Color-/-Icons-/-Black-/-Inactive" mask="url(#mask-2)" fill="#000000" fill-opacity="0.54">
            <rect id="Rectangle" x="0" y="0" width="24" height="24"></rect>
        </g>
    </g>
</svg>