<?xml version="1.0" encoding="UTF-8"?>
<svg width="24px" height="24px" viewBox="0 0 24 24" version="1.1" xmlns="http://www.w3.org/2000/svg" xmlns:xlink="http://www.w3.org/1999/xlink">
    <!-- Generator: Sketch 50 (54983) - http://www.bohemiancoding.com/sketch -->
    <title>icon/editor/format_paint_24px_outlined</title>
    <desc>Created with Sketch.</desc>
    <defs>
        <path d="M17.5,4 L17.5,3 C17.5,2.45 17.05,2 16.5,2 L4.5,2 C3.95,2 3.5,2.45 3.5,3 L3.5,7 C3.5,7.55 3.95,8 4.5,8 L16.5,8 C17.05,8 17.5,7.55 17.5,7 L17.5,6 L18.5,6 L18.5,10 L8.5,10 L8.5,21 C8.5,21.55 8.95,22 9.5,22 L11.5,22 C12.05,22 12.5,21.55 12.5,21 L12.5,12 L20.5,12 L20.5,4 L17.5,4 Z M15.5,6 L5.5,6 L5.5,4 L15.5,4 L15.5,6 Z" id="path-1"></path>
    </defs>
    <g id="icon/editor/format_paint_24px" stroke="none" stroke-width="1" fill="none" fill-rule="evenodd">
        <mask id="mask-2" fill="white">
            <use xlink:href="#path-1"></use>
        </mask>
        <g fill-rule="nonzero"></g>
        <g id="✱-/-Color-/-Icons-/-Black-/-Inactive" mask="url(#mask-2)" fill="#000000" fill-opacity="0.54">
            <rect id="Rectangle" x="0" y="0" width="24" height="24"></rect>
        </g>
    </g>
</svg>