<?xml version="1.0" encoding="UTF-8"?>
<svg width="24px" height="24px" viewBox="0 0 24 24" version="1.1" xmlns="http://www.w3.org/2000/svg" xmlns:xlink="http://www.w3.org/1999/xlink">
    <!-- Generator: Sketch 50 (54983) - http://www.bohemiancoding.com/sketch -->
    <title>icon/editor/format_color_reset_24px_outlined</title>
    <desc>Created with Sketch.</desc>
    <defs>
        <path d="M12,6.195 C13.53,8.195 15.08,10.625 15.71,12.435 L17.94,14.665 C17.97,14.395 18,14.115 18,13.835 C18,9.855 12,3.035 12,3.035 C12,3.035 10.82,4.385 9.5,6.225 L10.94,7.665 C11.28,7.155 11.64,6.665 12,6.195 Z M5.41,4.975 L4,6.385 L7.32,9.705 C6.55,11.165 6,12.625 6,13.835 C6,17.145 8.69,19.835 12,19.835 C13.52,19.835 14.9,19.265 15.95,18.335 L18.58,20.965 L20,19.555 L5.41,4.975 Z M12,17.835 C9.79,17.835 8,16.045 8,13.835 C8,13.145 8.32,12.215 8.81,11.195 L14.53,16.915 C13.83,17.475 12.96,17.835 12,17.835 Z" id="path-1"></path>
    </defs>
    <g id="icon/editor/format_color_reset_24px" stroke="none" stroke-width="1" fill="none" fill-rule="evenodd">
        <mask id="mask-2" fill="white">
            <use xlink:href="#path-1"></use>
        </mask>
        <g fill-rule="nonzero"></g>
        <g id="✱-/-Color-/-Icons-/-Black-/-Inactive" mask="url(#mask-2)" fill="#000000" fill-opacity="0.54">
            <rect id="Rectangle" x="0" y="0" width="24" height="24"></rect>
        </g>
    </g>
</svg>