<?xml version="1.0" encoding="UTF-8"?>
<svg width="24px" height="24px" viewBox="0 0 24 24" version="1.1" xmlns="http://www.w3.org/2000/svg" xmlns:xlink="http://www.w3.org/1999/xlink">
    <!-- Generator: Sketch 50 (54983) - http://www.bohemiancoding.com/sketch -->
    <title>icon/editor/highlight_24px_outlined</title>
    <desc>Created with Sketch.</desc>
    <defs>
        <path d="M6.001,14 L9.001,17 L9.001,22 L15.001,22 L15.001,17 L18.001,14 L18.001,9 L6.001,9 L6.001,14 Z M8.001,11 L16.001,11 L16.001,13.17 L13.001,16.17 L13.001,20 L11.001,20 L11.001,16.17 L8.001,13.17 L8.001,11 Z M11.001,2 L13.001,2 L13.001,5 L11.001,5 L11.001,2 Z M3.5032,5.8742 L4.9168,4.4594 L7.039,6.5798 L5.6254,7.9946 L3.5032,5.8742 Z M16.9608,6.5824 L19.0836,4.4626 L20.4968,5.8778 L18.374,7.9976 L16.9608,6.5824 Z" id="path-1"></path>
    </defs>
    <g id="icon/editor/highlight_24px" stroke="none" stroke-width="1" fill="none" fill-rule="evenodd">
        <mask id="mask-2" fill="white">
            <use xlink:href="#path-1"></use>
        </mask>
        <g fill-rule="nonzero"></g>
        <g id="✱-/-Color-/-Icons-/-Black-/-Inactive" mask="url(#mask-2)" fill="#000000" fill-opacity="0.54">
            <rect id="Rectangle" x="0" y="0" width="24" height="24"></rect>
        </g>
    </g>
</svg>