<?xml version="1.0" encoding="UTF-8"?>
<svg width="24px" height="24px" viewBox="0 0 24 24" version="1.1" xmlns="http://www.w3.org/2000/svg" xmlns:xlink="http://www.w3.org/1999/xlink">
    <!-- Generator: Sketch 50 (54983) - http://www.bohemiancoding.com/sketch -->
    <title>icon/editor/scatter_plot_24px_outlined</title>
    <desc>Created with Sketch.</desc>
    <defs>
        <path d="M7.2,18.2 C4.99,18.2 3.2,16.41 3.2,14.2 C3.2,11.99 4.99,10.2 7.2,10.2 C9.41,10.2 11.2,11.99 11.2,14.2 C11.2,16.41 9.41,18.2 7.2,18.2 Z M7.2,12.2 C6.1,12.2 5.2,13.1 5.2,14.2 C5.2,15.3 6.1,16.2 7.2,16.2 C8.3,16.2 9.2,15.3 9.2,14.2 C9.2,13.1 8.3,12.2 7.2,12.2 Z M11.2,10.2 C8.99,10.2 7.2,8.41 7.2,6.2 C7.2,3.99 8.99,2.2 11.2,2.2 C13.41,2.2 15.2,3.99 15.2,6.2 C15.2,8.41 13.41,10.2 11.2,10.2 Z M11.2,4.2 C10.1,4.2 9.2,5.1 9.2,6.2 C9.2,7.3 10.1,8.2 11.2,8.2 C12.3,8.2 13.2,7.3 13.2,6.2 C13.2,5.1 12.3,4.2 11.2,4.2 Z M16.8,21.8 C14.59,21.8 12.8,20.01 12.8,17.8 C12.8,15.59 14.59,13.8 16.8,13.8 C19.01,13.8 20.8,15.59 20.8,17.8 C20.8,20.01 19.01,21.8 16.8,21.8 Z M16.8,15.8 C15.7,15.8 14.8,16.7 14.8,17.8 C14.8,18.9 15.7,19.8 16.8,19.8 C17.9,19.8 18.8,18.9 18.8,17.8 C18.8,16.7 17.9,15.8 16.8,15.8 Z" id="path-1"></path>
    </defs>
    <g id="icon/editor/scatter_plot_24px" stroke="none" stroke-width="1" fill="none" fill-rule="evenodd">
        <mask id="mask-2" fill="white">
            <use xlink:href="#path-1"></use>
        </mask>
        <g fill-rule="nonzero"></g>
        <g id="✱-/-Color-/-Icons-/-Black-/-Inactive" mask="url(#mask-2)" fill="#000000" fill-opacity="0.54">
            <rect id="Rectangle" x="0" y="0" width="24" height="24"></rect>
        </g>
    </g>
</svg>