<?xml version="1.0" encoding="UTF-8"?>
<svg width="24px" height="24px" viewBox="0 0 24 24" version="1.1" xmlns="http://www.w3.org/2000/svg" xmlns:xlink="http://www.w3.org/1999/xlink">
    <!-- Generator: Sketch 50 (54983) - http://www.bohemiancoding.com/sketch -->
    <title>icon/editor/table_chart_24px_outlined</title>
    <desc>Created with Sketch.</desc>
    <defs>
        <path d="M19.5,3 L4.5,3 C3.4,3 2.5,3.9 2.5,5 L2.5,19 C2.5,20.1 3.4,21 4.5,21 L19.5,21 C20.6,21 21.5,20.1 21.5,19 L21.5,5 C21.5,3.9 20.6,3 19.5,3 Z M19.5,5 L19.5,8 L4.5,8 L4.5,5 L19.5,5 Z M14.5,19 L9.5,19 L9.5,10 L14.5,10 L14.5,19 Z M4.5,10 L7.5,10 L7.5,19 L4.5,19 L4.5,10 Z M16.5,19 L16.5,10 L19.5,10 L19.5,19 L16.5,19 Z" id="path-1"></path>
    </defs>
    <g id="icon/editor/table_chart_24px" stroke="none" stroke-width="1" fill="none" fill-rule="evenodd">
        <mask id="mask-2" fill="white">
            <use xlink:href="#path-1"></use>
        </mask>
        <g fill-rule="nonzero"></g>
        <g id="✱-/-Color-/-Icons-/-Black-/-Inactive" mask="url(#mask-2)" fill="#000000" fill-opacity="0.54">
            <rect id="Rectangle" x="0" y="0" width="24" height="24"></rect>
        </g>
    </g>
</svg>