<?xml version="1.0" encoding="UTF-8"?>
<svg width="24px" height="24px" viewBox="0 0 24 24" version="1.1" xmlns="http://www.w3.org/2000/svg" xmlns:xlink="http://www.w3.org/1999/xlink">
    <!-- Generator: Sketch 50 (54983) - http://www.bohemiancoding.com/sketch -->
    <title>icon/toggle/toggle_on_24px_outlined</title>
    <desc>Created with Sketch.</desc>
    <defs>
        <path d="M17,6 L7,6 C3.69,6 1,8.69 1,12 C1,15.31 3.69,18 7,18 L17,18 C20.31,18 23,15.31 23,12 C23,8.69 20.31,6 17,6 Z M17,16 L7,16 C4.79,16 3,14.21 3,12 C3,9.79 4.79,8 7,8 L17,8 C19.21,8 21,9.79 21,12 C21,14.21 19.21,16 17,16 Z M17,9 C15.34,9 14,10.34 14,12 C14,13.66 15.34,15 17,15 C18.66,15 20,13.66 20,12 C20,10.34 18.66,9 17,9 Z" id="path-1"></path>
    </defs>
    <g id="icon/toggle/toggle_on_24px" stroke="none" stroke-width="1" fill="none" fill-rule="evenodd">
        <mask id="mask-2" fill="white">
            <use xlink:href="#path-1"></use>
        </mask>
        <g fill-rule="nonzero"></g>
        <g id="✱-/-Color-/-Icons-/-Black-/-Inactive" mask="url(#mask-2)" fill="#000000" fill-opacity="0.54">
            <rect id="Rectangle" x="0" y="0" width="24" height="24"></rect>
        </g>
    </g>
</svg>