<?xml version="1.0" encoding="UTF-8"?>
<svg width="24px" height="24px" viewBox="0 0 24 24" version="1.1" xmlns="http://www.w3.org/2000/svg" xmlns:xlink="http://www.w3.org/1999/xlink">
    <!-- Generator: Sketch 50 (54983) - http://www.bohemiancoding.com/sketch -->
    <title>icon/action/3d_rotation_24px_rounded</title>
    <desc>Created with Sketch.</desc>
    <defs>
        <path d="M8.41,14.9647034 C8.22,14.9647034 8.04,14.9347064 7.89,14.8847114 C7.73,14.8247174 7.6,14.7547244 7.49,14.6447354 C7.38,14.5447454 7.29,14.4247574 7.23,14.2747724 C7.17,14.1347864 7.14,13.9748024 7.14,13.8048194 L5.84,13.8048194 C5.84,14.1647834 5.91,14.4847514 6.05,14.7547244 C6.19,15.0246974 6.38,15.2546744 6.61,15.4446554 C6.85,15.6246374 7.12,15.7646234 7.43,15.8546144 C7.73,15.9546044 8.05,16.0045994 8.39,16.0045994 C8.76,16.0045994 9.11,15.9546044 9.42,15.8546144 C9.74,15.7546244 10.02,15.6046394 10.25,15.4146584 C10.48,15.2246774 10.67,14.9847014 10.8,14.6947304 C10.93,14.4047594 11,14.0847914 11,13.7248274 C11,13.5348464 10.98,13.3448655 10.93,13.1648835 C10.88,12.9849015 10.81,12.8149185 10.7,12.6549345 C10.6,12.4949505 10.46,12.3549645 10.3,12.2249775 C10.13,12.0949905 9.93,11.9950005 9.69,11.9150085 C9.89,11.8250175 10.06,11.7150285 10.21,11.5850415 C10.36,11.4550545 10.48,11.3150685 10.58,11.1650835 C10.68,11.0150985 10.75,10.8651135 10.8,10.7051295 C10.85,10.5451455 10.87,10.3851616 10.87,10.2251776 C10.87,9.86521357 10.81,9.54524558 10.69,9.26527359 C10.57,8.9853016 10.4,8.75532461 10.18,8.57534261 C9.98,8.38536162 9.71,8.24537563 9.41,8.14538563 C9.1,8.05539463 8.76,8.00539963 8.39,8.00539963 C8.03,8.00539963 7.7,8.05539463 7.39,8.16538363 C7.09,8.27537262 6.82,8.42535762 6.6,8.61533861 C6.39,8.80531961 6.22,9.0252976 6.09,9.28527159 C5.97,9.54524558 5.91,9.82521757 5.91,10.1351866 L7.21,10.1351866 C7.21,9.96520357 7.24,9.81521857 7.3,9.68523158 C7.36,9.55524458 7.44,9.43525659 7.55,9.34526559 C7.66,9.25527459 7.78,9.17528259 7.93,9.1252876 C8.08,9.0752926 8.23,9.0452956 8.41,9.0452956 C8.81,9.0452956 9.11,9.1452856 9.3,9.35526459 C9.49,9.55524458 9.59,9.84521557 9.59,10.2151786 C9.59,10.3951606 9.56,10.5551445 9.51,10.7051295 C9.46,10.8551145 9.37,10.9751025 9.26,11.0750925 C9.15,11.1750825 9.01,11.2550745 8.85,11.3150685 C8.69,11.3750625 8.49,11.4050595 8.27,11.4050595 L7.5,11.4050595 L7.5,12.4349565 L8.27,12.4349565 C8.49,12.4349565 8.69,12.4549545 8.87,12.5049495 C9.05,12.5549445 9.2,12.6349365 9.32,12.7349265 C9.44,12.8449155 9.54,12.9749025 9.61,13.1348865 C9.68,13.2948705 9.71,13.4848515 9.71,13.7048294 C9.71,14.1147884 9.59,14.4247574 9.36,14.6347364 C9.13,14.8647134 8.81,14.9647034 8.41,14.9647034 Z M17.71,10.2451756 C17.53,9.77522257 17.28,9.37526259 16.96,9.0452956 C16.64,8.71532861 16.26,8.45535462 15.82,8.27537262 C15.39,8.09539063 14.9,8.00539963 14.36,8.00539963 L12,8.00539963 L12,16.0045994 L14.3,16.0045994 C14.85,16.0045994 15.36,15.9146084 15.81,15.7346264 C16.26,15.5546444 16.65,15.3046694 16.97,14.9747024 C17.29,14.6447354 17.54,14.2447754 17.71,13.7848214 C17.88,13.3148685 17.97,12.7949205 17.97,12.2149785 L17.97,11.8150185 C17.97,11.2350765 17.88,10.7151285 17.71,10.2451756 Z M16.58,12.2049795 C16.58,12.6249375 16.53,12.9949005 16.44,13.3348665 C16.34,13.6648334 16.2,13.9548044 16.01,14.1847814 C15.82,14.4147584 15.58,14.5947404 15.3,14.7147284 C15.01,14.8347164 14.68,14.8947104 14.31,14.8947104 L13.4,14.8947104 L13.4,9.1152886 L14.37,9.1152886 C15.09,9.1152886 15.64,9.34526559 16.01,9.80521957 C16.39,10.2651736 16.58,10.9251075 16.58,11.7950205 L16.58,12.2049795 Z M15.15,3.84581577 L16.48,2.51594882 C19.57,3.97580277 21.82,6.88551167 22.37,10.3751626 C22.43,10.7851215 22.81,11.0650935 23.23,10.9951005 C23.64,10.9351065 23.92,10.5451455 23.85,10.1351866 C23.25,6.32556769 20.89,3.1258878 17.61,1.38606185 C15.94,0.496150884 13.78,-0.123787095 11.34,0.0261979 L15.15,3.84581577 Z M8.85,20.1541842 L7.52,21.4840512 C4.43,20.0241972 2.18,17.1144883 1.63,13.6248374 C1.57,13.2148785 1.19,12.9349065 0.77,13.0048995 C0.36,13.0648935 0.08,13.4548545 0.15,13.8648134 C0.75,17.6744323 3.11,20.8741122 6.39,22.6139381 C8.06,23.5038491 10.22,24.1237871 12.66,23.9738021 L8.85,20.1541842 Z" id="path-1"></path>
    </defs>
    <g id="icon/action/3d_rotation_24px" stroke="none" stroke-width="1" fill="none" fill-rule="evenodd">
        <mask id="mask-2" fill="white">
            <use xlink:href="#path-1"></use>
        </mask>
        <g fill-rule="nonzero"></g>
        <g id="✱-/-Color-/-Icons-/-Black-/-Inactive" mask="url(#mask-2)" fill="#000000" fill-opacity="0.54">
            <rect id="Rectangle" x="0" y="0" width="24" height="24"></rect>
        </g>
    </g>
</svg>