<?xml version="1.0" encoding="UTF-8"?>
<svg width="24px" height="24px" viewBox="0 0 24 24" version="1.1" xmlns="http://www.w3.org/2000/svg" xmlns:xlink="http://www.w3.org/1999/xlink">
    <!-- Generator: Sketch 50 (54983) - http://www.bohemiancoding.com/sketch -->
    <title>icon/action/accessibility_24px_rounded</title>
    <desc>Created with Sketch.</desc>
    <defs>
        <path d="M12,2 C13.1,2 14,2.9 14,4 C14,5.1 13.1,6 12,6 C10.9,6 10,5.1 10,4 C10,2.9 10.9,2 12,2 Z M20,9 L15,9 L15,21 C15,21.55 14.55,22 14,22 C13.45,22 13,21.55 13,21 L13,16 L11,16 L11,21 C11,21.55 10.55,22 10,22 C9.45,22 9,21.55 9,21 L9,9 L4,9 C3.45,9 3,8.55 3,8 C3,7.45 3.45,7 4,7 L20,7 C20.55,7 21,7.45 21,8 C21,8.55 20.55,9 20,9 Z" id="path-1"></path>
    </defs>
    <g id="icon/action/accessibility_24px" stroke="none" stroke-width="1" fill="none" fill-rule="evenodd">
        <mask id="mask-2" fill="white">
            <use xlink:href="#path-1"></use>
        </mask>
        <g fill-rule="nonzero"></g>
        <g id="✱-/-Color-/-Icons-/-Black-/-Inactive" mask="url(#mask-2)" fill="#000000" fill-opacity="0.54">
            <rect id="Rectangle" x="0" y="0" width="24" height="24"></rect>
        </g>
    </g>
</svg>