<?xml version="1.0" encoding="UTF-8"?>
<svg width="24px" height="24px" viewBox="0 0 24 24" version="1.1" xmlns="http://www.w3.org/2000/svg" xmlns:xlink="http://www.w3.org/1999/xlink">
    <!-- Generator: Sketch 50 (54983) - http://www.bohemiancoding.com/sketch -->
    <title>icon/action/account_balance_24px_rounded</title>
    <desc>Created with Sketch.</desc>
    <defs>
        <path d="M4.5,11.87125 L4.5,15.87125 C4.5,16.70125 5.17,17.37125 6,17.37125 C6.83,17.37125 7.5,16.70125 7.5,15.87125 L7.5,11.87125 C7.5,11.04125 6.83,10.37125 6,10.37125 C5.17,10.37125 4.5,11.04125 4.5,11.87125 Z M10.5,11.87125 L10.5,15.87125 C10.5,16.70125 11.17,17.37125 12,17.37125 C12.83,17.37125 13.5,16.70125 13.5,15.87125 L13.5,11.87125 C13.5,11.04125 12.83,10.37125 12,10.37125 C11.17,10.37125 10.5,11.04125 10.5,11.87125 Z M4,22.37125 L20,22.37125 C20.83,22.37125 21.5,21.70125 21.5,20.87125 C21.5,20.04125 20.83,19.37125 20,19.37125 L4,19.37125 C3.17,19.37125 2.5,20.04125 2.5,20.87125 C2.5,21.70125 3.17,22.37125 4,22.37125 Z M16.5,11.87125 L16.5,15.87125 C16.5,16.70125 17.17,17.37125 18,17.37125 C18.83,17.37125 19.5,16.70125 19.5,15.87125 L19.5,11.87125 C19.5,11.04125 18.83,10.37125 18,10.37125 C17.17,10.37125 16.5,11.04125 16.5,11.87125 Z M11.07,1.86125 L3.17,6.02125 C2.76,6.23125 2.5,6.66125 2.5,7.12125 C2.5,7.81125 3.06,8.37125 3.75,8.37125 L20.26,8.37125 C20.94,8.37125 21.5,7.81125 21.5,7.12125 C21.5,6.66125 21.24,6.23125 20.83,6.02125 L12.93,1.86125 C12.35,1.55125 11.65,1.55125 11.07,1.86125 Z" id="path-1"></path>
    </defs>
    <g id="icon/action/account_balance_24px" stroke="none" stroke-width="1" fill="none" fill-rule="evenodd">
        <mask id="mask-2" fill="white">
            <use xlink:href="#path-1"></use>
        </mask>
        <g fill-rule="nonzero"></g>
        <g id="✱-/-Color-/-Icons-/-Black-/-Inactive" mask="url(#mask-2)" fill="#000000" fill-opacity="0.54">
            <rect id="Rectangle" x="0" y="0" width="24" height="24"></rect>
        </g>
    </g>
</svg>