<?xml version="1.0" encoding="UTF-8"?>
<svg width="24px" height="24px" viewBox="0 0 24 24" version="1.1" xmlns="http://www.w3.org/2000/svg" xmlns:xlink="http://www.w3.org/1999/xlink">
    <!-- Generator: Sketch 50 (54983) - http://www.bohemiancoding.com/sketch -->
    <title>icon/action/account_balance_wallet_24px_rounded</title>
    <desc>Created with Sketch.</desc>
    <defs>
        <path d="M9.5,16 L9.5,8 C9.5,6.9 10.39,6 11.5,6 L20.5,6 L20.5,5 C20.5,3.9 19.6,3 18.5,3 L4.5,3 C3.39,3 2.5,3.9 2.5,5 L2.5,19 C2.5,20.1 3.39,21 4.5,21 L18.5,21 C19.6,21 20.5,20.1 20.5,19 L20.5,18 L11.5,18 C10.39,18 9.5,17.1 9.5,16 Z M12.5,8 C11.95,8 11.5,8.45 11.5,9 L11.5,15 C11.5,15.55 11.95,16 12.5,16 L21.5,16 L21.5,8 L12.5,8 Z M15.5,13.5 C14.67,13.5 14,12.83 14,12 C14,11.17 14.67,10.5 15.5,10.5 C16.33,10.5 17,11.17 17,12 C17,12.83 16.33,13.5 15.5,13.5 Z" id="path-1"></path>
    </defs>
    <g id="icon/action/account_balance_wallet_24px" stroke="none" stroke-width="1" fill="none" fill-rule="evenodd">
        <mask id="mask-2" fill="white">
            <use xlink:href="#path-1"></use>
        </mask>
        <g fill-rule="nonzero"></g>
        <g id="✱-/-Color-/-Icons-/-Black-/-Inactive" mask="url(#mask-2)" fill="#000000" fill-opacity="0.54">
            <rect id="Rectangle" x="0" y="0" width="24" height="24"></rect>
        </g>
    </g>
</svg>