<?xml version="1.0" encoding="UTF-8"?>
<svg width="24px" height="24px" viewBox="0 0 24 24" version="1.1" xmlns="http://www.w3.org/2000/svg" xmlns:xlink="http://www.w3.org/1999/xlink">
    <!-- Generator: Sketch 50 (54983) - http://www.bohemiancoding.com/sketch -->
    <title>icon/action/add_shopping_cart_24px_rounded</title>
    <desc>Created with Sketch.</desc>
    <defs>
        <path d="M13.0970559,9.5 C13.6470559,9.5 14.0970559,9.05 14.0970559,8.5 L14.0970559,6.5 L16.0970559,6.5 C16.6470559,6.5 17.0970559,6.05 17.0970559,5.5 C17.0970559,4.95 16.6470559,4.5 16.0970559,4.5 L14.0970559,4.5 L14.0970559,2.5 C14.0970559,1.95 13.6470559,1.5 13.0970559,1.5 C12.5470559,1.5 12.0970559,1.95 12.0970559,2.5 L12.0970559,4.5 L10.0970559,4.5 C9.5470559,4.5 9.0970559,4.95 9.0970559,5.5 C9.0970559,6.05 9.5470559,6.5 10.0970559,6.5 L12.0970559,6.5 L12.0970559,8.5 C12.0970559,9.05 12.5470559,9.5 13.0970559,9.5 Z M8.0970559,18.5 C6.9970559,18.5 6.1070559,19.4 6.1070559,20.5 C6.1070559,21.6 6.9970559,22.5 8.0970559,22.5 C9.1970559,22.5 10.0970559,21.6 10.0970559,20.5 C10.0970559,19.4 9.1970559,18.5 8.0970559,18.5 Z M18.0970559,18.5 C16.9970559,18.5 16.1070559,19.4 16.1070559,20.5 C16.1070559,21.6 16.9970559,22.5 18.0970559,22.5 C19.1970559,22.5 20.0970559,21.6 20.0970559,20.5 C20.0970559,19.4 19.1970559,18.5 18.0970559,18.5 Z M9.1970559,13.5 L16.6470559,13.5 C17.3970559,13.5 18.0570559,13.09 18.3970559,12.47 L21.7770559,6.34 C22.0470559,5.86 21.8670559,5.25 21.3870559,4.98 C20.9070559,4.72 20.2970559,4.89 20.0370559,5.37 L16.6470559,11.5 L9.6270559,11.5 L5.6370559,3.07 C5.4770559,2.72 5.1170559,2.5 4.7370559,2.5 L3.0970559,2.5 C2.5470559,2.5 2.0970559,2.95 2.0970559,3.5 C2.0970559,4.05 2.5470559,4.5 3.0970559,4.5 L4.0970559,4.5 L7.6970559,12.09 L6.3470559,14.53 C5.6170559,15.87 6.5770559,17.5 8.0970559,17.5 L19.0970559,17.5 C19.6470559,17.5 20.0970559,17.05 20.0970559,16.5 C20.0970559,15.95 19.6470559,15.5 19.0970559,15.5 L8.0970559,15.5 L9.1970559,13.5 Z" id="path-1"></path>
    </defs>
    <g id="icon/action/add_shopping_cart_24px" stroke="none" stroke-width="1" fill="none" fill-rule="evenodd">
        <mask id="mask-2" fill="white">
            <use xlink:href="#path-1"></use>
        </mask>
        <g fill-rule="nonzero"></g>
        <g id="✱-/-Color-/-Icons-/-Black-/-Inactive" mask="url(#mask-2)" fill="#000000" fill-opacity="0.54">
            <rect id="Rectangle" x="0" y="0" width="24" height="24"></rect>
        </g>
    </g>
</svg>