<?xml version="1.0" encoding="UTF-8"?>
<svg width="24px" height="24px" viewBox="0 0 24 24" version="1.1" xmlns="http://www.w3.org/2000/svg" xmlns:xlink="http://www.w3.org/1999/xlink">
    <!-- Generator: Sketch 50 (54983) - http://www.bohemiancoding.com/sketch -->
    <title>icon/action/alarm_on_24px_rounded</title>
    <desc>Created with Sketch.</desc>
    <defs>
        <path d="M14.94,10.0006952 L10.54,14.4206952 L8.94,12.8206952 C8.65,12.5306952 8.17,12.5306952 7.88,12.8206952 C7.59,13.1106952 7.59,13.5906952 7.88,13.8806952 L10,16.0006952 C10.29,16.2906952 10.77,16.2906952 11.06,16.0006952 L16,11.0606952 C16.29,10.7706952 16.29,10.2906952 16,10.0006952 C15.71,9.7106952 15.23,9.7106952 14.94,10.0006952 Z M21.18,4.9006952 L18.1,2.3406952 C17.68,1.9906952 17.05,2.0406952 16.69,2.4706952 C16.34,2.8906952 16.4,3.5206952 16.82,3.8806952 L19.89,6.4406952 C20.31,6.7906952 20.94,6.7406952 21.3,6.3106952 C21.66,5.8906952 21.6,5.2606952 21.18,4.9006952 Z M4.1,6.4406952 L7.17,3.8806952 C7.6,3.5206952 7.66,2.8906952 7.3,2.4706952 C6.95,2.0406952 6.32,1.9906952 5.9,2.3406952 L2.82,4.9006952 C2.4,5.2606952 2.34,5.8906952 2.7,6.3106952 C3.05,6.7406952 3.68,6.7906952 4.1,6.4406952 Z M12,3.8906952 C7.03,3.8906952 3,7.9206952 3,12.8906952 C3,17.8606952 7.03,21.8906952 12,21.8906952 C16.97,21.8906952 21,17.8606952 21,12.8906952 C21,7.9206952 16.97,3.8906952 12,3.8906952 Z M12,19.8906952 C8.14,19.8906952 5,16.7506952 5,12.8906952 C5,9.0306952 8.14,5.8906952 12,5.8906952 C15.86,5.8906952 19,9.0306952 19,12.8906952 C19,16.7506952 15.86,19.8906952 12,19.8906952 Z" id="path-1"></path>
    </defs>
    <g id="icon/action/alarm_on_24px" stroke="none" stroke-width="1" fill="none" fill-rule="evenodd">
        <mask id="mask-2" fill="white">
            <use xlink:href="#path-1"></use>
        </mask>
        <g fill-rule="nonzero"></g>
        <g id="✱-/-Color-/-Icons-/-Black-/-Inactive" mask="url(#mask-2)" fill="#000000" fill-opacity="0.54">
            <rect id="Rectangle" x="0" y="0" width="24" height="24"></rect>
        </g>
    </g>
</svg>