<?xml version="1.0" encoding="UTF-8"?>
<svg width="24px" height="24px" viewBox="0 0 24 24" version="1.1" xmlns="http://www.w3.org/2000/svg" xmlns:xlink="http://www.w3.org/1999/xlink">
    <!-- Generator: Sketch 50 (54983) - http://www.bohemiancoding.com/sketch -->
    <title>icon/action/alarm_off_24px_rounded</title>
    <desc>Created with Sketch.</desc>
    <defs>
        <path d="M10.2617578,6.18449217 C10.8817578,6.00449217 11.5417578,5.89449217 12.2217578,5.89449217 C16.0817578,5.89449217 19.2217578,9.03449217 19.2217578,12.8944922 C19.2217578,13.5744922 19.1117578,14.2344922 18.9317578,14.8544922 L20.4917578,16.4144922 C20.9617578,15.3344922 21.2217578,14.1444922 21.2217578,12.8944922 C21.2217578,7.92449217 17.1917578,3.89449217 12.2217578,3.89449217 C10.9717578,3.89449217 9.78175783,4.15449217 8.69175783,4.61449217 L10.2617578,6.18449217 Z M3.93175783,2.68449217 C3.55175783,2.30449217 2.93175783,2.30449217 2.54175783,2.68449217 L2.52175783,2.71449217 C2.13175783,3.10449217 2.13175783,3.72449217 2.52175783,4.10449217 L3.20175783,4.78449217 L3.03175783,4.92449217 C2.61175783,5.26449217 2.56175783,5.88449217 2.90175783,6.30449217 L2.93175783,6.33449217 C3.28175783,6.75449217 3.89175783,6.80449217 4.31175783,6.45449217 L4.62175783,6.20449217 L5.42175783,7.00449217 C4.05175783,8.58449217 3.22175783,10.6444922 3.22175783,12.8944922 C3.22175783,17.8644922 7.25175783,21.8944922 12.2217578,21.8944922 C14.4717578,21.8944922 16.5317578,21.0644922 18.1117578,19.6944922 L19.5217578,21.1044922 C19.9017578,21.4844922 20.5217578,21.4844922 20.9117578,21.1044922 L20.9417578,21.0744922 C21.3217578,20.6944922 21.3217578,20.0744922 20.9417578,19.6844922 L3.93175783,2.68449217 Z M12.2217578,19.8944922 C8.36175783,19.8944922 5.22175783,16.7544922 5.22175783,12.8944922 C5.22175783,11.1944922 5.83175783,9.63449217 6.84175783,8.42449217 L16.6917578,18.2744922 C15.4817578,19.2844922 13.9217578,19.8944922 12.2217578,19.8944922 Z M20.1317578,6.45449217 C20.5517578,6.80449217 21.1617578,6.74449217 21.5117578,6.33449217 L21.5417578,6.30449217 C21.8917578,5.88449217 21.8317578,5.27449217 21.4217578,4.92449217 L18.3217578,2.33449217 C17.9017578,1.98449217 17.2917578,2.04449217 16.9417578,2.45449217 L16.9117578,2.48449217 C16.5617578,2.90449217 16.6217578,3.51449217 17.0317578,3.86449217 L20.1317578,6.45449217 Z M7.65175783,3.57449217 C7.83175783,3.23449217 7.80175783,2.80449217 7.54175783,2.48449217 L7.51175783,2.45449217 C7.21175783,2.09449217 6.71175783,2.02449217 6.31175783,2.23449217 L7.65175783,3.57449217 Z" id="path-1"></path>
    </defs>
    <g id="icon/action/alarm_off_24px" stroke="none" stroke-width="1" fill="none" fill-rule="evenodd">
        <mask id="mask-2" fill="white">
            <use xlink:href="#path-1"></use>
        </mask>
        <g fill-rule="nonzero"></g>
        <g id="✱-/-Color-/-Icons-/-Black-/-Inactive" mask="url(#mask-2)" fill="#000000" fill-opacity="0.54">
            <rect id="Rectangle" x="0" y="0" width="24" height="24"></rect>
        </g>
    </g>
</svg>