<?xml version="1.0" encoding="UTF-8"?>
<svg width="24px" height="24px" viewBox="0 0 24 24" version="1.1" xmlns="http://www.w3.org/2000/svg" xmlns:xlink="http://www.w3.org/1999/xlink">
    <!-- Generator: Sketch 50 (54983) - http://www.bohemiancoding.com/sketch -->
    <title>icon/action/all_inbox_24px_rounded</title>
    <desc>Created with Sketch.</desc>
    <defs>
        <path d="M19,3 L5,3 C3.9,3 3,3.9 3,5 L3,12 C3,13.1 3.9,14 5,14 L19,14 C20.1,14 21,13.1 21,12 L21,5 C21,3.9 20.1,3 19,3 Z M19,9 L15.86,9 C15.39,9 15.02,9.33 14.89,9.78 C14.53,11.04 13.35,12 12,12 C10.65,12 9.47,11.04 9.11,9.78 C8.98,9.33 8.61,9 8.14,9 L5,9 L5,6 C5,5.45 5.45,5 6,5 L18,5 C18.55,5 19,5.45 19,6 L19,9 Z M15.87,16 L20,16 C20.55,16 21,16.45 21,17 L21,19 C21,20.1 20.1,21 19,21 L5,21 C3.9,21 3,20.1 3,19 L3,17 C3,16.45 3.45,16 4,16 L8.13,16 C8.6,16 8.98,16.34 9.11,16.8 C9.46,18.07 10.62,19 12,19 C13.38,19 14.54,18.07 14.89,16.8 C15.02,16.34 15.4,16 15.87,16 Z" id="path-1"></path>
    </defs>
    <g id="icon/action/all_inbox_24px" stroke="none" stroke-width="1" fill="none" fill-rule="evenodd">
        <mask id="mask-2" fill="white">
            <use xlink:href="#path-1"></use>
        </mask>
        <g fill-rule="nonzero"></g>
        <g id="✱-/-Color-/-Icons-/-Black-/-Inactive" mask="url(#mask-2)" fill="#000000" fill-opacity="0.54">
            <rect id="Rectangle" x="0" y="0" width="24" height="24"></rect>
        </g>
    </g>
</svg>