<?xml version="1.0" encoding="UTF-8"?>
<svg width="24px" height="24px" viewBox="0 0 24 24" version="1.1" xmlns="http://www.w3.org/2000/svg" xmlns:xlink="http://www.w3.org/1999/xlink">
    <!-- Generator: Sketch 50 (54983) - http://www.bohemiancoding.com/sketch -->
    <title>icon/action/assignment_turned_in_24px_rounded</title>
    <desc>Created with Sketch.</desc>
    <defs>
        <path d="M19,4 L14.82,4 C14.4,2.84 13.3,2 12,2 C10.7,2 9.6,2.84 9.18,4 L5,4 C3.9,4 3,4.9 3,6 L3,20 C3,21.1 3.9,22 5,22 L19,22 C20.1,22 21,21.1 21,20 L21,6 C21,4.9 20.1,4 19,4 Z M12,4 C12.55,4 13,4.45 13,5 C13,5.55 12.55,6 12,6 C11.45,6 11,5.55 11,5 C11,4.45 11.45,4 12,4 Z M9.29,17.29 L6.7,14.7 C6.51274733,14.5131685 6.40751439,14.2595176 6.40751439,13.995 C6.40751439,13.7304824 6.51274733,13.4768315 6.7,13.29 C7.09,12.9 7.72,12.9 8.11,13.29 L10,15.17 L15.88,9.29 C16.27,8.9 16.9,8.9 17.29,9.29 C17.68,9.68 17.68,10.31 17.29,10.7 L10.7,17.29 C10.32,17.68 9.68,17.68 9.29,17.29 Z" id="path-1"></path>
    </defs>
    <g id="icon/action/assignment_turned_in_24px" stroke="none" stroke-width="1" fill="none" fill-rule="evenodd">
        <mask id="mask-2" fill="white">
            <use xlink:href="#path-1"></use>
        </mask>
        <g fill-rule="nonzero"></g>
        <g id="✱-/-Color-/-Icons-/-Black-/-Inactive" mask="url(#mask-2)" fill="#000000" fill-opacity="0.54">
            <rect id="Rectangle" x="0" y="0" width="24" height="24"></rect>
        </g>
    </g>
</svg>