<?xml version="1.0" encoding="UTF-8"?>
<svg width="24px" height="24px" viewBox="0 0 24 24" version="1.1" xmlns="http://www.w3.org/2000/svg" xmlns:xlink="http://www.w3.org/1999/xlink">
    <!-- Generator: Sketch 50 (54983) - http://www.bohemiancoding.com/sketch -->
    <title>icon/action/autorenew_24px_rounded</title>
    <desc>Created with Sketch.</desc>
    <defs>
        <path d="M12,5.99983252 L12,7.78983252 C12,8.23983252 12.54,8.45983252 12.85,8.13983252 L15.64,5.34983252 C15.84,5.14983252 15.84,4.83983252 15.64,4.63983252 L12.85,1.84983252 C12.54,1.53983252 12,1.75983252 12,2.20983252 L12,3.99983252 C7.58,3.99983252 4,7.57983252 4,11.9998325 C4,13.0398325 4.2,14.0398325 4.57,14.9498325 C4.84,15.6198325 5.7,15.7998325 6.21,15.2898325 C6.48,15.0198325 6.59,14.6098325 6.44,14.2498325 C6.15,13.5598325 6,12.7898325 6,11.9998325 C6,8.68983252 8.69,5.99983252 12,5.99983252 Z M17.79,8.70983252 C17.52,8.97983252 17.41,9.39983252 17.56,9.74983252 C17.84,10.4498325 18,11.2098325 18,11.9998325 C18,15.3098325 15.31,17.9998325 12,17.9998325 L12,16.2098325 C12,15.7598325 11.46,15.5398325 11.15,15.8598325 L8.36,18.6498325 C8.16,18.8498325 8.16,19.1598325 8.36,19.3598325 L11.15,22.1498325 C11.46,22.4598325 12,22.2398325 12,21.7998325 L12,19.9998325 C16.42,19.9998325 20,16.4198325 20,11.9998325 C20,10.9598325 19.8,9.95983252 19.43,9.04983252 C19.16,8.37983252 18.3,8.19983252 17.79,8.70983252 Z" id="path-1"></path>
    </defs>
    <g id="icon/action/autorenew_24px" stroke="none" stroke-width="1" fill="none" fill-rule="evenodd">
        <mask id="mask-2" fill="white">
            <use xlink:href="#path-1"></use>
        </mask>
        <g fill-rule="nonzero"></g>
        <g id="✱-/-Color-/-Icons-/-Black-/-Inactive" mask="url(#mask-2)" fill="#000000" fill-opacity="0.54">
            <rect id="Rectangle" x="0" y="0" width="24" height="24"></rect>
        </g>
    </g>
</svg>