<?xml version="1.0" encoding="UTF-8"?>
<svg width="24px" height="24px" viewBox="0 0 24 24" version="1.1" xmlns="http://www.w3.org/2000/svg" xmlns:xlink="http://www.w3.org/1999/xlink">
    <!-- Generator: Sketch 50 (54983) - http://www.bohemiancoding.com/sketch -->
    <title>icon/action/bug_report_24px_rounded</title>
    <desc>Created with Sketch.</desc>
    <defs>
        <path d="M19,7.7962428 L17.19,7.7962428 C16.74,7.0162428 16.12,6.3462428 15.37,5.8362428 L16.3,4.9062428 C16.69,4.5162428 16.69,3.8862428 16.3,3.4962428 C16.1131685,3.30899013 15.8595176,3.2037572 15.595,3.2037572 C15.3304824,3.2037572 15.0768315,3.30899013 14.89,3.4962428 L13.42,4.9662428 C12.96,4.8562428 12.49,4.7962428 12,4.7962428 C11.51,4.7962428 11.04,4.8562428 10.59,4.9662428 L9.11,3.4962428 C8.92316847,3.30899013 8.66951764,3.2037572 8.405,3.2037572 C8.14048236,3.2037572 7.88683153,3.30899013 7.7,3.4962428 C7.31,3.8862428 7.31,4.5162428 7.7,4.9062428 L8.62,5.8362428 C7.88,6.3462428 7.26,7.0162428 6.81,7.7962428 L5,7.7962428 C4.45,7.7962428 4,8.2462428 4,8.7962428 C4,9.3462428 4.45,9.7962428 5,9.7962428 L6.09,9.7962428 C6.04,10.1262428 6,10.4562428 6,10.7962428 L6,11.7962428 L5,11.7962428 C4.45,11.7962428 4,12.2462428 4,12.7962428 C4,13.3462428 4.45,13.7962428 5,13.7962428 L6,13.7962428 L6,14.7962428 C6,15.1362428 6.04,15.4662428 6.09,15.7962428 L5,15.7962428 C4.45,15.7962428 4,16.2462428 4,16.7962428 C4,17.3462428 4.45,17.7962428 5,17.7962428 L6.81,17.7962428 C7.85,19.5862428 9.78,20.7962428 12,20.7962428 C14.22,20.7962428 16.15,19.5862428 17.19,17.7962428 L19,17.7962428 C19.55,17.7962428 20,17.3462428 20,16.7962428 C20,16.2462428 19.55,15.7962428 19,15.7962428 L17.91,15.7962428 C17.96,15.4662428 18,15.1362428 18,14.7962428 L18,13.7962428 L19,13.7962428 C19.55,13.7962428 20,13.3462428 20,12.7962428 C20,12.2462428 19.55,11.7962428 19,11.7962428 L18,11.7962428 L18,10.7962428 C18,10.4562428 17.96,10.1262428 17.91,9.7962428 L19,9.7962428 C19.55,9.7962428 20,9.3462428 20,8.7962428 C20,8.2462428 19.55,7.7962428 19,7.7962428 Z M13,15.7962428 L11,15.7962428 C10.45,15.7962428 10,15.3462428 10,14.7962428 C10,14.2462428 10.45,13.7962428 11,13.7962428 L13,13.7962428 C13.55,13.7962428 14,14.2462428 14,14.7962428 C14,15.3462428 13.55,15.7962428 13,15.7962428 Z M13,11.7962428 L11,11.7962428 C10.45,11.7962428 10,11.3462428 10,10.7962428 C10,10.2462428 10.45,9.7962428 11,9.7962428 L13,9.7962428 C13.55,9.7962428 14,10.2462428 14,10.7962428 C14,11.3462428 13.55,11.7962428 13,11.7962428 Z" id="path-1"></path>
    </defs>
    <g id="icon/action/bug_report_24px" stroke="none" stroke-width="1" fill="none" fill-rule="evenodd">
        <mask id="mask-2" fill="white">
            <use xlink:href="#path-1"></use>
        </mask>
        <g fill-rule="nonzero"></g>
        <g id="✱-/-Color-/-Icons-/-Black-/-Inactive" mask="url(#mask-2)" fill="#000000" fill-opacity="0.54">
            <rect id="Rectangle" x="0" y="0" width="24" height="24"></rect>
        </g>
    </g>
</svg>