<?xml version="1.0" encoding="UTF-8"?>
<svg width="24px" height="24px" viewBox="0 0 24 24" version="1.1" xmlns="http://www.w3.org/2000/svg" xmlns:xlink="http://www.w3.org/1999/xlink">
    <!-- Generator: Sketch 50 (54983) - http://www.bohemiancoding.com/sketch -->
    <title>icon/action/chrome_reader_mode_24px_rounded</title>
    <desc>Created with Sketch.</desc>
    <defs>
        <path d="M21,3.5 L3,3.5 C1.9,3.5 1,4.4 1,5.5 L1,18.5 C1,19.6 1.9,20.5 3,20.5 L21,20.5 C22.1,20.5 23,19.6 23,18.5 L23,5.5 C23,4.4 22.1,3.5 21,3.5 Z M21,17.5 C21,18.05 20.55,18.5 20,18.5 L12,18.5 L12,5.5 L20,5.5 C20.55,5.5 21,5.95 21,6.5 L21,17.5 Z M19.25,9 L13.75,9 C13.34,9 13,9.34 13,9.75 C13,10.16 13.34,10.5 13.75,10.5 L19.25,10.5 C19.66,10.5 20,10.16 20,9.75 C20,9.34 19.66,9 19.25,9 Z M19.25,11.5 L13.75,11.5 C13.34,11.5 13,11.84 13,12.25 C13,12.66 13.34,13 13.75,13 L19.25,13 C19.66,13 20,12.66 20,12.25 C20,11.84 19.66,11.5 19.25,11.5 Z M19.25,14 L13.75,14 C13.34,14 13,14.34 13,14.75 C13,15.16 13.34,15.5 13.75,15.5 L19.25,15.5 C19.66,15.5 20,15.16 20,14.75 C20,14.34 19.66,14 19.25,14 Z" id="path-1"></path>
    </defs>
    <g id="icon/action/chrome_reader_mode_24px" stroke="none" stroke-width="1" fill="none" fill-rule="evenodd">
        <mask id="mask-2" fill="white">
            <use xlink:href="#path-1"></use>
        </mask>
        <g fill-rule="nonzero"></g>
        <g id="✱-/-Color-/-Icons-/-Black-/-Inactive" mask="url(#mask-2)" fill="#000000" fill-opacity="0.54">
            <rect id="Rectangle" x="0" y="0" width="24" height="24"></rect>
        </g>
    </g>
</svg>