<?xml version="1.0" encoding="UTF-8"?>
<svg width="24px" height="24px" viewBox="0 0 24 24" version="1.1" xmlns="http://www.w3.org/2000/svg" xmlns:xlink="http://www.w3.org/1999/xlink">
    <!-- Generator: Sketch 50 (54983) - http://www.bohemiancoding.com/sketch -->
    <title>icon/action/commute_24px_rounded</title>
    <desc>Created with Sketch.</desc>
    <defs>
        <path d="M11.995,4 L4.995,4 C3.335,4 1.995,5.34 1.995,7 L1.995,15 C1.995,16.66 3.335,18 4.995,18 L4.225,18.77 C3.945,19.05 3.945,19.49 4.225,19.77 C4.505,20.05 4.945,20.05 5.225,19.77 L6.995,18 L8.995,18 L8.995,13 L4.495,13 C4.215,13 3.995,12.78 3.995,12.5 L3.995,6.5 C3.995,6.22 4.215,6 4.495,6 L12.495,6 C12.775,6 12.995,6.22 12.995,6.5 L12.995,8 L14.995,8 L14.995,7 C14.995,5.34 13.655,4 11.995,4 Z M4.995,14 C5.545,14 5.995,14.45 5.995,15 C5.995,15.55 5.545,16 4.995,16 C4.445,16 3.995,15.55 3.995,15 C3.995,14.45 4.445,14 4.995,14 Z M20.565,9.66 C20.425,9.26 20.045,9 19.595,9 L12.405,9 C11.945,9 11.575,9.26 11.425,9.66 L10.005,13.77 L10.005,19.01 C10.005,19.56 10.455,20 11.005,20 C11.555,20 12.005,19.55 12.005,19 L12.005,18 L20.005,18 L20.005,19 C20.005,19.55 20.455,20 21.005,20 C21.555,20 21.995,19.56 22.005,19.01 L21.995,13.77 L20.565,9.66 Z M12.765,10 L19.245,10 C19.455,10 19.645,10.14 19.715,10.34 L20.405,12.34 C20.515,12.66 20.275,13 19.935,13 L12.085,13 C11.745,13 11.505,12.66 11.615,12.34 L12.305,10.34 C12.355,10.14 12.545,10 12.765,10 Z M11.995,16 C11.445,16 10.995,15.55 10.995,15 C10.995,14.45 11.445,14 11.995,14 C12.545,14 12.995,14.45 12.995,15 C12.995,15.55 12.545,16 11.995,16 Z M19.995,16 C19.445,16 18.995,15.55 18.995,15 C18.995,14.45 19.445,14 19.995,14 C20.545,14 20.995,14.45 20.995,15 C20.995,15.55 20.545,16 19.995,16 Z" id="path-1"></path>
    </defs>
    <g id="icon/action/commute_24px" stroke="none" stroke-width="1" fill="none" fill-rule="evenodd">
        <mask id="mask-2" fill="white">
            <use xlink:href="#path-1"></use>
        </mask>
        <g fill-rule="nonzero"></g>
        <g id="✱-/-Color-/-Icons-/-Black-/-Inactive" mask="url(#mask-2)" fill="#000000" fill-opacity="0.54">
            <rect id="Rectangle" x="0" y="0" width="24" height="24"></rect>
        </g>
    </g>
</svg>