<?xml version="1.0" encoding="UTF-8"?>
<svg width="24px" height="24px" viewBox="0 0 24 24" version="1.1" xmlns="http://www.w3.org/2000/svg" xmlns:xlink="http://www.w3.org/1999/xlink">
    <!-- Generator: Sketch 50 (54983) - http://www.bohemiancoding.com/sketch -->
    <title>icon/action/delete_forever_24px_rounded</title>
    <desc>Created with Sketch.</desc>
    <defs>
        <path d="M6,19 C6,20.1 6.9,21 8,21 L16,21 C17.1,21 18,20.1 18,19 L18,9 C18,7.9 17.1,7 16,7 L8,7 C6.9,7 6,7.9 6,9 L6,19 Z M9.17,11.17 C9.56,10.78 10.19,10.78 10.58,11.17 L12,12.59 L13.42,11.17 C13.81,10.78 14.44,10.78 14.83,11.17 C15.22,11.56 15.22,12.19 14.83,12.58 L13.41,14 L14.83,15.42 C15.22,15.81 15.22,16.44 14.83,16.83 C14.44,17.22 13.81,17.22 13.42,16.83 L12,15.41 L10.58,16.83 C10.19,17.22 9.56,17.22 9.17,16.83 C8.98274733,16.6431685 8.87751439,16.3895176 8.87751439,16.125 C8.87751439,15.8604824 8.98274733,15.6068315 9.17,15.42 L10.59,14 L9.17,12.58 C8.78,12.2 8.78,11.56 9.17,11.17 Z M15.5,4 L14.79,3.29 C14.61,3.11 14.35,3 14.09,3 L9.91,3 C9.65,3 9.39,3.11 9.21,3.29 L8.5,4 L6,4 C5.45,4 5,4.45 5,5 C5,5.55 5.45,6 6,6 L18,6 C18.55,6 19,5.55 19,5 C19,4.45 18.55,4 18,4 L15.5,4 Z" id="path-1"></path>
    </defs>
    <g id="icon/action/delete_forever_24px" stroke="none" stroke-width="1" fill="none" fill-rule="evenodd">
        <mask id="mask-2" fill="white">
            <use xlink:href="#path-1"></use>
        </mask>
        <g fill-rule="nonzero"></g>
        <g id="✱-/-Color-/-Icons-/-Black-/-Inactive" mask="url(#mask-2)" fill="#000000" fill-opacity="0.54">
            <rect id="Rectangle" x="0" y="0" width="24" height="24"></rect>
        </g>
    </g>
</svg>