<?xml version="1.0" encoding="UTF-8"?>
<svg width="24px" height="24px" viewBox="0 0 24 24" version="1.1" xmlns="http://www.w3.org/2000/svg" xmlns:xlink="http://www.w3.org/1999/xlink">
    <!-- Generator: Sketch 50 (54983) - http://www.bohemiancoding.com/sketch -->
    <title>icon/action/done_all_24px_rounded</title>
    <desc>Created with Sketch.</desc>
    <defs>
        <path d="M17.265,6.00438093 C17.0781685,5.81712826 16.8245176,5.71189533 16.56,5.71189533 C16.2954824,5.71189533 16.0418315,5.81712826 15.855,6.00438093 L10.215,11.6443809 L11.625,13.0543809 L17.265,7.40438093 C17.645,7.02438093 17.645,6.38438093 17.265,6.00438093 Z M21.505,5.99438093 L11.625,15.8743809 L8.145,12.4043809 C7.95816847,12.2171283 7.70451764,12.1118953 7.44,12.1118953 C7.17548236,12.1118953 6.92183153,12.2171283 6.735,12.4043809 C6.345,12.7943809 6.345,13.4243809 6.735,13.8143809 L10.915,17.9943809 C11.305,18.3843809 11.935,18.3843809 12.325,17.9943809 L22.915,7.41438093 C23.305,7.02438093 23.305,6.39438093 22.915,6.00438093 L22.905,6.00438093 C22.525,5.60438093 21.895,5.60438093 21.505,5.99438093 Z M1.085,13.8243809 L5.265,18.0043809 C5.655,18.3943809 6.285,18.3943809 6.675,18.0043809 L7.375,17.3043809 L2.495,12.4043809 C2.30816847,12.2171283 2.05451764,12.1118953 1.79,12.1118953 C1.52548236,12.1118953 1.27183153,12.2171283 1.085,12.4043809 C0.695,12.7943809 0.695,13.4343809 1.085,13.8243809 Z" id="path-1"></path>
    </defs>
    <g id="icon/action/done_all_24px" stroke="none" stroke-width="1" fill="none" fill-rule="evenodd">
        <mask id="mask-2" fill="white">
            <use xlink:href="#path-1"></use>
        </mask>
        <g fill-rule="nonzero"></g>
        <g id="✱-/-Color-/-Icons-/-Black-/-Inactive" mask="url(#mask-2)" fill="#000000" fill-opacity="0.54">
            <rect id="Rectangle" x="0" y="0" width="24" height="24"></rect>
        </g>
    </g>
</svg>