<?xml version="1.0" encoding="UTF-8"?>
<svg width="24px" height="24px" viewBox="0 0 24 24" version="1.1" xmlns="http://www.w3.org/2000/svg" xmlns:xlink="http://www.w3.org/1999/xlink">
    <!-- Generator: Sketch 50 (54983) - http://www.bohemiancoding.com/sketch -->
    <title>icon/action/donut_large_24px_rounded</title>
    <desc>Created with Sketch.</desc>
    <defs>
        <path d="M14.2525832,5.32368838 C16.4425832,6.00368838 18.1825832,7.74368838 18.8625832,9.93368838 C19.0525832,10.5636884 19.6225832,11.0036884 20.2725832,11.0036884 L20.3125832,11.0036884 C21.3125832,11.0036884 22.0325832,10.0436884 21.7425832,9.09368838 C20.7725832,5.91368838 18.2625832,3.40368838 15.0825832,2.43368838 C14.1425832,2.14368838 13.1825832,2.86368838 13.1825832,3.86368838 L13.1825832,3.90368838 C13.1825832,4.56368838 13.6225832,5.13368838 14.2525832,5.32368838 Z M18.8625832,14.0736884 C18.1825832,16.2736884 16.4425832,18.0036884 14.2525832,18.6836884 C13.6225832,18.8736884 13.1825832,19.4436884 13.1825832,20.0936884 L13.1825832,20.1336884 C13.1825832,21.1336884 14.1425832,21.8536884 15.0925832,21.5636884 C18.2725832,20.5936884 20.7825832,18.0836884 21.7525832,14.9036884 C22.0425832,13.9536884 21.3225832,12.9936884 20.3325832,12.9936884 L20.2825832,12.9936884 C19.6225832,13.0036884 19.0525832,13.4436884 18.8625832,14.0736884 Z M11.1825832,20.1136884 C11.1825832,19.4436884 10.7325832,18.8736884 10.0925832,18.6736884 C7.25258319,17.7836884 5.18258319,15.1336884 5.18258319,12.0036884 C5.18258319,8.87368838 7.25258319,6.22368838 10.0925832,5.33368838 C10.7325832,5.13368838 11.1825832,4.56368838 11.1825832,3.89368838 L11.1825832,3.88368838 C11.1825832,2.88368838 10.2125832,2.14368838 9.25258319,2.44368838 C5.16258319,3.69368838 2.18258319,7.50368838 2.18258319,12.0036884 C2.18258319,16.5036884 5.16258319,20.3136884 9.25258319,21.5636884 C10.2125832,21.8636884 11.1825832,21.1236884 11.1825832,20.1136884 Z" id="path-1"></path>
    </defs>
    <g id="icon/action/donut_large_24px" stroke="none" stroke-width="1" fill="none" fill-rule="evenodd">
        <mask id="mask-2" fill="white">
            <use xlink:href="#path-1"></use>
        </mask>
        <g fill-rule="nonzero"></g>
        <g id="✱-/-Color-/-Icons-/-Black-/-Inactive" mask="url(#mask-2)" fill="#000000" fill-opacity="0.54">
            <rect id="Rectangle" x="0" y="0" width="24" height="24"></rect>
        </g>
    </g>
</svg>