<?xml version="1.0" encoding="UTF-8"?>
<svg width="24px" height="24px" viewBox="0 0 24 24" version="1.1" xmlns="http://www.w3.org/2000/svg" xmlns:xlink="http://www.w3.org/1999/xlink">
    <!-- Generator: Sketch 50 (54983) - http://www.bohemiancoding.com/sketch -->
    <title>icon/action/eject_24px_rounded</title>
    <desc>Created with Sketch.</desc>
    <defs>
        <path d="M6,16.6 L18,16.6 C18.55,16.6 19,17.05 19,17.6 C19,18.15 18.55,18.6 18,18.6 L6,18.6 C5.45,18.6 5,18.15 5,17.6 C5,17.05 5.45,16.6 6,16.6 Z M11.17,5.85 L6.37,13.05 C5.92,13.71 6.4,14.6 7.2,14.6 L16.8,14.6 C17.6,14.6 18.08,13.71 17.63,13.05 L12.83,5.85 C12.44,5.25 11.56,5.25 11.17,5.85 Z" id="path-1"></path>
    </defs>
    <g id="icon/action/eject_24px" stroke="none" stroke-width="1" fill="none" fill-rule="evenodd">
        <mask id="mask-2" fill="white">
            <use xlink:href="#path-1"></use>
        </mask>
        <g fill-rule="nonzero"></g>
        <g id="✱-/-Color-/-Icons-/-Black-/-Inactive" mask="url(#mask-2)" fill="#000000" fill-opacity="0.54">
            <rect id="Rectangle" x="0" y="0" width="24" height="24"></rect>
        </g>
    </g>
</svg>