<?xml version="1.0" encoding="UTF-8"?>
<svg width="24px" height="24px" viewBox="0 0 24 24" version="1.1" xmlns="http://www.w3.org/2000/svg" xmlns:xlink="http://www.w3.org/1999/xlink">
    <!-- Generator: Sketch 50 (54983) - http://www.bohemiancoding.com/sketch -->
    <title>icon/action/euro_symbol_24px_rounded</title>
    <desc>Created with Sketch.</desc>
    <defs>
        <path d="M15.3222402,18.5 C12.8122402,18.5 10.6422402,17.08 9.56224019,15 L14.3222402,15 C14.8722402,15 15.3222402,14.55 15.3222402,14 C15.3222402,13.45 14.8722402,13 14.3222402,13 L8.90224019,13 C8.85224019,12.67 8.82224019,12.34 8.82224019,12 C8.82224019,11.66 8.85224019,11.33 8.90224019,11 L14.3222402,11 C14.8722402,11 15.3222402,10.55 15.3222402,10 C15.3222402,9.45 14.8722402,9 14.3222402,9 L9.56224019,9 C10.6422402,6.92 12.8222402,5.5 15.3222402,5.5 C16.5722402,5.5 17.7422402,5.86 18.7422402,6.47 C19.2422402,6.78 19.8922402,6.73 20.3122402,6.31 C20.8922402,5.73 20.7622402,4.78 20.0622402,4.35 C18.6822402,3.5 17.0522402,3 15.3222402,3 C11.4022402,3 8.08224019,5.51 6.84224019,9 L4.32224019,9 C3.77224019,9 3.32224019,9.45 3.32224019,10 C3.32224019,10.55 3.77224019,11 4.32224019,11 L6.38224019,11 C6.34224019,11.33 6.32224019,11.66 6.32224019,12 C6.32224019,12.34 6.34224019,12.67 6.38224019,13 L4.32224019,13 C3.77224019,13 3.32224019,13.45 3.32224019,14 C3.32224019,14.55 3.77224019,15 4.32224019,15 L6.84224019,15 C8.08224019,18.49 11.4022402,21 15.3222402,21 C17.0622402,21 18.6822402,20.51 20.0622402,19.65 C20.7522402,19.22 20.8822402,18.26 20.3022402,17.68 C19.8822402,17.26 19.2322402,17.21 18.7322402,17.53 C17.7422402,18.15 16.5822402,18.5 15.3222402,18.5 Z" id="path-1"></path>
    </defs>
    <g id="icon/action/euro_symbol_24px" stroke="none" stroke-width="1" fill="none" fill-rule="evenodd">
        <mask id="mask-2" fill="white">
            <use xlink:href="#path-1"></use>
        </mask>
        <g fill-rule="nonzero"></g>
        <g id="✱-/-Color-/-Icons-/-Black-/-Inactive" mask="url(#mask-2)" fill="#000000" fill-opacity="0.54">
            <rect id="Rectangle" x="0" y="0" width="24" height="24"></rect>
        </g>
    </g>
</svg>