<?xml version="1.0" encoding="UTF-8"?>
<svg width="24px" height="24px" viewBox="0 0 24 24" version="1.1" xmlns="http://www.w3.org/2000/svg" xmlns:xlink="http://www.w3.org/1999/xlink">
    <!-- Generator: Sketch 50 (54983) - http://www.bohemiancoding.com/sketch -->
    <title>icon/action/explore_off_24px_rounded</title>
    <desc>Created with Sketch.</desc>
    <defs>
        <path d="M18.000699,5.99865935 L15.090699,12.2586594 L20.340699,17.5086594 C21.390699,15.9286594 22.000699,14.0386594 22.000699,11.9986594 C22.000699,6.47865935 17.520699,1.99865935 12.000699,1.99865935 C9.96069897,1.99865935 8.07069897,2.60865935 6.49069897,3.65865935 L11.740699,8.90865935 L18.000699,5.99865935 Z M2.81069897,5.63865935 L3.66069897,6.48865935 C2.29069897,8.55865935 1.66069897,11.1686594 2.18069897,13.9386594 C2.93069897,17.8886594 6.10069897,21.0686594 10.060699,21.8186594 C12.830699,22.3386594 15.440699,21.7186594 17.510699,20.3386594 L18.360699,21.1886594 C18.750699,21.5786594 19.380699,21.5786594 19.770699,21.1886594 C20.160699,20.7986594 20.160699,20.1686594 19.770699,19.7786594 L4.22069897,4.21865935 C4.03386745,4.03140668 3.78021661,3.92617375 3.51569897,3.92617375 C3.25118133,3.92617375 2.9975305,4.03140668 2.81069897,4.21865935 C2.42069897,4.60865935 2.42069897,5.24865935 2.81069897,5.63865935 Z M8.91069897,11.7386594 L12.260699,15.0886594 L6.00069897,17.9986594 L8.91069897,11.7386594 Z" id="path-1"></path>
    </defs>
    <g id="icon/action/explore_off_24px" stroke="none" stroke-width="1" fill="none" fill-rule="evenodd">
        <mask id="mask-2" fill="white">
            <use xlink:href="#path-1"></use>
        </mask>
        <g fill-rule="nonzero"></g>
        <g id="✱-/-Color-/-Icons-/-Black-/-Inactive" mask="url(#mask-2)" fill="#000000" fill-opacity="0.54">
            <rect id="Rectangle" x="0" y="0" width="24" height="24"></rect>
        </g>
    </g>
</svg>