<?xml version="1.0" encoding="UTF-8"?>
<svg width="24px" height="24px" viewBox="0 0 24 24" version="1.1" xmlns="http://www.w3.org/2000/svg" xmlns:xlink="http://www.w3.org/1999/xlink">
    <!-- Generator: Sketch 50 (54983) - http://www.bohemiancoding.com/sketch -->
    <title>icon/action/extension_24px_rounded</title>
    <desc>Created with Sketch.</desc>
    <defs>
        <path d="M20,11.5 L18.5,11.5 L18.5,7.5 C18.5,6.4 17.6,5.5 16.5,5.5 L12.5,5.5 L12.5,4 C12.5,2.62 11.38,1.5 10,1.5 C8.62,1.5 7.5,2.62 7.5,4 L7.5,5.5 L3.5,5.5 C2.4,5.5 1.51,6.4 1.51,7.5 L1.51,11.3 L3,11.3 C4.49,11.3 5.7,12.51 5.7,14 C5.7,15.49 4.49,16.7 3,16.7 L1.5,16.7 L1.5,20.5 C1.5,21.6 2.4,22.5 3.5,22.5 L7.3,22.5 L7.3,21 C7.3,19.51 8.51,18.3 10,18.3 C11.49,18.3 12.7,19.51 12.7,21 L12.7,22.5 L16.5,22.5 C17.6,22.5 18.5,21.6 18.5,20.5 L18.5,16.5 L20,16.5 C21.38,16.5 22.5,15.38 22.5,14 C22.5,12.62 21.38,11.5 20,11.5 Z" id="path-1"></path>
    </defs>
    <g id="icon/action/extension_24px" stroke="none" stroke-width="1" fill="none" fill-rule="evenodd">
        <mask id="mask-2" fill="white">
            <use xlink:href="#path-1"></use>
        </mask>
        <g fill-rule="nonzero"></g>
        <g id="✱-/-Color-/-Icons-/-Black-/-Inactive" mask="url(#mask-2)" fill="#000000" fill-opacity="0.54">
            <rect id="Rectangle" x="0" y="0" width="24" height="24"></rect>
        </g>
    </g>
</svg>