<?xml version="1.0" encoding="UTF-8"?>
<svg width="24px" height="24px" viewBox="0 0 24 24" version="1.1" xmlns="http://www.w3.org/2000/svg" xmlns:xlink="http://www.w3.org/1999/xlink">
    <!-- Generator: Sketch 50 (54983) - http://www.bohemiancoding.com/sketch -->
    <title>icon/action/favorite_border_24px_rounded</title>
    <desc>Created with Sketch.</desc>
    <defs>
        <path d="M19.6602742,4.1671987 C17.0202742,2.3671987 13.7602742,3.2071987 12.0002742,5.2671987 C10.2402742,3.2071987 6.98027421,2.3571987 4.34027421,4.1671987 C2.94027421,5.1271987 2.06027421,6.7471987 2.00027421,8.4571987 C1.86027421,12.3371987 5.30027421,15.4471987 10.5502742,20.2171987 L10.6502742,20.3071987 C11.4102742,20.9971987 12.5802742,20.9971987 13.3402742,20.2971987 L13.4502742,20.1971987 C18.7002742,15.4371987 22.1302742,12.3271987 22.0002742,8.4471987 C21.9402742,6.7471987 21.0602742,5.1271987 19.6602742,4.1671987 Z M12.1002742,18.7271987 L12.0002742,18.8271987 L11.9002742,18.7271987 C7.14027421,14.4171987 4.00027421,11.5671987 4.00027421,8.6771987 C4.00027421,6.6771987 5.50027421,5.1771987 7.50027421,5.1771987 C9.04027421,5.1771987 10.5402742,6.1671987 11.0702742,7.5371987 L12.9402742,7.5371987 C13.4602742,6.1671987 14.9602742,5.1771987 16.5002742,5.1771987 C18.5002742,5.1771987 20.0002742,6.6771987 20.0002742,8.6771987 C20.0002742,11.5671987 16.8602742,14.4171987 12.1002742,18.7271987 Z" id="path-1"></path>
    </defs>
    <g id="icon/action/favorite_border_24px" stroke="none" stroke-width="1" fill="none" fill-rule="evenodd">
        <mask id="mask-2" fill="white">
            <use xlink:href="#path-1"></use>
        </mask>
        <g fill-rule="nonzero"></g>
        <g id="✱-/-Color-/-Icons-/-Black-/-Inactive" mask="url(#mask-2)" fill="#000000" fill-opacity="0.54">
            <rect id="Rectangle" x="0" y="0" width="24" height="24"></rect>
        </g>
    </g>
</svg>