<?xml version="1.0" encoding="UTF-8"?>
<svg width="24px" height="24px" viewBox="0 0 24 24" version="1.1" xmlns="http://www.w3.org/2000/svg" xmlns:xlink="http://www.w3.org/1999/xlink">
    <!-- Generator: Sketch 50 (54983) - http://www.bohemiancoding.com/sketch -->
    <title>icon/action/find_replace_24px_rounded</title>
    <desc>Created with Sketch.</desc>
    <defs>
        <path d="M10.47625,5.47125 C11.85625,5.47125 13.10625,6.03125 14.01625,6.93125 L12.32625,8.62125 C12.01625,8.93125 12.23625,9.47125 12.68625,9.47125 L16.97625,9.47125 C17.25625,9.47125 17.47625,9.25125 17.47625,8.97125 L17.47625,4.68125 C17.47625,4.23125 16.93625,4.01125 16.62625,4.33125 L15.42625,5.53125 C14.15625,4.25125 12.40625,3.47125 10.47625,3.47125 C7.43625,3.47125 4.85625,5.41125 3.89625,8.11125 C3.65625,8.77125 4.12625,9.47125 4.82625,9.47125 C5.24625,9.47125 5.61625,9.21125 5.75625,8.81125 C6.43625,6.87125 8.29625,5.47125 10.47625,5.47125 Z M16.11625,14.61125 C16.51625,14.07125 16.83625,13.46125 17.06625,12.81125 C17.29625,12.16125 16.81625,11.47125 16.12625,11.47125 C15.70625,11.47125 15.33625,11.73125 15.19625,12.13125 C14.51625,14.07125 12.65625,15.47125 10.47625,15.47125 C9.09625,15.47125 7.84625,14.91125 6.93625,14.01125 L8.62625,12.32125 C8.93625,12.01125 8.71625,11.47125 8.26625,11.47125 L3.97625,11.47125 C3.69625,11.47125 3.47625,11.69125 3.47625,11.97125 L3.47625,16.26125 C3.47625,16.71125 4.01625,16.93125 4.32625,16.61125 L5.52625,15.41125 C6.79625,16.69125 8.54625,17.47125 10.47625,17.47125 C12.02625,17.47125 13.45625,16.96125 14.61625,16.11125 L18.72625,20.22125 C19.13625,20.63125 19.80625,20.63125 20.21625,20.22125 C20.62625,19.81125 20.62625,19.14125 20.21625,18.73125 L16.11625,14.61125 Z" id="path-1"></path>
    </defs>
    <g id="icon/action/find_replace_24px" stroke="none" stroke-width="1" fill="none" fill-rule="evenodd">
        <mask id="mask-2" fill="white">
            <use xlink:href="#path-1"></use>
        </mask>
        <g fill-rule="nonzero"></g>
        <g id="✱-/-Color-/-Icons-/-Black-/-Inactive" mask="url(#mask-2)" fill="#000000" fill-opacity="0.54">
            <rect id="Rectangle" x="0" y="0" width="24" height="24"></rect>
        </g>
    </g>
</svg>