<?xml version="1.0" encoding="UTF-8"?>
<svg width="24px" height="24px" viewBox="0 0 24 24" version="1.1" xmlns="http://www.w3.org/2000/svg" xmlns:xlink="http://www.w3.org/1999/xlink">
    <!-- Generator: Sketch 50 (54983) - http://www.bohemiancoding.com/sketch -->
    <title>icon/action/flight_takeoff_24px_rounded</title>
    <desc>Created with Sketch.</desc>
    <defs>
        <path d="M20.3857604,18.654923 L3.38576044,18.654923 C2.83576044,18.654923 2.38576044,19.104923 2.38576044,19.654923 C2.38576044,20.204923 2.83576044,20.654923 3.38576044,20.654923 L20.3857604,20.654923 C20.9357604,20.654923 21.3857604,20.204923 21.3857604,19.654923 C21.3857604,19.104923 20.9357604,18.654923 20.3857604,18.654923 Z M21.9557604,9.29492298 C21.7357604,8.49492298 20.9157604,8.02492298 20.1157604,8.23492298 L14.8057604,9.65492298 L8.34576044,3.63492298 C8.07576044,3.37492298 7.68576044,3.28492298 7.32576044,3.38492298 C6.64576044,3.57492298 6.32576044,4.35492298 6.67576044,4.96492298 L10.1157604,10.924923 L5.14576044,12.254923 L3.57576044,11.014923 C3.32576044,10.824923 3.00576044,10.754923 2.69576044,10.834923 L2.36576044,10.924923 C2.04576044,11.004923 1.89576044,11.374923 2.06576044,11.654923 L3.94576044,14.904923 C4.17576044,15.294923 4.63576044,15.484923 5.06576044,15.374923 L20.8857604,11.134923 C21.6857604,10.914923 22.1657604,10.094923 21.9557604,9.29492298 Z" id="path-1"></path>
    </defs>
    <g id="icon/action/flight_takeoff_24px" stroke="none" stroke-width="1" fill="none" fill-rule="evenodd">
        <mask id="mask-2" fill="white">
            <use xlink:href="#path-1"></use>
        </mask>
        <g fill-rule="nonzero"></g>
        <g id="✱-/-Color-/-Icons-/-Black-/-Inactive" mask="url(#mask-2)" fill="#000000" fill-opacity="0.54">
            <rect id="Rectangle" x="0" y="0" width="24" height="24"></rect>
        </g>
    </g>
</svg>