<?xml version="1.0" encoding="UTF-8"?>
<svg width="24px" height="24px" viewBox="0 0 24 24" version="1.1" xmlns="http://www.w3.org/2000/svg" xmlns:xlink="http://www.w3.org/1999/xlink">
    <!-- Generator: Sketch 50 (54983) - http://www.bohemiancoding.com/sketch -->
    <title>icon/action/gavel_24px_rounded</title>
    <desc>Created with Sketch.</desc>
    <defs>
        <path d="M2.8075,20.586878 L12.8075,20.586878 C13.3575,20.586878 13.8075,21.036878 13.8075,21.586878 C13.8075,22.136878 13.3575,22.586878 12.8075,22.586878 L2.8075,22.586878 C2.2575,22.586878 1.8075,22.136878 1.8075,21.586878 C1.8075,21.036878 2.2575,20.586878 2.8075,20.586878 Z M6.0475,7.65687799 L8.8775,4.82687799 L21.6075,17.556878 C22.3875,18.336878 22.3875,19.606878 21.6075,20.386878 C20.8275,21.166878 19.5575,21.166878 18.7775,20.386878 L6.0475,7.65687799 Z M14.5375,1.99687799 L17.3675,4.82687799 C18.1475,5.60687799 18.1475,6.87687799 17.3675,7.65687799 L15.9475,9.07687799 L10.2975,3.41687799 L11.7075,2.00687799 C12.4875,1.21687799 13.7575,1.21687799 14.5375,1.99687799 Z M4.6375,9.06687799 L10.2975,14.726878 L8.8875,16.136878 C8.1075,16.916878 6.8375,16.916878 6.0575,16.136878 L3.2275,13.306878 C2.4475,12.526878 2.4475,11.256878 3.2275,10.476878 L4.6375,9.06687799 Z" id="path-1"></path>
    </defs>
    <g id="icon/action/gavel_24px" stroke="none" stroke-width="1" fill="none" fill-rule="evenodd">
        <mask id="mask-2" fill="white">
            <use xlink:href="#path-1"></use>
        </mask>
        <g fill-rule="nonzero"></g>
        <g id="✱-/-Color-/-Icons-/-Black-/-Inactive" mask="url(#mask-2)" fill="#000000" fill-opacity="0.54">
            <rect id="Rectangle" x="0" y="0" width="24" height="24"></rect>
        </g>
    </g>
</svg>