<?xml version="1.0" encoding="UTF-8"?>
<svg width="24px" height="24px" viewBox="0 0 24 24" version="1.1" xmlns="http://www.w3.org/2000/svg" xmlns:xlink="http://www.w3.org/1999/xlink">
    <!-- Generator: Sketch 50 (54983) - http://www.bohemiancoding.com/sketch -->
    <title>icon/action/gif_24px_rounded</title>
    <desc>Created with Sketch.</desc>
    <defs>
        <path d="M12.25,9 C12.66,9 13,9.34 13,9.75 L13,14.25 C13,14.66 12.66,15 12.25,15 C11.84,15 11.5,14.66 11.5,14.25 L11.5,9.75 C11.5,9.34 11.84,9 12.25,9 Z M10,9.75 C10,9.34 9.66,9 9.25,9 L6,9 C5.4,9 5,9.5 5,10 L5,14 C5,14.5 5.4,15 6,15 L9,15 C9.6,15 10,14.5 10,14 L10,12.75 C10,12.34 9.66,12 9.25,12 C8.84,12 8.5,12.34 8.5,12.75 L8.5,13.5 L6.5,13.5 L6.5,10.5 L9.25,10.5 C9.66,10.5 10,10.16 10,9.75 Z M19,9.75 C19,9.34 18.66,9 18.25,9 L15.5,9 C14.95,9 14.5,9.45 14.5,10 L14.5,14.25 C14.5,14.66 14.84,15 15.25,15 C15.66,15 16,14.66 16,14.25 L16,13 L17.25,13 C17.66,13 18,12.66 18,12.25 C18,11.84 17.66,11.5 17.25,11.5 L16,11.5 L16,10.5 L18.25,10.5 C18.66,10.5 19,10.16 19,9.75 Z" id="path-1"></path>
    </defs>
    <g id="icon/action/gif_24px" stroke="none" stroke-width="1" fill="none" fill-rule="evenodd">
        <mask id="mask-2" fill="white">
            <use xlink:href="#path-1"></use>
        </mask>
        <g fill-rule="nonzero"></g>
        <g id="✱-/-Color-/-Icons-/-Black-/-Inactive" mask="url(#mask-2)" fill="#000000" fill-opacity="0.54">
            <rect id="Rectangle" x="0" y="0" width="24" height="24"></rect>
        </g>
    </g>
</svg>