<?xml version="1.0" encoding="UTF-8"?>
<svg width="24px" height="24px" viewBox="0 0 24 24" version="1.1" xmlns="http://www.w3.org/2000/svg" xmlns:xlink="http://www.w3.org/1999/xlink">
    <!-- Generator: Sketch 50 (54983) - http://www.bohemiancoding.com/sketch -->
    <title>icon/action/history_24px_rounded</title>
    <desc>Created with Sketch.</desc>
    <defs>
        <path d="M13.4040221,3.00174507 C8.31402214,2.86174507 4.14402214,6.95174507 4.14402214,12.0017451 L2.35402214,12.0017451 C1.90402214,12.0017451 1.68402214,12.5417451 2.00402214,12.8517451 L4.79402214,15.6517451 C4.99402214,15.8517451 5.30402214,15.8517451 5.50402214,15.6517451 L8.29402214,12.8517451 C8.60402214,12.5417451 8.38402214,12.0017451 7.93402214,12.0017451 L6.14402214,12.0017451 C6.14402214,8.10174507 9.32402214,4.95174507 13.2440221,5.00174507 C16.9640221,5.05174507 20.0940221,8.18174507 20.1440221,11.9017451 C20.1940221,15.8117451 17.0440221,19.0017451 13.1440221,19.0017451 C11.5340221,19.0017451 10.0440221,18.4517451 8.86402214,17.5217451 C8.46402214,17.2117451 7.90402214,17.2417451 7.54402214,17.6017451 C7.12402214,18.0217451 7.15402214,18.7317451 7.62402214,19.0917451 C9.14402214,20.2917451 11.0540221,21.0017451 13.1440221,21.0017451 C18.1940221,21.0017451 22.2840221,16.8317451 22.1440221,11.7417451 C22.0140221,7.05174507 18.0940221,3.13174507 13.4040221,3.00174507 Z M12.8940221,8.00174507 C12.4840221,8.00174507 12.1440221,8.34174507 12.1440221,8.75174507 L12.1440221,12.4317451 C12.1440221,12.7817451 12.3340221,13.1117451 12.6340221,13.2917451 L15.7540221,15.1417451 C16.1140221,15.3517451 16.5740221,15.2317451 16.7840221,14.8817451 C16.9940221,14.5217451 16.8740221,14.0617451 16.5240221,13.8517451 L13.6440221,12.1417451 L13.6440221,8.74174507 C13.6440221,8.34174507 13.3040221,8.00174507 12.8940221,8.00174507 Z" id="path-1"></path>
    </defs>
    <g id="icon/action/history_24px" stroke="none" stroke-width="1" fill="none" fill-rule="evenodd">
        <mask id="mask-2" fill="white">
            <use xlink:href="#path-1"></use>
        </mask>
        <g fill-rule="nonzero"></g>
        <g id="✱-/-Color-/-Icons-/-Black-/-Inactive" mask="url(#mask-2)" fill="#000000" fill-opacity="0.54">
            <rect id="Rectangle" x="0" y="0" width="24" height="24"></rect>
        </g>
    </g>
</svg>