<?xml version="1.0" encoding="UTF-8"?>
<svg width="24px" height="24px" viewBox="0 0 24 24" version="1.1" xmlns="http://www.w3.org/2000/svg" xmlns:xlink="http://www.w3.org/1999/xlink">
    <!-- Generator: Sketch 50 (54983) - http://www.bohemiancoding.com/sketch -->
    <title>icon/action/hourglass_full_24px_rounded</title>
    <desc>Created with Sketch.</desc>
    <defs>
        <path d="M6,4 L6,7.17 C6,7.7 6.21,8.21 6.59,8.59 L10,12 L6.58,15.42 C6.21,15.8 6,16.31 6,16.84 L6,20 C6,21.1 6.9,22 8,22 L16,22 C17.1,22 18,21.1 18,20 L18,16.84 C18,16.31 17.79,15.8 17.42,15.43 L14,12 L17.41,8.6 C17.79,8.22 18,7.71 18,7.18 L18,4 C18,2.9 17.1,2 16,2 L8,2 C6.9,2 6,2.9 6,4 Z" id="path-1"></path>
    </defs>
    <g id="icon/action/hourglass_full_24px" stroke="none" stroke-width="1" fill="none" fill-rule="evenodd">
        <mask id="mask-2" fill="white">
            <use xlink:href="#path-1"></use>
        </mask>
        <g fill-rule="nonzero"></g>
        <g id="✱-/-Color-/-Icons-/-Black-/-Inactive" mask="url(#mask-2)" fill="#000000" fill-opacity="0.54">
            <rect id="Rectangle" x="0" y="0" width="24" height="24"></rect>
        </g>
    </g>
</svg>