<?xml version="1.0" encoding="UTF-8"?>
<svg width="24px" height="24px" viewBox="0 0 24 24" version="1.1" xmlns="http://www.w3.org/2000/svg" xmlns:xlink="http://www.w3.org/1999/xlink">
    <!-- Generator: Sketch 50 (54983) - http://www.bohemiancoding.com/sketch -->
    <title>icon/action/http_24px_rounded</title>
    <desc>Created with Sketch.</desc>
    <defs>
        <path d="M4.5,11 L2.5,11 L2.5,9.75 C2.5,9.34 2.16,9 1.75,9 C1.34,9 1,9.34 1,9.75 L1,14.25 C1,14.66 1.34,15 1.75,15 C2.16,15 2.5,14.66 2.5,14.25 L2.5,12.5 L4.5,12.5 L4.5,14.25 C4.5,14.66 4.84,15 5.25,15 C5.66,15 6,14.66 6,14.25 L6,9.75 C6,9.34 5.66,9 5.25,9 C4.84,9 4.5,9.34 4.5,9.75 L4.5,11 Z M7.75,10.5 L8.5,10.5 L8.5,14.25 C8.5,14.66 8.84,15 9.25,15 C9.66,15 10,14.66 10,14.25 L10,10.5 L10.75,10.5 C11.16,10.5 11.5,10.16 11.5,9.75 C11.5,9.34 11.16,9 10.75,9 L7.75,9 C7.34,9 7,9.34 7,9.75 C7,10.16 7.34,10.5 7.75,10.5 Z M13.25,10.5 L14,10.5 L14,14.25 C14,14.66 14.34,15 14.75,15 C15.16,15 15.5,14.66 15.5,14.25 L15.5,10.5 L16.25,10.5 C16.66,10.5 17,10.16 17,9.75 C17,9.34 16.66,9 16.25,9 L13.25,9 C12.84,9 12.5,9.34 12.5,9.75 C12.5,10.16 12.84,10.5 13.25,10.5 Z M21.5,9 L19,9 C18.45,9 18,9.45 18,10 L18,14.25 C18,14.66 18.34,15 18.75,15 C19.16,15 19.5,14.66 19.5,14.25 L19.5,13 L21.5,13 C22.33,13 23,12.32 23,11.5 L23,10.5 C23,9.68 22.33,9 21.5,9 Z M21.5,11.5 L19.5,11.5 L19.5,10.5 L21.5,10.5 L21.5,11.5 Z" id="path-1"></path>
    </defs>
    <g id="icon/action/http_24px" stroke="none" stroke-width="1" fill="none" fill-rule="evenodd">
        <mask id="mask-2" fill="white">
            <use xlink:href="#path-1"></use>
        </mask>
        <g fill-rule="nonzero"></g>
        <g id="✱-/-Color-/-Icons-/-Black-/-Inactive" mask="url(#mask-2)" fill="#000000" fill-opacity="0.54">
            <rect id="Rectangle" x="0" y="0" width="24" height="24"></rect>
        </g>
    </g>
</svg>