<?xml version="1.0" encoding="UTF-8"?>
<svg width="24px" height="24px" viewBox="0 0 24 24" version="1.1" xmlns="http://www.w3.org/2000/svg" xmlns:xlink="http://www.w3.org/1999/xlink">
    <!-- Generator: Sketch 50 (54983) - http://www.bohemiancoding.com/sketch -->
    <title>icon/action/input_24px_rounded</title>
    <desc>Created with Sketch.</desc>
    <defs>
        <path d="M21,3.01 L3,3.01 C1.9,3.01 1,3.91 1,5.01 L1,8 C1,8.55 1.45,9 2,9 C2.55,9 3,8.55 3,8 L3,5.99 C3,5.44 3.45,4.99 4,4.99 L20,4.99 C20.55,4.99 21,5.44 21,5.99 L21,18.02 C21,18.57 20.55,19.02 20,19.02 L4,19.02 C3.45,19.02 3,18.57 3,18.02 L3,16 C3,15.45 2.55,15 2,15 C1.45,15 1,15.45 1,16 L1,19.01 C1,20.1 1.89,20.99 2.98,20.99 L21,20.99 C22.1,20.99 23,20.09 23,18.99 L23,5.01 C23,3.91 22.1,3.01 21,3.01 Z M11.85,15.15 L14.64,12.36 C14.84,12.16 14.84,11.85 14.64,11.65 L11.85,8.86 C11.54,8.54 11,8.76 11,9.21 L11,11 L2,11 C1.45,11 1,11.45 1,12 C1,12.55 1.45,13 2,13 L11,13 L11,14.79 C11,15.24 11.54,15.46 11.85,15.15 Z" id="path-1"></path>
    </defs>
    <g id="icon/action/input_24px" stroke="none" stroke-width="1" fill="none" fill-rule="evenodd">
        <mask id="mask-2" fill="white">
            <use xlink:href="#path-1"></use>
        </mask>
        <g fill-rule="nonzero"></g>
        <g id="✱-/-Color-/-Icons-/-Black-/-Inactive" mask="url(#mask-2)" fill="#000000" fill-opacity="0.54">
            <rect id="Rectangle" x="0" y="0" width="24" height="24"></rect>
        </g>
    </g>
</svg>