<?xml version="1.0" encoding="UTF-8"?>
<svg width="24px" height="24px" viewBox="0 0 24 24" version="1.1" xmlns="http://www.w3.org/2000/svg" xmlns:xlink="http://www.w3.org/1999/xlink">
    <!-- Generator: Sketch 50 (54983) - http://www.bohemiancoding.com/sketch -->
    <title>icon/action/invert_colors_24px_rounded</title>
    <desc>Created with Sketch.</desc>
    <defs>
        <path d="M6.34,7.7962428 C3.22,10.9162428 3.22,15.9862428 6.34,19.1062428 C7.9,20.6662428 9.95,21.4462428 12,21.4462428 C14.05,21.4462428 16.1,20.6662428 17.66,19.1062428 C20.78,15.9862428 20.78,10.9162428 17.66,7.7962428 L12.71,2.8462428 C12.5231685,2.65899013 12.2695176,2.5537572 12.005,2.5537572 C11.7404824,2.5537572 11.4868315,2.65899013 11.3,2.8462428 L6.34,7.7962428 Z M12,19.4562428 C10.4,19.4562428 8.89,18.8362428 7.76,17.6962428 C6.62,16.5562428 6,15.0562428 6,13.4562428 C6,11.8562428 6.62,10.3462428 7.76,9.2162428 L12,4.9662428 L12,19.4562428 Z" id="path-1"></path>
    </defs>
    <g id="icon/action/invert_colors_24px" stroke="none" stroke-width="1" fill="none" fill-rule="evenodd">
        <mask id="mask-2" fill="white">
            <use xlink:href="#path-1"></use>
        </mask>
        <g fill-rule="nonzero"></g>
        <g id="✱-/-Color-/-Icons-/-Black-/-Inactive" mask="url(#mask-2)" fill="#000000" fill-opacity="0.54">
            <rect id="Rectangle" x="0" y="0" width="24" height="24"></rect>
        </g>
    </g>
</svg>