<?xml version="1.0" encoding="UTF-8"?>
<svg width="24px" height="24px" viewBox="0 0 24 24" version="1.1" xmlns="http://www.w3.org/2000/svg" xmlns:xlink="http://www.w3.org/1999/xlink">
    <!-- Generator: Sketch 50 (54983) - http://www.bohemiancoding.com/sketch -->
    <title>icon/action/line_weight_24px_rounded</title>
    <desc>Created with Sketch.</desc>
    <defs>
        <path d="M20,15 L4,15 C3.45,15 3,15.45 3,16 C3,16.55 3.45,17 4,17 L20,17 C20.55,17 21,16.55 21,16 C21,15.45 20.55,15 20,15 Z M20,10 L4,10 C3.45,10 3,10.45 3,11 L3,12 C3,12.55 3.45,13 4,13 L20,13 C20.55,13 21,12.55 21,12 L21,11 C21,10.45 20.55,10 20,10 Z M20,4 L4,4 C3.45,4 3,4.45 3,5 L3,7 C3,7.55 3.45,8 4,8 L20,8 C20.55,8 21,7.55 21,7 L21,5 C21,4.45 20.55,4 20,4 Z M20.5,19 L3.5,19 C3.22,19 3,19.22 3,19.5 C3,19.78 3.22,20 3.5,20 L20.5,20 C20.78,20 21,19.78 21,19.5 C21,19.22 20.78,19 20.5,19 Z" id="path-1"></path>
    </defs>
    <g id="icon/action/line_weight_24px" stroke="none" stroke-width="1" fill="none" fill-rule="evenodd">
        <mask id="mask-2" fill="white">
            <use xlink:href="#path-1"></use>
        </mask>
        <g fill-rule="nonzero"></g>
        <g id="✱-/-Color-/-Icons-/-Black-/-Inactive" mask="url(#mask-2)" fill="#000000" fill-opacity="0.54">
            <rect id="Rectangle" x="0" y="0" width="24" height="24"></rect>
        </g>
    </g>
</svg>