<?xml version="1.0" encoding="UTF-8"?>
<svg width="24px" height="24px" viewBox="0 0 24 24" version="1.1" xmlns="http://www.w3.org/2000/svg" xmlns:xlink="http://www.w3.org/1999/xlink">
    <!-- Generator: Sketch 50 (54983) - http://www.bohemiancoding.com/sketch -->
    <title>icon/action/markunread_mailbox_24px_rounded</title>
    <desc>Created with Sketch.</desc>
    <defs>
        <path d="M20,7 L10,7 L10,12 C10,12.55 9.55,13 9,13 C8.45,13 8,12.55 8,12 L8,5 L13,5 C13.55,5 14,4.55 14,4 L14,2 C14,1.45 13.55,1 13,1 L7,1 C6.45,1 6,1.45 6,2 L6,7 L4,7 C2.9,7 2,7.9 2,9 L2,21 C2,22.1 2.9,23 4,23 L20,23 C21.1,23 22,22.1 22,21 L22,9 C22,7.9 21.1,7 20,7 Z" id="path-1"></path>
    </defs>
    <g id="icon/action/markunread_mailbox_24px" stroke="none" stroke-width="1" fill="none" fill-rule="evenodd">
        <mask id="mask-2" fill="white">
            <use xlink:href="#path-1"></use>
        </mask>
        <g fill-rule="nonzero"></g>
        <g id="✱-/-Color-/-Icons-/-Black-/-Inactive" mask="url(#mask-2)" fill="#000000" fill-opacity="0.54">
            <rect id="Rectangle" x="0" y="0" width="24" height="24"></rect>
        </g>
    </g>
</svg>