<?xml version="1.0" encoding="UTF-8"?>
<svg width="24px" height="24px" viewBox="0 0 24 24" version="1.1" xmlns="http://www.w3.org/2000/svg" xmlns:xlink="http://www.w3.org/1999/xlink">
    <!-- Generator: Sketch 50 (54983) - http://www.bohemiancoding.com/sketch -->
    <title>icon/action/offline_pin_24px_rounded</title>
    <desc>Created with Sketch.</desc>
    <defs>
        <path d="M12,2 C6.5,2 2,6.5 2,12 C2,17.5 6.5,22 12,22 C17.5,22 22,17.5 22,12 C22,6.5 17.5,2 12,2 Z M16,18 L8,18 C7.45,18 7,17.55 7,17 C7,16.45 7.45,16 8,16 L16,16 C16.55,16 17,16.45 17,17 C17,17.55 16.55,18 16,18 Z M9.59,13.29 L7.7,11.4 C7.51285196,11.2151463 7.40751826,10.9630499 7.40751826,10.7 C7.40751826,10.4369501 7.51285196,10.1848537 7.7,10 C8.09,9.61 8.71,9.61 9.1,10 L10.3,11.2 L14.9,6.6 C15.29,6.21 15.91,6.21 16.3,6.6 C16.69,6.99 16.69,7.61 16.3,8 L11.01,13.29 C10.62,13.68 9.98,13.68 9.59,13.29 Z" id="path-1"></path>
    </defs>
    <g id="icon/action/offline_pin_24px" stroke="none" stroke-width="1" fill="none" fill-rule="evenodd">
        <mask id="mask-2" fill="white">
            <use xlink:href="#path-1"></use>
        </mask>
        <g fill-rule="nonzero"></g>
        <g id="✱-/-Color-/-Icons-/-Black-/-Inactive" mask="url(#mask-2)" fill="#000000" fill-opacity="0.54">
            <rect id="Rectangle" x="0" y="0" width="24" height="24"></rect>
        </g>
    </g>
</svg>