<?xml version="1.0" encoding="UTF-8"?>
<svg width="24px" height="24px" viewBox="0 0 24 24" version="1.1" xmlns="http://www.w3.org/2000/svg" xmlns:xlink="http://www.w3.org/1999/xlink">
    <!-- Generator: Sketch 50 (54983) - http://www.bohemiancoding.com/sketch -->
    <title>icon/action/open_in_browser_24px_rounded</title>
    <desc>Created with Sketch.</desc>
    <defs>
        <path d="M19,4 L5,4 C3.89,4 3,4.9 3,6 L3,18 C3,19.1 3.9,20 5,20 L8,20 C8.55,20 9,19.55 9,19 C9,18.45 8.55,18 8,18 L5,18 L5,8 L19,8 L19,18 L16,18 C15.45,18 15,18.45 15,19 C15,19.55 15.45,20 16,20 L19,20 C20.1,20 21,19.1 21,18 L21,6 C21,4.9 20.11,4 19,4 Z M11.65,10.35 L8.86,13.14 C8.54,13.46 8.76,14 9.21,14 L11,14 L11,19 C11,19.55 11.45,20 12,20 C12.55,20 13,19.55 13,19 L13,14 L14.79,14 C15.24,14 15.46,13.46 15.14,13.15 L12.35,10.36 C12.16,10.16 11.84,10.16 11.65,10.35 Z" id="path-1"></path>
    </defs>
    <g id="icon/action/open_in_browser_24px" stroke="none" stroke-width="1" fill="none" fill-rule="evenodd">
        <mask id="mask-2" fill="white">
            <use xlink:href="#path-1"></use>
        </mask>
        <g fill-rule="nonzero"></g>
        <g id="✱-/-Color-/-Icons-/-Black-/-Inactive" mask="url(#mask-2)" fill="#000000" fill-opacity="0.54">
            <rect id="Rectangle" x="0" y="0" width="24" height="24"></rect>
        </g>
    </g>
</svg>