<?xml version="1.0" encoding="UTF-8"?>
<svg width="24px" height="24px" viewBox="0 0 24 24" version="1.1" xmlns="http://www.w3.org/2000/svg" xmlns:xlink="http://www.w3.org/1999/xlink">
    <!-- Generator: Sketch 50 (54983) - http://www.bohemiancoding.com/sketch -->
    <title>icon/action/open_with_24px_rounded</title>
    <desc>Created with Sketch.</desc>
    <defs>
        <path d="M10.499363,9 L13.499363,9 C13.779363,9 13.999363,8.78 13.999363,8.5 L13.999363,6 L15.789363,6 C16.239363,6 16.459363,5.46 16.139363,5.15 L12.349363,1.36 C12.149363,1.16 11.839363,1.16 11.639363,1.36 L7.84936298,5.15 C7.53936298,5.46 7.75936298,6 8.20936298,6 L9.99936298,6 L9.99936298,8.5 C9.99936298,8.78 10.219363,9 10.499363,9 Z M8.49936298,10 L5.99936298,10 L5.99936298,8.21 C5.99936298,7.76 5.45936298,7.54 5.14936298,7.86 L1.35936298,11.65 C1.15936298,11.85 1.15936298,12.16 1.35936298,12.36 L5.14936298,16.15 C5.45936298,16.46 5.99936298,16.24 5.99936298,15.79 L5.99936298,14 L8.49936298,14 C8.77936298,14 8.99936298,13.78 8.99936298,13.5 L8.99936298,10.5 C8.99936298,10.22 8.77936298,10 8.49936298,10 Z M22.649363,11.65 L18.859363,7.86 C18.539363,7.54 17.999363,7.76 17.999363,8.21 L17.999363,10 L15.499363,10 C15.219363,10 14.999363,10.22 14.999363,10.5 L14.999363,13.5 C14.999363,13.78 15.219363,14 15.499363,14 L17.999363,14 L17.999363,15.79 C17.999363,16.24 18.539363,16.46 18.849363,16.14 L22.639363,12.35 C22.839363,12.16 22.839363,11.84 22.649363,11.65 Z M13.499363,15 L10.499363,15 C10.219363,15 9.99936298,15.22 9.99936298,15.5 L9.99936298,18 L8.20936298,18 C7.75936298,18 7.53936298,18.54 7.85936298,18.85 L11.649363,22.64 C11.849363,22.84 12.159363,22.84 12.359363,22.64 L16.149363,18.85 C16.459363,18.54 16.239363,18 15.799363,18 L13.999363,18 L13.999363,15.5 C13.999363,15.22 13.779363,15 13.499363,15 Z" id="path-1"></path>
    </defs>
    <g id="icon/action/open_with_24px" stroke="none" stroke-width="1" fill="none" fill-rule="evenodd">
        <mask id="mask-2" fill="white">
            <use xlink:href="#path-1"></use>
        </mask>
        <g fill-rule="nonzero"></g>
        <g id="✱-/-Color-/-Icons-/-Black-/-Inactive" mask="url(#mask-2)" fill="#000000" fill-opacity="0.54">
            <rect id="Rectangle" x="0" y="0" width="24" height="24"></rect>
        </g>
    </g>
</svg>