<?xml version="1.0" encoding="UTF-8"?>
<svg width="24px" height="24px" viewBox="0 0 24 24" version="1.1" xmlns="http://www.w3.org/2000/svg" xmlns:xlink="http://www.w3.org/1999/xlink">
    <!-- Generator: Sketch 50 (54983) - http://www.bohemiancoding.com/sketch -->
    <title>icon/action/pageview_24px_rounded</title>
    <desc>Created with Sketch.</desc>
    <defs>
        <path d="M11.5,9 C10.12,9 9,10.12 9,11.5 C9,12.88 10.12,14 11.5,14 C12.88,14 14,12.88 14,11.5 C14,10.12 12.88,9 11.5,9 Z M20,4 L4,4 C2.9,4 2,4.9 2,6 L2,18 C2,19.1 2.9,20 4,20 L20,20 C21.1,20 22,19.1 22,18 L22,6 C22,4.9 21.1,4 20,4 Z M16.08,17.5 L13.88,15.3 C12.98,15.88 11.85,16.14 10.66,15.92 C8.78,15.57 7.28,13.99 7.04,12.09 C6.66,9.08 9.22,6.57 12.25,7.05 C14.13,7.35 15.64,8.89 15.95,10.76 C16.14,11.92 15.87,12.99 15.31,13.88 L17.51,16.07 C17.9,16.46 17.9,17.1 17.51,17.49 C17.11,17.89 16.47,17.89 16.08,17.5 Z" id="path-1"></path>
    </defs>
    <g id="icon/action/pageview_24px" stroke="none" stroke-width="1" fill="none" fill-rule="evenodd">
        <mask id="mask-2" fill="white">
            <use xlink:href="#path-1"></use>
        </mask>
        <g fill-rule="nonzero"></g>
        <g id="✱-/-Color-/-Icons-/-Black-/-Inactive" mask="url(#mask-2)" fill="#000000" fill-opacity="0.54">
            <rect id="Rectangle" x="0" y="0" width="24" height="24"></rect>
        </g>
    </g>
</svg>