<?xml version="1.0" encoding="UTF-8"?>
<svg width="24px" height="24px" viewBox="0 0 24 24" version="1.1" xmlns="http://www.w3.org/2000/svg" xmlns:xlink="http://www.w3.org/1999/xlink">
    <!-- Generator: Sketch 50 (54983) - http://www.bohemiancoding.com/sketch -->
    <title>icon/action/pan_tool_24px_rounded</title>
    <desc>Created with Sketch.</desc>
    <defs>
        <path d="M21.1807235,4 C20.3507235,4 19.6807235,4.67 19.6807235,5.5 L19.6807235,10.5 C19.6807235,10.78 19.4607235,11 19.1807235,11 C18.9007235,11 18.6807235,10.78 18.6807235,10.5 L18.6807235,2.5 C18.6807235,1.67 18.0107235,1 17.1807235,1 C16.3507235,1 15.6807235,1.67 15.6807235,2.5 L15.6807235,10.5 C15.6807235,10.78 15.4607235,11 15.1807235,11 C14.9007235,11 14.6807235,10.78 14.6807235,10.5 L14.6807235,1.5 C14.6807235,0.67 14.0107235,0 13.1807235,0 C12.3507235,0 11.6807235,0.67 11.6807235,1.5 L11.6807235,10.49 C11.6807235,10.77 11.4607235,10.99 11.1807235,10.99 C10.9007235,10.99 10.6807235,10.77 10.6807235,10.49 L10.6807235,4.5 C10.6807235,3.67 10.0107235,3 9.18072346,3 C8.35072346,3 7.68072346,3.67 7.68072346,4.5 L7.68072346,15.91 L3.56072346,13.56 C2.98072346,13.23 2.26072346,13.32 1.78072346,13.78 C1.18072346,14.36 1.16072346,15.32 1.75072346,15.91 L8.53072346,22.8 C9.28072346,23.57 10.3007235,24 11.3807235,24 L18.6807235,24 C20.8907235,24 22.6807235,22.21 22.6807235,20 L22.6807235,5.5 C22.6807235,4.67 22.0107235,4 21.1807235,4 Z" id="path-1"></path>
    </defs>
    <g id="icon/action/pan_tool_24px" stroke="none" stroke-width="1" fill="none" fill-rule="evenodd">
        <mask id="mask-2" fill="white">
            <use xlink:href="#path-1"></use>
        </mask>
        <g fill-rule="nonzero"></g>
        <g id="✱-/-Color-/-Icons-/-Black-/-Inactive" mask="url(#mask-2)" fill="#000000" fill-opacity="0.54">
            <rect id="Rectangle" x="0" y="0" width="24" height="24"></rect>
        </g>
    </g>
</svg>