<?xml version="1.0" encoding="UTF-8"?>
<svg width="24px" height="24px" viewBox="0 0 24 24" version="1.1" xmlns="http://www.w3.org/2000/svg" xmlns:xlink="http://www.w3.org/1999/xlink">
    <!-- Generator: Sketch 50 (54983) - http://www.bohemiancoding.com/sketch -->
    <title>icon/action/perm_camera_mic_24px_rounded</title>
    <desc>Created with Sketch.</desc>
    <defs>
        <path d="M20.0049587,5 L16.8349587,5 L15.5949587,3.65 C15.2249587,3.24 14.6849587,3 14.1249587,3 L9.88495873,3 C9.32495873,3 8.78495873,3.24 8.40495873,3.65 L7.17495873,5 L4.00495873,5 C2.90495873,5 2.00495873,5.9 2.00495873,7 L2.00495873,19 C2.00495873,20.1 2.90495873,21 4.00495873,21 L11.0049587,21 L11.0049587,18.91 C8.55495873,18.49 6.59495873,16.59 6.11495873,14.16 C5.99495873,13.55 6.49495873,13 7.10495873,13 C7.59495873,13 7.98495873,13.35 8.08495873,13.83 C8.47495873,15.64 10.0749587,17 12.0049587,17 C13.9349587,17 15.5349587,15.64 15.9149587,13.83 C16.0149587,13.35 16.4149587,13 16.8949587,13 C17.5049587,13 18.0049587,13.55 17.8849587,14.16 C17.4049587,16.59 15.4449587,18.5 12.9949587,18.91 L12.9949587,21 L19.9949587,21 C21.0949587,21 21.9949587,20.1 21.9949587,19 L21.9949587,7 C22.0049587,5.9 21.1049587,5 20.0049587,5 Z M14.0049587,13 C14.0049587,14.1 13.1049587,15 12.0049587,15 C10.9049587,15 10.0049587,14.1 10.0049587,13 L10.0049587,9 C10.0049587,7.9 10.9049587,7 12.0049587,7 C13.1049587,7 14.0049587,7.9 14.0049587,9 L14.0049587,13 Z" id="path-1"></path>
    </defs>
    <g id="icon/action/perm_camera_mic_24px" stroke="none" stroke-width="1" fill="none" fill-rule="evenodd">
        <mask id="mask-2" fill="white">
            <use xlink:href="#path-1"></use>
        </mask>
        <g fill-rule="nonzero"></g>
        <g id="✱-/-Color-/-Icons-/-Black-/-Inactive" mask="url(#mask-2)" fill="#000000" fill-opacity="0.54">
            <rect id="Rectangle" x="0" y="0" width="24" height="24"></rect>
        </g>
    </g>
</svg>