<?xml version="1.0" encoding="UTF-8"?>
<svg width="24px" height="24px" viewBox="0 0 24 24" version="1.1" xmlns="http://www.w3.org/2000/svg" xmlns:xlink="http://www.w3.org/1999/xlink">
    <!-- Generator: Sketch 50 (54983) - http://www.bohemiancoding.com/sketch -->
    <title>icon/action/perm_data_setting_24px_rounded</title>
    <desc>Created with Sketch.</desc>
    <defs>
        <path d="M18.3526308,10.7920058 C18.6926308,10.7920058 19.0326308,10.8220058 19.3626308,10.8620058 L19.3626308,1.71200582 C19.3626308,0.822005821 18.2826308,0.372005821 17.6526308,1.00200582 L1.07263082,17.5820058 C0.442630818,18.2120058 0.882630818,19.2920058 1.77263082,19.2920058 L10.9226308,19.2920058 C10.8826308,18.9620058 10.8526308,18.6320058 10.8526308,18.2920058 C10.8526308,14.1520058 14.2126308,10.7920058 18.3526308,10.7920058 Z M22.0626308,18.7820058 C22.0826308,18.6220058 22.1026308,18.4620058 22.1026308,18.2920058 C22.1026308,18.1220058 22.0926308,17.9620058 22.0626308,17.8020058 L23.1226308,16.9720058 C23.2126308,16.8920058 23.2426308,16.7620058 23.1826308,16.6520058 L22.1826308,14.9220058 C22.1226308,14.8120058 21.9926308,14.7720058 21.8726308,14.8120058 L20.6326308,15.3120058 C20.3726308,15.1120058 20.0926308,14.9420058 19.7826308,14.8220058 L19.5926308,13.5020058 C19.5826308,13.3820058 19.4726308,13.2920058 19.3526308,13.2920058 L17.3526308,13.2920058 C17.2326308,13.2920058 17.1226308,13.3820058 17.1026308,13.5020058 L16.9126308,14.8220058 C16.6126308,14.9520058 16.3226308,15.1120058 16.0626308,15.3120058 L14.8226308,14.8120058 C14.7126308,14.7720058 14.5826308,14.8120058 14.5126308,14.9220058 L13.5126308,16.6520058 C13.4526308,16.7620058 13.4726308,16.8920058 13.5726308,16.9720058 L14.6326308,17.8020058 C14.6126308,17.9620058 14.6026308,18.1220058 14.6026308,18.2920058 C14.6026308,18.4620058 14.6126308,18.6220058 14.6326308,18.7820058 L13.5726308,19.6120058 C13.4826308,19.6920058 13.4526308,19.8220058 13.5126308,19.9320058 L14.5126308,21.6620058 C14.5726308,21.7720058 14.7026308,21.8120058 14.8226308,21.7720058 L16.0626308,21.2720058 C16.3226308,21.4720058 16.6026308,21.6420058 16.9126308,21.7620058 L17.1026308,23.0820058 C17.1226308,23.2020058 17.2226308,23.2920058 17.3526308,23.2920058 L19.3526308,23.2920058 C19.4726308,23.2920058 19.5826308,23.2020058 19.6026308,23.0820058 L19.7926308,21.7620058 C20.0926308,21.6320058 20.3826308,21.4720058 20.6326308,21.2720058 L21.8826308,21.7720058 C21.9926308,21.8120058 22.1226308,21.7720058 22.1926308,21.6620058 L23.1926308,19.9320058 C23.2526308,19.8220058 23.2226308,19.6920058 23.1326308,19.6120058 L22.0626308,18.7820058 Z M18.3526308,19.7920058 C17.5226308,19.7920058 16.8526308,19.1220058 16.8526308,18.2920058 C16.8526308,17.4620058 17.5226308,16.7920058 18.3526308,16.7920058 C19.1826308,16.7920058 19.8526308,17.4620058 19.8526308,18.2920058 C19.8526308,19.1220058 19.1826308,19.7920058 18.3526308,19.7920058 Z" id="path-1"></path>
    </defs>
    <g id="icon/action/perm_data_setting_24px" stroke="none" stroke-width="1" fill="none" fill-rule="evenodd">
        <mask id="mask-2" fill="white">
            <use xlink:href="#path-1"></use>
        </mask>
        <g fill-rule="nonzero"></g>
        <g id="✱-/-Color-/-Icons-/-Black-/-Inactive" mask="url(#mask-2)" fill="#000000" fill-opacity="0.54">
            <rect id="Rectangle" x="0" y="0" width="24" height="24"></rect>
        </g>
    </g>
</svg>