<?xml version="1.0" encoding="UTF-8"?>
<svg width="24px" height="24px" viewBox="0 0 24 24" version="1.1" xmlns="http://www.w3.org/2000/svg" xmlns:xlink="http://www.w3.org/1999/xlink">
    <!-- Generator: Sketch 50 (54983) - http://www.bohemiancoding.com/sketch -->
    <title>icon/action/perm_contact_calendar_24px_rounded</title>
    <desc>Created with Sketch.</desc>
    <defs>
        <path d="M19,4 L18,4 L18,3 C18,2.45 17.55,2 17,2 C16.45,2 16,2.45 16,3 L16,4 L8,4 L8,3 C8,2.45 7.55,2 7,2 C6.45,2 6,2.45 6,3 L6,4 L5,4 C3.89,4 3,4.9 3,6 L3,20 C3,21.1 3.9,22 5,22 L19,22 C20.1,22 21,21.1 21,20 L21,6 C21,4.9 20.1,4 19,4 Z M12,7 C13.66,7 15,8.34 15,10 C15,11.66 13.66,13 12,13 C10.34,13 9,11.66 9,10 C9,8.34 10.34,7 12,7 Z M18,19 L6,19 L6,18 C6,16 10,14.9 12,14.9 C14,14.9 18,16 18,18 L18,19 Z" id="path-1"></path>
    </defs>
    <g id="icon/action/perm_contact_calendar_24px" stroke="none" stroke-width="1" fill="none" fill-rule="evenodd">
        <mask id="mask-2" fill="white">
            <use xlink:href="#path-1"></use>
        </mask>
        <g fill-rule="nonzero"></g>
        <g id="✱-/-Color-/-Icons-/-Black-/-Inactive" mask="url(#mask-2)" fill="#000000" fill-opacity="0.54">
            <rect id="Rectangle" x="0" y="0" width="24" height="24"></rect>
        </g>
    </g>
</svg>