<?xml version="1.0" encoding="UTF-8"?>
<svg width="24px" height="24px" viewBox="0 0 24 24" version="1.1" xmlns="http://www.w3.org/2000/svg" xmlns:xlink="http://www.w3.org/1999/xlink">
    <!-- Generator: Sketch 50 (54983) - http://www.bohemiancoding.com/sketch -->
    <title>icon/action/picture_in_picture_alt_24px_rounded</title>
    <desc>Created with Sketch.</desc>
    <defs>
        <path d="M18,11 L12,11 C11.45,11 11,11.45 11,12 L11,16 C11,16.55 11.45,17 12,17 L18,17 C18.55,17 19,16.55 19,16 L19,12 C19,11.45 18.55,11 18,11 Z M23,19 L23,4.98 C23,3.88 22.1,3 21,3 L3,3 C1.9,3 1,3.88 1,4.98 L1,19 C1,20.1 1.9,21 3,21 L21,21 C22.1,21 23,20.1 23,19 Z M20,19.02 L4,19.02 C3.45,19.02 3,18.57 3,18.02 L3,5.97 C3,5.42 3.45,4.97 4,4.97 L20,4.97 C20.55,4.97 21,5.42 21,5.97 L21,18.02 C21,18.57 20.55,19.02 20,19.02 Z" id="path-1"></path>
    </defs>
    <g id="icon/action/picture_in_picture_alt_24px" stroke="none" stroke-width="1" fill="none" fill-rule="evenodd">
        <mask id="mask-2" fill="white">
            <use xlink:href="#path-1"></use>
        </mask>
        <g fill-rule="nonzero"></g>
        <g id="✱-/-Color-/-Icons-/-Black-/-Inactive" mask="url(#mask-2)" fill="#000000" fill-opacity="0.54">
            <rect id="Rectangle" x="0" y="0" width="24" height="24"></rect>
        </g>
    </g>
</svg>