<?xml version="1.0" encoding="UTF-8"?>
<svg width="24px" height="24px" viewBox="0 0 24 24" version="1.1" xmlns="http://www.w3.org/2000/svg" xmlns:xlink="http://www.w3.org/1999/xlink">
    <!-- Generator: Sketch 50 (54983) - http://www.bohemiancoding.com/sketch -->
    <title>icon/action/power_settings_new_24px_rounded</title>
    <desc>Created with Sketch.</desc>
    <defs>
        <path d="M12.0017963,3.00273015 C11.4517963,3.00273015 11.0017963,3.45273015 11.0017963,4.00273015 L11.0017963,12.0027302 C11.0017963,12.5527302 11.4517963,13.0027302 12.0017963,13.0027302 C12.5517963,13.0027302 13.0017963,12.5527302 13.0017963,12.0027302 L13.0017963,4.00273015 C13.0017963,3.45273015 12.5517963,3.00273015 12.0017963,3.00273015 Z M17.1417963,5.86273015 C16.7517963,6.25273015 16.7617963,6.86273015 17.1317963,7.25273015 C18.2617963,8.45273015 18.9617963,10.0527302 19.0017963,11.8227302 C19.0917963,15.6527302 15.9217963,18.9527302 12.0917963,18.9927302 C8.18179631,19.0527302 5.00179631,15.9027302 5.00179631,12.0027302 C5.00179631,10.1627302 5.71179631,8.49273015 6.87179631,7.24273015 C7.24179631,6.85273015 7.24179631,6.24273015 6.86179631,5.86273015 C6.46179631,5.46273015 5.81179631,5.47273015 5.43179631,5.88273015 C3.98179631,7.42273015 3.07179631,9.47273015 3.00179631,11.7427302 C2.86179631,16.6227302 6.83179631,20.8427302 11.7117963,20.9927302 C16.8117963,21.1527302 21.0017963,17.0627302 21.0017963,11.9927302 C21.0017963,9.62273015 20.0817963,7.48273015 18.5817963,5.88273015 C18.2017963,5.47273015 17.5417963,5.46273015 17.1417963,5.86273015 Z" id="path-1"></path>
    </defs>
    <g id="icon/action/power_settings_new_24px" stroke="none" stroke-width="1" fill="none" fill-rule="evenodd">
        <mask id="mask-2" fill="white">
            <use xlink:href="#path-1"></use>
        </mask>
        <g fill-rule="nonzero"></g>
        <g id="✱-/-Color-/-Icons-/-Black-/-Inactive" mask="url(#mask-2)" fill="#000000" fill-opacity="0.54">
            <rect id="Rectangle" x="0" y="0" width="24" height="24"></rect>
        </g>
    </g>
</svg>