<?xml version="1.0" encoding="UTF-8"?>
<svg width="24px" height="24px" viewBox="0 0 24 24" version="1.1" xmlns="http://www.w3.org/2000/svg" xmlns:xlink="http://www.w3.org/1999/xlink">
    <!-- Generator: Sketch 50 (54983) - http://www.bohemiancoding.com/sketch -->
    <title>icon/action/record_voice_over_24px_rounded</title>
    <desc>Created with Sketch.</desc>
    <defs>
        <path d="M9.00187415,5.22588303 C6.79273515,5.22588303 5.00187415,7.01674403 5.00187415,9.22588303 C5.00187415,11.435022 6.79273515,13.225883 9.00187415,13.225883 C11.2110131,13.225883 13.0018741,11.435022 13.0018741,9.22588303 C13.0018741,7.01674403 11.2110131,5.22588303 9.00187415,5.22588303 Z M9.00187415,15.225883 C6.33187415,15.225883 1.00187415,16.565883 1.00187415,19.225883 L1.00187415,20.225883 C1.00187415,20.775883 1.45187415,21.225883 2.00187415,21.225883 L16.0018741,21.225883 C16.5518741,21.225883 17.0018741,20.775883 17.0018741,20.225883 L17.0018741,19.225883 C17.0018741,16.565883 11.6718741,15.225883 9.00187415,15.225883 Z M15.4718741,7.99588303 C15.7918741,8.78588303 15.7918741,9.66588303 15.4718741,10.455883 C15.2818741,10.925883 15.3618741,11.455883 15.7218741,11.815883 L15.7518741,11.845883 C16.3318741,12.425883 17.3218741,12.305883 17.7018741,11.575883 C18.4618741,10.125883 18.4618741,8.42588303 17.6818741,6.91588303 C17.3018741,6.17588303 16.3018741,6.03588303 15.7118741,6.62588303 L15.7018741,6.63588303 C15.3618741,6.98588303 15.2818741,7.52588303 15.4718741,7.99588303 Z M19.1818741,3.11588303 C18.7818741,3.51588303 18.7218741,4.13588303 19.0518741,4.59588303 C21.0218741,7.33588303 21.0118741,11.005883 19.0218741,13.845883 C18.7018741,14.295883 18.7718741,14.915883 19.1618741,15.305883 L19.1918741,15.335883 C19.6818741,15.825883 20.5118741,15.785883 20.9318741,15.235883 C23.6818741,11.695883 23.6918741,6.86588303 20.9318741,3.21588303 C20.5118741,2.66588303 19.6718741,2.62588303 19.1818741,3.11588303 Z" id="path-1"></path>
    </defs>
    <g id="icon/action/record_voice_over_24px" stroke="none" stroke-width="1" fill="none" fill-rule="evenodd">
        <mask id="mask-2" fill="white">
            <use xlink:href="#path-1"></use>
        </mask>
        <g fill-rule="nonzero"></g>
        <g id="✱-/-Color-/-Icons-/-Black-/-Inactive" mask="url(#mask-2)" fill="#000000" fill-opacity="0.54">
            <rect id="Rectangle" x="0" y="0" width="24" height="24"></rect>
        </g>
    </g>
</svg>