<?xml version="1.0" encoding="UTF-8"?>
<svg width="24px" height="24px" viewBox="0 0 24 24" version="1.1" xmlns="http://www.w3.org/2000/svg" xmlns:xlink="http://www.w3.org/1999/xlink">
    <!-- Generator: Sketch 50 (54983) - http://www.bohemiancoding.com/sketch -->
    <title>icon/action/remove_shopping_cart_24px_rounded</title>
    <desc>Created with Sketch.</desc>
    <defs>
        <path d="M1.275,1.2699928 C0.885,1.6599928 0.885,2.2899928 1.275,2.6799928 L4.955,6.3599928 L7.165,11.0199928 L5.815,13.4699928 C5.625,13.7999928 5.535,14.1999928 5.575,14.6199928 C5.675,15.6799928 6.635,16.4399928 7.695,16.4399928 L15.025,16.4399928 L16.405,17.8199928 C15.905,18.1799928 15.575,18.7699928 15.575,19.4399928 C15.575,20.5399928 16.465,21.4399928 17.565,21.4399928 C18.235,21.4399928 18.825,21.1099928 19.185,20.5999928 L21.315,22.7299928 C21.705,23.1199928 22.335,23.1199928 22.725,22.7299928 C23.115,22.3399928 23.115,21.7099928 22.725,21.3199928 L2.685,1.2699928 C2.49816847,1.08274013 2.24451764,0.977507197 1.98,0.977507197 C1.71548236,0.977507197 1.46183153,1.08274013 1.275,1.2699928 Z M7.565,14.4399928 L8.665,12.4399928 L11.025,12.4399928 L13.025,14.4399928 L7.565,14.4399928 Z M16.615,12.3799928 C17.155,12.2399928 17.605,11.8899928 17.865,11.4099928 L21.445,4.9199928 C21.815,4.2599928 21.325,3.4399928 20.565,3.4399928 L7.685,3.4399928 L16.615,12.3799928 Z M7.565,17.4399928 C6.465,17.4399928 5.575,18.3399928 5.575,19.4399928 C5.575,20.5399928 6.465,21.4399928 7.565,21.4399928 C8.665,21.4399928 9.565,20.5399928 9.565,19.4399928 C9.565,18.3399928 8.665,17.4399928 7.565,17.4399928 Z" id="path-1"></path>
    </defs>
    <g id="icon/action/remove_shopping_cart_24px" stroke="none" stroke-width="1" fill="none" fill-rule="evenodd">
        <mask id="mask-2" fill="white">
            <use xlink:href="#path-1"></use>
        </mask>
        <g fill-rule="nonzero"></g>
        <g id="✱-/-Color-/-Icons-/-Black-/-Inactive" mask="url(#mask-2)" fill="#000000" fill-opacity="0.54">
            <rect id="Rectangle" x="0" y="0" width="24" height="24"></rect>
        </g>
    </g>
</svg>