<?xml version="1.0" encoding="UTF-8"?>
<svg width="24px" height="24px" viewBox="0 0 24 24" version="1.1" xmlns="http://www.w3.org/2000/svg" xmlns:xlink="http://www.w3.org/1999/xlink">
    <!-- Generator: Sketch 50 (54983) - http://www.bohemiancoding.com/sketch -->
    <title>icon/action/restore_24px_rounded</title>
    <desc>Created with Sketch.</desc>
    <defs>
        <path d="M13.4040221,3.00174917 C8.31402214,2.86174917 4.14402214,6.94174917 4.14402214,12.0017492 L2.35402214,12.0017492 C1.90402214,12.0017492 1.68402214,12.5417492 2.00402214,12.8517492 L4.79402214,15.6517492 C4.99402214,15.8517492 5.30402214,15.8517492 5.50402214,15.6517492 L8.29402214,12.8517492 C8.61402214,12.5417492 8.38402214,12.0017492 7.94402214,12.0017492 L6.14402214,12.0017492 C6.14402214,8.10174917 9.32402214,4.95174917 13.2440221,5.00174917 C16.9640221,5.05174917 20.0940221,8.18174917 20.1440221,11.9017492 C20.1940221,15.8117492 17.0440221,19.0017492 13.1440221,19.0017492 C11.5340221,19.0017492 10.0440221,18.4517492 8.86402214,17.5217492 C8.46402214,17.2117492 7.90402214,17.2417492 7.54402214,17.6017492 C7.12402214,18.0317492 7.15402214,18.7317492 7.62402214,19.1017492 C9.14402214,20.2917492 11.0640221,21.0017492 13.1440221,21.0017492 C18.1940221,21.0017492 22.2840221,16.8317492 22.1440221,11.7417492 C22.0140221,7.05174917 18.0940221,3.13174917 13.4040221,3.00174917 Z M12.8940221,8.00174917 C12.4840221,8.00174917 12.1440221,8.34174917 12.1440221,8.75174917 L12.1440221,12.4317492 C12.1440221,12.7817492 12.3340221,13.1117492 12.6340221,13.2917492 L15.7540221,15.1417492 C16.1140221,15.3517492 16.5740221,15.2317492 16.7840221,14.8817492 C16.9940221,14.5217492 16.8740221,14.0617492 16.5240221,13.8517492 L13.6440221,12.1417492 L13.6440221,8.74174917 C13.6440221,8.34174917 13.3140221,8.00174917 12.8940221,8.00174917 Z" id="path-1"></path>
    </defs>
    <g id="icon/action/restore_24px" stroke="none" stroke-width="1" fill="none" fill-rule="evenodd">
        <mask id="mask-2" fill="white">
            <use xlink:href="#path-1"></use>
        </mask>
        <g fill-rule="nonzero"></g>
        <g id="✱-/-Color-/-Icons-/-Black-/-Inactive" mask="url(#mask-2)" fill="#000000" fill-opacity="0.54">
            <rect id="Rectangle" x="0" y="0" width="24" height="24"></rect>
        </g>
    </g>
</svg>