<?xml version="1.0" encoding="UTF-8"?>
<svg width="24px" height="24px" viewBox="0 0 24 24" version="1.1" xmlns="http://www.w3.org/2000/svg" xmlns:xlink="http://www.w3.org/1999/xlink">
    <!-- Generator: Sketch 50 (54983) - http://www.bohemiancoding.com/sketch -->
    <title>icon/action/rowing_24px_rounded</title>
    <desc>Created with Sketch.</desc>
    <defs>
        <path d="M4.2375,17.95875 C3.8275,18.36875 3.8275,19.04875 4.2375,19.45875 C4.6475,19.86875 5.3275,19.86875 5.7375,19.45875 L8.4875,16.70875 L10.4875,16.70875 L7.9875,14.20875 L4.2375,17.95875 Z M14.4875,4.70875 C15.5875,4.70875 16.4875,3.80875 16.4875,2.70875 C16.4875,1.60875 15.5875,0.70875 14.4875,0.70875 C13.3875,0.70875 12.4875,1.60875 12.4875,2.70875 C12.4875,3.80875 13.3875,4.70875 14.4875,4.70875 Z M19.7775,20.00875 L17.7775,17.99875 C17.5975,17.81875 17.3375,17.70875 17.0675,17.70875 L15.9875,17.70875 L9.6975,11.41875 C10.4875,11.08875 11.3575,10.54875 11.9875,10.02875 L11.9875,12.29875 L15.5675,15.87875 C16.1375,15.32875 16.4875,14.55875 16.4875,13.71875 L16.4875,7.96875 C16.4875,6.72875 15.4675,5.70875 14.2275,5.70875 L14.2075,5.70875 C13.8675,5.70875 13.5375,5.79875 13.2475,5.93875 C12.9875,6.05875 12.7475,6.22875 12.5575,6.43875 L11.1575,7.98875 C10.0975,9.15875 8.1475,10.05875 6.4875,10.02875 C5.8875,10.02875 5.4075,10.50875 5.4075,11.10875 C5.4075,11.70875 5.8875,12.18875 6.4875,12.18875 C6.7975,12.18875 7.0975,12.15875 7.3875,12.11875 L14.4975,19.20875 L14.4975,20.28875 C14.4975,20.54875 14.5975,20.80875 14.7875,20.98875 L16.7775,22.99875 C17.1675,23.38875 17.7975,23.38875 18.1975,22.99875 L19.7775,21.41875 C20.1675,21.03875 20.1675,20.39875 19.7775,20.00875 Z" id="path-1"></path>
    </defs>
    <g id="icon/action/rowing_24px" stroke="none" stroke-width="1" fill="none" fill-rule="evenodd">
        <mask id="mask-2" fill="white">
            <use xlink:href="#path-1"></use>
        </mask>
        <g fill-rule="nonzero"></g>
        <g id="✱-/-Color-/-Icons-/-Black-/-Inactive" mask="url(#mask-2)" fill="#000000" fill-opacity="0.54">
            <rect id="Rectangle" x="0" y="0" width="24" height="24"></rect>
        </g>
    </g>
</svg>