<?xml version="1.0" encoding="UTF-8"?>
<svg width="24px" height="24px" viewBox="0 0 24 24" version="1.1" xmlns="http://www.w3.org/2000/svg" xmlns:xlink="http://www.w3.org/1999/xlink">
    <!-- Generator: Sketch 50 (54983) - http://www.bohemiancoding.com/sketch -->
    <title>icon/action/settings_power_24px_rounded</title>
    <desc>Created with Sketch.</desc>
    <defs>
        <path d="M7.00234794,23 L9.00234794,23 L9.00234794,21 L7.00234794,21 L7.00234794,23 Z M11.0023479,23 L13.0023479,23 L13.0023479,21 L11.0023479,21 L11.0023479,23 Z M12.0023479,1 C11.4523479,1 11.0023479,1.45 11.0023479,2 L11.0023479,10 C11.0023479,10.55 11.4523479,11 12.0023479,11 C12.5523479,11 13.0023479,10.55 13.0023479,10 L13.0023479,2 C13.0023479,1.45 12.5523479,1 12.0023479,1 Z M15.9423479,4.06 L15.9223479,4.08 C15.5123479,4.49 15.5623479,5.16 16.0023479,5.54 C17.5123479,6.88 18.3323479,8.97 17.8823479,11.24 C17.4223479,13.52 15.5923479,15.38 13.3223479,15.86 C9.43234794,16.69 6.00234794,13.74 6.00234794,10 C6.00234794,8.22 6.78234794,6.63 8.01234794,5.53 C8.44234794,5.14 8.48234794,4.49 8.08234794,4.08 L8.06234794,4.06 C7.69234794,3.69 7.10234794,3.67 6.70234794,4.02 C4.69234794,5.79 3.58234794,8.55 4.14234794,11.54 C4.73234794,14.69 7.25234794,17.24 10.4023479,17.85 C15.5223479,18.84 20.0023479,14.95 20.0023479,10 C20.0023479,7.62 18.9523479,5.48 17.2923479,4.01 C16.9023479,3.67 16.3123479,3.69 15.9423479,4.06 Z M15.0023479,23 L17.0023479,23 L17.0023479,21 L15.0023479,21 L15.0023479,23 Z" id="path-1"></path>
    </defs>
    <g id="icon/action/settings_power_24px" stroke="none" stroke-width="1" fill="none" fill-rule="evenodd">
        <mask id="mask-2" fill="white">
            <use xlink:href="#path-1"></use>
        </mask>
        <g fill-rule="nonzero"></g>
        <g id="✱-/-Color-/-Icons-/-Black-/-Inactive" mask="url(#mask-2)" fill="#000000" fill-opacity="0.54">
            <rect id="Rectangle" x="0" y="0" width="24" height="24"></rect>
        </g>
    </g>
</svg>