<?xml version="1.0" encoding="UTF-8"?>
<svg width="24px" height="24px" viewBox="0 0 24 24" version="1.1" xmlns="http://www.w3.org/2000/svg" xmlns:xlink="http://www.w3.org/1999/xlink">
    <!-- Generator: Sketch 50 (54983) - http://www.bohemiancoding.com/sketch -->
    <title>icon/action/settings_bluetooth_24px_rounded</title>
    <desc>Created with Sketch.</desc>
    <defs>
        <path d="M11.62125,21.8220391 L13.62125,21.8220391 L13.62125,23.8220391 L11.62125,23.8220391 L11.62125,21.8220391 Z M7.62125,21.8220391 L9.62125,21.8220391 L9.62125,23.8220391 L7.62125,23.8220391 L7.62125,21.8220391 Z M15.62125,21.8220391 L17.62125,21.8220391 L17.62125,23.8220391 L15.62125,23.8220391 L15.62125,21.8220391 Z M14.03125,9.82203911 L17.65125,6.20203911 C17.84125,6.01203911 17.94125,5.76203911 17.94125,5.49203911 C17.94125,5.22203911 17.83125,4.97203911 17.65125,4.78203911 L13.32125,0.47203911 C13.03125,0.18203911 12.60125,0.10203911 12.23125,0.25203911 C11.86125,0.40203911 11.62125,0.77203911 11.62125,1.17203911 L11.62125,7.40203911 L7.76125,3.55203911 C7.37125,3.16203911 6.74125,3.16203911 6.35125,3.55203911 C5.96125,3.94203911 5.96125,4.57203911 6.35125,4.96203911 L11.20125,9.82203911 L6.35125,14.6720391 C5.96125,15.0620391 5.96125,15.6920391 6.35125,16.0820391 C6.74125,16.4720391 7.37125,16.4720391 7.76125,16.0820391 L11.62125,12.2320391 L11.62125,18.4620391 C11.62125,18.8620391 11.86125,19.2320391 12.24125,19.3820391 C12.36125,19.4320391 12.49125,19.4620391 12.62125,19.4620391 C12.88125,19.4620391 13.14125,19.3620391 13.33125,19.1720391 L17.65125,14.8520391 C17.84125,14.6620391 17.94125,14.4120391 17.94125,14.1420391 C17.94125,13.8720391 17.83125,13.6220391 17.65125,13.4320391 L14.03125,9.82203911 Z M13.62125,3.59203911 L15.53125,5.50203911 L13.62125,7.40203911 L13.62125,3.59203911 Z M13.62125,16.0520391 L13.62125,12.2320391 L15.53125,14.1420391 L13.62125,16.0520391 Z" id="path-1"></path>
    </defs>
    <g id="icon/action/settings_bluetooth_24px" stroke="none" stroke-width="1" fill="none" fill-rule="evenodd">
        <mask id="mask-2" fill="white">
            <use xlink:href="#path-1"></use>
        </mask>
        <g fill-rule="nonzero"></g>
        <g id="✱-/-Color-/-Icons-/-Black-/-Inactive" mask="url(#mask-2)" fill="#000000" fill-opacity="0.54">
            <rect id="Rectangle" x="0" y="0" width="24" height="24"></rect>
        </g>
    </g>
</svg>