<?xml version="1.0" encoding="UTF-8"?>
<svg width="24px" height="24px" viewBox="0 0 24 24" version="1.1" xmlns="http://www.w3.org/2000/svg" xmlns:xlink="http://www.w3.org/1999/xlink">
    <!-- Generator: Sketch 50 (54983) - http://www.bohemiancoding.com/sketch -->
    <title>icon/action/settings_ethernet_24px_rounded</title>
    <desc>Created with Sketch.</desc>
    <defs>
        <path d="M7,6.12 C6.57,5.77 5.94,5.82 5.59,6.25 L1.35,11.36 C1.04,11.73 1.04,12.27 1.35,12.64 L5.59,17.75 C5.94,18.18 6.57,18.23 7,17.88 C7.43,17.53 7.48,16.9 7.13,16.47 L3.42,12 L7.13,7.53 C7.48,7.1 7.43,6.47 7,6.12 Z M7,13 L9,13 L9,11 L7,11 L7,13 Z M17,11 L15,11 L15,13 L17,13 L17,11 Z M11,13 L13,13 L13,11 L11,11 L11,13 Z M17,6.12 C16.57,6.47 16.52,7.1 16.87,7.53 L20.58,12 L16.87,16.47 C16.52,16.9 16.58,17.53 17,17.88 C17.43,18.23 18.06,18.18 18.41,17.75 L22.65,12.64 C22.96,12.27 22.96,11.73 22.65,11.36 L18.41,6.25 C18.06,5.83 17.42,5.77 17,6.12 Z" id="path-1"></path>
    </defs>
    <g id="icon/action/settings_ethernet_24px" stroke="none" stroke-width="1" fill="none" fill-rule="evenodd">
        <mask id="mask-2" fill="white">
            <use xlink:href="#path-1"></use>
        </mask>
        <g fill-rule="nonzero"></g>
        <g id="✱-/-Color-/-Icons-/-Black-/-Inactive" mask="url(#mask-2)" fill="#000000" fill-opacity="0.54">
            <rect id="Rectangle" x="0" y="0" width="24" height="24"></rect>
        </g>
    </g>
</svg>