<?xml version="1.0" encoding="UTF-8"?>
<svg width="24px" height="24px" viewBox="0 0 24 24" version="1.1" xmlns="http://www.w3.org/2000/svg" xmlns:xlink="http://www.w3.org/1999/xlink">
    <!-- Generator: Sketch 50 (54983) - http://www.bohemiancoding.com/sketch -->
    <title>icon/action/settings_input_hdmi_24px_rounded</title>
    <desc>Created with Sketch.</desc>
    <defs>
        <path d="M18,7 L18,4 C18,2.9 17.1,2 16,2 L8,2 C6.9,2 6,2.9 6,4 L6,7 C5.45,7 5,7.45 5,8 L5,12.7 C5,12.9 5.06,13.09 5.17,13.25 L8,19 L8,21 C8,21.55 8.45,22 9,22 L15,22 C15.55,22 16,21.55 16,21 L16,19 L18.83,13.25 C18.94,13.09 19,12.89 19,12.7 L19,8 C19,7.45 18.55,7 18,7 Z M16,7 L14,7 L14,5.5 C14,5.22 13.78,5 13.5,5 C13.22,5 13,5.22 13,5.5 L13,7 L11,7 L11,5.5 C11,5.22 10.78,5 10.5,5 C10.22,5 10,5.22 10,5.5 L10,7 L8,7 L8,4 L16,4 L16,7 Z" id="path-1"></path>
    </defs>
    <g id="icon/action/settings_input_hdmi_24px" stroke="none" stroke-width="1" fill="none" fill-rule="evenodd">
        <mask id="mask-2" fill="white">
            <use xlink:href="#path-1"></use>
        </mask>
        <g fill-rule="nonzero"></g>
        <g id="✱-/-Color-/-Icons-/-Black-/-Inactive" mask="url(#mask-2)" fill="#000000" fill-opacity="0.54">
            <rect id="Rectangle" x="0" y="0" width="24" height="24"></rect>
        </g>
    </g>
</svg>