<?xml version="1.0" encoding="UTF-8"?>
<svg width="24px" height="24px" viewBox="0 0 24 24" version="1.1" xmlns="http://www.w3.org/2000/svg" xmlns:xlink="http://www.w3.org/1999/xlink">
    <!-- Generator: Sketch 50 (54983) - http://www.bohemiancoding.com/sketch -->
    <title>icon/action/settings_input_antenna_24px_rounded</title>
    <desc>Created with Sketch.</desc>
    <defs>
        <path d="M11.9992756,5.50375 C8.51927563,5.50375 5.62927563,8.04375 5.08927563,11.37375 C4.98927563,11.96375 5.47927563,12.50375 6.08927563,12.50375 C6.57927563,12.50375 6.98927563,12.14375 7.06927563,11.65375 C7.47927563,9.29375 9.52927563,7.50375 11.9992756,7.50375 C14.4692756,7.50375 16.5192756,9.29375 16.9292756,11.65375 C17.0092756,12.14375 17.4192756,12.50375 17.9092756,12.50375 C18.5192756,12.50375 18.9992756,11.96375 18.8992756,11.37375 C18.3692756,8.04375 15.4792756,5.50375 11.9992756,5.50375 Z M12.9992756,14.79375 C14.0692756,14.31375 14.7592756,13.13375 14.4092756,11.80375 C14.1892756,10.99375 13.5392756,10.33375 12.7292756,10.10375 C11.0392756,9.62375 9.49927563,10.88375 9.49927563,12.50375 C9.49927563,13.52375 10.1192756,14.40375 10.9992756,14.79375 L10.9992756,18.09375 L8.28927563,20.79375 C7.89927563,21.18375 7.89927563,21.81375 8.28927563,22.20375 C8.67927563,22.59375 9.30927563,22.59375 9.69927563,22.20375 L11.9992756,19.90375 L14.2992756,22.20375 C14.6892756,22.59375 15.3192756,22.59375 15.7092756,22.20375 C16.0992756,21.81375 16.0992756,21.18375 15.7092756,20.79375 L12.9992756,18.09375 L12.9992756,14.79375 Z M11.9992756,1.50375 C6.29927563,1.50375 1.60927563,5.84375 1.04927563,11.40375 C0.999275626,11.99375 1.45927563,12.50375 2.04927563,12.50375 C2.55927563,12.50375 2.98927563,12.12375 3.03927563,11.62375 C3.47927563,7.06375 7.32927563,3.50375 11.9992756,3.50375 C16.6692756,3.50375 20.5192756,7.06375 20.9592756,11.62375 C21.0092756,12.12375 21.4392756,12.50375 21.9492756,12.50375 C22.5392756,12.50375 23.0092756,11.99375 22.9492756,11.40375 C22.3892756,5.84375 17.6992756,1.50375 11.9992756,1.50375 Z" id="path-1"></path>
    </defs>
    <g id="icon/action/settings_input_antenna_24px" stroke="none" stroke-width="1" fill="none" fill-rule="evenodd">
        <mask id="mask-2" fill="white">
            <use xlink:href="#path-1"></use>
        </mask>
        <g fill-rule="nonzero"></g>
        <g id="✱-/-Color-/-Icons-/-Black-/-Inactive" mask="url(#mask-2)" fill="#000000" fill-opacity="0.54">
            <rect id="Rectangle" x="0" y="0" width="24" height="24"></rect>
        </g>
    </g>
</svg>