<?xml version="1.0" encoding="UTF-8"?>
<svg width="24px" height="24px" viewBox="0 0 24 24" version="1.1" xmlns="http://www.w3.org/2000/svg" xmlns:xlink="http://www.w3.org/1999/xlink">
    <!-- Generator: Sketch 50 (54983) - http://www.bohemiancoding.com/sketch -->
    <title>icon/action/shop_two_24px_rounded</title>
    <desc>Created with Sketch.</desc>
    <defs>
        <path d="M2,9.5 C1.45,9.5 1,9.95 1,10.5 L1,20.5 C1,21.6 1.9,22.5 3,22.5 L17,22.5 C18.11,22.5 19,21.61 19,20.5 L4,20.5 C3.45,20.5 3,20.05 3,19.5 L3,10.5 C3,9.95 2.55,9.5 2,9.5 Z M18,5.5 L18,3.5 C18,2.4 17.1,1.5 16,1.5 L12,1.5 C10.9,1.5 10,2.4 10,3.5 L10,5.5 L7,5.5 C5.9,5.5 5,6.4 5,7.5 L5,16.5 C5,17.6 5.9,18.5 7,18.5 L21,18.5 C22.1,18.5 23,17.6 23,16.5 L23,7.5 C23,6.4 22.1,5.5 21,5.5 L18,5.5 Z M12,3.5 L16,3.5 L16,5.5 L12,5.5 L12,3.5 Z M12,14.52 L12,9.34 C12,8.96 12.41,8.72 12.74,8.9 L16.81,11.12 C17.13,11.3 17.16,11.75 16.86,11.96 L12.79,14.92 C12.46,15.16 12,14.93 12,14.52 Z" id="path-1"></path>
    </defs>
    <g id="icon/action/shop_two_24px" stroke="none" stroke-width="1" fill="none" fill-rule="evenodd">
        <mask id="mask-2" fill="white">
            <use xlink:href="#path-1"></use>
        </mask>
        <g fill-rule="nonzero"></g>
        <g id="✱-/-Color-/-Icons-/-Black-/-Inactive" mask="url(#mask-2)" fill="#000000" fill-opacity="0.54">
            <rect id="Rectangle" x="0" y="0" width="24" height="24"></rect>
        </g>
    </g>
</svg>