<?xml version="1.0" encoding="UTF-8"?>
<svg width="24px" height="24px" viewBox="0 0 24 24" version="1.1" xmlns="http://www.w3.org/2000/svg" xmlns:xlink="http://www.w3.org/1999/xlink">
    <!-- Generator: Sketch 50 (54983) - http://www.bohemiancoding.com/sketch -->
    <title>icon/action/speaker_notes_off_24px_rounded</title>
    <desc>Created with Sketch.</desc>
    <defs>
        <path d="M2.72125,1.68375 C2.37125,1.33375 1.80125,1.33375 1.45125,1.68375 C1.10125,2.03375 1.10125,2.60375 1.45125,2.95375 L2.83125,4.33375 L2.81125,21.32375 L6.81125,17.32375 L15.81125,17.32375 L20.90125,22.41375 C21.25125,22.76375 21.82125,22.76375 22.17125,22.41375 C22.52125,22.06375 22.52125,21.49375 22.17125,21.14375 L2.72125,1.68375 Z M7.81125,13.32375 C7.26125,13.32375 6.81125,12.87375 6.81125,12.32375 C6.81125,11.77375 7.26125,11.32375 7.81125,11.32375 C8.36125,11.32375 8.81125,11.77375 8.81125,12.32375 C8.81125,12.87375 8.36125,13.32375 7.81125,13.32375 Z M7.81125,10.32375 C7.26125,10.32375 6.81125,9.87375 6.81125,9.32375 C6.81125,8.77375 7.26125,8.32375 7.81125,8.32375 C8.36125,8.32375 8.81125,8.77375 8.81125,9.32375 C8.81125,9.87375 8.36125,10.32375 7.81125,10.32375 Z M20.81125,1.32375 L4.89125,1.32375 L11.89125,8.32375 L17.81125,8.32375 C18.36125,8.32375 18.81125,8.77375 18.81125,9.32375 C18.81125,9.87375 18.36125,10.32375 17.81125,10.32375 L13.89125,10.32375 L20.88125,17.31375 C21.95125,17.27375 22.81125,16.40375 22.81125,15.32375 L22.81125,3.32375 C22.81125,2.22375 21.91125,1.32375 20.81125,1.32375 Z M17.81125,7.32375 L11.81125,7.32375 C11.26125,7.32375 10.81125,6.87375 10.81125,6.32375 C10.81125,5.77375 11.26125,5.32375 11.81125,5.32375 L17.81125,5.32375 C18.36125,5.32375 18.81125,5.77375 18.81125,6.32375 C18.81125,6.87375 18.36125,7.32375 17.81125,7.32375 Z" id="path-1"></path>
    </defs>
    <g id="icon/action/speaker_notes_off_24px" stroke="none" stroke-width="1" fill="none" fill-rule="evenodd">
        <mask id="mask-2" fill="white">
            <use xlink:href="#path-1"></use>
        </mask>
        <g fill-rule="nonzero"></g>
        <g id="✱-/-Color-/-Icons-/-Black-/-Inactive" mask="url(#mask-2)" fill="#000000" fill-opacity="0.54">
            <rect id="Rectangle" x="0" y="0" width="24" height="24"></rect>
        </g>
    </g>
</svg>