<?xml version="1.0" encoding="UTF-8"?>
<svg width="24px" height="24px" viewBox="0 0 24 24" version="1.1" xmlns="http://www.w3.org/2000/svg" xmlns:xlink="http://www.w3.org/1999/xlink">
    <!-- Generator: Sketch 50 (54983) - http://www.bohemiancoding.com/sketch -->
    <title>icon/action/spellcheck_24px_rounded</title>
    <desc>Created with Sketch.</desc>
    <defs>
        <path d="M12.3727772,15.45375 C13.0627772,15.45375 13.5227772,14.76375 13.2727772,14.13375 L9.02277723,3.32375 C8.81277723,2.79375 8.31277723,2.45375 7.75277723,2.45375 C7.19277723,2.45375 6.69277723,2.79375 6.48277723,3.32375 L2.23277723,14.13375 C1.98277723,14.76375 2.45277723,15.45375 3.13277723,15.45375 C3.53277723,15.45375 3.89277723,15.20375 4.04277723,14.82375 L4.92277723,12.45375 L10.5627772,12.45375 L11.4627772,14.83375 C11.6127772,15.20375 11.9727772,15.45375 12.3727772,15.45375 Z M5.68277723,10.45375 L7.75277723,4.93375 L9.82277723,10.45375 L5.68277723,10.45375 Z M20.1427772,11.74375 L12.7527772,19.13375 L9.78277723,16.16375 C9.59594571,15.9764973 9.34229487,15.8712644 9.07777723,15.8712644 C8.81325959,15.8712644 8.55960876,15.9764973 8.37277723,16.16375 C7.98277723,16.55375 7.98277723,17.18375 8.37277723,17.57375 L12.0527772,21.25375 C12.4427772,21.64375 13.0727772,21.64375 13.4627772,21.25375 L21.5427772,13.16375 C21.9327772,12.77375 21.9327772,12.14375 21.5427772,11.75375 C21.1627772,11.36375 20.5227772,11.36375 20.1427772,11.74375 Z" id="path-1"></path>
    </defs>
    <g id="icon/action/spellcheck_24px" stroke="none" stroke-width="1" fill="none" fill-rule="evenodd">
        <mask id="mask-2" fill="white">
            <use xlink:href="#path-1"></use>
        </mask>
        <g fill-rule="nonzero"></g>
        <g id="✱-/-Color-/-Icons-/-Black-/-Inactive" mask="url(#mask-2)" fill="#000000" fill-opacity="0.54">
            <rect id="Rectangle" x="0" y="0" width="24" height="24"></rect>
        </g>
    </g>
</svg>