<?xml version="1.0" encoding="UTF-8"?>
<svg width="24px" height="24px" viewBox="0 0 24 24" version="1.1" xmlns="http://www.w3.org/2000/svg" xmlns:xlink="http://www.w3.org/1999/xlink">
    <!-- Generator: Sketch 50 (54983) - http://www.bohemiancoding.com/sketch -->
    <title>icon/action/system_vertical_alt_24px_rounded</title>
    <desc>Created with Sketch.</desc>
    <defs>
        <path d="M12.35,15.65 L15.14,12.86 C15.45,12.55 15.23,12.01 14.79,12.01 L13,12.01 L13,4 C13,3.45 12.55,3 12,3 C11.45,3 11,3.45 11,4 L11,12 L9.21,12 C8.76,12 8.54,12.54 8.86,12.85 L11.65,15.64 C11.84,15.84 12.16,15.84 12.35,15.65 Z M21,3 L15.99,3 C15.45,3 15,3.45 15,3.99 C15,4.54 15.45,4.98 15.99,4.98 L20,4.98 C20.55,4.98 21,5.43 21,5.98 L21,18.01 C21,18.56 20.55,19.01 20,19.01 L4,19.01 C3.45,19.01 3,18.56 3,18.01 L3,5.99 C3,5.44 3.45,4.99 4,4.99 L8.01,4.99 C8.55,4.99 9,4.54 9,4 C9,3.45 8.55,3 8.01,3 L3,3 C1.9,3 1,3.9 1,5 L1,19 C1,20.1 1.9,21 3,21 L21,21 C22.1,21 23,20.1 23,19 L23,5 C23,3.9 22.1,3 21,3 Z" id="path-1"></path>
    </defs>
    <g id="icon/action/system_vertical_alt_24px" stroke="none" stroke-width="1" fill="none" fill-rule="evenodd">
        <mask id="mask-2" fill="white">
            <use xlink:href="#path-1"></use>
        </mask>
        <g fill-rule="nonzero"></g>
        <g id="✱-/-Color-/-Icons-/-Black-/-Inactive" mask="url(#mask-2)" fill="#000000" fill-opacity="0.54">
            <rect id="Rectangle" x="0" y="0" width="24" height="24"></rect>
        </g>
    </g>
</svg>