<?xml version="1.0" encoding="UTF-8"?>
<svg width="24px" height="24px" viewBox="0 0 24 24" version="1.1" xmlns="http://www.w3.org/2000/svg" xmlns:xlink="http://www.w3.org/1999/xlink">
    <!-- Generator: Sketch 50 (54983) - http://www.bohemiancoding.com/sketch -->
    <title>icon/action/text_rotation_angle_down_24px_rounded</title>
    <desc>Created with Sketch.</desc>
    <defs>
        <path d="M15.5052949,20.1509551 L15.5052949,17.6109551 C15.5052949,17.1609551 14.9652949,16.9409551 14.6552949,17.2609551 L14.0952949,17.8209551 L5.60529485,9.33095515 C5.41846332,9.14370248 5.16481249,9.03846954 4.90029485,9.03846954 C4.63577721,9.03846954 4.38212638,9.14370248 4.19529485,9.33095515 C3.80529485,9.72095515 3.80529485,10.3509551 4.19529485,10.7409551 L12.6852949,19.2309551 L12.1252949,19.7909551 C11.8052949,20.1109551 12.0252949,20.6509551 12.4652949,20.6509551 L15.0052949,20.6509551 C15.2852949,20.6509551 15.5052949,20.4209551 15.5052949,20.1509551 Z M11.7552949,8.13095515 L15.2952949,11.6709551 L14.6252949,13.2709551 C14.4752949,13.6309551 14.5552949,14.0409551 14.8352949,14.3209551 C15.3252949,14.8109551 16.1452949,14.6409551 16.4052949,14.0009551 L20.0152949,4.91095515 C20.1852949,4.49095515 20.0852949,4.00095515 19.7652949,3.68095515 C19.4452949,3.36095515 18.9652949,3.26095515 18.5352949,3.43095515 L9.43529485,7.03095515 C8.79529485,7.28095515 8.62529485,8.11095515 9.11529485,8.60095515 C9.38529485,8.87095515 9.79529485,8.95095515 10.1552949,8.80095515 L11.7552949,8.13095515 Z M18.3452949,5.08095515 L16.1152949,9.95095515 L13.4752949,7.31095515 L18.3452949,5.08095515 Z" id="path-1"></path>
    </defs>
    <g id="icon/action/text_rotation_angle_down_24px" stroke="none" stroke-width="1" fill="none" fill-rule="evenodd">
        <mask id="mask-2" fill="white">
            <use xlink:href="#path-1"></use>
        </mask>
        <g fill-rule="nonzero"></g>
        <g id="✱-/-Color-/-Icons-/-Black-/-Inactive" mask="url(#mask-2)" fill="#000000" fill-opacity="0.54">
            <rect id="Rectangle" x="0" y="0" width="24" height="24"></rect>
        </g>
    </g>
</svg>