<?xml version="1.0" encoding="UTF-8"?>
<svg width="24px" height="24px" viewBox="0 0 24 24" version="1.1" xmlns="http://www.w3.org/2000/svg" xmlns:xlink="http://www.w3.org/1999/xlink">
    <!-- Generator: Sketch 50 (54983) - http://www.bohemiancoding.com/sketch -->
    <title>icon/action/text_rotation_angle_up_24px_rounded</title>
    <desc>Created with Sketch.</desc>
    <defs>
        <path d="M17.2609551,9.33627741 L17.8209551,9.89627741 L9.34095515,18.3862774 C8.95095515,18.7762774 8.95095515,19.4062774 9.34095515,19.7962774 C9.73095515,20.1862774 10.3609551,20.1862774 10.7509551,19.7962774 L19.2409551,11.3062774 L19.8009551,11.8662774 C20.1109551,12.1862774 20.6509551,11.9662774 20.6509551,11.5262774 L20.6509551,8.98627741 C20.6509551,8.70627741 20.4309551,8.48627741 20.1509551,8.48627741 L17.6109551,8.48627741 C17.1709551,8.48627741 16.9509551,9.02627741 17.2609551,9.33627741 Z M8.13095515,12.2362774 L11.6709551,8.69627741 L13.2709551,9.36627741 C13.6309551,9.51627741 14.0409551,9.43627741 14.3209551,9.15627741 C14.8109551,8.66627741 14.6409551,7.84627741 14.0009551,7.58627741 L4.91095515,3.98627741 C4.48095515,3.82627741 4.00095515,3.92627741 3.68095515,4.24627741 C3.36095515,4.56627741 3.26095515,5.04627741 3.43095515,5.47627741 L7.04095515,14.5662774 C7.29095515,15.2062774 8.12095515,15.3762774 8.61095515,14.8862774 C8.89095515,14.6062774 8.97095515,14.1962774 8.82095515,13.8362774 L8.13095515,12.2362774 Z M7.31095515,10.5162774 L5.08095515,5.64627741 L9.95095515,7.87627741 L7.31095515,10.5162774 Z" id="path-1"></path>
    </defs>
    <g id="icon/action/text_rotation_angle_up_24px" stroke="none" stroke-width="1" fill="none" fill-rule="evenodd">
        <mask id="mask-2" fill="white">
            <use xlink:href="#path-1"></use>
        </mask>
        <g fill-rule="nonzero"></g>
        <g id="✱-/-Color-/-Icons-/-Black-/-Inactive" mask="url(#mask-2)" fill="#000000" fill-opacity="0.54">
            <rect id="Rectangle" x="0" y="0" width="24" height="24"></rect>
        </g>
    </g>
</svg>