<?xml version="1.0" encoding="UTF-8"?>
<svg width="24px" height="24px" viewBox="0 0 24 24" version="1.1" xmlns="http://www.w3.org/2000/svg" xmlns:xlink="http://www.w3.org/1999/xlink">
    <!-- Generator: Sketch 50 (54983) - http://www.bohemiancoding.com/sketch -->
    <title>icon/action/text_rotation_down_24px_rounded</title>
    <desc>Created with Sketch.</desc>
    <defs>
        <path d="M5.99576721,19.754363 L7.78576721,17.964363 C8.10576721,17.644363 7.88576721,17.104363 7.43576721,17.104363 L6.64576721,17.104363 L6.64576721,5.10436298 C6.64576721,4.55436298 6.19576721,4.10436298 5.64576721,4.10436298 C5.09576721,4.10436298 4.64576721,4.55436298 4.64576721,5.10436298 L4.64576721,17.104363 L3.85576721,17.104363 C3.40576721,17.104363 3.18576721,17.644363 3.50576721,17.954363 L5.29576721,19.744363 C5.48576721,19.944363 5.80576721,19.944363 5.99576721,19.754363 Z M11.8457672,8.60436298 L11.8457672,13.604363 L10.2457672,14.264363 C9.88576721,14.414363 9.64576721,14.764363 9.64576721,15.154363 C9.64576721,15.844363 10.3557672,16.304363 10.9857672,16.034363 L19.9557672,12.154363 C20.3757672,11.974363 20.6457672,11.564363 20.6457672,11.104363 C20.6457672,10.644363 20.3757672,10.234363 19.9557672,10.054363 L10.9857672,6.17436298 C10.3557672,5.90436298 9.64576721,6.37436298 9.64576721,7.06436298 C9.64576721,7.45436298 9.88576721,7.80436298 10.2457672,7.95436298 L11.8457672,8.60436298 Z M18.6657672,11.104363 L13.6457672,12.974363 L13.6457672,9.23436298 L18.6657672,11.104363 Z" id="path-1"></path>
    </defs>
    <g id="icon/action/text_rotation_down_24px" stroke="none" stroke-width="1" fill="none" fill-rule="evenodd">
        <mask id="mask-2" fill="white">
            <use xlink:href="#path-1"></use>
        </mask>
        <g fill-rule="nonzero"></g>
        <g id="✱-/-Color-/-Icons-/-Black-/-Inactive" mask="url(#mask-2)" fill="#000000" fill-opacity="0.54">
            <rect id="Rectangle" x="0" y="0" width="24" height="24"></rect>
        </g>
    </g>
</svg>