<?xml version="1.0" encoding="UTF-8"?>
<svg width="24px" height="24px" viewBox="0 0 24 24" version="1.1" xmlns="http://www.w3.org/2000/svg" xmlns:xlink="http://www.w3.org/1999/xlink">
    <!-- Generator: Sketch 50 (54983) - http://www.bohemiancoding.com/sketch -->
    <title>icon/action/text_rotation_none_24px_rounded</title>
    <desc>Created with Sketch.</desc>
    <defs>
        <path d="M19.754363,18.0042328 L17.964363,16.2142328 C17.644363,15.8942328 17.104363,16.1142328 17.104363,16.5642328 L17.104363,17.3542328 L5.10436298,17.3542328 C4.55436298,17.3542328 4.10436298,17.8042328 4.10436298,18.3542328 C4.10436298,18.9042328 4.55436298,19.3542328 5.10436298,19.3542328 L17.104363,19.3542328 L17.104363,20.1442328 C17.104363,20.5942328 17.644363,20.8142328 17.954363,20.4942328 L19.744363,18.7042328 C19.944363,18.5142328 19.944363,18.1942328 19.754363,18.0042328 Z M8.60436298,12.1542328 L13.604363,12.1542328 L14.264363,13.7542328 C14.414363,14.1142328 14.764363,14.3542328 15.154363,14.3542328 C15.844363,14.3542328 16.304363,13.6442328 16.034363,13.0142328 L12.154363,4.04423279 C11.974363,3.62423279 11.564363,3.35423279 11.104363,3.35423279 C10.644363,3.35423279 10.234363,3.62423279 10.054363,4.04423279 L6.17436298,13.0142328 C5.90436298,13.6442328 6.37436298,14.3542328 7.06436298,14.3542328 C7.45436298,14.3542328 7.80436298,14.1142328 7.95436298,13.7542328 L8.60436298,12.1542328 Z M11.104363,5.33423279 L12.974363,10.3542328 L9.23436298,10.3542328 L11.104363,5.33423279 Z" id="path-1"></path>
    </defs>
    <g id="icon/action/text_rotation_none_24px" stroke="none" stroke-width="1" fill="none" fill-rule="evenodd">
        <mask id="mask-2" fill="white">
            <use xlink:href="#path-1"></use>
        </mask>
        <g fill-rule="nonzero"></g>
        <g id="✱-/-Color-/-Icons-/-Black-/-Inactive" mask="url(#mask-2)" fill="#000000" fill-opacity="0.54">
            <rect id="Rectangle" x="0" y="0" width="24" height="24"></rect>
        </g>
    </g>
</svg>