<?xml version="1.0" encoding="UTF-8"?>
<svg width="24px" height="24px" viewBox="0 0 24 24" version="1.1" xmlns="http://www.w3.org/2000/svg" xmlns:xlink="http://www.w3.org/1999/xlink">
    <!-- Generator: Sketch 50 (54983) - http://www.bohemiancoding.com/sketch -->
    <title>icon/action/theaters_24px_rounded</title>
    <desc>Created with Sketch.</desc>
    <defs>
        <path d="M18,4 L18,5 L16,5 L16,4 C16,3.45 15.55,3 15,3 L9,3 C8.45,3 8,3.45 8,4 L8,5 L6,5 L6,4 C6,3.45 5.55,3 5,3 C4.45,3 4,3.45 4,4 L4,20 C4,20.55 4.45,21 5,21 C5.55,21 6,20.55 6,20 L6,19 L8,19 L8,20 C8,20.55 8.45,21 9,21 L15,21 C15.55,21 16,20.55 16,20 L16,19 L18,19 L18,20 C18,20.55 18.45,21 19,21 C19.55,21 20,20.55 20,20 L20,4 C20,3.45 19.55,3 19,3 C18.45,3 18,3.45 18,4 Z M8,17 L6,17 L6,15 L8,15 L8,17 Z M8,13 L6,13 L6,11 L8,11 L8,13 Z M8,9 L6,9 L6,7 L8,7 L8,9 Z M18,17 L16,17 L16,15 L18,15 L18,17 Z M18,13 L16,13 L16,11 L18,11 L18,13 Z M18,9 L16,9 L16,7 L18,7 L18,9 Z" id="path-1"></path>
    </defs>
    <g id="icon/action/theaters_24px" stroke="none" stroke-width="1" fill="none" fill-rule="evenodd">
        <mask id="mask-2" fill="white">
            <use xlink:href="#path-1"></use>
        </mask>
        <g fill-rule="nonzero"></g>
        <g id="✱-/-Color-/-Icons-/-Black-/-Inactive" mask="url(#mask-2)" fill="#000000" fill-opacity="0.54">
            <rect id="Rectangle" x="0" y="0" width="24" height="24"></rect>
        </g>
    </g>
</svg>