<?xml version="1.0" encoding="UTF-8"?>
<svg width="24px" height="24px" viewBox="0 0 24 24" version="1.1" xmlns="http://www.w3.org/2000/svg" xmlns:xlink="http://www.w3.org/1999/xlink">
    <!-- Generator: Sketch 50 (54983) - http://www.bohemiancoding.com/sketch -->
    <title>icon/action/touch_app_24px_rounded</title>
    <desc>Created with Sketch.</desc>
    <defs>
        <path d="M8.55146081,9.74 L8.55146081,6 C8.55146081,4.62 9.67146081,3.5 11.0514608,3.5 C12.4314608,3.5 13.5514608,4.62 13.5514608,6 L13.5514608,9.74 C14.7614608,8.93 15.5514608,7.56 15.5514608,6 C15.5514608,3.51 13.5414608,1.5 11.0514608,1.5 C8.56146081,1.5 6.55146081,3.51 6.55146081,6 C6.55146081,7.56 7.34146081,8.93 8.55146081,9.74 Z M14.0514608,12.21 C13.7714608,12.07 13.4714608,12 13.1614608,12 L12.5514608,12 L12.5514608,6 C12.5514608,5.17 11.8814608,4.5 11.0514608,4.5 C10.2214608,4.5 9.55146081,5.17 9.55146081,6 L9.55146081,16.74 L6.11146081,16.02 C5.74146081,15.94 5.35146081,16.06 5.08146081,16.33 C4.65146081,16.77 4.65146081,17.47 5.08146081,17.91 L9.09146081,21.92 C9.47146081,22.29 9.98146081,22.5 10.5114608,22.5 L16.6114608,22.5 C17.6114608,22.5 18.4514608,21.77 18.5914608,20.78 L19.2214608,16.31 C19.3414608,15.46 18.9014608,14.62 18.1314608,14.24 L14.0514608,12.21 Z" id="path-1"></path>
    </defs>
    <g id="icon/action/touch_app_24px" stroke="none" stroke-width="1" fill="none" fill-rule="evenodd">
        <mask id="mask-2" fill="white">
            <use xlink:href="#path-1"></use>
        </mask>
        <g fill-rule="nonzero"></g>
        <g id="✱-/-Color-/-Icons-/-Black-/-Inactive" mask="url(#mask-2)" fill="#000000" fill-opacity="0.54">
            <rect id="Rectangle" x="0" y="0" width="24" height="24"></rect>
        </g>
    </g>
</svg>