<?xml version="1.0" encoding="UTF-8"?>
<svg width="24px" height="24px" viewBox="0 0 24 24" version="1.1" xmlns="http://www.w3.org/2000/svg" xmlns:xlink="http://www.w3.org/1999/xlink">
    <!-- Generator: Sketch 50 (54983) - http://www.bohemiancoding.com/sketch -->
    <title>icon/action/track_changes_24px_rounded</title>
    <desc>Created with Sketch.</desc>
    <defs>
        <path d="M18.3069637,5.66689418 C17.9469637,6.02689418 17.9169637,6.58689418 18.2369637,6.98689418 C19.6869637,8.80689418 20.4469637,11.2968942 19.7669637,13.9068942 C18.9769637,16.9568942 16.5869637,19.2368942 13.5569637,19.8468942 C8.45696367,20.8568942 3.98696367,16.9168942 3.98696367,11.9868942 C3.98696367,7.90689418 7.03696367,4.54689418 10.9869637,4.05689418 L10.9869637,6.07689418 C7.85696367,6.60689418 5.55696367,9.53689418 6.05696367,12.9068942 C6.44696367,15.5168942 8.61696367,17.6168942 11.2369637,17.9368942 C14.8769637,18.3868942 17.9869637,15.5468942 17.9869637,11.9868942 C17.9869637,10.7368942 17.6069637,9.58689418 16.9569637,8.62689418 C16.6169637,8.12689418 15.8869637,8.09689418 15.4569637,8.51689418 L15.4469637,8.52689418 C15.1069637,8.86689418 15.0769637,9.39689418 15.3369637,9.79689418 C15.9369637,10.7168942 16.1769637,11.8968942 15.8269637,13.1168942 C15.4369637,14.4868942 14.2869637,15.5768942 12.8869637,15.8868942 C10.2869637,16.4568942 7.98696367,14.4968942 7.98696367,11.9868942 C7.98696367,10.1268942 9.26696367,8.57689418 10.9869637,8.12689418 L10.9869637,10.2668942 C10.3869637,10.6168942 9.98696367,11.2468942 9.98696367,11.9868942 C9.98696367,13.0868942 10.8869637,13.9868942 11.9869637,13.9868942 C13.0869637,13.9868942 13.9869637,13.0868942 13.9869637,11.9868942 C13.9869637,11.2468942 13.5869637,10.6068942 12.9869637,10.2668942 L12.9869637,2.69689418 C12.9869637,2.30689418 12.6669637,1.98689418 12.2769637,1.98689418 C6.91696367,1.78689418 2.29696367,6.04689418 2.00696367,11.3868942 C1.64696367,17.9368942 7.41696367,23.2068942 14.0169637,21.7868942 C17.8969637,20.9568942 20.8969637,17.9868942 21.7669637,14.1168942 C22.4769637,10.9568942 21.5669637,7.95689418 19.7969637,5.74689418 C19.4269637,5.27689418 18.7269637,5.24689418 18.3069637,5.66689418 Z" id="path-1"></path>
    </defs>
    <g id="icon/action/track_changes_24px" stroke="none" stroke-width="1" fill="none" fill-rule="evenodd">
        <mask id="mask-2" fill="white">
            <use xlink:href="#path-1"></use>
        </mask>
        <g fill-rule="nonzero"></g>
        <g id="✱-/-Color-/-Icons-/-Black-/-Inactive" mask="url(#mask-2)" fill="#000000" fill-opacity="0.54">
            <rect id="Rectangle" x="0" y="0" width="24" height="24"></rect>
        </g>
    </g>
</svg>