<?xml version="1.0" encoding="UTF-8"?>
<svg width="24px" height="24px" viewBox="0 0 24 24" version="1.1" xmlns="http://www.w3.org/2000/svg" xmlns:xlink="http://www.w3.org/1999/xlink">
    <!-- Generator: Sketch 50 (54983) - http://www.bohemiancoding.com/sketch -->
    <title>icon/action/translate_24px_rounded</title>
    <desc>Created with Sketch.</desc>
    <defs>
        <path d="M12.854973,15.67 C12.994973,15.31 12.904973,14.9 12.624973,14.62 L10.534973,12.56 L10.564973,12.53 C12.304973,10.59 13.544973,8.36 14.274973,6 L16.214973,6 C16.754973,6 17.204973,5.55 17.204973,5.01 L17.204973,4.99 C17.204973,4.45 16.754973,4 16.214973,4 L10.204973,4 L10.204973,3 C10.204973,2.45 9.75497298,2 9.20497298,2 C8.65497298,2 8.20497298,2.45 8.20497298,3 L8.20497298,4 L2.19497298,4 C1.65497298,4 1.20497298,4.45 1.20497298,4.99 C1.20497298,5.54 1.65497298,5.98 2.19497298,5.98 L12.374973,5.98 C11.704973,7.92 10.644973,9.75 9.20497298,11.35 C8.39497298,10.46 7.71497298,9.49 7.14497298,8.47 C6.98497298,8.18 6.69497298,8 6.36497298,8 C5.67497298,8 5.23497298,8.75 5.57497298,9.35 C6.20497298,10.48 6.97497298,11.56 7.87497298,12.56 L3.50497298,16.87 C3.10497298,17.26 3.10497298,17.9 3.50497298,18.29 C3.89497298,18.68 4.52497298,18.68 4.92497298,18.29 L9.20497298,14 L11.224973,16.02 C11.734973,16.53 12.604973,16.34 12.854973,15.67 Z M17.704973,10 C17.104973,10 16.564973,10.37 16.354973,10.94 L12.684973,20.74 C12.444973,21.35 12.904973,22 13.554973,22 C13.944973,22 14.294973,21.76 14.434973,21.39 L15.324973,19 L20.074973,19 L20.974973,21.39 C21.114973,21.75 21.464973,22 21.854973,22 C22.504973,22 22.964973,21.35 22.734973,20.74 L19.064973,10.94 C18.844973,10.37 18.304973,10 17.704973,10 Z M16.084973,17 L17.704973,12.67 L19.324973,17 L16.084973,17 Z" id="path-1"></path>
    </defs>
    <g id="icon/action/translate_24px" stroke="none" stroke-width="1" fill="none" fill-rule="evenodd">
        <mask id="mask-2" fill="white">
            <use xlink:href="#path-1"></use>
        </mask>
        <g fill-rule="nonzero"></g>
        <g id="✱-/-Color-/-Icons-/-Black-/-Inactive" mask="url(#mask-2)" fill="#000000" fill-opacity="0.54">
            <rect id="Rectangle" x="0" y="0" width="24" height="24"></rect>
        </g>
    </g>
</svg>