<?xml version="1.0" encoding="UTF-8"?>
<svg width="24px" height="24px" viewBox="0 0 24 24" version="1.1" xmlns="http://www.w3.org/2000/svg" xmlns:xlink="http://www.w3.org/1999/xlink">
    <!-- Generator: Sketch 50 (54983) - http://www.bohemiancoding.com/sketch -->
    <title>icon/action/update_24px_rounded</title>
    <desc>Created with Sketch.</desc>
    <defs>
        <path d="M10.9984167,8.74841237 L10.9984167,12.4284124 C10.9984167,12.7784124 11.1884167,13.1084124 11.4884167,13.2884124 L14.6084167,15.1384124 C14.9684167,15.3484124 15.4284167,15.2284124 15.6384167,14.8784124 C15.8484167,14.5184124 15.7384167,14.0584124 15.3784167,13.8484124 L12.5084167,12.1384124 L12.5084167,8.73841237 C12.4984167,8.33841237 12.1584167,7.99841237 11.7484167,7.99841237 C11.3384167,7.99841237 10.9984167,8.33841237 10.9984167,8.74841237 Z M20.9984167,9.49841237 L20.9984167,4.20841237 C20.9984167,3.75841237 20.4584167,3.53841237 20.1484167,3.85841237 L18.3684167,5.63841237 C16.5584167,3.82841237 13.9784167,2.78841237 11.1584167,3.03841237 C6.96841668,3.41841237 3.51841668,6.78841237 3.05841668,10.9784124 C2.45841668,16.3984124 6.68841668,20.9984124 11.9984167,20.9984124 C16.5884167,20.9984124 20.3784167,17.5584124 20.9284167,13.1184124 C20.9984167,12.5184124 20.5284167,11.9984124 19.9284167,11.9984124 C19.4284167,11.9984124 19.0084167,12.3684124 18.9484167,12.8584124 C18.5184167,16.3484124 15.5084167,19.0484124 11.8984167,18.9984124 C8.18841668,18.9484124 5.05841668,15.8184124 4.99841668,12.0984124 C4.93841668,8.19841237 8.10841668,4.99841237 11.9984167,4.99841237 C13.9284167,4.99841237 15.6784167,5.78841237 16.9484167,7.04841237 L14.8584167,9.13841237 C14.5384167,9.45841237 14.7584167,9.99841237 15.2084167,9.99841237 L20.4984167,9.99841237 C20.7784167,9.99841237 20.9984167,9.77841237 20.9984167,9.49841237 Z" id="path-1"></path>
    </defs>
    <g id="icon/action/update_24px" stroke="none" stroke-width="1" fill="none" fill-rule="evenodd">
        <mask id="mask-2" fill="white">
            <use xlink:href="#path-1"></use>
        </mask>
        <g fill-rule="nonzero"></g>
        <g id="✱-/-Color-/-Icons-/-Black-/-Inactive" mask="url(#mask-2)" fill="#000000" fill-opacity="0.54">
            <rect id="Rectangle" x="0" y="0" width="24" height="24"></rect>
        </g>
    </g>
</svg>