<?xml version="1.0" encoding="UTF-8"?>
<svg width="24px" height="24px" viewBox="0 0 24 24" version="1.1" xmlns="http://www.w3.org/2000/svg" xmlns:xlink="http://www.w3.org/1999/xlink">
    <!-- Generator: Sketch 50 (54983) - http://www.bohemiancoding.com/sketch -->
    <title>icon/action/vertical_split_24px_rounded</title>
    <desc>Created with Sketch.</desc>
    <defs>
        <path d="M4,15 L10,15 C10.55,15 11,14.55 11,14 C11,13.45 10.55,13 10,13 L4,13 C3.45,13 3,13.45 3,14 C3,14.55 3.45,15 4,15 Z M4,19 L10,19 C10.55,19 11,18.55 11,18 C11,17.45 10.55,17 10,17 L4,17 C3.45,17 3,17.45 3,18 C3,18.55 3.45,19 4,19 Z M4,11 L10,11 C10.55,11 11,10.55 11,10 C11,9.45 10.55,9 10,9 L4,9 C3.45,9 3,9.45 3,10 C3,10.55 3.45,11 4,11 Z M3,6 C3,6.55 3.45,7 4,7 L10,7 C10.55,7 11,6.55 11,6 C11,5.45 10.55,5 10,5 L4,5 C3.45,5 3,5.45 3,6 Z M14,5 L20,5 C20.55,5 21,5.45 21,6 L21,18 C21,18.55 20.55,19 20,19 L14,19 C13.45,19 13,18.55 13,18 L13,6 C13,5.45 13.45,5 14,5 Z" id="path-1"></path>
    </defs>
    <g id="icon/action/vertical_split_24px" stroke="none" stroke-width="1" fill="none" fill-rule="evenodd">
        <mask id="mask-2" fill="white">
            <use xlink:href="#path-1"></use>
        </mask>
        <g fill-rule="nonzero"></g>
        <g id="✱-/-Color-/-Icons-/-Black-/-Inactive" mask="url(#mask-2)" fill="#000000" fill-opacity="0.54">
            <rect id="Rectangle" x="0" y="0" width="24" height="24"></rect>
        </g>
    </g>
</svg>