<?xml version="1.0" encoding="UTF-8"?>
<svg width="24px" height="24px" viewBox="0 0 24 24" version="1.1" xmlns="http://www.w3.org/2000/svg" xmlns:xlink="http://www.w3.org/1999/xlink">
    <!-- Generator: Sketch 50 (54983) - http://www.bohemiancoding.com/sketch -->
    <title>icon/action/view_day_24px_rounded</title>
    <desc>Created with Sketch.</desc>
    <defs>
        <path d="M3.5,21 L20.5,21 C21.05,21 21.5,20.55 21.5,20 L21.5,19 C21.5,18.45 21.05,18 20.5,18 L3.5,18 C2.95,18 2.5,18.45 2.5,19 L2.5,20 C2.5,20.55 2.95,21 3.5,21 Z M20.5,8 L3.5,8 C2.95,8 2.5,8.45 2.5,9 L2.5,15 C2.5,15.55 2.95,16 3.5,16 L20.5,16 C21.05,16 21.5,15.55 21.5,15 L21.5,9 C21.5,8.45 21.05,8 20.5,8 Z M2.5,4 L2.5,5 C2.5,5.55 2.95,6 3.5,6 L20.5,6 C21.05,6 21.5,5.55 21.5,5 L21.5,4 C21.5,3.45 21.05,3 20.5,3 L3.5,3 C2.95,3 2.5,3.45 2.5,4 Z" id="path-1"></path>
    </defs>
    <g id="icon/action/view_day_24px" stroke="none" stroke-width="1" fill="none" fill-rule="evenodd">
        <mask id="mask-2" fill="white">
            <use xlink:href="#path-1"></use>
        </mask>
        <g fill-rule="nonzero"></g>
        <g id="✱-/-Color-/-Icons-/-Black-/-Inactive" mask="url(#mask-2)" fill="#000000" fill-opacity="0.54">
            <rect id="Rectangle" x="0" y="0" width="24" height="24"></rect>
        </g>
    </g>
</svg>