<?xml version="1.0" encoding="UTF-8"?>
<svg width="24px" height="24px" viewBox="0 0 24 24" version="1.1" xmlns="http://www.w3.org/2000/svg" xmlns:xlink="http://www.w3.org/1999/xlink">
    <!-- Generator: Sketch 50 (54983) - http://www.bohemiancoding.com/sketch -->
    <title>icon/action/view_array_24px_rounded</title>
    <desc>Created with Sketch.</desc>
    <defs>
        <path d="M4.5,18.5 L5.5,18.5 C6.05,18.5 6.5,18.05 6.5,17.5 L6.5,6.5 C6.5,5.95 6.05,5.5 5.5,5.5 L4.5,5.5 C3.95,5.5 3.5,5.95 3.5,6.5 L3.5,17.5 C3.5,18.05 3.95,18.5 4.5,18.5 Z M17.5,6.5 L17.5,17.5 C17.5,18.05 17.95,18.5 18.5,18.5 L19.5,18.5 C20.05,18.5 20.5,18.05 20.5,17.5 L20.5,6.5 C20.5,5.95 20.05,5.5 19.5,5.5 L18.5,5.5 C17.95,5.5 17.5,5.95 17.5,6.5 Z M8.5,18.5 L15.5,18.5 C16.05,18.5 16.5,18.05 16.5,17.5 L16.5,6.5 C16.5,5.95 16.05,5.5 15.5,5.5 L8.5,5.5 C7.95,5.5 7.5,5.95 7.5,6.5 L7.5,17.5 C7.5,18.05 7.95,18.5 8.5,18.5 Z" id="path-1"></path>
    </defs>
    <g id="icon/action/view_array_24px" stroke="none" stroke-width="1" fill="none" fill-rule="evenodd">
        <mask id="mask-2" fill="white">
            <use xlink:href="#path-1"></use>
        </mask>
        <g fill-rule="nonzero"></g>
        <g id="✱-/-Color-/-Icons-/-Black-/-Inactive" mask="url(#mask-2)" fill="#000000" fill-opacity="0.54">
            <rect id="Rectangle" x="0" y="0" width="24" height="24"></rect>
        </g>
    </g>
</svg>