<?xml version="1.0" encoding="UTF-8"?>
<svg width="24px" height="24px" viewBox="0 0 24 24" version="1.1" xmlns="http://www.w3.org/2000/svg" xmlns:xlink="http://www.w3.org/1999/xlink">
    <!-- Generator: Sketch 50 (54983) - http://www.bohemiancoding.com/sketch -->
    <title>icon/action/view_week_24px_rounded</title>
    <desc>Created with Sketch.</desc>
    <defs>
        <path d="M6.5,5 L3.5,5 C2.95,5 2.5,5.45 2.5,6 L2.5,18 C2.5,18.55 2.95,19 3.5,19 L6.5,19 C7.05,19 7.5,18.55 7.5,18 L7.5,6 C7.5,5.45 7.05,5 6.5,5 Z M20.5,5 L17.5,5 C16.95,5 16.5,5.45 16.5,6 L16.5,18 C16.5,18.55 16.95,19 17.5,19 L20.5,19 C21.05,19 21.5,18.55 21.5,18 L21.5,6 C21.5,5.45 21.05,5 20.5,5 Z M13.5,5 L10.5,5 C9.95,5 9.5,5.45 9.5,6 L9.5,18 C9.5,18.55 9.95,19 10.5,19 L13.5,19 C14.05,19 14.5,18.55 14.5,18 L14.5,6 C14.5,5.45 14.05,5 13.5,5 Z" id="path-1"></path>
    </defs>
    <g id="icon/action/view_week_24px" stroke="none" stroke-width="1" fill="none" fill-rule="evenodd">
        <mask id="mask-2" fill="white">
            <use xlink:href="#path-1"></use>
        </mask>
        <g fill-rule="nonzero"></g>
        <g id="✱-/-Color-/-Icons-/-Black-/-Inactive" mask="url(#mask-2)" fill="#000000" fill-opacity="0.54">
            <rect id="Rectangle" x="0" y="0" width="24" height="24"></rect>
        </g>
    </g>
</svg>