<?xml version="1.0" encoding="UTF-8"?>
<svg width="24px" height="24px" viewBox="0 0 24 24" version="1.1" xmlns="http://www.w3.org/2000/svg" xmlns:xlink="http://www.w3.org/1999/xlink">
    <!-- Generator: Sketch 50 (54983) - http://www.bohemiancoding.com/sketch -->
    <title>icon/action/view_quilt_24px_rounded</title>
    <desc>Created with Sketch.</desc>
    <defs>
        <path d="M10.5,18.5 L13.5,18.5 C14.05,18.5 14.5,18.05 14.5,17.5 L14.5,13.5 C14.5,12.95 14.05,12.5 13.5,12.5 L10.5,12.5 C9.95,12.5 9.5,12.95 9.5,13.5 L9.5,17.5 C9.5,18.05 9.95,18.5 10.5,18.5 Z M4.5,18.5 L7.5,18.5 C8.05,18.5 8.5,18.05 8.5,17.5 L8.5,6.5 C8.5,5.95 8.05,5.5 7.5,5.5 L4.5,5.5 C3.95,5.5 3.5,5.95 3.5,6.5 L3.5,17.5 C3.5,18.05 3.95,18.5 4.5,18.5 Z M16.5,18.5 L19.5,18.5 C20.05,18.5 20.5,18.05 20.5,17.5 L20.5,13.5 C20.5,12.95 20.05,12.5 19.5,12.5 L16.5,12.5 C15.95,12.5 15.5,12.95 15.5,13.5 L15.5,17.5 C15.5,18.05 15.95,18.5 16.5,18.5 Z M9.5,6.5 L9.5,10.5 C9.5,11.05 9.95,11.5 10.5,11.5 L19.5,11.5 C20.05,11.5 20.5,11.05 20.5,10.5 L20.5,6.5 C20.5,5.95 20.05,5.5 19.5,5.5 L10.5,5.5 C9.95,5.5 9.5,5.95 9.5,6.5 Z" id="path-1"></path>
    </defs>
    <g id="icon/action/view_quilt_24px" stroke="none" stroke-width="1" fill="none" fill-rule="evenodd">
        <mask id="mask-2" fill="white">
            <use xlink:href="#path-1"></use>
        </mask>
        <g fill-rule="nonzero"></g>
        <g id="✱-/-Color-/-Icons-/-Black-/-Inactive" mask="url(#mask-2)" fill="#000000" fill-opacity="0.54">
            <rect id="Rectangle" x="0" y="0" width="24" height="24"></rect>
        </g>
    </g>
</svg>