<?xml version="1.0" encoding="UTF-8"?>
<svg width="24px" height="24px" viewBox="0 0 24 24" version="1.1" xmlns="http://www.w3.org/2000/svg" xmlns:xlink="http://www.w3.org/1999/xlink">
    <!-- Generator: Sketch 50 (54983) - http://www.bohemiancoding.com/sketch -->
    <title>icon/action/view_list_24px_rounded</title>
    <desc>Created with Sketch.</desc>
    <defs>
        <path d="M4.5,14 L6.5,14 C7.05,14 7.5,13.55 7.5,13 L7.5,11 C7.5,10.45 7.05,10 6.5,10 L4.5,10 C3.95,10 3.5,10.45 3.5,11 L3.5,13 C3.5,13.55 3.95,14 4.5,14 Z M4.5,19 L6.5,19 C7.05,19 7.5,18.55 7.5,18 L7.5,16 C7.5,15.45 7.05,15 6.5,15 L4.5,15 C3.95,15 3.5,15.45 3.5,16 L3.5,18 C3.5,18.55 3.95,19 4.5,19 Z M4.5,9 L6.5,9 C7.05,9 7.5,8.55 7.5,8 L7.5,6 C7.5,5.45 7.05,5 6.5,5 L4.5,5 C3.95,5 3.5,5.45 3.5,6 L3.5,8 C3.5,8.55 3.95,9 4.5,9 Z M9.5,14 L19.5,14 C20.05,14 20.5,13.55 20.5,13 L20.5,11 C20.5,10.45 20.05,10 19.5,10 L9.5,10 C8.95,10 8.5,10.45 8.5,11 L8.5,13 C8.5,13.55 8.95,14 9.5,14 Z M9.5,19 L19.5,19 C20.05,19 20.5,18.55 20.5,18 L20.5,16 C20.5,15.45 20.05,15 19.5,15 L9.5,15 C8.95,15 8.5,15.45 8.5,16 L8.5,18 C8.5,18.55 8.95,19 9.5,19 Z M8.5,6 L8.5,8 C8.5,8.55 8.95,9 9.5,9 L19.5,9 C20.05,9 20.5,8.55 20.5,8 L20.5,6 C20.5,5.45 20.05,5 19.5,5 L9.5,5 C8.95,5 8.5,5.45 8.5,6 Z" id="path-1"></path>
    </defs>
    <g id="icon/action/view_list_24px" stroke="none" stroke-width="1" fill="none" fill-rule="evenodd">
        <mask id="mask-2" fill="white">
            <use xlink:href="#path-1"></use>
        </mask>
        <g fill-rule="nonzero"></g>
        <g id="✱-/-Color-/-Icons-/-Black-/-Inactive" mask="url(#mask-2)" fill="#000000" fill-opacity="0.54">
            <rect id="Rectangle" x="0" y="0" width="24" height="24"></rect>
        </g>
    </g>
</svg>