<?xml version="1.0" encoding="UTF-8"?>
<svg width="24px" height="24px" viewBox="0 0 24 24" version="1.1" xmlns="http://www.w3.org/2000/svg" xmlns:xlink="http://www.w3.org/1999/xlink">
    <!-- Generator: Sketch 50 (54983) - http://www.bohemiancoding.com/sketch -->
    <title>icon/action/visibility_off_24px_rounded</title>
    <desc>Created with Sketch.</desc>
    <defs>
        <path d="M12,6.47 C14.76,6.47 17,8.71 17,11.47 C17,11.98 16.9,12.47 16.76,12.93 L19.82,15.99 C21.21,14.76 22.31,13.22 23,11.46 C21.27,7.08 17,3.97 12,3.97 C10.73,3.97 9.51,4.17 8.36,4.54 L10.53,6.71 C11,6.57 11.49,6.47 12,6.47 Z M2.71,3.13 C2.32,3.52 2.32,4.15 2.71,4.54 L4.68,6.51 C3.06,7.8 1.77,9.5 1,11.47 C2.73,15.86 7,18.97 12,18.97 C13.52,18.97 14.97,18.67 16.31,18.15 L19.03,20.87 C19.42,21.26 20.05,21.26 20.44,20.87 C20.83,20.48 20.83,19.85 20.44,19.46 L4.13,3.13 C3.74,2.74 3.1,2.74 2.71,3.13 Z M12,16.47 C9.24,16.47 7,14.23 7,11.47 C7,10.7 7.18,9.97 7.49,9.33 L9.06,10.9 C9.03,11.08 9,11.27 9,11.47 C9,13.13 10.34,14.47 12,14.47 C12.2,14.47 12.38,14.44 12.57,14.4 L14.14,15.97 C13.49,16.29 12.77,16.47 12,16.47 Z M14.97,11.14 C14.82,9.74 13.72,8.65 12.33,8.5 L14.97,11.14 Z" id="path-1"></path>
    </defs>
    <g id="icon/action/visibility_off_24px" stroke="none" stroke-width="1" fill="none" fill-rule="evenodd">
        <mask id="mask-2" fill="white">
            <use xlink:href="#path-1"></use>
        </mask>
        <g fill-rule="nonzero"></g>
        <g id="✱-/-Color-/-Icons-/-Black-/-Inactive" mask="url(#mask-2)" fill="#000000" fill-opacity="0.54">
            <rect id="Rectangle" x="0" y="0" width="24" height="24"></rect>
        </g>
    </g>
</svg>