<?xml version="1.0" encoding="UTF-8"?>
<svg width="24px" height="24px" viewBox="0 0 24 24" version="1.1" xmlns="http://www.w3.org/2000/svg" xmlns:xlink="http://www.w3.org/1999/xlink">
    <!-- Generator: Sketch 50 (54983) - http://www.bohemiancoding.com/sketch -->
    <title>icon/action/voice_over_off_24px_rounded</title>
    <desc>Created with Sketch.</desc>
    <defs>
        <path d="M15.7208187,6.6351805 C15.3708187,6.9851805 15.2808187,7.5151805 15.4708187,7.9851805 C15.7708187,8.7351805 15.7908187,9.5651805 15.5208187,10.3251805 C15.3608187,10.7851805 15.4608187,11.3051805 15.8108187,11.6451805 C16.4108187,12.2451805 17.4708187,12.1151805 17.8308187,11.3351805 C18.4708187,9.9451805 18.4308187,8.3451805 17.7108187,6.9251805 C17.3108187,6.1751805 16.3008187,6.0451805 15.7208187,6.6351805 Z M19.1808187,3.1151805 C18.7808187,3.5151805 18.7208187,4.1351805 19.0508187,4.5951805 C20.9808187,7.2751805 21.0008187,10.8451805 19.1408187,13.6651805 C18.8308187,14.1251805 18.9108187,14.7451805 19.3008187,15.1351805 C19.8108187,15.6451805 20.6808187,15.5951805 21.1108187,15.0051805 C23.6808187,11.4951805 23.6308187,6.8051805 20.9408187,3.2351805 C20.5108187,2.6751805 19.6808187,2.6151805 19.1808187,3.1151805 Z M9.43081867,5.2651805 L12.9608187,8.7951805 C12.7608187,6.9351805 11.2908187,5.4651805 9.43081867,5.2651805 Z M3.71081867,3.7851805 C3.32081867,4.1751805 3.32081867,4.8051805 3.71081867,5.1951805 L5.62081867,7.1051805 C5.06081867,7.9951805 4.83081867,9.1151805 5.15081867,10.3051805 C5.51081867,11.6351805 6.59081867,12.7051805 7.92081867,13.0751805 C9.11081867,13.4051805 10.2308187,13.1651805 11.1208187,12.6051805 L15.5208187,17.0051805 C13.7408187,15.8251805 10.7808187,15.2251805 9.00081867,15.2251805 C6.33081867,15.2251805 1.00081867,16.5651805 1.00081867,19.2251805 L1.00081867,20.2251805 C1.00081867,20.7751805 1.45081867,21.2251805 2.00081867,21.2251805 L16.0008187,21.2251805 C16.5508187,21.2251805 17.0008187,20.7751805 17.0008187,20.2251805 L17.0008187,19.2251805 C17.0008187,18.8551805 16.8908187,18.5251805 16.7108187,18.2051805 L19.0208187,20.5151805 C19.4108187,20.9051805 20.0408187,20.9051805 20.4308187,20.5151805 C20.8208187,20.1251805 20.8208187,19.4951805 20.4308187,19.1051805 L5.12081867,3.7851805 C4.93398714,3.59792782 4.68033631,3.49269489 4.41581867,3.49269489 C4.15130103,3.49269489 3.89765019,3.59792782 3.71081867,3.7851805 Z" id="path-1"></path>
    </defs>
    <g id="icon/action/voice_over_off_24px" stroke="none" stroke-width="1" fill="none" fill-rule="evenodd">
        <mask id="mask-2" fill="white">
            <use xlink:href="#path-1"></use>
        </mask>
        <g fill-rule="nonzero"></g>
        <g id="✱-/-Color-/-Icons-/-Black-/-Inactive" mask="url(#mask-2)" fill="#000000" fill-opacity="0.54">
            <rect id="Rectangle" x="0" y="0" width="24" height="24"></rect>
        </g>
    </g>
</svg>