<?xml version="1.0" encoding="UTF-8"?>
<svg width="24px" height="24px" viewBox="0 0 24 24" version="1.1" xmlns="http://www.w3.org/2000/svg" xmlns:xlink="http://www.w3.org/1999/xlink">
    <!-- Generator: Sketch 50 (54983) - http://www.bohemiancoding.com/sketch -->
    <title>icon/action/watch_later_24px_rounded</title>
    <desc>Created with Sketch.</desc>
    <defs>
        <path d="M12,2 C6.5,2 2,6.5 2,12 C2,17.5 6.5,22 12,22 C17.5,22 22,17.5 22,12 C22,6.5 17.5,2 12,2 Z M15.55,15.8 L11.47,13.29 C11.17,13.11 10.99,12.79 10.99,12.44 L10.99,7.75 C11,7.34 11.34,7 11.75,7 C12.16,7 12.5,7.34 12.5,7.75 L12.5,12.2 L16.34,14.51 C16.7,14.73 16.82,15.2 16.6,15.56 C16.38,15.91 15.91,16.02 15.55,15.8 Z" id="path-1"></path>
    </defs>
    <g id="icon/action/watch_later_24px" stroke="none" stroke-width="1" fill="none" fill-rule="evenodd">
        <mask id="mask-2" fill="white">
            <use xlink:href="#path-1"></use>
        </mask>
        <g fill-rule="nonzero"></g>
        <g id="✱-/-Color-/-Icons-/-Black-/-Inactive" mask="url(#mask-2)" fill="#000000" fill-opacity="0.54">
            <rect id="Rectangle" x="0" y="0" width="24" height="24"></rect>
        </g>
    </g>
</svg>