<?xml version="1.0" encoding="UTF-8"?>
<svg width="24px" height="24px" viewBox="0 0 24 24" version="1.1" xmlns="http://www.w3.org/2000/svg" xmlns:xlink="http://www.w3.org/1999/xlink">
    <!-- Generator: Sketch 50 (54983) - http://www.bohemiancoding.com/sketch -->
    <title>icon/action/work_outline_24px_rounded</title>
    <desc>Created with Sketch.</desc>
    <defs>
        <path d="M14,6.5 L14,4.5 L10,4.5 L10,6.5 L14,6.5 Z M4,9.5 L4,18.5 C4,19.05 4.45,19.5 5,19.5 L19,19.5 C19.55,19.5 20,19.05 20,18.5 L20,9.5 C20,8.95 19.55,8.5 19,8.5 L5,8.5 C4.45,8.5 4,8.95 4,9.5 Z M20,6.5 C21.11,6.5 22,7.39 22,8.5 L22,19.5 C22,20.61 21.11,21.5 20,21.5 L4,21.5 C2.89,21.5 2,20.61 2,19.5 L2.01,8.5 C2.01,7.39 2.89,6.5 4,6.5 L8,6.5 L8,4.5 C8,3.39 8.89,2.5 10,2.5 L14,2.5 C15.11,2.5 16,3.39 16,4.5 L16,6.5 L20,6.5 Z" id="path-1"></path>
    </defs>
    <g id="icon/action/work_outline_24px" stroke="none" stroke-width="1" fill="none" fill-rule="evenodd">
        <mask id="mask-2" fill="white">
            <use xlink:href="#path-1"></use>
        </mask>
        <g fill-rule="nonzero"></g>
        <g id="✱-/-Color-/-Icons-/-Black-/-Inactive" mask="url(#mask-2)" fill="#000000" fill-opacity="0.54">
            <rect id="Rectangle" x="0" y="0" width="24" height="24"></rect>
        </g>
    </g>
</svg>