<?xml version="1.0" encoding="UTF-8"?>
<svg width="24px" height="24px" viewBox="0 0 24 24" version="1.1" xmlns="http://www.w3.org/2000/svg" xmlns:xlink="http://www.w3.org/1999/xlink">
    <!-- Generator: Sketch 50 (54983) - http://www.bohemiancoding.com/sketch -->
    <title>icon/action/youtube_searched_for_24px_rounded</title>
    <desc>Created with Sketch.</desc>
    <defs>
        <path d="M17.2757932,14.4727251 L16.4757932,14.4727251 L16.2057932,14.2027251 C17.3557932,12.8627251 17.9657932,11.0627251 17.7157932,9.11272511 C17.3757932,6.47272511 15.3657932,4.25272511 12.7657932,3.65272511 C8.52579321,2.67272511 4.77579321,6.00272511 4.77579321,9.97272511 L2.67579321,9.97272511 C2.20579321,9.97272511 1.99579321,10.5627251 2.36579321,10.8627251 L5.76579321,13.6127251 C5.95579321,13.8127251 6.27579321,13.8227251 6.47579321,13.6227251 L9.37579321,10.8327251 C9.69579321,10.5227251 9.47579321,9.97272511 9.02579321,9.97272511 L6.77579321,9.97272511 C6.77579321,7.48272511 8.77579321,5.49272511 11.2357932,5.47272511 C13.6757932,5.45272511 15.7757932,7.52272511 15.7757932,9.96272511 C15.7757932,12.4427251 13.7557932,14.4727251 11.2757932,14.4727251 C10.8257932,14.4727251 10.3857932,14.4027251 9.97579321,14.2827251 C9.63579321,14.1827251 9.26579321,14.2827251 9.01579321,14.5427251 C8.48579321,15.0727251 8.69579321,15.9927251 9.40579321,16.2027251 C9.99579321,16.3727251 10.6257932,16.4727251 11.2757932,16.4727251 C12.8857932,16.4727251 14.3557932,15.8827251 15.4957932,14.9027251 L15.7657932,15.1727251 L15.7657932,15.9627251 L20.0357932,20.2127251 C20.4457932,20.6227251 21.1057932,20.6227251 21.5157932,20.2127251 C21.9257932,19.8027251 21.9257932,19.1327251 21.5157932,18.7227251 L17.2757932,14.4727251 Z" id="path-1"></path>
    </defs>
    <g id="icon/action/youtube_searched_for_24px" stroke="none" stroke-width="1" fill="none" fill-rule="evenodd">
        <mask id="mask-2" fill="white">
            <use xlink:href="#path-1"></use>
        </mask>
        <g fill-rule="nonzero"></g>
        <g id="✱-/-Color-/-Icons-/-Black-/-Inactive" mask="url(#mask-2)" fill="#000000" fill-opacity="0.54">
            <rect id="Rectangle" x="0" y="0" width="24" height="24"></rect>
        </g>
    </g>
</svg>