<?xml version="1.0" encoding="UTF-8"?>
<svg width="24px" height="24px" viewBox="0 0 24 24" version="1.1" xmlns="http://www.w3.org/2000/svg" xmlns:xlink="http://www.w3.org/1999/xlink">
    <!-- Generator: Sketch 50 (54983) - http://www.bohemiancoding.com/sketch -->
    <title>icon/action/zoom_in_24px_rounded</title>
    <desc>Created with Sketch.</desc>
    <defs>
        <path d="M15.9707101,14.4715628 L15.1807101,14.4715628 L14.9007101,14.2015628 C16.1007101,12.8015628 16.7207101,10.8915628 16.3807101,8.8615628 C15.9107101,6.0815628 13.5907101,3.8615628 10.7907101,3.5215628 C6.56071008,3.0015628 3.01071008,6.5615628 3.52071008,10.7915628 C3.86071008,13.5915628 6.08071008,15.9115628 8.86071008,16.3815628 C10.8907101,16.7215628 12.8007101,16.1015628 14.2007101,14.9015628 L14.4707101,15.1815628 L14.4707101,15.9715628 L18.7307101,20.2215628 C19.1407101,20.6315628 19.8007101,20.6315628 20.2107101,20.2215628 L20.2207101,20.2115628 C20.6307101,19.8015628 20.6307101,19.1415628 20.2207101,18.7315628 L15.9707101,14.4715628 Z M9.97071008,14.4715628 C7.48071008,14.4715628 5.47071008,12.4615628 5.47071008,9.9715628 C5.47071008,7.4815628 7.48071008,5.4715628 9.97071008,5.4715628 C12.4607101,5.4715628 14.4707101,7.4815628 14.4707101,9.9715628 C14.4707101,12.4615628 12.4607101,14.4715628 9.97071008,14.4715628 Z M9.97071008,7.4715628 C9.69071008,7.4715628 9.47071008,7.6915628 9.47071008,7.9715628 L9.47071008,9.4715628 L7.97071008,9.4715628 C7.69071008,9.4715628 7.47071008,9.6915628 7.47071008,9.9715628 C7.47071008,10.2515628 7.69071008,10.4715628 7.97071008,10.4715628 L9.47071008,10.4715628 L9.47071008,11.9715628 C9.47071008,12.2515628 9.69071008,12.4715628 9.97071008,12.4715628 C10.2507101,12.4715628 10.4707101,12.2515628 10.4707101,11.9715628 L10.4707101,10.4715628 L11.9707101,10.4715628 C12.2507101,10.4715628 12.4707101,10.2515628 12.4707101,9.9715628 C12.4707101,9.6915628 12.2507101,9.4715628 11.9707101,9.4715628 L10.4707101,9.4715628 L10.4707101,7.9715628 C10.4707101,7.6915628 10.2507101,7.4715628 9.97071008,7.4715628 Z" id="path-1"></path>
    </defs>
    <g id="icon/action/zoom_in_24px" stroke="none" stroke-width="1" fill="none" fill-rule="evenodd">
        <mask id="mask-2" fill="white">
            <use xlink:href="#path-1"></use>
        </mask>
        <g fill-rule="nonzero"></g>
        <g id="✱-/-Color-/-Icons-/-Black-/-Inactive" mask="url(#mask-2)" fill="#000000" fill-opacity="0.54">
            <rect id="Rectangle" x="0" y="0" width="24" height="24"></rect>
        </g>
    </g>
</svg>