<?xml version="1.0" encoding="UTF-8"?>
<svg width="24px" height="24px" viewBox="0 0 24 24" version="1.1" xmlns="http://www.w3.org/2000/svg" xmlns:xlink="http://www.w3.org/1999/xlink">
    <!-- Generator: Sketch 50 (54983) - http://www.bohemiancoding.com/sketch -->
    <title>icon/places/business_center_24px_outlined</title>
    <desc>Created with Sketch.</desc>
    <defs>
        <path d="M20,7 L16,7 L16,5 L14,3 L10,3 L8,5 L8,7 L4,7 C2.9,7 2,7.9 2,9 L2,14 C2,14.75 2.4,15.38 3,15.73 L3,19 C3,20.11 3.89,21 5,21 L19,21 C20.11,21 21,20.11 21,19 L21,15.72 C21.59,15.37 22,14.73 22,14 L22,9 C22,7.9 21.1,7 20,7 Z M10,5 L14,5 L14,7 L10,7 L10,5 Z M4,9 L20,9 L20,14 L15,14 L15,11 L9,11 L9,14 L4,14 L4,9 Z M13,15 L11,15 L11,13 L13,13 L13,15 Z M19,19 L5,19 L5,16 L9,16 L9,17 L15,17 L15,16 L19,16 L19,19 Z" id="path-1"></path>
    </defs>
    <g id="icon/places/business_center_24px" stroke="none" stroke-width="1" fill="none" fill-rule="evenodd">
        <mask id="mask-2" fill="white">
            <use xlink:href="#path-1"></use>
        </mask>
        <g fill-rule="nonzero"></g>
        <g id="✱-/-Color-/-Icons-/-Black-/-Inactive" mask="url(#mask-2)" fill="#000000" fill-opacity="0.54">
            <rect id="Rectangle" x="0" y="0" width="24" height="24"></rect>
        </g>
    </g>
</svg>