<?xml version="1.0" encoding="UTF-8"?>
<svg width="24px" height="24px" viewBox="0 0 24 24" version="1.1" xmlns="http://www.w3.org/2000/svg" xmlns:xlink="http://www.w3.org/1999/xlink">
    <!-- Generator: Sketch 50 (54983) - http://www.bohemiancoding.com/sketch -->
    <title>icon/places/pool_24px_outlined</title>
    <desc>Created with Sketch.</desc>
    <defs>
        <path d="M10,8.00007942 L6.75,11.2500794 C7.06,11.3700794 7.31,11.5200794 7.52,11.6400794 C7.89,11.8700794 8.11,12.0000794 8.67,12.0000794 C9.23,12.0000794 9.45,11.8700794 9.82,11.6400794 C10.28,11.3700794 10.9,11.0000794 12.01,11.0000794 C13.12,11.0000794 13.74,11.3700794 14.19,11.6400794 C14.56,11.8600794 14.79,12.0000794 15.34,12.0000794 C15.89,12.0000794 16.12,11.8700794 16.49,11.6400794 C16.61,11.5700794 16.75,11.4900794 16.9,11.4100794 L10.48,5.00007942 C8.93,3.45007942 7.5,2.99007942 5,3.00007942 L5,5.50007942 C6.82,5.49007942 7.89,5.89007942 9,7.00007942 L10,8.00007942 Z M22,16.5000794 L21.98,16.5000794 L22,16.5000794 Z M5.35,15.5000794 C5.9,15.5000794 6.13,15.6400794 6.5,15.8600794 C6.95,16.1300794 7.57,16.5000794 8.68,16.5000794 C9.79,16.5000794 10.41,16.1300794 10.86,15.8600794 C11.23,15.6300794 11.45,15.5000794 12.01,15.5000794 C12.56,15.5000794 12.79,15.6400794 13.16,15.8600794 C13.61,16.1300794 14.23,16.5000794 15.34,16.5000794 C16.45,16.5000794 17.07,16.1300794 17.52,15.8600794 C17.89,15.6300794 18.11,15.5000794 18.67,15.5000794 C19.22,15.5000794 19.45,15.6400794 19.82,15.8600794 C20.27,16.1300794 20.88,16.4900794 21.98,16.5000794 L21.98,14.5000794 C21.43,14.5000794 21.2,14.3600794 20.83,14.1400794 C20.38,13.8700794 19.76,13.5000794 18.65,13.5000794 C17.54,13.5000794 16.92,13.8700794 16.47,14.1400794 C16.1,14.3700794 15.87,14.5000794 15.32,14.5000794 C14.77,14.5000794 14.54,14.3600794 14.17,14.1400794 C13.72,13.8700794 13.1,13.5000794 11.99,13.5000794 C10.88,13.5000794 10.26,13.8700794 9.81,14.1400794 C9.44,14.3700794 9.22,14.5000794 8.66,14.5000794 C8.11,14.5000794 7.88,14.3600794 7.51,14.1400794 C7.06,13.8700794 6.44,13.5000794 5.33,13.5000794 C4.22,13.5000794 3.6,13.8700794 3.15,14.1400794 C2.78,14.3700794 2.56,14.5000794 2,14.5000794 L2,16.5000794 C3.11,16.5000794 3.73,16.1300794 4.2,15.8600794 C4.57,15.6300794 4.8,15.5000794 5.35,15.5000794 Z M18.67,18.0000794 C17.56,18.0000794 16.94,18.3700794 16.49,18.6400794 C16.12,18.8700794 15.89,19.0000794 15.34,19.0000794 C14.79,19.0000794 14.56,18.8600794 14.19,18.6400794 C13.74,18.3700794 13.12,18.0000794 12.01,18.0000794 C10.9,18.0000794 10.28,18.3700794 9.82,18.6400794 C9.45,18.8700794 9.23,19.0000794 8.67,19.0000794 C8.11,19.0000794 7.89,18.8700794 7.52,18.6400794 C7.07,18.3700794 6.45,18.0000794 5.34,18.0000794 C4.23,18.0000794 3.61,18.3700794 3.15,18.6400794 C2.78,18.8700794 2.56,19.0000794 2,19.0000794 L2,21.0000794 C3.11,21.0000794 3.73,20.6300794 4.19,20.3600794 C4.56,20.1300794 4.79,20.0000794 5.34,20.0000794 C5.89,20.0000794 6.12,20.1300794 6.49,20.3600794 C6.94,20.6300794 7.56,21.0000794 8.67,21.0000794 C9.78,21.0000794 10.4,20.6300794 10.86,20.3600794 C11.23,20.1300794 11.45,20.0000794 12.01,20.0000794 C12.56,20.0000794 12.79,20.1400794 13.16,20.3600794 C13.61,20.6300794 14.23,21.0000794 15.34,21.0000794 C16.45,21.0000794 17.06,20.6300794 17.52,20.3600794 C17.89,20.1300794 18.11,20.0000794 18.67,20.0000794 C19.22,20.0000794 19.45,20.1400794 19.82,20.3600794 C20.27,20.6300794 20.89,21.0000794 22,21.0000794 L22,19.0000794 C21.44,19.0000794 21.22,18.8700794 20.85,18.6400794 C20.4,18.3700794 19.78,18.0000794 18.67,18.0000794 Z M16.5,3.00007942 C15.1192881,3.00007942 14,4.11936754 14,5.50007942 C14,6.88079129 15.1192881,8.00007942 16.5,8.00007942 C17.8807119,8.00007942 19,6.88079129 19,5.50007942 C19,4.11936754 17.8807119,3.00007942 16.5,3.00007942 Z" id="path-1"></path>
    </defs>
    <g id="icon/places/pool_24px" stroke="none" stroke-width="1" fill="none" fill-rule="evenodd">
        <mask id="mask-2" fill="white">
            <use xlink:href="#path-1"></use>
        </mask>
        <g fill-rule="nonzero"></g>
        <g id="✱-/-Color-/-Icons-/-Black-/-Inactive" mask="url(#mask-2)" fill="#000000" fill-opacity="0.54">
            <rect id="Rectangle" x="0" y="0" width="24" height="24"></rect>
        </g>
    </g>
</svg>