<?xml version="1.0" encoding="UTF-8"?>
<svg width="24px" height="24px" viewBox="0 0 24 24" version="1.1" xmlns="http://www.w3.org/2000/svg" xmlns:xlink="http://www.w3.org/1999/xlink">
    <!-- Generator: Sketch 50 (54983) - http://www.bohemiancoding.com/sketch -->
    <title>icon/editor/attach_money_24px_sharp</title>
    <desc>Created with Sketch.</desc>
    <defs>
        <path d="M12.39,10.9 C10.12,10.31 9.39,9.7 9.39,8.75 C9.39,7.66 10.4,6.9 12.09,6.9 C13.87,6.9 14.53,7.75 14.59,9 L16.8,9 C16.73,7.28 15.68,5.7 13.59,5.19 L13.59,3 L10.59,3 L10.59,5.16 C8.65,5.58 7.09,6.84 7.09,8.77 C7.09,11.08 9,12.23 11.79,12.9 C14.29,13.5 14.79,14.38 14.79,15.31 C14.79,16 14.3,17.1 12.09,17.1 C10.03,17.1 9.22,16.18 9.11,15 L6.91,15 C7.03,17.19 8.67,18.42 10.59,18.83 L10.59,21 L13.59,21 L13.59,18.85 C15.54,18.48 17.09,17.35 17.09,15.3 C17.09,12.46 14.66,11.49 12.39,10.9 Z" id="path-1"></path>
    </defs>
    <g id="icon/editor/attach_money_24px" stroke="none" stroke-width="1" fill="none" fill-rule="evenodd">
        <mask id="mask-2" fill="white">
            <use xlink:href="#path-1"></use>
        </mask>
        <g fill-rule="nonzero"></g>
        <g id="✱-/-Color-/-Icons-/-Black-/-Inactive" mask="url(#mask-2)" fill="#000000" fill-opacity="0.54">
            <rect id="Rectangle" x="0" y="0" width="24" height="24"></rect>
        </g>
    </g>
</svg>