<?xml version="1.0" encoding="UTF-8"?>
<svg width="24px" height="24px" viewBox="0 0 24 24" version="1.1" xmlns="http://www.w3.org/2000/svg" xmlns:xlink="http://www.w3.org/1999/xlink">
    <!-- Generator: Sketch 50 (54983) - http://www.bohemiancoding.com/sketch -->
    <title>icon/editor/score_24px_sharp</title>
    <desc>Created with Sketch.</desc>
    <defs>
        <path d="M21,3 L3,3 L3,21 L21,21 L21,3 Z M12,5 L13.5,5 L13.5,8 L15.5,5 L17.2,5 L15.2,8 L17.2,11 L15.5,11 L13.5,8 L13.5,11 L12,11 L12,5 Z M7,7.25 L9.5,7.25 L9.5,6.5 L7,6.5 L7,5 L11,5 L11,8.75 L8.5,8.75 L8.5,9.5 L11,9.5 L11,11 L7,11 L7,7.25 Z M19,13 L13,19 L9,15 L5,19 L5,16.5 L9,12.5 L13,16.5 L19,10.5 L19,13 Z" id="path-1"></path>
    </defs>
    <g id="icon/editor/score_24px" stroke="none" stroke-width="1" fill="none" fill-rule="evenodd">
        <mask id="mask-2" fill="white">
            <use xlink:href="#path-1"></use>
        </mask>
        <g fill-rule="nonzero"></g>
        <g id="✱-/-Color-/-Icons-/-Black-/-Inactive" mask="url(#mask-2)" fill="#000000" fill-opacity="0.54">
            <rect id="Rectangle" x="0" y="0" width="24" height="24"></rect>
        </g>
    </g>
</svg>