<?xml version="1.0" encoding="UTF-8"?>
<svg width="24px" height="24px" viewBox="0 0 24 24" version="1.1" xmlns="http://www.w3.org/2000/svg" xmlns:xlink="http://www.w3.org/1999/xlink">
    <!-- Generator: Sketch 50 (54983) - http://www.bohemiancoding.com/sketch -->
    <title>icon/editor/wrap_text_24px_sharp</title>
    <desc>Created with Sketch.</desc>
    <defs>
        <path d="M3.5,18 L9.5,18 L9.5,16 L3.5,16 L3.5,18 Z M19.5,4 L3.5,4 L3.5,6 L19.5,6 L19.5,4 Z M16.5,10 L3.5,10 L3.5,12 L16.75,12 C17.85,12 18.75,12.9 18.75,14 C18.75,15.1 17.85,16 16.75,16 L14.5,16 L14.5,14 L11.5,17 L14.5,20 L14.5,18 L16.5,18 C18.71,18 20.5,16.21 20.5,14 C20.5,11.79 18.71,10 16.5,10 Z" id="path-1"></path>
    </defs>
    <g id="icon/editor/wrap_text_24px" stroke="none" stroke-width="1" fill="none" fill-rule="evenodd">
        <mask id="mask-2" fill="white">
            <use xlink:href="#path-1"></use>
        </mask>
        <g fill-rule="nonzero"></g>
        <g id="✱-/-Color-/-Icons-/-Black-/-Inactive" mask="url(#mask-2)" fill="#000000" fill-opacity="0.54">
            <rect id="Rectangle" x="0" y="0" width="24" height="24"></rect>
        </g>
    </g>
</svg>