<?xml version="1.0" encoding="UTF-8"?>
<svg width="24px" height="24px" viewBox="0 0 24 24" version="1.1" xmlns="http://www.w3.org/2000/svg" xmlns:xlink="http://www.w3.org/1999/xlink">
    <!-- Generator: Sketch 50 (54983) - http://www.bohemiancoding.com/sketch -->
    <title>icon/hardware/device_hub_24px_outlined</title>
    <desc>Created with Sketch.</desc>
    <defs>
        <path d="M17,16 L13,12 L13,8.82 C14.16,8.4 15,7.3 15,6 C15,4.34 13.66,3 12,3 C10.34,3 9,4.34 9,6 C9,7.3 9.84,8.4 11,8.82 L11,12 L7,16 L3,16 L3,21 L8,21 L8,17.95 L12,13.75 L16,17.95 L16,21 L21,21 L21,16 L17,16 Z" id="path-1"></path>
    </defs>
    <g id="icon/hardware/device_hub_24px" stroke="none" stroke-width="1" fill="none" fill-rule="evenodd">
        <mask id="mask-2" fill="white">
            <use xlink:href="#path-1"></use>
        </mask>
        <g fill-rule="nonzero"></g>
        <g id="✱-/-Color-/-Icons-/-Black-/-Inactive" mask="url(#mask-2)" fill="#000000" fill-opacity="0.54">
            <rect id="Rectangle" x="0" y="0" width="24" height="24"></rect>
        </g>
    </g>
</svg>