<?xml version="1.0" encoding="UTF-8"?>
<svg width="24px" height="24px" viewBox="0 0 24 24" version="1.1" xmlns="http://www.w3.org/2000/svg" xmlns:xlink="http://www.w3.org/1999/xlink">
    <!-- Generator: Sketch 50 (54983) - http://www.bohemiancoding.com/sketch -->
    <title>icon/hardware/keyboard_hide_24px_outlined</title>
    <desc>Created with Sketch.</desc>
    <defs>
        <path d="M20,2 L4,2 C2.9,2 2.01,2.9 2.01,4 L2,14 C2,15.1 2.9,16 4,16 L20,16 C21.1,16 22,15.1 22,14 L22,4 C22,2.9 21.1,2 20,2 Z M20,14 L4,14 L4,4 L20,4 L20,14 Z M11,5 L13,5 L13,7 L11,7 L11,5 Z M11,8 L13,8 L13,10 L11,10 L11,8 Z M8,5 L10,5 L10,7 L8,7 L8,5 Z M8,8 L10,8 L10,10 L8,10 L8,8 Z M5,8 L7,8 L7,10 L5,10 L5,8 Z M5,5 L7,5 L7,7 L5,7 L5,5 Z M8,11 L16,11 L16,13 L8,13 L8,11 Z M14,8 L16,8 L16,10 L14,10 L14,8 Z M14,5 L16,5 L16,7 L14,7 L14,5 Z M17,8 L19,8 L19,10 L17,10 L17,8 Z M17,5 L19,5 L19,7 L17,7 L17,5 Z M12,22 L16,18 L8,18 L12,22 Z" id="path-1"></path>
    </defs>
    <g id="icon/hardware/keyboard_hide_24px" stroke="none" stroke-width="1" fill="none" fill-rule="evenodd">
        <mask id="mask-2" fill="white">
            <use xlink:href="#path-1"></use>
        </mask>
        <g fill-rule="nonzero"></g>
        <g id="✱-/-Color-/-Icons-/-Black-/-Inactive" mask="url(#mask-2)" fill="#000000" fill-opacity="0.54">
            <rect id="Rectangle" x="0" y="0" width="24" height="24"></rect>
        </g>
    </g>
</svg>