<?xml version="1.0" encoding="UTF-8"?>
<svg width="24px" height="24px" viewBox="0 0 24 24" version="1.1" xmlns="http://www.w3.org/2000/svg" xmlns:xlink="http://www.w3.org/1999/xlink">
    <!-- Generator: Sketch 50 (54983) - http://www.bohemiancoding.com/sketch -->
    <title>icon/hardware/mouse_24px_outlined</title>
    <desc>Created with Sketch.</desc>
    <defs>
        <path d="M20,8.965 C19.96,4.575 16.4,1.035 12,1.035 C7.6,1.035 4.04,4.575 4,8.965 L4,14.965 C4,19.385 7.58,22.965 12,22.965 C16.42,22.965 20,19.385 20,14.965 L20,8.965 Z M18,8.965 L13,8.965 L13,3.125 C15.81,3.595 17.96,6.025 18,8.965 Z M11,3.125 L11,8.965 L6,8.965 C6.04,6.025 8.19,3.595 11,3.125 Z M18,14.965 C18,18.275 15.31,20.965 12,20.965 C8.69,20.965 6,18.275 6,14.965 L6,10.965 L18,10.965 L18,14.965 Z" id="path-1"></path>
    </defs>
    <g id="icon/hardware/mouse_24px" stroke="none" stroke-width="1" fill="none" fill-rule="evenodd">
        <mask id="mask-2" fill="white">
            <use xlink:href="#path-1"></use>
        </mask>
        <g fill-rule="nonzero"></g>
        <g id="✱-/-Color-/-Icons-/-Black-/-Inactive" mask="url(#mask-2)" fill="#000000" fill-opacity="0.54">
            <rect id="Rectangle" x="0" y="0" width="24" height="24"></rect>
        </g>
    </g>
</svg>