<?xml version="1.0" encoding="UTF-8"?>
<svg width="24px" height="24px" viewBox="0 0 24 24" version="1.1" xmlns="http://www.w3.org/2000/svg" xmlns:xlink="http://www.w3.org/1999/xlink">
    <!-- Generator: Sketch 50 (54983) - http://www.bohemiancoding.com/sketch -->
    <title>icon/hardware/scanner_24px_outlined</title>
    <desc>Created with Sketch.</desc>
    <defs>
        <path d="M19.8,10.2 L4.2,4.5 L3.5,6.4 L17.6,11.5 L5,11.5 C3.9,11.5 3,12.4 3,13.5 L3,17.5 C3,18.6 3.9,19.5 5,19.5 L19,19.5 C20.1,19.5 21,18.6 21,17.5 L21,12 C21,11.2 20.5,10.4 19.8,10.2 Z M19,17.5 L5,17.5 L5,13.5 L19,13.5 L19,17.5 Z M6,14.5 L8,14.5 L8,16.5 L6,16.5 L6,14.5 Z M10,14.5 L18,14.5 L18,16.5 L10,16.5 L10,14.5 Z" id="path-1"></path>
    </defs>
    <g id="icon/hardware/scanner_24px" stroke="none" stroke-width="1" fill="none" fill-rule="evenodd">
        <mask id="mask-2" fill="white">
            <use xlink:href="#path-1"></use>
        </mask>
        <g fill-rule="nonzero"></g>
        <g id="✱-/-Color-/-Icons-/-Black-/-Inactive" mask="url(#mask-2)" fill="#000000" fill-opacity="0.54">
            <rect id="Rectangle" x="0" y="0" width="24" height="24"></rect>
        </g>
    </g>
</svg>