<?xml version="1.0" encoding="UTF-8"?>
<svg width="24px" height="24px" viewBox="0 0 24 24" version="1.1" xmlns="http://www.w3.org/2000/svg" xmlns:xlink="http://www.w3.org/1999/xlink">
    <!-- Generator: Sketch 50 (54983) - http://www.bohemiancoding.com/sketch -->
    <title>icon/hardware/sim_card_24px_outlined</title>
    <desc>Created with Sketch.</desc>
    <defs>
        <path d="M18,2 L10,2 L4,8 L4,20 C4,21.1 4.9,22 6,22 L18,22 C19.1,22 20,21.1 20,20 L20,4 C20,2.9 19.1,2 18,2 Z M18,4 L18,20 L6,20 L6,8.83 L10.83,4 L18,4 Z M7,17 L9,17 L9,19 L7,19 L7,17 Z M15,17 L17,17 L17,19 L15,19 L15,17 Z M7,11 L9,11 L9,15 L7,15 L7,11 Z M11,15 L13,15 L13,19 L11,19 L11,15 Z M11,11 L13,11 L13,13 L11,13 L11,11 Z M15,11 L17,11 L17,15 L15,15 L15,11 Z" id="path-1"></path>
    </defs>
    <g id="icon/hardware/sim_card_24px" stroke="none" stroke-width="1" fill="none" fill-rule="evenodd">
        <mask id="mask-2" fill="white">
            <use xlink:href="#path-1"></use>
        </mask>
        <g fill-rule="nonzero"></g>
        <g id="✱-/-Color-/-Icons-/-Black-/-Inactive" mask="url(#mask-2)" fill="#000000" fill-opacity="0.54">
            <rect id="Rectangle" x="0" y="0" width="24" height="24"></rect>
        </g>
    </g>
</svg>