<?xml version="1.0" encoding="UTF-8"?>
<svg width="24px" height="24px" viewBox="0 0 24 24" version="1.1" xmlns="http://www.w3.org/2000/svg" xmlns:xlink="http://www.w3.org/1999/xlink">
    <!-- Generator: Sketch 50 (54983) - http://www.bohemiancoding.com/sketch -->
    <title>icon/hardware/tablet_mac_24px_outlined</title>
    <desc>Created with Sketch.</desc>
    <defs>
        <path d="M19,0 L5,0 C3.62,0 2.5,1.12 2.5,2.5 L2.5,21.5 C2.5,22.88 3.62,24 5,24 L19,24 C20.38,24 21.5,22.88 21.5,21.5 L21.5,2.5 C21.5,1.12 20.38,0 19,0 Z M12,23 C11.17,23 10.5,22.33 10.5,21.5 C10.5,20.67 11.17,20 12,20 C12.83,20 13.5,20.67 13.5,21.5 C13.5,22.33 12.83,23 12,23 Z M19.5,19 L4.5,19 L4.5,3 L19.5,3 L19.5,19 Z" id="path-1"></path>
    </defs>
    <g id="icon/hardware/tablet_mac_24px" stroke="none" stroke-width="1" fill="none" fill-rule="evenodd">
        <mask id="mask-2" fill="white">
            <use xlink:href="#path-1"></use>
        </mask>
        <g fill-rule="nonzero"></g>
        <g id="✱-/-Color-/-Icons-/-Black-/-Inactive" mask="url(#mask-2)" fill="#000000" fill-opacity="0.54">
            <rect id="Rectangle" x="0" y="0" width="24" height="24"></rect>
        </g>
    </g>
</svg>