<?xml version="1.0" encoding="UTF-8"?>
<svg width="24px" height="24px" viewBox="0 0 24 24" version="1.1" xmlns="http://www.w3.org/2000/svg" xmlns:xlink="http://www.w3.org/1999/xlink">
    <!-- Generator: Sketch 50 (54983) - http://www.bohemiancoding.com/sketch -->
    <title>icon/hardware/toys_24px_outlined</title>
    <desc>Created with Sketch.</desc>
    <defs>
        <path d="M12,23 L11,23 L11,16.43 C9.93,17.4 8.52,18 7,18 C3.75,18 1,15.25 1,12 L1,11 L7.57,11 C6.6,9.93 6,8.52 6,7 C6,3.75 8.75,1 12,1 L13,1 L13,7.57 C14.07,6.6 15.48,6 17,6 C20.25,6 23,8.75 23,12 L23,13 L16.43,13 C17.4,14.07 18,15.48 18,17 C18,20.25 15.25,23 12,23 Z M13,13.13 L13,20.87 C14.7,20.41 16,18.83 16,17 C16,15.17 14.7,13.59 13,13.13 Z M3.13,13 C3.59,14.7 5.17,16 7,16 C8.83,16 10.41,14.7 10.87,13 L3.13,13 Z M13.13,11 L20.87,11 C20.41,9.3 18.82,8 17,8 C15.18,8 13.59,9.3 13.13,11 Z M11,3.13 C9.3,3.59 8,5.18 8,7 C8,8.82 9.3,10.41 11,10.87 L11,3.13 Z" id="path-1"></path>
    </defs>
    <g id="icon/hardware/toys_24px" stroke="none" stroke-width="1" fill="none" fill-rule="evenodd">
        <mask id="mask-2" fill="white">
            <use xlink:href="#path-1"></use>
        </mask>
        <g fill-rule="nonzero"></g>
        <g id="✱-/-Color-/-Icons-/-Black-/-Inactive" mask="url(#mask-2)" fill="#000000" fill-opacity="0.54">
            <rect id="Rectangle" x="0" y="0" width="24" height="24"></rect>
        </g>
    </g>
</svg>