<?xml version="1.0" encoding="UTF-8"?>
<svg width="24px" height="24px" viewBox="0 0 24 24" version="1.1" xmlns="http://www.w3.org/2000/svg" xmlns:xlink="http://www.w3.org/1999/xlink">
    <!-- Generator: Sketch 50 (54983) - http://www.bohemiancoding.com/sketch -->
    <title>icon/av/4k_24px_two_tone</title>
    <desc>Created with Sketch.</desc>
    <defs>
        <path d="M14,0 L0,0 L0,14 L14,14 L14,0 Z M7,8.51 L6,8.51 L6,10 L4.5,10 L4.5,8.5 L1.5,8.5 L1.5,4 L3,4 L3,7 L4.5,7 L4.5,4 L6,4 L6,7 L7,7 L7,8.51 Z M13.2,10 L11.5,10 L9.5,7 L9.5,10 L8,10 L8,4 L9.5,4 L9.5,7 L11.5,4 L13.2,4 L11.2,7 L13.2,10 Z" id="path-1"></path>
        <path d="M2,18 L16,18 C17.1,18 18,17.1 18,16 L18,2 C18,0.9 17.11,0 16,0 L2,0 C0.9,0 0,0.9 0,2 L0,16 C0,17.1 0.89,18 2,18 Z M2,2 L16,2 L16,16 L2,16 L2,2 Z" id="path-3"></path>
        <polygon id="path-5" points="5 0 3.5 0 3.5 3 2 3 2 0 0.5 0 0.5 4.5 3.5 4.5 3.5 6 5 6 5 4.51 6 4.51 6 3 5 3"></polygon>
        <polygon id="path-7" points="2.5 0 0.5 3 2.5 6 4.2 6 2.2 3 4.2 0"></polygon>
        <polygon id="path-9" points="0 0 0 6 1.5 6 1.5 3 1.5 0"></polygon>
    </defs>
    <g id="icon/av/4k_24px" stroke="none" stroke-width="1" fill="none" fill-rule="evenodd">
        <g id="↳-Light-Color" transform="translate(5.000000, 5.000000)">
            <mask id="mask-2" fill="white">
                <use xlink:href="#path-1"></use>
            </mask>
            <g id="Mask" opacity="0.3" fill-rule="nonzero"></g>
            <g id="✱-/-Color-/-Icons-/-Black-/-Disabled" mask="url(#mask-2)" fill="#000000" fill-opacity="0.38">
                <rect id="Rectangle" x="0" y="0" width="101" height="101"></rect>
            </g>
        </g>
        <g id="↳-Dark-Color" transform="translate(3.000000, 3.000000)">
            <mask id="mask-4" fill="white">
                <use xlink:href="#path-3"></use>
            </mask>
            <g id="Mask" fill-rule="nonzero"></g>
            <g id="✱-/-Color-/-Icons-/-Black-/-Inactive" mask="url(#mask-4)" fill="#000000" fill-opacity="0.54">
                <rect id="Rectangle" x="0" y="0" width="101" height="101"></rect>
            </g>
        </g>
        <g id="↳-Dark-Color" transform="translate(6.000000, 9.000000)">
            <mask id="mask-6" fill="white">
                <use xlink:href="#path-5"></use>
            </mask>
            <g id="Mask" fill-rule="nonzero"></g>
            <g id="✱-/-Color-/-Icons-/-Black-/-Inactive" mask="url(#mask-6)" fill="#000000" fill-opacity="0.54">
                <rect id="Rectangle" x="0" y="0" width="101" height="101"></rect>
            </g>
        </g>
        <g id="↳-Dark-Color" transform="translate(14.000000, 9.000000)">
            <mask id="mask-8" fill="white">
                <use xlink:href="#path-7"></use>
            </mask>
            <g id="Mask" fill-rule="nonzero"></g>
            <g id="✱-/-Color-/-Icons-/-Black-/-Inactive" mask="url(#mask-8)" fill="#000000" fill-opacity="0.54">
                <rect id="Rectangle" x="0" y="0" width="101" height="101"></rect>
            </g>
        </g>
        <g id="↳-Dark-Color" transform="translate(13.000000, 9.000000)">
            <mask id="mask-10" fill="white">
                <use xlink:href="#path-9"></use>
            </mask>
            <g id="Mask" fill-rule="nonzero"></g>
            <g id="✱-/-Color-/-Icons-/-Black-/-Inactive" mask="url(#mask-10)" fill="#000000" fill-opacity="0.54">
                <rect id="Rectangle" x="0" y="0" width="101" height="101"></rect>
            </g>
        </g>
    </g>
</svg>