<?xml version="1.0" encoding="UTF-8"?>
<svg width="24px" height="24px" viewBox="0 0 24 24" version="1.1" xmlns="http://www.w3.org/2000/svg" xmlns:xlink="http://www.w3.org/1999/xlink">
    <!-- Generator: Sketch 50 (54983) - http://www.bohemiancoding.com/sketch -->
    <title>icon/av/forward_30_24px_two_tone</title>
    <desc>Created with Sketch.</desc>
    <defs>
        <path d="M14,12 C14,15.31 11.31,18 8,18 C4.69,18 2,15.31 2,12 C2,8.69 4.69,6 8,6 L8,10 L13,5 L8,0 L8,4 C3.58,4 0,7.58 0,12 C0,16.42 3.58,20 8,20 C12.42,20 16,16.42 16,12 L14,12 Z" id="path-1"></path>
        <path d="M2.54,4.22 C2.48,4.27 2.42,4.31 2.34,4.34 C2.26,4.37 2.17,4.38 2.07,4.38 C1.98,4.38 1.9,4.37 1.82,4.34 C1.74,4.31 1.68,4.28 1.62,4.23 C1.56,4.18 1.52,4.13 1.49,4.06 C1.46,3.99 1.44,3.92 1.44,3.84 L0.59,3.84 C0.59,4.05 0.63,4.23 0.71,4.39 C0.79,4.55 0.9,4.67 1.04,4.77 C1.18,4.87 1.33,4.95 1.5,5 C1.67,5.05 1.85,5.07 2.03,5.07 C2.24,5.07 2.44,5.04 2.63,4.99 C2.82,4.94 2.97,4.85 3.11,4.75 C3.25,4.65 3.35,4.51 3.43,4.36 C3.51,4.21 3.55,4.03 3.55,3.83 C3.55,3.6 3.49,3.39 3.37,3.22 C3.25,3.05 3.07,2.92 2.83,2.83 C2.93,2.78 3.03,2.73 3.11,2.66 C3.19,2.59 3.26,2.52 3.31,2.44 C3.36,2.36 3.41,2.28 3.44,2.19 C3.47,2.1 3.48,2.01 3.48,1.92 C3.48,1.72 3.44,1.55 3.37,1.39 C3.3,1.23 3.2,1.11 3.07,1.01 C2.94,0.91 2.79,0.83 2.61,0.78 C2.43,0.73 2.24,0.7 2.02,0.7 C1.83,0.7 1.64,0.73 1.48,0.78 C1.32,0.83 1.16,0.91 1.04,1.01 C0.92,1.11 0.81,1.23 0.74,1.38 C0.67,1.53 0.63,1.68 0.63,1.86 L1.48,1.86 C1.48,1.79 1.5,1.72 1.53,1.66 C1.56,1.6 1.6,1.55 1.65,1.51 C1.7,1.47 1.76,1.44 1.83,1.41 C1.9,1.38 1.97,1.38 2.05,1.38 C2.15,1.38 2.23,1.39 2.3,1.42 C2.37,1.45 2.43,1.48 2.48,1.53 C2.53,1.58 2.56,1.64 2.59,1.7 C2.62,1.76 2.63,1.84 2.63,1.92 C2.63,2.1 2.58,2.24 2.47,2.35 C2.36,2.46 2.21,2.51 1.99,2.51 L1.56,2.51 L1.56,3.17 L2.01,3.17 C2.12,3.17 2.21,3.18 2.3,3.21 C2.39,3.24 2.46,3.27 2.52,3.32 C2.58,3.37 2.63,3.44 2.66,3.52 C2.69,3.6 2.71,3.7 2.71,3.81 C2.71,3.9 2.7,3.98 2.67,4.05 C2.64,4.12 2.59,4.16 2.54,4.22 Z" id="path-3"></path>
        <path d="M2.44,0.78 C2.26,0.71 2.07,0.68 1.85,0.68 C1.63,0.68 1.44,0.71 1.26,0.78 C1.08,0.85 0.93,0.96 0.81,1.11 C0.69,1.26 0.58,1.45 0.52,1.68 C0.46,1.91 0.42,2.18 0.42,2.5 L0.42,3.24 C0.42,3.56 0.46,3.84 0.53,4.06 C0.6,4.28 0.7,4.48 0.83,4.63 C0.96,4.78 1.11,4.89 1.29,4.96 C1.47,5.03 1.66,5.06 1.88,5.06 C2.1,5.06 2.29,5.03 2.47,4.96 C2.65,4.89 2.8,4.78 2.92,4.63 C3.04,4.48 3.14,4.29 3.21,4.06 C3.28,3.83 3.31,3.56 3.31,3.24 L3.31,2.5 C3.31,2.18 3.27,1.9 3.2,1.68 C3.13,1.46 3.03,1.26 2.9,1.11 C2.77,0.96 2.62,0.85 2.44,0.78 Z M2.45,3.35 C2.45,3.54 2.44,3.7 2.41,3.83 C2.38,3.96 2.35,4.07 2.3,4.15 C2.25,4.23 2.19,4.29 2.11,4.32 C2.03,4.35 1.95,4.37 1.86,4.37 C1.77,4.37 1.68,4.35 1.61,4.32 C1.54,4.29 1.47,4.23 1.42,4.15 C1.37,4.07 1.33,3.96 1.3,3.83 C1.27,3.7 1.26,3.54 1.26,3.35 L1.26,2.38 C1.26,2.19 1.27,2.03 1.3,1.9 C1.33,1.77 1.36,1.67 1.42,1.59 C1.48,1.51 1.53,1.45 1.61,1.42 C1.69,1.39 1.77,1.37 1.86,1.37 C1.95,1.37 2.04,1.39 2.11,1.42 C2.18,1.45 2.25,1.51 2.3,1.59 C2.35,1.67 2.39,1.77 2.42,1.9 C2.45,2.03 2.46,2.19 2.46,2.38 L2.46,3.35 L2.45,3.35 Z" id="path-5"></path>
    </defs>
    <g id="icon/av/forward_30_24px" stroke="none" stroke-width="1" fill="none" fill-rule="evenodd">
        <g id="↳-Dark-Color" transform="translate(4.000000, 1.000000)">
            <mask id="mask-2" fill="white">
                <use xlink:href="#path-1"></use>
            </mask>
            <g id="Mask" fill-rule="nonzero"></g>
            <g id="✱-/-Color-/-Icons-/-Black-/-Inactive" mask="url(#mask-2)" fill="#000000" fill-opacity="0.54">
                <rect id="Rectangle" x="0" y="0" width="101" height="101"></rect>
            </g>
        </g>
        <g id="↳-Dark-Color" transform="translate(8.000000, 11.000000)">
            <mask id="mask-4" fill="white">
                <use xlink:href="#path-3"></use>
            </mask>
            <g id="Mask" fill-rule="nonzero"></g>
            <g id="✱-/-Color-/-Icons-/-Black-/-Inactive" mask="url(#mask-4)" fill="#000000" fill-opacity="0.54">
                <rect id="Rectangle" x="0" y="0" width="101" height="101"></rect>
            </g>
        </g>
        <g id="↳-Dark-Color" transform="translate(12.000000, 11.000000)">
            <mask id="mask-6" fill="white">
                <use xlink:href="#path-5"></use>
            </mask>
            <g id="Mask" fill-rule="nonzero"></g>
            <g id="✱-/-Color-/-Icons-/-Black-/-Inactive" mask="url(#mask-6)" fill="#000000" fill-opacity="0.54">
                <rect id="Rectangle" x="0" y="0" width="101" height="101"></rect>
            </g>
        </g>
    </g>
</svg>