<?xml version="1.0" encoding="UTF-8"?>
<svg width="24px" height="24px" viewBox="0 0 24 24" version="1.1" xmlns="http://www.w3.org/2000/svg" xmlns:xlink="http://www.w3.org/1999/xlink">
    <!-- Generator: Sketch 50 (54983) - http://www.bohemiancoding.com/sketch -->
    <title>icon/av/hearing_24px_two_tone</title>
    <desc>Created with Sketch.</desc>
    <defs>
        <path d="M4.64,1.64 L3.22,0.22 C1.23,2.21 0,4.96 0,8 C0,11.04 1.23,13.79 3.22,15.78 L4.63,14.37 C3.01,12.74 2,10.49 2,8 C2,5.51 3.01,3.26 4.64,1.64 Z" id="path-1"></path>
        <circle id="path-3" cx="3" cy="3" r="2.5"></circle>
        <path d="M10,18 C9.71,18 9.44,17.94 9.24,17.85 C8.53,17.48 8.03,16.97 7.53,15.47 C7.02,13.91 6.06,13.18 5.14,12.47 C4.35,11.86 3.53,11.23 2.82,9.94 C2.29,8.98 2,7.93 2,7 C2,4.2 4.2,2 7,2 C9.8,2 12,4.2 12,7 L14,7 C14,3.07 10.93,0 7,0 C3.07,0 0,3.07 0,7 C0,8.26 0.38,9.65 1.07,10.9 C1.98,12.55 3.05,13.38 3.92,14.05 C4.73,14.67 5.31,15.12 5.63,16.1 C6.23,17.92 7,18.94 8.36,19.65 C8.87,19.88 9.43,20 10,20 C12.21,20 14,18.21 14,16 L12,16 C12,17.1 11.1,18 10,18 Z" id="path-5"></path>
    </defs>
    <g id="icon/av/hearing_24px" stroke="none" stroke-width="1" fill="none" fill-rule="evenodd">
        <g id="↳-Dark-Color" transform="translate(3.000000, 1.000000)">
            <mask id="mask-2" fill="white">
                <use xlink:href="#path-1"></use>
            </mask>
            <g id="Mask" fill-rule="nonzero"></g>
            <g id="✱-/-Color-/-Icons-/-Black-/-Inactive" mask="url(#mask-2)" fill="#000000" fill-opacity="0.54">
                <rect id="Rectangle" x="0" y="0" width="101" height="101"></rect>
            </g>
        </g>
        <g id="↳-Dark-Color" transform="translate(11.000000, 6.000000)">
            <mask id="mask-4" fill="white">
                <use xlink:href="#path-3"></use>
            </mask>
            <g id="Mask" fill-rule="nonzero"></g>
            <g id="✱-/-Color-/-Icons-/-Black-/-Inactive" mask="url(#mask-4)" fill="#000000" fill-opacity="0.54">
                <rect id="Rectangle" x="0" y="0" width="101" height="101"></rect>
            </g>
        </g>
        <g id="↳-Dark-Color" transform="translate(7.000000, 2.000000)">
            <mask id="mask-6" fill="white">
                <use xlink:href="#path-5"></use>
            </mask>
            <g id="Mask" fill-rule="nonzero"></g>
            <g id="✱-/-Color-/-Icons-/-Black-/-Inactive" mask="url(#mask-6)" fill="#000000" fill-opacity="0.54">
                <rect id="Rectangle" x="0" y="0" width="101" height="101"></rect>
            </g>
        </g>
    </g>
</svg>