<?xml version="1.0" encoding="UTF-8"?>
<svg width="24px" height="24px" viewBox="0 0 24 24" version="1.1" xmlns="http://www.w3.org/2000/svg" xmlns:xlink="http://www.w3.org/1999/xlink">
    <!-- Generator: Sketch 50 (54983) - http://www.bohemiancoding.com/sketch -->
    <title>icon/av/high_quality_24px_two_tone</title>
    <desc>Created with Sketch.</desc>
    <defs>
        <path d="M14,0 L0,0 L0,12 L14,12 L14,0 Z M6,9 L4.5,9 L4.5,7 L2.5,7 L2.5,9 L1,9 L1,3 L2.5,3 L2.5,5.5 L4.5,5.5 L4.5,3 L6,3 L6,9 Z M13,8 C13,8.55 12.55,9 12,9 L11.25,9 L11.25,10.5 L9.75,10.5 L9.75,9 L9,9 C8.45,9 8,8.55 8,8 L8,4 C8,3.45 8.45,3 9,3 L12,3 C12.55,3 13,3.45 13,4 L13,8 Z" id="path-1"></path>
        <rect id="path-3" x="0.5" y="0.5" width="2" height="3"></rect>
        <path d="M0,2 L0,14 C0,15.1 0.89,16 2,16 L16,16 C17.1,16 18,15.1 18,14 L18,2 C18,0.9 17.1,0 16,0 L2,0 C0.89,0 0,0.9 0,2 Z M2,2 L16,2 L16,14 L2,14 L2,2 Z" id="path-5"></path>
        <polygon id="path-7" points="3.5 2.5 1.5 2.5 1.5 0 0 0 0 6 1.5 6 1.5 4 3.5 4 3.5 6 5 6 5 0 3.5 0"></polygon>
        <path d="M4,0 L1,0 C0.45,0 0,0.45 0,1 L0,5 C0,5.55 0.45,6 1,6 L1.75,6 L1.75,7.5 L3.25,7.5 L3.25,6 L4,6 C4.55,6 5,5.55 5,5 L5,1 C5,0.45 4.55,0 4,0 Z M3.5,4.5 L1.5,4.5 L1.5,1.5 L3.5,1.5 L3.5,4.5 Z" id="path-9"></path>
    </defs>
    <g id="icon/av/high_quality_24px" stroke="none" stroke-width="1" fill="none" fill-rule="evenodd">
        <g id="↳-Light-Color" transform="translate(5.000000, 6.000000)">
            <mask id="mask-2" fill="white">
                <use xlink:href="#path-1"></use>
            </mask>
            <g id="Mask" opacity="0.3" fill-rule="nonzero"></g>
            <g id="✱-/-Color-/-Icons-/-Black-/-Disabled" mask="url(#mask-2)" fill="#000000" fill-opacity="0.38">
                <rect id="Rectangle" x="0" y="0" width="101" height="101"></rect>
            </g>
        </g>
        <g id="↳-Light-Color" transform="translate(14.000000, 10.000000)">
            <mask id="mask-4" fill="white">
                <use xlink:href="#path-3"></use>
            </mask>
            <g id="Mask" opacity="0.3" fill-rule="nonzero"></g>
            <g id="✱-/-Color-/-Icons-/-Black-/-Disabled" mask="url(#mask-4)" fill="#000000" fill-opacity="0.38">
                <rect id="Rectangle" x="0" y="0" width="101" height="101"></rect>
            </g>
        </g>
        <g id="↳-Dark-Color" transform="translate(3.000000, 4.000000)">
            <mask id="mask-6" fill="white">
                <use xlink:href="#path-5"></use>
            </mask>
            <g id="Mask" fill-rule="nonzero"></g>
            <g id="✱-/-Color-/-Icons-/-Black-/-Inactive" mask="url(#mask-6)" fill="#000000" fill-opacity="0.54">
                <rect id="Rectangle" x="0" y="0" width="101" height="101"></rect>
            </g>
        </g>
        <g id="↳-Dark-Color" transform="translate(6.000000, 9.000000)">
            <mask id="mask-8" fill="white">
                <use xlink:href="#path-7"></use>
            </mask>
            <g id="Mask" fill-rule="nonzero"></g>
            <g id="✱-/-Color-/-Icons-/-Black-/-Inactive" mask="url(#mask-8)" fill="#000000" fill-opacity="0.54">
                <rect id="Rectangle" x="0" y="0" width="101" height="101"></rect>
            </g>
        </g>
        <g id="↳-Dark-Color" transform="translate(13.000000, 9.000000)">
            <mask id="mask-10" fill="white">
                <use xlink:href="#path-9"></use>
            </mask>
            <g id="Mask" fill-rule="nonzero"></g>
            <g id="✱-/-Color-/-Icons-/-Black-/-Inactive" mask="url(#mask-10)" fill="#000000" fill-opacity="0.54">
                <rect id="Rectangle" x="0" y="0" width="101" height="101"></rect>
            </g>
        </g>
    </g>
</svg>