<?xml version="1.0" encoding="UTF-8"?>
<svg width="24px" height="24px" viewBox="0 0 24 24" version="1.1" xmlns="http://www.w3.org/2000/svg" xmlns:xlink="http://www.w3.org/1999/xlink">
    <!-- Generator: Sketch 50 (54983) - http://www.bohemiancoding.com/sketch -->
    <title>icon/av/library_music_24px_two_tone</title>
    <desc>Created with Sketch.</desc>
    <defs>
        <path d="M0,12 L12,12 L12,0 L0,0 L0,12 Z M4.5,6 C5.07,6 5.58,6.19 6,6.51 L6,1 L10,1 L10,3 L7,3 L7,8.5 C7,9.88 5.88,11 4.5,11 C3.12,11 2,9.88 2,8.5 C2,7.12 3.12,6 4.5,6 Z" id="path-1"></path>
        <path d="M14,0 L2,0 C0.9,0 0,0.9 0,2 L0,14 C0,15.1 0.9,16 2,16 L14,16 C15.1,16 16,15.1 16,14 L16,2 C16,0.9 15.1,0 14,0 Z M14,14 L2,14 L2,2 L14,2 L14,14 Z" id="path-3"></path>
        <path d="M2.5,10 C3.88,10 5,8.88 5,7.5 L5,2 L8,2 L8,0 L4,0 L4,5.51 C3.58,5.19 3.07,5 2.5,5 C1.12,5 0,6.12 0,7.5 C0,8.88 1.12,10 2.5,10 Z" id="path-5"></path>
        <path d="M0,0 L0,14 C0,15.1 0.9,16 2,16 L16,16 L16,14 L2,14 L2,0 L0,0 Z" id="path-7"></path>
    </defs>
    <g id="icon/av/library_music_24px" stroke="none" stroke-width="1" fill="none" fill-rule="evenodd">
        <g id="↳-Light-Color" transform="translate(8.000000, 4.000000)">
            <mask id="mask-2" fill="white">
                <use xlink:href="#path-1"></use>
            </mask>
            <g id="Mask" opacity="0.3" fill-rule="nonzero"></g>
            <g id="✱-/-Color-/-Icons-/-Black-/-Disabled" mask="url(#mask-2)" fill="#000000" fill-opacity="0.38">
                <rect id="Rectangle" x="0" y="0" width="101" height="101"></rect>
            </g>
        </g>
        <g id="↳-Dark-Color" transform="translate(6.000000, 2.000000)">
            <mask id="mask-4" fill="white">
                <use xlink:href="#path-3"></use>
            </mask>
            <g id="Mask" fill-rule="nonzero"></g>
            <g id="✱-/-Color-/-Icons-/-Black-/-Inactive" mask="url(#mask-4)" fill="#000000" fill-opacity="0.54">
                <rect id="Rectangle" x="0" y="0" width="101" height="101"></rect>
            </g>
        </g>
        <g id="↳-Dark-Color" transform="translate(10.000000, 5.000000)">
            <mask id="mask-6" fill="white">
                <use xlink:href="#path-5"></use>
            </mask>
            <g id="Mask" fill-rule="nonzero"></g>
            <g id="✱-/-Color-/-Icons-/-Black-/-Inactive" mask="url(#mask-6)" fill="#000000" fill-opacity="0.54">
                <rect id="Rectangle" x="0" y="0" width="101" height="101"></rect>
            </g>
        </g>
        <g id="↳-Dark-Color" transform="translate(2.000000, 6.000000)">
            <mask id="mask-8" fill="white">
                <use xlink:href="#path-7"></use>
            </mask>
            <g id="Mask" fill-rule="nonzero"></g>
            <g id="✱-/-Color-/-Icons-/-Black-/-Inactive" mask="url(#mask-8)" fill="#000000" fill-opacity="0.54">
                <rect id="Rectangle" x="0" y="0" width="101" height="101"></rect>
            </g>
        </g>
    </g>
</svg>