<?xml version="1.0" encoding="UTF-8"?>
<svg width="24px" height="24px" viewBox="0 0 24 24" version="1.1" xmlns="http://www.w3.org/2000/svg" xmlns:xlink="http://www.w3.org/1999/xlink">
    <!-- Generator: Sketch 50 (54983) - http://www.bohemiancoding.com/sketch -->
    <title>icon/av/loop_24px_two_tone</title>
    <desc>Created with Sketch.</desc>
    <defs>
        <path d="M8,11 C4.69,11 2,8.31 2,5 C2,3.99 2.25,3.03 2.7,2.2 L1.24,0.74 C0.46,1.97 0,3.43 0,5 C0,9.42 3.58,13 8,13 L8,16 L12,12 L8,8 L8,11 Z" id="path-1"></path>
        <path d="M4,3 L4,0 L0,4 L4,8 L4,5 C7.31,5 10,7.69 10,11 C10,12.01 9.75,12.97 9.3,13.8 L10.76,15.26 C11.54,14.03 12,12.57 12,11 C12,6.58 8.42,3 4,3 Z" id="path-3"></path>
    </defs>
    <g id="icon/av/loop_24px" stroke="none" stroke-width="1" fill="none" fill-rule="evenodd">
        <g id="↳-Dark-Color" transform="translate(4.000000, 7.000000)">
            <mask id="mask-2" fill="white">
                <use xlink:href="#path-1"></use>
            </mask>
            <g id="Mask" fill-rule="nonzero"></g>
            <g id="✱-/-Color-/-Icons-/-Black-/-Inactive" mask="url(#mask-2)" fill="#000000" fill-opacity="0.54">
                <rect id="Rectangle" x="0" y="0" width="101" height="101"></rect>
            </g>
        </g>
        <g id="↳-Dark-Color" transform="translate(8.000000, 1.000000)">
            <mask id="mask-4" fill="white">
                <use xlink:href="#path-3"></use>
            </mask>
            <g id="Mask" fill-rule="nonzero"></g>
            <g id="✱-/-Color-/-Icons-/-Black-/-Inactive" mask="url(#mask-4)" fill="#000000" fill-opacity="0.54">
                <rect id="Rectangle" x="0" y="0" width="101" height="101"></rect>
            </g>
        </g>
    </g>
</svg>