<?xml version="1.0" encoding="UTF-8"?>
<svg width="24px" height="24px" viewBox="0 0 24 24" version="1.1" xmlns="http://www.w3.org/2000/svg" xmlns:xlink="http://www.w3.org/1999/xlink">
    <!-- Generator: Sketch 50 (54983) - http://www.bohemiancoding.com/sketch -->
    <title>icon/av/mic_off_24px_two_tone</title>
    <desc>Created with Sketch.</desc>
    <defs>
        <path d="M2,0.7 C1.34,0.7 0.8,1.24 0.8,1.9 L0.8,3.41 L3.19,5.8 L3.2,1.9 C3.2,1.24 2.66,0.7 2,0.7 Z" id="path-1"></path>
        <path d="M2,0 L0.3,0 C0.3,0.58 0.2,1.13 0.03,1.64 L1.3,2.91 C1.74,2.03 2,1.04 2,0 Z" id="path-3"></path>
        <path d="M1.41,0.86 L0,2.27 L6,8.27 L6,9 C6,10.66 7.34,12 9,12 C9.23,12 9.44,11.97 9.65,11.92 L11.31,13.58 C10.6,13.91 9.81,14.1 9,14.1 C6.24,14.1 3.7,12 3.7,9 L2,9 C2,12.41 4.72,15.23 8,15.72 L8,19 L10,19 L10,15.72 C10.91,15.59 11.77,15.27 12.55,14.82 L16.75,19.02 L18.16,17.61 L1.41,0.86 Z" id="path-5"></path>
        <path d="M1.8,2.9 C1.8,2.24 2.34,1.7 3,1.7 C3.66,1.7 4.2,2.24 4.2,2.9 L4.19,6.81 L6,8.6 L6,3 C6,1.34 4.66,0 3,0 C1.46,0 0.21,1.16 0.04,2.65 L1.8,4.41 L1.8,2.9 Z" id="path-7"></path>
    </defs>
    <g id="icon/av/mic_off_24px" stroke="none" stroke-width="1" fill="none" fill-rule="evenodd">
        <g id="↳-Light-Color" transform="translate(10.000000, 3.000000)">
            <mask id="mask-2" fill="white">
                <use xlink:href="#path-1"></use>
            </mask>
            <g id="Mask" opacity="0.3" fill-rule="nonzero"></g>
            <g id="✱-/-Color-/-Icons-/-Black-/-Disabled" mask="url(#mask-2)" fill="#000000" fill-opacity="0.38">
                <rect id="Rectangle" x="0" y="0" width="101" height="101"></rect>
            </g>
        </g>
        <g id="↳-Dark-Color" transform="translate(17.000000, 11.000000)">
            <mask id="mask-4" fill="white">
                <use xlink:href="#path-3"></use>
            </mask>
            <g id="Mask" fill-rule="nonzero"></g>
            <g id="✱-/-Color-/-Icons-/-Black-/-Inactive" mask="url(#mask-4)" fill="#000000" fill-opacity="0.54">
                <rect id="Rectangle" x="0" y="0" width="101" height="101"></rect>
            </g>
        </g>
        <g id="↳-Dark-Color" transform="translate(3.000000, 2.000000)">
            <mask id="mask-6" fill="white">
                <use xlink:href="#path-5"></use>
            </mask>
            <g id="Mask" fill-rule="nonzero"></g>
            <g id="✱-/-Color-/-Icons-/-Black-/-Inactive" mask="url(#mask-6)" fill="#000000" fill-opacity="0.54">
                <rect id="Rectangle" x="0" y="0" width="101" height="101"></rect>
            </g>
        </g>
        <g id="↳-Dark-Color" transform="translate(9.000000, 2.000000)">
            <mask id="mask-8" fill="white">
                <use xlink:href="#path-7"></use>
            </mask>
            <g id="Mask" fill-rule="nonzero"></g>
            <g id="✱-/-Color-/-Icons-/-Black-/-Inactive" mask="url(#mask-8)" fill="#000000" fill-opacity="0.54">
                <rect id="Rectangle" x="0" y="0" width="101" height="101"></rect>
            </g>
        </g>
    </g>
</svg>