<?xml version="1.0" encoding="UTF-8"?>
<svg width="24px" height="24px" viewBox="0 0 24 24" version="1.1" xmlns="http://www.w3.org/2000/svg" xmlns:xlink="http://www.w3.org/1999/xlink">
    <!-- Generator: Sketch 50 (54983) - http://www.bohemiancoding.com/sketch -->
    <title>icon/av/mic_none_24px_two_tone</title>
    <desc>Created with Sketch.</desc>
    <defs>
        <path d="M1,8 C1.55,8 2,7.55 2,7 L2,1 C2,0.45 1.55,0 1,0 C0.45,0 0,0.45 0,1 L0,7 C0,7.55 0.45,8 1,8 Z" id="path-1"></path>
        <path d="M3,12 C4.66,12 6,10.66 6,9 L6,3 C6,1.34 4.66,0 3,0 C1.34,0 0,1.34 0,3 L0,9 C0,10.66 1.34,12 3,12 Z M2,3 C2,2.45 2.45,2 3,2 C3.55,2 4,2.45 4,3 L4,9 C4,9.55 3.55,10 3,10 C2.45,10 2,9.55 2,9 L2,3 Z" id="path-3"></path>
        <path d="M12,0 C12,2.76 9.76,5 7,5 C4.24,5 2,2.76 2,0 L0,0 C0,3.53 2.61,6.43 6,6.92 L6,10 L8,10 L8,6.92 C11.39,6.43 14,3.53 14,0 L12,0 Z" id="path-5"></path>
    </defs>
    <g id="icon/av/mic_none_24px" stroke="none" stroke-width="1" fill="none" fill-rule="evenodd">
        <g id="↳-Light-Color" transform="translate(11.000000, 4.000000)">
            <mask id="mask-2" fill="white">
                <use xlink:href="#path-1"></use>
            </mask>
            <g id="Mask" opacity="0.3" fill-rule="nonzero"></g>
            <g id="✱-/-Color-/-Icons-/-Black-/-Disabled" mask="url(#mask-2)" fill="#000000" fill-opacity="0.38">
                <rect id="Rectangle" x="0" y="0" width="101" height="101"></rect>
            </g>
        </g>
        <g id="↳-Dark-Color" transform="translate(9.000000, 2.000000)">
            <mask id="mask-4" fill="white">
                <use xlink:href="#path-3"></use>
            </mask>
            <g id="Mask" fill-rule="nonzero"></g>
            <g id="✱-/-Color-/-Icons-/-Black-/-Inactive" mask="url(#mask-4)" fill="#000000" fill-opacity="0.54">
                <rect id="Rectangle" x="0" y="0" width="101" height="101"></rect>
            </g>
        </g>
        <g id="↳-Dark-Color" transform="translate(5.000000, 11.000000)">
            <mask id="mask-6" fill="white">
                <use xlink:href="#path-5"></use>
            </mask>
            <g id="Mask" fill-rule="nonzero"></g>
            <g id="✱-/-Color-/-Icons-/-Black-/-Inactive" mask="url(#mask-6)" fill="#000000" fill-opacity="0.54">
                <rect id="Rectangle" x="0" y="0" width="101" height="101"></rect>
            </g>
        </g>
    </g>
</svg>