<?xml version="1.0" encoding="UTF-8"?>
<svg width="24px" height="24px" viewBox="0 0 24 24" version="1.1" xmlns="http://www.w3.org/2000/svg" xmlns:xlink="http://www.w3.org/1999/xlink">
    <!-- Generator: Sketch 50 (54983) - http://www.bohemiancoding.com/sketch -->
    <title>icon/av/not_interested_24px_two_tone</title>
    <desc>Created with Sketch.</desc>
    <defs>
        <path d="M10,20 C15.52,20 20,15.52 20,10 C20,4.48 15.52,0 10,0 C4.48,0 0,4.48 0,10 C0,15.52 4.48,20 10,20 Z M10,2 C14.42,2 18,5.58 18,10 C18,11.85 17.37,13.55 16.31,14.9 L5.1,3.69 C6.45,2.63 8.15,2 10,2 Z M3.69,5.1 L14.9,16.31 C13.55,17.37 11.85,18 10,18 C5.58,18 2,14.42 2,10 C2,8.15 2.63,6.45 3.69,5.1 Z" id="path-1"></path>
    </defs>
    <g id="icon/av/not_interested_24px" stroke="none" stroke-width="1" fill="none" fill-rule="evenodd">
        <g id="↳-Dark-Color" transform="translate(2.000000, 2.000000)">
            <mask id="mask-2" fill="white">
                <use xlink:href="#path-1"></use>
            </mask>
            <g id="Mask" fill-rule="nonzero"></g>
            <g id="✱-/-Color-/-Icons-/-Black-/-Inactive" mask="url(#mask-2)" fill="#000000" fill-opacity="0.54">
                <rect id="Rectangle" x="0" y="0" width="101" height="101"></rect>
            </g>
        </g>
    </g>
</svg>