<?xml version="1.0" encoding="UTF-8"?>
<svg width="24px" height="24px" viewBox="0 0 24 24" version="1.1" xmlns="http://www.w3.org/2000/svg" xmlns:xlink="http://www.w3.org/1999/xlink">
    <!-- Generator: Sketch 50 (54983) - http://www.bohemiancoding.com/sketch -->
    <title>icon/av/radio_24px_two_tone</title>
    <desc>Created with Sketch.</desc>
    <defs>
        <path d="M16,0 L0,0 L0,7 L16,7 L16,0 Z M4,5.98 C2.62,5.98 1.5,4.86 1.5,3.48 C1.5,2.1 2.62,0.98 4,0.98 C5.38,0.98 6.5,2.1 6.5,3.48 C6.5,4.86 5.38,5.98 4,5.98 Z" id="path-1"></path>
        <path d="M0,19 C0,20.1 0.89,21 2,21 L18,21 C19.11,21 20,20.1 20,19 L20,7 C20,5.89 19.11,5 18,5 L6.3,5 L14.56,1.66 L13.88,0 L1.24,5.15 C0.51,5.43 0,6.17 0,7 L0,19 Z M2,7 L18,7 L18,10 L16,10 L16,8 L14,8 L14,10 L2,10 L2,7 Z M2,12 L18,12 L18,19 L2,19 L2,12 Z" id="path-3"></path>
        <circle id="path-5" cx="3" cy="3.48" r="2.5"></circle>
    </defs>
    <g id="icon/av/radio_24px" stroke="none" stroke-width="1" fill="none" fill-rule="evenodd">
        <g id="↳-Light-Color" transform="translate(4.000000, 13.000000)">
            <mask id="mask-2" fill="white">
                <use xlink:href="#path-1"></use>
            </mask>
            <g id="Mask" opacity="0.3" fill-rule="nonzero"></g>
            <g id="✱-/-Color-/-Icons-/-Black-/-Disabled" mask="url(#mask-2)" fill="#000000" fill-opacity="0.38">
                <rect id="Rectangle" x="0" y="0" width="101" height="101"></rect>
            </g>
        </g>
        <g id="↳-Dark-Color" transform="translate(2.000000, 1.000000)">
            <mask id="mask-4" fill="white">
                <use xlink:href="#path-3"></use>
            </mask>
            <g id="Mask" fill-rule="nonzero"></g>
            <g id="✱-/-Color-/-Icons-/-Black-/-Inactive" mask="url(#mask-4)" fill="#000000" fill-opacity="0.54">
                <rect id="Rectangle" x="0" y="0" width="101" height="101"></rect>
            </g>
        </g>
        <g id="↳-Dark-Color" transform="translate(5.000000, 13.000000)">
            <mask id="mask-6" fill="white">
                <use xlink:href="#path-5"></use>
            </mask>
            <g id="Mask" fill-rule="nonzero"></g>
            <g id="✱-/-Color-/-Icons-/-Black-/-Inactive" mask="url(#mask-6)" fill="#000000" fill-opacity="0.54">
                <rect id="Rectangle" x="0" y="0" width="101" height="101"></rect>
            </g>
        </g>
    </g>
</svg>