<?xml version="1.0" encoding="UTF-8"?>
<svg width="24px" height="24px" viewBox="0 0 24 24" version="1.1" xmlns="http://www.w3.org/2000/svg" xmlns:xlink="http://www.w3.org/1999/xlink">
    <!-- Generator: Sketch 50 (54983) - http://www.bohemiancoding.com/sketch -->
    <title>icon/av/replay_5_24px_two_tone</title>
    <desc>Created with Sketch.</desc>
    <defs>
        <path d="M8,4 L8,0 L3,5 L8,10 L8,6 C11.31,6 14,8.69 14,12 C14,15.31 11.31,18 8,18 C4.69,18 2,15.31 2,12 L0,12 C0,16.42 3.58,20 8,20 C12.42,20 16,16.42 16,12 C16,7.58 12.42,4 8,4 Z" id="path-1"></path>
        <path d="M0.69,2.9 L0.94,0.73 L3.33,0.73 L3.33,1.44 L1.63,1.44 L1.52,2.36 C1.55,2.34 1.59,2.33 1.63,2.31 C1.67,2.29 1.72,2.27 1.78,2.26 C1.84,2.25 1.9,2.23 1.96,2.22 C2.02,2.21 2.09,2.2 2.16,2.2 C2.37,2.2 2.55,2.23 2.71,2.3 C2.87,2.37 3.01,2.46 3.12,2.58 C3.23,2.7 3.32,2.85 3.37,3.03 C3.42,3.21 3.46,3.41 3.46,3.63 C3.46,3.82 3.43,4 3.37,4.17 C3.31,4.34 3.22,4.49 3.1,4.62 C2.98,4.75 2.83,4.86 2.65,4.93 C2.47,5 2.26,5.05 2.01,5.05 C1.83,5.05 1.65,5.02 1.48,4.97 C1.31,4.92 1.16,4.83 1.02,4.73 C0.88,4.63 0.78,4.49 0.7,4.34 C0.62,4.19 0.57,4.01 0.57,3.81 L1.41,3.81 C1.43,3.99 1.49,4.13 1.6,4.22 C1.71,4.31 1.85,4.37 2.02,4.37 C2.13,4.37 2.22,4.35 2.29,4.31 C2.36,4.27 2.43,4.21 2.47,4.14 C2.51,4.07 2.55,3.99 2.58,3.89 C2.61,3.79 2.61,3.69 2.61,3.58 C2.61,3.47 2.6,3.37 2.57,3.27 C2.54,3.17 2.5,3.1 2.44,3.03 C2.38,2.96 2.31,2.91 2.23,2.88 C2.15,2.85 2.04,2.83 1.93,2.83 C1.85,2.83 1.78,2.84 1.73,2.85 C1.68,2.86 1.62,2.88 1.58,2.9 C1.54,2.92 1.5,2.95 1.46,2.97 C1.42,2.99 1.39,3.03 1.36,3.06 L0.69,2.9 Z" id="path-3"></path>
    </defs>
    <g id="icon/av/replay_5_24px" stroke="none" stroke-width="1" fill="none" fill-rule="evenodd">
        <g id="↳-Dark-Color" transform="translate(4.000000, 1.000000)">
            <mask id="mask-2" fill="white">
                <use xlink:href="#path-1"></use>
            </mask>
            <g id="Mask" fill-rule="nonzero"></g>
            <g id="✱-/-Color-/-Icons-/-Black-/-Inactive" mask="url(#mask-2)" fill="#000000" fill-opacity="0.54">
                <rect id="Rectangle" x="0" y="0" width="101" height="101"></rect>
            </g>
        </g>
        <g id="↳-Dark-Color" transform="translate(10.000000, 11.000000)">
            <mask id="mask-4" fill="white">
                <use xlink:href="#path-3"></use>
            </mask>
            <g id="Mask" fill-rule="nonzero"></g>
            <g id="✱-/-Color-/-Icons-/-Black-/-Inactive" mask="url(#mask-4)" fill="#000000" fill-opacity="0.54">
                <rect id="Rectangle" x="0" y="0" width="101" height="101"></rect>
            </g>
        </g>
    </g>
</svg>