<?xml version="1.0" encoding="UTF-8"?>
<svg width="24px" height="24px" viewBox="0 0 24 24" version="1.1" xmlns="http://www.w3.org/2000/svg" xmlns:xlink="http://www.w3.org/1999/xlink">
    <!-- Generator: Sketch 50 (54983) - http://www.bohemiancoding.com/sketch -->
    <title>icon/av/replay_10_24px_two_tone</title>
    <desc>Created with Sketch.</desc>
    <defs>
        <path d="M8.99,4 L8.99,0 L3.99,5 L8.99,10 L8.99,6 C12.3,6 14.99,8.69 14.99,12 C14.99,15.31 12.3,18 8.99,18 C5.68,18 2.99,15.31 2.99,12 L0.99,12 C0.99,16.42 4.57,20 8.99,20 C13.41,20 16.99,16.42 16.99,12 C16.99,7.58 13.41,4 8.99,4 Z" id="path-1"></path>
        <polygon id="path-3" points="1.89 5 1.04 5 1.04 1.74 0.03 2.05 0.03 1.36 1.8 0.73 1.89 0.73"></polygon>
        <path d="M3.17,3.24 C3.17,3.56 3.14,3.84 3.07,4.06 C3,4.28 2.9,4.48 2.78,4.63 C2.66,4.78 2.5,4.89 2.33,4.96 C2.16,5.03 1.96,5.06 1.74,5.06 C1.52,5.06 1.33,5.03 1.15,4.96 C0.97,4.89 0.82,4.78 0.69,4.63 C0.56,4.48 0.46,4.29 0.39,4.06 C0.32,3.83 0.28,3.56 0.28,3.24 L0.28,2.5 C0.28,2.18 0.31,1.9 0.38,1.68 C0.45,1.46 0.55,1.26 0.67,1.11 C0.79,0.96 0.95,0.85 1.12,0.78 C1.29,0.71 1.49,0.68 1.71,0.68 C1.93,0.68 2.12,0.71 2.3,0.78 C2.48,0.85 2.63,0.96 2.76,1.11 C2.89,1.26 2.99,1.45 3.06,1.68 C3.13,1.91 3.17,2.18 3.17,2.5 L3.17,3.24 Z M2.32,2.38 C2.32,2.19 2.31,2.03 2.28,1.9 C2.25,1.77 2.21,1.67 2.16,1.59 C2.11,1.51 2.05,1.45 1.97,1.42 C1.89,1.39 1.81,1.37 1.72,1.37 C1.63,1.37 1.54,1.39 1.47,1.42 C1.4,1.45 1.33,1.51 1.28,1.59 C1.23,1.67 1.19,1.77 1.16,1.9 C1.13,2.03 1.12,2.19 1.12,2.38 L1.12,3.35 C1.12,3.54 1.13,3.7 1.16,3.83 C1.19,3.96 1.23,4.07 1.28,4.15 C1.33,4.23 1.39,4.29 1.47,4.32 C1.55,4.35 1.63,4.37 1.72,4.37 C1.81,4.37 1.9,4.35 1.97,4.32 C2.04,4.29 2.11,4.23 2.16,4.15 C2.21,4.07 2.25,3.96 2.27,3.83 C2.29,3.7 2.31,3.54 2.31,3.35 L2.31,2.38 L2.32,2.38 Z" id="path-5"></path>
    </defs>
    <g id="icon/av/replay_10_24px" stroke="none" stroke-width="1" fill="none" fill-rule="evenodd">
        <g id="↳-Dark-Color" transform="translate(3.000000, 1.000000)">
            <mask id="mask-2" fill="white">
                <use xlink:href="#path-1"></use>
            </mask>
            <g id="Mask" fill-rule="nonzero"></g>
            <g id="✱-/-Color-/-Icons-/-Black-/-Inactive" mask="url(#mask-2)" fill="#000000" fill-opacity="0.54">
                <rect id="Rectangle" x="0" y="0" width="101" height="101"></rect>
            </g>
        </g>
        <g id="↳-Dark-Color" transform="translate(9.000000, 11.000000)">
            <mask id="mask-4" fill="white">
                <use xlink:href="#path-3"></use>
            </mask>
            <g id="Mask" fill-rule="nonzero"></g>
            <g id="✱-/-Color-/-Icons-/-Black-/-Inactive" mask="url(#mask-4)" fill="#000000" fill-opacity="0.54">
                <rect id="Rectangle" x="0" y="0" width="101" height="101"></rect>
            </g>
        </g>
        <g id="↳-Dark-Color" transform="translate(12.000000, 11.000000)">
            <mask id="mask-6" fill="white">
                <use xlink:href="#path-5"></use>
            </mask>
            <g id="Mask" fill-rule="nonzero"></g>
            <g id="✱-/-Color-/-Icons-/-Black-/-Inactive" mask="url(#mask-6)" fill="#000000" fill-opacity="0.54">
                <rect id="Rectangle" x="0" y="0" width="101" height="101"></rect>
            </g>
        </g>
    </g>
</svg>