<?xml version="1.0" encoding="UTF-8"?>
<svg width="24px" height="24px" viewBox="0 0 24 24" version="1.1" xmlns="http://www.w3.org/2000/svg" xmlns:xlink="http://www.w3.org/1999/xlink">
    <!-- Generator: Sketch 50 (54983) - http://www.bohemiancoding.com/sketch -->
    <title>icon/av/replay_30_24px_two_tone</title>
    <desc>Created with Sketch.</desc>
    <defs>
        <path d="M8,4 L8,0 L3,5 L8,10 L8,6 C11.31,6 14,8.69 14,12 C14,15.31 11.31,18 8,18 C4.69,18 2,15.31 2,12 L0,12 C0,16.42 3.58,20 8,20 C12.42,20 16,16.42 16,12 C16,7.58 12.42,4 8,4 Z" id="path-1"></path>
        <path d="M1.56,2.49 L2.01,2.49 C2.22,2.49 2.38,2.44 2.49,2.33 C2.6,2.22 2.65,2.08 2.65,1.9 C2.65,1.82 2.64,1.75 2.61,1.68 C2.58,1.61 2.55,1.56 2.5,1.51 C2.45,1.46 2.39,1.42 2.32,1.4 C2.25,1.38 2.16,1.36 2.07,1.36 C1.99,1.36 1.92,1.37 1.85,1.39 C1.78,1.41 1.72,1.44 1.67,1.49 C1.62,1.54 1.58,1.58 1.55,1.64 C1.52,1.7 1.5,1.77 1.5,1.84 L0.65,1.84 C0.65,1.66 0.69,1.5 0.76,1.36 C0.83,1.22 0.93,1.09 1.06,0.99 C1.19,0.89 1.33,0.81 1.5,0.76 C1.67,0.71 1.85,0.68 2.04,0.68 C2.25,0.68 2.45,0.71 2.63,0.76 C2.81,0.81 2.96,0.89 3.09,0.99 C3.22,1.09 3.32,1.22 3.39,1.37 C3.46,1.52 3.5,1.7 3.5,1.9 C3.5,1.99 3.49,2.08 3.46,2.17 C3.43,2.26 3.39,2.34 3.33,2.42 C3.27,2.5 3.21,2.57 3.13,2.64 C3.05,2.71 2.96,2.76 2.85,2.81 C3.09,2.9 3.27,3.02 3.39,3.2 C3.51,3.38 3.57,3.58 3.57,3.81 C3.57,4.01 3.53,4.19 3.45,4.34 C3.37,4.49 3.27,4.63 3.13,4.73 C2.99,4.83 2.84,4.92 2.65,4.97 C2.46,5.02 2.27,5.05 2.05,5.05 C1.87,5.05 1.69,5.03 1.52,4.98 C1.35,4.93 1.19,4.86 1.06,4.75 C0.93,4.64 0.81,4.52 0.73,4.37 C0.65,4.22 0.61,4.03 0.61,3.82 L1.46,3.82 C1.46,3.9 1.48,3.97 1.51,4.04 C1.54,4.11 1.58,4.16 1.64,4.21 C1.7,4.26 1.76,4.3 1.84,4.32 C1.92,4.34 2,4.36 2.09,4.36 C2.19,4.36 2.28,4.35 2.36,4.32 C2.44,4.29 2.51,4.25 2.56,4.2 C2.61,4.15 2.66,4.09 2.69,4.02 C2.72,3.95 2.73,3.87 2.73,3.78 C2.73,3.67 2.71,3.57 2.68,3.49 C2.65,3.41 2.6,3.34 2.54,3.29 C2.48,3.24 2.41,3.2 2.32,3.18 C2.23,3.16 2.14,3.14 2.03,3.14 L1.56,3.14 L1.56,2.49 Z" id="path-3"></path>
        <path d="M3.3,3.24 C3.3,3.56 3.27,3.84 3.2,4.06 C3.13,4.28 3.03,4.48 2.91,4.63 C2.79,4.78 2.63,4.89 2.46,4.96 C2.29,5.03 2.09,5.06 1.87,5.06 C1.65,5.06 1.46,5.03 1.28,4.96 C1.1,4.89 0.95,4.78 0.82,4.63 C0.69,4.48 0.59,4.29 0.52,4.06 C0.45,3.83 0.41,3.56 0.41,3.24 L0.41,2.5 C0.41,2.18 0.44,1.9 0.51,1.68 C0.58,1.46 0.68,1.26 0.8,1.11 C0.92,0.96 1.08,0.85 1.25,0.78 C1.42,0.71 1.62,0.68 1.84,0.68 C2.06,0.68 2.25,0.71 2.43,0.78 C2.61,0.85 2.76,0.96 2.89,1.11 C3.02,1.26 3.12,1.45 3.19,1.68 C3.26,1.91 3.3,2.18 3.3,2.5 L3.3,3.24 Z M2.45,2.38 C2.45,2.19 2.44,2.03 2.41,1.9 C2.38,1.77 2.34,1.67 2.29,1.59 C2.24,1.51 2.18,1.45 2.1,1.42 C2.02,1.39 1.94,1.37 1.85,1.37 C1.76,1.37 1.67,1.39 1.6,1.42 C1.53,1.45 1.46,1.51 1.41,1.59 C1.36,1.67 1.32,1.77 1.29,1.9 C1.26,2.03 1.25,2.19 1.25,2.38 L1.25,3.35 C1.25,3.54 1.26,3.7 1.29,3.83 C1.32,3.96 1.36,4.07 1.41,4.15 C1.46,4.23 1.52,4.29 1.6,4.32 C1.68,4.35 1.76,4.37 1.85,4.37 C1.94,4.37 2.03,4.35 2.1,4.32 C2.17,4.29 2.24,4.23 2.29,4.15 C2.34,4.07 2.38,3.96 2.4,3.83 C2.43,3.7 2.44,3.54 2.44,3.35 L2.44,2.38 L2.45,2.38 Z" id="path-5"></path>
    </defs>
    <g id="icon/av/replay_30_24px" stroke="none" stroke-width="1" fill="none" fill-rule="evenodd">
        <g id="↳-Dark-Color" transform="translate(4.000000, 1.000000)">
            <mask id="mask-2" fill="white">
                <use xlink:href="#path-1"></use>
            </mask>
            <g id="Mask" fill-rule="nonzero"></g>
            <g id="✱-/-Color-/-Icons-/-Black-/-Inactive" mask="url(#mask-2)" fill="#000000" fill-opacity="0.54">
                <rect id="Rectangle" x="0" y="0" width="101" height="101"></rect>
            </g>
        </g>
        <g id="↳-Dark-Color" transform="translate(8.000000, 11.000000)">
            <mask id="mask-4" fill="white">
                <use xlink:href="#path-3"></use>
            </mask>
            <g id="Mask" fill-rule="nonzero"></g>
            <g id="✱-/-Color-/-Icons-/-Black-/-Inactive" mask="url(#mask-4)" fill="#000000" fill-opacity="0.54">
                <rect id="Rectangle" x="0" y="0" width="101" height="101"></rect>
            </g>
        </g>
        <g id="↳-Dark-Color" transform="translate(12.000000, 11.000000)">
            <mask id="mask-6" fill="white">
                <use xlink:href="#path-5"></use>
            </mask>
            <g id="Mask" fill-rule="nonzero"></g>
            <g id="✱-/-Color-/-Icons-/-Black-/-Inactive" mask="url(#mask-6)" fill="#000000" fill-opacity="0.54">
                <rect id="Rectangle" x="0" y="0" width="101" height="101"></rect>
            </g>
        </g>
    </g>
</svg>