<?xml version="1.0" encoding="UTF-8"?>
<svg width="24px" height="24px" viewBox="0 0 24 24" version="1.1" xmlns="http://www.w3.org/2000/svg" xmlns:xlink="http://www.w3.org/1999/xlink">
    <!-- Generator: Sketch 50 (54983) - http://www.bohemiancoding.com/sketch -->
    <title>icon/av/surround_sound_24px_two_tone</title>
    <desc>Created with Sketch.</desc>
    <defs>
        <path d="M0,12 L16,12 L16,0 L0,0 L0,12 Z M12.94,1.06 C14.32,2.41 15,4.21 15,6 C15,7.79 14.32,9.59 12.95,10.95 L11.72,9.72 C12.74,8.69 13.25,7.35 13.25,6 C13.25,4.65 12.73,3.31 11.71,2.29 L12.94,1.06 Z M8,2.5 C9.93,2.5 11.5,4.07 11.5,6 C11.5,7.93 9.93,9.5 8,9.5 C6.07,9.5 4.5,7.93 4.5,6 C4.5,4.07 6.07,2.5 8,2.5 Z M3.05,1.05 L4.28,2.28 C3.27,3.31 2.75,4.65 2.75,6 C2.75,7.35 3.27,8.69 4.29,9.71 L3.06,10.94 C1.68,9.59 1,7.79 1,6 C1,4.21 1.68,2.41 3.05,1.05 Z" id="path-1"></path>
        <path d="M18,0 L2,0 C0.9,0 0,0.9 0,2 L0,14 C0,15.1 0.9,16 2,16 L18,16 C19.1,16 20,15.1 20,14 L20,2 C20,0.9 19.1,0 18,0 Z M18,14 L2,14 L2,2 L18,2 L18,14 Z" id="path-3"></path>
        <path d="M3.29,8.71 C2.27,7.69 1.75,6.35 1.75,5 C1.75,3.65 2.27,2.31 3.28,1.28 L2.05,0.05 C0.68,1.41 0,3.21 0,5 C0,6.79 0.68,8.59 2.06,9.94 L3.29,8.71 Z" id="path-5"></path>
        <path d="M4,7.5 C5.93,7.5 7.5,5.93 7.5,4 C7.5,2.07 5.93,0.5 4,0.5 C2.07,0.5 0.5,2.07 0.5,4 C0.5,5.93 2.07,7.5 4,7.5 Z M4,2.5 C4.83,2.5 5.5,3.17 5.5,4 C5.5,4.83 4.83,5.5 4,5.5 C3.17,5.5 2.5,4.83 2.5,4 C2.5,3.17 3.17,2.5 4,2.5 Z" id="path-7"></path>
        <path d="M0.72,8.72 L1.95,9.95 C3.32,8.59 4,6.79 4,5 C4,3.21 3.32,1.41 1.94,0.06 L0.71,1.29 C1.73,2.31 2.25,3.65 2.25,5 C2.25,6.35 1.73,7.69 0.72,8.72 Z" id="path-9"></path>
    </defs>
    <g id="icon/av/surround_sound_24px" stroke="none" stroke-width="1" fill="none" fill-rule="evenodd">
        <g id="↳-Light-Color" transform="translate(4.000000, 6.000000)">
            <mask id="mask-2" fill="white">
                <use xlink:href="#path-1"></use>
            </mask>
            <g id="Mask" opacity="0.3" fill-rule="nonzero"></g>
            <g id="✱-/-Color-/-Icons-/-Black-/-Disabled" mask="url(#mask-2)" fill="#000000" fill-opacity="0.38">
                <rect id="Rectangle" x="0" y="0" width="101" height="101"></rect>
            </g>
        </g>
        <g id="↳-Dark-Color" transform="translate(2.000000, 4.000000)">
            <mask id="mask-4" fill="white">
                <use xlink:href="#path-3"></use>
            </mask>
            <g id="Mask" fill-rule="nonzero"></g>
            <g id="✱-/-Color-/-Icons-/-Black-/-Inactive" mask="url(#mask-4)" fill="#000000" fill-opacity="0.54">
                <rect id="Rectangle" x="0" y="0" width="101" height="101"></rect>
            </g>
        </g>
        <g id="↳-Dark-Color" transform="translate(5.000000, 7.000000)">
            <mask id="mask-6" fill="white">
                <use xlink:href="#path-5"></use>
            </mask>
            <g id="Mask" fill-rule="nonzero"></g>
            <g id="✱-/-Color-/-Icons-/-Black-/-Inactive" mask="url(#mask-6)" fill="#000000" fill-opacity="0.54">
                <rect id="Rectangle" x="0" y="0" width="101" height="101"></rect>
            </g>
        </g>
        <g id="↳-Dark-Color" transform="translate(8.000000, 8.000000)">
            <mask id="mask-8" fill="white">
                <use xlink:href="#path-7"></use>
            </mask>
            <g id="Mask" fill-rule="nonzero"></g>
            <g id="✱-/-Color-/-Icons-/-Black-/-Inactive" mask="url(#mask-8)" fill="#000000" fill-opacity="0.54">
                <rect id="Rectangle" x="0" y="0" width="101" height="101"></rect>
            </g>
        </g>
        <g id="↳-Dark-Color" transform="translate(15.000000, 7.000000)">
            <mask id="mask-10" fill="white">
                <use xlink:href="#path-9"></use>
            </mask>
            <g id="Mask" fill-rule="nonzero"></g>
            <g id="✱-/-Color-/-Icons-/-Black-/-Inactive" mask="url(#mask-10)" fill="#000000" fill-opacity="0.54">
                <rect id="Rectangle" x="0" y="0" width="101" height="101"></rect>
            </g>
        </g>
    </g>
</svg>