<?xml version="1.0" encoding="UTF-8"?>
<svg width="24px" height="24px" viewBox="0 0 24 24" version="1.1" xmlns="http://www.w3.org/2000/svg" xmlns:xlink="http://www.w3.org/1999/xlink">
    <!-- Generator: Sketch 50 (54983) - http://www.bohemiancoding.com/sketch -->
    <title>icon/av/volume_off_24px_two_tone</title>
    <desc>Created with Sketch.</desc>
    <defs>
        <polygon id="path-1" points="2.83 1 0 1 0 3 2.83 3 5 5.17 5 1.41 3.71 0.12"></polygon>
        <path d="M2.34,0.93 L0.93,2.34 L5.29,6.7 L5,7 L1,7 L1,13 L5,13 L10,18 L10,11.41 L14.18,15.59 C13.53,16.08 12.8,16.47 12,16.7 L12,18.76 C13.34,18.46 14.57,17.84 15.61,17.01 L17.66,19.06 L19.07,17.65 L2.34,0.93 Z M8,13.17 L5.83,11 L3,11 L3,9 L5.83,9 L6.71,8.12 L8,9.41 L8,13.17 Z" id="path-3"></path>
        <path d="M5,9 C5,9.82 4.85,10.61 4.59,11.34 L6.12,12.87 C6.68,11.7 7,10.39 7,9 C7,4.72 4.01,1.14 0,0.23 L0,2.29 C2.89,3.15 5,5.83 5,9 Z" id="path-5"></path>
        <polygon id="path-7" points="2 0 0.12 1.88 2 3.76"></polygon>
        <path d="M2.5,5 C2.5,3.23 1.48,1.71 0,0.97 L0,2.76 L2.48,5.24 C2.49,5.16 2.5,5.08 2.5,5 Z" id="path-9"></path>
    </defs>
    <g id="icon/av/volume_off_24px" stroke="none" stroke-width="1" fill="none" fill-rule="evenodd">
        <g id="↳-Light-Color" transform="translate(5.000000, 10.000000)">
            <mask id="mask-2" fill="white">
                <use xlink:href="#path-1"></use>
            </mask>
            <g id="Mask" opacity="0.3" fill-rule="nonzero"></g>
            <g id="✱-/-Color-/-Icons-/-Black-/-Disabled" mask="url(#mask-2)" fill="#000000" fill-opacity="0.38">
                <rect id="Rectangle" x="0" y="0" width="101" height="101"></rect>
            </g>
        </g>
        <g id="↳-Dark-Color" transform="translate(2.000000, 2.000000)">
            <mask id="mask-4" fill="white">
                <use xlink:href="#path-3"></use>
            </mask>
            <g id="Mask" fill-rule="nonzero"></g>
            <g id="✱-/-Color-/-Icons-/-Black-/-Inactive" mask="url(#mask-4)" fill="#000000" fill-opacity="0.54">
                <rect id="Rectangle" x="0" y="0" width="101" height="101"></rect>
            </g>
        </g>
        <g id="↳-Dark-Color" transform="translate(14.000000, 3.000000)">
            <mask id="mask-6" fill="white">
                <use xlink:href="#path-5"></use>
            </mask>
            <g id="Mask" fill-rule="nonzero"></g>
            <g id="✱-/-Color-/-Icons-/-Black-/-Inactive" mask="url(#mask-6)" fill="#000000" fill-opacity="0.54">
                <rect id="Rectangle" x="0" y="0" width="101" height="101"></rect>
            </g>
        </g>
        <g id="↳-Dark-Color" transform="translate(10.000000, 4.000000)">
            <mask id="mask-8" fill="white">
                <use xlink:href="#path-7"></use>
            </mask>
            <g id="Mask" fill-rule="nonzero"></g>
            <g id="✱-/-Color-/-Icons-/-Black-/-Inactive" mask="url(#mask-8)" fill="#000000" fill-opacity="0.54">
                <rect id="Rectangle" x="0" y="0" width="101" height="101"></rect>
            </g>
        </g>
        <g id="↳-Dark-Color" transform="translate(14.000000, 7.000000)">
            <mask id="mask-10" fill="white">
                <use xlink:href="#path-9"></use>
            </mask>
            <g id="Mask" fill-rule="nonzero"></g>
            <g id="✱-/-Color-/-Icons-/-Black-/-Inactive" mask="url(#mask-10)" fill="#000000" fill-opacity="0.54">
                <rect id="Rectangle" x="0" y="0" width="101" height="101"></rect>
            </g>
        </g>
    </g>
</svg>